<svg width="65" height="41" viewBox="0 0 65 41" fill="none" xmlns="http://www.w3.org/2000/svg">
<path d="M11.725 13.0493C11.2432 13.4636 10.922 13.8778 10.2795 14.2921C8.67335 15.3277 7.06715 15.9491 5.62159 17.1919C2.73049 19.6774 2.73045 22.7844 5.78217 24.8557C8.83389 26.927 12.0462 28.3769 15.4192 29.2054C19.5952 30.241 23.7713 30.6553 28.108 31.2767C29.8748 31.4838 31.6416 31.2767 33.569 31.2767C33.569 29.6196 33.7296 27.9626 33.7296 25.8913C35.657 28.7911 37.2631 31.2767 39.0299 33.7622C37.5843 35.6264 35.8176 37.9048 33.7296 40.8046C33.7296 38.7333 33.569 37.2834 33.569 35.8335C28.9111 35.4193 24.2531 35.005 19.7559 34.3836C14.4555 33.5551 9.31576 32.3123 4.49725 28.9983C2.40923 27.5484 0 25.8913 0 22.3701C0 18.6418 2.40923 16.9848 4.49725 15.5349C6.58528 14.085 8.83397 13.2564 11.0826 12.0137C11.4038 12.4279 11.5644 12.8422 11.725 13.0493Z" fill="#FC5253"/>
<path d="M42.0816 34.7978C41.7603 30.6552 41.7603 30.8624 44.3302 30.241C48.5062 28.9982 52.6823 27.5483 56.6977 25.8913C58.4645 25.2699 60.2313 23.6129 60.2313 20.9202C60.2313 18.2275 58.3039 17.1919 56.8584 16.1562C55.734 15.3277 54.6097 14.9134 53.4853 14.292C53.0035 14.0849 52.6823 13.4635 52.5217 12.635C56.3765 13.6707 59.91 14.9134 62.8011 18.6418C64.5679 20.9202 64.5679 23.6129 62.8011 25.8913C61.8374 27.134 60.7131 28.1697 59.4282 28.9982C54.1278 32.5194 48.185 33.7622 42.0816 34.7978Z" fill="#FC5253"/>
<path d="M53.0036 -0.000244141C51.3975 -0.000244141 50.1125 1.65679 50.1125 3.72808C50.1125 5.79937 51.3975 7.4564 53.0036 7.4564C54.6098 7.4564 55.8947 5.79937 55.8947 3.72808C55.8947 1.65679 54.6098 -0.000244141 53.0036 -0.000244141ZM53.0036 5.17798C52.3612 5.17798 51.7187 4.5566 51.7187 3.52095C51.7187 2.69244 52.2005 1.86392 53.0036 1.86392C53.6461 1.86392 54.2886 2.48531 54.2886 3.52095C54.2886 4.5566 53.6461 5.17798 53.0036 5.17798Z" fill="#FC5253"/>
<path d="M24.2533 15.7411C24.2533 19.2622 22.1653 21.9549 19.2742 21.9549C16.5437 21.9549 14.4557 19.4694 14.4557 15.9482H16.8649C17.0256 17.8123 17.9892 19.0551 19.4348 19.0551C20.8803 19.0551 22.0047 17.6052 22.0047 15.5339C22.0047 13.4626 20.8804 12.2199 19.1136 12.2199H17.3468V11.5985L20.3985 5.59173H14.9375V2.89905H23.9321V3.52044L20.7198 9.94144C22.6472 10.5628 24.2533 12.8412 24.2533 15.7411Z" fill="#FC5253"/>
<path d="M36.942 15.5345C36.942 19.2628 34.6934 22.1626 31.6416 22.1626C28.4293 22.1626 26.3413 19.47 26.3413 15.5345C26.3413 13.8775 26.8232 11.8062 27.9475 9.32064L30.8386 2.6925H33.4084C31.6416 6.62796 30.9992 8.28499 30.3567 9.7349C30.9992 9.52777 31.481 9.32064 32.1235 9.32064C34.6934 9.32064 36.942 11.8062 36.942 15.5345ZM34.5327 15.5345C34.5327 13.2561 33.2478 11.8062 31.6416 11.8062C29.8749 11.8062 28.7506 13.2561 28.7506 15.5345C28.7506 17.6058 30.0355 19.2628 31.6416 19.2628C33.2478 19.2628 34.5327 17.6058 34.5327 15.5345Z" fill="#FC5253"/>
<path d="M38.5481 12.2204C38.5481 6.21367 40.7967 2.48535 44.3303 2.48535C47.8638 2.48535 50.1125 6.21367 50.1125 12.2204C50.1125 18.2272 47.8638 21.9555 44.3303 21.9555C40.7967 21.9555 38.5481 18.2272 38.5481 12.2204ZM47.7033 12.2204C47.7033 7.87071 46.4183 5.38516 44.3303 5.38516C42.2422 5.38516 40.9574 7.87071 40.9574 12.2204C40.9574 16.5701 42.2422 19.0557 44.3303 19.0557C46.4183 19.2628 47.7033 16.5701 47.7033 12.2204Z" fill="#FC5253"/>
</svg>
