<svg width="17" height="18" viewBox="0 0 17 18" fill="none" xmlns="http://www.w3.org/2000/svg">
<path d="M4.99965 4.75316C5.41367 4.75316 5.7493 4.41754 5.7493 4.00353C5.7493 3.58953 5.41367 3.25391 4.99965 3.25391C4.58563 3.25391 4.25 3.58953 4.25 4.00353C4.25 4.41754 4.58563 4.75316 4.99965 4.75316Z" fill="#FF4040"/>
<path d="M1.00356 7.7512C1.41758 7.7512 1.75321 7.41559 1.75321 7.00158C1.75321 6.58757 1.41758 6.25195 1.00356 6.25195C0.589536 6.25195 0.253906 6.58757 0.253906 7.00158C0.253906 7.41559 0.589536 7.7512 1.00356 7.7512Z" fill="#003049"/>
<path d="M1.00356 11.2493C1.41758 11.2493 1.75321 10.9136 1.75321 10.4996C1.75321 10.0856 1.41758 9.75 1.00356 9.75C0.589536 9.75 0.253906 10.0856 0.253906 10.4996C0.253906 10.9136 0.589536 11.2493 1.00356 11.2493Z" fill="#F6CC4F"/>
<path d="M1.00356 14.7483C1.41758 14.7483 1.75321 14.4127 1.75321 13.9986C1.75321 13.5846 1.41758 13.249 1.00356 13.249C0.589536 13.249 0.253906 13.5846 0.253906 13.9986C0.253906 14.4127 0.589536 14.7483 1.00356 14.7483Z" fill="#003049"/>
<path d="M4.35175 7.75099C4.46589 7.48678 4.66774 7.27009 4.9232 7.13751C5.17866 7.00494 5.47206 6.96463 5.7538 7.02339C6.03555 7.08214 6.28838 7.23637 6.46955 7.45999C6.65072 7.68362 6.74912 7.96294 6.74814 8.25074V12.7485C6.74912 13.0363 6.65072 13.3156 6.46955 13.5392C6.28838 13.7629 6.03555 13.9171 5.7538 13.9758C5.47206 14.0346 5.17866 13.9943 4.9232 13.8617C4.66774 13.7291 4.46589 13.5124 4.35175 13.2482C4.28431 13.0903 4.24946 12.9203 4.2493 12.7485C4.24856 12.6534 4.25947 12.5586 4.28179 12.4661C4.18934 12.4884 4.09451 12.4994 3.99942 12.4986C3.66805 12.4986 3.35026 12.367 3.11595 12.1327C2.88163 11.8984 2.75 11.5806 2.75 11.2492C2.75108 11.0202 2.81473 10.7957 2.93408 10.6002C3.05343 10.4047 3.22393 10.2455 3.42718 10.1398C3.31081 9.94674 3.24946 9.72553 3.24977 9.50011C3.24983 9.21174 3.34964 8.93227 3.53228 8.70911C3.71491 8.48594 3.96913 8.33282 4.2518 8.27572C4.24973 8.26757 4.24889 8.25914 4.2493 8.25074C4.24946 8.07896 4.28431 7.90898 4.35175 7.75099Z" fill="#00C9D6"/>
<path d="M4.99965 17.7463C5.41367 17.7463 5.7493 17.4107 5.7493 16.9967C5.7493 16.5827 5.41367 16.2471 4.99965 16.2471C4.58563 16.2471 4.25 16.5827 4.25 16.9967C4.25 17.4107 4.58563 17.7463 4.99965 17.7463Z" fill="#7AF64F"/>
<path d="M9.99965 17.7463C10.4137 17.7463 10.7493 17.4107 10.7493 16.9967C10.7493 16.5827 10.4137 16.2471 9.99965 16.2471C9.58563 16.2471 9.25 16.5827 9.25 16.9967C9.25 17.4107 9.58563 17.7463 9.99965 17.7463Z" fill="#FF4040"/>
<path d="M13.9997 14.7483C14.4137 14.7483 14.7493 14.4127 14.7493 13.9986C14.7493 13.5846 14.4137 13.249 13.9997 13.249C13.5856 13.249 13.25 13.5846 13.25 13.9986C13.25 14.4127 13.5856 14.7483 13.9997 14.7483Z" fill="#003049"/>
<path d="M13.9997 11.2493C14.4137 11.2493 14.7493 10.9136 14.7493 10.4996C14.7493 10.0856 14.4137 9.75 13.9997 9.75C13.5856 9.75 13.25 10.0856 13.25 10.4996C13.25 10.9136 13.5856 11.2493 13.9997 11.2493Z" fill="#FFC728"/>
<path d="M10.7463 8.27572C11.029 8.33282 11.2832 8.48594 11.4659 8.70911C11.6485 8.93227 11.7483 9.21174 11.7484 9.50011C11.7487 9.72553 11.6873 9.94674 11.571 10.1398C11.7742 10.2455 11.9447 10.4047 12.0641 10.6002C12.1834 10.7957 12.2471 11.0202 12.2481 11.2492C12.2481 11.5806 12.1165 11.8984 11.8822 12.1327C11.6479 12.367 11.3301 12.4986 10.9987 12.4986C10.9036 12.4994 10.8088 12.4884 10.7164 12.4661C10.7387 12.5586 10.7496 12.6534 10.7488 12.7485C10.7487 12.9203 10.7138 13.0903 10.6464 13.2482C10.5323 13.5124 10.3304 13.7291 10.0749 13.8617C9.81948 13.9943 9.52609 14.0346 9.24434 13.9758C8.96259 13.9171 8.70977 13.7629 8.5286 13.5392C8.34743 13.3156 8.24902 13.0363 8.25001 12.7485V8.25074C8.24902 7.96294 8.34743 7.68362 8.5286 7.45999C8.70977 7.23637 8.96259 7.08214 9.24434 7.02339C9.52609 6.96463 9.81948 7.00494 10.0749 7.13751C10.3304 7.27009 10.5323 7.48678 10.6464 7.75099C10.7138 7.90898 10.7487 8.07896 10.7488 8.25074C10.7493 8.25914 10.7484 8.26757 10.7463 8.27572Z" fill="#02DFD2"/>
<path d="M13.9997 7.7512C14.4137 7.7512 14.7493 7.41559 14.7493 7.00158C14.7493 6.58757 14.4137 6.25195 13.9997 6.25195C13.5856 6.25195 13.25 6.58757 13.25 7.00158C13.25 7.41559 13.5856 7.7512 13.9997 7.7512Z" fill="#003049"/>
<path d="M9.99965 4.75316C10.4137 4.75316 10.7493 4.41754 10.7493 4.00353C10.7493 3.58953 10.4137 3.25391 9.99965 3.25391C9.58563 3.25391 9.25 3.58953 9.25 4.00353C9.25 4.41754 9.58563 4.75316 9.99965 4.75316Z" fill="#6DD130"/>
<path d="M15.9972 8.4995C16.1843 8.50011 16.3678 8.4482 16.5268 8.34968C16.6859 8.25116 16.8141 8.10998 16.8969 7.94221C16.9796 7.77444 17.0136 7.58681 16.995 7.40065C16.9765 7.2145 16.906 7.03731 16.7917 6.88922C16.6773 6.74114 16.5237 6.62811 16.3484 6.563C16.173 6.49789 15.9828 6.4833 15.7996 6.5209C15.6163 6.5585 15.4473 6.64678 15.3117 6.7757C15.1761 6.90461 15.0794 7.06899 15.0327 7.25012H14.1131C14.0463 7.17501 13.9718 7.10717 13.8907 7.04773C13.9613 6.8739 13.9978 6.68811 13.9982 6.5005C13.9971 6.18954 13.8993 5.88662 13.7185 5.63367C13.5376 5.38073 13.2825 5.19028 12.9886 5.0887C12.9861 5.05872 12.9811 5.03123 12.9761 5.00125H13.9982C14.0393 5.00103 14.0798 4.99066 14.116 4.97104C14.1521 4.95143 14.1829 4.92318 14.2056 4.8888L14.6329 4.25162H15.0327C15.0935 4.48717 15.2381 4.69245 15.4395 4.82898C15.6408 4.96552 15.8851 5.02393 16.1264 4.99328C16.3678 4.96263 16.5896 4.84501 16.7505 4.66248C16.9113 4.47994 17 4.24502 17 4.00175C17 3.75848 16.9113 3.52355 16.7505 3.34102C16.5896 3.15848 16.3678 3.04087 16.1264 3.01021C15.8851 2.97956 15.6408 3.03797 15.4395 3.17451C15.2381 3.31104 15.0935 3.51632 15.0327 3.75187H14.4979C14.4568 3.75208 14.4163 3.76246 14.3801 3.78208C14.3439 3.80169 14.3132 3.82994 14.2905 3.86432L13.8632 4.5015H12.7962C12.6648 4.27381 12.4757 4.08469 12.2481 3.95312C12.0205 3.82154 11.7622 3.75214 11.4993 3.75187V3.13718L12.1365 2.70989C12.1709 2.68726 12.1991 2.65648 12.2188 2.6203C12.2384 2.58412 12.2488 2.54365 12.249 2.5025V1.96776C12.4845 1.90694 12.6898 1.76231 12.8263 1.56096C12.9629 1.35962 13.0213 1.11539 12.9907 0.874059C12.96 0.632726 12.8424 0.410857 12.6598 0.25004C12.4773 0.0892235 12.2424 0.000499744 11.9991 0.000499744C11.7558 0.000499744 11.5209 0.0892235 11.3383 0.25004C11.1558 0.410857 11.0382 0.632726 11.0075 0.874059C10.9769 1.11539 11.0353 1.35962 11.1718 1.56096C11.3084 1.76231 11.5136 1.90694 11.7492 1.96776V2.36756L11.112 2.79485C11.0776 2.81749 11.0494 2.84826 11.0298 2.88444C11.0101 2.92062 10.9998 2.96109 10.9996 3.00225V3.83933C10.7075 3.94258 10.4546 4.13374 10.2756 4.38654C10.0967 4.63935 10.0004 4.94138 10 5.25112V9.74888C10.0004 10.0586 10.0967 10.3607 10.2756 10.6135C10.4546 10.8663 10.7075 11.0574 10.9996 11.1607V11.9978C10.9998 12.0389 11.0101 12.0794 11.0298 12.1156C11.0494 12.1517 11.0776 12.1825 11.112 12.2051L11.7492 12.6324V13.0322C11.5136 13.0931 11.3084 13.2377 11.1718 13.439C11.0353 13.6404 10.9769 13.8846 11.0075 14.1259C11.0382 14.3673 11.1558 14.5891 11.3383 14.75C11.5209 14.9108 11.7558 14.9995 11.9991 14.9995C12.2424 14.9995 12.4773 14.9108 12.6598 14.75C12.8424 14.5891 12.96 14.3673 12.9907 14.1259C13.0213 13.8846 12.9629 13.6404 12.8263 13.439C12.6898 13.2377 12.4845 13.0931 12.249 13.0322V12.4975C12.2488 12.4563 12.2384 12.4159 12.2188 12.3797C12.1991 12.3435 12.1709 12.3127 12.1365 12.2901L11.4993 11.8628V11.2481C11.7622 11.2479 12.0205 11.1785 12.2481 11.0469C12.4757 10.9153 12.6648 10.7262 12.7962 10.4985H13.8632L14.2905 11.1357C14.3132 11.1701 14.3439 11.1983 14.3801 11.2179C14.4163 11.2375 14.4568 11.2479 14.4979 11.2481H15.0327C15.0935 11.4837 15.2381 11.689 15.4395 11.8255C15.6408 11.962 15.8851 12.0204 16.1264 11.9898C16.3678 11.9591 16.5896 11.8415 16.7505 11.659C16.9113 11.4764 17 11.2415 17 10.9983C17 10.755 16.9113 10.5201 16.7505 10.3375C16.5896 10.155 16.3678 10.0374 16.1264 10.0067C15.8851 9.97606 15.6408 10.0345 15.4395 10.171C15.2381 10.3076 15.0935 10.5128 15.0327 10.7484H14.6329L14.2056 10.1112C14.1829 10.0768 14.1521 10.0486 14.116 10.029C14.0798 10.0093 14.0393 9.99896 13.9982 9.99875H12.9761C12.9899 9.91615 12.9974 9.83262 12.9986 9.74888C13.3963 9.74888 13.7776 9.59092 14.0588 9.30976C14.34 9.02859 14.4979 8.64725 14.4979 8.24963C14.4975 8.07905 14.4671 7.90988 14.408 7.74988H15.0327C15.0879 7.96389 15.2126 8.15355 15.3871 8.28918C15.5616 8.42482 15.7762 8.49878 15.9972 8.4995ZM15.9972 7.00025C16.0961 7.00025 16.1927 7.02956 16.2749 7.08447C16.3571 7.13939 16.4211 7.21744 16.4589 7.30875C16.4968 7.40007 16.5067 7.50055 16.4874 7.5975C16.4681 7.69444 16.4205 7.78349 16.3506 7.85338C16.2807 7.92327 16.1917 7.97086 16.0947 7.99015C15.9978 8.00943 15.8973 7.99953 15.806 7.96171C15.7146 7.92388 15.6366 7.85983 15.5817 7.77765C15.5268 7.69546 15.4975 7.59884 15.4975 7.5C15.4979 7.36758 15.5506 7.24069 15.6443 7.14706C15.7379 7.05342 15.8648 7.00064 15.9972 7.00025ZM15.9972 3.502C16.0961 3.502 16.1927 3.53131 16.2749 3.58622C16.3571 3.64113 16.4211 3.71918 16.4589 3.8105C16.4968 3.90182 16.5067 4.0023 16.4874 4.09924C16.4681 4.19619 16.4205 4.28523 16.3506 4.35512C16.2807 4.42502 16.1917 4.47261 16.0947 4.4919C15.9978 4.51118 15.8973 4.50128 15.806 4.46346C15.7146 4.42563 15.6366 4.36158 15.5817 4.27939C15.5268 4.19721 15.4975 4.10059 15.4975 4.00175C15.4979 3.86933 15.5506 3.74244 15.6443 3.64881C15.7379 3.55517 15.8648 3.50239 15.9972 3.502ZM11.4993 1.00324C11.4993 0.904403 11.5286 0.807782 11.5835 0.725598C11.6385 0.643415 11.7165 0.57936 11.8078 0.541535C11.8992 0.503711 11.9996 0.493814 12.0966 0.513097C12.1935 0.53238 12.2826 0.579976 12.3525 0.649868C12.4224 0.719759 12.47 0.808806 12.4892 0.905748C12.5085 1.00269 12.4986 1.10317 12.4608 1.19449C12.423 1.28581 12.3589 1.36386 12.2767 1.41877C12.1946 1.47369 12.0979 1.503 11.9991 1.503C11.8667 1.5026 11.7398 1.44982 11.6461 1.35618C11.5525 1.26255 11.4997 1.13567 11.4993 1.00324ZM12.4989 13.9968C12.4989 14.0956 12.4695 14.1922 12.4146 14.2744C12.3597 14.3566 12.2817 14.4206 12.1903 14.4585C12.099 14.4963 11.9985 14.5062 11.9016 14.4869C11.8046 14.4676 11.7156 14.42 11.6457 14.3501C11.5758 14.2802 11.5282 14.1912 11.5089 14.0943C11.4896 13.9973 11.4995 13.8968 11.5374 13.8055C11.5752 13.7142 11.6392 13.6361 11.7214 13.5812C11.8036 13.5263 11.9002 13.497 11.9991 13.497C12.1315 13.4974 12.2584 13.5502 12.352 13.6438C12.4457 13.7375 12.4985 13.8643 12.4989 13.9968ZM15.9972 10.4985C16.0961 10.4985 16.1927 10.5278 16.2749 10.5827C16.3571 10.6376 16.4211 10.7157 16.4589 10.807C16.4968 10.8983 16.5067 10.9988 16.4874 11.0957C16.4681 11.1927 16.4205 11.2817 16.3506 11.3516C16.2807 11.4215 16.1917 11.4691 16.0947 11.4884C15.9978 11.5077 15.8973 11.4978 15.806 11.46C15.7146 11.4221 15.6366 11.3581 15.5817 11.2759C15.5268 11.1937 15.4975 11.0971 15.4975 10.9983C15.4979 10.8658 15.5506 10.7389 15.6443 10.6453C15.7379 10.5517 15.8648 10.4989 15.9972 10.4985ZM12.9986 9.24913C12.9661 9.24913 12.9386 9.24163 12.9062 9.23913C12.802 8.94949 12.611 8.69904 12.3592 8.52195C12.1074 8.34487 11.8071 8.24977 11.4993 8.24963V8.74938C11.697 8.74938 11.8903 8.808 12.0546 8.91782C12.219 9.02765 12.3471 9.18375 12.4228 9.36638C12.4984 9.54902 12.5182 9.74999 12.4796 9.94387C12.4411 10.1378 12.3459 10.3158 12.2061 10.4556C12.0663 10.5954 11.8882 10.6906 11.6943 10.7292C11.5004 10.7677 11.2995 10.7479 11.1168 10.6723C10.9342 10.5966 10.7781 10.4685 10.6682 10.3042C10.5584 10.1398 10.4998 9.94656 10.4998 9.74888V5.25112C10.4998 5.05344 10.5584 4.8602 10.6682 4.69583C10.7781 4.53146 10.9342 4.40335 11.1168 4.3277C11.2995 4.25206 11.5004 4.23226 11.6943 4.27083C11.8882 4.30939 12.0663 4.40459 12.2061 4.54437C12.3459 4.68415 12.4411 4.86225 12.4796 5.05613C12.5182 5.25001 12.4984 5.45098 12.4228 5.63362C12.3471 5.81625 12.219 5.97235 12.0546 6.08218C11.8903 6.192 11.697 6.25062 11.4993 6.25062V6.75037C11.8334 6.7497 12.1577 6.63747 12.4207 6.43149C12.6837 6.22552 12.8704 5.93761 12.9511 5.61344C13.1661 5.72011 13.3348 5.9016 13.4255 6.12383C13.5161 6.34606 13.5225 6.59373 13.4434 6.82034C13.2996 6.77444 13.1496 6.75084 12.9986 6.75037V7.25012C13.158 7.24937 13.3151 7.288 13.4559 7.36257C13.6543 7.46559 13.8125 7.63216 13.9051 7.83565C13.9977 8.03914 14.0194 8.2678 13.9667 8.48508C13.9141 8.70235 13.7901 8.8957 13.6146 9.03421C13.4391 9.17272 13.2222 9.24839 12.9986 9.24913ZM8.00095 3.83933V3.00225C8.00096 2.96112 7.99081 2.92063 7.97141 2.88436C7.95201 2.84809 7.92396 2.81718 7.88975 2.79435L7.2513 2.36881V1.96726C7.48685 1.90645 7.69214 1.76181 7.82868 1.56046C7.96522 1.35912 8.02364 1.11489 7.99298 0.873559C7.96233 0.632226 7.84471 0.410358 7.66216 0.249541C7.47962 0.0887238 7.24469 0 7.00141 0C6.75813 0 6.52321 0.0887238 6.34066 0.249541C6.15812 0.410358 6.0405 0.632226 6.00985 0.873559C5.97919 1.11489 6.03761 1.35912 6.17415 1.56046C6.31069 1.76181 6.51598 1.90645 6.75153 1.96726V2.5025C6.75152 2.54362 6.76167 2.58412 6.78107 2.62038C6.80047 2.65665 6.82852 2.68757 6.86273 2.71039L7.50118 3.13593V3.75187C7.23834 3.75223 6.98022 3.82167 6.75269 3.95324C6.52515 4.08481 6.3362 4.27388 6.20479 4.5015H5.13603L4.71123 3.86307C4.68834 3.82875 4.6573 3.80063 4.62089 3.78123C4.58448 3.76183 4.54383 3.75174 4.50258 3.75187H3.96733C3.90651 3.51632 3.76187 3.31104 3.56052 3.17451C3.35917 3.03797 3.11493 2.97956 2.87359 3.01021C2.63225 3.04087 2.41037 3.15848 2.24955 3.34102C2.08873 3.52355 2 3.75848 2 4.00175C2 4.24502 2.08873 4.47994 2.24955 4.66248C2.41037 4.84501 2.63225 4.96263 2.87359 4.99328C3.11493 5.02393 3.35917 4.96552 3.56052 4.82898C3.76187 4.69245 3.90651 4.48717 3.96733 4.25162H4.36889L4.79369 4.89005C4.81659 4.92437 4.84763 4.95249 4.88404 4.97189C4.92044 4.99129 4.96109 5.00138 5.00235 5.00125H6.02437C6.01962 5.02998 6.01438 5.05872 6.01113 5.0882C5.81987 5.15306 5.64385 5.25621 5.4938 5.39137C5.34374 5.52653 5.22282 5.69085 5.13839 5.8743C5.05397 6.05775 5.00783 6.25648 5.00279 6.45836C4.99774 6.66024 5.0339 6.86104 5.10905 7.04848C5.02904 7.10817 4.95521 7.17573 4.88865 7.25012H3.96733C3.90651 7.01458 3.76187 6.8093 3.56052 6.67276C3.35917 6.53623 3.11493 6.47781 2.87359 6.50847C2.63225 6.53912 2.41037 6.65674 2.24955 6.83927C2.08873 7.02181 2 7.25673 2 7.5C2 7.74327 2.08873 7.97819 2.24955 8.16073C2.41037 8.34326 2.63225 8.46088 2.87359 8.49153C3.11493 8.52219 3.35917 8.46377 3.56052 8.32724C3.76187 8.1907 3.90651 7.98542 3.96733 7.74988H4.59204C4.51032 7.9757 4.48434 8.21792 4.51631 8.45594C4.54828 8.69396 4.63726 8.92074 4.77567 9.117C4.91409 9.31326 5.09785 9.47319 5.31134 9.58321C5.52482 9.69322 5.76172 9.75005 6.00188 9.74888C6.00238 9.83265 6.00991 9.91623 6.02437 9.99875H5.00235C4.96122 9.99875 4.92072 10.0089 4.88446 10.0283C4.84819 10.0477 4.81727 10.0757 4.79444 10.1099L4.36889 10.7484H3.96733C3.90651 10.5128 3.76187 10.3076 3.56052 10.171C3.35917 10.0345 3.11493 9.97606 2.87359 10.0067C2.63225 10.0374 2.41037 10.155 2.24955 10.3375C2.08873 10.5201 2 10.755 2 10.9983C2 11.2415 2.08873 11.4764 2.24955 11.659C2.41037 11.8415 2.63225 11.9591 2.87359 11.9898C3.11493 12.0204 3.35917 11.962 3.56052 11.8255C3.76187 11.689 3.90651 11.4837 3.96733 11.2481H4.50258C4.54371 11.2481 4.5842 11.238 4.62047 11.2186C4.65674 11.1992 4.68766 11.1711 4.71048 11.1369L5.13603 10.4985H6.20479C6.3362 10.7261 6.52515 10.9152 6.75269 11.0468C6.98022 11.1783 7.23834 11.2478 7.50118 11.2481V11.8641L6.86273 12.2889C6.82841 12.3118 6.80029 12.3428 6.78089 12.3792C6.76149 12.4156 6.7514 12.4562 6.75153 12.4975V13.0327C6.51598 13.0936 6.31069 13.2382 6.17415 13.4395C6.03761 13.6409 5.97919 13.8851 6.00985 14.1264C6.0405 14.3678 6.15812 14.5896 6.34066 14.7505C6.52321 14.9113 6.75813 15 7.00141 15C7.24469 15 7.47962 14.9113 7.66216 14.7505C7.84471 14.5896 7.96233 14.3678 7.99298 14.1264C8.02364 13.8851 7.96522 13.6409 7.82868 13.4395C7.69214 13.2382 7.48685 13.0936 7.2513 13.0327V12.6312L7.88975 12.2064C7.92407 12.1835 7.95219 12.1525 7.97159 12.1161C7.99099 12.0797 8.00108 12.039 8.00095 11.9978V11.1607C8.29299 11.0574 8.54588 10.8663 8.72486 10.6135C8.90384 10.3607 9.00013 10.0586 9.00048 9.74888V5.25112C9.00013 4.94138 8.90384 4.63935 8.72486 4.38654C8.54588 4.13374 8.29299 3.94258 8.00095 3.83933ZM6.50165 1.00324C6.50165 0.904403 6.53096 0.807782 6.58587 0.725598C6.64079 0.643415 6.71884 0.57936 6.81016 0.541535C6.90148 0.503711 7.00197 0.493814 7.09891 0.513097C7.19586 0.53238 7.28491 0.579976 7.3548 0.649868C7.4247 0.719759 7.4723 0.808806 7.49158 0.905748C7.51086 1.00269 7.50097 1.10317 7.46314 1.19449C7.42531 1.28581 7.36126 1.36386 7.27907 1.41877C7.19688 1.47369 7.10026 1.503 7.00141 1.503C6.86887 1.503 6.74175 1.45034 6.64803 1.35662C6.5543 1.2629 6.50165 1.13579 6.50165 1.00324ZM3.00328 4.5015C2.90443 4.5015 2.80781 4.47219 2.72562 4.41727C2.64344 4.36236 2.57938 4.28431 2.54155 4.19299C2.50373 4.10168 2.49383 4.00119 2.51311 3.90425C2.5324 3.80731 2.58 3.71826 2.64989 3.64837C2.71978 3.57848 2.80883 3.53088 2.90578 3.5116C3.00272 3.49232 3.10321 3.50221 3.19453 3.54004C3.28585 3.57786 3.3639 3.64192 3.41882 3.7241C3.47373 3.80628 3.50305 3.90291 3.50305 4.00175C3.50305 4.13429 3.45039 4.2614 3.35667 4.35512C3.26294 4.44885 3.13582 4.5015 3.00328 4.5015ZM3.00328 7.99975C2.90443 7.99975 2.80781 7.97044 2.72562 7.91553C2.64344 7.86061 2.57938 7.78256 2.54155 7.69125C2.50373 7.59993 2.49383 7.49945 2.51311 7.4025C2.5324 7.30556 2.58 7.21651 2.64989 7.14662C2.71978 7.07673 2.80883 7.02913 2.90578 7.00985C3.00272 6.99057 3.10321 7.00047 3.19453 7.03829C3.28585 7.07612 3.3639 7.14017 3.41882 7.22235C3.47373 7.30454 3.50305 7.40116 3.50305 7.5C3.50305 7.63254 3.45039 7.75966 3.35667 7.85338C3.26294 7.9471 3.13582 7.99975 3.00328 7.99975ZM3.00328 11.498C2.90443 11.498 2.80781 11.4687 2.72562 11.4138C2.64344 11.3589 2.57938 11.2808 2.54155 11.1895C2.50373 11.0982 2.49383 10.9977 2.51311 10.9008C2.5324 10.8038 2.58 10.7148 2.64989 10.6449C2.71978 10.575 2.80883 10.5274 2.90578 10.5081C3.00272 10.4888 3.10321 10.4987 3.19453 10.5365C3.28585 10.5744 3.3639 10.6384 3.41882 10.7206C3.47373 10.8028 3.50305 10.8994 3.50305 10.9983C3.50305 11.1308 3.45039 11.2579 3.35667 11.3516C3.26294 11.4454 3.13582 11.498 3.00328 11.498ZM7.50118 13.9968C7.50118 14.0956 7.47187 14.1922 7.41696 14.2744C7.36204 14.3566 7.28399 14.4206 7.19267 14.4585C7.10135 14.4963 7.00086 14.5062 6.90391 14.4869C6.80697 14.4676 6.71792 14.42 6.64803 14.3501C6.57813 14.2802 6.53053 14.1912 6.51125 14.0943C6.49197 13.9973 6.50186 13.8968 6.53969 13.8055C6.57752 13.7142 6.64157 13.6361 6.72376 13.5812C6.80594 13.5263 6.90257 13.497 7.00141 13.497C7.13396 13.497 7.26108 13.5497 7.3548 13.6434C7.44853 13.7371 7.50118 13.8642 7.50118 13.9968ZM8.50072 9.74888C8.50072 9.94656 8.44209 10.1398 8.33226 10.3042C8.22243 10.4685 8.06633 10.5966 7.88369 10.6723C7.70105 10.7479 7.50007 10.7677 7.30618 10.7292C7.11229 10.6906 6.93419 10.5954 6.7944 10.4556C6.65462 10.3158 6.55942 10.1378 6.52085 9.94387C6.48229 9.74999 6.50208 9.54902 6.57773 9.36638C6.65339 9.18375 6.7815 9.02765 6.94587 8.91782C7.11024 8.808 7.30349 8.74938 7.50118 8.74938V8.24963C7.1933 8.24999 6.89299 8.34514 6.64107 8.52213C6.38915 8.69911 6.19782 8.94937 6.09309 9.23888C6.0621 9.24163 6.03512 9.24913 6.00188 9.24913C5.77795 9.24859 5.56068 9.17287 5.38492 9.03412C5.20916 8.89536 5.08509 8.70161 5.0326 8.48392C4.9801 8.26624 5.00223 8.03723 5.09544 7.83363C5.18864 7.63002 5.34752 7.4636 5.54659 7.36107C5.68707 7.28761 5.84335 7.24953 6.00188 7.25012V6.75037C5.85092 6.75118 5.70095 6.77485 5.55709 6.82059C5.52103 6.71771 5.50245 6.60952 5.50211 6.5005C5.50292 6.31687 5.5543 6.13701 5.65061 5.98066C5.74693 5.82431 5.88446 5.69751 6.04811 5.61419C6.12927 5.9383 6.31628 6.22605 6.57949 6.43186C6.8427 6.63766 7.16706 6.74976 7.50118 6.75037V6.25062C7.30349 6.25062 7.11024 6.192 6.94587 6.08218C6.7815 5.97235 6.65339 5.81625 6.57773 5.63362C6.50208 5.45098 6.48229 5.25001 6.52085 5.05613C6.55942 4.86225 6.65462 4.68415 6.7944 4.54437C6.93419 4.40459 7.11229 4.30939 7.30618 4.27083C7.50007 4.23226 7.70105 4.25206 7.88369 4.3277C8.06633 4.40335 8.22243 4.53146 8.33226 4.69583C8.44209 4.8602 8.50072 5.05344 8.50072 5.25112V9.74888Z" fill="black"/>
</svg>
