<svg width="15" height="15" viewBox="0 0 15 15" fill="none" xmlns="http://www.w3.org/2000/svg">
<path d="M13.125 6.32034V14.0236H0.875V3.28395H8.99937C8.97935 3.12218 8.96912 2.95909 8.96875 2.79578C8.96919 2.63225 8.97925 2.4692 8.99937 2.30762H0.875C0.642936 2.30762 0.420376 2.41048 0.256282 2.59358C0.0921872 2.77668 0 3.02501 0 3.28395V14.0236C0 14.2825 0.0921872 14.5309 0.256282 14.714C0.420376 14.8971 0.642936 14.9999 0.875 14.9999H13.125C13.3571 14.9999 13.5796 14.8971 13.7437 14.714C13.9078 14.5309 14 14.2825 14 14.0236V5.89075C13.7288 6.08114 13.4339 6.22564 13.125 6.32034Z" fill="#003049"/>
<path d="M6.05003 7.05399L3.62967 11.0068L2 9.387L2.42632 8.84555L3.51142 9.92392L6.05566 5.76953L8.77043 10.2959L11.4868 6.26216L12 6.69875L8.73986 11.5388L6.05003 7.05399Z" fill="#FF4040"/>
<path d="M13 4.61538C14.1046 4.61538 15 3.5822 15 2.30769C15 1.03319 14.1046 0 13 0C11.8954 0 11 1.03319 11 2.30769C11 3.5822 11.8954 4.61538 13 4.61538Z" fill="#00CEEA"/>
</svg>
