<svg xmlns="http://www.w3.org/2000/svg" fill="none" viewBox="195.11 128 247.96 319.4">
<g filter="url(#filter0_d_330_5)">
<rect x="195.107" y="128" width="247.957" height="319.398" rx="11.1105" fill="#316AFF"/>
</g>
<g clip-path="url(#clip0_330_5)">
<path d="M275.114 312.289V303.462H276.114V311.329H280.927V312.289H275.114ZM284.402 312.395C283.753 312.395 283.184 312.244 282.696 311.942C282.216 311.631 281.842 311.213 281.576 310.689C281.309 310.164 281.176 309.587 281.176 308.955C281.176 308.315 281.309 307.738 281.576 307.222C281.842 306.698 282.216 306.284 282.696 305.982C283.184 305.671 283.753 305.516 284.402 305.516C284.953 305.516 285.424 305.622 285.815 305.836C286.215 306.049 286.54 306.338 286.789 306.702V305.622H287.789V312.289H286.789V311.222C286.54 311.578 286.215 311.862 285.815 312.075C285.424 312.289 284.953 312.395 284.402 312.395ZM284.535 311.489C285.033 311.489 285.451 311.373 285.789 311.142C286.135 310.911 286.398 310.604 286.575 310.222C286.753 309.831 286.842 309.409 286.842 308.955C286.842 308.493 286.753 308.071 286.575 307.689C286.398 307.307 286.135 307 285.789 306.769C285.451 306.538 285.033 306.422 284.535 306.422C284.047 306.422 283.624 306.538 283.269 306.769C282.913 307 282.642 307.307 282.456 307.689C282.269 308.071 282.176 308.493 282.176 308.955C282.176 309.409 282.269 309.831 282.456 310.222C282.642 310.604 282.913 310.911 283.269 311.142C283.624 311.373 284.047 311.489 284.535 311.489ZM289.96 312.289V306.502H288.6V305.622H289.96V303.236H290.96V305.622H292.494V306.502H290.96V312.289H289.96ZM296.141 312.395C295.466 312.395 294.874 312.244 294.368 311.942C293.861 311.631 293.466 311.213 293.181 310.689C292.906 310.164 292.768 309.587 292.768 308.955C292.768 308.315 292.901 307.738 293.168 307.222C293.435 306.698 293.817 306.284 294.314 305.982C294.812 305.671 295.399 305.516 296.074 305.516C296.759 305.516 297.345 305.671 297.834 305.982C298.332 306.284 298.714 306.698 298.981 307.222C299.248 307.738 299.381 308.315 299.381 308.955V309.355H293.795C293.848 309.746 293.972 310.106 294.168 310.435C294.372 310.755 294.643 311.013 294.981 311.209C295.319 311.395 295.71 311.489 296.154 311.489C296.625 311.489 297.021 311.386 297.341 311.182C297.661 310.969 297.91 310.698 298.088 310.369H299.181C298.95 310.964 298.581 311.453 298.074 311.835C297.577 312.209 296.932 312.395 296.141 312.395ZM293.808 308.422H298.341C298.252 307.853 298.012 307.378 297.621 306.996C297.23 306.613 296.714 306.422 296.074 306.422C295.434 306.422 294.919 306.613 294.528 306.996C294.146 307.378 293.906 307.853 293.808 308.422ZM302.751 312.395C302.138 312.395 301.618 312.293 301.192 312.089C300.774 311.884 300.454 311.618 300.232 311.289C300.009 310.951 299.885 310.586 299.858 310.195H300.898C300.925 310.418 301 310.635 301.125 310.849C301.258 311.053 301.458 311.222 301.725 311.355C301.991 311.48 302.338 311.542 302.765 311.542C302.898 311.542 303.063 311.529 303.258 311.502C303.454 311.475 303.64 311.426 303.818 311.355C304.005 311.284 304.16 311.178 304.285 311.035C304.409 310.893 304.471 310.711 304.471 310.489C304.471 310.213 304.365 310 304.151 309.849C303.938 309.698 303.662 309.582 303.325 309.502C302.987 309.413 302.627 309.329 302.245 309.249C301.871 309.169 301.516 309.067 301.178 308.942C300.84 308.809 300.565 308.627 300.352 308.395C300.138 308.155 300.032 307.831 300.032 307.422C300.032 306.818 300.249 306.351 300.685 306.022C301.129 305.685 301.783 305.516 302.645 305.516C303.231 305.516 303.707 305.609 304.071 305.796C304.445 305.973 304.725 306.204 304.911 306.489C305.107 306.773 305.222 307.08 305.258 307.409H304.245C304.209 307.124 304.067 306.88 303.818 306.676C303.578 306.471 303.178 306.369 302.618 306.369C301.56 306.369 301.032 306.689 301.032 307.329C301.032 307.596 301.138 307.8 301.352 307.942C301.565 308.084 301.84 308.2 302.178 308.289C302.516 308.369 302.871 308.449 303.245 308.529C303.627 308.6 303.987 308.702 304.325 308.835C304.662 308.969 304.938 309.16 305.151 309.409C305.365 309.649 305.471 309.978 305.471 310.395C305.471 311.044 305.222 311.542 304.725 311.889C304.236 312.226 303.578 312.395 302.751 312.395ZM307.199 312.289V306.502H305.839V305.622H307.199V303.236H308.199V305.622H309.732V306.502H308.199V312.289H307.199ZM313.324 312.289V303.462H317.297C318.239 303.462 318.981 303.72 319.524 304.236C320.066 304.742 320.337 305.431 320.337 306.302C320.337 307.173 320.066 307.867 319.524 308.382C318.981 308.889 318.239 309.142 317.297 309.142H314.324V312.289H313.324ZM314.324 308.209H317.23C317.924 308.209 318.448 308.04 318.804 307.702C319.159 307.364 319.337 306.898 319.337 306.302C319.337 305.716 319.159 305.253 318.804 304.916C318.448 304.578 317.924 304.409 317.23 304.409H314.324V308.209ZM321.205 312.289V305.622H322.205V307.262C322.24 307.147 322.307 306.996 322.405 306.809C322.511 306.613 322.663 306.418 322.858 306.222C323.054 306.027 323.298 305.862 323.591 305.729C323.894 305.587 324.249 305.516 324.658 305.516H324.725V306.516H324.605C324.107 306.516 323.676 306.653 323.311 306.929C322.956 307.196 322.68 307.547 322.485 307.982C322.298 308.409 322.205 308.867 322.205 309.355V312.289H321.205ZM328.247 312.395C327.572 312.395 326.985 312.244 326.487 311.942C325.989 311.631 325.607 311.213 325.341 310.689C325.074 310.164 324.941 309.587 324.941 308.955C324.941 308.315 325.074 307.738 325.341 307.222C325.607 306.698 325.989 306.284 326.487 305.982C326.985 305.671 327.572 305.516 328.247 305.516C328.931 305.516 329.518 305.671 330.007 305.982C330.505 306.284 330.887 306.698 331.154 307.222C331.42 307.738 331.554 308.315 331.554 308.955C331.554 309.587 331.42 310.164 331.154 310.689C330.887 311.213 330.505 311.631 330.007 311.942C329.518 312.244 328.931 312.395 328.247 312.395ZM328.247 311.489C328.745 311.489 329.163 311.373 329.5 311.142C329.847 310.911 330.109 310.604 330.287 310.222C330.465 309.831 330.554 309.409 330.554 308.955C330.554 308.493 330.465 308.071 330.287 307.689C330.109 307.307 329.847 307 329.5 306.769C329.163 306.538 328.745 306.422 328.247 306.422C327.758 306.422 327.34 306.538 326.994 306.769C326.647 307 326.385 307.307 326.207 307.689C326.029 308.071 325.941 308.493 325.941 308.955C325.941 309.409 326.029 309.831 326.207 310.222C326.385 310.604 326.647 310.911 326.994 311.142C327.34 311.373 327.758 311.489 328.247 311.489ZM335.415 312.395C334.766 312.395 334.197 312.244 333.708 311.942C333.228 311.631 332.855 311.213 332.588 310.689C332.322 310.164 332.188 309.587 332.188 308.955C332.188 308.315 332.322 307.738 332.588 307.222C332.855 306.698 333.228 306.284 333.708 305.982C334.197 305.671 334.766 305.516 335.415 305.516C335.966 305.516 336.437 305.622 336.828 305.836C337.228 306.049 337.553 306.338 337.801 306.702V302.956H338.801V312.289H337.801V311.222C337.553 311.578 337.228 311.862 336.828 312.075C336.437 312.289 335.966 312.395 335.415 312.395ZM335.548 311.489C336.046 311.489 336.464 311.373 336.802 311.142C337.148 310.911 337.41 310.604 337.588 310.222C337.766 309.831 337.855 309.409 337.855 308.955C337.855 308.493 337.766 308.071 337.588 307.689C337.41 307.307 337.148 307 336.802 306.769C336.464 306.538 336.046 306.422 335.548 306.422C335.059 306.422 334.637 306.538 334.282 306.769C333.926 307 333.655 307.307 333.468 307.689C333.282 308.071 333.188 308.493 333.188 308.955C333.188 309.409 333.282 309.831 333.468 310.222C333.655 310.604 333.926 310.911 334.282 311.142C334.637 311.373 335.059 311.489 335.548 311.489ZM342.853 312.395C342.4 312.395 341.969 312.289 341.56 312.075C341.151 311.853 340.818 311.529 340.56 311.102C340.311 310.666 340.187 310.133 340.187 309.502V305.622H341.186V309.475C341.186 310.08 341.36 310.569 341.706 310.942C342.062 311.306 342.511 311.489 343.053 311.489C343.426 311.489 343.764 311.404 344.066 311.235C344.369 311.058 344.609 310.818 344.786 310.515C344.973 310.213 345.066 309.862 345.066 309.462V305.622H346.066V312.289H345.066V311.249C344.826 311.569 344.533 311.84 344.186 312.062C343.84 312.284 343.395 312.395 342.853 312.395ZM350.394 312.395C349.727 312.395 349.149 312.244 348.66 311.942C348.172 311.631 347.789 311.213 347.514 310.689C347.247 310.164 347.114 309.587 347.114 308.955C347.114 308.315 347.247 307.738 347.514 307.222C347.789 306.698 348.172 306.284 348.66 305.982C349.149 305.671 349.727 305.516 350.394 305.516C351.185 305.516 351.856 305.72 352.407 306.129C352.967 306.538 353.345 307.067 353.54 307.715H352.46C352.309 307.333 352.065 307.022 351.727 306.782C351.398 306.542 350.998 306.422 350.527 306.422C350.038 306.422 349.611 306.538 349.247 306.769C348.883 307 348.603 307.307 348.407 307.689C348.212 308.071 348.114 308.493 348.114 308.955C348.114 309.409 348.212 309.831 348.407 310.222C348.603 310.604 348.883 310.911 349.247 311.142C349.611 311.373 350.038 311.489 350.527 311.489C350.998 311.489 351.398 311.369 351.727 311.129C352.065 310.889 352.309 310.578 352.46 310.195H353.54C353.345 310.844 352.967 311.373 352.407 311.782C351.856 312.191 351.185 312.395 350.394 312.395ZM355.222 312.289V306.502H353.862V305.622H355.222V303.236H356.221V305.622H357.755V306.502H356.221V312.289H355.222ZM360.999 312.395C360.386 312.395 359.866 312.293 359.439 312.089C359.021 311.884 358.701 311.618 358.479 311.289C358.257 310.951 358.133 310.586 358.106 310.195H359.146C359.172 310.418 359.248 310.635 359.372 310.849C359.506 311.053 359.706 311.222 359.972 311.355C360.239 311.48 360.586 311.542 361.012 311.542C361.146 311.542 361.31 311.529 361.506 311.502C361.701 311.475 361.888 311.426 362.066 311.355C362.252 311.284 362.408 311.178 362.532 311.035C362.657 310.893 362.719 310.711 362.719 310.489C362.719 310.213 362.612 310 362.399 309.849C362.186 309.698 361.91 309.582 361.572 309.502C361.235 309.413 360.875 309.329 360.492 309.249C360.119 309.169 359.764 309.067 359.426 308.942C359.088 308.809 358.812 308.627 358.599 308.395C358.386 308.155 358.279 307.831 358.279 307.422C358.279 306.818 358.497 306.351 358.932 306.022C359.377 305.685 360.03 305.516 360.892 305.516C361.479 305.516 361.955 305.609 362.319 305.796C362.692 305.973 362.972 306.204 363.159 306.489C363.354 306.773 363.47 307.08 363.506 307.409H362.492C362.457 307.124 362.315 306.88 362.066 306.676C361.826 306.471 361.426 306.369 360.866 306.369C359.808 306.369 359.279 306.689 359.279 307.329C359.279 307.596 359.386 307.8 359.599 307.942C359.812 308.084 360.088 308.2 360.426 308.289C360.763 308.369 361.119 308.449 361.492 308.529C361.875 308.6 362.235 308.702 362.572 308.835C362.91 308.969 363.186 309.16 363.399 309.409C363.612 309.649 363.719 309.978 363.719 310.395C363.719 311.044 363.47 311.542 362.972 311.889C362.483 312.226 361.826 312.395 360.999 312.395Z" fill="white"/>
<path opacity="0.5" d="M277.034 327.436L275.238 333.631H274.332L272.892 328.645L271.398 333.631L270.501 333.64L268.767 327.436H269.63L270.981 332.689L272.474 327.436H273.38L274.803 332.671L276.163 327.436H277.034ZM282.282 331.009C282.282 331.163 282.273 331.326 282.255 331.498H278.362C278.392 331.978 278.555 332.354 278.851 332.627C279.153 332.893 279.518 333.027 279.944 333.027C280.294 333.027 280.584 332.947 280.816 332.787C281.053 332.621 281.218 332.402 281.313 332.129H282.184C282.054 332.597 281.793 332.979 281.402 333.276C281.011 333.566 280.525 333.711 279.944 333.711C279.482 333.711 279.067 333.608 278.7 333.4C278.339 333.193 278.054 332.899 277.847 332.52C277.639 332.135 277.536 331.691 277.536 331.187C277.536 330.683 277.636 330.242 277.838 329.863C278.039 329.483 278.321 329.193 278.682 328.991C279.05 328.784 279.47 328.68 279.944 328.68C280.407 328.68 280.816 328.781 281.171 328.983C281.527 329.184 281.799 329.463 281.989 329.818C282.184 330.168 282.282 330.565 282.282 331.009ZM281.447 330.84C281.447 330.532 281.378 330.268 281.242 330.049C281.106 329.824 280.919 329.655 280.682 329.543C280.451 329.424 280.193 329.365 279.909 329.365C279.5 329.365 279.15 329.495 278.86 329.756C278.576 330.017 278.413 330.378 278.371 330.84H281.447ZM285.256 331.178C285.256 330.68 285.356 330.245 285.558 329.871C285.759 329.492 286.035 329.199 286.384 328.991C286.74 328.784 287.137 328.68 287.575 328.68C287.955 328.68 288.307 328.769 288.633 328.947C288.959 329.119 289.208 329.347 289.38 329.631V327.054H290.198V333.631H289.38V332.716C289.22 333.006 288.983 333.246 288.669 333.436C288.355 333.619 287.987 333.711 287.567 333.711C287.134 333.711 286.74 333.605 286.384 333.391C286.035 333.178 285.759 332.879 285.558 332.494C285.356 332.108 285.256 331.67 285.256 331.178ZM289.38 331.187C289.38 330.82 289.306 330.5 289.158 330.227C289.009 329.954 288.808 329.747 288.553 329.605C288.304 329.457 288.029 329.383 287.727 329.383C287.424 329.383 287.149 329.454 286.9 329.596C286.651 329.738 286.453 329.946 286.304 330.218C286.156 330.491 286.082 330.811 286.082 331.178C286.082 331.551 286.156 331.877 286.304 332.156C286.453 332.428 286.651 332.639 286.9 332.787C287.149 332.929 287.424 333 287.727 333C288.029 333 288.304 332.929 288.553 332.787C288.808 332.639 289.009 332.428 289.158 332.156C289.306 331.877 289.38 331.554 289.38 331.187ZM295.928 331.009C295.928 331.163 295.919 331.326 295.901 331.498H292.008C292.038 331.978 292.201 332.354 292.497 332.627C292.799 332.893 293.164 333.027 293.59 333.027C293.94 333.027 294.23 332.947 294.461 332.787C294.698 332.621 294.864 332.402 294.959 332.129H295.83C295.7 332.597 295.439 332.979 295.048 333.276C294.657 333.566 294.171 333.711 293.59 333.711C293.128 333.711 292.713 333.608 292.346 333.4C291.984 333.193 291.7 332.899 291.493 332.52C291.285 332.135 291.181 331.691 291.181 331.187C291.181 330.683 291.282 330.242 291.484 329.863C291.685 329.483 291.967 329.193 292.328 328.991C292.695 328.784 293.116 328.68 293.59 328.68C294.052 328.68 294.461 328.781 294.817 328.983C295.172 329.184 295.445 329.463 295.635 329.818C295.83 330.168 295.928 330.565 295.928 331.009ZM295.092 330.84C295.092 330.532 295.024 330.268 294.888 330.049C294.752 329.824 294.565 329.655 294.328 329.543C294.097 329.424 293.839 329.365 293.555 329.365C293.146 329.365 292.796 329.495 292.506 329.756C292.221 330.017 292.058 330.378 292.017 330.84H295.092ZM298.639 333.711C298.266 333.711 297.931 333.649 297.635 333.525C297.338 333.394 297.104 333.216 296.932 332.991C296.761 332.76 296.666 332.496 296.648 332.2H297.484C297.507 332.443 297.62 332.642 297.821 332.796C298.029 332.95 298.298 333.027 298.63 333.027C298.938 333.027 299.181 332.959 299.359 332.822C299.537 332.686 299.626 332.514 299.626 332.307C299.626 332.094 299.531 331.937 299.341 331.836C299.152 331.729 298.858 331.625 298.461 331.525C298.1 331.43 297.804 331.335 297.572 331.24C297.347 331.14 297.152 330.994 296.986 330.805C296.826 330.609 296.746 330.354 296.746 330.04C296.746 329.791 296.82 329.563 296.968 329.356C297.116 329.149 297.326 328.986 297.599 328.867C297.872 328.743 298.183 328.68 298.532 328.68C299.072 328.68 299.507 328.817 299.839 329.089C300.171 329.362 300.349 329.735 300.372 330.209H299.563C299.546 329.954 299.442 329.75 299.252 329.596C299.069 329.442 298.82 329.365 298.506 329.365C298.215 329.365 297.984 329.427 297.812 329.551C297.641 329.676 297.555 329.839 297.555 330.04C297.555 330.2 297.605 330.334 297.706 330.44C297.812 330.541 297.943 330.624 298.097 330.689C298.257 330.748 298.476 330.817 298.755 330.894C299.104 330.988 299.389 331.083 299.608 331.178C299.827 331.267 300.014 331.403 300.168 331.587C300.328 331.771 300.411 332.011 300.417 332.307C300.417 332.574 300.343 332.813 300.194 333.027C300.046 333.24 299.836 333.409 299.563 333.533C299.297 333.652 298.989 333.711 298.639 333.711ZM301.895 327.969C301.741 327.969 301.611 327.916 301.504 327.809C301.398 327.703 301.344 327.572 301.344 327.418C301.344 327.264 301.398 327.134 301.504 327.027C301.611 326.92 301.741 326.867 301.895 326.867C302.044 326.867 302.168 326.92 302.269 327.027C302.375 327.134 302.429 327.264 302.429 327.418C302.429 327.572 302.375 327.703 302.269 327.809C302.168 327.916 302.044 327.969 301.895 327.969ZM302.287 328.76V333.631H301.478V328.76H302.287ZM305.593 328.68C306.014 328.68 306.381 328.772 306.695 328.956C307.015 329.14 307.252 329.371 307.406 329.649V328.76H308.224V333.738C308.224 334.182 308.129 334.576 307.94 334.92C307.75 335.27 307.477 335.542 307.122 335.738C306.772 335.933 306.363 336.031 305.895 336.031C305.255 336.031 304.722 335.88 304.295 335.578C303.869 335.276 303.617 334.864 303.54 334.342H304.34C304.429 334.639 304.612 334.876 304.891 335.053C305.169 335.237 305.504 335.329 305.895 335.329C306.34 335.329 306.701 335.19 306.98 334.911C307.264 334.633 307.406 334.242 307.406 333.738V332.716C307.246 333 307.009 333.237 306.695 333.427C306.381 333.616 306.014 333.711 305.593 333.711C305.16 333.711 304.766 333.605 304.411 333.391C304.061 333.178 303.786 332.879 303.584 332.494C303.383 332.108 303.282 331.67 303.282 331.178C303.282 330.68 303.383 330.245 303.584 329.871C303.786 329.492 304.061 329.199 304.411 328.991C304.766 328.784 305.16 328.68 305.593 328.68ZM307.406 331.187C307.406 330.82 307.332 330.5 307.184 330.227C307.036 329.954 306.834 329.747 306.58 329.605C306.331 329.457 306.055 329.383 305.753 329.383C305.451 329.383 305.175 329.454 304.926 329.596C304.678 329.738 304.479 329.946 304.331 330.218C304.183 330.491 304.109 330.811 304.109 331.178C304.109 331.551 304.183 331.877 304.331 332.156C304.479 332.428 304.678 332.639 304.926 332.787C305.175 332.929 305.451 333 305.753 333C306.055 333 306.331 332.929 306.58 332.787C306.834 332.639 307.036 332.428 307.184 332.156C307.332 331.877 307.406 331.554 307.406 331.187ZM311.883 328.672C312.476 328.672 312.956 328.852 313.323 329.214C313.691 329.569 313.874 330.085 313.874 330.76V333.631H313.074V330.876C313.074 330.39 312.953 330.02 312.71 329.765C312.467 329.504 312.135 329.374 311.714 329.374C311.288 329.374 310.947 329.507 310.692 329.774C310.443 330.04 310.319 330.428 310.319 330.938V333.631H309.51V328.76H310.319V329.454C310.479 329.205 310.695 329.012 310.968 328.876C311.246 328.74 311.551 328.672 311.883 328.672ZM319.128 333.711C318.755 333.711 318.42 333.649 318.124 333.525C317.827 333.394 317.593 333.216 317.421 332.991C317.25 332.76 317.155 332.496 317.137 332.2H317.972C317.996 332.443 318.109 332.642 318.31 332.796C318.518 332.95 318.787 333.027 319.119 333.027C319.427 333.027 319.67 332.959 319.848 332.822C320.026 332.686 320.115 332.514 320.115 332.307C320.115 332.094 320.02 331.937 319.83 331.836C319.64 331.729 319.347 331.625 318.95 331.525C318.589 331.43 318.292 331.335 318.061 331.24C317.836 331.14 317.641 330.994 317.475 330.805C317.315 330.609 317.235 330.354 317.235 330.04C317.235 329.791 317.309 329.563 317.457 329.356C317.605 329.149 317.815 328.986 318.088 328.867C318.361 328.743 318.672 328.68 319.021 328.68C319.56 328.68 319.996 328.817 320.328 329.089C320.66 329.362 320.837 329.735 320.861 330.209H320.052C320.035 329.954 319.931 329.75 319.741 329.596C319.558 329.442 319.309 329.365 318.995 329.365C318.704 329.365 318.473 329.427 318.301 329.551C318.129 329.676 318.044 329.839 318.044 330.04C318.044 330.2 318.094 330.334 318.195 330.44C318.301 330.541 318.432 330.624 318.586 330.689C318.746 330.748 318.965 330.817 319.243 330.894C319.593 330.988 319.878 331.083 320.097 331.178C320.316 331.267 320.503 331.403 320.657 331.587C320.817 331.771 320.9 332.011 320.906 332.307C320.906 332.574 320.832 332.813 320.683 333.027C320.535 333.24 320.325 333.409 320.052 333.533C319.786 333.652 319.478 333.711 319.128 333.711ZM324.091 333.711C323.635 333.711 323.22 333.608 322.847 333.4C322.479 333.193 322.189 332.899 321.975 332.52C321.768 332.135 321.664 331.691 321.664 331.187C321.664 330.689 321.771 330.251 321.984 329.871C322.204 329.486 322.5 329.193 322.873 328.991C323.247 328.784 323.664 328.68 324.126 328.68C324.589 328.68 325.006 328.784 325.38 328.991C325.753 329.193 326.046 329.483 326.26 329.863C326.479 330.242 326.589 330.683 326.589 331.187C326.589 331.691 326.476 332.135 326.251 332.52C326.032 332.899 325.732 333.193 325.353 333.4C324.974 333.608 324.553 333.711 324.091 333.711ZM324.091 333C324.381 333 324.654 332.932 324.909 332.796C325.163 332.659 325.368 332.455 325.522 332.182C325.682 331.91 325.762 331.578 325.762 331.187C325.762 330.796 325.685 330.464 325.531 330.191C325.377 329.919 325.175 329.717 324.926 329.587C324.678 329.451 324.408 329.383 324.118 329.383C323.821 329.383 323.549 329.451 323.3 329.587C323.057 329.717 322.861 329.919 322.713 330.191C322.565 330.464 322.491 330.796 322.491 331.187C322.491 331.584 322.562 331.919 322.704 332.191C322.852 332.464 323.048 332.668 323.291 332.805C323.534 332.935 323.801 333 324.091 333ZM328.38 327.054V333.631H327.571V327.054H328.38ZM333.998 328.76V333.631H333.189V332.911C333.035 333.16 332.818 333.356 332.54 333.498C332.267 333.634 331.965 333.702 331.633 333.702C331.254 333.702 330.913 333.625 330.611 333.471C330.309 333.311 330.069 333.074 329.891 332.76C329.719 332.446 329.633 332.064 329.633 331.614V328.76H330.433V331.507C330.433 331.987 330.555 332.357 330.798 332.618C331.041 332.873 331.373 333 331.793 333C332.226 333 332.567 332.867 332.815 332.6C333.064 332.334 333.189 331.945 333.189 331.436V328.76H333.998ZM336.269 329.427V332.298C336.269 332.535 336.319 332.704 336.42 332.805C336.521 332.899 336.696 332.947 336.945 332.947H337.54V333.631H336.811C336.361 333.631 336.023 333.528 335.798 333.32C335.573 333.113 335.46 332.772 335.46 332.298V329.427H334.829V328.76H335.46V327.534H336.269V328.76H337.54V329.427H336.269ZM338.857 327.969C338.703 327.969 338.573 327.916 338.466 327.809C338.359 327.703 338.306 327.572 338.306 327.418C338.306 327.264 338.359 327.134 338.466 327.027C338.573 326.92 338.703 326.867 338.857 326.867C339.005 326.867 339.13 326.92 339.23 327.027C339.337 327.134 339.39 327.264 339.39 327.418C339.39 327.572 339.337 327.703 339.23 327.809C339.13 327.916 339.005 327.969 338.857 327.969ZM339.248 328.76V333.631H338.439V328.76H339.248ZM342.67 333.711C342.214 333.711 341.799 333.608 341.426 333.4C341.058 333.193 340.768 332.899 340.555 332.52C340.347 332.135 340.244 331.691 340.244 331.187C340.244 330.689 340.35 330.251 340.564 329.871C340.783 329.486 341.079 329.193 341.453 328.991C341.826 328.784 342.244 328.68 342.706 328.68C343.168 328.68 343.586 328.784 343.959 328.991C344.332 329.193 344.626 329.483 344.839 329.863C345.058 330.242 345.168 330.683 345.168 331.187C345.168 331.691 345.055 332.135 344.83 332.52C344.611 332.899 344.312 333.193 343.932 333.4C343.553 333.608 343.132 333.711 342.67 333.711ZM342.67 333C342.961 333 343.233 332.932 343.488 332.796C343.743 332.659 343.947 332.455 344.101 332.182C344.261 331.91 344.341 331.578 344.341 331.187C344.341 330.796 344.264 330.464 344.11 330.191C343.956 329.919 343.755 329.717 343.506 329.587C343.257 329.451 342.987 329.383 342.697 329.383C342.401 329.383 342.128 329.451 341.879 329.587C341.636 329.717 341.441 329.919 341.293 330.191C341.144 330.464 341.07 330.796 341.07 331.187C341.07 331.584 341.141 331.919 341.284 332.191C341.432 332.464 341.627 332.668 341.87 332.805C342.113 332.935 342.38 333 342.67 333ZM348.524 328.672C349.116 328.672 349.596 328.852 349.964 329.214C350.331 329.569 350.515 330.085 350.515 330.76V333.631H349.715V330.876C349.715 330.39 349.593 330.02 349.35 329.765C349.107 329.504 348.776 329.374 348.355 329.374C347.928 329.374 347.587 329.507 347.333 329.774C347.084 330.04 346.959 330.428 346.959 330.938V333.631H346.151V328.76H346.959V329.454C347.119 329.205 347.336 329.012 347.608 328.876C347.887 328.74 348.192 328.672 348.524 328.672ZM353.48 333.711C353.106 333.711 352.771 333.649 352.475 333.525C352.179 333.394 351.945 333.216 351.773 332.991C351.601 332.76 351.506 332.496 351.489 332.2H352.324C352.348 332.443 352.46 332.642 352.662 332.796C352.869 332.95 353.139 333.027 353.471 333.027C353.779 333.027 354.022 332.959 354.199 332.822C354.377 332.686 354.466 332.514 354.466 332.307C354.466 332.094 354.371 331.937 354.182 331.836C353.992 331.729 353.699 331.625 353.302 331.525C352.94 331.43 352.644 331.335 352.413 331.24C352.188 331.14 351.992 330.994 351.826 330.805C351.666 330.609 351.586 330.354 351.586 330.04C351.586 329.791 351.66 329.563 351.809 329.356C351.957 329.149 352.167 328.986 352.44 328.867C352.712 328.743 353.023 328.68 353.373 328.68C353.912 328.68 354.348 328.817 354.679 329.089C355.011 329.362 355.189 329.735 355.213 330.209H354.404C354.386 329.954 354.282 329.75 354.093 329.596C353.909 329.442 353.66 329.365 353.346 329.365C353.056 329.365 352.825 329.427 352.653 329.551C352.481 329.676 352.395 329.839 352.395 330.04C352.395 330.2 352.446 330.334 352.546 330.44C352.653 330.541 352.783 330.624 352.937 330.689C353.097 330.748 353.317 330.817 353.595 330.894C353.945 330.988 354.229 331.083 354.448 331.178C354.668 331.267 354.854 331.403 355.008 331.587C355.168 331.771 355.251 332.011 355.257 332.307C355.257 332.574 355.183 332.813 355.035 333.027C354.887 333.24 354.676 333.409 354.404 333.533C354.137 333.652 353.829 333.711 353.48 333.711ZM360.589 329.427H359.567V333.631H358.758V329.427H358.127V328.76H358.758V328.414C358.758 327.869 358.897 327.472 359.176 327.223C359.46 326.968 359.914 326.84 360.536 326.84V327.516C360.18 327.516 359.928 327.587 359.78 327.729C359.638 327.866 359.567 328.094 359.567 328.414V328.76H360.589V329.427ZM363.576 333.711C363.12 333.711 362.705 333.608 362.331 333.4C361.964 333.193 361.674 332.899 361.46 332.52C361.253 332.135 361.149 331.691 361.149 331.187C361.149 330.689 361.256 330.251 361.469 329.871C361.688 329.486 361.985 329.193 362.358 328.991C362.731 328.784 363.149 328.68 363.611 328.68C364.074 328.68 364.491 328.784 364.865 328.991C365.238 329.193 365.531 329.483 365.745 329.863C365.964 330.242 366.073 330.683 366.073 331.187C366.073 331.691 365.961 332.135 365.736 332.52C365.516 332.899 365.217 333.193 364.838 333.4C364.459 333.608 364.038 333.711 363.576 333.711ZM363.576 333C363.866 333 364.139 332.932 364.394 332.796C364.648 332.659 364.853 332.455 365.007 332.182C365.167 331.91 365.247 331.578 365.247 331.187C365.247 330.796 365.17 330.464 365.016 330.191C364.862 329.919 364.66 329.717 364.411 329.587C364.162 329.451 363.893 329.383 363.602 329.383C363.306 329.383 363.034 329.451 362.785 329.587C362.542 329.717 362.346 329.919 362.198 330.191C362.05 330.464 361.976 330.796 361.976 331.187C361.976 331.584 362.047 331.919 362.189 332.191C362.337 332.464 362.533 332.668 362.776 332.805C363.019 332.935 363.285 333 363.576 333ZM367.865 329.551C368.007 329.273 368.209 329.057 368.469 328.903C368.736 328.749 369.059 328.672 369.438 328.672V329.507H369.225C368.318 329.507 367.865 329.999 367.865 330.982V333.631H367.056V328.76H367.865V329.551ZM278.748 346.178C278.748 345.68 278.849 345.245 279.05 344.871C279.252 344.492 279.527 344.199 279.877 343.991C280.233 343.784 280.63 343.68 281.068 343.68C281.447 343.68 281.8 343.769 282.126 343.947C282.452 344.119 282.701 344.347 282.872 344.631V342.054H283.69V348.631H282.872V347.716C282.712 348.006 282.475 348.246 282.161 348.436C281.847 348.619 281.48 348.711 281.059 348.711C280.627 348.711 280.233 348.605 279.877 348.391C279.527 348.178 279.252 347.879 279.05 347.494C278.849 347.108 278.748 346.67 278.748 346.178ZM282.872 346.187C282.872 345.82 282.798 345.5 282.65 345.227C282.502 344.954 282.301 344.747 282.046 344.605C281.797 344.457 281.521 344.383 281.219 344.383C280.917 344.383 280.641 344.454 280.393 344.596C280.144 344.738 279.945 344.946 279.797 345.218C279.649 345.491 279.575 345.811 279.575 346.178C279.575 346.551 279.649 346.877 279.797 347.156C279.945 347.428 280.144 347.639 280.393 347.787C280.641 347.929 280.917 348 281.219 348C281.521 348 281.797 347.929 282.046 347.787C282.301 347.639 282.502 347.428 282.65 347.156C282.798 346.877 282.872 346.554 282.872 346.187ZM285.394 342.969C285.24 342.969 285.11 342.916 285.003 342.809C284.896 342.703 284.843 342.572 284.843 342.418C284.843 342.264 284.896 342.134 285.003 342.027C285.11 341.92 285.24 341.867 285.394 341.867C285.542 341.867 285.667 341.92 285.767 342.027C285.874 342.134 285.927 342.264 285.927 342.418C285.927 342.572 285.874 342.703 285.767 342.809C285.667 342.916 285.542 342.969 285.394 342.969ZM285.785 343.76V348.631H284.976V343.76H285.785ZM289.092 343.68C289.512 343.68 289.88 343.772 290.194 343.956C290.514 344.14 290.751 344.371 290.905 344.649V343.76H291.723V348.738C291.723 349.182 291.628 349.576 291.438 349.92C291.249 350.27 290.976 350.542 290.62 350.738C290.271 350.933 289.862 351.031 289.394 351.031C288.754 351.031 288.221 350.88 287.794 350.578C287.367 350.276 287.115 349.864 287.038 349.342H287.838C287.927 349.639 288.111 349.876 288.389 350.053C288.668 350.237 289.003 350.329 289.394 350.329C289.838 350.329 290.2 350.19 290.478 349.911C290.763 349.633 290.905 349.242 290.905 348.738V347.716C290.745 348 290.508 348.237 290.194 348.427C289.88 348.616 289.512 348.711 289.092 348.711C288.659 348.711 288.265 348.605 287.909 348.391C287.56 348.178 287.284 347.879 287.083 347.494C286.881 347.108 286.781 346.67 286.781 346.178C286.781 345.68 286.881 345.245 287.083 344.871C287.284 344.492 287.56 344.199 287.909 343.991C288.265 343.784 288.659 343.68 289.092 343.68ZM290.905 346.187C290.905 345.82 290.831 345.5 290.683 345.227C290.534 344.954 290.333 344.747 290.078 344.605C289.829 344.457 289.554 344.383 289.252 344.383C288.949 344.383 288.674 344.454 288.425 344.596C288.176 344.738 287.978 344.946 287.829 345.218C287.681 345.491 287.607 345.811 287.607 346.178C287.607 346.551 287.681 346.877 287.829 347.156C287.978 347.428 288.176 347.639 288.425 347.787C288.674 347.929 288.949 348 289.252 348C289.554 348 289.829 347.929 290.078 347.787C290.333 347.639 290.534 347.428 290.683 347.156C290.831 346.877 290.905 346.554 290.905 346.187ZM293.426 342.969C293.272 342.969 293.142 342.916 293.035 342.809C292.929 342.703 292.875 342.572 292.875 342.418C292.875 342.264 292.929 342.134 293.035 342.027C293.142 341.92 293.272 341.867 293.426 341.867C293.575 341.867 293.699 341.92 293.8 342.027C293.906 342.134 293.96 342.264 293.96 342.418C293.96 342.572 293.906 342.703 293.8 342.809C293.699 342.916 293.575 342.969 293.426 342.969ZM293.817 343.76V348.631H293.009V343.76H293.817ZM296.102 344.427V347.298C296.102 347.535 296.152 347.704 296.253 347.805C296.354 347.899 296.528 347.947 296.777 347.947H297.373V348.631H296.644C296.194 348.631 295.856 348.528 295.631 348.32C295.406 348.113 295.293 347.772 295.293 347.298V344.427H294.662V343.76H295.293V342.534H296.102V343.76H297.373V344.427H296.102ZM297.97 346.178C297.97 345.68 298.071 345.245 298.272 344.871C298.474 344.492 298.749 344.199 299.099 343.991C299.454 343.784 299.848 343.68 300.281 343.68C300.707 343.68 301.078 343.772 301.392 343.956C301.706 344.14 301.94 344.371 302.094 344.649V343.76H302.912V348.631H302.094V347.725C301.934 348.009 301.694 348.246 301.374 348.436C301.06 348.619 300.693 348.711 300.272 348.711C299.839 348.711 299.448 348.605 299.099 348.391C298.749 348.178 298.474 347.879 298.272 347.494C298.071 347.108 297.97 346.67 297.97 346.178ZM302.094 346.187C302.094 345.82 302.02 345.5 301.872 345.227C301.724 344.954 301.522 344.747 301.267 344.605C301.019 344.457 300.743 344.383 300.441 344.383C300.139 344.383 299.863 344.454 299.614 344.596C299.365 344.738 299.167 344.946 299.019 345.218C298.871 345.491 298.796 345.811 298.796 346.178C298.796 346.551 298.871 346.877 299.019 347.156C299.167 347.428 299.365 347.639 299.614 347.787C299.863 347.929 300.139 348 300.441 348C300.743 348 301.019 347.929 301.267 347.787C301.522 347.639 301.724 347.428 301.872 347.156C302.02 346.877 302.094 346.554 302.094 346.187ZM305.007 342.054V348.631H304.198V342.054H305.007ZM309.011 342.969C308.857 342.969 308.727 342.916 308.62 342.809C308.513 342.703 308.46 342.572 308.46 342.418C308.46 342.264 308.513 342.134 308.62 342.027C308.727 341.92 308.857 341.867 309.011 341.867C309.159 341.867 309.284 341.92 309.384 342.027C309.491 342.134 309.544 342.264 309.544 342.418C309.544 342.572 309.491 342.703 309.384 342.809C309.284 342.916 309.159 342.969 309.011 342.969ZM309.402 343.76V348.631H308.593V343.76H309.402ZM313.073 343.672C313.666 343.672 314.146 343.852 314.513 344.214C314.88 344.569 315.064 345.085 315.064 345.76V348.631H314.264V345.876C314.264 345.39 314.143 345.02 313.9 344.765C313.657 344.504 313.325 344.374 312.904 344.374C312.478 344.374 312.137 344.507 311.882 344.774C311.633 345.04 311.509 345.428 311.509 345.938V348.631H310.7V343.76H311.509V344.454C311.669 344.205 311.885 344.012 312.158 343.876C312.436 343.74 312.741 343.672 313.073 343.672ZM317.291 344.427V347.298C317.291 347.535 317.341 347.704 317.442 347.805C317.543 347.899 317.718 347.947 317.967 347.947H318.562V348.631H317.833C317.383 348.631 317.045 348.528 316.82 348.32C316.595 348.113 316.482 347.772 316.482 347.298V344.427H315.851V343.76H316.482V342.534H317.291V343.76H318.562V344.427H317.291ZM323.906 346.009C323.906 346.163 323.897 346.326 323.879 346.498H319.986C320.015 346.978 320.178 347.354 320.475 347.627C320.777 347.893 321.141 348.027 321.568 348.027C321.918 348.027 322.208 347.947 322.439 347.787C322.676 347.621 322.842 347.402 322.937 347.129H323.808C323.677 347.597 323.417 347.979 323.026 348.276C322.635 348.566 322.149 348.711 321.568 348.711C321.106 348.711 320.691 348.608 320.324 348.4C319.962 348.193 319.678 347.899 319.47 347.52C319.263 347.135 319.159 346.691 319.159 346.187C319.159 345.683 319.26 345.242 319.461 344.863C319.663 344.483 319.944 344.193 320.306 343.991C320.673 343.784 321.094 343.68 321.568 343.68C322.03 343.68 322.439 343.781 322.795 343.983C323.15 344.184 323.423 344.463 323.612 344.818C323.808 345.168 323.906 345.565 323.906 346.009ZM323.07 345.84C323.07 345.532 323.002 345.268 322.866 345.049C322.729 344.824 322.543 344.655 322.306 344.543C322.075 344.424 321.817 344.365 321.532 344.365C321.124 344.365 320.774 344.495 320.484 344.756C320.199 345.017 320.036 345.378 319.995 345.84H323.07ZM325.701 344.551C325.843 344.273 326.045 344.057 326.306 343.903C326.572 343.749 326.895 343.672 327.275 343.672V344.507H327.061C326.155 344.507 325.701 344.999 325.701 345.982V348.631H324.892V343.76H325.701V344.551ZM327.825 346.178C327.825 345.68 327.926 345.245 328.127 344.871C328.329 344.492 328.604 344.199 328.954 343.991C329.31 343.784 329.704 343.68 330.136 343.68C330.563 343.68 330.933 343.772 331.247 343.956C331.561 344.14 331.795 344.371 331.949 344.649V343.76H332.767V348.631H331.949V347.725C331.789 348.009 331.549 348.246 331.229 348.436C330.915 348.619 330.548 348.711 330.127 348.711C329.695 348.711 329.304 348.605 328.954 348.391C328.604 348.178 328.329 347.879 328.127 347.494C327.926 347.108 327.825 346.67 327.825 346.178ZM331.949 346.187C331.949 345.82 331.875 345.5 331.727 345.227C331.579 344.954 331.378 344.747 331.123 344.605C330.874 344.457 330.598 344.383 330.296 344.383C329.994 344.383 329.718 344.454 329.47 344.596C329.221 344.738 329.022 344.946 328.874 345.218C328.726 345.491 328.652 345.811 328.652 346.178C328.652 346.551 328.726 346.877 328.874 347.156C329.022 347.428 329.221 347.639 329.47 347.787C329.718 347.929 329.994 348 330.296 348C330.598 348 330.874 347.929 331.123 347.787C331.378 347.639 331.579 347.428 331.727 347.156C331.875 346.877 331.949 346.554 331.949 346.187ZM333.751 346.187C333.751 345.683 333.852 345.245 334.053 344.871C334.255 344.492 334.533 344.199 334.889 343.991C335.25 343.784 335.662 343.68 336.124 343.68C336.723 343.68 337.215 343.826 337.6 344.116C337.991 344.406 338.249 344.809 338.373 345.325H337.502C337.419 345.028 337.256 344.794 337.013 344.623C336.776 344.451 336.48 344.365 336.124 344.365C335.662 344.365 335.289 344.525 335.004 344.845C334.72 345.159 334.578 345.606 334.578 346.187C334.578 346.774 334.72 347.227 335.004 347.547C335.289 347.867 335.662 348.027 336.124 348.027C336.48 348.027 336.776 347.944 337.013 347.778C337.25 347.612 337.413 347.375 337.502 347.067H338.373C338.243 347.565 337.982 347.965 337.591 348.267C337.2 348.563 336.711 348.711 336.124 348.711C335.662 348.711 335.25 348.608 334.889 348.4C334.533 348.193 334.255 347.899 334.053 347.52C333.852 347.141 333.751 346.697 333.751 346.187ZM340.358 344.427V347.298C340.358 347.535 340.408 347.704 340.509 347.805C340.61 347.899 340.785 347.947 341.034 347.947H341.629V348.631H340.9C340.45 348.631 340.112 348.528 339.887 348.32C339.662 348.113 339.549 347.772 339.549 347.298V344.427H338.918V343.76H339.549V342.534H340.358V343.76H341.629V344.427H340.358ZM342.946 342.969C342.792 342.969 342.662 342.916 342.555 342.809C342.448 342.703 342.395 342.572 342.395 342.418C342.395 342.264 342.448 342.134 342.555 342.027C342.662 341.92 342.792 341.867 342.946 341.867C343.094 341.867 343.219 341.92 343.319 342.027C343.426 342.134 343.479 342.264 343.479 342.418C343.479 342.572 343.426 342.703 343.319 342.809C343.219 342.916 343.094 342.969 342.946 342.969ZM343.337 343.76V348.631H342.528V343.76H343.337ZM346.759 348.711C346.303 348.711 345.888 348.608 345.515 348.4C345.147 348.193 344.857 347.899 344.644 347.52C344.436 347.135 344.333 346.691 344.333 346.187C344.333 345.689 344.439 345.251 344.653 344.871C344.872 344.486 345.168 344.193 345.541 343.991C345.915 343.784 346.333 343.68 346.795 343.68C347.257 343.68 347.675 343.784 348.048 343.991C348.421 344.193 348.715 344.483 348.928 344.863C349.147 345.242 349.257 345.683 349.257 346.187C349.257 346.691 349.144 347.135 348.919 347.52C348.7 347.899 348.401 348.193 348.021 348.4C347.642 348.608 347.221 348.711 346.759 348.711ZM346.759 348C347.05 348 347.322 347.932 347.577 347.796C347.832 347.659 348.036 347.455 348.19 347.182C348.35 346.91 348.43 346.578 348.43 346.187C348.43 345.796 348.353 345.464 348.199 345.191C348.045 344.919 347.844 344.717 347.595 344.587C347.346 344.451 347.076 344.383 346.786 344.383C346.49 344.383 346.217 344.451 345.968 344.587C345.725 344.717 345.53 344.919 345.381 345.191C345.233 345.464 345.159 345.796 345.159 346.187C345.159 346.584 345.23 346.919 345.373 347.191C345.521 347.464 345.716 347.668 345.959 347.805C346.202 347.935 346.469 348 346.759 348ZM352.613 343.672C353.205 343.672 353.685 343.852 354.053 344.214C354.42 344.569 354.604 345.085 354.604 345.76V348.631H353.804V345.876C353.804 345.39 353.682 345.02 353.439 344.765C353.196 344.504 352.865 344.374 352.444 344.374C352.017 344.374 351.676 344.507 351.422 344.774C351.173 345.04 351.048 345.428 351.048 345.938V348.631H350.239V343.76H351.048V344.454C351.208 344.205 351.425 344.012 351.697 343.876C351.976 343.74 352.281 343.672 352.613 343.672ZM357.568 348.711C357.195 348.711 356.86 348.649 356.564 348.525C356.268 348.394 356.034 348.216 355.862 347.991C355.69 347.76 355.595 347.496 355.577 347.2H356.413C356.437 347.443 356.549 347.642 356.751 347.796C356.958 347.95 357.228 348.027 357.56 348.027C357.868 348.027 358.111 347.959 358.288 347.822C358.466 347.686 358.555 347.514 358.555 347.307C358.555 347.094 358.46 346.937 358.271 346.836C358.081 346.729 357.788 346.625 357.391 346.525C357.029 346.43 356.733 346.335 356.502 346.24C356.277 346.14 356.081 345.994 355.915 345.805C355.755 345.609 355.675 345.354 355.675 345.04C355.675 344.791 355.749 344.563 355.897 344.356C356.046 344.149 356.256 343.986 356.529 343.867C356.801 343.743 357.112 343.68 357.462 343.68C358.001 343.68 358.437 343.817 358.768 344.089C359.1 344.362 359.278 344.735 359.302 345.209H358.493C358.475 344.954 358.371 344.75 358.182 344.596C357.998 344.442 357.749 344.365 357.435 344.365C357.145 344.365 356.914 344.427 356.742 344.551C356.57 344.676 356.484 344.839 356.484 345.04C356.484 345.2 356.534 345.334 356.635 345.44C356.742 345.541 356.872 345.624 357.026 345.689C357.186 345.748 357.406 345.817 357.684 345.894C358.034 345.988 358.318 346.083 358.537 346.178C358.757 346.267 358.943 346.403 359.097 346.587C359.257 346.771 359.34 347.011 359.346 347.307C359.346 347.574 359.272 347.813 359.124 348.027C358.976 348.24 358.765 348.409 358.493 348.533C358.226 348.652 357.918 348.711 357.568 348.711Z" fill="white"/>
<path fill-rule="evenodd" clip-rule="evenodd" d="M250.27 268.877C250.27 230.448 280.705 199.294 318.249 199.294C355.792 199.294 386.228 230.448 386.228 268.877C386.228 269.588 386.193 270.465 386.14 271.384C385.957 274.555 382.857 276.668 379.793 275.827V275.827C378.492 275.47 377.626 274.242 377.708 272.895C377.788 271.569 377.87 269.96 377.87 268.877C377.87 235.173 351.176 207.849 318.249 207.849C285.321 207.849 258.628 235.173 258.628 268.877C258.628 269.704 258.675 270.824 258.735 271.907C258.848 273.968 257.493 275.836 255.485 276.314V276.314C253.002 276.904 250.571 275.156 250.415 272.609C250.333 271.268 250.27 269.9 250.27 268.877Z" fill="white"/>
<path fill-rule="evenodd" clip-rule="evenodd" d="M255.729 276.463C253.196 277.228 250.6 275.467 250.435 272.826C250.342 271.347 250.27 269.866 250.27 268.877C250.27 230.448 280.705 199.294 318.249 199.294C329.562 199.294 339.56 201.661 348.925 206.668C353.677 209.208 358.342 212.442 362.825 216.341V216.341C367.355 220.281 355.721 221.931 350.694 218.648C346.539 215.935 341.648 213.006 338.083 211.688C332.339 209.564 326.148 207.849 318.249 207.849C285.321 207.849 258.628 235.173 258.628 268.877C258.628 269.876 258.675 271.037 258.734 272.105C258.843 274.075 257.618 275.893 255.729 276.463V276.463Z" fill="#5CCB75"/>
<path opacity="0.5" d="M251.652 284.677C251.652 283.658 251.818 282.863 252.15 282.295C252.482 281.72 253.062 281.432 253.892 281.432C254.716 281.432 255.293 281.72 255.625 282.295C255.957 282.863 256.123 283.658 256.123 284.677C256.123 285.714 255.957 286.52 255.625 287.094C255.293 287.669 254.716 287.957 253.892 287.957C253.062 287.957 252.482 287.669 252.15 287.094C251.818 286.52 251.652 285.714 251.652 284.677ZM255.323 284.677C255.323 284.161 255.287 283.726 255.216 283.37C255.151 283.009 255.012 282.718 254.799 282.499C254.591 282.28 254.289 282.17 253.892 282.17C253.489 282.17 253.181 282.28 252.968 282.499C252.76 282.718 252.621 283.009 252.55 283.37C252.485 283.726 252.452 284.161 252.452 284.677C252.452 285.21 252.485 285.657 252.55 286.019C252.621 286.38 252.76 286.671 252.968 286.89C253.181 287.109 253.489 287.219 253.892 287.219C254.289 287.219 254.591 287.109 254.799 286.89C255.012 286.671 255.151 286.38 255.216 286.019C255.287 285.657 255.323 285.21 255.323 284.677ZM250.893 297.979C250.893 297.576 251.014 297.256 251.257 297.019C251.5 296.776 251.811 296.655 252.19 296.655C252.57 296.655 252.881 296.776 253.124 297.019C253.367 297.256 253.488 297.576 253.488 297.979C253.488 298.388 253.367 298.714 253.124 298.957C252.881 299.194 252.57 299.312 252.19 299.312C251.811 299.312 251.5 299.194 251.257 298.957C251.014 298.714 250.893 298.388 250.893 297.979ZM256.084 296.752L252.484 302.957H251.684L255.284 296.752H256.084ZM252.19 297.152C251.989 297.152 251.829 297.224 251.711 297.366C251.598 297.502 251.542 297.706 251.542 297.979C251.542 298.252 251.598 298.459 251.711 298.601C251.829 298.743 251.989 298.815 252.19 298.815C252.392 298.815 252.552 298.743 252.67 298.601C252.789 298.453 252.848 298.246 252.848 297.979C252.848 297.706 252.789 297.502 252.67 297.366C252.552 297.224 252.392 297.152 252.19 297.152ZM254.297 301.73C254.297 301.321 254.419 300.998 254.661 300.761C254.904 300.518 255.216 300.397 255.595 300.397C255.974 300.397 256.282 300.518 256.519 300.761C256.762 300.998 256.884 301.321 256.884 301.73C256.884 302.133 256.762 302.456 256.519 302.699C256.282 302.942 255.974 303.063 255.595 303.063C255.216 303.063 254.904 302.945 254.661 302.708C254.419 302.465 254.297 302.139 254.297 301.73ZM255.586 300.903C255.384 300.903 255.224 300.974 255.106 301.117C254.987 301.253 254.928 301.457 254.928 301.73C254.928 301.997 254.987 302.201 255.106 302.343C255.224 302.48 255.384 302.548 255.586 302.548C255.787 302.548 255.947 302.48 256.066 302.343C256.184 302.201 256.244 301.997 256.244 301.73C256.244 301.457 256.184 301.253 256.066 301.117C255.947 300.974 255.787 300.903 255.586 300.903Z" fill="white"/>
<path opacity="0.5" d="M376.02 282.268V281.53H377.691V287.957H376.874V282.268H376.02ZM379 284.677C379 283.658 379.166 282.863 379.498 282.295C379.829 281.72 380.41 281.432 381.24 281.432C382.063 281.432 382.641 281.72 382.973 282.295C383.305 282.863 383.471 283.658 383.471 284.677C383.471 285.714 383.305 286.52 382.973 287.094C382.641 287.669 382.063 287.957 381.24 287.957C380.41 287.957 379.829 287.669 379.498 287.094C379.166 286.52 379 285.714 379 284.677ZM382.671 284.677C382.671 284.161 382.635 283.726 382.564 283.37C382.499 283.009 382.36 282.718 382.146 282.499C381.939 282.28 381.637 282.17 381.24 282.17C380.837 282.17 380.529 282.28 380.315 282.499C380.108 282.718 379.969 283.009 379.898 283.37C379.832 283.726 379.8 284.161 379.8 284.677C379.8 285.21 379.832 285.657 379.898 286.019C379.969 286.38 380.108 286.671 380.315 286.89C380.529 287.109 380.837 287.219 381.24 287.219C381.637 287.219 381.939 287.109 382.146 286.89C382.36 286.671 382.499 286.38 382.564 286.019C382.635 285.657 382.671 285.21 382.671 284.677ZM384.5 284.677C384.5 283.658 384.666 282.863 384.998 282.295C385.33 281.72 385.911 281.432 386.74 281.432C387.564 281.432 388.142 281.72 388.473 282.295C388.805 282.863 388.971 283.658 388.971 284.677C388.971 285.714 388.805 286.52 388.473 287.094C388.142 287.669 387.564 287.957 386.74 287.957C385.911 287.957 385.33 287.669 384.998 287.094C384.666 286.52 384.5 285.714 384.5 284.677ZM388.171 284.677C388.171 284.161 388.136 283.726 388.065 283.37C387.999 283.009 387.86 282.718 387.647 282.499C387.439 282.28 387.137 282.17 386.74 282.17C386.337 282.17 386.029 282.28 385.816 282.499C385.608 282.718 385.469 283.009 385.398 283.37C385.333 283.726 385.3 284.161 385.3 284.677C385.3 285.21 385.333 285.657 385.398 286.019C385.469 286.38 385.608 286.671 385.816 286.89C386.029 287.109 386.337 287.219 386.74 287.219C387.137 287.219 387.439 287.109 387.647 286.89C387.86 286.671 387.999 286.38 388.065 286.019C388.136 285.657 388.171 285.21 388.171 284.677ZM379.608 297.979C379.608 297.576 379.729 297.256 379.972 297.019C380.215 296.776 380.526 296.655 380.905 296.655C381.285 296.655 381.596 296.776 381.839 297.019C382.082 297.256 382.203 297.576 382.203 297.979C382.203 298.388 382.082 298.714 381.839 298.957C381.596 299.194 381.285 299.312 380.905 299.312C380.526 299.312 380.215 299.194 379.972 298.957C379.729 298.714 379.608 298.388 379.608 297.979ZM384.798 296.752L381.199 302.957H380.399L383.999 296.752H384.798ZM380.905 297.152C380.704 297.152 380.544 297.224 380.425 297.366C380.313 297.502 380.257 297.706 380.257 297.979C380.257 298.252 380.313 298.459 380.425 298.601C380.544 298.743 380.704 298.815 380.905 298.815C381.107 298.815 381.267 298.743 381.385 298.601C381.504 298.453 381.563 298.246 381.563 297.979C381.563 297.706 381.504 297.502 381.385 297.366C381.267 297.224 381.107 297.152 380.905 297.152ZM383.012 301.73C383.012 301.321 383.133 300.998 383.376 300.761C383.619 300.518 383.93 300.397 384.31 300.397C384.689 300.397 384.997 300.518 385.234 300.761C385.477 300.998 385.598 301.321 385.598 301.73C385.598 302.133 385.477 302.456 385.234 302.699C384.997 302.942 384.689 303.063 384.31 303.063C383.93 303.063 383.619 302.945 383.376 302.708C383.133 302.465 383.012 302.139 383.012 301.73ZM384.301 300.903C384.099 300.903 383.939 300.974 383.821 301.117C383.702 301.253 383.643 301.457 383.643 301.73C383.643 301.997 383.702 302.201 383.821 302.343C383.939 302.48 384.099 302.548 384.301 302.548C384.502 302.548 384.662 302.48 384.781 302.343C384.899 302.201 384.958 301.997 384.958 301.73C384.958 301.457 384.899 301.253 384.781 301.117C384.662 300.974 384.502 300.903 384.301 300.903Z" fill="white"/>
<g clip-path="url(#clip1_330_5)">
<path d="M289.845 275.774L298.425 258.075H286.966V255.915H300.735V258.465L292.455 275.774H289.845ZM309.358 276.014C308.119 276.014 306.979 275.774 305.939 275.294C304.919 274.794 304.079 274.134 303.419 273.314C302.759 272.494 302.379 271.565 302.279 270.525H304.559C304.659 271.145 304.939 271.705 305.399 272.204C305.859 272.704 306.429 273.104 307.109 273.404C307.809 273.684 308.559 273.824 309.358 273.824C310.778 273.824 311.878 273.464 312.658 272.744C313.458 272.025 313.858 271.155 313.858 270.135C313.858 269.455 313.668 268.835 313.288 268.275C312.928 267.695 312.428 267.235 311.788 266.895C311.148 266.535 310.408 266.355 309.568 266.355H307.289V264.285H309.298C309.998 264.285 310.638 264.155 311.218 263.895C311.818 263.615 312.298 263.235 312.658 262.755C313.018 262.255 313.198 261.685 313.198 261.045C313.198 260.105 312.858 259.345 312.178 258.765C311.518 258.165 310.538 257.865 309.238 257.865C308.019 257.865 307.039 258.145 306.299 258.705C305.579 259.265 305.149 259.925 305.009 260.685H302.819C302.919 259.865 303.219 259.075 303.719 258.315C304.239 257.555 304.959 256.925 305.879 256.425C306.799 255.925 307.899 255.675 309.178 255.675C311.138 255.675 312.668 256.175 313.768 257.175C314.888 258.155 315.448 259.415 315.448 260.955C315.448 261.615 315.288 262.245 314.968 262.845C314.668 263.425 314.288 263.925 313.828 264.345C313.368 264.765 312.908 265.045 312.448 265.185C313.608 265.625 314.508 266.285 315.148 267.165C315.788 268.045 316.108 269.015 316.108 270.075C316.108 271.255 315.808 272.294 315.208 273.194C314.608 274.074 313.798 274.764 312.778 275.264C311.758 275.764 310.618 276.014 309.358 276.014ZM318.132 275.774V272.714H321.042V275.774H318.132ZM332.045 275.774V270.705H322.566V268.515L330.905 255.915H334.295V268.695H336.965V270.705H334.295V275.774H332.045ZM324.665 268.695H332.045V257.835L324.665 268.695Z" fill="white"/>
<path d="M343.801 275.6L349.92 266.507H350.76L344.641 275.6H343.801ZM344.214 271.6C343.592 271.6 343.103 271.387 342.748 270.96C342.392 270.525 342.214 269.898 342.214 269.08C342.214 268.254 342.392 267.627 342.748 267.2C343.103 266.765 343.592 266.547 344.214 266.547C344.694 266.556 345.081 266.68 345.374 266.92C345.667 267.16 345.881 267.471 346.014 267.854C346.147 268.236 346.214 268.645 346.214 269.08C346.214 269.898 346.032 270.525 345.667 270.96C345.312 271.387 344.827 271.6 344.214 271.6ZM344.214 270.84C344.516 270.831 344.752 270.738 344.921 270.56C345.09 270.382 345.21 270.16 345.281 269.894C345.352 269.618 345.387 269.347 345.387 269.08C345.387 268.494 345.281 268.054 345.067 267.76C344.863 267.467 344.579 267.32 344.214 267.32C343.841 267.32 343.548 267.467 343.334 267.76C343.13 268.054 343.028 268.494 343.028 269.08C343.028 269.667 343.13 270.107 343.334 270.4C343.548 270.694 343.841 270.84 344.214 270.84ZM350.36 275.547C349.738 275.547 349.249 275.333 348.894 274.907C348.538 274.471 348.361 273.844 348.361 273.027C348.361 272.2 348.538 271.573 348.894 271.147C349.249 270.711 349.738 270.494 350.36 270.494C350.84 270.502 351.227 270.627 351.52 270.867C351.814 271.107 352.027 271.418 352.16 271.8C352.294 272.182 352.36 272.591 352.36 273.027C352.36 273.844 352.178 274.471 351.814 274.907C351.458 275.333 350.974 275.547 350.36 275.547ZM350.36 274.787C350.663 274.778 350.898 274.684 351.067 274.507C351.236 274.329 351.356 274.107 351.427 273.84C351.498 273.564 351.534 273.293 351.534 273.027C351.534 272.44 351.427 272 351.214 271.707C351.009 271.414 350.725 271.267 350.36 271.267C349.987 271.267 349.694 271.414 349.481 271.707C349.276 272 349.174 272.44 349.174 273.027C349.174 273.613 349.276 274.053 349.481 274.347C349.694 274.64 349.987 274.787 350.36 274.787Z" fill="white"/>
</g>
</g>
<path d="M213.747 157.777V151.157H216.537C216.931 151.157 217.307 151.234 217.667 151.387C218.034 151.534 218.361 151.751 218.647 152.037C218.934 152.324 219.16 152.67 219.327 153.077C219.494 153.484 219.577 153.947 219.577 154.467C219.577 154.987 219.494 155.45 219.327 155.857C219.16 156.264 218.934 156.61 218.647 156.897C218.361 157.184 218.034 157.404 217.667 157.557C217.307 157.704 216.931 157.777 216.537 157.777H213.747ZM214.497 157.067H216.507C216.981 157.067 217.391 156.947 217.737 156.707C218.084 156.467 218.351 156.15 218.537 155.757C218.731 155.364 218.827 154.934 218.827 154.467C218.827 153.994 218.731 153.56 218.537 153.167C218.351 152.774 218.084 152.46 217.737 152.227C217.391 151.987 216.981 151.867 216.507 151.867H214.497V157.067ZM220.477 151.937V150.957H221.287V151.937H220.477ZM220.507 157.777V152.777H221.257V157.777H220.507ZM224.267 157.857C223.807 157.857 223.417 157.78 223.097 157.627C222.783 157.474 222.543 157.274 222.377 157.027C222.21 156.774 222.117 156.5 222.097 156.207H222.877C222.897 156.374 222.953 156.537 223.047 156.697C223.147 156.85 223.297 156.977 223.497 157.077C223.697 157.17 223.957 157.217 224.277 157.217C224.377 157.217 224.5 157.207 224.647 157.187C224.793 157.167 224.933 157.13 225.067 157.077C225.207 157.024 225.323 156.944 225.417 156.837C225.51 156.73 225.557 156.594 225.557 156.427C225.557 156.22 225.477 156.06 225.317 155.947C225.157 155.834 224.95 155.747 224.697 155.687C224.443 155.62 224.173 155.557 223.887 155.497C223.607 155.437 223.34 155.36 223.087 155.267C222.833 155.167 222.627 155.03 222.467 154.857C222.307 154.677 222.227 154.434 222.227 154.127C222.227 153.674 222.39 153.324 222.717 153.077C223.05 152.824 223.54 152.697 224.187 152.697C224.627 152.697 224.983 152.767 225.257 152.907C225.537 153.04 225.747 153.214 225.887 153.427C226.033 153.64 226.12 153.87 226.147 154.117H225.387C225.36 153.904 225.253 153.72 225.067 153.567C224.887 153.414 224.587 153.337 224.167 153.337C223.373 153.337 222.977 153.577 222.977 154.057C222.977 154.257 223.057 154.41 223.217 154.517C223.377 154.624 223.583 154.71 223.837 154.777C224.09 154.837 224.357 154.897 224.637 154.957C224.923 155.01 225.193 155.087 225.447 155.187C225.7 155.287 225.907 155.43 226.067 155.617C226.227 155.797 226.307 156.044 226.307 156.357C226.307 156.844 226.12 157.217 225.747 157.477C225.38 157.73 224.887 157.857 224.267 157.857ZM229.309 157.857C228.81 157.857 228.376 157.744 228.01 157.517C227.643 157.284 227.356 156.97 227.15 156.577C226.95 156.184 226.85 155.75 226.85 155.277C226.85 154.797 226.95 154.364 227.15 153.977C227.356 153.584 227.643 153.274 228.01 153.047C228.376 152.814 228.81 152.697 229.309 152.697C229.903 152.697 230.406 152.85 230.819 153.157C231.239 153.464 231.523 153.86 231.669 154.347H230.859C230.746 154.06 230.563 153.827 230.309 153.647C230.063 153.467 229.763 153.377 229.409 153.377C229.043 153.377 228.723 153.464 228.45 153.637C228.176 153.81 227.966 154.04 227.82 154.327C227.673 154.614 227.6 154.93 227.6 155.277C227.6 155.617 227.673 155.934 227.82 156.227C227.966 156.514 228.176 156.744 228.45 156.917C228.723 157.09 229.043 157.177 229.409 157.177C229.763 157.177 230.063 157.087 230.309 156.907C230.563 156.727 230.746 156.494 230.859 156.207H231.669C231.523 156.694 231.239 157.09 230.819 157.397C230.406 157.704 229.903 157.857 229.309 157.857ZM234.658 157.857C234.151 157.857 233.711 157.744 233.338 157.517C232.964 157.284 232.678 156.97 232.478 156.577C232.278 156.184 232.178 155.75 232.178 155.277C232.178 154.797 232.278 154.364 232.478 153.977C232.678 153.584 232.964 153.274 233.338 153.047C233.711 152.814 234.151 152.697 234.658 152.697C235.171 152.697 235.611 152.814 235.977 153.047C236.351 153.274 236.637 153.584 236.837 153.977C237.037 154.364 237.137 154.797 237.137 155.277C237.137 155.75 237.037 156.184 236.837 156.577C236.637 156.97 236.351 157.284 235.977 157.517C235.611 157.744 235.171 157.857 234.658 157.857ZM234.658 157.177C235.031 157.177 235.344 157.09 235.597 156.917C235.857 156.744 236.054 156.514 236.187 156.227C236.321 155.934 236.387 155.617 236.387 155.277C236.387 154.93 236.321 154.614 236.187 154.327C236.054 154.04 235.857 153.81 235.597 153.637C235.344 153.464 235.031 153.377 234.658 153.377C234.291 153.377 233.978 153.464 233.718 153.637C233.458 153.81 233.261 154.04 233.128 154.327C232.994 154.614 232.928 154.93 232.928 155.277C232.928 155.617 232.994 155.934 233.128 156.227C233.261 156.514 233.458 156.744 233.718 156.917C233.978 157.09 234.291 157.177 234.658 157.177ZM239.283 157.777L237.323 152.777H238.143L239.723 156.977L241.293 152.777H242.113L240.163 157.777H239.283ZM244.827 157.857C244.32 157.857 243.877 157.744 243.497 157.517C243.117 157.284 242.82 156.97 242.607 156.577C242.4 156.184 242.297 155.75 242.297 155.277C242.297 154.797 242.397 154.364 242.597 153.977C242.797 153.584 243.083 153.274 243.457 153.047C243.83 152.814 244.27 152.697 244.777 152.697C245.29 152.697 245.73 152.814 246.096 153.047C246.47 153.274 246.756 153.584 246.956 153.977C247.156 154.364 247.256 154.797 247.256 155.277V155.577H243.067C243.107 155.87 243.2 156.14 243.347 156.387C243.5 156.627 243.703 156.82 243.957 156.967C244.21 157.107 244.503 157.177 244.837 157.177C245.19 157.177 245.487 157.1 245.726 156.947C245.966 156.787 246.153 156.584 246.286 156.337H247.106C246.933 156.784 246.656 157.15 246.276 157.437C245.903 157.717 245.42 157.857 244.827 157.857ZM243.077 154.877H246.476C246.41 154.45 246.23 154.094 245.936 153.807C245.643 153.52 245.257 153.377 244.777 153.377C244.297 153.377 243.91 153.52 243.617 153.807C243.33 154.094 243.15 154.45 243.077 154.877ZM248.062 157.777V152.777H248.812V154.007C248.838 153.92 248.888 153.807 248.962 153.667C249.042 153.52 249.155 153.374 249.302 153.227C249.448 153.08 249.632 152.957 249.852 152.857C250.078 152.75 250.345 152.697 250.652 152.697H250.702V153.447H250.612C250.238 153.447 249.915 153.55 249.642 153.757C249.375 153.957 249.168 154.22 249.022 154.547C248.882 154.867 248.812 155.21 248.812 155.577V157.777H248.062ZM253.415 157.777V152.777H254.165V153.557C254.345 153.317 254.565 153.114 254.825 152.947C255.085 152.78 255.419 152.697 255.825 152.697C256.172 152.697 256.495 152.78 256.795 152.947C257.102 153.107 257.348 153.35 257.535 153.677C257.728 153.997 257.825 154.394 257.825 154.867V157.777H257.075V154.887C257.075 154.434 256.945 154.07 256.685 153.797C256.425 153.517 256.088 153.377 255.675 153.377C255.395 153.377 255.142 153.44 254.915 153.567C254.689 153.694 254.505 153.874 254.365 154.107C254.232 154.334 254.165 154.597 254.165 154.897V157.777H253.415ZM261.188 157.857C260.681 157.857 260.238 157.744 259.858 157.517C259.478 157.284 259.181 156.97 258.968 156.577C258.761 156.184 258.658 155.75 258.658 155.277C258.658 154.797 258.758 154.364 258.958 153.977C259.158 153.584 259.445 153.274 259.818 153.047C260.191 152.814 260.631 152.697 261.138 152.697C261.651 152.697 262.091 152.814 262.458 153.047C262.831 153.274 263.118 153.584 263.318 153.977C263.518 154.364 263.618 154.797 263.618 155.277V155.577H259.428C259.468 155.87 259.561 156.14 259.708 156.387C259.861 156.627 260.065 156.82 260.318 156.967C260.571 157.107 260.865 157.177 261.198 157.177C261.551 157.177 261.848 157.1 262.088 156.947C262.328 156.787 262.514 156.584 262.648 156.337H263.468C263.294 156.784 263.018 157.15 262.638 157.437C262.264 157.717 261.781 157.857 261.188 157.857ZM259.438 154.877H262.838C262.771 154.45 262.591 154.094 262.298 153.807C262.004 153.52 261.618 153.377 261.138 153.377C260.658 153.377 260.271 153.52 259.978 153.807C259.691 154.094 259.511 154.45 259.438 154.877ZM265.393 157.777L263.823 152.777H264.623L265.823 156.847L267.093 152.777H267.913L269.183 156.847L270.383 152.777H271.183L269.613 157.777H268.753L267.503 153.787L266.253 157.777H265.393ZM275.96 157.857C275.453 157.857 275.013 157.744 274.64 157.517C274.267 157.284 273.98 156.97 273.78 156.577C273.58 156.184 273.48 155.75 273.48 155.277C273.48 154.797 273.58 154.364 273.78 153.977C273.98 153.584 274.267 153.274 274.64 153.047C275.013 152.814 275.453 152.697 275.96 152.697C276.473 152.697 276.913 152.814 277.28 153.047C277.653 153.274 277.94 153.584 278.14 153.977C278.34 154.364 278.44 154.797 278.44 155.277C278.44 155.75 278.34 156.184 278.14 156.577C277.94 156.97 277.653 157.284 277.28 157.517C276.913 157.744 276.473 157.857 275.96 157.857ZM275.96 157.177C276.333 157.177 276.647 157.09 276.9 156.917C277.16 156.744 277.356 156.514 277.49 156.227C277.623 155.934 277.69 155.617 277.69 155.277C277.69 154.93 277.623 154.614 277.49 154.327C277.356 154.04 277.16 153.81 276.9 153.637C276.647 153.464 276.333 153.377 275.96 153.377C275.593 153.377 275.28 153.464 275.02 153.637C274.76 153.81 274.563 154.04 274.43 154.327C274.297 154.614 274.23 154.93 274.23 155.277C274.23 155.617 274.297 155.934 274.43 156.227C274.563 156.514 274.76 156.744 275.02 156.917C275.28 157.09 275.593 157.177 275.96 157.177ZM279.323 159.757V152.777H280.073V153.577C280.26 153.304 280.5 153.09 280.793 152.937C281.093 152.777 281.45 152.697 281.863 152.697C282.35 152.697 282.773 152.814 283.133 153.047C283.5 153.274 283.783 153.584 283.983 153.977C284.183 154.364 284.283 154.797 284.283 155.277C284.283 155.75 284.183 156.184 283.983 156.577C283.783 156.97 283.5 157.284 283.133 157.517C282.773 157.744 282.35 157.857 281.863 157.857C281.45 157.857 281.093 157.777 280.793 157.617C280.5 157.45 280.26 157.234 280.073 156.967V159.757H279.323ZM281.763 157.177C282.136 157.177 282.453 157.09 282.713 156.917C282.98 156.744 283.183 156.514 283.323 156.227C283.463 155.934 283.533 155.617 283.533 155.277C283.533 154.93 283.463 154.614 283.323 154.327C283.183 154.04 282.98 153.81 282.713 153.637C282.453 153.464 282.136 153.377 281.763 153.377C281.396 153.377 281.083 153.464 280.823 153.637C280.563 153.81 280.366 154.04 280.233 154.327C280.1 154.614 280.033 154.93 280.033 155.277C280.033 155.617 280.1 155.934 280.233 156.227C280.366 156.514 280.563 156.744 280.823 156.917C281.083 157.09 281.396 157.177 281.763 157.177ZM285.159 159.757V152.777H285.909V153.577C286.096 153.304 286.336 153.09 286.629 152.937C286.929 152.777 287.286 152.697 287.699 152.697C288.185 152.697 288.609 152.814 288.969 153.047C289.335 153.274 289.619 153.584 289.819 153.977C290.019 154.364 290.119 154.797 290.119 155.277C290.119 155.75 290.019 156.184 289.819 156.577C289.619 156.97 289.335 157.284 288.969 157.517C288.609 157.744 288.185 157.857 287.699 157.857C287.286 157.857 286.929 157.777 286.629 157.617C286.336 157.45 286.096 157.234 285.909 156.967V159.757H285.159ZM287.599 157.177C287.972 157.177 288.289 157.09 288.549 156.917C288.815 156.744 289.019 156.514 289.159 156.227C289.299 155.934 289.369 155.617 289.369 155.277C289.369 154.93 289.299 154.614 289.159 154.327C289.019 154.04 288.815 153.81 288.549 153.637C288.289 153.464 287.972 153.377 287.599 153.377C287.232 153.377 286.919 153.464 286.659 153.637C286.399 153.81 286.202 154.04 286.069 154.327C285.936 154.614 285.869 154.93 285.869 155.277C285.869 155.617 285.936 155.934 286.069 156.227C286.202 156.514 286.399 156.744 286.659 156.917C286.919 157.09 287.232 157.177 287.599 157.177ZM293.165 157.857C292.658 157.857 292.218 157.744 291.845 157.517C291.471 157.284 291.185 156.97 290.985 156.577C290.785 156.184 290.685 155.75 290.685 155.277C290.685 154.797 290.785 154.364 290.985 153.977C291.185 153.584 291.471 153.274 291.845 153.047C292.218 152.814 292.658 152.697 293.165 152.697C293.678 152.697 294.118 152.814 294.485 153.047C294.858 153.274 295.145 153.584 295.345 153.977C295.545 154.364 295.645 154.797 295.645 155.277C295.645 155.75 295.545 156.184 295.345 156.577C295.145 156.97 294.858 157.284 294.485 157.517C294.118 157.744 293.678 157.857 293.165 157.857ZM293.165 157.177C293.538 157.177 293.851 157.09 294.105 156.917C294.365 156.744 294.561 156.514 294.695 156.227C294.828 155.934 294.895 155.617 294.895 155.277C294.895 154.93 294.828 154.614 294.695 154.327C294.561 154.04 294.365 153.81 294.105 153.637C293.851 153.464 293.538 153.377 293.165 153.377C292.798 153.377 292.485 153.464 292.225 153.637C291.965 153.81 291.768 154.04 291.635 154.327C291.501 154.614 291.435 154.93 291.435 155.277C291.435 155.617 291.501 155.934 291.635 156.227C291.768 156.514 291.965 156.744 292.225 156.917C292.485 157.09 292.798 157.177 293.165 157.177ZM296.528 157.777V152.777H297.278V154.007C297.305 153.92 297.355 153.807 297.428 153.667C297.508 153.52 297.621 153.374 297.768 153.227C297.914 153.08 298.098 152.957 298.318 152.857C298.544 152.75 298.811 152.697 299.118 152.697H299.168V153.447H299.078C298.704 153.447 298.381 153.55 298.108 153.757C297.841 153.957 297.635 154.22 297.488 154.547C297.348 154.867 297.278 155.21 297.278 155.577V157.777H296.528ZM300.404 157.777V153.437H299.384V152.777H300.404V150.987H301.154V152.777H302.304V153.437H301.154V157.777H300.404ZM304.964 157.857C304.624 157.857 304.301 157.777 303.994 157.617C303.688 157.45 303.438 157.207 303.244 156.887C303.058 156.56 302.964 156.16 302.964 155.687V152.777H303.714V155.667C303.714 156.12 303.844 156.487 304.104 156.767C304.371 157.04 304.708 157.177 305.114 157.177C305.394 157.177 305.647 157.114 305.874 156.987C306.101 156.854 306.281 156.674 306.414 156.447C306.554 156.22 306.624 155.957 306.624 155.657V152.777H307.374V157.777H306.624V156.997C306.444 157.237 306.224 157.44 305.964 157.607C305.704 157.774 305.371 157.857 304.964 157.857ZM308.567 157.777V152.777H309.317V153.557C309.497 153.317 309.717 153.114 309.977 152.947C310.237 152.78 310.57 152.697 310.977 152.697C311.323 152.697 311.647 152.78 311.947 152.947C312.253 153.107 312.5 153.35 312.687 153.677C312.88 153.997 312.977 154.394 312.977 154.867V157.777H312.227V154.887C312.227 154.434 312.097 154.07 311.837 153.797C311.577 153.517 311.24 153.377 310.827 153.377C310.547 153.377 310.294 153.44 310.067 153.567C309.84 153.694 309.657 153.874 309.517 154.107C309.384 154.334 309.317 154.597 309.317 154.897V157.777H308.567ZM314.09 151.937V150.957H314.9V151.937H314.09ZM314.12 157.777V152.777H314.87V157.777H314.12ZM316.599 157.777V153.437H315.579V152.777H316.599V150.987H317.349V152.777H318.499V153.437H317.349V157.777H316.599ZM319.18 151.937V150.957H319.99V151.937H319.18ZM319.21 157.777V152.777H319.96V157.777H319.21ZM323.369 157.857C322.862 157.857 322.419 157.744 322.039 157.517C321.659 157.284 321.362 156.97 321.149 156.577C320.942 156.184 320.839 155.75 320.839 155.277C320.839 154.797 320.939 154.364 321.139 153.977C321.339 153.584 321.626 153.274 321.999 153.047C322.372 152.814 322.812 152.697 323.319 152.697C323.832 152.697 324.272 152.814 324.639 153.047C325.012 153.274 325.299 153.584 325.499 153.977C325.699 154.364 325.799 154.797 325.799 155.277V155.577H321.609C321.649 155.87 321.742 156.14 321.889 156.387C322.042 156.627 322.246 156.82 322.499 156.967C322.752 157.107 323.046 157.177 323.379 157.177C323.732 157.177 324.029 157.1 324.269 156.947C324.509 156.787 324.696 156.584 324.829 156.337H325.649C325.476 156.784 325.199 157.15 324.819 157.437C324.446 157.717 323.962 157.857 323.369 157.857ZM321.619 154.877H325.019C324.952 154.45 324.772 154.094 324.479 153.807C324.186 153.52 323.799 153.377 323.319 153.377C322.839 153.377 322.452 153.52 322.159 153.807C321.872 154.094 321.692 154.45 321.619 154.877ZM328.424 157.857C327.964 157.857 327.574 157.78 327.254 157.627C326.941 157.474 326.701 157.274 326.534 157.027C326.367 156.774 326.274 156.5 326.254 156.207H327.034C327.054 156.374 327.111 156.537 327.204 156.697C327.304 156.85 327.454 156.977 327.654 157.077C327.854 157.17 328.114 157.217 328.434 157.217C328.534 157.217 328.657 157.207 328.804 157.187C328.951 157.167 329.091 157.13 329.224 157.077C329.364 157.024 329.481 156.944 329.574 156.837C329.667 156.73 329.714 156.594 329.714 156.427C329.714 156.22 329.634 156.06 329.474 155.947C329.314 155.834 329.107 155.747 328.854 155.687C328.601 155.62 328.331 155.557 328.044 155.497C327.764 155.437 327.497 155.36 327.244 155.267C326.991 155.167 326.784 155.03 326.624 154.857C326.464 154.677 326.384 154.434 326.384 154.127C326.384 153.674 326.547 153.324 326.874 153.077C327.207 152.824 327.697 152.697 328.344 152.697C328.784 152.697 329.141 152.767 329.414 152.907C329.694 153.04 329.904 153.214 330.044 153.427C330.191 153.64 330.277 153.87 330.304 154.117H329.544C329.517 153.904 329.411 153.72 329.224 153.567C329.044 153.414 328.744 153.337 328.324 153.337C327.531 153.337 327.134 153.577 327.134 154.057C327.134 154.257 327.214 154.41 327.374 154.517C327.534 154.624 327.741 154.71 327.994 154.777C328.247 154.837 328.514 154.897 328.794 154.957C329.081 155.01 329.351 155.087 329.604 155.187C329.857 155.287 330.064 155.43 330.224 155.617C330.384 155.797 330.464 156.044 330.464 156.357C330.464 156.844 330.277 157.217 329.904 157.477C329.537 157.73 329.044 157.857 328.424 157.857Z" fill="white"/>
<path fill-rule="evenodd" clip-rule="evenodd" d="M418.544 159.94C414.851 159.94 411.857 156.875 411.857 153.095C411.857 149.315 414.851 146.251 418.544 146.251C422.237 146.251 425.23 149.315 425.23 153.095C425.23 156.875 422.237 159.94 418.544 159.94ZM418.545 158.799C421.622 158.799 424.117 156.245 424.117 153.095C424.117 149.945 421.622 147.392 418.545 147.392C415.467 147.392 412.973 149.945 412.973 153.095C412.973 156.245 415.467 158.799 418.545 158.799ZM418.543 157.088C418.203 157.088 417.928 156.79 417.928 156.423C417.928 156.055 418.203 155.757 418.543 155.757C418.883 155.757 419.158 156.055 419.158 156.423C419.158 156.79 418.883 157.088 418.543 157.088ZM418.544 155.092C418.204 155.092 417.898 154.795 417.861 154.428L417.437 150.3C417.369 149.639 417.812 149.103 418.429 149.103H418.659C419.275 149.103 419.72 149.634 419.652 150.3L419.228 154.428C419.19 154.794 418.886 155.092 418.544 155.092Z" fill="white"/>
<g clip-path="url(#clip2_330_5)">
<path d="M370.793 395.979H371.673V397.019C372.322 397.082 372.855 397.237 373.273 397.486C373.69 397.726 374.006 398.024 374.219 398.379C374.433 398.735 374.553 399.113 374.579 399.513H373.553C373.508 399.13 373.335 398.797 373.033 398.513C372.73 398.219 372.277 398.037 371.673 397.966V401.046C372.064 401.135 372.442 401.241 372.806 401.366C373.179 401.49 373.517 401.641 373.819 401.819C374.121 401.997 374.361 402.224 374.539 402.499C374.717 402.766 374.806 403.095 374.806 403.486C374.806 404.259 374.526 404.863 373.966 405.299C373.415 405.734 372.65 405.974 371.673 406.019V407.085H370.793V406.019C370.046 405.966 369.437 405.819 368.966 405.579C368.495 405.33 368.144 405.01 367.913 404.619C367.682 404.219 367.544 403.775 367.5 403.286H368.54C368.566 403.846 368.793 404.268 369.219 404.552C369.646 404.828 370.171 404.997 370.793 405.059V401.806C370.411 401.708 370.037 401.601 369.673 401.486C369.317 401.37 368.993 401.224 368.7 401.046C368.415 400.868 368.188 400.65 368.02 400.393C367.851 400.135 367.766 399.815 367.766 399.433C367.766 398.748 368.015 398.184 368.513 397.739C369.019 397.286 369.779 397.037 370.793 396.993V395.979ZM368.739 399.419C368.739 399.686 368.833 399.908 369.019 400.086C369.206 400.255 369.455 400.397 369.766 400.513C370.077 400.628 370.419 400.735 370.793 400.832V397.939C370.215 397.966 369.779 398.064 369.486 398.233C369.193 398.402 368.993 398.597 368.886 398.819C368.788 399.033 368.739 399.233 368.739 399.419ZM373.806 403.526C373.806 403.241 373.708 403.006 373.513 402.819C373.317 402.632 373.059 402.477 372.739 402.352C372.419 402.228 372.064 402.117 371.673 402.019V405.072C372.33 405.046 372.85 404.903 373.233 404.646C373.615 404.388 373.806 404.015 373.806 403.526ZM382.185 405.926V403.672H377.972V402.699L381.678 397.099H383.185V402.779H384.371V403.672H383.185V405.926H382.185ZM378.905 402.779H382.185V397.953L378.905 402.779ZM384.758 407.405L385.531 404.566H386.838L385.664 407.405H384.758ZM390.676 406.032C390.116 406.032 389.649 405.926 389.276 405.712C388.903 405.499 388.609 405.228 388.396 404.899C388.192 404.561 388.049 404.219 387.969 403.872H389.089C389.152 404.059 389.24 404.246 389.356 404.432C389.48 404.61 389.649 404.761 389.863 404.886C390.076 405.001 390.347 405.059 390.676 405.059C391.227 405.059 391.671 404.899 392.009 404.579C392.356 404.259 392.609 403.828 392.769 403.286C392.938 402.743 393.022 402.139 393.022 401.472C392.809 401.837 392.494 402.139 392.076 402.379C391.667 402.61 391.214 402.726 390.716 402.726C390.165 402.726 389.658 402.606 389.196 402.366C388.743 402.117 388.383 401.779 388.116 401.352C387.849 400.917 387.716 400.419 387.716 399.859C387.716 399.308 387.854 398.819 388.129 398.393C388.405 397.957 388.774 397.615 389.236 397.366C389.698 397.117 390.205 396.993 390.756 396.993C391.831 396.993 392.645 397.384 393.196 398.166C393.747 398.948 394.022 400.064 394.022 401.512C394.022 402.908 393.742 404.01 393.182 404.819C392.622 405.628 391.787 406.032 390.676 406.032ZM390.756 401.779C391.129 401.779 391.471 401.704 391.783 401.552C392.094 401.392 392.338 401.175 392.516 400.899C392.702 400.615 392.796 400.29 392.796 399.926C392.796 399.535 392.702 399.193 392.516 398.899C392.338 398.606 392.094 398.379 391.783 398.219C391.48 398.05 391.138 397.966 390.756 397.966C390.383 397.966 390.04 398.046 389.729 398.206C389.427 398.366 389.183 398.588 388.996 398.873C388.809 399.157 388.716 399.486 388.716 399.859C388.716 400.224 388.809 400.553 388.996 400.846C389.183 401.13 389.427 401.357 389.729 401.526C390.04 401.695 390.383 401.779 390.756 401.779ZM397.982 406.032C396.977 406.032 396.2 405.788 395.649 405.299C395.097 404.81 394.822 404.175 394.822 403.392C394.822 402.886 394.973 402.424 395.275 402.006C395.586 401.579 396 401.268 396.515 401.072C396.32 401.001 396.115 400.89 395.902 400.739C395.697 400.579 395.524 400.375 395.382 400.126C395.24 399.868 395.169 399.566 395.169 399.219C395.169 398.562 395.409 398.028 395.889 397.619C396.377 397.202 397.075 396.993 397.982 396.993C398.888 396.993 399.582 397.202 400.062 397.619C400.551 398.028 400.795 398.562 400.795 399.219C400.795 399.566 400.724 399.868 400.582 400.126C400.439 400.375 400.262 400.579 400.048 400.739C399.844 400.89 399.644 401.001 399.448 401.072C399.973 401.268 400.386 401.579 400.688 402.006C400.991 402.424 401.142 402.886 401.142 403.392C401.142 404.175 400.866 404.81 400.315 405.299C399.764 405.788 398.986 406.032 397.982 406.032ZM397.982 400.646C398.257 400.646 398.533 400.601 398.808 400.513C399.093 400.415 399.328 400.264 399.515 400.059C399.702 399.855 399.795 399.593 399.795 399.273C399.795 398.855 399.626 398.53 399.288 398.299C398.951 398.068 398.515 397.953 397.982 397.953C397.448 397.953 397.013 398.068 396.675 398.299C396.337 398.53 396.169 398.855 396.169 399.273C396.169 399.593 396.262 399.855 396.449 400.059C396.635 400.264 396.866 400.415 397.142 400.513C397.426 400.601 397.706 400.646 397.982 400.646ZM397.982 405.072C398.64 405.072 399.164 404.921 399.555 404.619C399.946 404.308 400.142 403.895 400.142 403.379C400.142 402.997 400.044 402.672 399.848 402.406C399.653 402.13 399.391 401.921 399.062 401.779C398.742 401.637 398.382 401.566 397.982 401.566C397.591 401.566 397.231 401.637 396.902 401.779C396.573 401.921 396.311 402.13 396.115 402.406C395.92 402.672 395.822 402.997 395.822 403.379C395.822 403.895 396.017 404.308 396.409 404.619C396.8 404.921 397.324 405.072 397.982 405.072ZM402.061 405.926V405.379C402.061 404.943 402.181 404.548 402.421 404.192C402.661 403.828 402.968 403.49 403.341 403.179C403.714 402.868 404.114 402.57 404.541 402.286C404.968 401.992 405.368 401.708 405.741 401.432C406.114 401.157 406.421 400.872 406.661 400.579C406.901 400.277 407.021 399.957 407.021 399.619C407.021 399.104 406.848 398.699 406.501 398.406C406.163 398.113 405.674 397.966 405.034 397.966C404.448 397.966 403.968 398.099 403.594 398.366C403.23 398.624 403.012 399.001 402.941 399.499H401.941C401.995 398.993 402.159 398.553 402.434 398.179C402.719 397.797 403.083 397.504 403.528 397.299C403.972 397.095 404.465 396.993 405.008 396.993C405.648 396.993 406.19 397.108 406.634 397.339C407.088 397.57 407.43 397.882 407.661 398.273C407.901 398.664 408.021 399.104 408.021 399.593C408.021 400.001 407.91 400.384 407.688 400.739C407.465 401.095 407.176 401.428 406.821 401.739C406.465 402.05 406.088 402.344 405.688 402.619C405.297 402.895 404.919 403.166 404.554 403.432C404.19 403.69 403.888 403.948 403.648 404.206C403.408 404.455 403.274 404.708 403.248 404.966H407.994V405.926H402.061ZM409.127 405.926V404.566H410.42V405.926H409.127ZM414.517 406.032C413.477 406.032 412.7 405.65 412.184 404.886C411.677 404.112 411.424 402.988 411.424 401.512C411.424 400.037 411.677 398.917 412.184 398.153C412.7 397.379 413.477 396.993 414.517 396.993C415.122 397.002 415.624 397.135 416.024 397.393C416.424 397.642 416.739 397.979 416.971 398.406C417.202 398.833 417.366 399.313 417.464 399.846C417.562 400.379 417.61 400.935 417.61 401.512C417.61 402.988 417.353 404.112 416.837 404.886C416.331 405.65 415.557 406.032 414.517 406.032ZM414.517 405.059C414.971 405.05 415.335 404.939 415.611 404.726C415.886 404.512 416.095 404.232 416.237 403.886C416.388 403.539 416.486 403.161 416.531 402.752C416.584 402.335 416.611 401.921 416.611 401.512C416.611 400.33 416.446 399.446 416.117 398.859C415.788 398.264 415.255 397.966 414.517 397.966C413.788 397.966 413.255 398.264 412.917 398.859C412.589 399.446 412.424 400.33 412.424 401.512C412.424 402.695 412.589 403.583 412.917 404.179C413.255 404.766 413.788 405.059 414.517 405.059ZM421.57 406.032C420.53 406.032 419.752 405.65 419.237 404.886C418.73 404.112 418.477 402.988 418.477 401.512C418.477 400.037 418.73 398.917 419.237 398.153C419.752 397.379 420.53 396.993 421.57 396.993C422.174 397.002 422.676 397.135 423.076 397.393C423.476 397.642 423.792 397.979 424.023 398.406C424.254 398.833 424.419 399.313 424.516 399.846C424.614 400.379 424.663 400.935 424.663 401.512C424.663 402.988 424.405 404.112 423.89 404.886C423.383 405.65 422.61 406.032 421.57 406.032ZM421.57 405.059C422.023 405.05 422.388 404.939 422.663 404.726C422.939 404.512 423.148 404.232 423.29 403.886C423.441 403.539 423.539 403.161 423.583 402.752C423.636 402.335 423.663 401.921 423.663 401.512C423.663 400.33 423.499 399.446 423.17 398.859C422.841 398.264 422.308 397.966 421.57 397.966C420.841 397.966 420.308 398.264 419.97 398.859C419.641 399.446 419.477 400.33 419.477 401.512C419.477 402.695 419.641 403.583 419.97 404.179C420.308 404.766 420.841 405.059 421.57 405.059Z" fill="white"/>
<path d="M215.804 405.926L213.057 397.099H214.111L216.377 404.512L218.751 397.099H219.897L222.27 404.512L224.537 397.099H225.59L222.844 405.926H221.71L219.324 398.513L216.937 405.926H215.804ZM228.67 406.032C228.021 406.032 227.452 405.881 226.963 405.579C226.483 405.268 226.11 404.85 225.843 404.326C225.576 403.801 225.443 403.224 225.443 402.592C225.443 401.952 225.576 401.375 225.843 400.859C226.11 400.335 226.483 399.921 226.963 399.619C227.452 399.308 228.021 399.153 228.67 399.153C229.221 399.153 229.692 399.259 230.083 399.473C230.483 399.686 230.807 399.975 231.056 400.339V399.259H232.056V405.926H231.056V404.859C230.807 405.215 230.483 405.499 230.083 405.712C229.692 405.926 229.221 406.032 228.67 406.032ZM228.803 405.126C229.301 405.126 229.718 405.01 230.056 404.779C230.403 404.548 230.665 404.241 230.843 403.859C231.021 403.468 231.109 403.046 231.109 402.592C231.109 402.13 231.021 401.708 230.843 401.326C230.665 400.944 230.403 400.637 230.056 400.406C229.718 400.175 229.301 400.059 228.803 400.059C228.314 400.059 227.892 400.175 227.536 400.406C227.181 400.637 226.91 400.944 226.723 401.326C226.536 401.708 226.443 402.13 226.443 402.592C226.443 403.046 226.536 403.468 226.723 403.859C226.91 404.241 227.181 404.548 227.536 404.779C227.892 405.01 228.314 405.126 228.803 405.126ZM233.508 405.926V396.593H234.508V405.926H233.508ZM235.964 405.926V396.593H236.964V405.926H235.964ZM241.381 406.032C240.705 406.032 240.114 405.881 239.607 405.579C239.101 405.268 238.705 404.85 238.421 404.326C238.145 403.801 238.007 403.224 238.007 402.592C238.007 401.952 238.141 401.375 238.407 400.859C238.674 400.335 239.056 399.921 239.554 399.619C240.052 399.308 240.638 399.153 241.314 399.153C241.998 399.153 242.585 399.308 243.074 399.619C243.572 399.921 243.954 400.335 244.22 400.859C244.487 401.375 244.62 401.952 244.62 402.592V402.992H239.034C239.087 403.384 239.212 403.743 239.407 404.072C239.612 404.392 239.883 404.65 240.221 404.846C240.558 405.032 240.95 405.126 241.394 405.126C241.865 405.126 242.261 405.023 242.581 404.819C242.901 404.606 243.149 404.335 243.327 404.006H244.42C244.189 404.601 243.82 405.09 243.314 405.472C242.816 405.846 242.172 406.032 241.381 406.032ZM239.047 402.059H243.581C243.492 401.49 243.252 401.015 242.861 400.633C242.469 400.25 241.954 400.059 241.314 400.059C240.674 400.059 240.158 400.25 239.767 400.633C239.385 401.015 239.145 401.49 239.047 402.059ZM246.284 405.926V400.139H244.925V399.259H246.284V396.873H247.284V399.259H248.818V400.139H247.284V405.926H246.284ZM252.409 405.926V397.099H256.369C257.062 397.099 257.609 397.219 258.009 397.459C258.418 397.699 258.711 398.002 258.889 398.366C259.067 398.722 259.156 399.077 259.156 399.433C259.156 400.001 259.036 400.441 258.796 400.753C258.556 401.055 258.28 401.277 257.969 401.419C258.218 401.499 258.467 401.628 258.716 401.806C258.973 401.975 259.187 402.206 259.356 402.499C259.525 402.792 259.609 403.161 259.609 403.606C259.609 404.263 259.356 404.815 258.849 405.259C258.351 405.703 257.6 405.926 256.596 405.926H252.409ZM253.409 401.046H256.369C256.68 401.046 256.969 400.993 257.236 400.886C257.511 400.779 257.734 400.615 257.902 400.393C258.071 400.161 258.156 399.868 258.156 399.513C258.156 399.264 258.098 399.028 257.982 398.806C257.876 398.584 257.698 398.402 257.449 398.259C257.209 398.117 256.885 398.046 256.476 398.046H253.409V401.046ZM253.409 404.979H256.702C257.307 404.979 257.774 404.855 258.102 404.606C258.44 404.348 258.609 403.988 258.609 403.526C258.609 403.108 258.449 402.744 258.129 402.432C257.809 402.112 257.298 401.952 256.596 401.952H253.409V404.979ZM263.559 406.032C262.91 406.032 262.341 405.881 261.853 405.579C261.373 405.268 260.999 404.85 260.733 404.326C260.466 403.801 260.333 403.224 260.333 402.592C260.333 401.952 260.466 401.375 260.733 400.859C260.999 400.335 261.373 399.921 261.853 399.619C262.341 399.308 262.91 399.153 263.559 399.153C264.11 399.153 264.581 399.259 264.972 399.473C265.372 399.686 265.697 399.975 265.946 400.339V399.259H266.946V405.926H265.946V404.859C265.697 405.215 265.372 405.499 264.972 405.712C264.581 405.926 264.11 406.032 263.559 406.032ZM263.692 405.126C264.19 405.126 264.608 405.01 264.946 404.779C265.292 404.548 265.555 404.241 265.732 403.859C265.91 403.468 265.999 403.046 265.999 402.592C265.999 402.13 265.91 401.708 265.732 401.326C265.555 400.944 265.292 400.637 264.946 400.406C264.608 400.175 264.19 400.059 263.692 400.059C263.204 400.059 262.781 400.175 262.426 400.406C262.07 400.637 261.799 400.944 261.613 401.326C261.426 401.708 261.333 402.13 261.333 402.592C261.333 403.046 261.426 403.468 261.613 403.859C261.799 404.241 262.07 404.548 262.426 404.779C262.781 405.01 263.204 405.126 263.692 405.126ZM268.397 405.926V396.593H269.397V405.926H268.397ZM273.667 406.032C273.018 406.032 272.449 405.881 271.96 405.579C271.481 405.268 271.107 404.85 270.841 404.326C270.574 403.801 270.441 403.224 270.441 402.592C270.441 401.952 270.574 401.375 270.841 400.859C271.107 400.335 271.481 399.921 271.96 399.619C272.449 399.308 273.018 399.153 273.667 399.153C274.218 399.153 274.689 399.259 275.08 399.473C275.48 399.686 275.805 399.975 276.054 400.339V399.259H277.054V405.926H276.054V404.859C275.805 405.215 275.48 405.499 275.08 405.712C274.689 405.926 274.218 406.032 273.667 406.032ZM273.8 405.126C274.298 405.126 274.716 405.01 275.054 404.779C275.4 404.548 275.662 404.241 275.84 403.859C276.018 403.468 276.107 403.046 276.107 402.592C276.107 402.13 276.018 401.708 275.84 401.326C275.662 400.944 275.4 400.637 275.054 400.406C274.716 400.175 274.298 400.059 273.8 400.059C273.312 400.059 272.889 400.175 272.534 400.406C272.178 400.637 271.907 400.944 271.72 401.326C271.534 401.708 271.441 402.13 271.441 402.592C271.441 403.046 271.534 403.468 271.72 403.859C271.907 404.241 272.178 404.548 272.534 404.779C272.889 405.01 273.312 405.126 273.8 405.126ZM278.505 405.926V399.259H279.505V400.299C279.745 399.979 280.039 399.708 280.385 399.486C280.732 399.264 281.176 399.153 281.719 399.153C282.181 399.153 282.612 399.264 283.012 399.486C283.421 399.699 283.75 400.024 283.998 400.459C284.256 400.886 284.385 401.415 284.385 402.046V405.926H283.385V402.072C283.385 401.468 283.212 400.984 282.865 400.619C282.518 400.246 282.07 400.059 281.519 400.059C281.145 400.059 280.807 400.144 280.505 400.313C280.203 400.481 279.959 400.721 279.772 401.033C279.594 401.335 279.505 401.686 279.505 402.086V405.926H278.505ZM288.646 406.032C287.979 406.032 287.401 405.881 286.913 405.579C286.424 405.268 286.041 404.85 285.766 404.326C285.499 403.801 285.366 403.224 285.366 402.592C285.366 401.952 285.499 401.375 285.766 400.859C286.041 400.335 286.424 399.921 286.913 399.619C287.401 399.308 287.979 399.153 288.646 399.153C289.437 399.153 290.108 399.357 290.659 399.766C291.219 400.175 291.597 400.704 291.792 401.353H290.712C290.561 400.97 290.317 400.659 289.979 400.419C289.65 400.179 289.25 400.059 288.779 400.059C288.29 400.059 287.864 400.175 287.499 400.406C287.135 400.637 286.855 400.944 286.659 401.326C286.464 401.708 286.366 402.13 286.366 402.592C286.366 403.046 286.464 403.468 286.659 403.859C286.855 404.241 287.135 404.548 287.499 404.779C287.864 405.01 288.29 405.126 288.779 405.126C289.25 405.126 289.65 405.006 289.979 404.766C290.317 404.526 290.561 404.215 290.712 403.832H291.792C291.597 404.481 291.219 405.01 290.659 405.419C290.108 405.828 289.437 406.032 288.646 406.032ZM295.714 406.032C295.038 406.032 294.447 405.881 293.94 405.579C293.434 405.268 293.038 404.85 292.754 404.326C292.478 403.801 292.34 403.224 292.34 402.592C292.34 401.952 292.474 401.375 292.74 400.859C293.007 400.335 293.389 399.921 293.887 399.619C294.385 399.308 294.971 399.153 295.647 399.153C296.331 399.153 296.918 399.308 297.407 399.619C297.905 399.921 298.287 400.335 298.553 400.859C298.82 401.375 298.953 401.952 298.953 402.592V402.992H293.367C293.42 403.384 293.545 403.743 293.74 404.072C293.945 404.392 294.216 404.65 294.554 404.846C294.891 405.032 295.282 405.126 295.727 405.126C296.198 405.126 296.593 405.023 296.913 404.819C297.233 404.606 297.482 404.335 297.66 404.006H298.753C298.522 404.601 298.153 405.09 297.647 405.472C297.149 405.846 296.505 406.032 295.714 406.032ZM293.38 402.059H297.913C297.825 401.49 297.585 401.015 297.193 400.633C296.802 400.25 296.287 400.059 295.647 400.059C295.007 400.059 294.491 400.25 294.1 400.633C293.718 401.015 293.478 401.49 293.38 402.059Z" fill="white"/>
<path d="M400.971 422.48V420.676H399.264V420.098H400.971V418.293H401.548V420.098H403.264V420.676H401.548V422.48H400.971ZM406.088 415.849H406.674V416.542C407.107 416.584 407.462 416.688 407.741 416.854C408.019 417.014 408.23 417.212 408.372 417.449C408.514 417.686 408.594 417.938 408.612 418.205H407.928C407.898 417.95 407.782 417.728 407.581 417.538C407.38 417.342 407.077 417.221 406.674 417.174V419.227C406.935 419.286 407.187 419.357 407.43 419.44C407.679 419.523 407.904 419.624 408.105 419.742C408.307 419.861 408.467 420.012 408.585 420.196C408.704 420.373 408.763 420.593 408.763 420.853C408.763 421.369 408.576 421.772 408.203 422.062C407.836 422.353 407.326 422.513 406.674 422.542V423.253H406.088V422.542C405.59 422.507 405.184 422.409 404.87 422.249C404.556 422.083 404.322 421.87 404.168 421.609C404.014 421.342 403.922 421.046 403.892 420.72H404.586C404.603 421.093 404.754 421.375 405.039 421.564C405.323 421.748 405.673 421.861 406.088 421.902V419.733C405.833 419.668 405.584 419.597 405.341 419.52C405.104 419.443 404.888 419.345 404.692 419.227C404.503 419.108 404.352 418.963 404.239 418.791C404.126 418.619 404.07 418.406 404.07 418.151C404.07 417.695 404.236 417.319 404.568 417.022C404.906 416.72 405.412 416.554 406.088 416.525V415.849ZM404.719 418.142C404.719 418.32 404.781 418.468 404.906 418.587C405.03 418.699 405.196 418.794 405.403 418.871C405.611 418.948 405.839 419.019 406.088 419.085V417.156C405.703 417.174 405.412 417.239 405.217 417.351C405.021 417.464 404.888 417.594 404.817 417.742C404.752 417.885 404.719 418.018 404.719 418.142ZM408.096 420.88C408.096 420.69 408.031 420.533 407.901 420.409C407.771 420.284 407.599 420.181 407.385 420.098C407.172 420.015 406.935 419.941 406.674 419.876V421.911C407.113 421.893 407.459 421.798 407.714 421.627C407.969 421.455 408.096 421.206 408.096 420.88ZM413.855 422.48V420.978H411.047V420.329L413.518 416.596H414.522V420.382H415.313V420.978H414.522V422.48H413.855ZM411.669 420.382H413.855V417.165L411.669 420.382ZM416.021 422.48V422.115C416.021 421.825 416.101 421.561 416.261 421.324C416.421 421.081 416.626 420.856 416.875 420.649C417.124 420.442 417.39 420.243 417.675 420.053C417.959 419.858 418.226 419.668 418.475 419.485C418.723 419.301 418.928 419.111 419.088 418.916C419.248 418.714 419.328 418.501 419.328 418.276C419.328 417.932 419.212 417.662 418.981 417.467C418.756 417.271 418.43 417.174 418.003 417.174C417.612 417.174 417.292 417.262 417.044 417.44C416.801 417.612 416.655 417.864 416.608 418.196H415.941C415.977 417.858 416.087 417.565 416.27 417.316C416.46 417.061 416.703 416.865 416.999 416.729C417.295 416.593 417.624 416.525 417.986 416.525C418.412 416.525 418.774 416.602 419.07 416.756C419.372 416.91 419.6 417.117 419.754 417.378C419.914 417.639 419.994 417.932 419.994 418.258C419.994 418.531 419.92 418.785 419.772 419.022C419.624 419.259 419.432 419.482 419.195 419.689C418.957 419.896 418.706 420.092 418.439 420.276C418.178 420.459 417.926 420.64 417.683 420.818C417.441 420.99 417.239 421.161 417.079 421.333C416.919 421.499 416.83 421.668 416.812 421.84H419.977V422.48H416.021ZM422.792 422.551C422.122 422.551 421.604 422.388 421.236 422.062C420.869 421.736 420.685 421.313 420.685 420.791C420.685 420.453 420.786 420.145 420.987 419.867C421.195 419.582 421.47 419.375 421.814 419.245C421.683 419.197 421.547 419.123 421.405 419.022C421.269 418.916 421.153 418.779 421.058 418.613C420.964 418.442 420.916 418.24 420.916 418.009C420.916 417.571 421.076 417.215 421.396 416.942C421.722 416.664 422.187 416.525 422.792 416.525C423.396 416.525 423.858 416.664 424.178 416.942C424.504 417.215 424.667 417.571 424.667 418.009C424.667 418.24 424.62 418.442 424.525 418.613C424.43 418.779 424.312 418.916 424.169 419.022C424.033 419.123 423.9 419.197 423.769 419.245C424.119 419.375 424.394 419.582 424.596 419.867C424.797 420.145 424.898 420.453 424.898 420.791C424.898 421.313 424.714 421.736 424.347 422.062C423.98 422.388 423.461 422.551 422.792 422.551ZM422.792 418.96C422.975 418.96 423.159 418.93 423.343 418.871C423.532 418.806 423.689 418.705 423.814 418.569C423.938 418.433 424 418.258 424 418.045C424 417.766 423.888 417.55 423.663 417.396C423.437 417.242 423.147 417.165 422.792 417.165C422.436 417.165 422.146 417.242 421.921 417.396C421.695 417.55 421.583 417.766 421.583 418.045C421.583 418.258 421.645 418.433 421.769 418.569C421.894 418.705 422.048 418.806 422.232 418.871C422.421 418.93 422.608 418.96 422.792 418.96ZM422.792 421.911C423.23 421.911 423.58 421.81 423.84 421.609C424.101 421.401 424.232 421.126 424.232 420.782C424.232 420.527 424.166 420.311 424.036 420.133C423.906 419.95 423.731 419.81 423.512 419.716C423.298 419.621 423.058 419.573 422.792 419.573C422.531 419.573 422.291 419.621 422.072 419.716C421.852 419.81 421.678 419.95 421.547 420.133C421.417 420.311 421.352 420.527 421.352 420.782C421.352 421.126 421.482 421.401 421.743 421.609C422.003 421.81 422.353 421.911 422.792 421.911Z" fill="white"/>
<path opacity="0.5" d="M217.764 419.431C217.764 419.947 217.586 420.377 217.231 420.72C216.881 421.058 216.345 421.227 215.622 421.227H214.431V423.813H213.622V417.618H215.622C216.321 417.618 216.851 417.787 217.213 418.125C217.58 418.463 217.764 418.898 217.764 419.431ZM215.622 420.56C216.072 420.56 216.404 420.462 216.617 420.267C216.831 420.071 216.937 419.793 216.937 419.431C216.937 418.667 216.499 418.285 215.622 418.285H214.431V420.56H215.622ZM223.133 421.191C223.133 421.345 223.124 421.508 223.106 421.68H219.213C219.242 422.16 219.405 422.536 219.702 422.809C220.004 423.076 220.368 423.209 220.795 423.209C221.145 423.209 221.435 423.129 221.666 422.969C221.903 422.803 222.069 422.584 222.164 422.311H223.035C222.904 422.779 222.644 423.162 222.253 423.458C221.862 423.748 221.376 423.893 220.795 423.893C220.333 423.893 219.918 423.79 219.551 423.582C219.189 423.375 218.905 423.082 218.697 422.702C218.49 422.317 218.386 421.873 218.386 421.369C218.386 420.865 218.487 420.424 218.688 420.045C218.89 419.665 219.171 419.375 219.533 419.174C219.9 418.966 220.321 418.863 220.795 418.863C221.257 418.863 221.666 418.963 222.022 419.165C222.377 419.366 222.65 419.645 222.839 420C223.035 420.35 223.133 420.747 223.133 421.191ZM222.297 421.022C222.297 420.714 222.229 420.451 222.093 420.231C221.956 420.006 221.77 419.837 221.533 419.725C221.302 419.606 221.044 419.547 220.759 419.547C220.351 419.547 220.001 419.677 219.711 419.938C219.426 420.199 219.263 420.56 219.222 421.022H222.297ZM224.928 419.734C225.07 419.455 225.272 419.239 225.533 419.085C225.799 418.931 226.122 418.854 226.502 418.854V419.689H226.288C225.382 419.689 224.928 420.181 224.928 421.165V423.813H224.119V418.943H224.928V419.734ZM235.501 418.854C235.88 418.854 236.218 418.934 236.514 419.094C236.81 419.248 237.044 419.482 237.216 419.796C237.388 420.11 237.474 420.492 237.474 420.942V423.813H236.674V421.058C236.674 420.572 236.553 420.202 236.31 419.947C236.073 419.686 235.75 419.556 235.341 419.556C234.92 419.556 234.585 419.692 234.336 419.965C234.087 420.231 233.963 420.619 233.963 421.129V423.813H233.163V421.058C233.163 420.572 233.042 420.202 232.799 419.947C232.562 419.686 232.239 419.556 231.83 419.556C231.409 419.556 231.074 419.692 230.825 419.965C230.577 420.231 230.452 420.619 230.452 421.129V423.813H229.643V418.943H230.452V419.645C230.612 419.39 230.825 419.194 231.092 419.058C231.365 418.922 231.664 418.854 231.99 418.854C232.399 418.854 232.76 418.945 233.074 419.129C233.388 419.313 233.622 419.582 233.776 419.938C233.913 419.594 234.138 419.328 234.452 419.138C234.766 418.948 235.116 418.854 235.501 418.854ZM240.844 423.893C240.388 423.893 239.973 423.79 239.6 423.582C239.232 423.375 238.942 423.082 238.729 422.702C238.521 422.317 238.418 421.873 238.418 421.369C238.418 420.871 238.524 420.433 238.738 420.054C238.957 419.668 239.253 419.375 239.627 419.174C240 418.966 240.418 418.863 240.88 418.863C241.342 418.863 241.76 418.966 242.133 419.174C242.506 419.375 242.8 419.665 243.013 420.045C243.232 420.424 243.342 420.865 243.342 421.369C243.342 421.873 243.229 422.317 243.004 422.702C242.785 423.082 242.486 423.375 242.106 423.582C241.727 423.79 241.306 423.893 240.844 423.893ZM240.844 423.182C241.135 423.182 241.407 423.114 241.662 422.978C241.917 422.842 242.121 422.637 242.275 422.365C242.435 422.092 242.515 421.76 242.515 421.369C242.515 420.978 242.438 420.646 242.284 420.374C242.13 420.101 241.929 419.9 241.68 419.769C241.431 419.633 241.161 419.565 240.871 419.565C240.575 419.565 240.302 419.633 240.053 419.769C239.81 419.9 239.615 420.101 239.467 420.374C239.318 420.646 239.244 420.978 239.244 421.369C239.244 421.766 239.315 422.101 239.458 422.373C239.606 422.646 239.801 422.85 240.044 422.987C240.287 423.117 240.554 423.182 240.844 423.182ZM246.698 418.854C247.29 418.854 247.77 419.034 248.138 419.396C248.505 419.751 248.689 420.267 248.689 420.942V423.813H247.889V421.058C247.889 420.572 247.767 420.202 247.524 419.947C247.281 419.686 246.95 419.556 246.529 419.556C246.102 419.556 245.762 419.689 245.507 419.956C245.258 420.222 245.133 420.611 245.133 421.12V423.813H244.325V418.943H245.133V419.636C245.293 419.387 245.51 419.194 245.782 419.058C246.061 418.922 246.366 418.854 246.698 418.854ZM250.916 419.609V422.48C250.916 422.717 250.966 422.886 251.067 422.987C251.168 423.082 251.342 423.129 251.591 423.129H252.187V423.813H251.458C251.008 423.813 250.67 423.71 250.445 423.502C250.22 423.295 250.107 422.954 250.107 422.48V419.609H249.476V418.943H250.107V417.716H250.916V418.943H252.187V419.609H250.916ZM255.504 418.854C255.871 418.854 256.203 418.934 256.499 419.094C256.795 419.248 257.027 419.482 257.193 419.796C257.364 420.11 257.45 420.492 257.45 420.942V423.813H256.65V421.058C256.65 420.572 256.529 420.202 256.286 419.947C256.043 419.686 255.711 419.556 255.29 419.556C254.864 419.556 254.523 419.689 254.268 419.956C254.019 420.222 253.895 420.611 253.895 421.12V423.813H253.086V417.236H253.895V419.636C254.055 419.387 254.274 419.194 254.553 419.058C254.837 418.922 255.154 418.854 255.504 418.854Z" fill="white"/>
</g>
<defs>
<filter id="filter0_d_330_5" x="0.673901" y="0.229401" width="581.272" height="652.713" filterUnits="userSpaceOnUse" color-interpolation-filters="sRGB">
<feFlood flood-opacity="0" result="BackgroundImageFix"/>
<feColorMatrix in="SourceAlpha" type="matrix" values="0 0 0 0 0 0 0 0 0 0 0 0 0 0 0 0 0 0 127 0" result="hardAlpha"/>
<feOffset dx="-27.7762" dy="38.8867"/>
<feGaussianBlur stdDeviation="83.3287"/>
<feColorMatrix type="matrix" values="0 0 0 0 0.0223145 0 0 0 0 0.0232248 0 0 0 0 0.0627548 0 0 0 0.159528 0"/>
<feBlend mode="normal" in2="BackgroundImageFix" result="effect1_dropShadow_330_5"/>
<feBlend mode="normal" in="SourceGraphic" in2="effect1_dropShadow_330_5" result="shape"/>
</filter>
<clipPath id="clip0_330_5">
<rect width="144.316" height="153.995" fill="white" transform="translate(248.041 199.294)"/>
</clipPath>
<clipPath id="clip1_330_5">
<rect width="67.9791" height="38.784" fill="white" transform="translate(284.26 247.774)"/>
</clipPath>
<clipPath id="clip2_330_5">
<rect width="212.295" height="34.2212" fill="white" transform="translate(212.938 394.926)"/>
</clipPath>
</defs>
</svg>