<svg width="20" height="20" viewBox="0 0 20 20" fill="none" xmlns="http://www.w3.org/2000/svg">
<path d="M3 4.28619C3 3.31157 3.79009 2.52148 4.76471 2.52148H7.41176C8.38638 2.52148 9.17647 3.31157 9.17647 4.28619V6.93325C9.17647 7.90787 8.38638 8.69796 7.41176 8.69796H4.76471C3.79009 8.69796 3 7.90787 3 6.93325V4.28619Z" fill="#FFC728"/>
<path d="M3 12.2274C3 11.2527 3.79009 10.4627 4.76471 10.4627H7.41176C8.38638 10.4627 9.17647 11.2527 9.17647 12.2274V14.8744C9.17647 15.849 8.38638 16.6391 7.41176 16.6391H4.76471C3.79009 16.6391 3 15.849 3 14.8744V12.2274Z" fill="#FF4F50"/>
<path d="M10.9412 4.28619C10.9412 3.31157 11.7313 2.52148 12.7059 2.52148H15.3529C16.3276 2.52148 17.1176 3.31157 17.1176 4.28619V6.93325C17.1176 7.90787 16.3276 8.69796 15.3529 8.69796H12.7059C11.7313 8.69796 10.9412 7.90787 10.9412 6.93325V4.28619Z" fill="#00B2EA"/>
<path d="M10.9412 12.2274C10.9412 11.2527 11.7313 10.4627 12.7059 10.4627H16.2353C17.2099 10.4627 18 11.2527 18 12.2274V15.7568C18 16.7314 17.2099 17.5215 16.2353 17.5215H12.7059C11.7313 17.5215 10.9412 16.7314 10.9412 15.7568V12.2274Z" fill="#003049"/>
</svg>
