<svg width="53" height="83" viewBox="0 0 53 83" fill="none" xmlns="http://www.w3.org/2000/svg">
<path d="M21.2016 56.7524C20.5591 56.9596 20.0773 57.1667 19.5954 57.5809C18.9529 56.3382 18.4711 54.8883 17.8287 53.8526C16.7043 51.7813 15.4194 49.9172 14.2951 47.8459C12.5283 44.7389 11.0827 41.632 10.4403 37.6965C8.99471 27.9615 13.1707 18.4335 20.3985 14.7052C29.8749 9.73411 40.7968 18.0193 42.2424 31.0684C42.8849 37.0752 41.4393 42.0463 38.8694 46.8102C37.7451 48.8815 36.2996 50.9528 35.1753 53.2312C34.3722 54.6811 33.8903 56.131 33.0873 57.5809C32.766 58.2023 32.4448 58.8237 31.9629 59.0308C28.2687 60.895 24.5746 62.552 20.8804 64.2091C20.3985 64.4162 20.0773 64.2091 19.9167 63.7948C19.756 63.1734 19.7561 62.552 20.2379 62.3449C20.5591 62.1378 20.8803 61.9307 21.2016 61.9307C24.4139 60.4807 27.6262 59.0308 30.8386 57.3738C31.1598 57.1667 31.4811 56.7524 31.6417 56.3382C32.9266 53.2312 34.5328 50.7457 36.139 47.8459C37.7451 45.1532 39.1907 42.6676 39.8331 39.3536C41.4393 32.7254 40.315 26.9258 36.7814 21.9547C32.766 16.1551 27.6263 14.291 21.8441 16.5694C16.0619 18.8478 12.8495 24.026 11.7252 31.6898C10.9221 37.0752 12.3676 41.632 14.7769 45.7746C16.2224 48.2601 17.668 50.7457 19.1136 53.2312C20.0773 54.0597 20.5591 55.3025 21.2016 56.7524Z" fill="#FF4040"/>
<path d="M20.3983 77.2591C20.2377 77.052 19.9165 76.8449 19.9165 76.4306C19.9165 76.0163 20.0771 75.6021 20.2378 75.1878C20.2378 74.9807 20.559 74.9807 20.7196 74.9807C24.2532 73.3237 27.9474 71.6666 31.4809 70.0096C32.284 69.5953 32.6052 69.8025 32.7659 70.4238C32.9265 71.0452 32.6052 71.6666 31.9628 72.0809C28.2686 73.7379 24.735 75.3949 21.0408 77.2591C20.8802 77.052 20.7196 77.052 20.3983 77.2591Z" fill="#FF4040"/>
<path d="M20.3983 70.4235C20.2377 70.2164 19.9165 70.0093 19.9165 69.595C19.9165 69.1808 20.0771 68.7665 20.2378 68.3522C20.2378 68.1451 20.559 68.1451 20.7196 68.1451C24.2532 66.4881 27.9474 64.8311 31.4809 63.174C32.284 62.7598 32.6052 62.9669 32.7659 63.5883C32.9265 64.2097 32.7659 64.8311 31.9628 65.2453C28.2686 66.9023 24.735 68.7665 21.0408 70.4235C20.8802 70.4235 20.7196 70.4235 20.3983 70.4235Z" fill="#FF4040"/>
<path d="M31.9629 76.2231C30.8386 81.1942 24.5745 84.094 20.7197 81.4014C24.4139 79.7443 28.1081 77.8802 31.9629 76.2231Z" fill="#FF4040"/>
<path d="M27.1445 3.72808C27.1445 4.5566 27.1445 5.38511 27.1445 6.21363C27.1445 6.83502 26.8233 7.24928 26.3414 7.24928C25.8596 7.24928 25.5383 6.83502 25.5383 6.21363C25.5383 4.5566 25.5383 2.89956 25.5383 1.0354C25.5383 0.414014 25.8596 -0.000244141 26.3414 -0.000244141C26.8233 -0.000244141 27.1445 0.414014 27.1445 1.0354C27.1445 1.86392 27.1445 2.89956 27.1445 3.72808Z" fill="#FF4040"/>
<path d="M2.89109 32.726C3.53355 32.726 4.17604 32.726 4.81851 32.726C5.46098 32.726 5.78222 33.1402 5.78222 33.7616C5.78222 34.383 5.46098 34.7972 4.81851 34.7972C3.53357 34.7972 2.24865 34.7972 0.963712 34.7972C0.321244 34.7972 0 34.383 0 33.7616C0 33.1402 0.321244 32.726 0.963712 32.726C1.60618 32.726 2.24862 32.726 2.89109 32.726Z" fill="#FF4040"/>
<path d="M49.7913 35.0044C49.1488 35.0044 48.5063 35.0044 47.8639 35.0044C47.382 35.0044 47.0608 34.5901 47.0608 33.9688C47.0608 33.3474 47.382 32.9331 47.8639 32.9331C49.1488 32.9331 50.5944 32.9331 51.8793 32.9331C52.3612 32.9331 52.6824 33.3474 52.6824 33.9688C52.6824 34.5901 52.3612 35.0044 51.8793 35.0044C51.0762 35.0044 50.4338 35.0044 49.7913 35.0044Z" fill="#FF4040"/>
<path d="M8.03099 9.11304C8.35222 9.32017 8.51283 9.52729 8.67345 9.73442C9.63715 10.9772 10.4403 12.0128 11.404 13.2556C11.8858 13.877 11.8858 14.2913 11.404 14.9127C11.0827 15.3269 10.6008 15.3269 10.119 14.9127C9.15529 13.6699 8.19162 12.6342 7.38853 11.3915C7.22791 11.1843 7.06729 10.5629 7.2279 10.1487C7.38852 9.5273 7.87037 9.32017 8.03099 9.11304Z" fill="#FF4040"/>
<path d="M41.5999 52.4032C41.9211 52.6103 42.0817 52.8175 42.2423 53.0246C43.206 54.0602 44.0091 55.303 44.9728 56.3387C45.4547 56.96 45.4547 57.5814 45.1334 57.9957C44.8122 58.4099 44.3303 58.4099 43.8485 57.7886C42.8848 56.5458 42.0817 55.5101 41.118 54.2674C40.9574 54.0602 40.7968 53.4388 40.9574 53.0246C40.9574 52.8175 41.2786 52.6103 41.5999 52.4032Z" fill="#FF4040"/>
<path d="M45.4547 10.3559C45.2941 10.7702 45.1335 10.9773 44.9729 11.1845C44.0092 12.4272 43.2061 13.4629 42.2424 14.7056C41.9212 15.1199 41.4393 15.327 40.9575 14.7056C40.6362 14.2914 40.6362 13.67 40.9575 13.0486C41.9212 11.8058 42.7242 10.5631 43.6879 9.52742C43.8486 9.32029 44.3304 9.11316 44.6516 9.32029C44.9729 9.52742 45.1335 10.1488 45.4547 10.3559Z" fill="#FF4040"/>
<path d="M8.03098 58.4102C7.87036 58.2031 7.54914 57.996 7.38852 57.5817C7.22791 57.3746 7.38852 56.7532 7.38852 56.5461C8.35223 55.3033 9.31592 53.8534 10.4402 52.6106C10.7615 52.1964 11.2433 52.1964 11.5645 52.6106C11.8858 53.0249 11.8858 53.6463 11.5645 54.0605C10.6008 55.3033 9.63714 56.5461 8.67344 57.7888C8.51282 58.2031 8.35222 58.4102 8.03098 58.4102Z" fill="#FF4040"/>
</svg>
