<?xml version="1.0" encoding="utf-8"?>
<!-- Generator: Adobe Illustrator 25.0.0, SVG Export Plug-In . SVG Version: 6.00 Build 0)  -->
<svg version="1.1" id="Layer_1" xmlns="http://www.w3.org/2000/svg" xmlns:xlink="http://www.w3.org/1999/xlink" x="0px" y="0px"
	 viewBox="0 0 1080 1080" style="enable-background:new 0 0 1080 1080;" xml:space="preserve">
<style type="text/css">
	.st0{fill:#151B28;}
	.st1{fill:#F05555;}
	.st2{fill:#4F4F4F;}
	.st3{font-family:'Poppins-Medium';}
	.st4{font-size:49.0758px;}
	.st5{font-family:'Poppins';}
	.st6{font-size:49.1126px;}
</style>
<g>
	<g>
		<path class="st0" d="M399.8,404.4c0,64-0.1,110.5,0,122c0,0.6,0.1,8.3-2.2,16.9c-1.5,5.6-3.9,10.6-7.3,15
			c-3.4,4.4-7.9,8-13.5,10.7c-5.6,2.8-12.5,4.1-20.8,4.1c-8.3,0-15.2-1.4-20.8-4.1c-5.6-2.8-10.1-6.3-13.5-10.7
			c-3.4-4.4-5.8-9.4-7.3-15c-1.5-5.6-2.2-11.2-2.2-16.9V404.5h-34.7v123.3c0,11.7,2,22.3,5.9,31.8c3.9,9.5,9.5,17.5,16.5,24.1
			c7.1,6.6,15.4,11.7,24.9,15.3c9.5,3.6,19.9,5.4,31.1,5.4c11.2,0,21.6-1.8,31.1-5.4c9.5-3.6,17.8-8.7,24.8-15.3
			c7-6.6,12.5-14.6,16.5-24.1c5.8-13.6,6-25.6,6.1-31.8c0.3-26.4,0.6-69.2,0.1-123.4C428.4,404.4,405.2,404.4,399.8,404.4z"/>
	</g>
	<g>
		<path class="st0" d="M226.1,404.4c-49.1,0-98.2,0.1-147.3,0.1v30.3c30.3,0,60.6,0,90.9,0c-30.5,54.8-60.9,109.7-91.4,164.5
			c49.2,0,98.5,0,147.7,0.1c0-10.3,0-20.6,0-30.8c-31-0.1-62.1-0.2-93.1-0.3C164.1,513.6,195.1,459,226.1,404.4z"/>
	</g>
	<g>
		<g>
			<g>
				<path class="st1" d="M866.4,472.3c-11.7,0-21.2,9.5-21.2,21.2c0,11.7,9.5,21.2,21.2,21.2c11.7,0,21.2-9.5,21.2-21.2
					C887.6,481.8,878.1,472.3,866.4,472.3z"/>
				<path class="st0" d="M866.4,385.8c-59.5,0-107.7,48.2-107.7,107.7c0,59.5,48.2,107.7,107.7,107.7c59.5,0,107.7-48.2,107.7-107.7
					C974.1,434,925.9,385.8,866.4,385.8z M866.4,564.1c-39,0-70.6-31.6-70.6-70.6c0-39,31.6-70.6,70.6-70.6s70.6,31.6,70.6,70.6
					C937,532.5,905.4,564.1,866.4,564.1z"/>
			</g>
			<g>
				<path class="st1" d="M593.2,472.3c-11.7,0-21.2,9.5-21.2,21.2c0,11.7,9.5,21.2,21.2,21.2c11.7,0,21.2-9.5,21.2-21.2
					C614.4,481.8,604.9,472.3,593.2,472.3z"/>
				<path class="st0" d="M700.9,493.5c0-59.5-48.2-107.7-107.7-107.7c-59.5,0-107.7,48.2-107.7,107.7c0,59.5,48.2,107.7,107.7,107.7
					c11.5,0,22.6-1.9,33-5.2c37.7,0,74.6,0,74.6,0v-29.5c0,0-12.1,0-28.6,0C690,547.2,700.9,521.7,700.9,493.5z M593.2,564.1
					c-39,0-70.6-31.6-70.6-70.6c0-39,31.6-70.6,70.6-70.6s70.6,31.6,70.6,70.6C663.8,532.5,632.2,564.1,593.2,564.1z"/>
			</g>
		</g>
		<path class="st0" d="M664.4,439.9c7.7,5.9,15.4,11.8,23.1,17.7c7.1-2.2,23-6.3,44-5.6c18.1,0.6,31.6,4.6,38.4,7
			c7.7-6.2,15.3-12.5,23-18.7c-8.8-3.5-32.3-11.8-65.2-11.8C696,428.7,673.3,436.4,664.4,439.9z"/>
	</g>
	<text transform="matrix(0.9917 0 0 1 77.1494 663.6602)"><tspan x="0" y="0" class="st2 st3 st4">INNOVATIVE</tspan><tspan x="290.9" y="0" class="st2 st5 st4"> </tspan><tspan x="300.7" y="0" class="st2 st5 st6">     </tspan><tspan x="349.8" y="0" class="st2 st5 st4"> </tspan><tspan x="359.6" y="0" class="st2 st3 st4">AGILE</tspan><tspan x="492.2" y="0" class="st2 st5 st4"> </tspan><tspan x="502" y="0" class="st2 st5 st6">     </tspan><tspan x="551.1" y="0" class="st2 st5 st4"> </tspan><tspan x="561" y="0" class="st2 st3 st4">FUTURE READY</tspan></text>
	<path class="st1" d="M400.2,639.7c-4.2,0-7.6,3.4-7.6,7.6c0,4.2,3.4,7.6,7.6,7.6c4.2,0,7.6-3.4,7.6-7.6
		C407.8,643.1,404.4,639.7,400.2,639.7z"/>
	<path class="st1" d="M600.1,638.7c-4.2,0-7.6,3.4-7.6,7.6c0,4.2,3.4,7.6,7.6,7.6c4.2,0,7.6-3.4,7.6-7.6
		C607.7,642.1,604.3,638.7,600.1,638.7z"/>
</g>
</svg>
