<svg xmlns="http://www.w3.org/2000/svg" xmlns:xlink="http://www.w3.org/1999/xlink" version="1.1" id="Layer_1" x="0px" y="0px" style="enable-background:new 0 0 1080 700;" xml:space="preserve" viewBox="77.15 383.7 925.42 292.51">
<style type="text/css">
	.st0{fill:#FFFFFF;}
	.st1{fill:#E04C4C;}
	.st2{font-family:'Poppins-Medium';}
	.st3{font-size:49.0758px;}
	.st4{font-family:'Poppins';}
	.st5{font-size:49.1126px;}
</style>
<g>
	<g>
		<path class="st0" d="M401.9,402.3c0,64-0.1,110.5,0,122c0,0.6,0.1,8.3-2.2,16.9c-1.5,5.6-3.9,10.6-7.3,15    c-3.4,4.4-7.9,8-13.5,10.7c-5.6,2.8-12.5,4.1-20.8,4.1c-8.3,0-15.2-1.4-20.8-4.1c-5.6-2.8-10.1-6.3-13.5-10.7    c-3.4-4.4-5.8-9.4-7.3-15c-1.5-5.6-2.2-11.2-2.2-16.9V402.4h-34.7v123.3c0,11.7,2,22.3,5.9,31.8c3.9,9.5,9.4,17.5,16.5,24.1    c7.1,6.6,15.4,11.7,24.9,15.3c9.5,3.6,19.9,5.4,31.1,5.4c11.2,0,21.6-1.8,31.1-5.4c9.5-3.6,17.8-8.7,24.8-15.3    c7-6.6,12.5-14.6,16.5-24.1c5.8-13.6,6-25.6,6.1-31.8c0.3-26.4,0.6-69.2,0.1-123.4C430.4,402.3,407.2,402.3,401.9,402.3z"/>
	</g>
	<g>
		<path class="st0" d="M228.2,402.3c-49.1,0-98.2,0.1-147.3,0.1v30.3c30.3,0,60.6,0,90.9,0c-30.5,54.8-60.9,109.7-91.4,164.5    c49.2,0,98.5,0,147.7,0.1c0-10.3,0-20.6,0-30.8c-31-0.1-62.1-0.2-93.1-0.3C166.1,511.5,197.1,456.9,228.2,402.3z"/>
	</g>
	<g>
		<g>
			<g>
				<path class="st1" d="M868.5,470.2c-11.7,0-21.2,9.5-21.2,21.2c0,11.7,9.5,21.2,21.2,21.2c11.7,0,21.2-9.5,21.2-21.2      C889.6,479.7,880.2,470.2,868.5,470.2z"/>
				<path class="st0" d="M868.5,383.7c-59.5,0-107.7,48.2-107.7,107.7c0,59.5,48.2,107.7,107.7,107.7c59.5,0,107.7-48.2,107.7-107.7      C976.1,431.9,927.9,383.7,868.5,383.7z M868.5,562c-39,0-70.6-31.6-70.6-70.6s31.6-70.6,70.6-70.6s70.6,31.6,70.6,70.6      S907.5,562,868.5,562z"/>
			</g>
			<g>
				<path class="st1" d="M595.3,470.2c-11.7,0-21.2,9.5-21.2,21.2c0,11.7,9.5,21.2,21.2,21.2c11.7,0,21.2-9.5,21.2-21.2      C616.4,479.7,607,470.2,595.3,470.2z"/>
				<path class="st0" d="M702.9,491.4c0-59.5-48.2-107.7-107.7-107.7c-59.5,0-107.7,48.2-107.7,107.7c0,59.5,48.2,107.7,107.7,107.7      c11.5,0,22.6-1.9,33-5.2c37.7,0,74.6,0,74.6,0v-29.5c0,0-12.1,0-28.6,0C692,545.1,702.9,519.6,702.9,491.4z M595.3,562      c-39,0-70.6-31.6-70.6-70.6s31.6-70.6,70.6-70.6s70.6,31.6,70.6,70.6S634.3,562,595.3,562z"/>
			</g>
		</g>
		<path class="st0" d="M666.4,437.8c7.7,5.9,15.4,11.8,23.1,17.7c7.1-2.2,23-6.3,44-5.6c18.1,0.6,31.6,4.6,38.4,7    c7.7-6.2,15.3-12.5,23-18.7c-8.8-3.5-32.3-11.8-65.2-11.8C698.1,426.5,675.3,434.3,666.4,437.8z"/>
	</g>
	<text transform="matrix(0.9917 0 0 1 77.1495 665.769)"><tspan x="0" y="0" class="st0 st2 st3">INNOVATIVE</tspan><tspan x="290.9" y="0" class="st0 st4 st3"> </tspan><tspan x="300.7" y="0" class="st0 st4 st5">     </tspan><tspan x="349.8" y="0" class="st0 st4 st3"> </tspan><tspan x="359.6" y="0" class="st0 st2 st3">AGILE</tspan><tspan x="492.2" y="0" class="st0 st4 st3"> </tspan><tspan x="502" y="0" class="st0 st4 st5">     </tspan><tspan x="551.1" y="0" class="st0 st4 st3"> </tspan><tspan x="561" y="0" class="st0 st2 st3">FUTURE READY</tspan></text>
	<path class="st1" d="M400.2,641.8c-4.2,0-7.6,3.4-7.6,7.6c0,4.2,3.4,7.6,7.6,7.6c4.2,0,7.6-3.4,7.6-7.6   C407.8,645.2,404.4,641.8,400.2,641.8z"/>
	<path class="st1" d="M600.1,640.8c-4.2,0-7.6,3.4-7.6,7.6c0,4.2,3.4,7.6,7.6,7.6c4.2,0,7.6-3.4,7.6-7.6   C607.7,644.2,604.3,640.8,600.1,640.8z"/>
</g>
</svg>