<svg width="65" height="83" viewBox="0 0 65 83" fill="none" xmlns="http://www.w3.org/2000/svg">
<path d="M62.3138 2.35968C61.3501 2.35968 60.2258 2.35968 59.2621 2.35968C52.6768 2.77394 46.4127 4.6381 40.4699 8.36642C33.2421 12.7161 27.1387 18.93 22.3202 27.2152C18.9472 32.8077 16.538 39.0215 14.7712 45.6497C14.6106 46.0639 14.7712 46.271 14.9318 46.4782C16.3773 48.3423 17.8229 50.2065 19.2684 52.0707C19.4291 52.2778 19.5897 52.692 19.5897 53.1063C19.5897 53.5206 19.4291 53.9348 19.1078 54.142C18.7866 54.3491 18.3047 54.3491 18.1441 53.9348C17.341 52.8992 16.6986 52.0707 15.8955 51.035C14.9318 49.7922 14.1287 48.5495 13.165 47.5138C12.8438 47.0996 12.6832 46.4782 12.8438 45.8568C14.9318 37.7788 17.9835 30.3221 22.3202 23.694C26.6568 16.8587 31.9572 11.4734 37.9 7.53791C43.361 3.80958 49.3038 1.53116 55.4073 0.495516C57.9771 0.0812577 60.547 -0.125871 63.1169 0.0812578C63.92 0.0812578 64.0806 0.495516 64.2412 1.53116C64.5624 14.9946 61.9926 27.4223 56.371 39.0215C50.7494 50.4136 43.0398 58.9059 33.4027 64.2913C31.9572 65.1198 30.351 65.7412 28.7448 66.5697C28.263 66.7768 27.9418 66.7768 27.6205 66.1554C26.0144 64.0842 24.2476 61.8057 22.6414 59.7344C22.3202 59.3202 22.1596 58.6988 22.4808 58.0774C22.802 57.456 23.4445 57.456 23.9263 58.0774C25.3719 59.9416 26.8174 61.8057 28.263 63.6699C28.5842 64.0842 28.7448 64.0842 29.0661 63.877C36.1332 60.7701 42.3973 55.799 47.6976 49.1709C53.9617 41.2999 58.1377 31.9791 60.547 21.4156C61.8319 15.6159 62.4744 9.6092 62.4744 3.39532C62.4744 2.98107 62.3138 2.77394 62.3138 2.35968Z" fill="#FF4040"/>
<path d="M53.4798 26.5939C53.4798 33.6362 49.1431 39.2287 43.6822 39.2287C38.2212 39.2287 33.8845 33.6362 33.8845 26.5939C33.8845 19.7586 38.2212 13.959 43.5215 13.959C49.1431 13.959 53.4798 19.5515 53.4798 26.5939ZM51.5524 26.801C51.5524 21.0014 48.0188 16.4445 43.5215 16.4445C39.0243 16.4445 35.4907 21.0014 35.4907 26.801C35.4907 32.6006 39.0243 37.1574 43.5215 37.1574C48.0188 36.9503 51.5524 32.3935 51.5524 26.801Z" fill="#FF4040"/>
<path d="M28.9057 79.6191C30.03 78.7906 31.1543 77.755 32.118 76.7193C35.3303 72.991 37.0971 68.4342 37.9002 63.0488C38.0608 62.2203 38.3821 61.806 38.8639 61.806C39.5064 61.806 39.8276 62.4274 39.8276 63.2559C39.667 64.2916 39.5064 65.5344 39.1852 66.57C37.4184 73.6124 34.206 78.7906 29.2269 82.3118C28.1026 83.1403 27.6207 82.7261 27.4601 81.2762C26.8176 76.9265 26.1752 72.3696 25.5327 68.0199C25.5327 67.6056 25.5327 67.1914 25.5327 66.9843C25.6933 66.57 26.0146 66.3629 26.4964 66.3629C26.8176 66.3629 27.1389 66.7771 27.2995 67.1914C27.4601 68.4342 27.6207 69.6769 27.942 71.1268C28.1026 74.0266 28.5844 76.7193 28.9057 79.6191Z" fill="#FF4040"/>
<path d="M2.40375 45.4425C3.36745 45.6496 4.33116 45.8567 5.13424 46.0639C7.38288 46.6852 9.63151 47.0995 11.7195 47.7209C11.8802 47.7209 11.8802 47.7209 12.0408 47.7209C12.5226 47.928 12.8439 48.5494 12.6832 49.1708C12.5226 49.7922 12.2014 50.2064 11.5589 49.9993C10.274 49.5851 8.82843 49.3779 7.54349 48.9637C5.45547 48.3423 3.36745 47.928 1.11882 47.3066C0.9582 47.3066 0.9582 47.3066 0.797583 47.3066C-0.00550185 47.0995 -0.166119 46.4781 0.155115 45.4425C1.11882 43.1641 2.24314 40.8856 3.68869 39.0215C6.74041 34.8789 10.4346 32.6005 14.6106 31.3577C14.7713 31.3577 14.9319 31.3577 14.9319 31.1506C15.4137 30.9434 15.8956 31.3577 16.0562 31.9791C16.2168 32.6005 15.8956 33.2219 15.2531 33.429C14.2894 33.8432 13.1651 34.0504 12.2014 34.4646C8.02535 36.3288 4.81301 39.6429 2.40375 44.4068C2.56437 45.0282 2.56437 45.2353 2.40375 45.4425Z" fill="#FF4040"/>
<path d="M13.8076 63.877C13.9682 63.6698 14.1289 63.2556 14.2895 63.0484C17.3412 59.113 20.2323 55.3847 23.284 51.4492C24.4083 49.9993 25.372 48.7565 26.4964 47.3066C26.9782 46.6852 27.4601 46.6852 27.9419 47.0995C28.2631 47.5138 28.2631 48.3423 27.7813 48.9637C24.2477 53.5205 20.7141 58.2845 17.02 62.8413C16.5381 63.4627 16.0563 64.2912 15.4138 64.9126C15.0926 65.3269 14.7713 65.3269 14.4501 65.1197C13.9682 64.9126 13.8076 64.4983 13.8076 63.877Z" fill="#FF4040"/>
<path d="M9.63155 69.2623C9.95278 69.4695 10.274 69.6766 10.4346 70.0908C10.5953 70.5051 10.4346 70.9194 10.274 71.3336C10.1134 71.5407 9.79217 71.955 9.63155 72.3693C7.70415 74.8548 5.77674 77.5475 3.68872 80.033C3.36749 80.2402 3.20687 80.4473 2.88564 80.4473C2.5644 80.4473 2.24317 80.2402 2.08255 79.8259C1.92194 79.2045 1.92194 78.7903 2.24317 78.376C3.52811 76.719 4.81304 75.0619 6.09798 73.4049C7.06168 72.1621 7.86476 71.1265 8.82846 69.8837C9.1497 69.6766 9.31032 69.4695 9.63155 69.2623Z" fill="#FF4040"/>
<path d="M8.186 60.7698C8.98909 60.7698 9.47094 61.8054 9.1497 62.4268C8.98909 62.6339 8.98909 62.8411 8.82847 63.0482C6.74045 65.7409 4.65243 68.4335 2.56441 71.1262L2.40379 71.3334C1.92194 71.7476 1.44009 71.9547 1.11886 71.3334C0.797621 70.9191 0.797621 70.0906 1.11886 69.6763C2.72502 67.605 4.33119 65.5337 5.93736 63.4625C6.57983 62.6339 7.06168 62.0125 7.70415 61.3912C7.86477 60.9769 8.186 60.7698 8.186 60.7698Z" fill="#FF4040"/>
<path d="M17.1805 72.3691C17.1805 72.5762 17.0198 72.7833 16.8592 73.1976C14.6106 76.0974 12.5226 78.7901 10.2739 81.6899C9.79207 82.3113 9.31022 82.3113 8.82837 81.6899C8.50714 81.2756 8.50714 80.4471 8.98899 80.0329C11.2376 77.1331 13.3256 74.4404 15.5743 71.5406C15.8955 71.1263 16.2168 70.9192 16.6986 71.1263C17.0198 71.3334 17.1805 71.5406 17.1805 72.3691Z" fill="#FF4040"/>
</svg>
