<svg width="40" height="39" viewBox="0 0 40 39" fill="none" xmlns="http://www.w3.org/2000/svg">
<path d="M32.3742 4C32.4984 2.7508 32.4984 1.6258 32.4984 0.25H7.49998C7.49998 1.6258 7.49998 2.7508 7.6242 4H0V5.2492C0 16.375 14.1258 24.25 17.5008 25.9984L17.4985 30.2499C17.4985 32.3757 15.8743 33.9999 13.7485 33.9999H11.2477V38.9991H28.7485V33.9999H26.2477C24.1219 33.9999 22.4977 32.3757 22.4977 30.2499V26.0007C25.8727 24.2499 39.9985 16.3749 39.9985 5.25154V4.00234L32.3742 4ZM2.62496 6.5008H7.87496C8.37418 12.1258 9.74996 16.1266 11.25 19C7.24916 15.8758 3.12416 11.5 2.62496 6.5008ZM28.875 19C30.375 16.1242 31.7508 12.1258 32.25 6.5008H37.5C36.8742 11.5 32.7492 15.8758 28.875 19Z" fill="#F57059"/>
</svg>
