<svg width="184" height="71" viewBox="0 0 184 71" fill="none" xmlns="http://www.w3.org/2000/svg">
<g clip-path="url(#clip0_1203_342)">
<rect y="0.214355" width="184" height="86" rx="12" fill="#F1F4F8"/>
<path d="M81.628 38.9088C81.6219 38.8939 81.6241 38.8852 81.6263 38.8798C81.6294 38.8726 81.6363 38.864 81.648 38.857C81.6596 38.85 81.6715 38.8471 81.6807 38.8468C81.6878 38.8465 81.6985 38.8476 81.714 38.8567L84.0032 40.2115C84.2204 40.3401 84.5134 40.3387 84.7289 40.208L86.9992 38.8317C87.0146 38.8225 87.0251 38.8214 87.0322 38.8216C87.0414 38.8217 87.0534 38.8245 87.0652 38.8315C87.0768 38.8384 87.0839 38.8469 87.0871 38.854C87.0895 38.8595 87.0917 38.8681 87.0858 38.8831L86.2305 41.0967C86.1492 41.3067 86.2414 41.536 86.4586 41.6646L86.6223 41.4766L86.4586 41.6646L88.7478 43.0194C88.7633 43.0285 88.7679 43.0365 88.7699 43.0421C88.7725 43.0494 88.773 43.0596 88.7686 43.071C88.7642 43.0823 88.7566 43.0905 88.7494 43.0952C88.7438 43.0988 88.7346 43.1031 88.7155 43.1032L85.8975 43.1165C85.6301 43.1177 85.3941 43.2609 85.3128 43.4709L84.4575 45.6845C84.4516 45.6995 84.4438 45.7056 84.4381 45.7088C84.4304 45.7131 84.4187 45.7167 84.4043 45.7167C84.3898 45.7168 84.3781 45.7133 84.3705 45.7092C84.3647 45.7059 84.3567 45.6999 84.3507 45.685L83.4645 43.4796C83.3804 43.2703 83.1425 43.1295 82.875 43.1308L80.0571 43.1441C80.038 43.1442 80.0286 43.1399 80.0231 43.1363C80.0157 43.1317 80.0081 43.1237 80.0035 43.1124C79.999 43.1011 79.9993 43.0908 80.0018 43.0835C80.0038 43.0779 80.0082 43.0698 80.0236 43.0606L82.2938 41.6843C82.5093 41.5536 82.5982 41.3235 82.5141 41.1142L81.628 38.9088Z" stroke="#111B29" stroke-width="1.2"/>
<path d="M118.628 10.9801C118.622 10.9652 118.624 10.9565 118.626 10.951C118.629 10.9439 118.636 10.9353 118.648 10.9283C118.66 10.9212 118.672 10.9184 118.681 10.9181C118.688 10.9178 118.698 10.9188 118.714 10.928L121.003 12.2827C121.22 12.4114 121.513 12.41 121.729 12.2793L123.999 10.903C124.015 10.8938 124.025 10.8927 124.032 10.8928C124.041 10.893 124.053 10.8958 124.065 10.9027C124.077 10.9097 124.084 10.9182 124.087 10.9253C124.09 10.9308 124.092 10.9394 124.086 10.9544L123.23 13.168C123.149 13.378 123.241 13.6073 123.459 13.7358L123.622 13.5479L123.459 13.7358L125.748 15.0907C125.763 15.0998 125.768 15.1078 125.77 15.1133C125.773 15.1207 125.773 15.1309 125.769 15.1423C125.764 15.1536 125.757 15.1617 125.749 15.1665C125.744 15.1701 125.735 15.1744 125.715 15.1745L122.897 15.1878C122.63 15.189 122.394 15.3322 122.313 15.5422L121.457 17.7558C121.452 17.7708 121.444 17.7768 121.438 17.7801C121.43 17.7844 121.419 17.7879 121.404 17.788C121.39 17.7881 121.378 17.7846 121.37 17.7805C121.365 17.7772 121.357 17.7712 121.351 17.7563L120.465 15.5509C120.38 15.3416 120.143 15.2008 119.875 15.2021L117.057 15.2154C117.038 15.2155 117.029 15.2112 117.023 15.2076C117.016 15.203 117.008 15.195 117.003 15.1837C116.999 15.1724 116.999 15.1621 117.002 15.1548C117.004 15.1492 117.008 15.1411 117.024 15.1319L119.294 13.7556C119.509 13.6249 119.598 13.3948 119.514 13.1855L118.628 10.9801Z" stroke="#111B29" stroke-width="1.2"/>
<rect x="81.6" y="16.5792" width="26.8" height="16.4652" rx="0.601717" stroke="#111B29" stroke-width="1.2"/>
<path d="M102.391 30.2798L106.717 30.2798M103.899 31.4815L106.717 31.4815" stroke="#111B29" stroke-width="1.2" stroke-linecap="round"/>
<path d="M84.3206 26.4769C83.9906 26.507 83.7474 26.7989 83.7775 27.1289C83.8075 27.4589 84.0994 27.702 84.4294 27.672L84.3206 26.4769ZM101.916 22.1414C101.978 22.4668 102.293 22.6799 102.618 22.6173C102.944 22.5548 103.157 22.2403 103.094 21.9149L101.916 22.1414ZM100.907 19.3188L100.739 19.8947L100.907 19.3188ZM100.925 19.1034L100.975 19.7013L100.925 19.1034ZM101.989 19.8656L102.231 20.4143L101.989 19.8656ZM101.978 19.6318L101.81 20.2077L101.978 19.6318ZM98.7572 28.0714L99.0706 27.5597L98.7572 28.0714ZM98.951 27.9027L98.4047 28.1508L98.951 27.9027ZM89.1087 30.4871L88.5758 30.7628L89.1087 30.4871ZM89.3274 30.4888L89.8616 30.762L89.3274 30.4888ZM84.4294 27.672C85.1307 27.6081 87.1649 28.0355 88.5758 30.7628L89.6416 30.2114C88.0213 27.0794 85.5393 26.3659 84.3206 26.4769L84.4294 27.672ZM89.8616 30.762C90.6487 29.2233 91.4339 27.897 92.6433 27.3139C93.7881 26.762 95.5259 26.7962 98.4439 28.5831L99.0706 27.5597C96.0149 25.6885 93.8118 25.4183 92.1221 26.233C90.4969 27.0166 89.5541 28.7281 88.7933 30.2156L89.8616 30.762ZM99.4973 27.6546C99.0526 26.6755 98.7327 25.2949 99.0176 23.9596C99.2944 22.6623 100.157 21.3316 102.231 20.4143L101.746 19.3168C99.3427 20.3794 98.2064 22.0111 97.844 23.7092C97.4898 25.3694 97.89 27.0175 98.4047 28.1508L99.4973 27.6546ZM102.146 19.0559L101.075 18.7429L100.739 19.8947L101.81 20.2077L102.146 19.0559ZM100.975 19.7013C101.562 19.6525 102.209 19.6533 102.616 19.733C102.713 19.7521 102.779 19.7725 102.818 19.789C102.864 19.8079 102.841 19.8077 102.802 19.7636C102.748 19.7015 102.704 19.5969 102.718 19.482C102.729 19.3938 102.766 19.3664 102.732 19.4067L103.659 20.1694C103.77 20.0339 103.883 19.8501 103.91 19.6232C103.94 19.3695 103.853 19.1439 103.708 18.9768C103.579 18.8276 103.416 18.7383 103.283 18.6825C103.144 18.6242 102.993 18.5842 102.847 18.5554C102.276 18.4435 101.498 18.4537 100.875 18.5055L100.975 19.7013ZM102.732 19.4067C102.369 19.8483 102.097 20.2609 101.956 20.7164C101.81 21.1853 101.82 21.6418 101.916 22.1414L103.094 21.9149C103.022 21.5406 103.033 21.2956 103.102 21.0722C103.175 20.8354 103.333 20.5648 103.659 20.1694L102.732 19.4067ZM101.075 18.7429C101.298 18.8078 101.438 19.0259 101.42 19.2504C101.401 19.481 101.217 19.6812 100.975 19.7013L100.875 18.5055C100.505 18.5363 100.25 18.8261 100.224 19.1527C100.197 19.4732 100.393 19.7936 100.739 19.8947L101.075 18.7429ZM102.231 20.4143C102.537 20.279 102.674 19.9812 102.663 19.7187C102.652 19.452 102.484 19.1546 102.146 19.0559L101.81 20.2077C101.582 20.1411 101.471 19.9375 101.464 19.7681C101.457 19.6028 101.544 19.4059 101.746 19.3168L102.231 20.4143ZM98.4439 28.5831C98.7686 28.7819 99.114 28.6744 99.3067 28.507C99.5001 28.3391 99.6574 28.0071 99.4973 27.6546L98.4047 28.1508C98.2961 27.9118 98.4096 27.6967 98.5199 27.601C98.6293 27.5059 98.8521 27.4259 99.0706 27.5597L98.4439 28.5831ZM88.5758 30.7628C88.8354 31.2646 89.584 31.3048 89.8616 30.762L88.7933 30.2156C88.9804 29.8496 89.4733 29.886 89.6416 30.2114L88.5758 30.7628Z" fill="#111B29"/>
<path d="M85.5279 15.1989C85.3547 15.2294 85.1895 15.2741 85.0333 15.3301L85.1172 15.6513C84.9089 15.7336 84.7221 15.8396 84.5592 15.9669L84.2234 15.7885C84.1018 15.8906 83.9959 16.0039 83.9018 16.1234C83.8078 16.2429 83.7253 16.3687 83.6618 16.5017L83.9976 16.6801C83.9231 16.8543 83.8821 17.0378 83.8762 17.2275L83.4851 17.2964C83.487 17.4364 83.5051 17.5785 83.5422 17.7207C83.5794 17.8629 83.6338 17.9986 83.702 18.127L84.093 18.0581C84.1932 18.2291 84.3222 18.3826 84.4772 18.5164L84.26 18.7923C84.3843 18.8921 84.5223 18.9791 84.6677 19.0564C84.8132 19.1337 84.9664 19.2014 85.1282 19.2535L85.3454 18.9777C85.5576 19.0389 85.7809 19.0726 86.0118 19.0775L86.0957 19.3987C86.2662 19.3972 86.4392 19.3823 86.6123 19.3518C86.7854 19.3213 86.9506 19.2766 87.1069 19.2205L87.023 18.8993C87.2312 18.8171 87.418 18.7111 87.581 18.5838L87.9168 18.7622C88.0384 18.6601 88.1442 18.5468 88.2383 18.4273C88.3324 18.3078 88.4148 18.182 88.4783 18.049L88.1425 17.8706C88.217 17.6963 88.2581 17.5129 88.264 17.3232L88.655 17.2543C88.6532 17.1142 88.6351 16.9721 88.5979 16.8299C88.5608 16.6877 88.5064 16.552 88.4381 16.4237L88.0471 16.4926C87.947 16.3215 87.818 16.1681 87.663 16.0342L87.8802 15.7584C87.7559 15.6585 87.6179 15.5716 87.4724 15.4943C87.327 15.417 87.1738 15.3493 87.0119 15.2971L86.7948 15.573C86.5826 15.5118 86.3593 15.478 86.1283 15.4732L86.0444 15.152C85.874 15.1535 85.701 15.1684 85.5279 15.1989V15.1989ZM85.799 16.2371C86.4967 16.1142 87.1844 16.4795 87.334 17.0526C87.4837 17.6257 87.0389 18.1906 86.3412 18.3136C85.6435 18.4365 84.9558 18.0711 84.8062 17.498C84.6565 16.9249 85.1013 16.36 85.799 16.2371Z" fill="#111B29"/>
<path d="M29.9856 43.7351C29.6659 44.6856 29.4275 47.7742 30.6832 50.3086" stroke="#111B29" stroke-width="1.2" stroke-linecap="round"/>
<path d="M28.9688 50.9299C31.9485 50.0528 37.6229 48.9795 37.6229 52.0136V52.5401C37.6229 52.8956 38.1173 53.097 38.4593 52.8793C43.2429 49.8348 52.9762 43.7353 56.4059 39.1182" stroke="#111B29" stroke-width="1.2" stroke-linecap="round"/>
<path d="M42.1733 27.458C45.1006 29.3512 49.644 33.4374 45.2279 35.0997C44.969 35.197 44.8261 35.4327 44.9 35.6575C45.7689 38.3003 45.6315 43.7576 38.8913 47.4533C38.7909 47.5082 38.7137 47.5899 38.6771 47.6838L37.3516 51.0912" stroke="#111B29" stroke-width="1.2" stroke-linecap="round"/>
<path d="M39.2769 41.3877C39.1729 41.7633 39.4431 42.5396 41.3538 42.6398" stroke="#111B29" stroke-width="1.2" stroke-linecap="round"/>
<path d="M44.4021 31.5274C44.4021 32.3505 44.0991 33.0742 43.6411 33.5799C43.1828 34.0853 42.6028 34.3446 42.0204 34.3446C41.4379 34.3446 40.8579 34.0853 40.3997 33.5799C39.9416 33.0742 39.6387 32.3505 39.6387 31.5274C39.6387 30.7043 39.9416 29.9806 40.3997 29.4749C40.8579 28.9696 41.4379 28.7102 42.0204 28.7102C42.6028 28.7102 43.1828 28.9696 43.6411 29.4749C44.0991 29.9806 44.4021 30.7043 44.4021 31.5274Z" stroke="#111B29" stroke-width="1.2" stroke-linecap="round"/>
<path d="M33.3516 34.0314L39.2582 32.3098" stroke="#111B29" stroke-width="1.2" stroke-linecap="round"/>
<path d="M37.9238 30.7449C38.0742 30.2232 38.6279 29.0232 39.6386 28.3972" stroke="#111B29" stroke-width="1.2" stroke-linecap="round"/>
<path d="M42.3051 31.9969C42.726 31.9969 43.0673 31.7867 43.0673 31.5274C43.0673 31.2681 42.726 31.0579 42.3051 31.0579C41.8842 31.0579 41.543 31.2681 41.543 31.5274C41.543 31.7867 41.8842 31.9969 42.3051 31.9969Z" fill="#111B29"/>
<path d="M39.7153 83.3327C39.3646 80.2558 39.0837 73.4665 40.7682 70.9224C42.4526 68.3783 44.071 64.7391 45.2092 63.267C49.0371 61.4517 58.1598 54.4876 64.0283 41.1528" stroke="#111B29" stroke-width="1.2" stroke-linecap="round"/>
<path d="M28.9702 50.7783L7.05859 71.9074" stroke="#111B29" stroke-width="1.2" stroke-linecap="round"/>
<path d="M23.062 56.5693C19.5161 58.9954 10.5249 64.1138 2.92677 65.1784C1.15403 65.7783 -1.89797 67.4635 0.0775003 69.4044C2.05316 71.3454 3.37015 73.7091 3.7817 74.648C4.09837 75.5091 4.88643 76.7094 6.78607 73.9546" stroke="#111B29" stroke-width="1.2" stroke-linecap="round"/>
<path d="M0.769603 70.1858C-0.702475 70.8989 -4.13516 72.2613 -6.08953 72.0077C-8.04391 71.7543 -9.34683 72.4303 -9.754 72.8C-9.97325 73.0905 -10.111 73.6871 -8.90835 73.7506C-7.70567 73.814 -6.27743 73.7769 -5.7137 73.7506" stroke="#111B29" stroke-width="1.2" stroke-linecap="round"/>
<path d="M38.6858 36.8487C38.8963 36.8487 39.0668 36.7435 39.0668 36.6139C39.0668 36.4843 38.8963 36.3792 38.6858 36.3792C38.4752 36.3792 38.3047 36.4843 38.3047 36.6139C38.3047 36.7435 38.4752 36.8487 38.6858 36.8487Z" fill="#111B29"/>
<path d="M39.9245 37.7879C40.0822 37.7879 40.2103 37.7178 40.2103 37.6314C40.2103 37.545 40.0822 37.4749 39.9245 37.4749C39.7667 37.4749 39.6387 37.545 39.6387 37.6314C39.6387 37.7178 39.7667 37.7879 39.9245 37.7879Z" fill="#111B29"/>
<path d="M37.1632 38.4139C37.2684 38.4139 37.3537 38.2738 37.3537 38.1009C37.3537 37.9279 37.2684 37.7878 37.1632 37.7878C37.058 37.7878 36.9727 37.9279 36.9727 38.1009C36.9727 38.2738 37.058 38.4139 37.1632 38.4139Z" fill="#111B29"/>
<path d="M9.00951 34.6059C13.6399 27.5361 20.5541 26.6472 23.4325 27.0863C29.4104 19.5668 37.6657 17.0862 42.6947 19.3343C46.718 21.1328 43.4223 25.6652 41.2714 27.7066L39.1841 25.226C37.7417 27.5206 33.6172 26.673 31.5927 26.1562C33.3323 29.1537 36.1094 36.9007 30.2643 43.9085C24.4193 50.9164 17.0749 51.0402 13.3741 49.0248C9.95819 47.0352 4.37892 41.6758 9.00951 34.6059Z" fill="#111B29"/>
<path d="M64.5993 50.5058C64.3904 50.7629 64.0125 50.802 63.7553 50.5931C63.4981 50.3841 63.459 50.0062 63.668 49.7491L64.5993 50.5058ZM68.5833 44.4687L68.056 44.1824L68.0605 44.174L68.0654 44.1657L68.5833 44.4687ZM70.0826 41.9053L69.5647 41.6024L69.5688 41.5952L69.5732 41.5882L70.0826 41.9053ZM71.9211 38.2219L71.3927 37.9376L71.3927 37.9376L71.9211 38.2219ZM72.4399 37.1814L72.9763 37.4503L72.4399 37.1814ZM72.6961 35.9539L72.1435 36.1874L72.1434 36.1873L72.6961 35.9539ZM69.1789 36.9888L69.7032 37.2805L69.6909 37.3026L69.6768 37.3236L69.1789 36.9888ZM67.7564 38.7439L68.1795 39.1694L67.7564 38.7439ZM61.9696 40.8419C61.7091 40.637 61.664 40.2598 61.8689 39.9993C62.0737 39.7389 62.4509 39.6937 62.7114 39.8986L61.9696 40.8419ZM63.668 49.7491C64.2896 48.984 65.213 47.9433 66.0243 46.9686C66.8653 45.9582 67.6279 44.971 68.056 44.1824L69.1106 44.7549C68.6197 45.6591 67.7863 46.7274 66.9466 47.7363C66.0772 48.7808 65.2352 49.7231 64.5993 50.5058L63.668 49.7491ZM69.5732 41.5882C70.0624 40.8023 70.4129 40.0873 70.6907 39.4744C70.9569 38.8874 71.1863 38.3213 71.3927 37.9376L72.4495 38.5062C72.2678 38.8439 72.0858 39.3035 71.7836 39.9699C71.4932 40.6105 71.1185 41.3765 70.592 42.2223L69.5732 41.5882ZM71.3927 37.9376C71.5614 37.6242 71.65 37.418 71.9035 36.9124L72.9763 37.4503C72.752 37.8977 72.6259 38.1784 72.4495 38.5062L71.3927 37.9376ZM71.9035 36.9124C72.0117 36.6967 72.0881 36.5275 72.1267 36.3841C72.1644 36.2436 72.1468 36.1954 72.1435 36.1874L73.2488 35.7203C73.3969 36.0706 73.3596 36.4198 73.2856 36.6954C73.2123 36.9681 73.0849 37.2336 72.9763 37.4503L71.9035 36.9124ZM72.1434 36.1873C72.1448 36.1906 72.1041 36.1118 71.9766 36.0532C71.8623 36.0007 71.6369 35.9464 71.2475 36.0524L70.9323 34.8945C72.2064 34.5477 73.0072 35.1482 73.2489 35.7204L72.1434 36.1873ZM71.2475 36.0524C70.4532 36.2686 69.8762 36.9696 69.7032 37.2805L68.6546 36.6971C68.9165 36.2262 69.7128 35.2265 70.9323 34.8945L71.2475 36.0524ZM69.6768 37.3236C69.5507 37.5111 69.2429 37.9058 68.9496 38.2685C68.6594 38.6275 68.3367 39.013 68.1795 39.1694L67.3333 38.3185C67.4351 38.2172 67.7148 37.8872 68.0165 37.514C68.3153 37.1445 68.5893 36.7904 68.681 36.654L69.6768 37.3236ZM68.1795 39.1694C67.8476 39.4993 66.9036 40.3149 65.7803 40.8655C64.6927 41.3986 63.186 41.7984 61.9696 40.8419L62.7114 39.8986C63.3441 40.3961 64.2444 40.282 65.2521 39.788C66.2239 39.3116 67.0633 38.587 67.3333 38.3185L68.1795 39.1694ZM68.0654 44.1657L69.5647 41.6024L70.6005 42.2082L69.1012 44.7716L68.0654 44.1657Z" fill="#111B29"/>
<path d="M63.4578 38.6314C63.179 38.8105 62.8078 38.7297 62.6287 38.4509C62.4496 38.1721 62.5305 37.8009 62.8093 37.6218L63.4578 38.6314ZM68.002 34.655L67.5508 34.2596L67.6737 34.1192L67.8546 34.0734L68.002 34.655ZM70.9958 33.2759L71.5902 33.194L70.9958 33.2759ZM68.9854 32.0278L69.0962 31.4382L68.9854 32.0278ZM66.792 32.2831L66.4642 31.7806L66.4642 31.7806L66.792 32.2831ZM65.0764 34.2786C64.8207 34.4894 64.4426 34.453 64.2318 34.1972C64.0211 33.9415 64.0575 33.5634 64.3132 33.3526L65.0764 34.2786ZM65.6913 33.0677L66.0654 33.5367L66.0237 33.5701L65.9767 33.5955L65.6913 33.0677ZM62.8093 37.6218C63.4966 37.1803 64.4636 36.5877 65.3918 35.9628C66.3328 35.3294 67.15 34.7169 67.5508 34.2596L68.4533 35.0504C67.935 35.6419 66.9896 36.3338 66.0619 36.9583C65.1213 37.5914 64.1136 38.2102 63.4578 38.6314L62.8093 37.6218ZM67.8546 34.0734C68.1457 33.9996 68.5194 33.9711 68.8389 33.9448C69.1857 33.9163 69.5123 33.8884 69.799 33.8292C70.0963 33.7679 70.2624 33.6891 70.3413 33.6183C70.3788 33.5847 70.4262 33.5379 70.4014 33.3577L71.5902 33.194C71.6644 33.733 71.5028 34.1888 71.1421 34.512C70.8229 34.7981 70.4017 34.9302 70.0415 35.0045C69.6707 35.081 69.2695 35.1135 68.9373 35.1408C68.5777 35.1704 68.3211 35.1931 68.1494 35.2366L67.8546 34.0734ZM70.4014 33.3577C70.4156 33.4609 70.4559 33.4698 70.3762 33.3772C70.3161 33.3075 70.2158 33.2137 70.0733 33.1131C69.7892 32.9124 69.3764 32.7118 68.8746 32.6175L69.0962 31.4382C69.7792 31.5665 70.3509 31.84 70.7656 32.1329C70.9724 32.2789 71.15 32.4367 71.2856 32.5943C71.4016 32.729 71.5554 32.9409 71.5902 33.194L70.4014 33.3577ZM68.8746 32.6175C68.0518 32.4629 67.6356 32.4491 67.1198 32.7856L66.4642 31.7806C67.3911 31.1759 68.214 31.2724 69.0962 31.4382L68.8746 32.6175ZM67.1198 32.7856C66.7132 33.0509 66.5715 33.133 66.0654 33.5367L65.3171 32.5987C65.8706 32.1571 66.0528 32.0489 66.4642 31.7806L67.1198 32.7856ZM65.9767 33.5955C65.6353 33.78 65.4547 33.9669 65.0764 34.2786L64.3132 33.3526C64.6068 33.1106 64.9295 32.7975 65.4059 32.5399L65.9767 33.5955Z" fill="#111B29"/>
<path d="M64.6436 33.4989C64.975 33.4995 65.2432 33.7685 65.2426 34.0999C65.242 34.4313 64.9729 34.6994 64.6415 34.6989L64.6436 33.4989ZM62.1668 34.6271L61.9264 34.0774L62.1668 34.6271ZM58.1706 36.9264L58.5243 37.411L58.1706 36.9264ZM56.567 38.3227L56.0773 37.976L56.0932 37.9535L56.1111 37.9326L56.567 38.3227ZM57.5988 40.3152C57.7668 40.6009 57.6714 40.9686 57.3858 41.1366C57.1002 41.3046 56.7325 41.2093 56.5645 40.9237L57.5988 40.3152ZM64.6426 34.0989C64.6415 34.6989 64.6417 34.6989 64.6418 34.6989C64.6418 34.6989 64.6419 34.6989 64.642 34.6989C64.6421 34.6989 64.6422 34.6989 64.6423 34.6989C64.6425 34.6989 64.6426 34.6989 64.6426 34.6989C64.6427 34.6989 64.6424 34.6989 64.6419 34.6989C64.6408 34.6989 64.6386 34.6989 64.6352 34.6989C64.6285 34.699 64.6172 34.6992 64.6018 34.6996C64.5709 34.7004 64.5233 34.7022 64.4615 34.7058C64.3378 34.7131 64.1583 34.7279 63.943 34.7582C63.5088 34.8193 62.9473 34.9406 62.4073 35.1768L61.9264 34.0774C62.599 33.7832 63.2754 33.6404 63.7759 33.5699C64.0279 33.5345 64.2401 33.5167 64.391 33.5079C64.4666 33.5034 64.5272 33.5012 64.5701 33.5C64.5915 33.4995 64.6086 33.4992 64.621 33.499C64.6271 33.499 64.6322 33.4989 64.6359 33.4989C64.6378 33.4989 64.6394 33.4989 64.6407 33.4989C64.6413 33.4989 64.6419 33.4989 64.6424 33.4989C64.6426 33.4989 64.6429 33.4989 64.6431 33.4989C64.6432 33.4989 64.6433 33.4989 64.6434 33.4989C64.6435 33.4989 64.6436 33.4989 64.6426 34.0989ZM62.4073 35.1768C61.1263 35.7372 60.9553 35.9271 60.4102 36.248L59.8016 35.2138C60.2801 34.9322 60.558 34.6759 61.9264 34.0774L62.4073 35.1768ZM60.4102 36.248C59.8824 36.5586 58.8936 37.1414 58.5243 37.411L57.8168 36.4417C58.2473 36.1275 59.3058 35.5055 59.8016 35.2138L60.4102 36.248ZM58.5243 37.411C57.8369 37.9128 57.2342 38.4657 57.0229 38.7127L56.1111 37.9326C56.4057 37.5882 57.0891 36.9729 57.8168 36.4417L58.5243 37.411ZM57.0567 38.6693C56.9833 38.773 56.9606 38.8397 56.9526 38.8845C56.9448 38.9283 56.9438 38.9915 56.9739 39.0997C57.0448 39.3543 57.2341 39.6953 57.5988 40.3152L56.5645 40.9237C56.2304 40.3559 55.9406 39.8619 55.8179 39.4217C55.7513 39.1826 55.7249 38.9335 55.7713 38.6734C55.8176 38.4144 55.9288 38.1857 56.0773 37.976L57.0567 38.6693Z" fill="#111B29"/>
<path d="M57.2294 43.1081C57.2294 44.0144 57.0236 46.1616 56.3948 47.9511" stroke="#111B29" stroke-width="1.2" stroke-linecap="round"/>
<path d="M69.7012 36.2975L57.5668 42.9275C56.1007 43.501 55.0809 41.4914 56.6191 40.813L61.9711 37.9596M71.3891 35.3522L73.6331 34.1389L72.5704 32.4397L71.0513 33.207" stroke="#111B29" stroke-width="1.2" stroke-linecap="round"/>
<path d="M73.9359 33.9743L75.2012 32.1018" stroke="#111B29" stroke-width="1.2" stroke-linecap="round"/>
<path d="M72.8719 32.2815L75.2012 32.1018" stroke="#111B29" stroke-width="1.2" stroke-linecap="round"/>
<path d="M128.265 43.1903C128.485 43.438 128.865 43.4603 129.112 43.2401C129.36 43.02 129.382 42.6407 129.162 42.3931L128.265 43.1903ZM126.588 38.7641L125.994 38.8489L126.588 38.7641ZM124.543 36.3748C124.212 36.3922 123.958 36.6746 123.975 37.0055C123.992 37.3364 124.275 37.5906 124.606 37.5732L124.543 36.3748ZM129.162 42.3931C128.292 41.4138 127.381 40.0687 127.182 38.6792L125.994 38.8489C126.243 40.592 127.346 42.1558 128.265 43.1903L129.162 42.3931ZM127.182 38.6792C127.078 37.9511 126.645 37.3682 126.165 36.9828C125.697 36.6078 125.091 36.3459 124.543 36.3748L124.606 37.5732C124.766 37.5647 125.09 37.659 125.414 37.9188C125.725 38.1683 125.944 38.4992 125.994 38.8489L127.182 38.6792Z" fill="#111B29"/>
<path d="M124.687 38.7637C124.687 37.9432 124.754 36.3247 122.785 36.4142" stroke="#111B29" stroke-width="1.2" stroke-linecap="round"/>
<path d="M123.231 37.9809C122.933 37.1232 122.088 35.4972 120.566 36.3027" stroke="#111B29" stroke-width="1.2" stroke-linecap="round"/>
<path d="M121.687 39.4987C121.969 39.6724 122.339 39.5844 122.513 39.3022C122.686 39.02 122.598 38.6504 122.316 38.4767L121.687 39.4987ZM116.52 32.3869L116.279 32.9366L116.281 32.9374L116.52 32.3869ZM114.73 33.5057L115.33 33.5057V33.5057H114.73ZM118.198 41.0015L118.734 41.2699L118.746 41.2475L118.755 41.2244L118.198 41.0015ZM112.716 39.4352L112.551 38.8583L112.538 38.8619L112.526 38.866L112.716 39.4352ZM112.716 41.6728L113.084 41.1992L112.716 41.6728ZM120.861 49.0948C121.067 49.3541 121.445 49.397 121.704 49.1906C121.963 48.9843 122.006 48.6068 121.8 48.3475L120.861 49.0948ZM122.316 38.4767C122.289 38.4599 122.212 38.3967 122.098 38.2419C121.989 38.0948 121.867 37.8947 121.74 37.6432C121.486 37.1406 121.229 36.4702 121.013 35.6945L119.857 36.0157C120.089 36.851 120.373 37.5978 120.669 38.1842C120.817 38.4772 120.973 38.7395 121.133 38.956C121.288 39.1648 121.472 39.3664 121.687 39.4987L122.316 38.4767ZM121.013 35.6945C120.736 34.6953 119.905 33.8489 119.096 33.2238C118.267 32.5836 117.356 32.0953 116.758 31.8363L116.281 32.9374C116.802 33.1633 117.625 33.6035 118.362 34.1734C119.12 34.7586 119.687 35.4039 119.857 36.0157L121.013 35.6945ZM116.76 31.8372C116.401 31.68 115.789 31.5194 115.214 31.7076C114.905 31.8087 114.617 32.0092 114.415 32.3374C114.218 32.6557 114.13 33.0509 114.13 33.5057H115.33C115.33 33.1996 115.39 33.0419 115.436 32.9671C115.476 32.9021 115.523 32.869 115.588 32.848C115.759 32.7919 116.042 32.8327 116.279 32.9366L116.76 31.8372ZM114.13 33.5056C114.13 34.0846 114.478 34.5561 114.811 34.9069C115.153 35.2686 115.609 35.6326 116.012 35.969C116.435 36.3215 116.823 36.6616 117.116 37.02C117.408 37.3761 117.57 37.707 117.6 38.0351L118.795 37.9265C118.736 37.2701 118.42 36.7171 118.044 36.2593C117.671 35.8038 117.203 35.3999 116.781 35.0476C116.339 34.6791 115.962 34.3774 115.682 34.0819C115.392 33.7754 115.33 33.598 115.33 33.5057L114.13 33.5056ZM117.6 38.0351C117.688 39.0026 117.705 39.6869 117.693 40.1435C117.687 40.3721 117.674 40.5388 117.659 40.6524C117.643 40.7809 117.63 40.8065 117.641 40.7787L118.755 41.2244C118.803 41.1033 118.831 40.9509 118.85 40.8031C118.87 40.6406 118.886 40.4329 118.893 40.1758C118.906 39.6609 118.886 38.9281 118.795 37.9265L117.6 38.0351ZM117.661 40.7332C117.644 40.7674 117.604 40.8072 117.531 40.8105C117.439 40.8146 117.137 40.7699 116.608 40.2416L115.76 41.0902C116.395 41.7254 117.007 42.035 117.584 42.0093C118.18 41.9828 118.565 41.6086 118.734 41.2699L117.661 40.7332ZM116.608 40.2416C115.952 39.5852 115.193 39.1731 114.482 38.9564C113.784 38.7436 113.085 38.7056 112.551 38.8583L112.881 40.0122C113.129 39.9411 113.583 39.9366 114.132 40.1042C114.669 40.2679 115.253 40.583 115.76 41.0902L116.608 40.2416ZM112.526 38.866C112.307 38.9391 112.058 39.0576 111.838 39.2294C111.618 39.4002 111.394 39.6492 111.287 39.9886C111.052 40.7392 111.489 41.4786 112.347 42.1464L113.084 41.1992C112.721 40.9164 112.55 40.6979 112.476 40.5535C112.41 40.4239 112.426 40.3664 112.432 40.3475C112.443 40.3121 112.479 40.2506 112.574 40.1767C112.668 40.1037 112.789 40.0432 112.905 40.0044L112.526 38.866ZM112.347 42.1464C113.69 43.1905 117.424 44.7771 120.861 49.0948L121.8 48.3475C118.255 43.8939 114.136 42.0171 113.084 41.1992L112.347 42.1464Z" fill="#111B29"/>
<path d="M131.889 44.4169L131.753 45.0013L131.889 44.4169ZM159.337 61.3891C159.644 61.5127 159.994 61.3636 160.117 61.0562C160.241 60.7487 160.092 60.3993 159.784 60.2757L159.337 61.3891ZM153.301 72.1972C153.62 72.2869 153.951 72.1011 154.041 71.7821C154.131 71.4631 153.945 71.1318 153.626 71.042L153.301 72.1972ZM123.77 51.1638L123.324 51.566L123.77 51.1638ZM131.753 45.0013C132.989 45.2885 134.466 46.0766 136.243 47.2427C138.013 48.4039 140.009 49.8896 142.294 51.5311C146.847 54.8008 152.466 58.6273 159.337 61.3891L159.784 60.2757C153.054 57.5701 147.531 53.8147 142.994 50.5564C140.735 48.9338 138.7 47.4191 136.902 46.2393C135.111 45.0644 133.482 44.1711 132.025 43.8325L131.753 45.0013ZM123.324 51.566C126.168 54.713 138.16 67.9388 153.301 72.1972L153.626 71.042C138.858 66.8886 127.075 53.926 124.215 50.7615L123.324 51.566ZM124.241 50.7983C123.935 50.2446 123.683 49.4543 123.625 48.6172C123.566 47.7808 123.703 46.9455 124.118 46.2621C124.903 44.9685 126.934 43.8817 131.753 45.0013L132.025 43.8325C127.047 42.6758 124.293 43.6604 123.092 45.6395C122.514 46.5924 122.357 47.6938 122.428 48.7011C122.498 49.7075 122.798 50.6678 123.191 51.3784L124.241 50.7983ZM124.215 50.7615C124.217 50.7645 124.223 50.7708 124.229 50.7796C124.235 50.7884 124.239 50.7953 124.241 50.7983L123.191 51.3784C123.228 51.4468 123.271 51.5071 123.324 51.566L124.215 50.7615Z" fill="#111B29"/>
<path d="M157.274 82.0104C157.845 83.6799 159.941 87.5509 163.752 89.6794L157.274 82.0104ZM151.367 79.2714L158.893 81.0713L151.367 79.2714ZM158.512 84.2015C159.338 81.9842 160.399 76.4855 158.036 72.2284C155.083 66.907 153.273 60.0988 154.702 55.56C155.845 51.9289 160.005 51.3863 161.942 51.5689C164.99 51.8563 170.249 54.8556 169.944 62.9942C169.563 73.1675 166.705 81.8539 162.609 88.5839L158.512 84.2015Z" stroke="#111B29" stroke-width="1.2" stroke-linecap="round"/>
<path d="M181.333 67.0692C182.278 68.9735 184.416 73.8149 185.407 77.9468C182.675 79.538 174.994 82.5584 165.849 81.6193L151.368 79.2717C150.796 75.3329 150.729 65.3007 154.54 56.3482C154.54 55.5397 155.541 53.2751 157.751 52.2734" stroke="#111B29" stroke-width="1.2" stroke-linecap="round"/>
<path d="M180.521 73.8719C180.48 73.3695 181.609 69.7139 181.334 67.0692C181.181 65.5944 180.985 63.7544 180.74 61.513C180.054 55.2526 177.341 50.453 176.071 48.8356C174.801 47.2184 171.796 46.2477 169.414 46.952" stroke="#111B29" stroke-width="1.2" stroke-linecap="round"/>
<path d="M161.873 48.0809C160.612 47.4437 151.132 48.0579 149.288 38.2617C146.133 38.292 144.417 36.1687 146.825 35.26C149.391 34.1727 149.199 32.1765 148.734 31.0003C147.994 29.4579 147.95 27.8385 148.109 27.4998" stroke="#111B29" stroke-width="1.2" stroke-linecap="round"/>
<path d="M151.905 34.7408C151.454 34.7451 151.082 34.2983 151.074 33.7428C151.066 33.1874 151.426 32.7335 151.876 32.7293C152.327 32.7249 152.699 33.1717 152.707 33.7272C152.715 34.2827 152.356 34.7365 151.905 34.7408Z" fill="#111B29"/>
<path d="M153.829 31.4909C153.302 31.0287 151.941 30.3524 150.707 31.3458" stroke="#111B29" stroke-width="1.2" stroke-linecap="round"/>
<path d="M157.406 40.4929C156.438 41.7161 155.376 42.0634 153.312 41.2741" stroke="#111B29" stroke-width="1.2" stroke-linecap="round"/>
<path d="M165.33 31.9197C165.554 32.3241 165.741 33.2422 164.699 33.6792" stroke="#111B29" stroke-width="1.2" stroke-linecap="round"/>
<path d="M176.436 27.7668C177.663 33.2846 173.822 37.4382 171.037 40.6314C168.062 39.3114 163.187 36.1724 165.057 35.8335C167.022 35.4775 169.095 31.0743 167.186 29.7274C164.947 28.147 162.929 30.5381 162.544 32.3512L160.741 29.7894C161.251 27.9975 161.451 24.8544 158.171 26.6165C154.892 28.3784 150.081 27.9169 148.085 27.4659C144.151 25.1526 138.038 19.7566 145.063 16.6794C150.905 14.1201 158.508 17.3558 163.149 20.2633C166.292 19.5818 174.762 20.2434 176.436 27.7668Z" fill="#111B29"/>
<path d="M170.819 40.2617C169.398 41.6663 168.693 42.8326 168.781 45.2486" stroke="#111B29" stroke-width="1.2" stroke-linecap="round"/>
</g>
<defs>
<clipPath id="clip0_1203_342">
<rect y="0.214355" width="184" height="70.6429" rx="12" fill="white"/>
</clipPath>
</defs>
</svg>
