<svg width="15" height="16" viewBox="0 0 15 16" fill="none" xmlns="http://www.w3.org/2000/svg">
<path d="M5.27273 13.8548V13.3548H4.77273H1.36364C0.978913 13.3548 0.5 12.9272 0.5 12.1882V2.18815C0.5 1.44913 0.978913 1.02148 1.36364 1.02148H13.6364C14.021 1.02148 14.4999 1.449 14.5 2.18781C14.5 2.18792 14.5 2.18804 14.5 2.18815L14.4932 12.1878V12.1882C14.4932 12.9307 14.0182 13.3548 13.6364 13.3548H10.2273H9.72727V13.8548V15.0215H5.27273V13.8548ZM13.6364 12.6882H14.1364V12.1882V2.18815V1.68815H13.6364H1.36364H0.863636V2.18815V12.1882V12.6882H1.36364H13.6364Z" stroke="#003049"/>
<path d="M3 7.04899C3 6.54273 3.41041 6.13232 3.91667 6.13232C4.42293 6.13232 4.83333 6.54273 4.83333 7.04899V10.0768C4.83333 10.583 4.42293 10.9934 3.91667 10.9934C3.41041 10.9934 3 10.583 3 10.0768V7.04899Z" fill="#004FEA"/>
<path d="M6.75 8.43815C6.75 7.93189 7.16041 7.52148 7.66667 7.52148C8.17293 7.52148 8.58333 7.93189 8.58333 8.43815V10.077C8.58333 10.5833 8.17293 10.9937 7.66667 10.9937C7.16041 10.9937 6.75 10.5833 6.75 10.077V8.43815Z" fill="#FD8516"/>
<path d="M10.5 3.43815C10.5 2.93189 10.9104 2.52148 11.4167 2.52148C11.9229 2.52148 12.3333 2.93189 12.3333 3.43815V10.077C12.3333 10.5833 11.9229 10.9937 11.4167 10.9937C10.9104 10.9937 10.5 10.5833 10.5 10.077V3.43815Z" fill="#FF4040"/>
</svg>
