<svg width="613" height="598" viewBox="0 0 613 598" fill="none" xmlns="http://www.w3.org/2000/svg">
<g clip-path="url(#clip0_2_729)">
<path d="M143.027 19.9463H85.5529C73.627 19.9463 64 30.7403 64 44.112V172.996C64 186.367 73.627 197.161 85.5529 197.161H143.027C154.953 197.161 164.58 186.367 164.58 172.996V44.112C164.58 30.7403 154.953 19.9463 143.027 19.9463ZM128.659 181.051H99.9215V172.996H128.659V181.051ZM152.008 156.885H76.5725V44.112H152.008V156.885Z" fill="#242937"/>
<g filter="url(#filter0_f_2_729)">
<path d="M83 113.831C83 112.429 83.8697 111.174 85.1825 110.682L93.2109 107.671C94.3993 107.225 95.6372 106.925 96.8977 106.777L107.256 105.558C110.407 105.187 113.592 105.193 116.742 105.575L126.765 106.79C127.919 106.93 129.055 107.185 130.158 107.553L139.712 110.737C141.079 111.193 142 112.471 142 113.911V113.911C142 115.436 140.97 116.767 139.494 117.15L128.5 120L119.209 121.282C115.751 121.758 112.246 121.781 108.782 121.348L98 120L85.5992 117.106C84.0769 116.751 83 115.394 83 113.831V113.831Z" fill="#333131" fill-opacity="0.4"/>
</g>
<path d="M139.505 88.3679C139.505 91.3202 137.398 93.7357 134.822 93.7357C134.401 93.7357 134.003 93.682 133.628 93.5478L125.294 103.076C125.411 103.505 125.458 103.988 125.458 104.471C125.458 107.424 123.351 109.839 120.776 109.839C118.2 109.839 116.093 107.424 116.093 104.471C116.093 103.988 116.14 103.505 116.257 103.076L110.287 96.2318C109.913 96.366 109.492 96.4196 109.07 96.4196C108.649 96.4196 108.227 96.366 107.853 96.2318L97.2006 108.47C97.3177 108.9 97.3645 109.356 97.3645 109.839C97.3645 112.792 95.2575 115.207 92.6822 115.207C90.107 115.207 88 112.792 88 109.839C88 106.887 90.107 104.471 92.6822 104.471C93.1036 104.471 93.5016 104.525 93.8762 104.659L104.552 92.4474C104.435 92.018 104.388 91.5349 104.388 91.0518C104.388 88.0995 106.495 85.6839 109.07 85.6839C111.645 85.6839 113.752 88.0995 113.752 91.0518C113.752 91.5349 113.706 92.018 113.588 92.4474L119.558 99.2915C119.933 99.1573 120.354 99.1036 120.776 99.1036C121.197 99.1036 121.619 99.1573 121.993 99.2915L130.304 89.7367C130.187 89.3072 130.14 88.851 130.14 88.3679C130.14 85.4155 132.247 83 134.822 83C137.398 83 139.505 85.4155 139.505 88.3679Z" fill="#54BD95"/>
<path d="M192.013 142.389L187.357 139L171 156.261L187.357 173.522L192.013 170.134L178.861 156.261L192.013 142.389ZM189.685 158.909H195.731V153.614H189.685V158.909ZM219.918 153.614H213.872V158.909H219.918V153.614ZM201.778 158.909H207.825V153.614H201.778V158.909ZM222.247 139L217.59 142.389L230.742 156.261L217.59 170.134L222.247 173.522L238.603 156.261L222.247 139Z" fill="#2E2B38"/>
</g>
<g clip-path="url(#clip1_2_729)">
<rect width="410" height="526" rx="10" transform="matrix(-0.000533415 -1 -1 0.000533415 558.219 537)" fill="#383131" fill-opacity="0.8"/>
<path d="M556.691 487.001L435.703 510.065L502.162 433.53L409.149 409.079L502.106 328.03L409.096 309.079L460.57 260.552L335.062 245.619L460.519 165.052L328.516 159.622L294.499 127.641" stroke="#640000" stroke-opacity="0.42" stroke-width="5"/>
<path d="M351.923 553.11C351.653 527.284 343.576 472.873 313.426 461.843C283.277 450.812 334.636 339.092 364.083 284.61L84.1759 273.253C66.0009 317.756 22.4221 405.538 -6.4934 400.644C-42.6378 394.526 -51.0844 416.777 -51.0636 455.9C-51.0427 495.024 -63.3494 488.893 -71.7977 508.076" stroke="#640000" stroke-opacity="0.42" stroke-width="5"/>
<g filter="url(#filter1_f_2_729)">
<path d="M66 439.5C66 438.119 67.1193 437 68.5 437L313.5 437C314.881 437 316 438.119 316 439.5V439.5C316 440.881 314.881 442 313.5 442L68.5 442C67.1193 442 66 440.881 66 439.5V439.5Z" fill="#333131" fill-opacity="0.6"/>
</g>
</g>
<rect x="306.352" y="549" width="40" height="40" rx="10" transform="rotate(15 306.352 549)" fill="#FFAA94"/>
<g clip-path="url(#clip2_2_729)">
<path d="M327.092 577.851C326.978 578.278 326.698 578.642 326.316 578.863C325.933 579.084 325.478 579.144 325.051 579.029L315.392 576.441L311.309 578.798L314.76 565.919C314.874 565.492 315.154 565.128 315.537 564.907C315.919 564.686 316.374 564.626 316.801 564.741L328.07 567.76C328.497 567.875 328.861 568.154 329.082 568.537C329.303 568.92 329.363 569.375 329.249 569.801L327.092 577.851Z" stroke="white" stroke-width="1.66667" stroke-linecap="round" stroke-linejoin="round"/>
</g>
<rect x="477.57" y="109" width="48.5725" height="48.5725" rx="10" transform="rotate(15 477.57 109)" fill="#FBC75E"/>
<g clip-path="url(#clip3_2_729)">
<path d="M495.864 135.78C499.865 136.852 503.399 136.64 503.756 135.306C504.113 133.973 501.16 132.022 497.159 130.95C493.158 129.878 489.624 130.09 489.267 131.424C488.91 132.758 491.863 134.708 495.864 135.78Z" stroke="#F8F8FA" stroke-width="1.66667" stroke-linecap="round" stroke-linejoin="round"/>
<path d="M502.247 140.941C501.889 142.277 498.38 142.493 494.355 141.415C490.331 140.336 487.4 138.395 487.758 137.059" stroke="#F8F8FA" stroke-width="1.66667" stroke-linecap="round" stroke-linejoin="round"/>
<path d="M489.266 131.424L486.246 142.693C485.888 144.03 488.819 145.971 492.843 147.049C496.868 148.128 500.377 147.912 500.735 146.576L503.755 135.306" stroke="#F8F8FA" stroke-width="1.66667" stroke-linecap="round" stroke-linejoin="round"/>
</g>
<g clip-path="url(#clip4_2_729)">
<rect x="471.656" y="378" width="146" height="188" rx="10" transform="rotate(15 471.656 378)" fill="#161C28"/>
<circle cx="431.752" cy="541.755" r="79" transform="rotate(15 431.752 541.755)" fill="#232937"/>
<circle opacity="0.5" cx="507.095" cy="412.153" r="14" transform="rotate(15 507.095 412.153)" fill="white"/>
<circle opacity="0.5" cx="491.028" cy="407.848" r="14" transform="rotate(15 491.028 407.848)" fill="white"/>
<path d="M469.447 456.09L468.426 455.816C468.444 455.506 468.408 455.22 468.316 454.957C468.228 454.695 468.097 454.46 467.923 454.252C467.753 454.042 467.549 453.863 467.312 453.718C467.074 453.572 466.816 453.461 466.536 453.386C466.025 453.249 465.528 453.254 465.045 453.401C464.564 453.549 464.134 453.841 463.756 454.278C463.38 454.715 463.094 455.299 462.898 456.029C462.703 456.759 462.658 457.407 462.765 457.974C462.875 458.542 463.101 459.01 463.444 459.378C463.789 459.747 464.217 460 464.727 460.137C465.007 460.212 465.286 460.245 465.565 460.238C465.843 460.23 466.108 460.179 466.36 460.085C466.615 459.988 466.847 459.849 467.054 459.666C467.266 459.482 467.44 459.252 467.579 458.977L468.6 459.251C468.407 459.661 468.164 460.009 467.87 460.295C467.576 460.581 467.246 460.803 466.88 460.961C466.515 461.116 466.128 461.205 465.719 461.227C465.312 461.251 464.896 461.206 464.471 461.092C463.752 460.899 463.16 460.552 462.694 460.051C462.228 459.55 461.922 458.932 461.774 458.198C461.627 457.465 461.672 456.653 461.91 455.764C462.149 454.875 462.515 454.15 463.01 453.588C463.504 453.027 464.078 452.645 464.732 452.444C465.386 452.243 466.073 452.239 466.792 452.431C467.217 452.545 467.6 452.714 467.94 452.937C468.283 453.162 468.573 453.433 468.811 453.753C469.05 454.07 469.225 454.426 469.337 454.82C469.449 455.212 469.486 455.635 469.447 456.09ZM469.412 462.292L471.106 455.969L472.044 456.221L471.788 457.176L471.854 457.193C472.053 456.912 472.33 456.714 472.684 456.6C473.038 456.486 473.404 456.479 473.783 456.581C473.854 456.6 473.943 456.625 474.049 456.657C474.156 456.688 474.236 456.714 474.289 456.734L474.024 457.722C473.993 457.705 473.921 457.672 473.808 457.624C473.698 457.574 473.578 457.532 473.449 457.497C473.142 457.415 472.85 457.406 472.574 457.47C472.302 457.532 472.065 457.657 471.865 457.845C471.668 458.03 471.531 458.266 471.455 458.551L470.383 462.552L469.412 462.292ZM476.147 464.238C475.538 464.075 475.049 463.799 474.679 463.412C474.313 463.023 474.075 462.553 473.967 462.004C473.862 461.452 473.896 460.852 474.069 460.205C474.243 459.557 474.514 459.018 474.882 458.587C475.254 458.154 475.69 457.856 476.189 457.693C476.692 457.528 477.229 457.522 477.8 457.675C478.129 457.763 478.44 457.905 478.731 458.101C479.023 458.297 479.268 458.553 479.465 458.871C479.663 459.186 479.786 459.566 479.834 460.011C479.883 460.456 479.828 460.974 479.67 461.564L479.559 461.976L474.686 460.67L474.911 459.83L478.796 460.871C478.892 460.515 478.906 460.177 478.838 459.859C478.773 459.542 478.632 459.267 478.415 459.035C478.2 458.804 477.917 458.642 477.566 458.548C477.179 458.444 476.819 458.45 476.485 458.567C476.154 458.681 475.872 458.87 475.64 459.134C475.407 459.398 475.244 459.705 475.151 460.053L475.001 460.613C474.873 461.091 474.847 461.517 474.923 461.894C475.002 462.268 475.166 462.581 475.416 462.833C475.667 463.083 475.989 463.26 476.381 463.365C476.636 463.434 476.876 463.46 477.101 463.444C477.33 463.425 477.539 463.364 477.729 463.259C477.919 463.151 478.085 462.998 478.226 462.801L479.094 463.316C478.91 463.608 478.669 463.843 478.371 464.022C478.074 464.198 477.736 464.308 477.357 464.35C476.979 464.39 476.575 464.353 476.147 464.238ZM482.099 465.85C481.698 465.743 481.355 465.57 481.069 465.332C480.784 465.09 480.583 464.8 480.469 464.46C480.354 464.118 480.352 463.741 480.463 463.329C480.56 462.967 480.71 462.693 480.913 462.506C481.117 462.316 481.355 462.189 481.628 462.124C481.902 462.059 482.191 462.034 482.496 462.048C482.804 462.06 483.111 462.086 483.414 462.126C483.812 462.18 484.133 462.226 484.379 462.266C484.627 462.303 484.815 462.305 484.942 462.271C485.071 462.238 485.157 462.143 485.199 461.987L485.208 461.954C485.317 461.548 485.29 461.202 485.128 460.918C484.969 460.634 484.665 460.432 484.218 460.312C483.754 460.188 483.364 460.192 483.046 460.325C482.728 460.457 482.485 460.624 482.316 460.826L481.482 460.25C481.75 459.91 482.049 459.669 482.381 459.529C482.716 459.386 483.059 459.316 483.408 459.319C483.761 459.319 484.096 459.362 484.415 459.447C484.618 459.502 484.844 459.589 485.095 459.709C485.348 459.827 485.579 459.993 485.786 460.207C485.996 460.422 486.143 460.702 486.228 461.045C486.312 461.388 486.287 461.811 486.153 462.313L485.037 466.479L484.065 466.218L484.295 465.362L484.245 465.349C484.142 465.468 483.993 465.586 483.798 465.701C483.602 465.816 483.362 465.895 483.078 465.936C482.793 465.977 482.467 465.949 482.099 465.85ZM482.481 465.017C482.865 465.12 483.209 465.132 483.513 465.051C483.82 464.972 484.072 464.83 484.271 464.628C484.472 464.426 484.608 464.193 484.678 463.93L484.917 463.041C484.862 463.079 484.759 463.1 484.608 463.104C484.461 463.105 484.293 463.097 484.103 463.079C483.918 463.058 483.737 463.036 483.561 463.013C483.388 462.987 483.248 462.967 483.14 462.953C482.879 462.918 482.628 462.908 482.389 462.924C482.153 462.937 481.949 462.998 481.775 463.108C481.605 463.215 481.487 463.392 481.421 463.639C481.33 463.977 481.387 464.265 481.59 464.505C481.797 464.743 482.094 464.914 482.481 465.017ZM489.162 467.725C488.635 467.584 488.205 467.326 487.873 466.952C487.542 466.575 487.328 466.112 487.231 465.562C487.135 465.01 487.176 464.399 487.356 463.729C487.534 463.065 487.802 462.52 488.161 462.092C488.519 461.665 488.937 461.372 489.415 461.215C489.892 461.058 490.397 461.05 490.93 461.193C491.341 461.303 491.648 461.459 491.85 461.66C492.055 461.859 492.198 462.062 492.278 462.269C492.361 462.474 492.424 462.64 492.466 462.769L492.548 462.791L493.382 459.68L494.353 459.94L492.095 468.37L491.156 468.118L491.416 467.147L491.301 467.116C491.199 467.212 491.059 467.33 490.88 467.471C490.702 467.608 490.472 467.713 490.191 467.785C489.911 467.854 489.568 467.834 489.162 467.725ZM489.527 466.888C489.917 466.992 490.273 466.979 490.597 466.848C490.921 466.714 491.201 466.485 491.438 466.16C491.676 465.833 491.859 465.43 491.987 464.953C492.113 464.481 492.155 464.049 492.113 463.659C492.071 463.265 491.943 462.933 491.727 462.664C491.511 462.391 491.206 462.202 490.811 462.096C490.399 461.986 490.028 462 489.697 462.138C489.369 462.273 489.089 462.503 488.855 462.825C488.625 463.146 488.451 463.529 488.332 463.973C488.211 464.423 488.17 464.851 488.209 465.255C488.251 465.658 488.379 466.004 488.592 466.293C488.809 466.581 489.121 466.779 489.527 466.888ZM494.009 468.883L495.703 462.56L496.674 462.82L494.98 469.143L494.009 468.883ZM496.479 461.639C496.29 461.588 496.144 461.48 496.041 461.314C495.941 461.149 495.916 460.976 495.964 460.795C496.013 460.614 496.121 460.477 496.29 460.384C496.462 460.292 496.643 460.271 496.832 460.322C497.021 460.372 497.166 460.48 497.266 460.645C497.369 460.811 497.396 460.984 497.347 461.166C497.299 461.347 497.188 461.483 497.017 461.575C496.848 461.668 496.668 461.69 496.479 461.639ZM501.203 464.034L500.982 464.857L497.706 463.979L497.927 463.156L501.203 464.034ZM499.287 461.897L500.259 462.157L498.644 468.184C498.571 468.458 498.555 468.674 498.598 468.833C498.644 468.989 498.724 469.108 498.838 469.188C498.955 469.267 499.085 469.325 499.228 469.363C499.335 469.392 499.424 469.41 499.496 469.418C499.568 469.422 499.626 469.426 499.669 469.429L499.633 470.354C499.561 470.361 499.462 470.361 499.337 470.355C499.212 470.35 499.059 470.324 498.878 470.275C498.603 470.202 498.35 470.071 498.118 469.882C497.889 469.694 497.721 469.457 497.612 469.169C497.507 468.882 497.504 468.554 497.602 468.187L499.287 461.897ZM512.698 467.679L511.677 467.405C511.696 467.095 511.659 466.809 511.568 466.547C511.479 466.285 511.348 466.049 511.174 465.841C511.004 465.631 510.801 465.453 510.563 465.307C510.326 465.161 510.067 465.05 509.787 464.975C509.277 464.839 508.78 464.844 508.297 464.991C507.816 465.138 507.386 465.43 507.007 465.867C506.631 466.305 506.345 466.888 506.15 467.618C505.954 468.348 505.91 468.997 506.017 469.563C506.127 470.131 506.353 470.599 506.695 470.967C507.04 471.336 507.468 471.589 507.979 471.726C508.258 471.801 508.538 471.834 508.816 471.827C509.095 471.819 509.36 471.768 509.612 471.674C509.867 471.577 510.098 471.438 510.306 471.255C510.517 471.071 510.692 470.841 510.83 470.566L511.851 470.84C511.659 471.25 511.416 471.598 511.121 471.884C510.827 472.17 510.497 472.392 510.131 472.55C509.766 472.705 509.379 472.794 508.97 472.817C508.564 472.84 508.148 472.795 507.723 472.681C507.004 472.488 506.411 472.141 505.946 471.64C505.48 471.139 505.173 470.521 505.026 469.788C504.878 469.054 504.924 468.243 505.162 467.354C505.4 466.464 505.767 465.739 506.261 465.178C506.756 464.616 507.33 464.235 507.984 464.033C508.638 463.832 509.324 463.828 510.043 464.02C510.469 464.134 510.851 464.303 511.191 464.527C511.534 464.751 511.825 465.023 512.063 465.342C512.301 465.659 512.476 466.015 512.588 466.41C512.701 466.802 512.738 467.225 512.698 467.679ZM512.663 473.881L514.357 467.559L515.296 467.81L515.04 468.765L515.106 468.783C515.305 468.501 515.581 468.303 515.935 468.189C516.289 468.075 516.656 468.069 517.035 468.17C517.106 468.189 517.195 468.215 517.301 468.246C517.407 468.277 517.487 468.303 517.541 468.323L517.276 469.311C517.245 469.294 517.173 469.262 517.059 469.214C516.949 469.163 516.83 469.121 516.701 469.087C516.393 469.004 516.102 468.995 515.826 469.059C515.553 469.122 515.317 469.247 515.116 469.434C514.92 469.62 514.783 469.855 514.707 470.14L513.635 474.141L512.663 473.881ZM518.797 475.683C518.396 475.576 518.053 475.403 517.767 475.165C517.481 474.924 517.281 474.633 517.166 474.294C517.052 473.951 517.05 473.574 517.16 473.163C517.257 472.8 517.407 472.526 517.61 472.339C517.814 472.15 518.053 472.022 518.326 471.957C518.599 471.892 518.888 471.867 519.193 471.881C519.502 471.893 519.808 471.919 520.112 471.959C520.51 472.013 520.831 472.059 521.076 472.099C521.325 472.136 521.513 472.138 521.64 472.104C521.769 472.071 521.855 471.976 521.897 471.82L521.905 471.787C522.014 471.381 521.988 471.036 521.826 470.751C521.666 470.467 521.363 470.265 520.916 470.145C520.452 470.021 520.061 470.025 519.743 470.158C519.426 470.29 519.182 470.457 519.013 470.659L518.18 470.083C518.447 469.743 518.747 469.502 519.079 469.362C519.414 469.219 519.756 469.149 520.106 469.152C520.458 469.152 520.794 469.195 521.112 469.28C521.315 469.335 521.542 469.422 521.792 469.542C522.046 469.66 522.276 469.826 522.484 470.041C522.694 470.256 522.841 470.535 522.925 470.878C523.01 471.221 522.985 471.644 522.85 472.146L521.734 476.312L520.763 476.051L520.992 475.195L520.943 475.182C520.84 475.301 520.691 475.419 520.495 475.534C520.3 475.649 520.06 475.728 519.775 475.769C519.491 475.81 519.164 475.782 518.797 475.683ZM519.179 474.85C519.563 474.953 519.907 474.965 520.211 474.884C520.517 474.805 520.77 474.664 520.968 474.461C521.169 474.259 521.305 474.026 521.376 473.763L521.614 472.874C521.56 472.912 521.457 472.933 521.306 472.937C521.159 472.938 520.99 472.93 520.801 472.912C520.615 472.891 520.434 472.869 520.258 472.846C520.086 472.82 519.946 472.8 519.838 472.786C519.576 472.751 519.326 472.741 519.087 472.757C518.851 472.77 518.646 472.831 518.473 472.941C518.303 473.048 518.185 473.225 518.119 473.472C518.028 473.81 518.085 474.098 518.288 474.338C518.495 474.576 518.792 474.747 519.179 474.85ZM525.859 477.558C525.332 477.417 524.903 477.159 524.571 476.785C524.24 476.408 524.025 475.945 523.929 475.395C523.832 474.843 523.874 474.232 524.053 473.563C524.231 472.898 524.5 472.353 524.858 471.925C525.217 471.498 525.635 471.205 526.112 471.048C526.59 470.891 527.095 470.883 527.627 471.026C528.039 471.136 528.346 471.292 528.548 471.493C528.753 471.692 528.896 471.895 528.976 472.102C529.059 472.307 529.122 472.474 529.164 472.602L529.246 472.624L530.08 469.513L531.051 469.773L528.792 478.203L527.854 477.951L528.114 476.98L527.999 476.949C527.897 477.045 527.756 477.163 527.577 477.304C527.399 477.441 527.17 477.546 526.889 477.618C526.609 477.687 526.265 477.667 525.859 477.558ZM526.225 476.721C526.614 476.825 526.971 476.812 527.294 476.681C527.618 476.547 527.899 476.318 528.136 475.993C528.374 475.666 528.556 475.263 528.684 474.786C528.811 474.314 528.853 473.882 528.811 473.492C528.769 473.098 528.64 472.767 528.424 472.497C528.209 472.225 527.904 472.035 527.509 471.93C527.097 471.819 526.726 471.833 526.395 471.971C526.067 472.107 525.787 472.336 525.553 472.659C525.323 472.979 525.148 473.362 525.029 473.806C524.909 474.256 524.868 474.684 524.906 475.088C524.949 475.491 525.076 475.837 525.29 476.126C525.507 476.414 525.819 476.612 526.225 476.721Z" fill="#E6E6E6"/>
<circle cx="458.133" cy="474.801" r="2" transform="rotate(15 458.133 474.801)" fill="#D9D9D9"/>
<circle cx="468.762" cy="477.648" r="2" transform="rotate(15 468.762 477.648)" fill="#D9D9D9"/>
<circle cx="479.387" cy="480.495" r="2" transform="rotate(15 479.387 480.495)" fill="#D9D9D9"/>
<circle cx="490.008" cy="483.342" r="2" transform="rotate(15 490.008 483.342)" fill="#D9D9D9"/>
<path d="M507.626 483.168L505.367 491.598L504.346 491.325L506.318 483.965L506.269 483.952L503.845 484.767L504.123 483.73L506.605 482.895L507.626 483.168ZM507.792 492.248L507.99 491.507L511.589 489.207C512.011 488.937 512.363 488.699 512.645 488.493C512.927 488.283 513.151 488.075 513.315 487.869C513.482 487.661 513.601 487.428 513.67 487.17C513.749 486.874 513.746 486.598 513.662 486.343C513.58 486.089 513.433 485.87 513.22 485.687C513.008 485.503 512.749 485.371 512.444 485.289C512.121 485.202 511.82 485.194 511.542 485.263C511.268 485.331 511.033 485.467 510.838 485.67C510.645 485.874 510.505 486.137 510.419 486.458L509.448 486.198C509.58 485.704 509.81 485.301 510.138 484.989C510.466 484.676 510.854 484.469 511.302 484.365C511.753 484.263 512.224 484.277 512.716 484.409C513.209 484.541 513.619 484.763 513.945 485.073C514.27 485.384 514.494 485.746 514.616 486.158C514.738 486.57 514.741 486.992 514.625 487.426C514.542 487.736 514.404 488.024 514.212 488.29C514.024 488.555 513.744 488.831 513.372 489.12C513.004 489.407 512.509 489.744 511.887 490.134L509.451 491.652L509.434 491.717L513.352 492.767L513.11 493.673L507.792 492.248ZM517.627 495.007C517.084 494.861 516.624 494.638 516.249 494.338C515.876 494.038 515.61 493.688 515.449 493.29C515.292 492.889 515.261 492.464 515.358 492.017L516.395 492.294C516.344 492.572 516.375 492.832 516.486 493.073C516.599 493.312 516.774 493.521 517.011 493.699C517.249 493.878 517.529 494.01 517.853 494.097C518.215 494.194 518.553 494.217 518.867 494.166C519.181 494.114 519.447 493.998 519.667 493.815C519.886 493.633 520.036 493.394 520.115 493.097C520.198 492.787 520.195 492.493 520.104 492.216C520.014 491.936 519.839 491.689 519.579 491.476C519.319 491.262 518.975 491.097 518.547 490.983L517.871 490.802L518.114 489.896L518.789 490.077C519.124 490.167 519.434 490.185 519.719 490.132C520.006 490.08 520.251 489.963 520.452 489.782C520.656 489.601 520.798 489.363 520.878 489.066C520.954 488.781 520.958 488.516 520.888 488.27C520.818 488.025 520.684 487.813 520.485 487.633C520.289 487.454 520.036 487.323 519.726 487.24C519.435 487.162 519.146 487.142 518.86 487.18C518.576 487.216 518.327 487.312 518.112 487.469C517.897 487.623 517.745 487.839 517.656 488.115L516.668 487.85C516.803 487.413 517.04 487.061 517.379 486.796C517.718 486.528 518.114 486.355 518.568 486.277C519.024 486.199 519.495 486.225 519.981 486.355C520.502 486.495 520.921 486.721 521.237 487.032C521.555 487.34 521.768 487.693 521.876 488.09C521.984 488.486 521.985 488.884 521.879 489.282C521.752 489.756 521.518 490.128 521.179 490.395C520.842 490.664 520.444 490.806 519.984 490.821L519.966 490.887C520.475 491.117 520.83 491.455 521.032 491.9C521.234 492.342 521.263 492.831 521.12 493.366C520.997 493.825 520.762 494.203 520.414 494.501C520.07 494.797 519.656 494.992 519.172 495.086C518.688 495.179 518.173 495.153 517.627 495.007ZM522.455 494.324L522.68 493.485L527.956 488.616L528.565 488.779L528.216 490.08L527.805 489.969L523.819 493.648L523.801 493.714L528.79 495.051L528.547 495.957L522.455 494.324ZM525.96 497.116L526.492 495.132L526.597 494.741L528.219 488.686L529.19 488.947L526.932 497.377L525.96 497.116Z" fill="#F0F0EF"/>
<path d="M532.618 559.068C531.998 558.901 531.515 558.591 531.169 558.137C530.824 557.679 530.623 557.098 530.565 556.391C530.508 555.682 530.602 554.869 530.848 553.952C531.092 553.041 531.416 552.294 531.819 551.711C532.226 551.126 532.693 550.722 533.22 550.498C533.751 550.273 534.324 550.242 534.939 550.407C535.554 550.572 536.033 550.884 536.377 551.344C536.725 551.802 536.928 552.386 536.985 553.095C537.045 553.802 536.953 554.612 536.709 555.523C536.464 556.439 536.139 557.19 535.735 557.776C535.332 558.359 534.866 558.763 534.339 558.986C533.812 559.207 533.238 559.234 532.618 559.068ZM532.861 558.162C533.476 558.327 534.033 558.158 534.532 557.657C535.031 557.155 535.427 556.356 535.721 555.258C535.917 554.528 536.005 553.886 535.986 553.33C535.97 552.776 535.853 552.326 535.634 551.979C535.418 551.633 535.107 551.405 534.701 551.296C534.091 551.133 533.535 551.306 533.031 551.815C532.527 552.321 532.129 553.122 531.836 554.217C531.64 554.947 531.551 555.587 531.568 556.139C531.585 556.691 531.702 557.138 531.918 557.481C532.138 557.826 532.452 558.052 532.861 558.162ZM542.117 552.331C542.462 552.426 542.791 552.585 543.102 552.806C543.413 553.028 543.671 553.326 543.876 553.702C544.082 554.075 544.203 554.541 544.238 555.1C544.274 555.66 544.188 556.327 543.981 557.1C543.78 557.85 543.53 558.496 543.232 559.039C542.936 559.581 542.603 560.015 542.23 560.341C541.86 560.669 541.458 560.885 541.024 560.989C540.593 561.094 540.14 561.083 539.665 560.956C539.193 560.829 538.797 560.623 538.477 560.337C538.16 560.049 537.928 559.706 537.782 559.308C537.639 558.908 537.594 558.477 537.647 558.015L538.652 558.284C538.639 558.695 538.733 559.063 538.934 559.388C539.139 559.71 539.463 559.931 539.908 560.05C540.558 560.224 541.147 560.078 541.676 559.611C542.206 559.144 542.611 558.392 542.889 557.355L542.823 557.337C542.608 557.527 542.372 557.677 542.116 557.787C541.859 557.898 541.59 557.964 541.308 557.986C541.026 558.007 540.739 557.979 540.448 557.901C539.965 557.772 539.554 557.533 539.215 557.187C538.879 556.838 538.646 556.421 538.517 555.937C538.392 555.45 538.402 554.935 538.548 554.392C538.686 553.876 538.928 553.435 539.273 553.068C539.621 552.7 540.04 552.445 540.528 552.302C541.019 552.16 541.549 552.169 542.117 552.331ZM541.875 553.236C541.529 553.144 541.194 553.147 540.871 553.245C540.551 553.342 540.271 553.514 540.031 553.761C539.795 554.007 539.63 554.305 539.535 554.656C539.441 555.008 539.433 555.348 539.509 555.677C539.589 556.005 539.741 556.289 539.964 556.531C540.191 556.772 540.477 556.938 540.823 557.031C541.083 557.101 541.34 557.115 541.592 557.074C541.845 557.03 542.079 556.941 542.294 556.807C542.513 556.672 542.701 556.503 542.858 556.301C543.016 556.096 543.128 555.869 543.195 555.619C543.283 555.29 543.286 554.96 543.204 554.629C543.125 554.299 542.971 554.008 542.742 553.755C542.515 553.503 542.226 553.33 541.875 553.236ZM549.738 554.073L544.317 563.438L543.428 563.199L548.849 553.834L549.738 554.073ZM548.509 563.202L548.707 562.461L552.306 560.161C552.728 559.891 553.08 559.653 553.362 559.446C553.645 559.237 553.868 559.029 554.032 558.823C554.2 558.615 554.318 558.382 554.387 558.124C554.466 557.828 554.464 557.552 554.379 557.297C554.297 557.043 554.15 556.824 553.937 556.64C553.725 556.457 553.466 556.324 553.162 556.243C552.838 556.156 552.537 556.148 552.26 556.217C551.986 556.285 551.751 556.421 551.555 556.624C551.362 556.828 551.223 557.091 551.137 557.412L550.165 557.152C550.298 556.658 550.528 556.255 550.855 555.943C551.183 555.63 551.571 555.423 552.019 555.319C552.47 555.216 552.942 555.231 553.433 555.363C553.927 555.495 554.336 555.716 554.662 556.027C554.988 556.338 555.211 556.699 555.333 557.111C555.455 557.524 555.458 557.946 555.342 558.38C555.259 558.69 555.121 558.978 554.929 559.244C554.741 559.509 554.461 559.785 554.09 560.074C553.722 560.36 553.227 560.698 552.605 561.088L550.169 562.605L550.151 562.671L554.069 563.721L553.827 564.627L548.509 563.202ZM558.13 565.903C557.647 565.774 557.238 565.561 556.903 565.266C556.567 564.97 556.328 564.623 556.184 564.226C556.041 563.829 556.015 563.413 556.108 562.979L557.096 563.244C557.032 563.636 557.12 563.998 557.361 564.33C557.605 564.66 557.942 564.882 558.373 564.998C558.719 565.091 559.048 565.092 559.36 565.002C559.675 564.913 559.947 564.748 560.177 564.506C560.41 564.263 560.574 563.961 560.671 563.602C560.769 563.234 560.776 562.884 560.691 562.553C560.61 562.219 560.452 561.932 560.217 561.689C559.982 561.447 559.685 561.276 559.326 561.177C559.069 561.105 558.793 561.074 558.5 561.083C558.207 561.09 557.956 561.133 557.746 561.212L556.822 560.841L558.444 556.829L562.824 558.002L562.581 558.908L559.058 557.964L558.095 560.371L558.145 560.384C558.354 560.293 558.602 560.237 558.886 560.216C559.171 560.196 559.455 560.223 559.738 560.299C560.254 560.437 560.68 560.684 561.018 561.039C561.358 561.392 561.587 561.812 561.703 562.299C561.823 562.787 561.809 563.304 561.663 563.85C561.519 564.388 561.269 564.836 560.915 565.194C560.563 565.55 560.145 565.793 559.66 565.925C559.175 566.054 558.665 566.047 558.13 565.903Z" fill="#F8F8FA"/>
<rect opacity="0.2" x="444.305" y="518.716" width="34" height="22" rx="4" transform="rotate(15 444.305 518.716)" fill="white"/>
</g>
<g filter="url(#filter2_d_2_729)">
<rect x="4" y="504" width="138" height="70" rx="10" fill="white"/>
<path d="M21.7102 557.454V542.909H22.642V557.454H21.7102ZM24.625 547.42C24.5644 546.882 24.3144 546.466 23.875 546.17C23.4356 545.871 22.8826 545.721 22.2159 545.721C21.7386 545.721 21.3258 545.797 20.9773 545.949C20.6288 546.096 20.358 546.301 20.1648 546.562C19.9754 546.82 19.8807 547.113 19.8807 547.443C19.8807 547.719 19.9451 547.958 20.0739 548.159C20.2064 548.36 20.3788 548.528 20.5909 548.665C20.8068 548.797 21.0379 548.909 21.2841 549C21.5303 549.087 21.767 549.159 21.9943 549.216L23.1307 549.511C23.5019 549.602 23.8826 549.725 24.2727 549.88C24.6629 550.036 25.0246 550.24 25.358 550.494C25.6913 550.748 25.9602 551.062 26.1648 551.437C26.3731 551.812 26.4773 552.261 26.4773 552.784C26.4773 553.443 26.3068 554.028 25.9659 554.54C25.6288 555.051 25.1383 555.454 24.4943 555.75C23.8542 556.045 23.0795 556.193 22.1705 556.193C21.2992 556.193 20.5455 556.055 19.9091 555.778C19.2727 555.502 18.7746 555.11 18.4148 554.602C18.0549 554.091 17.8561 553.485 17.8182 552.784H19.5795C19.6136 553.204 19.75 553.555 19.9886 553.835C20.2311 554.111 20.5398 554.318 20.9148 554.454C21.2936 554.587 21.7083 554.653 22.1591 554.653C22.6553 554.653 23.0966 554.576 23.483 554.42C23.8731 554.261 24.1799 554.041 24.4034 553.761C24.6269 553.477 24.7386 553.146 24.7386 552.767C24.7386 552.422 24.6402 552.14 24.4432 551.92C24.25 551.701 23.9867 551.519 23.6534 551.375C23.3239 551.231 22.9508 551.104 22.5341 550.994L21.1591 550.619C20.2273 550.365 19.4886 549.992 18.9432 549.5C18.4015 549.007 18.1307 548.356 18.1307 547.545C18.1307 546.875 18.3125 546.29 18.6761 545.79C19.0398 545.29 19.5322 544.901 20.1534 544.625C20.7746 544.344 21.4754 544.204 22.2557 544.204C23.0436 544.204 23.7386 544.343 24.3409 544.619C24.947 544.896 25.4242 545.276 25.7727 545.761C26.1212 546.242 26.303 546.795 26.3182 547.42H24.625ZM28.4162 556V554.727L32.3537 550.647C32.7741 550.204 33.1207 549.816 33.3935 549.483C33.67 549.146 33.8764 548.826 34.0128 548.522C34.1491 548.219 34.2173 547.897 34.2173 547.557C34.2173 547.17 34.1264 546.837 33.9446 546.557C33.7628 546.272 33.5147 546.055 33.2003 545.903C32.8859 545.748 32.5317 545.67 32.1378 545.67C31.7211 545.67 31.3575 545.755 31.0469 545.926C30.7363 546.096 30.4976 546.337 30.331 546.647C30.1643 546.958 30.081 547.322 30.081 547.738H28.4048C28.4048 547.03 28.5677 546.411 28.8935 545.88C29.2192 545.35 29.6662 544.939 30.2344 544.647C30.8026 544.352 31.4484 544.204 32.1719 544.204C32.9029 544.204 33.5469 544.35 34.1037 544.642C34.6643 544.93 35.1018 545.324 35.4162 545.824C35.7306 546.32 35.8878 546.88 35.8878 547.505C35.8878 547.937 35.8063 548.36 35.6435 548.772C35.4844 549.185 35.206 549.646 34.8082 550.153C34.4105 550.657 33.8575 551.269 33.1491 551.988L30.8366 554.409V554.494H36.0753V556H28.4162ZM37.7344 553.727V552.307L42.7628 544.363H43.8821V546.454H43.1719L39.5753 552.147V552.238H46.4673V553.727H37.7344ZM43.2514 556V553.295L43.2628 552.647V544.363H44.9276V556H43.2514ZM52.2884 556.159C51.5762 556.159 50.9361 556.022 50.3679 555.75C49.8035 555.473 49.3527 555.094 49.0156 554.613C48.6785 554.132 48.4986 553.583 48.4759 552.966H50.1804C50.2221 553.466 50.4437 553.877 50.8452 554.199C51.2467 554.521 51.7277 554.682 52.2884 554.682C52.7353 554.682 53.1312 554.579 53.4759 554.375C53.8243 554.166 54.0971 553.88 54.294 553.517C54.4948 553.153 54.5952 552.738 54.5952 552.272C54.5952 551.799 54.4929 551.377 54.2884 551.005C54.0838 550.634 53.8016 550.343 53.4418 550.13C53.0857 549.918 52.6766 549.81 52.2145 549.807C51.8622 549.807 51.508 549.867 51.152 549.988C50.7959 550.11 50.508 550.269 50.2884 550.466L48.6804 550.227L49.3338 544.363H55.7315V545.869H50.794L50.4247 549.125H50.4929C50.7202 548.905 51.0213 548.721 51.3963 548.574C51.7751 548.426 52.1804 548.352 52.6122 548.352C53.3205 548.352 53.9512 548.521 54.5043 548.858C55.0611 549.195 55.4986 549.655 55.8168 550.238C56.1387 550.818 56.2978 551.485 56.294 552.238C56.2978 552.992 56.1274 553.665 55.7827 554.255C55.4418 554.846 54.9683 555.312 54.3622 555.653C53.7599 555.99 53.0687 556.159 52.2884 556.159ZM59.0895 556.108C58.7789 556.108 58.5118 555.998 58.2884 555.778C58.0649 555.555 57.9531 555.286 57.9531 554.971C57.9531 554.661 58.0649 554.396 58.2884 554.176C58.5118 553.952 58.7789 553.841 59.0895 553.841C59.4001 553.841 59.6671 553.952 59.8906 554.176C60.1141 554.396 60.2259 554.661 60.2259 554.971C60.2259 555.18 60.1728 555.371 60.0668 555.545C59.9645 555.716 59.8281 555.852 59.6577 555.954C59.4872 556.057 59.2978 556.108 59.0895 556.108ZM66.108 556.193C65.2102 556.189 64.4432 555.952 63.8068 555.483C63.1705 555.013 62.6837 554.329 62.3466 553.432C62.0095 552.534 61.8409 551.452 61.8409 550.187C61.8409 548.926 62.0095 547.848 62.3466 546.954C62.6875 546.06 63.1761 545.379 63.8125 544.909C64.4527 544.439 65.2178 544.204 66.108 544.204C66.9981 544.204 67.7614 544.441 68.3977 544.915C69.0341 545.384 69.5208 546.066 69.858 546.96C70.1989 547.85 70.3693 548.926 70.3693 550.187C70.3693 551.456 70.2008 552.54 69.8636 553.437C69.5265 554.331 69.0398 555.015 68.4034 555.488C67.767 555.958 67.0019 556.193 66.108 556.193ZM66.108 554.676C66.8958 554.676 67.5114 554.291 67.9545 553.522C68.4015 552.754 68.625 551.642 68.625 550.187C68.625 549.221 68.5227 548.405 68.3182 547.738C68.1174 547.068 67.8277 546.56 67.4489 546.216C67.0739 545.867 66.6269 545.693 66.108 545.693C65.3239 545.693 64.7083 546.079 64.2614 546.852C63.8144 547.625 63.589 548.736 63.5852 550.187C63.5852 551.157 63.6856 551.977 63.8864 552.647C64.0909 553.314 64.3807 553.82 64.7557 554.165C65.1307 554.505 65.5814 554.676 66.108 554.676ZM76.4361 556.193C75.5384 556.189 74.7713 555.952 74.1349 555.483C73.4986 555.013 73.0118 554.329 72.6747 553.432C72.3376 552.534 72.169 551.452 72.169 550.187C72.169 548.926 72.3376 547.848 72.6747 546.954C73.0156 546.06 73.5043 545.379 74.1406 544.909C74.7808 544.439 75.5459 544.204 76.4361 544.204C77.3262 544.204 78.0895 544.441 78.7259 544.915C79.3622 545.384 79.849 546.066 80.1861 546.96C80.527 547.85 80.6974 548.926 80.6974 550.187C80.6974 551.456 80.5289 552.54 80.1918 553.437C79.8546 554.331 79.3679 555.015 78.7315 555.488C78.0952 555.958 77.33 556.193 76.4361 556.193ZM76.4361 554.676C77.224 554.676 77.8395 554.291 78.2827 553.522C78.7296 552.754 78.9531 551.642 78.9531 550.187C78.9531 549.221 78.8509 548.405 78.6463 547.738C78.4455 547.068 78.1558 546.56 77.777 546.216C77.402 545.867 76.955 545.693 76.4361 545.693C75.652 545.693 75.0365 546.079 74.5895 546.852C74.1425 547.625 73.9171 548.736 73.9134 550.187C73.9134 551.157 74.0137 551.977 74.2145 552.647C74.419 553.314 74.7088 553.82 75.0838 554.165C75.4588 554.505 75.9096 554.676 76.4361 554.676Z" fill="black"/>
<path d="M16.5795 521.21V520.272H23.125V521.21H20.3807V529H19.3239V521.21H16.5795ZM26.3295 529.136C25.7386 529.136 25.2202 528.995 24.7741 528.714C24.331 528.433 23.9844 528.04 23.7344 527.534C23.4872 527.028 23.3636 526.437 23.3636 525.761C23.3636 525.079 23.4872 524.484 23.7344 523.976C23.9844 523.467 24.331 523.072 24.7741 522.791C25.2202 522.51 25.7386 522.369 26.3295 522.369C26.9205 522.369 27.4375 522.51 27.8807 522.791C28.3267 523.072 28.6733 523.467 28.9205 523.976C29.1705 524.484 29.2955 525.079 29.2955 525.761C29.2955 526.437 29.1705 527.028 28.9205 527.534C28.6733 528.04 28.3267 528.433 27.8807 528.714C27.4375 528.995 26.9205 529.136 26.3295 529.136ZM26.3295 528.233C26.7784 528.233 27.1477 528.118 27.4375 527.888C27.7273 527.657 27.9418 527.355 28.081 526.98C28.2202 526.605 28.2898 526.199 28.2898 525.761C28.2898 525.324 28.2202 524.916 28.081 524.538C27.9418 524.16 27.7273 523.855 27.4375 523.622C27.1477 523.389 26.7784 523.272 26.3295 523.272C25.8807 523.272 25.5114 523.389 25.2216 523.622C24.9318 523.855 24.7173 524.16 24.5781 524.538C24.4389 524.916 24.3693 525.324 24.3693 525.761C24.3693 526.199 24.4389 526.605 24.5781 526.98C24.7173 527.355 24.9318 527.657 25.2216 527.888C25.5114 528.118 25.8807 528.233 26.3295 528.233ZM33.6772 522.454V523.307H30.2852V522.454H33.6772ZM31.2738 520.886H32.2795V527.125C32.2795 527.409 32.3207 527.622 32.4031 527.764C32.4883 527.903 32.5962 527.997 32.7269 528.045C32.8604 528.091 33.0011 528.113 33.1488 528.113C33.2596 528.113 33.3505 528.108 33.4215 528.096C33.4925 528.082 33.5494 528.071 33.592 528.062L33.7965 528.966C33.7283 528.991 33.6332 529.017 33.511 529.042C33.3888 529.071 33.234 529.085 33.0465 529.085C32.7624 529.085 32.484 529.024 32.2113 528.902C31.9414 528.78 31.717 528.594 31.538 528.344C31.3619 528.094 31.2738 527.778 31.2738 527.397V520.886ZM37.1161 529.153C36.7013 529.153 36.3249 529.075 35.9869 528.919C35.6488 528.76 35.3803 528.531 35.1815 528.233C34.9826 527.932 34.8832 527.568 34.8832 527.142C34.8832 526.767 34.957 526.463 35.1048 526.23C35.2525 525.994 35.4499 525.809 35.6971 525.676C35.9442 525.542 36.217 525.443 36.5153 525.378C36.8164 525.309 37.119 525.255 37.4229 525.216C37.8207 525.165 38.1431 525.126 38.3903 525.101C38.6403 525.072 38.8221 525.025 38.9357 524.96C39.0522 524.895 39.1104 524.781 39.1104 524.619V524.585C39.1104 524.165 38.9954 523.838 38.7653 523.605C38.538 523.372 38.1928 523.255 37.7298 523.255C37.2496 523.255 36.8732 523.361 36.6005 523.571C36.3278 523.781 36.136 524.005 36.0252 524.244L35.0707 523.903C35.2411 523.505 35.4684 523.196 35.7525 522.974C36.0394 522.75 36.3519 522.594 36.69 522.505C37.0309 522.415 37.3661 522.369 37.6957 522.369C37.9059 522.369 38.1474 522.395 38.4201 522.446C38.6957 522.494 38.9613 522.595 39.217 522.748C39.4755 522.902 39.69 523.133 39.8604 523.443C40.0309 523.753 40.1161 524.167 40.1161 524.687V529H39.1104V528.113H39.0593C38.9911 528.255 38.8775 528.407 38.7184 528.569C38.5593 528.731 38.3477 528.869 38.0835 528.983C37.8192 529.096 37.4968 529.153 37.1161 529.153ZM37.2695 528.25C37.6673 528.25 38.0025 528.172 38.2752 528.015C38.5508 527.859 38.7582 527.657 38.8974 527.41C39.0394 527.163 39.1104 526.903 39.1104 526.63V525.71C39.0678 525.761 38.9741 525.808 38.8292 525.851C38.6871 525.89 38.5224 525.926 38.3349 525.957C38.1502 525.986 37.9698 526.011 37.7937 526.034C37.6204 526.054 37.4798 526.071 37.3718 526.085C37.1104 526.119 36.8661 526.174 36.6388 526.251C36.4144 526.325 36.2326 526.437 36.0934 526.588C35.957 526.736 35.8888 526.937 35.8888 527.193C35.8888 527.542 36.0181 527.807 36.2766 527.986C36.538 528.162 36.869 528.25 37.2695 528.25ZM42.9574 520.272V529H41.9517V520.272H42.9574ZM49.3675 520.272V529H48.3107V520.272H49.3675ZM52.3558 525.062V529H51.3501V522.454H52.3217V523.477H52.407C52.5604 523.145 52.7933 522.878 53.1058 522.676C53.4183 522.471 53.8217 522.369 54.3161 522.369C54.7592 522.369 55.147 522.46 55.4794 522.642C55.8118 522.821 56.0703 523.094 56.255 523.46C56.4396 523.824 56.532 524.284 56.532 524.841V529H55.5263V524.909C55.5263 524.395 55.3928 523.994 55.1257 523.707C54.8587 523.417 54.4922 523.272 54.0263 523.272C53.7053 523.272 53.4183 523.342 53.1655 523.481C52.9155 523.62 52.718 523.824 52.5732 524.091C52.4283 524.358 52.3558 524.682 52.3558 525.062ZM61.0288 529.136C60.4151 529.136 59.8867 528.991 59.4435 528.701C59.0004 528.412 58.6594 528.013 58.4208 527.504C58.1822 526.995 58.0629 526.415 58.0629 525.761C58.0629 525.096 58.185 524.51 58.4293 524.001C58.6765 523.49 59.0202 523.091 59.4606 522.804C59.9038 522.514 60.4208 522.369 61.0117 522.369C61.4719 522.369 61.8867 522.454 62.256 522.625C62.6254 522.795 62.9279 523.034 63.1637 523.341C63.3995 523.647 63.5458 524.005 63.6026 524.415H62.5969C62.5202 524.116 62.3498 523.852 62.0856 523.622C61.8242 523.389 61.4719 523.272 61.0288 523.272C60.6367 523.272 60.293 523.375 59.9975 523.579C59.7049 523.781 59.4762 524.067 59.3114 524.436C59.1495 524.802 59.0685 525.233 59.0685 525.727C59.0685 526.233 59.1481 526.673 59.3072 527.048C59.4691 527.423 59.6964 527.714 59.989 527.922C60.2844 528.129 60.631 528.233 61.0288 528.233C61.2901 528.233 61.5273 528.187 61.7404 528.096C61.9535 528.005 62.1339 527.875 62.2816 527.704C62.4293 527.534 62.5344 527.329 62.5969 527.091H63.6026C63.5458 527.477 63.4052 527.825 63.1808 528.135C62.9592 528.442 62.6651 528.686 62.2987 528.868C61.935 529.047 61.5117 529.136 61.0288 529.136ZM67.7319 529.136C67.141 529.136 66.6225 528.995 66.1765 528.714C65.7333 528.433 65.3867 528.04 65.1367 527.534C64.8896 527.028 64.766 526.437 64.766 525.761C64.766 525.079 64.8896 524.484 65.1367 523.976C65.3867 523.467 65.7333 523.072 66.1765 522.791C66.6225 522.51 67.141 522.369 67.7319 522.369C68.3228 522.369 68.8398 522.51 69.283 522.791C69.729 523.072 70.0756 523.467 70.3228 523.976C70.5728 524.484 70.6978 525.079 70.6978 525.761C70.6978 526.437 70.5728 527.028 70.3228 527.534C70.0756 528.04 69.729 528.433 69.283 528.714C68.8398 528.995 68.3228 529.136 67.7319 529.136ZM67.7319 528.233C68.1808 528.233 68.5501 528.118 68.8398 527.888C69.1296 527.657 69.3441 527.355 69.4833 526.98C69.6225 526.605 69.6921 526.199 69.6921 525.761C69.6921 525.324 69.6225 524.916 69.4833 524.538C69.3441 524.16 69.1296 523.855 68.8398 523.622C68.5501 523.389 68.1808 523.272 67.7319 523.272C67.283 523.272 66.9137 523.389 66.6239 523.622C66.3342 523.855 66.1197 524.16 65.9805 524.538C65.8413 524.916 65.7717 525.324 65.7717 525.761C65.7717 526.199 65.8413 526.605 65.9805 526.98C66.1197 527.355 66.3342 527.657 66.6239 527.888C66.9137 528.118 67.283 528.233 67.7319 528.233ZM72.233 529V522.454H73.2045V523.477H73.2898C73.4261 523.128 73.6463 522.856 73.9503 522.663C74.2543 522.467 74.6193 522.369 75.0455 522.369C75.4773 522.369 75.8366 522.467 76.1236 522.663C76.4134 522.856 76.6392 523.128 76.8011 523.477H76.8693C77.0369 523.139 77.2884 522.87 77.6236 522.672C77.9588 522.47 78.3608 522.369 78.8295 522.369C79.4148 522.369 79.8935 522.552 80.2656 522.919C80.6378 523.282 80.8239 523.849 80.8239 524.619V529H79.8182V524.619C79.8182 524.136 79.6861 523.791 79.4219 523.584C79.1577 523.376 78.8466 523.272 78.4886 523.272C78.0284 523.272 77.6719 523.412 77.419 523.69C77.1662 523.966 77.0398 524.315 77.0398 524.738V529H76.017V524.517C76.017 524.145 75.8963 523.845 75.6548 523.618C75.4134 523.388 75.1023 523.272 74.7216 523.272C74.4602 523.272 74.2159 523.342 73.9886 523.481C73.7642 523.62 73.5824 523.814 73.4432 524.061C73.3068 524.305 73.2386 524.588 73.2386 524.909V529H72.233ZM85.407 529.136C84.7763 529.136 84.2322 528.997 83.7749 528.719C83.3203 528.437 82.9695 528.045 82.7223 527.542C82.478 527.037 82.3558 526.449 82.3558 525.778C82.3558 525.108 82.478 524.517 82.7223 524.005C82.9695 523.491 83.3132 523.091 83.7536 522.804C84.1967 522.514 84.7138 522.369 85.3047 522.369C85.6456 522.369 85.9822 522.426 86.3146 522.54C86.647 522.653 86.9496 522.838 87.2223 523.094C87.495 523.346 87.7124 523.682 87.8743 524.099C88.0362 524.517 88.1172 525.031 88.1172 525.642V526.068H83.0717V525.199H87.0945C87.0945 524.829 87.0206 524.5 86.8729 524.21C86.728 523.92 86.5206 523.692 86.2507 523.524C85.9837 523.356 85.6683 523.272 85.3047 523.272C84.9041 523.272 84.5575 523.372 84.2649 523.571C83.9751 523.767 83.7521 524.022 83.5959 524.338C83.4396 524.653 83.3615 524.991 83.3615 525.352V525.932C83.3615 526.426 83.4467 526.845 83.6172 527.189C83.7905 527.53 84.0305 527.79 84.3374 527.969C84.6442 528.145 85.0007 528.233 85.407 528.233C85.6712 528.233 85.9098 528.196 86.1229 528.122C86.3388 528.045 86.5249 527.932 86.6811 527.781C86.8374 527.628 86.9581 527.437 87.0433 527.21L88.0149 527.483C87.9126 527.812 87.7408 528.102 87.4993 528.352C87.2578 528.599 86.9595 528.792 86.6044 528.932C86.2493 529.068 85.8501 529.136 85.407 529.136Z" fill="#A9A7B6"/>
<path d="M125 556.666V548.333" stroke="#FF0000" stroke-width="1.66667" stroke-linecap="round" stroke-linejoin="round"/>
<path d="M120 556.666V543.333" stroke="#FF0000" stroke-width="1.66667" stroke-linecap="round" stroke-linejoin="round"/>
<path d="M115 556.666V551.666" stroke="#FF0000" stroke-width="1.66667" stroke-linecap="round" stroke-linejoin="round"/>
</g>
<path d="M560.588 277.012C559.159 271.677 562.325 266.194 567.659 264.765L586.978 259.588C592.312 258.159 597.796 261.325 599.225 266.659L604.402 285.978C605.831 291.312 602.665 296.796 597.331 298.225L578.012 303.402C572.677 304.831 567.194 301.665 565.765 296.331L560.588 277.012Z" fill="#4535AF"/>
<path d="M575 285L581.174 289L589 281" stroke="white" stroke-width="2"/>
<defs>
<filter id="filter0_f_2_729" x="79" y="101.284" width="67" height="24.3725" filterUnits="userSpaceOnUse" color-interpolation-filters="sRGB">
<feFlood flood-opacity="0" result="BackgroundImageFix"/>
<feBlend mode="normal" in="SourceGraphic" in2="BackgroundImageFix" result="shape"/>
<feGaussianBlur stdDeviation="2" result="effect1_foregroundBlur_2_729"/>
</filter>
<filter id="filter1_f_2_729" x="62" y="433" width="258" height="13" filterUnits="userSpaceOnUse" color-interpolation-filters="sRGB">
<feFlood flood-opacity="0" result="BackgroundImageFix"/>
<feBlend mode="normal" in="SourceGraphic" in2="BackgroundImageFix" result="shape"/>
<feGaussianBlur stdDeviation="2" result="effect1_foregroundBlur_2_729"/>
</filter>
<filter id="filter2_d_2_729" x="0" y="504" width="146" height="78" filterUnits="userSpaceOnUse" color-interpolation-filters="sRGB">
<feFlood flood-opacity="0" result="BackgroundImageFix"/>
<feColorMatrix in="SourceAlpha" type="matrix" values="0 0 0 0 0 0 0 0 0 0 0 0 0 0 0 0 0 0 127 0" result="hardAlpha"/>
<feOffset dy="4"/>
<feGaussianBlur stdDeviation="2"/>
<feComposite in2="hardAlpha" operator="out"/>
<feColorMatrix type="matrix" values="0 0 0 0 0 0 0 0 0 0 0 0 0 0 0 0 0 0 0.35 0"/>
<feBlend mode="normal" in2="BackgroundImageFix" result="effect1_dropShadow_2_729"/>
<feBlend mode="normal" in="SourceGraphic" in2="effect1_dropShadow_2_729" result="shape"/>
</filter>
<clipPath id="clip0_2_729">
<rect width="324" height="257" fill="white" transform="translate(64)"/>
</clipPath>
<clipPath id="clip1_2_729">
<rect width="410" height="526" rx="10" transform="matrix(-0.000533415 -1 -1 0.000533415 558.219 537)" fill="white"/>
</clipPath>
<clipPath id="clip2_2_729">
<rect width="20" height="20" fill="white" transform="translate(313.422 561.248) rotate(15)"/>
</clipPath>
<clipPath id="clip3_2_729">
<rect width="20" height="20" fill="white" transform="translate(487.93 126.752) rotate(15)"/>
</clipPath>
<clipPath id="clip4_2_729">
<rect x="471.656" y="378" width="146" height="188" rx="10" transform="rotate(15 471.656 378)" fill="white"/>
</clipPath>
</defs>
</svg>
