<svg width="20" height="20" viewBox="0 0 20 20" fill="none" xmlns="http://www.w3.org/2000/svg">
<path d="M7.18578 16.5625H3.23828V19.0625H7.18578V16.5625Z" fill="#4C5C68"/>
<path d="M6.85797 15.625C6.85719 15.1385 6.74238 14.6589 6.52275 14.2247C6.30312 13.7905 5.98478 13.4139 5.59328 13.125L5.1039 12.1563C5.06042 12.0714 4.99428 12.0001 4.91281 11.9505C4.83135 11.9009 4.73774 11.8747 4.64234 11.875C4.56648 11.8744 4.49145 11.8907 4.42267 11.9227C4.35388 11.9547 4.29308 12.0016 4.24465 12.06C4.19622 12.1184 4.16139 12.1868 4.14266 12.2603C4.12394 12.3338 4.1218 12.4106 4.1364 12.485L4.32922 13.4375L4.9614 14.6875C4.27233 14.3001 3.67847 13.7637 3.22319 13.1175C2.76791 12.4712 2.4627 11.7315 2.32984 10.9522L2.20484 10.215C2.17904 10.067 2.10176 9.93291 1.98664 9.83638C1.87153 9.73985 1.726 9.68712 1.57578 9.68751C1.48577 9.68692 1.39667 9.70549 1.3144 9.74199C1.23213 9.77849 1.15858 9.8321 1.09862 9.89923C1.03867 9.96636 0.993703 10.0455 0.966703 10.1314C0.939702 10.2172 0.931291 10.3078 0.942028 10.3972L1.12453 11.8288C1.35954 13.673 2.27745 15.362 3.69703 16.5625H6.85797V15.625Z" fill="#FBD1A2"/>
<path d="M12.8142 19.0625H16.7617V16.5625H12.8142V19.0625Z" fill="#4C5C68"/>
<path d="M13.1406 15.625C13.1414 15.1385 13.2562 14.6589 13.4758 14.2247C13.6955 13.7905 14.0138 13.4139 14.4053 13.125L14.8947 12.1563C14.9382 12.0714 15.0043 12.0001 15.0858 11.9505C15.1672 11.9009 15.2609 11.8747 15.3563 11.875C15.4321 11.8744 15.5071 11.8907 15.5759 11.9227C15.6447 11.9547 15.7055 12.0016 15.7539 12.06C15.8024 12.1184 15.8372 12.1868 15.8559 12.2603C15.8746 12.3338 15.8768 12.4106 15.8622 12.485L15.6694 13.4375L15.0372 14.6875C15.7263 14.3001 16.3201 13.7637 16.7754 13.1175C17.2307 12.4712 17.5359 11.7315 17.6687 10.9522L17.7937 10.215C17.8195 10.067 17.8968 9.93291 18.0119 9.83638C18.1271 9.73985 18.2726 9.68712 18.4228 9.68751C18.5128 9.68692 18.6019 9.70549 18.6842 9.74199C18.7665 9.77849 18.84 9.8321 18.9 9.89923C18.9599 9.96636 19.0049 10.0455 19.0319 10.1314C19.0589 10.2172 19.0673 10.3078 19.0566 10.3972L18.8756 11.8288C18.6402 13.6732 17.7217 15.3623 16.3016 16.5625H13.1406V15.625Z" fill="#FBD1A2"/>
<path d="M14.0625 0.9375H5.9375V10.9375H14.0625V0.9375Z" fill="#C5C3C6"/>
<path d="M8.4375 4.0625H9.0625C9.39402 4.0625 9.71196 4.1942 9.94638 4.42862C10.1808 4.66304 10.3125 4.98098 10.3125 5.3125H7.1875C7.1875 4.98098 7.3192 4.66304 7.55362 4.42862C7.78804 4.1942 8.10598 4.0625 8.4375 4.0625Z" fill="#FBD1A2"/>
<path d="M8.75 3.4375C9.09518 3.4375 9.375 3.15768 9.375 2.8125C9.375 2.46732 9.09518 2.1875 8.75 2.1875C8.40482 2.1875 8.125 2.46732 8.125 2.8125C8.125 3.15768 8.40482 3.4375 8.75 3.4375Z" fill="#FBD1A2"/>
<path d="M2.51431 10.1631C2.48311 9.98638 2.40268 9.82202 2.28225 9.68894C2.16182 9.55586 2.00628 9.45946 1.83351 9.41083C1.66075 9.36219 1.47776 9.36329 1.3056 9.41401C1.13343 9.46472 0.979063 9.56298 0.860245 9.6975C0.7719 9.79759 0.70589 9.91536 0.666609 10.043C0.627328 10.1706 0.615677 10.3051 0.632432 10.4375L0.812432 11.8678C1.0281 13.5651 1.80204 15.1424 3.01243 16.3516C2.95849 16.4086 2.92822 16.484 2.92775 16.5625V19.0625C2.92775 19.1454 2.96067 19.2249 3.01927 19.2835C3.07788 19.3421 3.15737 19.375 3.24025 19.375H7.18743C7.27031 19.375 7.3498 19.3421 7.4084 19.2835C7.46701 19.2249 7.49993 19.1454 7.49993 19.0625V16.5625C7.49993 16.4796 7.46701 16.4001 7.4084 16.3415C7.3498 16.2829 7.27031 16.25 7.18743 16.25H7.17087V15.625C7.16891 15.1027 7.04811 14.5877 6.81763 14.119C6.58715 13.6503 6.25302 13.2401 5.84056 12.9197L5.38368 12.0159C5.32085 11.893 5.2284 11.7876 5.11466 11.7092C5.00092 11.6309 4.86947 11.5822 4.73217 11.5673C4.59487 11.5525 4.45605 11.5721 4.32821 11.6243C4.20038 11.6766 4.08756 11.7598 3.99993 11.8666C3.92293 11.9603 3.86779 12.07 3.83855 12.1878C3.8093 12.3055 3.80668 12.4283 3.83087 12.5472L4.02337 13.4994C4.02904 13.5268 4.03829 13.5534 4.05087 13.5784L4.08618 13.6481C3.32158 12.911 2.81404 11.9477 2.63837 10.9003L2.51431 10.1631ZM6.87493 16.875V18.75H3.55275V16.875H6.87493ZM4.80837 14.9597C4.86676 14.9926 4.9342 15.0059 5.00073 14.9976C5.06726 14.9893 5.12935 14.9598 5.17783 14.9135C5.22631 14.8672 5.25862 14.8065 5.26997 14.7405C5.28132 14.6744 5.27112 14.6064 5.24087 14.5466L4.62775 13.3341L4.44337 12.4231C4.43753 12.395 4.43812 12.3659 4.4451 12.338C4.45208 12.3102 4.46527 12.2842 4.48368 12.2622C4.5054 12.236 4.53324 12.2156 4.56474 12.2028C4.59624 12.19 4.63042 12.1851 4.66424 12.1887C4.69806 12.1922 4.73048 12.2041 4.75862 12.2232C4.78677 12.2423 4.80976 12.268 4.82556 12.2981L5.31525 13.2669C5.33747 13.3104 5.36958 13.348 5.409 13.3769C5.76009 13.6376 6.04562 13.9764 6.24296 14.3667C6.44029 14.7569 6.544 15.1877 6.54587 15.625V16.25H3.81243C2.49888 15.1055 1.65211 13.5178 1.43337 11.7894L1.25243 10.3581C1.24675 10.3138 1.25065 10.2688 1.26386 10.2261C1.27707 10.1834 1.29928 10.144 1.32899 10.1106C1.36974 10.0647 1.42252 10.0311 1.48137 10.0137C1.54022 9.9962 1.60278 9.99557 1.66198 10.0118C1.72117 10.0281 1.77462 10.0606 1.81629 10.1057C1.85796 10.1507 1.88618 10.2066 1.89774 10.2669L2.02274 11.0044C2.16184 11.83 2.4843 12.6139 2.96638 13.2984C3.44846 13.9829 4.0779 14.5506 4.80837 14.9597ZM19.1396 9.6975C19.0208 9.56298 18.8664 9.46472 18.6943 9.41401C18.5221 9.36329 18.3391 9.36219 18.1664 9.41083C17.9936 9.45946 17.838 9.55586 17.7176 9.68894C17.5972 9.82202 17.5168 9.98638 17.4856 10.1631L17.3606 10.9003C17.1849 11.9477 16.6773 12.911 15.9127 13.6481L15.9481 13.5784C15.9606 13.5534 15.9699 13.5268 15.9756 13.4994L16.1681 12.5472C16.1923 12.4283 16.1896 12.3055 16.1604 12.1878C16.1311 12.07 16.076 11.9603 15.999 11.8666C15.9114 11.7598 15.7986 11.6766 15.6707 11.6243C15.5429 11.5721 15.4041 11.5525 15.2668 11.5673C15.1295 11.5822 14.998 11.6309 14.8843 11.7092C14.7705 11.7876 14.6781 11.893 14.6152 12.0159L14.1593 12.9197C13.7468 13.2401 13.4127 13.6503 13.1822 14.119C12.9518 14.5877 12.831 15.1027 12.829 15.625V16.25H12.8124C12.7296 16.25 12.6501 16.2829 12.5915 16.3415C12.5329 16.4001 12.4999 16.4796 12.4999 16.5625V19.0625C12.4999 19.1454 12.5329 19.2249 12.5915 19.2835C12.6501 19.3421 12.7296 19.375 12.8124 19.375H16.7596C16.8425 19.375 16.922 19.3421 16.9806 19.2835C17.0392 19.2249 17.0721 19.1454 17.0721 19.0625V16.5625C17.0716 16.484 17.0414 16.4086 16.9874 16.3516C18.1978 15.1424 18.9718 13.5651 19.1874 11.8678L19.3684 10.4362C19.3848 10.3039 19.3729 10.1696 19.3335 10.0423C19.294 9.91489 19.228 9.79737 19.1396 9.6975ZM16.4471 18.75H13.1249V16.875H16.4471V18.75ZM18.5665 11.7894C18.3478 13.5178 17.501 15.1055 16.1874 16.25H13.454V15.625C13.4557 15.1873 13.5594 14.7561 13.7569 14.3655C13.9544 13.9749 14.2403 13.6358 14.5918 13.375C14.6312 13.3462 14.6633 13.3085 14.6856 13.265L15.1752 12.2962C15.191 12.2661 15.214 12.2404 15.2422 12.2213C15.2703 12.2022 15.3027 12.1903 15.3366 12.1868C15.3704 12.1832 15.4046 12.1881 15.4361 12.2009C15.4676 12.2137 15.4954 12.2341 15.5171 12.2603C15.5355 12.2824 15.5487 12.3083 15.5557 12.3362C15.5627 12.364 15.5633 12.3931 15.5574 12.4213L15.3731 13.3322L14.7599 14.5447C14.7297 14.6045 14.7195 14.6725 14.7308 14.7386C14.7422 14.8047 14.7745 14.8653 14.823 14.9116C14.8715 14.958 14.9335 14.9874 15.0001 14.9958C15.0666 15.0041 15.134 14.9908 15.1924 14.9578C15.9231 14.5487 16.5526 13.981 17.0348 13.2965C17.517 12.6119 17.8396 11.8279 17.9787 11.0022L18.1037 10.265C18.1153 10.2047 18.1435 10.1489 18.1851 10.1038C18.2268 10.0587 18.2803 10.0262 18.3395 10.01C18.3986 9.99369 18.4612 9.99433 18.5201 10.0118C18.5789 10.0292 18.6317 10.0628 18.6724 10.1087C18.7022 10.1421 18.7244 10.1815 18.7376 10.2242C18.7508 10.2669 18.7547 10.3119 18.749 10.3562L18.5665 11.7894ZM5.62493 0.9375V10.9375C5.62493 11.0204 5.65786 11.0999 5.71646 11.1585C5.77507 11.2171 5.85455 11.25 5.93743 11.25H14.0624C14.1453 11.25 14.2248 11.2171 14.2834 11.1585C14.342 11.0999 14.3749 11.0204 14.3749 10.9375V0.9375C14.3749 0.85462 14.342 0.775134 14.2834 0.716529C14.2248 0.657924 14.1453 0.625 14.0624 0.625H5.93743C5.85455 0.625 5.77507 0.657924 5.71646 0.716529C5.65786 0.775134 5.62493 0.85462 5.62493 0.9375ZM6.24993 1.25H13.7499V10.625H6.24993V1.25Z" fill="black"/>
<path d="M7.1875 5.625H10.3125C10.3954 5.625 10.4749 5.59208 10.5335 5.53347C10.5921 5.47487 10.625 5.39538 10.625 5.3125C10.6245 4.89825 10.4597 4.50111 10.1668 4.20819C9.87389 3.91528 9.47675 3.7505 9.0625 3.75H8.4375C8.02325 3.7505 7.62611 3.91528 7.33319 4.20819C7.04028 4.50111 6.8755 4.89825 6.875 5.3125C6.875 5.39538 6.90792 5.47487 6.96653 5.53347C7.02513 5.59208 7.10462 5.625 7.1875 5.625ZM8.4375 4.375H9.0625C9.25634 4.37524 9.44535 4.43543 9.60363 4.54733C9.76191 4.65922 9.88169 4.81734 9.94656 5H7.55344C7.61831 4.81734 7.73809 4.65922 7.89637 4.54733C8.05465 4.43543 8.24366 4.37524 8.4375 4.375ZM9.6875 2.8125C9.6875 2.62708 9.63252 2.44582 9.5295 2.29165C9.42649 2.13748 9.28007 2.01732 9.10877 1.94636C8.93746 1.87541 8.74896 1.85684 8.5671 1.89301C8.38525 1.92919 8.2182 2.01848 8.08709 2.14959C7.95598 2.2807 7.86669 2.44775 7.83051 2.6296C7.79434 2.81146 7.81291 2.99996 7.88386 3.17127C7.95482 3.34257 8.07498 3.48899 8.22915 3.592C8.38332 3.69502 8.56458 3.75 8.75 3.75C8.99864 3.75 9.2371 3.65123 9.41291 3.47541C9.58873 3.2996 9.6875 3.06114 9.6875 2.8125ZM8.75 3.125C8.68819 3.125 8.62777 3.10667 8.57638 3.07233C8.52499 3.038 8.48494 2.98919 8.46129 2.93209C8.43764 2.87499 8.43145 2.81215 8.4435 2.75153C8.45556 2.69092 8.48532 2.63523 8.52903 2.59153C8.57273 2.54783 8.62841 2.51806 8.68903 2.506C8.74965 2.49395 8.81249 2.50014 8.86959 2.52379C8.92669 2.54744 8.9755 2.58749 9.00983 2.63888C9.04417 2.69027 9.0625 2.75069 9.0625 2.8125C9.0625 2.89538 9.02958 2.97487 8.97097 3.03347C8.91237 3.09208 8.83288 3.125 8.75 3.125Z" fill="black"/>
<path d="M13.125 5H11.25V5.625H13.125V5Z" fill="black"/>
<path d="M13.125 3.125H11.25V3.75H13.125V3.125Z" fill="black"/>
<path d="M13.125 6.875H6.875V7.5H13.125V6.875Z" fill="black"/>
<path d="M13.125 8.75H6.875V9.375H13.125V8.75Z" fill="black"/>
</svg>
