<svg width="20" height="20" viewBox="0 0 20 20" fill="none" xmlns="http://www.w3.org/2000/svg">
<path d="M14.1781 5.7752C12.7969 4.39395 10.5437 4.39395 9.15937 5.7752C7.775 7.15957 7.775 9.4127 9.15937 10.7971C9.85 11.4877 10.7594 11.8346 11.6688 11.8346C12.5781 11.8346 13.4875 11.4877 14.1781 10.7971C15.5625 9.4127 15.5625 7.15957 14.1781 5.7752ZM13.75 10.3658C12.6 11.5158 10.7344 11.5158 9.5875 10.3658C8.44063 9.21895 8.44063 7.3502 9.5875 6.20645C10.1625 5.63145 10.9188 5.34707 11.6688 5.34707C12.4219 5.34707 13.1781 5.63145 13.75 6.20645C14.9 7.3502 14.9 9.22207 13.75 10.3658Z" fill="#2A2F64"/>
<path d="M19.7906 14.4035L17.1531 11.7691C16.9375 11.5535 16.6156 11.5066 16.3531 11.6254L15.7406 11.0129C17.0156 9.10664 16.8156 6.49727 15.1344 4.81914C13.8375 3.51914 11.9875 3.10664 10.3375 3.56914C10.35 2.97227 10.4969 2.38477 10.7875 1.78789H10.9688C11.1344 1.78789 11.2719 1.65039 11.2719 1.48477C11.2719 1.31914 11.1344 1.18164 10.9688 1.18164H2.0625C0.925 1.18164 0.003125 2.10664 0.003125 3.24414V4.12227C0.003125 4.86914 0.4 5.51914 0.99375 5.88164C0.4 6.24414 0.003125 6.89727 0.003125 7.64102V8.51914C0.003125 9.65977 0.928125 10.5816 2.0625 10.5816H3.25312C2.98125 10.8941 2.8125 11.3004 2.8125 11.7441V12.6348C2.8125 13.0816 2.97812 13.4879 3.25312 13.7973H2.0625C0.925 13.7973 0 14.7254 0 15.8598V16.741C0 17.8785 0.928125 18.8004 2.0625 18.8004H10.9719C11.1375 18.8004 11.275 18.666 11.275 18.4973C11.275 18.3316 11.1375 18.1941 10.9719 18.1941H10.7969C10.1875 16.8941 10.1875 15.6473 10.7938 14.4004H10.9719C10.9719 14.4004 10.9719 14.4004 10.975 14.4004H12.3969C12.5625 14.4004 12.7 14.266 12.7 14.0973C12.7 13.9316 12.5625 13.7941 12.3969 13.7941H12.2656C12.1656 13.5816 12.0844 13.3691 12.0219 13.1535C12.8563 13.0941 13.675 12.8223 14.3969 12.341L15.0063 12.9535C14.8875 13.216 14.9344 13.5379 15.1531 13.7566L17.7875 16.391C17.9281 16.5316 18.1125 16.6004 18.2938 16.6004C18.4781 16.6004 18.6625 16.5316 18.8031 16.391L19.7906 15.4035C20.0688 15.141 20.0688 14.6848 19.7906 14.4035ZM0.609375 4.12852V3.25039C0.609375 2.44727 1.25937 1.79414 2.0625 1.79414H10.125C10.0031 2.08477 9.90625 2.37539 9.84375 2.66602H2.09063C1.925 2.66602 1.7875 2.80352 1.7875 2.96914C1.7875 3.13477 1.925 3.27227 2.09063 3.27227H9.74687C9.73125 3.44414 9.72812 3.61914 9.73125 3.78789C9.52187 3.87852 9.31875 3.98477 9.12187 4.10664H2.09063C1.925 4.10664 1.7875 4.24414 1.7875 4.40977C1.7875 4.57539 1.925 4.71289 2.09063 4.71289H8.32812C8.28438 4.75352 8.24375 4.78477 8.20312 4.82539C7.96562 5.06289 7.75625 5.31914 7.57812 5.58789H2.0625C1.25937 5.58477 0.609375 4.93164 0.609375 4.12852ZM2.0625 9.98477C1.25937 9.98477 0.609375 9.33164 0.609375 8.52852V7.65039C0.609375 6.84727 1.25937 6.19414 2.0625 6.19414H7.24375C7.10938 6.47539 7.00313 6.76602 6.92812 7.06602H2.09063C1.925 7.06602 1.7875 7.20352 1.7875 7.36914C1.7875 7.53477 1.925 7.67227 2.09063 7.67227H6.81562C6.77812 7.94727 6.76875 8.22539 6.78125 8.50664H2.09063C1.925 8.50664 1.7875 8.64414 1.7875 8.80977C1.7875 8.97539 1.925 9.11289 2.09063 9.11289H6.84062C6.89062 9.40977 6.97187 9.70352 7.07812 9.98789H2.0625V9.98477ZM2.0625 18.2098C1.25937 18.2098 0.60625 17.5598 0.60625 16.7566V15.8754C0.60625 15.0723 1.25937 14.4191 2.0625 14.4191H10.125C10 14.7098 9.90625 15.0004 9.84375 15.2941H2.09063C1.925 15.2941 1.7875 15.4285 1.7875 15.5973C1.7875 15.7629 1.925 15.9004 2.09063 15.9004H9.74687C9.72188 16.1754 9.725 16.4535 9.75312 16.7348H2.09063C1.925 16.7348 1.7875 16.8723 1.7875 17.0379C1.7875 17.2035 1.925 17.341 2.09063 17.341H9.85C9.91563 17.6316 10.0063 17.9223 10.1281 18.2129H2.0625V18.2098ZM4.58437 13.8098C3.94062 13.8098 3.42188 13.2879 3.42188 12.6473V11.7566C3.42188 11.1129 3.94375 10.5941 4.58437 10.5941H7.34375C7.46875 10.8316 7.61562 11.0535 7.78438 11.2723H4.67188C4.50625 11.2723 4.36875 11.4098 4.36875 11.5754C4.36875 11.741 4.50625 11.8785 4.67188 11.8785H8.3375C8.60938 12.1285 8.9 12.3441 9.20937 12.5254H4.67188C4.50625 12.5254 4.36875 12.6629 4.36875 12.8285C4.36875 12.9973 4.50625 13.1316 4.67188 13.1316H10.9375C11.0906 13.1535 11.2469 13.1691 11.4 13.1785C11.45 13.391 11.5219 13.6066 11.6062 13.816H4.58437V13.8098ZM8.63437 11.3254C6.95937 9.65039 6.95937 6.92539 8.63437 5.25039C9.47188 4.41289 10.5719 3.99414 11.6719 3.99414C12.7719 3.99414 13.8719 4.41602 14.7125 5.25039C16.3875 6.92539 16.3875 9.65039 14.7125 11.3254C13.0344 13.0004 10.3094 13.0004 8.63437 11.3254ZM14.8812 11.9848C14.9656 11.9098 15.0531 11.8348 15.1344 11.7504C15.2156 11.6691 15.2906 11.5848 15.3656 11.4973L15.8906 12.0223L15.4062 12.5066L14.8812 11.9848ZM19.3594 14.991L18.3719 15.9785C18.3281 16.0223 18.2594 16.0223 18.2188 15.9785L15.5813 13.341C15.5375 13.2973 15.5375 13.2285 15.5813 13.1879L16.5688 12.2004C16.5906 12.1754 16.6187 12.166 16.6469 12.166C16.6781 12.166 16.7031 12.1754 16.725 12.2004L19.3594 14.8348C19.4062 14.8754 19.4062 14.9473 19.3594 14.991Z" fill="#2A2F64"/>
<path d="M15.8922 12.0221L15.4078 12.5064L14.8828 11.9846C14.9672 11.9096 15.0547 11.8346 15.1359 11.7502C15.2172 11.6689 15.2922 11.5846 15.3672 11.4971L15.8922 12.0221Z" fill="#EDECED"/>
<path d="M19.3578 14.991L18.3703 15.9785C18.3266 16.0223 18.2578 16.0223 18.2172 15.9785L15.5797 13.341C15.5359 13.2973 15.5359 13.2285 15.5797 13.1879L16.5672 12.2004C16.5891 12.1754 16.6172 12.166 16.6453 12.166C16.6766 12.166 16.7016 12.1754 16.7234 12.2004L19.3578 14.8348C19.4047 14.8754 19.4047 14.9473 19.3578 14.991Z" fill="#F16E61"/>
<path d="M18.6797 15.6686L18.3703 15.9779C18.3266 16.0217 18.2578 16.0217 18.2172 15.9779L15.5797 13.3404C15.5359 13.2967 15.5359 13.2279 15.5797 13.1873L15.8891 12.8779C15.8453 12.9217 15.8453 12.9904 15.8891 13.0311L18.5266 15.6686C18.5672 15.7123 18.6391 15.7123 18.6797 15.6686Z" fill="#E25E5A"/>
<path d="M14.7094 5.25039C13.8687 4.41289 12.7687 3.99414 11.6687 3.99414C10.5687 3.99414 9.46875 4.41602 8.63125 5.25039C6.95625 6.92539 6.95625 9.65039 8.63125 11.3254C10.3063 13.0004 13.0313 13.0004 14.7063 11.3254C16.3844 9.65039 16.3844 6.92539 14.7094 5.25039ZM14.1781 10.7973C13.4875 11.4879 12.5781 11.8348 11.6687 11.8348C10.7594 11.8348 9.85 11.4879 9.15937 10.7973C7.775 9.41289 7.775 7.15977 9.15937 5.77539C10.5437 4.39414 12.7969 4.39414 14.1781 5.77539C15.5625 7.15977 15.5625 9.41289 14.1781 10.7973Z" fill="#F16E61"/>
<path d="M14.7094 5.25039C13.8687 4.41289 12.7687 3.99414 11.6687 3.99414C10.5687 3.99414 9.46875 4.41602 8.63125 5.25039C6.95625 6.92539 6.95625 9.65039 8.63125 11.3254C10.3063 13.0004 13.0313 13.0004 14.7063 11.3254C16.3844 9.65039 16.3844 6.92539 14.7094 5.25039ZM14.4406 11.0535C12.9125 12.5816 10.4312 12.5816 8.90312 11.0535C7.375 9.52539 7.375 7.04414 8.90312 5.51602C9.6625 4.75352 10.6656 4.36914 11.6687 4.36914C12.6719 4.36914 13.675 4.75039 14.4375 5.51602C15.9656 7.04727 15.9656 9.52852 14.4406 11.0535Z" fill="#E25E5A"/>
<path d="M13.7492 10.3654C12.5992 11.5154 10.7336 11.5154 9.58672 10.3654C8.43984 9.21855 8.43984 7.3498 9.58672 6.20605C10.1617 5.63105 10.918 5.34668 11.668 5.34668C12.4211 5.34668 13.1773 5.63105 13.7492 6.20605C14.8992 7.3498 14.8992 9.22168 13.7492 10.3654Z" fill="#FFDB7C"/>
<path d="M13.7492 6.20605C13.1773 5.63105 12.4211 5.34668 11.668 5.34668C10.918 5.34668 10.1617 5.63105 9.58672 6.20605C8.43984 7.35293 8.43984 9.22168 9.58672 10.3654C10.7367 11.5154 12.6023 11.5154 13.7492 10.3654C14.8992 9.22168 14.8992 7.3498 13.7492 6.20605ZM13.3367 9.9498C12.418 10.8686 10.9242 10.8686 10.0023 9.9498C9.08672 9.03105 9.08672 7.5373 10.0023 6.61855C10.4617 6.15918 11.068 5.93105 11.668 5.93105C12.2711 5.93105 12.8773 6.15918 13.3336 6.61855C14.2523 7.54043 14.2523 9.03418 13.3367 9.9498Z" fill="#EBC15C"/>
<path d="M10.1305 18.2096H2.06172C1.25859 18.2096 0.605469 17.5596 0.605469 16.7564V15.8752C0.605469 15.0721 1.25859 14.4189 2.06172 14.4189H10.1242C9.99922 14.7096 9.90547 15.0002 9.84297 15.2939H2.08984C1.92422 15.2939 1.78672 15.4283 1.78672 15.5971C1.78672 15.7627 1.92422 15.9002 2.08984 15.9002H9.74609C9.72109 16.1752 9.72422 16.4533 9.75234 16.7346H2.08984C1.92422 16.7346 1.78672 16.8721 1.78672 17.0377C1.78672 17.2033 1.92422 17.3408 2.08984 17.3408H9.84922C9.91797 17.6283 10.0086 17.9189 10.1305 18.2096Z" fill="#EDECED"/>
<path d="M10.1305 18.2096H2.06172C1.25859 18.2096 0.605469 17.5596 0.605469 16.7564V15.8752C0.605469 15.0721 1.25859 14.4189 2.06172 14.4189H10.1242C10.0742 14.5408 10.0273 14.6627 9.98359 14.7814H2.41797C1.65234 14.7814 1.02734 15.3127 1.02734 15.9596V16.6689C1.02734 17.3189 1.65234 17.8471 2.41797 17.8471H9.99297C10.0336 17.9658 10.0773 18.0877 10.1305 18.2096Z" fill="#D5D6D5"/>
<path d="M11.6062 13.8094H4.58438C3.94063 13.8094 3.42188 13.2875 3.42188 12.6469V11.7562C3.42188 11.1125 3.94375 10.5938 4.58438 10.5938H7.34375C7.46875 10.8312 7.61562 11.0531 7.78438 11.2719H4.67188C4.50625 11.2719 4.36875 11.4094 4.36875 11.575C4.36875 11.7406 4.50625 11.8781 4.67188 11.8781H8.3375C8.60938 12.1281 8.9 12.3438 9.20938 12.525H4.67188C4.50625 12.525 4.36875 12.6625 4.36875 12.8281C4.36875 12.9969 4.50625 13.1312 4.67188 13.1312H10.9375C11.0906 13.1531 11.2469 13.1687 11.4 13.1781C11.45 13.3844 11.5219 13.6 11.6062 13.8094Z" fill="#D6E9F2"/>
<path d="M11.6062 13.8094H4.58438C3.94063 13.8094 3.42188 13.2875 3.42188 12.6469V11.7562C3.42188 11.1125 3.94375 10.5938 4.58438 10.5938H7.34375C7.41563 10.7344 7.49688 10.8656 7.5875 10.9969H5.02813C4.42188 10.9969 3.93125 11.4125 3.93125 11.925V12.4812C3.93125 12.9937 4.42188 13.4094 5.02813 13.4094H11.4656C11.5031 13.5437 11.55 13.675 11.6062 13.8094Z" fill="#B6DAE7"/>
<path d="M6.84375 9.10898C6.89375 9.40586 6.975 9.69961 7.08125 9.98398H2.0625C1.25937 9.98398 0.609375 9.33086 0.609375 8.52773V7.64961C0.609375 6.84648 1.25937 6.19336 2.0625 6.19336H7.24375C7.10938 6.47461 7.00312 6.76523 6.92812 7.06523H2.09062C1.925 7.06523 1.7875 7.20273 1.7875 7.36836C1.7875 7.53398 1.925 7.67148 2.09062 7.67148H6.81562C6.77812 7.94648 6.76875 8.22461 6.78125 8.50586H2.09062C1.925 8.50586 1.7875 8.64336 1.7875 8.80898C1.7875 8.97461 1.925 9.11211 2.09062 9.11211H6.84375V9.10898Z" fill="#EDECED"/>
<path d="M1.7875 2.96582C1.7875 3.13145 1.925 3.26895 2.09062 3.26895H9.74687C9.73125 3.44082 9.72812 3.61582 9.73125 3.78457C9.52187 3.8752 9.31875 3.98145 9.12187 4.10332H2.09062C1.925 4.10332 1.7875 4.24082 1.7875 4.40645C1.7875 4.57207 1.925 4.70957 2.09062 4.70957H8.32812C8.28437 4.7502 8.24375 4.78145 8.20312 4.82207C7.96562 5.05957 7.75625 5.31582 7.57812 5.58457H2.0625C1.25937 5.58457 0.609375 4.93145 0.609375 4.12832V3.2502C0.609375 2.44707 1.25937 1.79395 2.0625 1.79395H10.125C10.0031 2.08457 9.90625 2.3752 9.84375 2.66582H2.09062C1.925 2.6627 1.7875 2.8002 1.7875 2.96582Z" fill="#D6E9F2"/>
<path d="M1.02812 7.73398V8.44336C1.02812 9.09336 1.65312 9.62148 2.41875 9.62148H6.9625C6.99687 9.74336 7.03437 9.86836 7.08125 9.98398H2.0625C1.25937 9.98398 0.609375 9.33086 0.609375 8.52773V7.64961C0.609375 6.84648 1.25937 6.19336 2.0625 6.19336H7.24375C7.1875 6.31211 7.13438 6.43398 7.09375 6.55586H2.41875C1.65 6.55273 1.02812 7.08398 1.02812 7.73398Z" fill="#D5D6D5"/>
<path d="M1.02812 3.33457V4.04395C1.02812 4.69395 1.65312 5.22207 2.41875 5.22207H7.84688C7.75312 5.34082 7.6625 5.4627 7.58125 5.58457H2.0625C1.25937 5.58457 0.609375 4.93145 0.609375 4.12832V3.2502C0.609375 2.44707 1.25937 1.79395 2.0625 1.79395H10.125C10.075 1.91582 10.0281 2.0377 9.9875 2.15645H2.41875C1.65 2.15332 1.02812 2.68457 1.02812 3.33457Z" fill="#B6DAE7"/>
</svg>
