<svg width="20" height="20" viewBox="0 0 20 20" fill="none" xmlns="http://www.w3.org/2000/svg">
<path d="M11.875 12.875C14.4638 12.875 16.5625 10.7763 16.5625 8.1875C16.5625 5.59867 14.4638 3.5 11.875 3.5C9.28617 3.5 7.1875 5.59867 7.1875 8.1875C7.1875 10.7763 9.28617 12.875 11.875 12.875Z" fill="#90CFF1"/>
<path d="M13.125 12.25C10.5625 12.25 8.4375 10.125 8.4375 7.5625C8.4375 6 9.25 4.5625 10.4375 3.75C8.5625 4.375 7.1875 6.125 7.1875 8.1875C7.1875 10.75 9.3125 12.875 11.875 12.875C12.875 12.875 13.8125 12.5625 14.5625 12C14.125 12.1875 13.625 12.25 13.125 12.25Z" fill="#70B7E6"/>
<path d="M11.875 11.9375C13.9461 11.9375 15.625 10.2586 15.625 8.1875C15.625 6.11643 13.9461 4.4375 11.875 4.4375C9.80393 4.4375 8.125 6.11643 8.125 8.1875C8.125 10.2586 9.80393 11.9375 11.875 11.9375Z" fill="#EEF2FA"/>
<path d="M12.5 11.3125C10.4375 11.3125 8.75 9.625 8.75 7.5625C8.75 6.6875 9.0625 5.875 9.5625 5.25C8.6875 5.9375 8.125 7 8.125 8.1875C8.125 10.25 9.8125 11.9375 11.875 11.9375C13.0625 11.9375 14.125 11.375 14.8125 10.5C14.1875 11 13.375 11.3125 12.5 11.3125Z" fill="#D5E5F2"/>
<path d="M15.4984 13.6875L14.1234 12.3125C13.9359 12.125 13.5609 12.0625 13.3109 12.25L11.9359 13.125C11.4359 13.4375 10.8109 13.375 10.3734 13L6.9359 9.5625C6.4984 9.125 6.4359 8.5 6.8109 8L7.7484 6.625C7.9359 6.375 7.8734 6.0625 7.6859 5.8125L6.2484 4.4375C5.9984 4.1875 5.6234 4.1875 5.3734 4.4375L4.1234 5.625C3.4984 6.25 3.2484 7.125 3.4359 8C3.8109 9.4375 4.4984 10.6875 5.5609 11.75L8.1234 14.3125C9.1859 15.375 10.4359 16.0625 11.8734 16.4375C12.7484 16.625 13.6234 16.375 14.2484 15.75L15.4359 14.5625C15.7484 14.3125 15.7484 13.9375 15.4984 13.6875Z" fill="#607D95"/>
<path d="M14.6234 15.5L15.5609 14.5625C15.8109 14.3125 15.8109 13.9375 15.5609 13.6875L14.1859 12.3125C13.9984 12.125 13.6234 12.0625 13.3734 12.25L12.1859 13.0625L14.6234 15.5ZM6.9359 7.8125L7.7484 6.625C7.9359 6.375 7.8734 6.0625 7.6859 5.8125L6.2484 4.4375C5.9984 4.1875 5.6234 4.1875 5.3734 4.4375L4.4359 5.3125L6.9359 7.8125ZM12.7484 15.75C11.3109 15.375 9.9984 14.625 8.9359 13.625L6.3109 11C5.2484 9.9375 4.4984 8.625 4.1859 7.1875C4.0609 6.5625 4.1234 5.9375 4.3734 5.4375L4.1234 5.625C3.4984 6.25 3.2484 7.125 3.4359 8C3.8109 9.4375 4.4984 10.6875 5.5609 11.75L8.1234 14.3125C9.1859 15.375 10.4359 16.0625 11.8734 16.4375C12.7484 16.625 13.6234 16.375 14.2484 15.75L14.5609 15.4375C14.0609 15.8125 13.4359 15.875 12.7484 15.75Z" fill="#4B6C85"/>
<path d="M15.3125 13.5C14.9375 13.875 14.25 13.875 13.875 13.5L12.875 12.5L12.125 13L14.625 15.5L15.5625 14.5625C15.8125 14.3125 15.8125 13.9375 15.5625 13.6875L15.3125 13.5ZM7.5 5.6875C7.1875 6.125 6.5625 6.1875 6.1875 5.8125L5.0625 4.6875L4.4375 5.3125L6.9375 7.8125L7.75 6.625C7.9375 6.375 7.875 6.0625 7.6875 5.8125L7.5 5.6875Z" fill="#40657C"/>
<path d="M11.875 5.0625C11.6875 5.0625 11.5625 4.9375 11.5625 4.75V3.8125C11.5625 3.625 11.6875 3.5 11.875 3.5C12.0625 3.5 12.1875 3.625 12.1875 3.8125V4.75C12.1875 4.9375 12.0625 5.0625 11.875 5.0625ZM13.8125 4.9375C13.75 4.9375 13.6875 4.9375 13.6875 4.875C13.5625 4.8125 13.5 4.625 13.5625 4.4375L13.875 3.875C13.9375 3.75 14.125 3.6875 14.3125 3.75C14.4375 3.8125 14.5 4 14.4375 4.1875L14.125 4.75C14.0625 4.875 13.9375 4.9375 13.8125 4.9375ZM15.375 6.5C15.25 6.5 15.1875 6.4375 15.125 6.3125C15.0625 6.1875 15.0625 6 15.25 5.875L15.75 5.625C15.875 5.5625 16.0625 5.5625 16.1875 5.75C16.25 5.875 16.25 6.0625 16.0625 6.1875L15.5625 6.5H15.375ZM15.9375 10.875C15.875 10.875 15.8125 10.875 15.8125 10.8125L15.25 10.5C15.125 10.4375 15.0625 10.25 15.125 10.0625C15.1875 9.9375 15.375 9.875 15.5625 9.9375L16.125 10.25C16.25 10.3125 16.3125 10.5 16.25 10.6875C16.125 10.8125 16.0625 10.875 15.9375 10.875ZM16.5625 8.5H15.3125C15.125 8.5 15 8.375 15 8.1875C15 8 15.125 7.875 15.3125 7.875H16.5625C16.75 7.875 16.875 8 16.875 8.1875C16.875 8.375 16.75 8.5 16.5625 8.5ZM14.375 9.4375H12.5C12.4375 9.4375 12.3125 9.375 12.25 9.3125C12.1875 9.25 12.1875 9.125 12.1875 9.0625L12.6875 6.5625C12.75 6.375 12.875 6.3125 13.0625 6.3125C13.25 6.375 13.375 6.5 13.3125 6.6875L12.9375 8.8125H14.375C14.5625 8.8125 14.6875 8.9375 14.6875 9.125C14.6875 9.3125 14.5625 9.4375 14.375 9.4375Z" fill="#004463"/>
<path d="M13.7485 10.0628C13.561 10.0628 13.436 9.93777 13.436 9.75027V7.87527C13.436 7.68777 13.561 7.56277 13.7485 7.56277C13.936 7.56277 14.061 7.68777 14.061 7.87527V9.75027C14.061 9.93777 13.936 10.0628 13.7485 10.0628ZM11.2485 10.0628H9.37354C9.24854 10.0628 9.12354 10.0003 9.06104 9.87527C8.99854 9.75027 9.06104 9.62527 9.12354 9.56277L10.7485 8.00027C10.8735 7.87527 10.936 7.75027 10.936 7.56277C10.936 7.25027 10.6235 6.93777 10.311 6.93777C9.99854 6.93777 9.68604 7.25027 9.68604 7.56277C9.68604 7.75027 9.56104 7.87527 9.37354 7.87527C9.18604 7.87527 9.06104 7.75027 9.06104 7.56277C9.06104 6.87527 9.62354 6.31277 10.311 6.31277C10.9985 6.31277 11.561 6.87527 11.561 7.56277C11.561 7.87527 11.436 8.18777 11.186 8.43777L10.1235 9.43777H11.2485C11.436 9.43777 11.561 9.56277 11.561 9.75027C11.561 9.93777 11.436 10.0628 11.2485 10.0628ZM9.87354 5.00027C9.74854 5.00027 9.68604 4.93777 9.62354 4.81277L9.31104 4.31277C9.24854 4.18777 9.24854 4.00027 9.43604 3.87527C9.56104 3.81277 9.74854 3.81277 9.87354 4.00027L10.186 4.50027C10.2485 4.62527 10.2485 4.81277 10.061 4.93777C9.93604 5.00027 9.87354 5.00027 9.87354 5.00027Z" fill="#004463"/>
<path d="M13.2819 18C13.0084 18 12.8033 18 12.5297 17.9312C10.8887 17.5183 9.45273 16.6927 8.2903 15.5229L5.48679 12.7018C4.32436 11.5321 3.50383 10.0183 3.09356 8.43578C2.82004 7.40367 3.16194 6.23394 3.9141 5.47706L5.21328 4.16972C5.62355 3.75688 6.23895 3.75688 6.64922 4.16972L8.15354 5.68349C8.49543 6.02752 8.56381 6.57798 8.2903 6.99083L7.333 8.43578C7.05949 8.84862 7.12787 9.39908 7.46976 9.74312L11.2306 13.5275C11.5725 13.8716 12.1195 13.9404 12.5297 13.6651L14.0341 12.633C14.4443 12.3578 14.9914 12.4266 15.3333 12.7706L16.8376 14.2844C17.2478 14.6972 17.2478 15.3165 16.8376 15.7294L15.5384 17.0367C14.8546 17.656 14.1024 18 13.2819 18ZM5.89706 4.44495C5.82868 4.44495 5.69193 4.44495 5.62355 4.51376L4.32436 5.88991C3.70896 6.50917 3.50383 7.33486 3.70896 8.16055C4.05085 9.67431 4.87139 11.0505 5.96544 12.0826L8.76895 14.9037C9.863 16.0046 11.2306 16.7615 12.6665 17.1743C13.487 17.3807 14.376 17.1055 14.923 16.555L16.2222 15.2477C16.3589 15.1101 16.3589 14.9037 16.2222 14.7661L14.7178 13.2523C14.5811 13.1147 14.4443 13.1147 14.3076 13.1835L12.8033 14.2156C12.1195 14.6972 11.2306 14.5596 10.6152 14.0092L6.85436 10.2248C6.30733 9.67431 6.17058 8.71101 6.64922 8.02294L7.6749 6.50917C7.74327 6.37156 7.74327 6.16514 7.60652 6.09633L6.17058 4.51376C6.1022 4.51376 6.03382 4.44495 5.89706 4.44495ZM16.1538 12.4954C16.0854 12.4954 15.9487 12.4954 15.8803 12.4266C15.7435 12.289 15.7435 12.0826 15.8803 11.945C16.7692 11.0505 17.2478 9.81193 17.2478 8.57339C17.2478 5.88991 15.1281 3.75688 12.4614 3.75688C11.1622 3.75688 9.99975 4.23853 9.11084 5.13303L9.04246 5.20184C8.9057 5.33945 8.70057 5.27064 8.56381 5.13303C8.42706 4.99541 8.42706 4.78899 8.56381 4.65138C9.72624 3.61927 11.0938 3 12.5297 3C15.5384 3 18 5.47706 18 8.50459C18 9.94954 17.453 11.3257 16.4273 12.3578C16.3589 12.4954 16.2222 12.4954 16.1538 12.4954Z" fill="#004463"/>
<path d="M6.9375 8C6.875 8 6.75 8 6.6875 7.9375L4.5 5.6875C4.375 5.5625 4.375 5.375 4.5 5.25C4.625 5.125 4.8125 5.125 4.9375 5.25L7.1875 7.4375C7.3125 7.5625 7.3125 7.75 7.1875 7.875C7.125 7.9375 7 8 6.9375 8ZM14.4375 15.5C14.375 15.5 14.25 15.5 14.1875 15.4375L12 13.25C11.875 13.125 11.875 12.9375 12 12.8125C12.125 12.6875 12.3125 12.6875 12.4375 12.8125L14.625 15C14.75 15.125 14.75 15.3125 14.625 15.4375C14.625 15.5 14.5 15.5 14.4375 15.5Z" fill="#004463"/>
</svg>
