<svg width="20" height="20" viewBox="0 0 20 20" fill="none" xmlns="http://www.w3.org/2000/svg">
<g clip-path="url(#clip0_768_4001)">
<path d="M17.7344 2.36328H2.26562C1.40268 2.36328 0.703125 3.06284 0.703125 3.92578V18.1445C0.703125 19.0075 1.40268 19.707 2.26562 19.707H17.7344C18.5973 19.707 19.2969 19.0075 19.2969 18.1445V3.92578C19.2969 3.06284 18.5973 2.36328 17.7344 2.36328Z" fill="#E1E1E3"/>
<path d="M17.7344 2.36328H15.9766C16.391 2.3633 16.7884 2.52793 17.0814 2.82095C17.3744 3.11397 17.539 3.51139 17.5391 3.92578V18.1445C17.539 18.5589 17.3744 18.9563 17.0814 19.2494C16.7884 19.5424 16.391 19.707 15.9766 19.707H17.7344C18.1488 19.707 18.5462 19.5424 18.8392 19.2494C19.1322 18.9563 19.2969 18.5589 19.2969 18.1445V3.92578C19.2969 3.51139 19.1322 3.11397 18.8392 2.82095C18.5462 2.52793 18.1488 2.3633 17.7344 2.36328Z" fill="#C8C5CC"/>
<path d="M19.2969 3.92578V7.28516H0.703125V3.92578C0.703144 3.51139 0.867771 3.11397 1.16079 2.82095C1.45381 2.52793 1.85123 2.3633 2.26562 2.36328H17.7344C18.1488 2.3633 18.5462 2.52793 18.8392 2.82095C19.1322 3.11397 19.2969 3.51139 19.2969 3.92578Z" fill="#EB304A"/>
<path d="M17.7344 2.36328H15.9766C16.391 2.3633 16.7884 2.52793 17.0814 2.82095C17.3744 3.11397 17.539 3.51139 17.5391 3.92578V7.28516H19.2969V3.92578C19.2969 3.51139 19.1322 3.11397 18.8392 2.82095C18.5462 2.52793 18.1488 2.3633 17.7344 2.36328Z" fill="#E4222E"/>
<path d="M3.91902 16.123H3.06641C2.7428 16.123 2.48047 16.3854 2.48047 16.709V17.5521C2.48047 17.8757 2.7428 18.138 3.06641 18.138H3.91902C4.24263 18.138 4.50496 17.8757 4.50496 17.5521V16.709C4.50496 16.3854 4.24263 16.123 3.91902 16.123Z" fill="white"/>
<path d="M3.91902 8.85449H3.06641C2.7428 8.85449 2.48047 9.11683 2.48047 9.44043V10.2836C2.48047 10.6072 2.7428 10.8695 3.06641 10.8695H3.91902C4.24263 10.8695 4.50496 10.6072 4.50496 10.2836V9.44043C4.50496 9.11683 4.24263 8.85449 3.91902 8.85449Z" fill="white"/>
<path d="M7.17293 16.123H6.32031C5.99671 16.123 5.73438 16.3854 5.73438 16.709V17.5521C5.73438 17.8757 5.99671 18.138 6.32031 18.138H7.17293C7.49653 18.138 7.75887 17.8757 7.75887 17.5521V16.709C7.75887 16.3854 7.49653 16.123 7.17293 16.123Z" fill="white"/>
<path d="M7.17293 8.85449H6.32031C5.99671 8.85449 5.73438 9.11683 5.73438 9.44043V10.2836C5.73438 10.6072 5.99671 10.8695 6.32031 10.8695H7.17293C7.49653 10.8695 7.75887 10.6072 7.75887 10.2836V9.44043C7.75887 9.11683 7.49653 8.85449 7.17293 8.85449Z" fill="white"/>
<path d="M10.4268 16.123H9.57422C9.25061 16.123 8.98828 16.3854 8.98828 16.709V17.5521C8.98828 17.8757 9.25061 18.138 9.57422 18.138H10.4268C10.7504 18.138 11.0128 17.8757 11.0128 17.5521V16.709C11.0128 16.3854 10.7504 16.123 10.4268 16.123Z" fill="white"/>
<path d="M10.4268 8.85449H9.57422C9.25061 8.85449 8.98828 9.11683 8.98828 9.44043V10.2836C8.98828 10.6072 9.25061 10.8695 9.57422 10.8695H10.4268C10.7504 10.8695 11.0128 10.6072 11.0128 10.2836V9.44043C11.0128 9.11683 10.7504 8.85449 10.4268 8.85449Z" fill="white"/>
<path d="M13.6807 16.123H12.8281C12.5045 16.123 12.2422 16.3854 12.2422 16.709V17.5521C12.2422 17.8757 12.5045 18.138 12.8281 18.138H13.6807C14.0043 18.138 14.2667 17.8757 14.2667 17.5521V16.709C14.2667 16.3854 14.0043 16.123 13.6807 16.123Z" fill="white"/>
<path d="M13.6807 8.85449H12.8281C12.5045 8.85449 12.2422 9.11683 12.2422 9.44043V10.2836C12.2422 10.6072 12.5045 10.8695 12.8281 10.8695H13.6807C14.0043 10.8695 14.2667 10.6072 14.2667 10.2836V9.44043C14.2667 9.11683 14.0043 8.85449 13.6807 8.85449Z" fill="white"/>
<path d="M16.9346 16.123H16.082C15.7584 16.123 15.4961 16.3854 15.4961 16.709V17.5521C15.4961 17.8757 15.7584 18.138 16.082 18.138H16.9346C17.2583 18.138 17.5206 17.8757 17.5206 17.5521V16.709C17.5206 16.3854 17.2583 16.123 16.9346 16.123Z" fill="white"/>
<path d="M3.91902 12.4883H3.06641C2.7428 12.4883 2.48047 12.7506 2.48047 13.0742V13.9173C2.48047 14.2409 2.7428 14.5033 3.06641 14.5033H3.91902C4.24263 14.5033 4.50496 14.2409 4.50496 13.9173V13.0742C4.50496 12.7506 4.24263 12.4883 3.91902 12.4883Z" fill="white"/>
<path d="M7.17293 12.4883H6.32031C5.99671 12.4883 5.73438 12.7506 5.73438 13.0742V13.9173C5.73438 14.2409 5.99671 14.5033 6.32031 14.5033H7.17293C7.49653 14.5033 7.75887 14.2409 7.75887 13.9173V13.0742C7.75887 12.7506 7.49653 12.4883 7.17293 12.4883Z" fill="white"/>
<path d="M10.4268 12.4883H9.57422C9.25061 12.4883 8.98828 12.7506 8.98828 13.0742V13.9173C8.98828 14.2409 9.25061 14.5033 9.57422 14.5033H10.4268C10.7504 14.5033 11.0128 14.2409 11.0128 13.9173V13.0742C11.0128 12.7506 10.7504 12.4883 10.4268 12.4883Z" fill="white"/>
<path d="M16.9346 12.4883H16.082C15.7584 12.4883 15.4961 12.7506 15.4961 13.0742V13.9173C15.4961 14.2409 15.7584 14.5033 16.082 14.5033H16.9346C17.2583 14.5033 17.5206 14.2409 17.5206 13.9173V13.0742C17.5206 12.7506 17.2583 12.4883 16.9346 12.4883Z" fill="white"/>
<path d="M16.9346 8.85449H16.082C15.7584 8.85449 15.4961 9.11683 15.4961 9.44043V10.2836C15.4961 10.6072 15.7584 10.8695 16.082 10.8695H16.9346C17.2583 10.8695 17.5206 10.6072 17.5206 10.2836V9.44043C17.5206 9.11683 17.2583 8.85449 16.9346 8.85449Z" fill="white"/>
<path d="M4.92188 1.36719C4.92188 0.773913 4.44093 0.292969 3.84766 0.292969C3.25438 0.292969 2.77344 0.773913 2.77344 1.36719V4.14062C2.77344 4.7339 3.25438 5.21484 3.84766 5.21484C4.44093 5.21484 4.92188 4.7339 4.92188 4.14062V1.36719Z" fill="#E1E1E3"/>
<path d="M17.2266 1.36719C17.2266 0.773913 16.7456 0.292969 16.1523 0.292969C15.5591 0.292969 15.0781 0.773913 15.0781 1.36719V4.14062C15.0781 4.7339 15.5591 5.21484 16.1523 5.21484C16.7456 5.21484 17.2266 4.7339 17.2266 4.14062V1.36719Z" fill="#E1E1E3"/>
<path d="M16.1518 0.292969C16.0126 0.292863 15.8746 0.319928 15.7457 0.372648C15.9432 0.453339 16.1123 0.591021 16.2313 0.768144C16.3502 0.945267 16.4138 1.15381 16.4138 1.36719V4.14063C16.4138 4.354 16.3502 4.56254 16.2313 4.73967C16.1123 4.91679 15.9432 5.05447 15.7457 5.13516C15.9088 5.20176 16.0858 5.2272 16.2611 5.20926C16.4364 5.19132 16.6046 5.13054 16.7508 5.03228C16.8971 4.93402 17.0169 4.8013 17.0998 4.6458C17.1827 4.49031 17.226 4.31682 17.226 4.14063V1.36719C17.226 1.22612 17.1983 1.08643 17.1443 0.9561C17.0903 0.825769 17.0112 0.707348 16.9114 0.607598C16.8117 0.507848 16.6932 0.428722 16.5629 0.374737C16.4326 0.320753 16.2929 0.292968 16.1518 0.292969ZM3.8983 0.292969C3.75904 0.292863 3.62109 0.319928 3.49219 0.372648C3.68972 0.453339 3.85875 0.591021 3.97773 0.768144C4.09672 0.945267 4.16026 1.15381 4.16027 1.36719V4.14063C4.16026 4.354 4.09672 4.56254 3.97773 4.73967C3.85875 4.91679 3.68972 5.05447 3.49219 5.13516C3.65532 5.20176 3.83232 5.2272 4.0076 5.20926C4.18288 5.19132 4.35106 5.13054 4.49732 5.03228C4.64357 4.93402 4.76341 4.8013 4.84628 4.6458C4.92915 4.49031 4.9725 4.31682 4.97252 4.14063V1.36719C4.97252 1.22612 4.94474 1.08643 4.89075 0.9561C4.83677 0.825769 4.75764 0.707348 4.65789 0.607598C4.55814 0.507848 4.43972 0.428722 4.30939 0.374737C4.17906 0.320753 4.03937 0.292968 3.8983 0.292969Z" fill="#DADADC"/>
<path d="M12.8273 11.1623H13.68C13.913 11.1621 14.1364 11.0694 14.3011 10.9046C14.4659 10.7398 14.5586 10.5164 14.5589 10.2834V9.44031C14.5586 9.20729 14.4659 8.98389 14.3011 8.81912C14.1364 8.65435 13.913 8.56167 13.68 8.5614H12.8273C12.5943 8.56167 12.3709 8.65435 12.2062 8.81912C12.0414 8.98389 11.9487 9.20729 11.9484 9.44031V10.2834C11.9487 10.5164 12.0414 10.7398 12.2062 10.9046C12.3709 11.0694 12.5943 11.1621 12.8273 11.1623ZM12.5344 9.44031C12.5345 9.36263 12.5653 9.28816 12.6203 9.23324C12.6752 9.17832 12.7497 9.14742 12.8273 9.14734H13.68C13.7576 9.14742 13.8321 9.17832 13.887 9.23324C13.942 9.28816 13.9728 9.36263 13.9729 9.44031V10.2834C13.9728 10.3611 13.942 10.4356 13.887 10.4905C13.8321 10.5454 13.7576 10.5763 13.68 10.5764H12.8273C12.7497 10.5763 12.6752 10.5454 12.6203 10.4905C12.5653 10.4356 12.5345 10.3611 12.5344 10.2834V9.44031ZM16.081 18.4308H16.9336C17.1666 18.4305 17.39 18.3378 17.5548 18.1731C17.7195 18.0083 17.8122 17.7849 17.8125 17.5519V16.7088C17.8122 16.4757 17.7195 16.2523 17.5548 16.0876C17.39 15.9228 17.1666 15.8301 16.9336 15.8298H16.081C15.848 15.8301 15.6246 15.9228 15.4598 16.0876C15.295 16.2523 15.2023 16.4757 15.2021 16.7088V17.5519C15.2023 17.7849 15.295 18.0083 15.4598 18.1731C15.6246 18.3378 15.848 18.4305 16.081 18.4308H16.081ZM15.788 16.7088C15.7881 16.6311 15.819 16.5566 15.8739 16.5017C15.9288 16.4468 16.0033 16.4159 16.081 16.4158H16.9336C17.0113 16.4159 17.0857 16.4468 17.1407 16.5017C17.1956 16.5566 17.2265 16.6311 17.2266 16.7088V17.5519C17.2265 17.6296 17.1956 17.704 17.1407 17.7589C17.0857 17.8139 17.0113 17.8448 16.9336 17.8448H16.081C16.0033 17.8448 15.9288 17.8139 15.8739 17.7589C15.819 17.704 15.7881 17.6296 15.788 17.5519L15.788 16.7088ZM14.4443 12.259C14.3793 12.2165 14.3 12.2015 14.224 12.2175C14.1479 12.2334 14.0813 12.2788 14.0388 12.3439L12.9391 14.0255L12.4586 13.4945C12.4328 13.466 12.4017 13.4428 12.3669 13.4263C12.3321 13.4098 12.2945 13.4004 12.256 13.3984C12.2176 13.3965 12.1792 13.4022 12.143 13.4151C12.1067 13.428 12.0734 13.448 12.0449 13.4738C12.0163 13.4996 11.9932 13.5308 11.9767 13.5655C11.9602 13.6003 11.9507 13.638 11.9488 13.6764C11.9469 13.7148 11.9526 13.7532 11.9655 13.7895C11.9784 13.8257 11.9983 13.859 12.0242 13.8876L12.7592 14.7001C12.7867 14.7305 12.8202 14.7547 12.8576 14.7714C12.895 14.788 12.9355 14.7966 12.9765 14.7966C12.9841 14.7966 12.9917 14.7963 12.9993 14.7957C13.044 14.7922 13.0873 14.7785 13.1258 14.7556C13.1644 14.7328 13.1972 14.7014 13.2217 14.6639L14.5292 12.6645C14.5717 12.5995 14.5867 12.5202 14.5707 12.4442C14.5548 12.3681 14.5093 12.3015 14.4443 12.259ZM16.081 11.1623H16.9336C17.1666 11.1621 17.39 11.0694 17.5548 10.9046C17.7195 10.7398 17.8122 10.5164 17.8125 10.2834V9.44031C17.8122 9.20729 17.7195 8.98389 17.5548 8.81912C17.39 8.65435 17.1666 8.56167 16.9336 8.5614H16.081C15.848 8.56167 15.6246 8.65435 15.4598 8.81912C15.295 8.98389 15.2023 9.20729 15.2021 9.44031V10.2834C15.2023 10.5164 15.295 10.7398 15.4598 10.9046C15.6246 11.0694 15.848 11.1621 16.081 11.1623ZM15.788 9.44031C15.7881 9.36263 15.819 9.28816 15.8739 9.23324C15.9288 9.17832 16.0033 9.14742 16.081 9.14734H16.9336C17.0113 9.14742 17.0857 9.17832 17.1407 9.23324C17.1956 9.28816 17.2265 9.36263 17.2266 9.44031V10.2834C17.2265 10.3611 17.1956 10.4356 17.1407 10.4905C17.0857 10.5454 17.0113 10.5763 16.9336 10.5764H16.081C16.0033 10.5763 15.9288 10.5454 15.8739 10.4905C15.819 10.4356 15.7881 10.3611 15.788 10.2834V9.44031ZM16.081 14.7966H16.9336C17.1666 14.7963 17.39 14.7036 17.5548 14.5388C17.7195 14.3741 17.8122 14.1507 17.8125 13.9177V13.0745C17.8122 12.8415 17.7195 12.6181 17.5548 12.4533C17.39 12.2886 17.1666 12.1959 16.9336 12.1956H16.081C15.848 12.1959 15.6246 12.2886 15.4598 12.4533C15.295 12.6181 15.2023 12.8415 15.2021 13.0745V13.9177C15.2023 14.1507 15.295 14.3741 15.4598 14.5388C15.6246 14.7036 15.848 14.7963 16.081 14.7966V14.7966ZM15.788 13.0745C15.7881 12.9969 15.819 12.9224 15.8739 12.8675C15.9288 12.8125 16.0033 12.7816 16.081 12.7816H16.9336C17.0113 12.7816 17.0857 12.8125 17.1407 12.8675C17.1956 12.9224 17.2265 12.9969 17.2266 13.0745V13.9177C17.2265 13.9953 17.1956 14.0698 17.1407 14.1247C17.0857 14.1796 17.0113 14.2105 16.9336 14.2106H16.081C16.0033 14.2105 15.9288 14.1796 15.8739 14.1247C15.819 14.0698 15.7881 13.9953 15.788 13.9177V13.0745ZM9.57371 18.4308H10.4263C10.6593 18.4305 10.8827 18.3378 11.0475 18.1731C11.2122 18.0083 11.3049 17.7849 11.3052 17.5519V16.7088C11.3049 16.4757 11.2122 16.2523 11.0475 16.0876C10.8827 15.9228 10.6593 15.8301 10.4263 15.8298H9.57371C9.34069 15.8301 9.11729 15.9228 8.95252 16.0876C8.78775 16.2523 8.69507 16.4757 8.6948 16.7088V17.5519C8.69507 17.7849 8.78775 18.0083 8.95252 18.1731C9.11729 18.3378 9.34069 18.4305 9.57371 18.4308ZM9.28074 16.7088C9.28082 16.6311 9.31172 16.5566 9.36664 16.5017C9.42157 16.4468 9.49603 16.4159 9.57371 16.4158H10.4263C10.504 16.4159 10.5784 16.4468 10.6334 16.5017C10.6883 16.5566 10.7192 16.6311 10.7193 16.7088V17.5519C10.7192 17.6296 10.6883 17.704 10.6334 17.7589C10.5784 17.8139 10.504 17.8448 10.4263 17.8448H9.57371C9.49603 17.8448 9.42157 17.8139 9.36664 17.7589C9.31172 17.704 9.28082 17.6296 9.28074 17.5519V16.7088ZM3.06641 14.7966H3.91903C4.15205 14.7963 4.37545 14.7036 4.54021 14.5388C4.70498 14.3741 4.79767 14.1507 4.79794 13.9177V13.0745C4.79767 12.8415 4.70498 12.6181 4.54021 12.4533C4.37545 12.2886 4.15205 12.1959 3.91903 12.1956H3.06641C2.83339 12.1959 2.60999 12.2886 2.44522 12.4533C2.28045 12.6181 2.18777 12.8415 2.1875 13.0745V13.9177C2.18777 14.1507 2.28045 14.3741 2.44522 14.5388C2.60999 14.7036 2.83339 14.7963 3.06641 14.7966ZM2.77344 13.0745C2.77352 12.9969 2.80442 12.9224 2.85934 12.8675C2.91426 12.8125 2.98873 12.7816 3.06641 12.7816H3.91903C3.9967 12.7816 4.07117 12.8125 4.1261 12.8675C4.18102 12.9224 4.21191 12.9969 4.212 13.0745V13.9177C4.21191 13.9953 4.18102 14.0698 4.1261 14.1247C4.07117 14.1796 3.9967 14.2105 3.91903 14.2106H3.06641C2.98873 14.2105 2.91426 14.1796 2.85934 14.1247C2.80442 14.0698 2.77352 13.9953 2.77344 13.9177V13.0745ZM3.06641 11.1623H3.91903C4.15205 11.1621 4.37545 11.0694 4.54021 10.9046C4.70498 10.7398 4.79767 10.5164 4.79794 10.2834V9.44031C4.79767 9.20729 4.70498 8.98389 4.54021 8.81912C4.37545 8.65435 4.15205 8.56167 3.91903 8.5614H3.06641C2.83339 8.56167 2.60999 8.65435 2.44522 8.81912C2.28045 8.98389 2.18777 9.20729 2.1875 9.44031V10.2834C2.18777 10.5164 2.28045 10.7398 2.44522 10.9046C2.60999 11.0694 2.83339 11.1621 3.06641 11.1623ZM2.77344 9.44031C2.77352 9.36263 2.80442 9.28816 2.85934 9.23324C2.91426 9.17832 2.98873 9.14742 3.06641 9.14734H3.91903C3.9967 9.14742 4.07117 9.17832 4.1261 9.23324C4.18102 9.28816 4.21191 9.36263 4.212 9.44031V10.2834C4.21191 10.3611 4.18102 10.4356 4.1261 10.4905C4.07117 10.5454 3.9967 10.5763 3.91903 10.5764H3.06641C2.98873 10.5763 2.91426 10.5454 2.85934 10.4905C2.80442 10.4356 2.77352 10.3611 2.77344 10.2834V9.44031ZM3.06641 18.4308H3.91903C4.15205 18.4305 4.37545 18.3378 4.54021 18.1731C4.70498 18.0083 4.79767 17.7849 4.79794 17.5519V16.7088C4.79767 16.4757 4.70498 16.2523 4.54021 16.0876C4.37545 15.9228 4.15205 15.8301 3.91903 15.8298H3.06641C2.83339 15.8301 2.60999 15.9228 2.44522 16.0876C2.28045 16.2523 2.18777 16.4757 2.1875 16.7088V17.5519C2.18777 17.7849 2.28045 18.0083 2.44522 18.1731C2.60999 18.3378 2.83339 18.4305 3.06641 18.4308ZM2.77344 16.7088C2.77352 16.6311 2.80442 16.5566 2.85934 16.5017C2.91426 16.4468 2.98873 16.4159 3.06641 16.4158H3.91903C3.9967 16.4159 4.07117 16.4468 4.1261 16.5017C4.18102 16.5566 4.21191 16.6311 4.212 16.7088V17.5519C4.21191 17.6296 4.18102 17.704 4.1261 17.7589C4.07117 17.8139 3.9967 17.8448 3.91903 17.8448H3.06641C2.98873 17.8448 2.91426 17.8139 2.85934 17.7589C2.80442 17.704 2.77352 17.6296 2.77344 17.5519V16.7088ZM12.8273 18.4308H13.68C13.913 18.4305 14.1364 18.3378 14.3011 18.1731C14.4659 18.0083 14.5586 17.7849 14.5589 17.5519V16.7088C14.5586 16.4757 14.4659 16.2523 14.3011 16.0876C14.1364 15.9228 13.913 15.8301 13.68 15.8298H12.8273C12.5943 15.8301 12.3709 15.9228 12.2062 16.0876C12.0414 16.2523 11.9487 16.4757 11.9484 16.7088V17.5519C11.9487 17.7849 12.0414 18.0083 12.2062 18.1731C12.3709 18.3378 12.5943 18.4305 12.8273 18.4308ZM12.5344 16.7088C12.5345 16.6311 12.5653 16.5566 12.6203 16.5017C12.6752 16.4468 12.7497 16.4159 12.8273 16.4158H13.68C13.7576 16.4159 13.8321 16.4468 13.887 16.5017C13.942 16.5566 13.9728 16.6311 13.9729 16.7088V17.5519C13.9728 17.6296 13.942 17.704 13.887 17.7589C13.8321 17.8139 13.7576 17.8448 13.68 17.8448H12.8273C12.7497 17.8448 12.6752 17.8139 12.6203 17.7589C12.5653 17.704 12.5345 17.6296 12.5344 17.5519V16.7088ZM6.32004 18.4308H7.17266C7.40568 18.4305 7.62908 18.3378 7.79385 18.1731C7.95862 18.0083 8.0513 17.7849 8.05157 17.5519V16.7088C8.0513 16.4757 7.95862 16.2523 7.79385 16.0876C7.62908 15.9228 7.40568 15.8301 7.17266 15.8298H6.32004C6.08702 15.8301 5.86362 15.9228 5.69885 16.0876C5.53408 16.2523 5.4414 16.4757 5.44113 16.7088V17.5519C5.4414 17.7849 5.53408 18.0083 5.69885 18.1731C5.86362 18.3378 6.08702 18.4305 6.32004 18.4308ZM6.02707 16.7088C6.02715 16.6311 6.05805 16.5566 6.11297 16.5017C6.1679 16.4468 6.24236 16.4159 6.32004 16.4158H7.17266C7.25034 16.4159 7.3248 16.4468 7.37973 16.5017C7.43465 16.5566 7.46555 16.6311 7.46563 16.7088V17.5519C7.46555 17.6296 7.43465 17.704 7.37973 17.7589C7.3248 17.8139 7.25034 17.8448 7.17266 17.8448H6.32004C6.24236 17.8448 6.1679 17.8139 6.11297 17.7589C6.05805 17.704 6.02715 17.6296 6.02707 17.5519V16.7088ZM17.7344 2.07031H17.5195V1.36719C17.5195 1.00459 17.3755 0.656837 17.1191 0.40044C16.8627 0.144043 16.5149 0 16.1523 0C15.7897 0 15.442 0.144043 15.1856 0.40044C14.9292 0.656837 14.7852 1.00459 14.7852 1.36719V2.07031H5.21484V1.36719C5.21484 1.00459 5.0708 0.656837 4.8144 0.40044C4.55801 0.144043 4.21026 2.03727e-08 3.84766 2.03727e-08C3.48506 2.03727e-08 3.13731 0.144043 2.88091 0.40044C2.62451 0.656837 2.48047 1.00459 2.48047 1.36719V2.07031H2.26562C1.7737 2.07087 1.30207 2.26654 0.954227 2.61438C0.60638 2.96223 0.410715 3.43385 0.410156 3.92578V18.1445C0.410715 18.6365 0.60638 19.1081 0.954227 19.4559C1.30207 19.8038 1.7737 19.9994 2.26562 20H17.7344C18.2263 19.9994 18.6979 19.8038 19.0458 19.4559C19.3936 19.1081 19.5893 18.6365 19.5898 18.1445V3.92578C19.5893 3.43385 19.3936 2.96223 19.0458 2.61438C18.6979 2.26654 18.2263 2.07087 17.7344 2.07031ZM15.3711 1.36719C15.3711 1.15999 15.4534 0.961273 15.5999 0.81476C15.7464 0.668248 15.9451 0.585938 16.1523 0.585938C16.3595 0.585938 16.5583 0.668248 16.7048 0.81476C16.8513 0.961273 16.9336 1.15999 16.9336 1.36719V4.14062C16.9336 4.34783 16.8513 4.54654 16.7048 4.69305C16.5583 4.83956 16.3595 4.92188 16.1523 4.92188C15.9451 4.92188 15.7464 4.83956 15.5999 4.69305C15.4534 4.54654 15.3711 4.34783 15.3711 4.14062V1.36719ZM3.06641 1.36719C3.06641 1.15999 3.14872 0.961273 3.29523 0.81476C3.44174 0.668248 3.64046 0.585938 3.84766 0.585938C4.05486 0.585938 4.25357 0.668248 4.40008 0.81476C4.5466 0.961273 4.62891 1.15999 4.62891 1.36719V4.14062C4.62891 4.34783 4.5466 4.54654 4.40008 4.69305C4.25357 4.83956 4.05486 4.92188 3.84766 4.92188C3.64046 4.92188 3.44174 4.83956 3.29523 4.69305C3.14872 4.54654 3.06641 4.34783 3.06641 4.14062V1.36719ZM19.0039 18.1445C19.0035 18.4811 18.8697 18.8038 18.6317 19.0418C18.3937 19.2798 18.071 19.4137 17.7344 19.4141H2.26562C1.92904 19.4137 1.60635 19.2798 1.36835 19.0418C1.13034 18.8038 0.99647 18.4811 0.996094 18.1445V7.57812H19.0039V18.1445ZM19.0039 6.99219H0.996094V3.92578C0.99647 3.5892 1.13034 3.2665 1.36835 3.0285C1.60635 2.7905 1.92904 2.65663 2.26562 2.65625H2.48047V4.14062C2.48047 4.50323 2.62451 4.85098 2.88091 5.10737C3.13731 5.36377 3.48506 5.50781 3.84766 5.50781C4.21026 5.50781 4.55801 5.36377 4.8144 5.10737C5.0708 4.85098 5.21484 4.50323 5.21484 4.14062V2.65625H14.7852V4.14062C14.7852 4.50323 14.9292 4.85098 15.1856 5.10737C15.442 5.36377 15.7897 5.50781 16.1523 5.50781C16.5149 5.50781 16.8627 5.36377 17.1191 5.10737C17.3755 4.85098 17.5195 4.50323 17.5195 4.14062V2.65625H17.7344C18.071 2.65663 18.3937 2.7905 18.6317 3.0285C18.8697 3.2665 19.0035 3.5892 19.0039 3.92578V6.99219ZM6.32004 14.7966H7.17266C7.40568 14.7963 7.62908 14.7036 7.79385 14.5388C7.95862 14.3741 8.0513 14.1507 8.05157 13.9177V13.0745C8.0513 12.8415 7.95862 12.6181 7.79385 12.4533C7.62908 12.2886 7.40568 12.1959 7.17266 12.1956H6.32004C6.08702 12.1959 5.86362 12.2886 5.69885 12.4533C5.53408 12.6181 5.4414 12.8415 5.44113 13.0745V13.9177C5.4414 14.1507 5.53408 14.3741 5.69885 14.5388C5.86362 14.7036 6.08702 14.7963 6.32004 14.7966ZM6.02707 13.0745C6.02715 12.9969 6.05805 12.9224 6.11297 12.8675C6.1679 12.8125 6.24236 12.7816 6.32004 12.7816H7.17266C7.25034 12.7816 7.3248 12.8125 7.37973 12.8675C7.43465 12.9224 7.46555 12.9969 7.46563 13.0745V13.9177C7.46555 13.9953 7.43465 14.0698 7.37973 14.1247C7.3248 14.1796 7.25034 14.2105 7.17266 14.2106H6.32004C6.24236 14.2105 6.1679 14.1796 6.11297 14.1247C6.05805 14.0698 6.02715 13.9953 6.02707 13.9177V13.0745ZM9.57371 11.1623H10.4263C10.6593 11.1621 10.8827 11.0694 11.0475 10.9046C11.2123 10.7398 11.3049 10.5164 11.3052 10.2834V9.44031C11.3049 9.20729 11.2123 8.98389 11.0475 8.81912C10.8827 8.65435 10.6593 8.56167 10.4263 8.5614H9.57371C9.34069 8.56167 9.11729 8.65435 8.95252 8.81912C8.78775 8.98389 8.69507 9.20729 8.6948 9.44031V10.2834C8.69507 10.5165 8.78775 10.7398 8.95252 10.9046C9.11729 11.0694 9.34069 11.1621 9.57371 11.1623H9.57371ZM9.28074 9.44031C9.28083 9.36263 9.31172 9.28816 9.36664 9.23324C9.42157 9.17832 9.49604 9.14742 9.57371 9.14734H10.4263C10.504 9.14742 10.5784 9.17832 10.6334 9.23324C10.6883 9.28816 10.7192 9.36263 10.7193 9.44031V10.2834C10.7192 10.3611 10.6883 10.4356 10.6334 10.4905C10.5784 10.5454 10.504 10.5763 10.4263 10.5764H9.57371C9.49603 10.5763 9.42157 10.5454 9.36664 10.4905C9.31172 10.4356 9.28082 10.3611 9.28074 10.2834L9.28074 9.44031ZM9.57371 14.7966H10.4263C10.6593 14.7963 10.8827 14.7036 11.0475 14.5388C11.2123 14.3741 11.3049 14.1507 11.3052 13.9177V13.0745C11.3049 12.8415 11.2123 12.6181 11.0475 12.4533C10.8827 12.2886 10.6593 12.1959 10.4263 12.1956H9.57371C9.34069 12.1959 9.11729 12.2886 8.95252 12.4533C8.78775 12.6181 8.69507 12.8415 8.6948 13.0745V13.9177C8.69507 14.1507 8.78775 14.3741 8.95252 14.5388C9.11729 14.7036 9.34069 14.7963 9.57371 14.7966L9.57371 14.7966ZM9.28074 13.0745C9.28083 12.9969 9.31172 12.9224 9.36664 12.8675C9.42157 12.8125 9.49604 12.7816 9.57371 12.7816H10.4263C10.504 12.7816 10.5784 12.8125 10.6334 12.8675C10.6883 12.9224 10.7192 12.9969 10.7193 13.0745V13.9177C10.7192 13.9953 10.6883 14.0698 10.6334 14.1247C10.5784 14.1796 10.504 14.2105 10.4263 14.2106H9.57371C9.49603 14.2105 9.42157 14.1796 9.36664 14.1247C9.31172 14.0698 9.28082 13.9953 9.28074 13.9177L9.28074 13.0745ZM6.32004 11.1623H7.17266C7.40568 11.1621 7.62908 11.0694 7.79385 10.9046C7.95862 10.7398 8.0513 10.5164 8.05157 10.2834V9.44031C8.0513 9.20729 7.95862 8.98389 7.79385 8.81912C7.62908 8.65435 7.40568 8.56167 7.17266 8.5614H6.32004C6.08702 8.56167 5.86362 8.65435 5.69885 8.81912C5.53408 8.98389 5.4414 9.20729 5.44113 9.44031V10.2834C5.4414 10.5164 5.53408 10.7398 5.69885 10.9046C5.86362 11.0694 6.08702 11.1621 6.32004 11.1623ZM6.02707 9.44031C6.02715 9.36263 6.05805 9.28816 6.11297 9.23324C6.1679 9.17832 6.24236 9.14742 6.32004 9.14734H7.17266C7.25034 9.14742 7.3248 9.17832 7.37973 9.23324C7.43465 9.28816 7.46555 9.36263 7.46563 9.44031V10.2834C7.46555 10.3611 7.43465 10.4356 7.37973 10.4905C7.3248 10.5454 7.25034 10.5763 7.17266 10.5764H6.32004C6.24236 10.5763 6.1679 10.5454 6.11297 10.4905C6.05805 10.4356 6.02715 10.3611 6.02707 10.2834V9.44031Z" fill="#3C3B41"/>
</g>
<defs>
<clipPath id="clip0_768_4001">
<rect width="20" height="20" fill="white"/>
</clipPath>
</defs>
</svg>
