<svg width="20" height="20" viewBox="0 0 20 20" fill="none" xmlns="http://www.w3.org/2000/svg">
<path d="M10.3146 20C15.5128 20 19.7268 15.5228 19.7268 10C19.7268 4.47715 15.5128 0 10.3146 0C5.11633 0 0.902344 4.47715 0.902344 10C0.902344 15.5228 5.11633 20 10.3146 20Z" fill="#2BAAE2"/>
<path d="M5.96094 12.8229L6.19863 13.6229L9.71077 15.7636L11.7298 10.6705L8.02766 9.17188L5.96094 12.8229Z" fill="#F79421"/>
<path d="M8.89453 15.9174C8.99456 15.9823 9.05972 16.0242 9.08037 16.0364C9.25061 16.1397 9.96781 16.6048 9.96781 16.6048C10.289 16.6536 10.5868 16.5307 10.7268 16.2904C10.7277 16.289 10.7285 16.2875 10.7291 16.286C10.8309 16.1061 10.7772 15.8926 10.7699 15.8648C10.7557 15.8111 10.7295 15.7468 10.5597 15.5503C10.3487 15.3066 10.1899 15.1749 10.1972 15.1652C10.2046 15.1554 10.4047 15.2978 10.6171 15.4694C10.8924 15.6907 10.8791 15.7097 10.9649 15.7522C11.0902 15.812 11.2279 15.8363 11.3646 15.8227C11.5013 15.8091 11.6324 15.7581 11.745 15.6746C11.9744 15.4972 12.1309 15.1257 12.0249 14.8736C12.0249 14.8697 12.0221 14.8663 12.0203 14.8624C12.0185 14.8585 12.0176 14.8576 12.0162 14.8541C11.8785 14.5704 11.6785 14.412 11.4729 14.2525C11.0948 13.96 10.9053 13.8138 10.897 13.8235C10.8888 13.8333 10.9727 13.8962 11.3155 14.2067C11.7432 14.5967 11.9432 14.7917 12.2631 14.8405C12.297 14.8454 12.3245 14.8478 12.3411 14.8493C12.3869 14.8493 12.7614 14.8605 12.9734 14.565C13.1725 14.2872 13.0876 13.9361 13.0706 13.8674C12.7884 13.5934 12.5719 13.3584 12.4227 13.1893C12.2392 12.9811 12.2039 12.926 12.2126 12.9153C12.2213 12.9046 12.2452 12.9011 12.7173 13.2702C13.2726 13.7031 13.3317 13.7914 13.491 13.7899C13.7397 13.7875 13.992 13.5676 14.0604 13.3199C14.0895 13.2018 14.0831 13.0771 14.0421 12.9631C13.8232 12.2913 12.1938 11.0247 12.1938 11.0247C11.9151 10.8147 11.6274 10.6051 11.3306 10.3958L11.1856 10.2944L11.1315 10.2568" fill="#F79421"/>
<path d="M10.1034 16.9396C10.042 16.9398 9.98061 16.935 9.91986 16.9254L9.85791 16.9162L9.80468 16.8815C9.79734 16.8767 9.08931 16.4174 8.92458 16.318C8.89567 16.2999 8.8195 16.2512 8.73048 16.1937C8.6616 16.1483 8.61251 16.0757 8.59401 15.9918C8.57551 15.908 8.58911 15.8198 8.63183 15.7466C8.67454 15.6734 8.74287 15.6213 8.82178 15.6016C8.90069 15.5819 8.98372 15.5964 9.0526 15.6418C9.15309 15.7071 9.21504 15.7461 9.23018 15.7554C9.37518 15.8436 9.89049 16.1766 10.0667 16.2916C10.242 16.3029 10.3989 16.2375 10.4664 16.1215C10.4874 16.0677 10.4905 16.0078 10.4751 15.9518V15.9518C10.434 15.8856 10.3867 15.824 10.3338 15.7681C10.2158 15.632 10.1144 15.5316 10.0534 15.4721L9.99511 15.4136C9.93599 15.3582 9.89895 15.2809 9.89154 15.1975C9.88412 15.1141 9.90688 15.0308 9.95519 14.9646C9.98318 14.9261 10.136 14.7438 10.3902 14.9047C10.4186 14.9222 10.4558 14.948 10.5003 14.9797C10.5866 15.0421 10.6958 15.126 10.7995 15.2103C10.9335 15.3181 11.0051 15.3824 11.0477 15.4209C11.0629 15.4346 11.0799 15.4502 11.0849 15.4541L11.0918 15.4575C11.1675 15.4922 11.2501 15.5062 11.3322 15.4983C11.4142 15.4903 11.4931 15.4607 11.5617 15.4122C11.7058 15.3 11.7755 15.0816 11.7452 15.0046V15.0017L11.7246 14.9617C11.5349 14.8263 11.3547 14.6764 11.1854 14.5132L11.1175 14.4518C10.9885 14.3352 10.8972 14.2533 10.833 14.1963C10.777 14.1475 10.7412 14.1163 10.7197 14.0939C10.4843 13.8721 10.6462 13.6371 10.6531 13.6274C10.6715 13.602 10.8335 13.3904 11.1001 13.5693C11.1285 13.5888 11.1675 13.6181 11.2221 13.6576C11.3194 13.7312 11.4593 13.8394 11.6525 13.9896C11.8382 14.1222 12.0043 14.2833 12.1453 14.4678C12.1968 14.4921 12.2511 14.5085 12.3069 14.5166C12.3234 14.519 12.3399 14.521 12.3564 14.522C12.3895 14.522 12.6184 14.522 12.7309 14.365C12.8029 14.2645 12.8052 14.1324 12.7919 14.031C12.5845 13.8267 12.3858 13.6171 12.2004 13.407C12.1086 13.3007 12.0449 13.2276 12.0063 13.1759C11.8278 12.9365 11.9306 12.7625 11.9829 12.6986C12.0256 12.6476 12.0821 12.6117 12.1446 12.5958C12.2071 12.5798 12.2727 12.5846 12.3326 12.6094C12.3731 12.6263 12.412 12.6473 12.4487 12.6723C12.5404 12.7318 12.6873 12.8405 12.8988 13.0058C13.0328 13.1101 13.1379 13.1949 13.2228 13.2627C13.307 13.3349 13.3953 13.4016 13.4871 13.4626H13.4894C13.5976 13.4626 13.7362 13.3441 13.7688 13.2256C13.78 13.172 13.7753 13.116 13.7555 13.0652C13.6261 12.6679 12.6616 11.785 12.0169 11.2838C11.7365 11.0728 11.4497 10.8636 11.1634 10.6623L11.0202 10.5618L10.9661 10.5248C10.8983 10.4779 10.8509 10.4044 10.8342 10.3204C10.8175 10.2363 10.8329 10.1487 10.877 10.0767C10.9212 10.0048 10.9904 9.95441 11.0695 9.93667C11.1485 9.91893 11.231 9.9353 11.2987 9.98217L11.3533 10.0197L11.4997 10.1221C11.792 10.3278 12.0852 10.5414 12.3716 10.7559L12.3748 10.7583C12.3918 10.772 12.7974 11.0874 13.2365 11.4925C13.8633 12.0697 14.2212 12.5163 14.3314 12.8517C14.3935 13.0292 14.4014 13.223 14.3539 13.4055C14.2465 13.7955 13.8693 14.1046 13.4949 14.1085C13.4657 14.1087 13.4366 14.1071 13.4077 14.1037C13.4152 14.338 13.3474 14.568 13.2154 14.756C12.9929 15.067 12.6313 15.1723 12.3555 15.1684C12.3103 15.4724 12.1561 15.7461 11.9251 15.9319C11.8058 16.0223 11.6705 16.0862 11.5274 16.1198C11.3843 16.1533 11.2363 16.1557 11.0923 16.1269C11.0814 16.241 11.0473 16.3513 10.9922 16.4501L10.9881 16.4574C10.8087 16.7621 10.4751 16.9396 10.1034 16.9396Z" fill="#010101"/>
<path d="M8.50685 8.78947C8.34043 8.76412 8.16637 8.72918 7.98466 8.68465C7.44333 8.5485 6.92179 8.33532 6.43416 8.05088L4.85337 6.8623L2.71094 10.1184L4.21876 11.2812C4.6712 11.5922 4.90109 11.9223 5.02728 12.1665C5.16173 12.4259 5.19339 12.6155 5.38611 12.9612C5.52005 13.2003 5.67957 13.4221 5.8615 13.6223" fill="#F79421"/>
<path d="M5.64152 13.8478C5.44328 13.6296 5.26943 13.3878 5.12346 13.1272C5.03013 12.9601 4.94913 12.7855 4.88118 12.6051C4.84527 12.5087 4.80421 12.4146 4.75821 12.3233C4.6077 12.0308 4.36955 11.7729 4.0511 11.554L4.03779 11.5442L2.28906 10.1948L4.7761 6.41113L6.59275 7.77619C7.05205 8.04175 7.54261 8.24111 8.05147 8.36901C8.21483 8.40996 8.3814 8.4436 8.5475 8.46895L8.46032 9.11102C8.27678 9.08274 8.09323 9.04569 7.91244 9.00035C7.34462 8.85759 6.79748 8.63425 6.28577 8.33635L6.27016 8.32708L4.92707 7.31597L3.13383 10.0461L4.39295 11.0172C4.79354 11.2936 5.09731 11.6286 5.296 12.0132C5.35267 12.1247 5.40308 12.2396 5.44696 12.3574C5.50373 12.509 5.57154 12.6557 5.64978 12.7962C5.77158 13.014 5.91679 13.216 6.08249 13.3983L5.64152 13.8478Z" fill="#010101"/>
<path d="M5.87938 13.5909L5.30511 14.3843C5.14955 14.5992 5.18735 14.9074 5.38955 15.0726C5.59175 15.2378 5.88177 15.1974 6.03734 14.9825L6.61161 14.1891C6.76717 13.9742 6.72937 13.666 6.52717 13.5008C6.32497 13.3356 6.03495 13.3759 5.87938 13.5909Z" fill="#2BAAE2"/>
<path d="M5.68685 15.5268C5.53365 15.5267 5.38475 15.4729 5.26332 15.3737L5.15457 15.2845C5.0082 15.1644 4.91259 14.9876 4.88868 14.7928C4.86477 14.5979 4.91451 14.401 5.02701 14.2451L5.68502 13.3358C5.79804 13.1802 5.96455 13.0785 6.14803 13.0531C6.3315 13.0277 6.51698 13.0806 6.66377 13.2003L6.77252 13.289C6.91893 13.409 7.01464 13.5858 7.03872 13.7806C7.0628 13.9753 7.01328 14.1723 6.90101 14.3284L6.24254 15.2377C6.17697 15.3278 6.09282 15.4007 5.99656 15.4508C5.90031 15.5009 5.79451 15.5269 5.68731 15.5268H5.68685ZM6.23749 13.6937H6.22556C6.21405 13.6952 6.20293 13.6991 6.19285 13.7052C6.18277 13.7114 6.17393 13.7195 6.16682 13.7293L5.50881 14.6385C5.50173 14.6482 5.49653 14.6594 5.49354 14.6712C5.49055 14.6831 5.48981 14.6955 5.49138 14.7077C5.49282 14.72 5.49652 14.7318 5.50227 14.7425C5.50802 14.7532 5.5157 14.7626 5.52487 14.7701L5.63363 14.8593C5.65228 14.8742 5.67568 14.8807 5.69878 14.8774C5.72208 14.874 5.74326 14.8613 5.75798 14.8418L6.41599 13.9326C6.43 13.9128 6.43611 13.8879 6.43297 13.8633C6.43163 13.8511 6.42797 13.8392 6.42221 13.8285C6.41645 13.8178 6.40872 13.8084 6.39947 13.8009L6.29072 13.7117C6.27568 13.7 6.25752 13.6937 6.23887 13.6937H6.23749Z" fill="#010101"/>
<path d="M7.00974 13.6273L5.82881 15.2565C5.6731 15.4714 5.7107 15.7795 5.91279 15.9449C6.11488 16.1102 6.40493 16.0701 6.56064 15.8553L7.74157 14.2261C7.89728 14.0113 7.85968 13.7031 7.65759 13.5377C7.4555 13.3724 7.16544 13.4125 7.00974 13.6273Z" fill="#2BAAE2"/>
<path d="M6.24737 16.3694C6.09365 16.3696 5.94422 16.3156 5.82246 16.2159L5.71371 16.1271C5.56711 16.007 5.47131 15.8301 5.44731 15.6351C5.42331 15.44 5.47307 15.2429 5.58569 15.0868L6.8494 13.341C6.96243 13.1852 7.12903 13.0834 7.31262 13.058C7.49621 13.0326 7.68179 13.0856 7.82861 13.2054L7.93737 13.2942C8.08397 13.4142 8.17975 13.5911 8.20367 13.7861C8.22759 13.981 8.17769 14.1781 8.06493 14.334L6.80122 16.0798C6.73601 16.17 6.65213 16.2431 6.55609 16.2933C6.46005 16.3435 6.35441 16.3696 6.24737 16.3694V16.3694ZM7.40371 13.6998C7.39012 13.6997 7.37668 13.7028 7.36444 13.7091C7.35219 13.7154 7.34145 13.7245 7.33304 13.7358L6.06933 15.4817C6.05579 15.5018 6.04996 15.5266 6.05303 15.5512C6.0561 15.5757 6.06783 15.5981 6.08585 15.6138L6.1946 15.7025C6.21322 15.7175 6.23666 15.7241 6.25984 15.7209C6.28302 15.7177 6.30409 15.705 6.31849 15.6854L7.58221 13.9391C7.59566 13.9191 7.60149 13.8944 7.59851 13.87C7.59553 13.8456 7.58397 13.8232 7.56614 13.8075L7.45739 13.7188C7.44204 13.7062 7.42311 13.6995 7.40371 13.6998Z" fill="#010101"/>
<path d="M7.72705 14.245L6.64131 15.7429C6.4856 15.9577 6.5232 16.2659 6.72529 16.4312C6.92738 16.5966 7.21743 16.5565 7.37314 16.3417L8.45888 14.8438C8.61459 14.6289 8.57698 14.3208 8.3749 14.1554C8.17281 13.9901 7.88275 14.0302 7.72705 14.245Z" fill="#2BAAE2"/>
<path d="M7.06116 16.8535C6.90787 16.8535 6.75891 16.7995 6.63763 16.6999L6.52979 16.6112C6.38329 16.4911 6.28759 16.3142 6.26368 16.1192C6.23976 15.9243 6.28959 15.7272 6.40223 15.5713L7.57049 13.9566C7.68358 13.8013 7.84994 13.6997 8.03324 13.6743C8.21654 13.6488 8.40188 13.7014 8.54879 13.8206L8.65754 13.9093C8.80407 14.0295 8.89979 14.2065 8.9237 14.4015C8.94761 14.5965 8.89777 14.7937 8.78511 14.9497L7.61638 16.5644C7.56061 16.6416 7.49099 16.7064 7.41152 16.755C7.33205 16.8035 7.24432 16.8348 7.15339 16.8471C7.12279 16.8512 7.09199 16.8533 7.06116 16.8535ZM8.12343 14.3149H8.1115C8.08831 14.3179 8.06719 14.3305 8.05276 14.35L6.88449 15.9647C6.87739 15.9745 6.87219 15.9857 6.8692 15.9977C6.86621 16.0097 6.86548 16.0222 6.86706 16.0344C6.87006 16.0591 6.8821 16.0815 6.90055 16.0968L7.0093 16.1856C7.028 16.2006 7.05151 16.2072 7.07476 16.204C7.09802 16.2008 7.11917 16.1881 7.13366 16.1685L8.30192 14.5538C8.30899 14.5441 8.31417 14.5329 8.31716 14.5211C8.32015 14.5092 8.3209 14.4968 8.31936 14.4846C8.31619 14.4599 8.3042 14.4373 8.28586 14.4217L8.17711 14.333C8.16164 14.3207 8.14272 14.3144 8.12343 14.3149V14.3149Z" fill="#010101"/>
<path d="M8.25047 15.1641L7.67621 15.9575C7.52064 16.1724 7.55845 16.4806 7.76064 16.6458C7.96284 16.811 8.25287 16.7707 8.40843 16.5557L8.9827 15.7623C9.13827 15.5474 9.10046 15.2392 8.89826 15.074C8.69607 14.9089 8.40604 14.9492 8.25047 15.1641Z" fill="#2BAAE2"/>
<path d="M8.05437 17.0999C7.90108 17.0999 7.75212 17.0459 7.63084 16.9463L7.52208 16.8576C7.37562 16.7375 7.2799 16.5606 7.25591 16.3657C7.23191 16.1708 7.28159 15.9737 7.39406 15.8177L8.05207 14.9085C8.16511 14.7527 8.33166 14.6509 8.51522 14.6254C8.69878 14.5999 8.88436 14.6528 9.03129 14.7724L9.14004 14.8616C9.21276 14.9211 9.27375 14.9951 9.31952 15.0796C9.36529 15.1641 9.39495 15.2573 9.4068 15.354C9.41864 15.4507 9.41245 15.5488 9.38856 15.643C9.36468 15.7371 9.32358 15.8253 9.2676 15.9025V15.9025L8.60959 16.8117C8.54402 16.9018 8.45987 16.9747 8.36362 17.0249C8.26736 17.075 8.16156 17.101 8.05437 17.1008V17.0999ZM8.605 15.2668C8.59145 15.2669 8.57808 15.2702 8.56586 15.2764C8.55364 15.2826 8.54288 15.2917 8.53434 15.3029L7.87633 16.2121C7.86273 16.2322 7.85683 16.257 7.85981 16.2815C7.86279 16.306 7.87444 16.3284 7.89239 16.3442L8.0016 16.4329C8.01076 16.4405 8.02123 16.446 8.03242 16.4492C8.04361 16.4523 8.05528 16.4531 8.06676 16.4515C8.07827 16.4499 8.08938 16.446 8.09946 16.4399C8.10954 16.4338 8.11839 16.4256 8.12549 16.4159L8.7835 15.5066C8.7971 15.4866 8.803 15.4617 8.80002 15.4372C8.79704 15.4127 8.78539 15.3903 8.76744 15.3745L8.65869 15.2858C8.64324 15.2743 8.62477 15.2683 8.60592 15.2687L8.605 15.2668Z" fill="#010101"/>
<path d="M8.02759 9.17169L7.88167 11.4455C7.88167 11.4455 7.76787 12.5999 9.00038 11.6176C9.00038 11.6176 9.34086 11.2388 9.30828 10.0848C9.30828 10.0848 10.1994 10.0585 10.3375 9.79571C11.5729 10.4654 12.6993 11.341 13.6739 12.3893C14.3775 12.29 15.0163 11.9016 15.4534 11.3075L17.3829 10.3773L15.8751 6.86328L13.9781 7.60382C13.9781 7.60382 13.4917 7.93144 11.5622 7.7764C11.1696 7.77717 10.7781 7.82327 10.3949 7.91389C9.5226 8.12641 8.71089 8.55769 8.02759 9.17169V9.17169Z" fill="#2BAAE2"/>
<path d="M13.5639 12.7343L13.457 12.6193C12.5528 11.6465 11.5144 10.8257 10.3776 10.1851C10.244 10.2641 10.061 10.3211 9.81777 10.3611C9.74664 10.3728 9.67689 10.3816 9.61311 10.3884C9.58375 11.4088 9.26071 11.7993 9.22078 11.8436L9.20335 11.8631L9.18316 11.8792C8.83213 12.1591 8.31728 12.5028 7.90889 12.2566C7.5418 12.0357 7.57025 11.5102 7.57805 11.4214L7.73269 9.01407L7.8318 8.92583C8.5512 8.27647 9.4078 7.82167 10.3285 7.60027C10.7333 7.50417 11.1467 7.45513 11.5614 7.45401H11.5734H11.5853C13.2216 7.58515 13.7589 7.35651 13.82 7.32726L13.8512 7.30239H13.8732L16.0354 6.45801L17.7873 10.5405L15.6458 11.5731C15.1606 12.1984 14.4706 12.6054 13.7144 12.7124L13.5639 12.7343ZM10.2142 9.37045L10.4753 9.51232C11.6931 10.1712 12.8076 11.0263 13.7791 12.0474C14.3477 11.929 14.8572 11.597 15.2145 11.1124L15.2603 11.05L16.9797 10.2212L15.7155 7.27558L14.1036 7.90009C13.9342 7.99272 13.3047 8.24135 11.55 8.10046C11.1834 8.10212 10.818 8.1456 10.4602 8.23014C9.67698 8.41839 8.94523 8.7961 8.32187 9.33389L8.18421 11.479C8.178 11.5503 8.18726 11.6222 8.21128 11.6891C8.2457 11.6891 8.40768 11.6784 8.78486 11.3844C8.83534 11.3035 9.02714 10.9393 9.00328 10.0939L8.99456 9.76973L9.29971 9.76095C9.62091 9.7512 9.988 9.68295 10.083 9.6147L10.2142 9.37045Z" fill="#010101"/>
<path d="M17.7562 5.92494L16.7734 6.42188L18.6112 10.5246L19.594 10.0277L17.7562 5.92494Z" fill="#2BAAE2"/>
<path d="M18.4669 10.9558L16.3672 6.26832L17.8998 5.49316L19.9996 10.1807L18.4669 10.9558ZM17.1794 6.57448L18.7551 10.0929L19.1874 9.87401L17.6116 6.35607L17.1794 6.57448Z" fill="#010101"/>
<path d="M18.7832 9.78155C18.8965 9.78155 18.9883 9.68398 18.9883 9.56362C18.9883 9.44327 18.8965 9.3457 18.7832 9.3457C18.67 9.3457 18.5781 9.44327 18.5781 9.56362C18.5781 9.68398 18.67 9.78155 18.7832 9.78155Z" fill="#010101"/>
<path d="M3.93868 6.22154L3.04688 5.55859L0.423356 9.54231L1.31516 10.2053L3.93868 6.22154Z" fill="#F79421"/>
<path d="M1.39219 10.6559L0 9.62185L2.97298 5.10742L4.36425 6.14194L1.39219 10.6559ZM0.848439 9.46243L1.24077 9.75494L3.51536 6.30184L3.12303 6.00933L0.848439 9.46243Z" fill="#010101"/>
<path d="M1.33011 9.34502C1.44339 9.34502 1.53522 9.24746 1.53522 9.1271C1.53522 9.00675 1.44339 8.90918 1.33011 8.90918C1.21683 8.90918 1.125 9.00675 1.125 9.1271C1.125 9.24746 1.21683 9.34502 1.33011 9.34502Z" fill="#010101"/>
</svg>
