<svg width="20" height="20" viewBox="0 0 20 20" fill="none" xmlns="http://www.w3.org/2000/svg">
<path d="M17.1078 14.6691H7.07031C6.93594 14.1285 6.44844 13.7285 5.87031 13.7285C5.28906 13.7285 4.80469 14.1285 4.66719 14.6691H3.48281C3.31406 14.6691 3.17969 14.8035 3.17969 14.9723C3.17969 15.1379 3.31406 15.2754 3.48281 15.2754H4.66719C4.80156 15.8129 5.28906 16.216 5.87031 16.216C6.45156 16.216 6.93594 15.8129 7.07031 15.2754H17.1078C17.2734 15.2754 17.4109 15.1379 17.4109 14.9723C17.4109 14.8066 17.2734 14.6691 17.1078 14.6691ZM5.87031 15.6129C5.51719 15.6129 5.23281 15.3285 5.22969 14.9754V14.9691C5.23281 14.6191 5.51719 14.3348 5.87031 14.3348C6.22031 14.3348 6.50781 14.6191 6.50781 14.9723C6.50781 15.3223 6.22031 15.6129 5.87031 15.6129Z" fill="#2B2E63"/>
<path d="M19.6969 2.47168H0.303125C0.1375 2.47168 0 2.60605 0 2.7748V17.2279C0 17.3936 0.1375 17.5311 0.303125 17.5311H19.6969C19.8656 17.5311 20 17.3936 20 17.2279V2.7748C20 2.60605 19.8656 2.47168 19.6969 2.47168ZM19.3938 16.9217H0.60625V3.07793H19.3938V16.9217Z" fill="#2B2E63"/>
<path d="M0.605469 3.07812V16.925H19.393V3.07812H0.605469ZM10.293 4.85312C12.5648 4.85312 14.4148 6.70312 14.4148 8.975C14.4148 11.2469 12.5648 13.0969 10.293 13.0969C8.01797 13.0969 6.16797 11.2469 6.16797 8.975C6.16797 6.70312 8.01797 4.85312 10.293 4.85312ZM17.1055 15.2781H7.06797C6.93359 15.8156 6.44922 16.2188 5.86797 16.2188C5.28672 16.2188 4.79922 15.8156 4.66484 15.2781H3.48047C3.31172 15.2781 3.17734 15.1406 3.17734 14.975C3.17734 14.8062 3.31172 14.6719 3.48047 14.6719H4.66484C4.80234 14.1312 5.28672 13.7312 5.86797 13.7312C6.44609 13.7312 6.93359 14.1312 7.06797 14.6719H17.1055C17.2711 14.6719 17.4086 14.8062 17.4086 14.975C17.4086 15.1375 17.2711 15.2781 17.1055 15.2781Z" fill="#FFDC7C"/>
<path d="M6.50469 14.9746C6.50469 15.3246 6.21719 15.6121 5.86719 15.6121C5.51406 15.6121 5.22969 15.3277 5.22656 14.9746V14.9684C5.22969 14.6184 5.51406 14.334 5.86719 14.334C6.21719 14.3371 6.50469 14.6184 6.50469 14.9746Z" fill="#51BF9F"/>
<path d="M12.8539 8.71543L9.24141 6.63105C9.14766 6.5748 9.03203 6.5748 8.93828 6.63105C8.84453 6.68418 8.78516 6.78418 8.78516 6.89355V11.0623C8.78516 11.1717 8.84453 11.2717 8.93828 11.3248C8.98516 11.3529 9.03828 11.3654 9.08828 11.3654C9.14141 11.3654 9.19453 11.3529 9.24141 11.3248L12.8539 9.24043C12.9477 9.18731 13.0039 9.08731 13.0039 8.97793C13.0039 8.86856 12.9477 8.76855 12.8539 8.71543ZM9.39141 10.5342V7.41543L12.0945 8.9748L9.39141 10.5342Z" fill="#2B2E63"/>
<path d="M10.293 4.85352C8.01797 4.85352 6.16797 6.70352 6.16797 8.97539C6.16797 11.2473 8.01797 13.0973 10.293 13.0973C12.5648 13.0973 14.4148 11.2473 14.4148 8.97539C14.4148 6.70352 12.5648 4.85352 10.293 4.85352ZM10.293 12.491C8.35234 12.491 6.77422 10.9129 6.77422 8.97539C6.77422 7.03477 8.35234 5.45977 10.293 5.45977C12.2305 5.45977 13.8086 7.03477 13.8086 8.97539C13.8086 10.9129 12.2305 12.491 10.293 12.491Z" fill="#2B2E63"/>
<path d="M10.2922 5.45898C8.35156 5.45898 6.77344 7.03398 6.77344 8.97461C6.77344 10.9121 8.35156 12.4902 10.2922 12.4902C12.2297 12.4902 13.8078 10.9121 13.8078 8.97461C13.8078 7.03398 12.2297 5.45898 10.2922 5.45898ZM12.8516 9.24023L9.23906 11.3246C9.19219 11.3527 9.13906 11.3652 9.08594 11.3652C9.03594 11.3652 8.98281 11.3527 8.93594 11.3246C8.84219 11.2715 8.78281 11.1715 8.78281 11.0621V6.89336C8.78281 6.78398 8.84219 6.68398 8.93594 6.63086C9.02969 6.57461 9.14531 6.57461 9.23906 6.63086L12.8516 8.71523C12.9453 8.76836 13.0016 8.86836 13.0016 8.97773C13.0016 9.08711 12.9453 9.18711 12.8516 9.24023Z" fill="#EDEDED"/>
<path d="M12.0938 8.97539L9.39062 10.5348V7.41602L12.0938 8.97539Z" fill="#B7DAE7"/>
</svg>
