<svg width="20" height="20" viewBox="0 0 20 20" fill="none" xmlns="http://www.w3.org/2000/svg">
<path d="M14.7031 5.9375V15.3125C14.7031 15.4783 14.6373 15.6372 14.5201 15.7544C14.4029 15.8717 14.2439 15.9375 14.0781 15.9375H6.57812C6.41236 15.9375 6.25339 15.8717 6.13618 15.7544C6.01897 15.6372 5.95312 15.4783 5.95312 15.3125V4.6875C5.95312 4.52174 6.01897 4.36277 6.13618 4.24556C6.25339 4.12835 6.41236 4.0625 6.57812 4.0625H12.8281L14.7031 5.9375Z" fill="#E2E2E2"/>
<path d="M14.7031 5.9375H12.8281V4.0625M18.0294 8.88062L16.5731 8.20125L17.2525 6.74438" fill="#F5F7F7"/>
<path d="M5.95204 15.3124V4.9068L2.17391 6.61805C2.04456 6.67667 1.94378 6.78426 1.89373 6.91717C1.84369 7.05007 1.84847 7.19742 1.90704 7.3268L5.66454 15.6224C5.72212 15.7489 5.82674 15.8479 5.95617 15.8984C6.0856 15.949 6.22963 15.947 6.35767 15.893C6.23885 15.8493 6.1363 15.7702 6.06378 15.6664C5.99127 15.5626 5.95227 15.439 5.95204 15.3124ZM14.702 5.93742V15.3124C14.7006 15.4613 14.6456 15.6048 14.547 15.7164C14.4483 15.8279 14.3128 15.9002 14.1652 15.9199C14.2802 15.9423 14.3994 15.9258 14.5039 15.8729C14.6085 15.8201 14.6925 15.7339 14.7427 15.628L18.1389 8.84367L17.3614 6.70805L13.4033 4.63867" fill="#E2E2E2"/>
<path d="M18.4326 8.73688L17.6551 6.60126C17.6283 6.52806 17.5753 6.46744 17.5063 6.43126L13.5907 4.38376L13.0488 3.84188C13.0198 3.81255 12.9852 3.78931 12.9471 3.77354C12.909 3.75776 12.8682 3.74976 12.8269 3.75001H6.57693C6.06005 3.75001 5.63943 4.17063 5.63943 4.68751V4.70501L2.04505 6.33313C1.8388 6.42626 1.6813 6.59438 1.6013 6.80688C1.56193 6.91111 1.5436 7.0221 1.54735 7.13344C1.55111 7.24479 1.57688 7.35429 1.62318 7.45563L5.38068 15.7513C5.52193 16.0638 5.8263 16.2481 6.1488 16.2481C6.2088 16.2481 6.2688 16.225 6.3288 16.2119C6.4088 16.2338 6.49068 16.2494 6.57755 16.2494H14.0775C14.1238 16.2494 14.1676 16.2425 14.2119 16.2356C14.2282 16.2369 14.2451 16.24 14.2619 16.24C14.5869 16.24 14.8876 16.0569 15.0232 15.7669L18.4194 8.98313C18.4381 8.94508 18.4488 8.90366 18.4511 8.86134C18.4533 8.81903 18.447 8.7767 18.4326 8.73688ZM17.6257 8.34751L16.9875 8.05001L17.285 7.41188L17.6257 8.34751ZM13.1394 4.81688L13.9475 5.62501H13.1394V4.81688ZM6.26505 4.68751C6.26505 4.60463 6.29797 4.52514 6.35658 4.46653C6.41518 4.40793 6.49467 4.37501 6.57755 4.37501H12.515V5.93751C12.515 6.02039 12.548 6.09987 12.6066 6.15848C12.6652 6.21708 12.7447 6.25001 12.8275 6.25001H14.39V15.3125C14.3893 15.3502 14.3817 15.3875 14.3675 15.4225C14.3461 15.4727 14.3121 15.5164 14.2687 15.5495C14.2253 15.5826 14.1741 15.6039 14.1201 15.6113C14.1057 15.6131 14.0932 15.6206 14.0794 15.625L14.0769 15.6256H6.57693C6.54096 15.6247 6.50543 15.6175 6.47193 15.6044L6.4688 15.6019C6.40533 15.577 6.35161 15.5323 6.31568 15.4744C6.28335 15.4267 6.26554 15.3707 6.26443 15.3131V4.68751H6.26505ZM2.19255 7.19813C2.18038 7.17159 2.17361 7.14288 2.17264 7.1137C2.17168 7.08451 2.17653 7.05542 2.18693 7.02813C2.20755 6.97188 2.24943 6.92813 2.3038 6.90313L5.64005 5.39188V14.8094L2.19255 7.19813ZM15.0144 14.3881V5.93751C15.0142 5.89795 15.0068 5.85877 14.9925 5.82188L16.8769 6.80751L16.2888 8.06876C16.2714 8.10593 16.2615 8.14616 16.2597 8.18715C16.2579 8.22815 16.2642 8.26909 16.2783 8.30765C16.2923 8.3462 16.3139 8.3816 16.3416 8.41182C16.3694 8.44204 16.4028 8.46649 16.4401 8.48376L17.6794 9.06188L15.0144 14.3881Z" fill="#1A4875"/>
</svg>
