<svg width="24" height="24" viewBox="0 0 24 24" fill="none" xmlns="http://www.w3.org/2000/svg">
<path d="M12 13C15.0376 13 17.5 10.5376 17.5 7.5C17.5 4.46243 15.0376 2 12 2C8.96243 2 6.5 4.46243 6.5 7.5C6.5 10.5376 8.96243 13 12 13Z" fill="#FFCCBC"/>
<path d="M15 14H9C7.14348 14 5.36301 14.7375 4.05025 16.0503C2.7375 17.363 2 19.1435 2 21C2 21.2652 2.10536 21.5196 2.29289 21.7071C2.48043 21.8946 2.73478 22 3 22H21C21.2652 22 21.5196 21.8946 21.7071 21.7071C21.8946 21.5196 22 21.2652 22 21C22 19.1435 21.2625 17.363 19.9497 16.0503C18.637 14.7375 16.8565 14 15 14V14Z" fill="#FF8A65"/>
<path d="M12 13C10.9122 13 9.84883 12.6774 8.94436 12.0731C8.03989 11.4687 7.33494 10.6098 6.91866 9.60476C6.50238 8.59977 6.39346 7.4939 6.60568 6.42701C6.8179 5.36011 7.34172 4.3801 8.11091 3.61092C8.8801 2.84173 9.86011 2.3179 10.927 2.10568C11.9939 1.89346 13.0998 2.00238 14.1048 2.41867C15.1098 2.83495 15.9687 3.5399 16.5731 4.44437C17.1774 5.34884 17.5 6.41221 17.5 7.5C17.4974 8.95788 16.917 10.3553 15.8862 11.3862C14.8553 12.417 13.4579 12.9974 12 13ZM12 4C11.3078 4 10.6311 4.20527 10.0555 4.58986C9.47993 4.97444 9.03133 5.52107 8.76642 6.16061C8.50151 6.80015 8.4322 7.50389 8.56725 8.18282C8.7023 8.86175 9.03564 9.48539 9.52513 9.97488C10.0146 10.4644 10.6382 10.7977 11.3172 10.9328C11.9961 11.0678 12.6999 10.9985 13.3394 10.7336C13.9789 10.4687 14.5256 10.0201 14.9101 9.4445C15.2947 8.86893 15.5 8.19224 15.5 7.5C15.5 6.57174 15.1313 5.68151 14.4749 5.02513C13.8185 4.36875 12.9283 4 12 4V4ZM21 22H3C2.73478 22 2.48043 21.8946 2.29289 21.7071C2.10536 21.5196 2 21.2652 2 21C2 19.1435 2.7375 17.363 4.05025 16.0503C5.36301 14.7375 7.14348 14 9 14H15C16.8565 14 18.637 14.7375 19.9497 16.0503C21.2625 17.363 22 19.1435 22 21C22 21.2652 21.8946 21.5196 21.7071 21.7071C21.5196 21.8946 21.2652 22 21 22ZM4.1 20H19.9C19.6695 18.8706 19.0558 17.8556 18.1629 17.1267C17.27 16.3978 16.1527 15.9998 15 16H9C7.84735 15.9998 6.73001 16.3978 5.8371 17.1267C4.94418 17.8556 4.33053 18.8706 4.1 20V20Z" fill="#073387"/>
</svg>
