<svg width="20" height="20" viewBox="0 0 20 20" fill="none" xmlns="http://www.w3.org/2000/svg">
<path d="M10.1227 16.7031C9.85724 16.0974 9.7386 15.4376 9.7764 14.7774C9.8142 14.1172 10.0074 13.4752 10.3402 12.9038C10.673 12.3323 11.1361 11.8475 11.6917 11.4889C12.2473 11.1302 12.8797 10.9079 13.5375 10.8398C13.6789 10.8258 13.8223 10.8184 13.9672 10.8184C14.7236 10.8185 15.4659 11.023 16.1156 11.4103C16.7653 11.7976 17.2983 12.3532 17.6583 13.0185C18.0182 13.6837 18.1917 14.4339 18.1604 15.1896C18.1291 15.9454 17.8942 16.6786 17.4805 17.3118C17.0668 17.9451 16.4897 18.4548 15.8102 18.787C15.1307 19.1193 14.3741 19.2617 13.6203 19.1994C12.8664 19.137 12.1435 18.8721 11.5278 18.4327C10.9122 17.9933 10.4267 17.3957 10.1227 16.7031ZM16.6402 16.8168C16.6963 16.7593 16.7275 16.682 16.7271 16.6017C16.7267 16.5213 16.6946 16.4444 16.6379 16.3875L15.5914 15.341C15.5628 15.3125 15.5289 15.2899 15.4915 15.2746C15.4541 15.2592 15.4141 15.2514 15.3737 15.2517C15.3333 15.2519 15.2934 15.2601 15.2562 15.2758C15.219 15.2916 15.1853 15.3145 15.157 15.3434L14.9355 15.5703C14.882 15.6249 14.851 15.6976 14.8485 15.774C14.8461 15.8504 14.8724 15.9249 14.9223 15.9828L14.9215 15.9836L14.6367 16.2688C14.58 16.3254 14.5032 16.3572 14.423 16.3572C14.3429 16.3572 14.2661 16.3254 14.2094 16.2688L12.7133 14.7727C12.7082 14.768 12.7035 14.7629 12.6988 14.7578C12.6486 14.7 12.6222 14.6253 12.6249 14.5487C12.6276 14.4722 12.6592 14.3995 12.7133 14.3453L12.9973 14.0609C13.0552 14.1136 13.1312 14.142 13.2095 14.1401C13.2877 14.1382 13.3623 14.1062 13.4176 14.0508L13.6434 13.825C13.7006 13.7677 13.7327 13.69 13.7327 13.609C13.7327 13.528 13.7006 13.4503 13.6434 13.393L12.5969 12.3465C12.5396 12.2893 12.462 12.2571 12.3811 12.2571C12.3001 12.2571 12.2225 12.2893 12.1652 12.3465L11.9395 12.5723C11.911 12.6006 11.8885 12.6343 11.8731 12.6713C11.8577 12.7084 11.8498 12.7481 11.8498 12.7883C11.8498 12.8284 11.8577 12.8682 11.8731 12.9052C11.8885 12.9423 11.911 12.976 11.9395 13.0043L11.9996 13.0645L11.5023 13.5617C11.4087 13.6552 11.3345 13.7663 11.2838 13.8885C11.2331 14.0107 11.207 14.1417 11.207 14.274C11.207 14.4063 11.2331 14.5373 11.2838 14.6596C11.3345 14.7818 11.4087 14.8928 11.5023 14.9863L13.9957 17.4797C14.0892 17.5733 14.2002 17.6476 14.3225 17.6982C14.4447 17.7489 14.5757 17.775 14.708 17.775C14.8403 17.775 14.9713 17.7489 15.0936 17.6982C15.2158 17.6476 15.3268 17.5733 15.4203 17.4797L15.9191 16.9812L15.9844 17.0461C16.0129 17.0746 16.0469 17.0971 16.0842 17.1125C16.1216 17.1278 16.1616 17.1355 16.2019 17.1352C16.2423 17.135 16.2822 17.1267 16.3193 17.111C16.3565 17.0952 16.3901 17.0722 16.4184 17.0434L16.6402 16.8168Z" fill="#00EFD1"/>
<path d="M16.6372 16.3868C16.6939 16.4437 16.726 16.5207 16.7264 16.601C16.7268 16.6813 16.6956 16.7586 16.6395 16.8161L16.4177 17.0427C16.3894 17.0715 16.3558 17.0945 16.3186 17.1103C16.2815 17.1261 16.2416 17.1343 16.2012 17.1346C16.1609 17.1348 16.1209 17.1271 16.0835 17.1118C16.0462 17.0965 16.0122 17.0739 15.9837 17.0454L15.9184 16.9806L14.9372 15.9989C14.9317 15.9935 14.9266 15.988 14.9216 15.9821C14.8717 15.9242 14.8454 15.8497 14.8478 15.7733C14.8503 15.6969 14.8813 15.6242 14.9348 15.5696L15.1563 15.3427C15.1846 15.3138 15.2183 15.2909 15.2555 15.2752C15.2927 15.2594 15.3326 15.2512 15.373 15.251C15.4134 15.2508 15.4534 15.2585 15.4908 15.2739C15.5282 15.2892 15.5621 15.3118 15.5907 15.3403L16.6372 16.3868Z" fill="#FEDB41"/>
<path d="M14.9379 15.9996L15.9191 16.9812L15.4203 17.4797C15.3268 17.5733 15.2158 17.6476 15.0936 17.6982C14.9713 17.7489 14.8403 17.775 14.708 17.775C14.5757 17.775 14.4447 17.7489 14.3225 17.6982C14.2002 17.6476 14.0892 17.5733 13.9957 17.4797L11.5023 14.9863C11.4087 14.8928 11.3345 14.7818 11.2838 14.6596C11.2331 14.5373 11.207 14.4063 11.207 14.274C11.207 14.1417 11.2331 14.0107 11.2838 13.8885C11.3345 13.7663 11.4087 13.6552 11.5023 13.5617L11.9996 13.0645L12.9859 14.0508C12.9894 14.0545 12.9932 14.0579 12.9973 14.0609L12.7133 14.3453C12.6591 14.3995 12.6276 14.4722 12.6249 14.5487C12.6222 14.6253 12.6486 14.7 12.6988 14.7578C12.7035 14.7629 12.7082 14.768 12.7133 14.7727L14.2094 16.2687C14.2661 16.3254 14.3429 16.3572 14.423 16.3572C14.5032 16.3572 14.58 16.3254 14.6367 16.2687L14.9215 15.9836L14.9223 15.9828C14.9273 15.9887 14.9324 15.9941 14.9379 15.9996Z" fill="#00ACEA"/>
<path d="M11.9975 13.0642L11.9373 13.004C11.9089 12.9757 11.8863 12.942 11.871 12.9049C11.8556 12.8679 11.8477 12.8281 11.8477 12.788C11.8477 12.7479 11.8556 12.7081 11.871 12.671C11.8863 12.634 11.9089 12.6003 11.9373 12.572L12.1631 12.3462C12.2203 12.289 12.298 12.2568 12.3789 12.2568C12.4598 12.2568 12.5375 12.289 12.5947 12.3462L13.6412 13.3927C13.6984 13.45 13.7306 13.5277 13.7306 13.6087C13.7306 13.6897 13.6984 13.7674 13.6412 13.8247L13.4154 14.0505C13.3601 14.1059 13.2856 14.1379 13.2073 14.1398C13.129 14.1417 13.053 14.1133 12.9951 14.0606C12.9911 14.0576 12.9873 14.0542 12.9838 14.0505L11.9975 13.0642Z" fill="#FEDB41"/>
<path d="M13.5363 10.8352L13.5367 10.8398C12.8789 10.9079 12.2465 11.1302 11.6909 11.4889C11.1353 11.8475 10.6722 12.3323 10.3394 12.9038C10.0066 13.4752 9.81342 14.1172 9.77562 14.7774C9.73782 15.4376 9.85645 16.0974 10.1219 16.7031H1.83594V11.1574C1.83596 10.4084 2.13344 9.69003 2.66297 9.16028C3.1925 8.63053 3.91074 8.33275 4.65977 8.33242C5.00973 8.8087 5.46686 9.19595 5.9942 9.46286C6.52154 9.72977 7.10428 9.86884 7.69531 9.86884C8.28635 9.86884 8.86909 9.72977 9.39642 9.46286C9.92376 9.19595 10.3809 8.8087 10.7309 8.33242C11.4241 8.33279 12.093 8.58799 12.6103 9.04947C13.1276 9.51094 13.4571 10.1465 13.5363 10.8352ZM7.69531 0.787109C8.31612 0.787148 8.92298 0.971277 9.43914 1.31621C9.9553 1.66115 10.3576 2.1514 10.5951 2.72496C10.8327 3.29853 10.8948 3.92966 10.7736 4.53853C10.6525 5.1474 10.3535 5.70668 9.91449 6.14563C9.47549 6.58458 8.91618 6.88349 8.30729 7.00457C7.6984 7.12565 7.06728 7.06345 6.49374 6.82584C5.92021 6.58823 5.43001 6.18588 5.08514 5.66967C4.74026 5.15347 4.55621 4.54659 4.55625 3.92578C4.55635 3.09332 4.88712 2.29499 5.4758 1.70638C6.06448 1.11778 6.86285 0.787109 7.69531 0.787109Z" fill="#00ACEA"/>
<path d="M4.24219 3.92578C4.24211 4.60845 4.44448 5.27582 4.82369 5.84347C5.20291 6.41113 5.74194 6.85359 6.37262 7.11489C7.00331 7.37619 7.69731 7.4446 8.36688 7.31146C9.03644 7.17833 9.65149 6.84963 10.1342 6.36693C10.617 5.88424 10.9458 5.26923 11.079 4.59968C11.2122 3.93013 11.1438 3.23612 10.8826 2.60541C10.6214 1.97469 10.179 1.43561 9.61138 1.05633C9.04376 0.67705 8.37642 0.474609 7.69375 0.474609C6.77872 0.475643 5.90147 0.839567 5.25441 1.48655C4.60735 2.13354 4.24332 3.01076 4.24219 3.92578ZM10.5203 3.92578C10.5204 4.48484 10.3547 5.03136 10.0441 5.49624C9.7336 5.96112 9.29218 6.32347 8.7757 6.53746C8.25922 6.75146 7.69088 6.80749 7.14255 6.69847C6.59423 6.58945 6.09055 6.32028 5.69521 5.92499C5.29987 5.52971 5.03062 5.02606 4.92153 4.47775C4.81243 3.92944 4.86839 3.36109 5.08231 2.84458C5.29623 2.32807 5.65852 1.8866 6.12336 1.576C6.58819 1.26539 7.13469 1.09961 7.69375 1.09961C8.44307 1.10046 9.16147 1.39847 9.69136 1.92829C10.2212 2.4581 10.5194 3.17646 10.5203 3.92578ZM15.373 14.9223H15.3695C15.2872 14.9239 15.206 14.9419 15.1307 14.9753C15.0554 15.0087 14.9876 15.0567 14.9311 15.1166L14.71 15.3474C14.6392 15.4209 14.5874 15.5106 14.5593 15.6087C14.5312 15.7068 14.5275 15.8103 14.5487 15.9102L14.4207 16.0394L12.9393 14.5584L13.0613 14.4365C13.1632 14.4606 13.2697 14.4581 13.3703 14.4292C13.471 14.4004 13.5626 14.3461 13.6362 14.2717L13.8624 14.0456C13.9779 13.9295 14.0427 13.7724 14.0426 13.6087C14.0425 13.445 13.9776 13.288 13.8621 13.172L12.8155 12.1254C12.7582 12.068 12.6901 12.0225 12.6151 11.9915C12.5402 11.9604 12.4598 11.9445 12.3787 11.9445C12.2976 11.9445 12.2173 11.9604 12.1423 11.9915C12.0674 12.0225 11.9993 12.068 11.942 12.1254L11.7161 12.3512C11.6288 12.4389 11.5697 12.5507 11.5465 12.6723C11.5234 12.7939 11.5373 12.9197 11.5864 13.0333L11.2791 13.3405C11.1565 13.463 11.0592 13.6085 10.9928 13.7687C10.9264 13.9288 10.8922 14.1005 10.8922 14.2738C10.8922 14.4472 10.9264 14.6189 10.9928 14.779C11.0592 14.9392 11.1565 15.0847 11.2791 15.2072L13.7724 17.7005C13.8949 17.8231 14.0404 17.9204 14.2005 17.9868C14.3607 18.0531 14.5323 18.0873 14.7057 18.0873C14.8791 18.0873 15.0507 18.0531 15.2109 17.9868C15.371 17.9204 15.5165 17.8231 15.639 17.7005L15.946 17.4004C16.0246 17.4382 16.1103 17.4589 16.1974 17.4613H16.2011C16.2833 17.4601 16.3644 17.4424 16.4397 17.4093C16.5149 17.3763 16.5828 17.3285 16.6393 17.2688L16.8614 17.0386C16.9744 16.9216 17.0372 16.7651 17.0363 16.6024C17.0354 16.4398 16.9708 16.2839 16.8565 16.1682L15.8096 15.1121C15.695 14.9936 15.538 14.9253 15.373 14.9223ZM12.3787 12.5726L13.4151 13.609L13.1994 13.8246L12.163 12.7883L12.3787 12.5726ZM15.1969 17.2588C15.1324 17.3234 15.0559 17.3746 14.9716 17.4096C14.8873 17.4446 14.7969 17.4626 14.7056 17.4626C14.6144 17.4626 14.524 17.4446 14.4397 17.4096C14.3554 17.3746 14.2788 17.3234 14.2143 17.2588L11.7211 14.7652C11.6565 14.7008 11.6053 14.6242 11.5703 14.5399C11.5353 14.4556 11.5173 14.3652 11.5173 14.274C11.5173 14.1827 11.5353 14.0923 11.5703 14.008C11.6053 13.9237 11.6565 13.8472 11.7211 13.7827L11.9973 13.5064L12.5527 14.0617L12.4924 14.122C12.3804 14.2318 12.3148 14.3804 12.3092 14.5372C12.3035 14.6939 12.3583 14.8468 12.4621 14.9644L12.4677 14.9706C12.476 14.9795 12.4844 14.9883 12.4931 14.9967L13.9884 16.4919C14.1032 16.6057 14.2582 16.6697 14.4199 16.6699C14.5832 16.6695 14.7397 16.6047 14.8556 16.4896L14.9195 16.4255L15.475 16.9811L15.1969 17.2588ZM16.1976 16.8198L15.1616 15.7837L15.3731 15.567L16.4095 16.6034L16.1976 16.8198Z" fill="#083863"/>
<path d="M13.9664 10.5055C13.9113 10.5055 13.8557 10.501 13.8001 10.503C13.6523 9.79816 13.2668 9.16554 12.708 8.71123C12.1492 8.25693 11.4512 8.00857 10.731 8.00781C10.6816 8.00894 10.633 8.02158 10.5893 8.04473C10.5456 8.06787 10.5079 8.1009 10.4791 8.14117C10.1591 8.57922 9.74013 8.93555 9.25638 9.18116C8.77264 9.42678 8.23776 9.55475 7.69523 9.55468C7.15271 9.5546 6.61786 9.42648 6.13418 9.18072C5.65051 8.93497 5.23167 8.57853 4.91172 8.14039C4.88294 8.1002 4.84518 8.06729 4.80144 8.04427C4.7577 8.02125 4.70918 8.00877 4.65977 8.00781C2.93035 8.00781 1.52344 9.42789 1.52344 11.157V16.7027C1.52344 16.8753 1.66336 17.0312 1.83594 17.0312H9.92355C10.2984 17.7828 10.8752 18.4151 11.5893 18.8572C12.3035 19.2992 13.1267 19.5335 13.9665 19.5338C16.4534 19.5338 18.4767 17.5064 18.4767 15.0196C18.4767 12.5328 16.4533 10.5055 13.9664 10.5055ZM9.66941 16.4062H2.14844V11.157C2.14932 10.5172 2.3939 9.9018 2.83243 9.43594C3.27096 8.97007 3.87049 8.68875 4.50906 8.64922C4.89125 9.12718 5.37608 9.51304 5.92763 9.77821C6.47917 10.0434 7.08331 10.1811 7.69529 10.1811C8.30727 10.1811 8.91141 10.0434 9.46296 9.77821C10.0145 9.51304 10.4993 9.12718 10.8815 8.64922C11.4198 8.68133 11.9335 8.88597 12.3463 9.23283C12.7592 9.57969 13.0494 10.0503 13.1739 10.575C12.1303 10.7615 11.1857 11.3096 10.5059 12.1231C9.82606 12.9366 9.45445 13.9635 9.45625 15.0236C9.45747 15.4926 9.52933 15.9587 9.66941 16.4062ZM13.9663 18.9008C13.2115 18.9006 12.4731 18.6808 11.8412 18.2681C11.2093 17.8553 10.7112 17.2676 10.4077 16.5766C10.162 16.016 10.0522 15.4054 10.0871 14.7944C10.1221 14.1833 10.3008 13.5892 10.6088 13.0603C10.9168 12.5315 11.3454 12.0828 11.8596 11.7509C12.3738 11.419 12.9591 11.2132 13.5679 11.1502C13.7007 11.137 13.8349 11.1303 13.9663 11.1303C14.9967 11.1303 15.9849 11.5396 16.7135 12.2682C17.4421 12.9969 17.8514 13.9851 17.8514 15.0155C17.8514 16.0459 17.4421 17.0341 16.7135 17.7627C15.9849 18.4913 14.9967 18.9006 13.9663 18.9006V18.9008Z" fill="#083863"/>
</svg>
