<svg width="17" height="19" viewBox="0 0 17 19" fill="none" xmlns="http://www.w3.org/2000/svg">
<path d="M14.2266 14.1364L11.9805 15.2731C11.8208 14.991 11.5891 14.7564 11.3091 14.593C11.0292 14.4297 10.7109 14.3436 10.3867 14.3434H8.29688C7.96317 14.3416 7.63388 14.267 7.33203 14.1247L7.11719 14.0192C6.57825 13.7576 5.9844 13.6293 5.38554 13.6449C4.78668 13.6605 4.20033 13.8197 3.67578 14.1091V13.3473H0.796875V18.9255H3.67578V18.3786L4.23047 18.0622C4.46366 17.9287 4.73951 17.8909 5 17.9567L8.58203 18.8551L8.60156 18.8591C8.8247 18.8981 9.05081 18.9177 9.27734 18.9176C9.86655 18.9185 10.448 18.7835 10.9766 18.5231L10.9922 18.5153L16.2812 14.8825L16.1484 14.6637C15.9568 14.3462 15.6505 14.1144 15.2928 14.0162C14.9351 13.9181 14.5534 13.9611 14.2266 14.1364ZM1.34375 18.3825V13.8981H3.12891V18.0661L3.10938 18.0778L3.12891 18.1091V18.3825H1.34375ZM10.7148 18.0466C10.0918 18.3491 9.38923 18.4476 8.70703 18.3278L5.13672 17.4294C4.73884 17.3286 4.31736 17.386 3.96094 17.5895L3.67578 17.7536V14.7536C4.14099 14.4343 4.68252 14.2441 5.24519 14.2022C5.80786 14.1603 6.37158 14.2684 6.87891 14.5153L7.09375 14.6208C7.46803 14.8004 7.87782 14.8938 8.29297 14.8942H10.3828C10.6467 14.8946 10.904 14.9762 11.1199 15.1278C11.3358 15.2794 11.4999 15.4938 11.5898 15.7419C11.6096 15.794 11.6252 15.8475 11.6367 15.902H8.50391V16.4489H12.2148V16.1755C12.2156 16.0468 12.2025 15.9185 12.1758 15.7926L14.4766 14.6286L14.4844 14.6247C14.6488 14.5355 14.837 14.5 15.0226 14.5231C15.2083 14.5462 15.382 14.6268 15.5195 14.7536L10.7148 18.0466ZM2.57812 6.27702C2.52719 6.75698 2.53901 7.24153 2.61328 7.71843L2.02344 8.28483C1.98354 8.32425 1.95629 8.37465 1.94516 8.42961C1.93403 8.48457 1.93952 8.5416 1.96094 8.59343L2.65625 10.1872C2.67918 10.2387 2.71726 10.282 2.76541 10.3113C2.81356 10.3406 2.8695 10.3545 2.92578 10.3512L3.74609 10.2926C4.04523 10.672 4.39634 11.0074 4.78906 11.2887L4.76562 12.1091C4.76329 12.1657 4.77907 12.2216 4.81068 12.2687C4.84229 12.3157 4.88809 12.3515 4.94141 12.3708L6.5625 12.9958C6.59368 13.0079 6.62672 13.0145 6.66016 13.0153C6.69925 13.0147 6.73781 13.0061 6.77343 12.99C6.80904 12.9738 6.84096 12.9505 6.86719 12.9216L7.39844 12.3044C7.87847 12.3533 8.36277 12.3415 8.83984 12.2692L9.40625 12.863C9.44566 12.9029 9.49606 12.9301 9.55102 12.9412C9.60598 12.9524 9.66302 12.9469 9.71484 12.9255L11.3086 12.2301C11.3601 12.2072 11.4034 12.1691 11.4327 12.121C11.462 12.0728 11.4759 12.0169 11.4727 11.9606L11.4141 11.1403C11.7934 10.8412 12.1288 10.4901 12.4102 10.0973L13.2305 10.1208C13.2871 10.1231 13.343 10.1073 13.3901 10.0757C13.4372 10.0441 13.4729 9.99831 13.4922 9.94499L14.1172 8.3239C14.1383 8.27141 14.1421 8.21355 14.1281 8.15875C14.114 8.10394 14.0828 8.05506 14.0391 8.01921L13.4219 7.48796C13.4728 7.008 13.461 6.52346 13.3867 6.04655L13.9805 5.48015C14.0204 5.44074 14.0476 5.39034 14.0587 5.33537C14.0699 5.28041 14.0644 5.22338 14.043 5.17155L13.3477 3.5778C13.3247 3.5263 13.2866 3.48302 13.2385 3.45371C13.1903 3.4244 13.1344 3.41045 13.0781 3.41374L12.2578 3.47233C11.9587 3.09296 11.6076 2.75763 11.2148 2.47624L11.2383 1.65593C11.2406 1.59928 11.2248 1.54337 11.1932 1.4963C11.1616 1.44924 11.1158 1.41347 11.0625 1.39421L9.44141 0.769209C9.38892 0.748085 9.33106 0.744271 9.27626 0.758324C9.22145 0.772376 9.17256 0.803561 9.13672 0.847334L8.60547 1.46452C8.12543 1.41554 7.64114 1.42735 7.16406 1.49968L6.58984 0.898116C6.55043 0.858222 6.50003 0.830972 6.44507 0.81984C6.39011 0.808709 6.33308 0.814201 6.28125 0.835616L4.6875 1.53093C4.636 1.55386 4.59271 1.59194 4.5634 1.64009C4.53409 1.68824 4.52015 1.74418 4.52344 1.80046L4.58203 2.62077C4.20265 2.91991 3.86733 3.27102 3.58594 3.66374L2.76562 3.6403C2.70898 3.63797 2.65306 3.65375 2.606 3.68536C2.55893 3.71697 2.52317 3.76276 2.50391 3.81608L1.87891 5.43718C1.85778 5.48966 1.85397 5.54752 1.86802 5.60233C1.88207 5.65713 1.91326 5.70602 1.95703 5.74187L2.57812 6.27702ZM2.95313 4.19499L3.72656 4.21843C3.77276 4.22018 3.81862 4.20995 3.85969 4.18873C3.90076 4.16751 3.93564 4.13603 3.96094 4.09733C4.25135 3.66311 4.61479 3.28248 5.03516 2.97233C5.07218 2.94523 5.10166 2.90911 5.12081 2.86741C5.13995 2.8257 5.14811 2.7798 5.14453 2.73405L5.08594 1.96062L6.32812 1.41765L6.86328 1.97624C6.89414 2.0093 6.93299 2.03385 6.9761 2.04754C7.0192 2.06122 7.0651 2.06357 7.10938 2.05437C7.62623 1.95925 8.15483 1.94607 8.67578 2.0153C8.72076 2.02106 8.76647 2.01549 8.80876 1.99912C8.85105 1.98275 8.88858 1.95609 8.91797 1.92155L9.41797 1.34343L10.6797 1.83171L10.6562 2.60124C10.6545 2.64744 10.6647 2.6933 10.6859 2.73437C10.7072 2.77544 10.7387 2.81032 10.7773 2.83562C11.2116 3.12602 11.5922 3.48947 11.9023 3.90983C11.9297 3.94657 11.9659 3.97583 12.0075 3.99494C12.0492 4.01405 12.0949 4.0224 12.1406 4.01921L12.9141 3.96062L13.457 5.2028L12.8984 5.73796C12.8654 5.76882 12.8408 5.80767 12.8271 5.85077C12.8135 5.89388 12.8111 5.93978 12.8203 5.98405C12.9154 6.50091 12.9286 7.02951 12.8594 7.55046C12.8536 7.59544 12.8592 7.64115 12.8756 7.68344C12.8919 7.72573 12.9186 7.76326 12.9531 7.79265L13.5312 8.29265L13.043 9.55437L12.2695 9.53093C12.2233 9.52917 12.1775 9.53941 12.1364 9.56063C12.0953 9.58184 12.0605 9.61333 12.0352 9.65202C11.7447 10.0863 11.3813 10.4669 10.9609 10.777C10.9239 10.8041 10.8944 10.8402 10.8753 10.882C10.8561 10.9237 10.848 10.9696 10.8516 11.0153L10.9102 11.7887L9.66797 12.3317L9.13281 11.7731C9.10195 11.7401 9.0631 11.7155 9.02 11.7018C8.9769 11.6881 8.93099 11.6858 8.88672 11.695C8.36987 11.7901 7.84126 11.8033 7.32031 11.7341C7.27533 11.7283 7.22963 11.7339 7.18734 11.7502C7.14505 11.7666 7.10751 11.7933 7.07812 11.8278L6.57812 12.4059L5.31641 11.9176L5.33984 11.1442C5.3416 11.098 5.33137 11.0522 5.31015 11.0111C5.28893 10.97 5.25744 10.9351 5.21875 10.9098C4.78452 10.6194 4.40389 10.256 4.09375 9.83562C4.06637 9.79888 4.03021 9.76962 3.98857 9.75051C3.94694 9.7314 3.90117 9.72305 3.85547 9.72624L3.08203 9.78483L2.53906 8.54265L3.09766 8.00749C3.13071 7.97663 3.15527 7.93778 3.16895 7.89468C3.18264 7.85157 3.18499 7.80567 3.17578 7.7614C3.08066 7.24454 3.06748 6.71594 3.13672 6.19499C3.14247 6.15001 3.13691 6.1043 3.12054 6.06201C3.10417 6.01972 3.07751 5.98219 3.04297 5.9528L2.46484 5.4528L2.95313 4.19499Z" fill="black"/>
<path d="M7.90135 10.7148H8.10057C9.10124 10.6897 10.0525 10.2745 10.7513 9.55788C11.4502 8.84125 11.8413 7.87989 11.8413 6.87891C11.8413 5.87792 11.4502 4.91657 10.7513 4.19993C10.0525 3.48329 9.10124 3.06811 8.10057 3.04297H7.89745C6.89567 3.06697 5.94304 3.48191 5.24319 4.19908C4.54335 4.91626 4.15183 5.87876 4.15234 6.88081C4.15285 7.88287 4.54535 8.84497 5.24592 9.56143C5.9465 10.2779 6.89956 10.6919 7.90135 10.7148ZM5.3701 4.89453C5.53965 5.05375 5.72409 5.19633 5.92088 5.32031C5.78994 5.73558 5.71506 6.16647 5.69823 6.60156H4.71776C4.76849 5.9821 4.99478 5.38995 5.3701 4.89453ZM11.2803 6.60156H10.2998C10.2801 6.16391 10.2039 5.73064 10.0732 5.3125C10.2689 5.18711 10.452 5.04322 10.6201 4.88281C10.9995 5.38106 11.2286 5.97742 11.2803 6.60156ZM10.6201 8.86719C10.451 8.70794 10.268 8.56414 10.0732 8.4375C10.2039 8.01936 10.2801 7.58609 10.2998 7.14844H11.2803C11.2286 7.77258 10.9995 8.36894 10.6201 8.86719ZM7.72557 10.0273C7.2412 9.71484 6.85838 9.25781 6.60057 8.68359C6.95557 8.5203 7.33622 8.41986 7.72557 8.38672V10.0273ZM8.27245 8.38672C8.66266 8.41747 9.04395 8.51941 9.39745 8.6875C9.13963 9.26172 8.75682 9.71875 8.27245 10.0312V8.38672ZM9.58495 8.16797C9.171 7.9792 8.72636 7.86671 8.27245 7.83594V7.14844H9.75291C9.73639 7.49362 9.68002 7.83573 9.58495 8.16797ZM9.75291 6.60156H8.27245V5.91406C8.72636 5.88329 9.171 5.77081 9.58495 5.58203C9.68002 5.91427 9.73639 6.25638 9.75291 6.60156ZM8.27245 5.36328V3.72266C8.75682 4.03125 9.13963 4.48828 9.39745 5.06641C9.04308 5.23148 8.66212 5.33201 8.27245 5.36328ZM7.72557 5.36328C7.3359 5.33201 6.95493 5.23148 6.60057 5.06641C6.85838 4.48828 7.2412 4.03125 7.72557 3.72266V5.36328ZM6.41307 5.58594C6.82817 5.77077 7.27232 5.88181 7.72557 5.91406V6.60156H6.2451C6.26194 6.2577 6.3183 5.91691 6.41307 5.58594ZM7.72557 7.14844V7.83594C7.27232 7.86819 6.82817 7.97923 6.41307 8.16406C6.3183 7.83309 6.26194 7.4923 6.2451 7.14844H7.72557ZM6.12401 8.95312C6.28699 9.30888 6.50444 9.63704 6.76854 9.92578C6.38616 9.77111 6.03632 9.54583 5.73729 9.26172C5.85661 9.14739 5.98605 9.0441 6.12401 8.95312ZM9.87401 8.96094C10.0093 9.05527 10.1373 9.15973 10.2568 9.27344C9.95905 9.55629 9.61048 9.78027 9.22948 9.93359C9.49143 9.64318 9.70866 9.31536 9.87401 8.96094ZM9.87401 4.78906C9.71103 4.43331 9.49357 4.10515 9.22948 3.81641C9.61048 3.96972 9.95905 4.19371 10.2568 4.47656C10.1365 4.58934 10.0086 4.69375 9.87401 4.78906ZM6.12401 4.79688C5.98743 4.70258 5.85815 4.59812 5.73729 4.48438C6.03668 4.20072 6.38643 3.9755 6.76854 3.82031C6.50267 4.10913 6.28504 4.43887 6.12401 4.79688ZM5.69823 7.14844C5.71698 7.58332 5.79182 8.01397 5.92088 8.42969C5.72409 8.55367 5.53965 8.69625 5.3701 8.85547C4.99478 8.36005 4.76849 7.7679 4.71776 7.14844H5.69823Z" fill="black"/>
</svg>
