<svg width="15" height="15" viewBox="0 0 15 15" fill="none" xmlns="http://www.w3.org/2000/svg">
<path d="M14.7105 3.32737V12.5928C14.7107 12.7407 14.6817 12.8873 14.6251 13.0241C14.5686 13.1608 14.4857 13.2851 14.3811 13.3898C14.2765 13.4945 14.1523 13.5776 14.0156 13.6342C13.8789 13.6909 13.7324 13.7201 13.5844 13.7201H1.41016L2.53746 12.5224V1.2793H12.8402L14.7105 3.32737Z" fill="#C8DFF5"/>
<path d="M13.5855 13.8934H1.41131C1.3775 13.8934 1.34443 13.8835 1.3162 13.8649C1.28796 13.8463 1.26578 13.8199 1.25241 13.7888C1.23903 13.7578 1.23504 13.7235 1.24093 13.6902C1.24681 13.6569 1.26232 13.6261 1.28554 13.6015L2.36207 12.4546V1.27956C2.36207 1.25653 2.36666 1.23374 2.37557 1.21251C2.38449 1.19129 2.39755 1.17205 2.41399 1.15593C2.43043 1.13981 2.44992 1.12714 2.47132 1.11865C2.49272 1.11016 2.51559 1.10602 2.53861 1.10648H12.8413C12.8654 1.1066 12.8892 1.11169 12.9112 1.12142C12.9333 1.13114 12.9531 1.1453 12.9694 1.16302L14.8432 3.2111C14.8719 3.24269 14.888 3.28378 14.8882 3.32648V12.5919C14.8882 12.7629 14.8545 12.9322 14.789 13.0902C14.7236 13.2482 14.6276 13.3917 14.5066 13.5126C14.3856 13.6335 14.242 13.7293 14.084 13.7947C13.9259 13.86 13.7566 13.8936 13.5855 13.8934ZM1.81631 13.5472H13.5855C13.8383 13.5466 14.0806 13.4459 14.2592 13.267C14.4378 13.0882 14.5383 12.8458 14.5386 12.593V3.39456L12.7617 1.45263H2.70823V12.5226C2.70713 12.5656 2.69029 12.6067 2.66092 12.638L1.81631 13.5472Z" fill="#2481D7"/>
<path d="M0.289062 3.32812H2.53906V12.597C2.53906 12.8947 2.42078 13.1803 2.21023 13.3908C1.99969 13.6014 1.71413 13.7197 1.41637 13.7197C1.26894 13.7197 1.12295 13.6906 0.986735 13.6342C0.850523 13.5778 0.726758 13.4951 0.622507 13.3908C0.411961 13.1803 0.293678 12.8947 0.293678 12.597V3.32812H0.289062Z" fill="#C8DFF5"/>
<path d="M1.41296 13.8931C1.06929 13.8925 0.739881 13.7557 0.496977 13.5125C0.254072 13.2694 0.117492 12.9399 0.117188 12.5962V3.32737C0.117188 3.28147 0.135422 3.23745 0.167881 3.20499C0.200339 3.17253 0.244362 3.1543 0.290264 3.1543H2.54026C2.58617 3.1543 2.63019 3.17253 2.66265 3.20499C2.69511 3.23745 2.71334 3.28147 2.71334 3.32737V12.5962C2.71334 12.7668 2.67968 12.9358 2.61429 13.0933C2.5489 13.2509 2.45306 13.394 2.33226 13.5145C2.21146 13.635 2.06808 13.7304 1.91033 13.7954C1.75258 13.8604 1.58356 13.8936 1.41296 13.8931ZM0.463341 3.50045V12.5962C0.463341 12.8481 0.56339 13.0896 0.741477 13.2677C0.919565 13.4458 1.1611 13.5458 1.41296 13.5458C1.66481 13.5458 1.90635 13.4458 2.08444 13.2677C2.26252 13.0896 2.36257 12.8481 2.36257 12.5962V3.50045H0.463341Z" fill="#2481D7"/>
<path d="M2.53843 4.30251V2.22559H1.84612V12.211C1.84612 12.2684 1.83481 12.3253 1.81283 12.3783C1.79085 12.4314 1.75864 12.4796 1.71803 12.5202C1.67743 12.5608 1.62922 12.593 1.57616 12.615C1.5231 12.637 1.46624 12.6483 1.40881 12.6483C1.29303 12.648 1.18209 12.6018 1.10033 12.5198C1.01857 12.4378 0.972656 12.3268 0.972656 12.211V2.82212H1.84612V3.65636" fill="#C8DFF5"/>
<path d="M1.41206 12.8226C1.25137 12.8207 1.09789 12.7556 0.984917 12.6413C0.87194 12.5271 0.808583 12.3729 0.808594 12.2122V2.82217C0.809456 2.77816 0.827168 2.73615 0.85808 2.70481C0.888993 2.67347 0.93075 2.65518 0.974748 2.65371H1.67629V2.22679C1.67628 2.18128 1.6942 2.13761 1.72616 2.10521C1.75812 2.07282 1.80155 2.05432 1.84706 2.05371H2.53936C2.58527 2.05371 2.62929 2.07195 2.66175 2.1044C2.6942 2.13686 2.71244 2.18089 2.71244 2.22679V4.30371C2.71244 4.34961 2.6942 4.39364 2.66175 4.4261C2.62929 4.45855 2.58527 4.47679 2.53936 4.47679C2.49346 4.47679 2.44944 4.45855 2.41698 4.4261C2.38452 4.39364 2.36629 4.34961 2.36629 4.30371V2.39986H2.02244V12.2076C2.02305 12.2881 2.00771 12.368 1.97731 12.4426C1.94691 12.5171 1.90204 12.585 1.8453 12.6422C1.78856 12.6993 1.72107 12.7447 1.64671 12.7757C1.57235 12.8066 1.4926 12.8226 1.41206 12.8226ZM1.15475 2.99986V12.2179C1.15236 12.254 1.1574 12.2902 1.16957 12.3243C1.18174 12.3584 1.20077 12.3896 1.22549 12.416C1.25021 12.4424 1.28008 12.4634 1.31326 12.4778C1.34645 12.4922 1.38223 12.4996 1.4184 12.4996C1.45457 12.4996 1.49035 12.4922 1.52354 12.4778C1.55672 12.4634 1.5866 12.4424 1.61131 12.416C1.63603 12.3896 1.65506 12.3584 1.66723 12.3243C1.6794 12.2902 1.68444 12.254 1.68206 12.2179V2.99179L1.15475 2.99986Z" fill="#2481D7"/>
<path d="M14.7098 3.32737H12.8359V1.2793L14.7098 3.32737Z" fill="#68AADB"/>
<path d="M14.7118 3.50083H12.838C12.7921 3.50083 12.7481 3.4826 12.7156 3.45014C12.6831 3.41768 12.6649 3.37366 12.6649 3.32775V1.27968C12.6657 1.2451 12.6767 1.21154 12.6967 1.18326C12.7166 1.15499 12.7445 1.13328 12.7768 1.12091C12.8091 1.10853 12.8443 1.10605 12.878 1.11378C12.9117 1.1215 12.9424 1.13909 12.9661 1.16429L14.8399 3.21237C14.8625 3.23718 14.8774 3.26802 14.8828 3.30113C14.8882 3.33425 14.8838 3.36822 14.8702 3.39891C14.8567 3.42959 14.8345 3.45568 14.8063 3.47398C14.7782 3.49228 14.7454 3.50201 14.7118 3.50198V3.50083ZM13.0111 3.15468H14.3184L13.0111 1.73083V3.15468ZM11.0218 3.99583C10.8922 3.99491 10.7657 3.95555 10.6584 3.88273C10.5511 3.8099 10.4678 3.70689 10.4191 3.58672C10.3704 3.46655 10.3584 3.33463 10.3847 3.20765C10.411 3.08067 10.4743 2.96434 10.5667 2.87338C10.6592 2.78242 10.7765 2.72091 10.9039 2.69665C11.0312 2.67239 11.163 2.68646 11.2823 2.73708C11.4017 2.7877 11.5034 2.8726 11.5745 2.98103C11.6456 3.08946 11.683 3.21655 11.6818 3.34622C11.682 3.36898 11.6776 3.39155 11.6688 3.41257C11.6601 3.43359 11.6472 3.45263 11.631 3.46857C11.6147 3.4845 11.5954 3.497 11.5742 3.50532C11.553 3.51364 11.5304 3.5176 11.5076 3.51698C11.4623 3.51669 11.4189 3.49864 11.3868 3.46671C11.3546 3.43478 11.3363 3.39152 11.3357 3.34622C11.3365 3.30567 11.3291 3.26538 11.314 3.22772C11.299 3.19007 11.2765 3.15581 11.248 3.12698C11.1905 3.06829 11.1121 3.03469 11.0299 3.03352C10.9482 3.03413 10.8698 3.06591 10.8107 3.12237C10.7818 3.15101 10.7589 3.18507 10.7433 3.2226C10.7277 3.26012 10.7196 3.30037 10.7196 3.34102C10.7196 3.38167 10.7277 3.42192 10.7433 3.45945C10.7589 3.49698 10.7818 3.53104 10.8107 3.55968C10.839 3.5889 10.8729 3.61212 10.9103 3.62798C10.9478 3.64384 10.9881 3.652 11.0288 3.65198C11.0747 3.65198 11.1187 3.67022 11.1511 3.70268C11.1836 3.73514 11.2018 3.77916 11.2018 3.82506C11.2018 3.87096 11.1836 3.91499 11.1511 3.94745C11.1187 3.9799 11.0747 3.99814 11.0288 3.99814L11.0218 3.99583Z" fill="#2481D7"/>
<path d="M11.0166 4.96108C10.9306 4.96032 10.8455 4.94262 10.7663 4.90899C10.687 4.87535 10.6152 4.82644 10.5549 4.76505C10.4946 4.70365 10.4469 4.63098 10.4147 4.55117C10.3824 4.47136 10.3662 4.38599 10.367 4.29992C10.3682 4.25411 10.3872 4.21055 10.4199 4.17847C10.4526 4.14638 10.4966 4.12828 10.5424 4.128C10.5651 4.1283 10.5876 4.13308 10.6085 4.14205C10.6293 4.15103 10.6482 4.16403 10.6641 4.18032C10.68 4.19661 10.6925 4.21586 10.7009 4.23697C10.7093 4.25809 10.7135 4.28065 10.7132 4.30338C10.7128 4.3853 10.7447 4.46406 10.802 4.52262C10.8303 4.55183 10.8642 4.57506 10.9017 4.59092C10.9391 4.60678 10.9794 4.61494 11.0201 4.61492C11.1011 4.61536 11.179 4.58385 11.237 4.52723C11.2947 4.46909 11.3271 4.39049 11.3271 4.30858C11.3271 4.22666 11.2947 4.14806 11.237 4.08992C11.1795 4.03122 11.1011 3.99763 11.0189 3.99646C10.973 3.99646 10.929 3.97823 10.8965 3.94577C10.8641 3.91331 10.8459 3.86929 10.8459 3.82338C10.8459 3.77748 10.8641 3.73346 10.8965 3.701C10.929 3.66854 10.973 3.65031 11.0189 3.65031C11.1928 3.65061 11.3593 3.71996 11.482 3.84308C11.6047 3.96621 11.6735 4.13303 11.6732 4.30685C11.6729 4.48066 11.6035 4.64724 11.4804 4.76993C11.3573 4.89263 11.1904 4.96138 11.0166 4.96108ZM4.15355 4.92069C4.10765 4.92069 4.06362 4.90246 4.03116 4.87C3.99871 4.83754 3.98047 4.79352 3.98047 4.74762V2.84608C3.98026 2.81001 3.99125 2.77478 4.01192 2.74522C4.03258 2.71567 4.06191 2.69326 4.09586 2.68108C4.13095 2.66981 4.16873 2.67013 4.20363 2.68197C4.23854 2.69381 4.26871 2.71655 4.2897 2.74685L5.28432 4.16262V2.84608C5.28432 2.80017 5.30255 2.75615 5.33501 2.72369C5.36747 2.69123 5.41149 2.673 5.45739 2.673C5.5033 2.673 5.54732 2.69123 5.57978 2.72369C5.61224 2.75615 5.63047 2.80017 5.63047 2.84608V4.71069C5.63051 4.74754 5.61878 4.78343 5.59701 4.81315C5.57523 4.84287 5.54454 4.86487 5.5094 4.87594C5.47426 4.88701 5.4365 4.88658 5.40162 4.8747C5.36674 4.86283 5.33656 4.84014 5.31547 4.80992L4.32893 3.393V4.74762C4.32894 4.77054 4.32438 4.79324 4.31554 4.81439C4.3067 4.83554 4.29374 4.85472 4.27743 4.87082C4.26111 4.88692 4.24176 4.89962 4.22049 4.90819C4.19923 4.91675 4.17647 4.921 4.15355 4.92069ZM7.09124 4.92069H6.1497C6.1038 4.92069 6.05978 4.90246 6.02732 4.87C5.99486 4.83754 5.97663 4.79352 5.97663 4.74762V2.84608C5.97663 2.80017 5.99486 2.75615 6.02732 2.72369C6.05978 2.69123 6.1038 2.673 6.1497 2.673H7.09124C7.13714 2.673 7.18117 2.69123 7.21362 2.72369C7.24608 2.75615 7.26432 2.80017 7.26432 2.84608C7.26432 2.89198 7.24608 2.936 7.21362 2.96846C7.18117 3.00092 7.13714 3.01915 7.09124 3.01915H6.32278V4.57454H7.09124C7.13714 4.57454 7.18117 4.59277 7.21362 4.62523C7.24608 4.65769 7.26432 4.70171 7.26432 4.74762C7.26432 4.79352 7.24608 4.83754 7.21362 4.87C7.18117 4.90246 7.13714 4.92069 7.09124 4.92069Z" fill="#2481D7"/>
<path d="M6.80077 3.97029H6.15C6.1041 3.97029 6.06007 3.95205 6.02762 3.91959C5.99516 3.88714 5.97692 3.84311 5.97692 3.79721C5.97692 3.75131 5.99516 3.70728 6.02762 3.67483C6.06007 3.64237 6.1041 3.62413 6.15 3.62413H6.80077C6.84667 3.62413 6.89069 3.64237 6.92315 3.67483C6.95561 3.70728 6.97385 3.75131 6.97385 3.79721C6.97385 3.84311 6.95561 3.88714 6.92315 3.91959C6.89069 3.95205 6.84667 3.97029 6.80077 3.97029ZM9.59769 4.92106C9.56214 4.92089 9.52752 4.9097 9.49859 4.88903C9.46966 4.86837 9.44784 4.83925 9.43615 4.80567L8.88461 3.3599L8.4 4.80336C8.3881 4.83888 8.36479 4.86946 8.33369 4.89033C8.30259 4.91121 8.26545 4.9212 8.22808 4.91875C8.19072 4.91709 8.15491 4.90338 8.126 4.87967C8.09708 4.85596 8.07663 4.82352 8.06769 4.78721L7.60615 2.88452C7.59544 2.83984 7.60292 2.79274 7.62694 2.75357C7.65096 2.7144 7.68955 2.68638 7.73423 2.67567C7.77891 2.66496 7.82601 2.67244 7.86518 2.69646C7.90435 2.72048 7.93237 2.75907 7.94308 2.80375L8.26385 4.12606L8.71731 2.78875C8.72893 2.75536 8.75057 2.72636 8.77927 2.70572C8.80797 2.68507 8.84234 2.67377 8.87769 2.67336C8.9132 2.6737 8.94775 2.68495 8.97665 2.70559C9.00555 2.72624 9.02739 2.75527 9.03923 2.78875L9.54692 4.13413L9.82269 2.81413C9.83203 2.76869 9.85903 2.72881 9.89776 2.70328C9.9365 2.67775 9.98379 2.66865 10.0292 2.67798C10.0747 2.68731 10.1145 2.71432 10.1401 2.75305C10.1656 2.79178 10.1747 2.83907 10.1654 2.88452L9.76731 4.78375C9.75946 4.8205 9.73993 4.85372 9.71165 4.87847C9.68337 4.90321 9.64785 4.91815 9.61038 4.92106H9.59769ZM13.5196 5.9999H3.92308C3.87717 5.9999 3.83315 5.98167 3.80069 5.94921C3.76823 5.91675 3.75 5.87273 3.75 5.82683C3.75 5.78092 3.76823 5.7369 3.80069 5.70444C3.83315 5.67198 3.87717 5.65375 3.92308 5.65375H13.5196C13.5655 5.65375 13.6095 5.67198 13.642 5.70444C13.6745 5.7369 13.6927 5.78092 13.6927 5.82683C13.6927 5.87273 13.6745 5.91675 13.642 5.94921C13.6095 5.98167 13.5655 5.9999 13.5196 5.9999ZM8.025 7.03836H3.92308C3.87717 7.03836 3.83315 7.02013 3.80069 6.98767C3.76823 6.95521 3.75 6.91119 3.75 6.86529C3.75 6.81938 3.76823 6.77536 3.80069 6.7429C3.83315 6.71045 3.87717 6.69221 3.92308 6.69221H8.025C8.0709 6.69221 8.11492 6.71045 8.14738 6.7429C8.17984 6.77536 8.19808 6.81938 8.19808 6.86529C8.19808 6.91119 8.17984 6.95521 8.14738 6.98767C8.11492 7.02013 8.0709 7.03836 8.025 7.03836ZM13.5196 7.03836H9.41769C9.37179 7.03836 9.32777 7.02013 9.29531 6.98767C9.26285 6.95521 9.24462 6.91119 9.24462 6.86529C9.24462 6.81938 9.26285 6.77536 9.29531 6.7429C9.32777 6.71045 9.37179 6.69221 9.41769 6.69221H13.5196C13.5655 6.69221 13.6095 6.71045 13.642 6.7429C13.6745 6.77536 13.6927 6.81938 13.6927 6.86529C13.6927 6.91119 13.6745 6.95521 13.642 6.98767C13.6095 7.02013 13.5655 7.03836 13.5196 7.03836ZM8.025 8.07683H3.92308C3.87717 8.07683 3.83315 8.05859 3.80069 8.02613C3.76823 7.99367 3.75 7.94965 3.75 7.90375C3.75 7.85785 3.76823 7.81382 3.80069 7.78136C3.83315 7.74891 3.87717 7.73067 3.92308 7.73067H8.025C8.0709 7.73067 8.11492 7.74891 8.14738 7.78136C8.17984 7.81382 8.19808 7.85785 8.19808 7.90375C8.19808 7.94965 8.17984 7.99367 8.14738 8.02613C8.11492 8.05859 8.0709 8.07683 8.025 8.07683ZM13.5196 8.07683H9.41769C9.37179 8.07683 9.32777 8.05859 9.29531 8.02613C9.26285 7.99367 9.24462 7.94965 9.24462 7.90375C9.24462 7.85785 9.26285 7.81382 9.29531 7.78136C9.32777 7.74891 9.37179 7.73067 9.41769 7.73067H13.5196C13.5655 7.73067 13.6095 7.74891 13.642 7.78136C13.6745 7.81382 13.6927 7.85785 13.6927 7.90375C13.6927 7.94965 13.6745 7.99367 13.642 8.02613C13.6095 8.05859 13.5655 8.07683 13.5196 8.07683ZM8.025 9.11529H3.92308C3.87717 9.11529 3.83315 9.09705 3.80069 9.06459C3.76823 9.03214 3.75 8.98811 3.75 8.94221C3.75 8.89631 3.76823 8.85228 3.80069 8.81983C3.83315 8.78737 3.87717 8.76913 3.92308 8.76913H8.025C8.0709 8.76913 8.11492 8.78737 8.14738 8.81983C8.17984 8.85228 8.19808 8.89631 8.19808 8.94221C8.19808 8.98811 8.17984 9.03214 8.14738 9.06459C8.11492 9.09705 8.0709 9.11529 8.025 9.11529ZM13.5196 9.11529H9.41769C9.37179 9.11529 9.32777 9.09705 9.29531 9.06459C9.26285 9.03214 9.24462 8.98811 9.24462 8.94221C9.24462 8.89631 9.26285 8.85228 9.29531 8.81983C9.32777 8.78737 9.37179 8.76913 9.41769 8.76913H13.5196C13.5655 8.76913 13.6095 8.78737 13.642 8.81983C13.6745 8.85228 13.6927 8.89631 13.6927 8.94221C13.6927 8.98811 13.6745 9.03214 13.642 9.06459C13.6095 9.09705 13.5655 9.11529 13.5196 9.11529ZM8.025 10.1537H3.92308C3.87717 10.1537 3.83315 10.1355 3.80069 10.1031C3.76823 10.0706 3.75 10.0266 3.75 9.98067C3.75 9.93477 3.76823 9.89075 3.80069 9.85829C3.83315 9.82583 3.87717 9.8076 3.92308 9.8076H8.025C8.0709 9.8076 8.11492 9.82583 8.14738 9.85829C8.17984 9.89075 8.19808 9.93477 8.19808 9.98067C8.19808 10.0266 8.17984 10.0706 8.14738 10.1031C8.11492 10.1355 8.0709 10.1537 8.025 10.1537ZM8.025 11.1922H3.92308C3.90035 11.1922 3.87784 11.1877 3.85684 11.179C3.83584 11.1703 3.81676 11.1576 3.80069 11.1415C3.78462 11.1254 3.77187 11.1064 3.76317 11.0854C3.75448 11.0644 3.75 11.0419 3.75 11.0191C3.75 10.9964 3.75448 10.9739 3.76317 10.9529C3.77187 10.9319 3.78462 10.9128 3.80069 10.8967C3.81676 10.8807 3.83584 10.8679 3.85684 10.8592C3.87784 10.8505 3.90035 10.8461 3.92308 10.8461H8.025C8.0709 10.8461 8.11492 10.8643 8.14738 10.8967C8.17984 10.9292 8.19808 10.9732 8.19808 11.0191C8.19808 11.065 8.17984 11.1091 8.14738 11.1415C8.11492 11.174 8.0709 11.1922 8.025 11.1922ZM8.025 12.2307H3.92308C3.87717 12.2307 3.83315 12.2124 3.80069 12.18C3.76823 12.1475 3.75 12.1035 3.75 12.0576C3.75 12.0117 3.76823 11.9677 3.80069 11.9352C3.83315 11.9028 3.87717 11.8845 3.92308 11.8845H8.025C8.0709 11.8845 8.11492 11.9028 8.14738 11.9352C8.17984 11.9677 8.19808 12.0117 8.19808 12.0576C8.19808 12.1035 8.17984 12.1475 8.14738 12.18C8.11492 12.2124 8.0709 12.2307 8.025 12.2307Z" fill="#2481D7"/>
<path d="M9.41797 12.0533H13.521V9.97754H9.41797V12.0533Z" fill="#68AADB"/>
<path d="M13.5211 12.2307H9.41917C9.37327 12.2307 9.32924 12.2125 9.29679 12.18C9.26433 12.1475 9.24609 12.1035 9.24609 12.0576V9.98069C9.24609 9.93479 9.26433 9.89077 9.29679 9.85831C9.32924 9.82585 9.37327 9.80762 9.41917 9.80762H13.5211C13.567 9.80762 13.611 9.82585 13.6435 9.85831C13.6759 9.89077 13.6942 9.93479 13.6942 9.98069V12.0576C13.6942 12.1035 13.6759 12.1475 13.6435 12.18C13.611 12.2125 13.567 12.2307 13.5211 12.2307ZM9.59802 11.8845H13.3538V10.1538H9.59225L9.59802 11.8845Z" fill="#2481D7"/>
</svg>
