<svg width="34" height="31" viewBox="0 0 34 31" fill="none" xmlns="http://www.w3.org/2000/svg">
<path d="M30.0078 6.19922C30.3594 6.31641 30.6523 6.375 31.0625 6.375C32.5859 6.375 33.875 5.14453 33.875 3.5625C33.875 2.03906 32.5859 0.75 31.0625 0.75C29.4805 0.75 28.25 2.03906 28.25 3.5625C28.25 3.73828 28.25 3.85547 28.25 4.03125L22.6836 8.48438C22.332 8.36719 22.0391 8.25 21.6289 8.25C21.2773 8.25 20.9844 8.36719 20.6328 8.48438L15.0664 4.03125C15.0664 3.85547 15.125 3.73828 15.125 3.5625C15.125 2.03906 13.8359 0.75 12.3125 0.75C10.7305 0.75 9.5 2.03906 9.5 3.5625C9.5 3.85547 9.5 4.08984 9.55859 4.32422L3.64062 10.2422C3.40625 10.1836 3.17188 10.125 2.9375 10.125C1.35547 10.125 0.125 11.4141 0.125 12.9375C0.125 14.5195 1.35547 15.75 2.9375 15.75C4.46094 15.75 5.75 14.5195 5.75 12.9375C5.75 12.7031 5.69141 12.4688 5.63281 12.2344L11.5508 6.31641C11.7852 6.375 12.0195 6.375 12.3125 6.375C12.6641 6.375 12.957 6.31641 13.3086 6.19922L18.875 10.6523C18.875 10.8281 18.875 10.9453 18.875 11.0625C18.875 12.6445 20.1055 13.875 21.6875 13.875C23.2109 13.875 24.5 12.6445 24.5 11.0625C24.5 10.9453 24.4414 10.8281 24.4414 10.6523L30.0078 6.19922ZM23.5625 19.5H19.8125C19.2852 19.5 18.875 19.9688 18.875 20.4375V29.8125C18.875 30.3398 19.2852 30.75 19.8125 30.75H23.5625C24.0312 30.75 24.5 30.3398 24.5 29.8125V20.4375C24.5 19.9688 24.0312 19.5 23.5625 19.5ZM32.9375 12H29.1875C28.6602 12 28.25 12.4688 28.25 12.9375V29.8125C28.25 30.3398 28.6602 30.75 29.1875 30.75H32.9375C33.4062 30.75 33.875 30.3398 33.875 29.8125V12.9375C33.875 12.4688 33.4062 12 32.9375 12ZM14.1875 12H10.4375C9.91016 12 9.5 12.4688 9.5 12.9375V29.8125C9.5 30.3398 9.91016 30.75 10.4375 30.75H14.1875C14.6562 30.75 15.125 30.3398 15.125 29.8125V12.9375C15.125 12.4688 14.6562 12 14.1875 12ZM4.8125 21.375H1.0625C0.535156 21.375 0.125 21.8438 0.125 22.3125V29.8125C0.125 30.3398 0.535156 30.75 1.0625 30.75H4.8125C5.28125 30.75 5.75 30.3398 5.75 29.8125V22.3125C5.75 21.8438 5.28125 21.375 4.8125 21.375Z" fill="white"/>
</svg>
