<svg width="41" height="33" viewBox="0 0 41 33" fill="none" xmlns="http://www.w3.org/2000/svg">
<path d="M40.0889 15.6081H25.0556V12.9324C25.0549 12.6961 24.9587 12.4696 24.788 12.3025C24.6173 12.1353 24.3859 12.0412 24.1444 12.0405H16.8556C16.6141 12.0412 16.3827 12.1353 16.212 12.3025C16.0413 12.4696 15.9451 12.6961 15.9444 12.9324V15.6081H0.911111C0.669469 15.6081 0.437725 15.7021 0.266858 15.8693C0.0959917 16.0366 0 16.2635 0 16.5C0 16.7365 0.0959917 16.9634 0.266858 17.1307C0.437725 17.2979 0.669469 17.3919 0.911111 17.3919H15.9444V20.0676C15.9451 20.3039 16.0413 20.5304 16.212 20.6975C16.3827 20.8647 16.6141 20.9588 16.8556 20.9595H24.1444C24.3859 20.9588 24.6173 20.8647 24.788 20.6975C24.9587 20.5304 25.0549 20.3039 25.0556 20.0676V17.3919H40.0889C40.3305 17.3919 40.5623 17.2979 40.7331 17.1307C40.904 16.9634 41 16.7365 41 16.5C41 16.2635 40.904 16.0366 40.7331 15.8693C40.5623 15.7021 40.3305 15.6081 40.0889 15.6081ZM23.2333 19.1757H17.7667V13.8243H23.2333V19.1757ZM0.911111 5.35135H3.64444V8.02703C3.64509 8.26338 3.74129 8.48987 3.91201 8.65699C4.08274 8.82412 4.31411 8.91829 4.55556 8.91892H11.8444C12.0859 8.91829 12.3173 8.82412 12.488 8.65699C12.6587 8.48987 12.7549 8.26338 12.7556 8.02703V5.35135H40.0889C40.3305 5.35135 40.5623 5.25738 40.7331 5.09012C40.904 4.92286 41 4.696 41 4.45946C41 4.22291 40.904 3.99606 40.7331 3.8288C40.5623 3.66153 40.3305 3.56757 40.0889 3.56757H12.7556V0.891892C12.7549 0.655541 12.6587 0.429051 12.488 0.261925C12.3173 0.0947996 12.0859 0.000630552 11.8444 0H4.55556C4.31411 0.000630552 4.08274 0.0947996 3.91201 0.261925C3.74129 0.429051 3.64509 0.655541 3.64444 0.891892V3.56757H0.911111C0.669469 3.56757 0.437725 3.66153 0.266858 3.8288C0.0959917 3.99606 0 4.22291 0 4.45946C0 4.696 0.0959917 4.92286 0.266858 5.09012C0.437725 5.25738 0.669469 5.35135 0.911111 5.35135ZM5.46667 1.78378H10.9333V7.13513H5.46667V1.78378ZM40.0889 27.6486H37.3556V24.973C37.3549 24.7366 37.2587 24.5101 37.088 24.343C36.9173 24.1759 36.6859 24.0817 36.4444 24.0811H29.1556C28.9141 24.0817 28.6827 24.1759 28.512 24.343C28.3413 24.5101 28.2451 24.7366 28.2444 24.973V27.6486H0.911111C0.669469 27.6486 0.437725 27.7426 0.266858 27.9099C0.0959917 28.0771 0 28.304 0 28.5405C0 28.7771 0.0959917 29.0039 0.266858 29.1712C0.437725 29.3385 0.669469 29.4324 0.911111 29.4324H28.2444V32.1081C28.2451 32.3445 28.3413 32.5709 28.512 32.7381C28.6827 32.9052 28.9141 32.9994 29.1556 33H36.4444C36.6859 32.9994 36.9173 32.9052 37.088 32.7381C37.2587 32.5709 37.3549 32.3445 37.3556 32.1081V29.4324H40.0889C40.3305 29.4324 40.5623 29.3385 40.7331 29.1712C40.904 29.0039 41 28.7771 41 28.5405C41 28.304 40.904 28.0771 40.7331 27.9099C40.5623 27.7426 40.3305 27.6486 40.0889 27.6486ZM35.5333 31.2162H30.0667V25.8649H35.5333V31.2162Z" fill="white"/>
</svg>
