<svg width="234" height="164" viewBox="0 0 234 164" fill="none" xmlns="http://www.w3.org/2000/svg">
<path d="M215.001 106.112C215.001 106.112 204.501 86.8026 183.501 90.1123C132.973 98.0758 136.272 111.896 140.731 115.612C149.731 123.113 192.186 106.383 140.731 70.747C71.6752 22.921 157.231 20.1122 111.501 50.6122L75.0009 70.747" stroke="#ff4040" stroke-width="2"/>
<path d="M92.2071 81.7861C87.3075 100.071 68.5124 110.923 50.2271 106.023C31.9417 101.124 21.0904 82.3286 25.9899 64.0432C30.8895 45.7579 49.6845 34.9065 67.9699 39.8061C86.2553 44.7056 97.1066 63.5007 92.2071 81.7861Z" fill="#FCC642" stroke="#ff4040" stroke-width="0.151203"/>
<path d="M84.5454 79.7329C80.7796 93.787 66.3338 102.127 52.2798 98.3615C38.2257 94.5957 29.8854 80.1499 33.6512 66.0959C37.417 52.0418 51.8628 43.7015 65.9168 47.4673C79.9709 51.233 88.3112 65.6789 84.5454 79.7329Z" fill="#ff4040" stroke="#ff4040" stroke-width="0.151203"/>
<path d="M66.0301 74.772C65.0042 78.6005 61.069 80.8725 57.2404 79.8467C53.4119 78.8208 51.1399 74.8856 52.1657 71.057C53.1916 67.2285 57.1268 64.9564 60.9554 65.9823C64.7839 67.0082 67.056 70.9434 66.0301 74.772Z" fill="#FCC642" stroke="#ff4040" stroke-width="0.151203"/>
<mask id="path-5-inside-1_1087_4846" fill="white">
<path d="M53.783 123.172L42.659 120.191C41.2131 119.802 39.9807 118.855 39.2322 117.558C38.4837 116.261 38.2802 114.72 38.6664 113.274L39.5633 109.926C39.8192 108.995 39.7881 108.008 39.474 107.095C39.1598 106.181 38.5772 105.384 37.8024 104.807C37.5019 104.588 37.2022 104.355 36.908 104.122C36.1503 103.522 35.2289 103.165 34.2647 103.097C33.3005 103.03 32.3384 103.255 31.5045 103.744L28.5043 105.476C27.2065 106.223 25.6655 106.425 24.2191 106.037C22.7727 105.65 21.539 104.704 20.7885 103.409L15.0276 93.4342C14.2789 92.137 14.0761 90.5956 14.4638 89.1489C14.8514 87.7022 15.7978 86.4687 17.0947 85.7196L20.0965 83.9866C20.9362 83.5085 21.6119 82.788 22.0352 81.9194C22.4586 81.0509 22.6098 80.0747 22.469 79.1188C22.4154 78.7493 22.3665 78.3727 22.323 78.0017C22.2112 77.0422 21.8121 76.1388 21.1781 75.41C20.5441 74.6811 19.7048 74.1608 18.77 73.9171L15.4227 73.0202C13.9768 72.6309 12.7444 71.684 11.9959 70.3872C11.2474 69.0903 11.0439 67.5495 11.43 66.1028L14.4107 54.9789C14.7996 53.5329 15.7463 52.3003 17.0429 51.5514C18.3396 50.8026 19.8803 50.5987 21.3271 50.9846L24.6744 51.8815C25.6058 52.1378 26.5929 52.1069 27.5064 51.7927C28.4199 51.4785 29.2171 50.8957 29.7938 50.1206C30.013 49.8201 30.2472 49.5207 30.4787 49.2262C31.0786 48.4687 31.4357 47.5477 31.5034 46.5839C31.571 45.62 31.3461 44.6582 30.8579 43.8243L29.1231 40.829C28.3744 39.5318 28.1716 37.9904 28.5593 36.5437C28.9469 35.097 29.8933 33.8635 31.1902 33.1145L41.1639 27.3562C42.4617 26.6093 44.0028 26.4075 45.4491 26.7951C46.8955 27.1826 48.1292 28.1279 48.8797 29.4236L50.6119 32.4238C51.0898 33.2639 51.8103 33.9401 52.6791 34.3637C53.5479 34.7874 54.5243 34.9387 55.4806 34.7979C55.8459 34.7446 56.2228 34.6944 56.598 34.6506C57.5574 34.539 58.4606 34.1402 59.1894 33.5064C59.9182 32.8726 60.4386 32.0335 60.6823 31.0989L61.5809 27.7451C61.9698 26.2992 62.9165 25.0665 64.2131 24.3177C65.5098 23.5689 67.0505 23.365 68.4973 23.7508L79.6213 26.7315C81.0679 27.1202 82.3012 28.067 83.0505 29.3641C83.7998 30.6612 84.0038 32.2025 83.6178 33.6499L82.7209 36.9972C82.4645 37.9284 82.4955 38.9154 82.8098 39.8287C83.124 40.742 83.707 41.539 84.4821 42.1152C84.784 42.3348 85.083 42.5703 85.3762 42.8015C86.1339 43.4016 87.0553 43.7587 88.0195 43.8262C88.9837 43.8937 89.9458 43.6684 90.7797 43.1798L93.7799 41.4476C94.4221 41.0766 95.1311 40.8357 95.8665 40.7388C96.6018 40.6418 97.349 40.6908 98.0655 40.8827C98.7819 41.0747 99.4535 41.4059 100.042 41.8576C100.63 42.3092 101.124 42.8723 101.494 43.5147L107.253 53.4884C107.624 54.1306 107.865 54.8397 107.962 55.575C108.059 56.3103 108.01 57.0576 107.818 57.774C107.626 58.4904 107.294 59.162 106.843 59.7504C106.391 60.3387 105.828 60.8323 105.186 61.203L102.185 62.9364C101.345 63.4143 100.669 64.1346 100.246 65.0031C99.8222 65.8716 99.6707 66.8478 99.8113 67.8038C99.8645 68.1746 99.9151 68.5503 99.9586 68.9212C100.07 69.8809 100.469 70.7844 101.103 71.5133C101.737 72.2423 102.577 72.7625 103.512 73.0058L106.858 73.9024C108.304 74.2917 109.536 75.2386 110.285 76.5355C111.034 77.8323 111.237 79.3732 110.852 80.8201L107.871 91.9441C107.482 93.3901 106.535 94.6226 105.238 95.3714C103.941 96.1201 102.4 96.3239 100.953 95.938L97.6072 95.0415C96.6758 94.7847 95.6886 94.8155 94.7751 95.1297C93.8615 95.444 93.0642 96.027 92.4879 96.8023C92.2686 97.1029 92.0328 97.4032 91.8016 97.6964C91.2019 98.454 90.8449 99.3751 90.7775 100.339C90.7101 101.303 90.9353 102.265 91.4237 103.099L93.1555 106.1C93.9031 107.397 94.1053 108.939 93.7177 110.385C93.3302 111.831 92.3845 113.065 91.0884 113.815L81.1147 119.573C80.4725 119.944 79.7635 120.185 79.0281 120.282C78.2928 120.379 77.5455 120.33 76.8291 120.138C76.1127 119.946 75.4411 119.615 74.8527 119.163C74.2644 118.711 73.7708 118.148 73.4001 117.506L71.6719 114.507C71.194 113.667 70.4735 112.99 69.6047 112.567C68.7359 112.143 67.7594 111.992 66.8032 112.133C66.432 112.187 66.0567 112.236 65.6861 112.279C64.7266 112.39 63.8232 112.789 63.0944 113.423C62.3655 114.057 61.8452 114.897 61.6015 115.832L60.7046 119.179C60.3151 120.626 59.3675 121.859 58.0698 122.607C56.7721 123.356 55.2303 123.559 53.783 123.172ZM35.3791 102.471C36.1174 102.669 36.8072 103.016 37.4059 103.491C37.6946 103.718 37.9892 103.944 38.2817 104.163C39.1863 104.835 39.8669 105.765 40.2342 106.83C40.6014 107.896 40.6383 109.048 40.3399 110.135L39.443 113.482C39.112 114.723 39.2866 116.044 39.9285 117.156C40.5704 118.268 41.6272 119.08 42.8671 119.414L53.9911 122.395C55.232 122.726 56.5534 122.551 57.6656 121.909C58.7778 121.267 59.59 120.21 59.9241 118.97L60.821 115.622C61.1059 114.532 61.7134 113.553 62.564 112.814C63.4146 112.075 64.4687 111.61 65.5881 111.48C65.9515 111.438 66.32 111.388 66.6823 111.336C67.7981 111.172 68.9375 111.348 69.9512 111.843C70.9648 112.337 71.8055 113.126 72.3632 114.106L74.095 117.108C74.4129 117.659 74.8363 118.142 75.341 118.529C75.8456 118.916 76.4217 119.201 77.0361 119.365C77.6506 119.53 78.2915 119.572 78.9222 119.489C79.5529 119.406 80.161 119.199 80.7119 118.881L90.6856 113.123C91.7967 112.479 92.6073 111.421 92.9397 110.181C93.272 108.94 93.099 107.619 92.4586 106.506L90.7264 103.506C90.1561 102.533 89.8931 101.41 89.9718 100.285C90.0504 99.1597 90.4671 98.0846 91.1673 97.2004C91.3941 96.913 91.6201 96.6184 91.839 96.3246C92.5116 95.4202 93.4417 94.74 94.5074 94.373C95.5731 94.0061 96.7248 93.9695 97.8117 94.268L101.158 95.1646C102.399 95.4953 103.72 95.3204 104.832 94.6783C105.944 94.0361 106.757 92.9792 107.091 91.7392L110.072 80.6113C110.403 79.3704 110.228 78.049 109.586 76.9368C108.944 75.8246 107.887 75.0124 106.647 74.6783L103.301 73.7818C102.21 73.4969 101.231 72.8894 100.492 72.0387C99.7524 71.1881 99.287 70.1339 99.1567 69.0144C99.1154 68.6509 99.0657 68.2824 99.0129 67.9201C98.8487 66.8043 99.0253 65.6648 99.5198 64.6511C100.014 63.6374 100.803 62.7967 101.784 62.2392L104.784 60.5071C105.335 60.1891 105.818 59.7657 106.205 59.2611C106.592 58.7564 106.877 58.1804 107.041 57.5659C107.206 56.9515 107.248 56.3106 107.165 55.6799C107.082 55.0492 106.875 54.441 106.557 53.8902L100.799 43.9165C100.481 43.3655 100.057 42.8826 99.5525 42.4953C99.0479 42.1079 98.4719 41.8239 97.8574 41.6592C97.2429 41.4946 96.602 41.4526 95.9713 41.5357C95.3406 41.6188 94.7325 41.8253 94.1816 42.1435L91.1811 43.8769C90.208 44.4471 89.0855 44.71 87.9604 44.6313C86.8354 44.5527 85.7603 44.1361 84.876 43.4361C84.5899 43.2096 84.2953 42.9836 84.0002 42.7644C83.0958 42.092 82.4156 41.1622 82.0486 40.0967C81.6815 39.0312 81.6448 37.8797 81.9433 36.793L82.8412 33.4418C83.1719 32.2009 82.997 30.8794 82.3549 29.7673C81.7128 28.6551 80.6558 27.8429 79.4158 27.5088L68.2918 24.5282C67.051 24.1975 65.7297 24.3725 64.6177 25.0147C63.5057 25.6569 62.6938 26.7139 62.3601 27.9539L61.4632 31.3012C61.1782 32.3917 60.5704 33.3706 59.7196 34.1098C58.8687 34.849 57.8145 35.3139 56.6949 35.4438C56.3288 35.4844 55.96 35.5354 55.6006 35.5876C54.485 35.7516 53.3459 35.5749 52.3325 35.0805C51.319 34.5862 50.4785 33.7973 49.921 32.8171L48.1879 29.8154C47.5443 28.7042 46.4863 27.8936 45.2459 27.5613C44.0056 27.2289 42.684 27.4019 41.571 28.0424L31.5973 33.8007C30.4851 34.4433 29.6736 35.5013 29.3411 36.7421C29.0087 37.9829 29.1825 39.3049 29.8244 40.4176L31.5564 43.4232C32.1263 44.3964 32.3892 45.519 32.3105 46.644C32.2318 47.769 31.8153 48.844 31.1155 49.7284C30.8887 50.0158 30.6627 50.3104 30.4439 50.6042C29.7716 51.5087 28.8418 52.1891 27.7762 52.5561C26.7107 52.9232 25.5591 52.9597 24.4724 52.6611L21.1251 51.7642C19.8843 51.4336 18.563 51.6086 17.451 52.2508C16.3391 52.893 15.5272 53.95 15.1934 55.19L12.2128 66.3139C11.8818 67.5547 12.0564 68.876 12.6983 69.9882C13.3402 71.1004 14.397 71.9125 15.6369 72.2466L18.9842 73.1435C20.0746 73.4282 21.0536 74.0357 21.7929 74.8863C22.5321 75.737 22.9972 76.7911 23.1271 77.9106C23.1685 78.274 23.2182 78.6425 23.2709 79.0049C23.4348 80.1206 23.258 81.2599 22.7636 82.2735C22.2692 83.2872 21.4803 84.1279 20.5002 84.6857L17.4987 86.4175C16.3865 87.0602 15.575 88.1182 15.2425 89.3589C14.91 90.5997 15.0838 91.9217 15.7257 93.0344L21.4805 103.006C22.1242 104.117 23.1821 104.927 24.4225 105.26C25.6629 105.592 26.9844 105.419 28.0974 104.779L31.0992 103.046C31.7396 102.673 32.4474 102.43 33.1818 102.331C33.9163 102.233 34.663 102.28 35.3791 102.471Z"/>
</mask>
<path d="M53.783 123.172L42.659 120.191C41.2131 119.802 39.9807 118.855 39.2322 117.558C38.4837 116.261 38.2802 114.72 38.6664 113.274L39.5633 109.926C39.8192 108.995 39.7881 108.008 39.474 107.095C39.1598 106.181 38.5772 105.384 37.8024 104.807C37.5019 104.588 37.2022 104.355 36.908 104.122C36.1503 103.522 35.2289 103.165 34.2647 103.097C33.3005 103.03 32.3384 103.255 31.5045 103.744L28.5043 105.476C27.2065 106.223 25.6655 106.425 24.2191 106.037C22.7727 105.65 21.539 104.704 20.7885 103.409L15.0276 93.4342C14.2789 92.137 14.0761 90.5956 14.4638 89.1489C14.8514 87.7022 15.7978 86.4687 17.0947 85.7196L20.0965 83.9866C20.9362 83.5085 21.6119 82.788 22.0352 81.9194C22.4586 81.0509 22.6098 80.0747 22.469 79.1188C22.4154 78.7493 22.3665 78.3727 22.323 78.0017C22.2112 77.0422 21.8121 76.1388 21.1781 75.41C20.5441 74.6811 19.7048 74.1608 18.77 73.9171L15.4227 73.0202C13.9768 72.6309 12.7444 71.684 11.9959 70.3872C11.2474 69.0903 11.0439 67.5495 11.43 66.1028L14.4107 54.9789C14.7996 53.5329 15.7463 52.3003 17.0429 51.5514C18.3396 50.8026 19.8803 50.5987 21.3271 50.9846L24.6744 51.8815C25.6058 52.1378 26.5929 52.1069 27.5064 51.7927C28.4199 51.4785 29.2171 50.8957 29.7938 50.1206C30.013 49.8201 30.2472 49.5207 30.4787 49.2262C31.0786 48.4687 31.4357 47.5477 31.5034 46.5839C31.571 45.62 31.3461 44.6582 30.8579 43.8243L29.1231 40.829C28.3744 39.5318 28.1716 37.9904 28.5593 36.5437C28.9469 35.097 29.8933 33.8635 31.1902 33.1145L41.1639 27.3562C42.4617 26.6093 44.0028 26.4075 45.4491 26.7951C46.8955 27.1826 48.1292 28.1279 48.8797 29.4236L50.6119 32.4238C51.0898 33.2639 51.8103 33.9401 52.6791 34.3637C53.5479 34.7874 54.5243 34.9387 55.4806 34.7979C55.8459 34.7446 56.2228 34.6944 56.598 34.6506C57.5574 34.539 58.4606 34.1402 59.1894 33.5064C59.9182 32.8726 60.4386 32.0335 60.6823 31.0989L61.5809 27.7451C61.9698 26.2992 62.9165 25.0665 64.2131 24.3177C65.5098 23.5689 67.0505 23.365 68.4973 23.7508L79.6213 26.7315C81.0679 27.1202 82.3012 28.067 83.0505 29.3641C83.7998 30.6612 84.0038 32.2025 83.6178 33.6499L82.7209 36.9972C82.4645 37.9284 82.4955 38.9154 82.8098 39.8287C83.124 40.742 83.707 41.539 84.4821 42.1152C84.784 42.3348 85.083 42.5703 85.3762 42.8015C86.1339 43.4016 87.0553 43.7587 88.0195 43.8262C88.9837 43.8937 89.9458 43.6684 90.7797 43.1798L93.7799 41.4476C94.4221 41.0766 95.1311 40.8357 95.8665 40.7388C96.6018 40.6418 97.349 40.6908 98.0655 40.8827C98.7819 41.0747 99.4535 41.4059 100.042 41.8576C100.63 42.3092 101.124 42.8723 101.494 43.5147L107.253 53.4884C107.624 54.1306 107.865 54.8397 107.962 55.575C108.059 56.3103 108.01 57.0576 107.818 57.774C107.626 58.4904 107.294 59.162 106.843 59.7504C106.391 60.3387 105.828 60.8323 105.186 61.203L102.185 62.9364C101.345 63.4143 100.669 64.1346 100.246 65.0031C99.8222 65.8716 99.6707 66.8478 99.8113 67.8038C99.8645 68.1746 99.9151 68.5503 99.9586 68.9212C100.07 69.8809 100.469 70.7844 101.103 71.5133C101.737 72.2423 102.577 72.7625 103.512 73.0058L106.858 73.9024C108.304 74.2917 109.536 75.2386 110.285 76.5355C111.034 77.8323 111.237 79.3732 110.852 80.8201L107.871 91.9441C107.482 93.3901 106.535 94.6226 105.238 95.3714C103.941 96.1201 102.4 96.3239 100.953 95.938L97.6072 95.0415C96.6758 94.7847 95.6886 94.8155 94.7751 95.1297C93.8615 95.444 93.0642 96.027 92.4879 96.8023C92.2686 97.1029 92.0328 97.4032 91.8016 97.6964C91.2019 98.454 90.8449 99.3751 90.7775 100.339C90.7101 101.303 90.9353 102.265 91.4237 103.099L93.1555 106.1C93.9031 107.397 94.1053 108.939 93.7177 110.385C93.3302 111.831 92.3845 113.065 91.0884 113.815L81.1147 119.573C80.4725 119.944 79.7635 120.185 79.0281 120.282C78.2928 120.379 77.5455 120.33 76.8291 120.138C76.1127 119.946 75.4411 119.615 74.8527 119.163C74.2644 118.711 73.7708 118.148 73.4001 117.506L71.6719 114.507C71.194 113.667 70.4735 112.99 69.6047 112.567C68.7359 112.143 67.7594 111.992 66.8032 112.133C66.432 112.187 66.0567 112.236 65.6861 112.279C64.7266 112.39 63.8232 112.789 63.0944 113.423C62.3655 114.057 61.8452 114.897 61.6015 115.832L60.7046 119.179C60.3151 120.626 59.3675 121.859 58.0698 122.607C56.7721 123.356 55.2303 123.559 53.783 123.172ZM35.3791 102.471C36.1174 102.669 36.8072 103.016 37.4059 103.491C37.6946 103.718 37.9892 103.944 38.2817 104.163C39.1863 104.835 39.8669 105.765 40.2342 106.83C40.6014 107.896 40.6383 109.048 40.3399 110.135L39.443 113.482C39.112 114.723 39.2866 116.044 39.9285 117.156C40.5704 118.268 41.6272 119.08 42.8671 119.414L53.9911 122.395C55.232 122.726 56.5534 122.551 57.6656 121.909C58.7778 121.267 59.59 120.21 59.9241 118.97L60.821 115.622C61.1059 114.532 61.7134 113.553 62.564 112.814C63.4146 112.075 64.4687 111.61 65.5881 111.48C65.9515 111.438 66.32 111.388 66.6823 111.336C67.7981 111.172 68.9375 111.348 69.9512 111.843C70.9648 112.337 71.8055 113.126 72.3632 114.106L74.095 117.108C74.4129 117.659 74.8363 118.142 75.341 118.529C75.8456 118.916 76.4217 119.201 77.0361 119.365C77.6506 119.53 78.2915 119.572 78.9222 119.489C79.5529 119.406 80.161 119.199 80.7119 118.881L90.6856 113.123C91.7967 112.479 92.6073 111.421 92.9397 110.181C93.272 108.94 93.099 107.619 92.4586 106.506L90.7264 103.506C90.1561 102.533 89.8931 101.41 89.9718 100.285C90.0504 99.1597 90.4671 98.0846 91.1673 97.2004C91.3941 96.913 91.6201 96.6184 91.839 96.3246C92.5116 95.4202 93.4417 94.74 94.5074 94.373C95.5731 94.0061 96.7248 93.9695 97.8117 94.268L101.158 95.1646C102.399 95.4953 103.72 95.3204 104.832 94.6783C105.944 94.0361 106.757 92.9792 107.091 91.7392L110.072 80.6113C110.403 79.3704 110.228 78.049 109.586 76.9368C108.944 75.8246 107.887 75.0124 106.647 74.6783L103.301 73.7818C102.21 73.4969 101.231 72.8894 100.492 72.0387C99.7524 71.1881 99.287 70.1339 99.1567 69.0144C99.1154 68.6509 99.0657 68.2824 99.0129 67.9201C98.8487 66.8043 99.0253 65.6648 99.5198 64.6511C100.014 63.6374 100.803 62.7967 101.784 62.2392L104.784 60.5071C105.335 60.1891 105.818 59.7657 106.205 59.2611C106.592 58.7564 106.877 58.1804 107.041 57.5659C107.206 56.9515 107.248 56.3106 107.165 55.6799C107.082 55.0492 106.875 54.441 106.557 53.8902L100.799 43.9165C100.481 43.3655 100.057 42.8826 99.5525 42.4953C99.0479 42.1079 98.4719 41.8239 97.8574 41.6592C97.2429 41.4946 96.602 41.4526 95.9713 41.5357C95.3406 41.6188 94.7325 41.8253 94.1816 42.1435L91.1811 43.8769C90.208 44.4471 89.0855 44.71 87.9604 44.6313C86.8354 44.5527 85.7603 44.1361 84.876 43.4361C84.5899 43.2096 84.2953 42.9836 84.0002 42.7644C83.0958 42.092 82.4156 41.1622 82.0486 40.0967C81.6815 39.0312 81.6448 37.8797 81.9433 36.793L82.8412 33.4418C83.1719 32.2009 82.997 30.8794 82.3549 29.7673C81.7128 28.6551 80.6558 27.8429 79.4158 27.5088L68.2918 24.5282C67.051 24.1975 65.7297 24.3725 64.6177 25.0147C63.5057 25.6569 62.6938 26.7139 62.3601 27.9539L61.4632 31.3012C61.1782 32.3917 60.5704 33.3706 59.7196 34.1098C58.8687 34.849 57.8145 35.3139 56.6949 35.4438C56.3288 35.4844 55.96 35.5354 55.6006 35.5876C54.485 35.7516 53.3459 35.5749 52.3325 35.0805C51.319 34.5862 50.4785 33.7973 49.921 32.8171L48.1879 29.8154C47.5443 28.7042 46.4863 27.8936 45.2459 27.5613C44.0056 27.2289 42.684 27.4019 41.571 28.0424L31.5973 33.8007C30.4851 34.4433 29.6736 35.5013 29.3411 36.7421C29.0087 37.9829 29.1825 39.3049 29.8244 40.4176L31.5564 43.4232C32.1263 44.3964 32.3892 45.519 32.3105 46.644C32.2318 47.769 31.8153 48.844 31.1155 49.7284C30.8887 50.0158 30.6627 50.3104 30.4439 50.6042C29.7716 51.5087 28.8418 52.1891 27.7762 52.5561C26.7107 52.9232 25.5591 52.9597 24.4724 52.6611L21.1251 51.7642C19.8843 51.4336 18.563 51.6086 17.451 52.2508C16.3391 52.893 15.5272 53.95 15.1934 55.19L12.2128 66.3139C11.8818 67.5547 12.0564 68.876 12.6983 69.9882C13.3402 71.1004 14.397 71.9125 15.6369 72.2466L18.9842 73.1435C20.0746 73.4282 21.0536 74.0357 21.7929 74.8863C22.5321 75.737 22.9972 76.7911 23.1271 77.9106C23.1685 78.274 23.2182 78.6425 23.2709 79.0049C23.4348 80.1206 23.258 81.2599 22.7636 82.2735C22.2692 83.2872 21.4803 84.1279 20.5002 84.6857L17.4987 86.4175C16.3865 87.0602 15.575 88.1182 15.2425 89.3589C14.91 90.5997 15.0838 91.9217 15.7257 93.0344L21.4805 103.006C22.1242 104.117 23.1821 104.927 24.4225 105.26C25.6629 105.592 26.9844 105.419 28.0974 104.779L31.0992 103.046C31.7396 102.673 32.4474 102.43 33.1818 102.331C33.9163 102.233 34.663 102.28 35.3791 102.471Z" fill="#153D5E" stroke="#ff4040" stroke-width="0.302405" mask="url(#path-5-inside-1_1087_4846)"/>
<path d="M78.4823 103.489L78.4821 103.49C74.543 105.779 70.1889 107.265 65.6717 107.86C61.1545 108.456 56.5641 108.149 52.1662 106.959L52.166 106.959C44.4165 104.883 37.6264 100.185 32.9525 93.6646C28.2786 87.1441 26.0102 79.2047 26.5337 71.1992C27.0572 63.1937 30.3403 55.6173 35.8235 49.761C41.3068 43.9047 48.6509 40.1308 56.6047 39.0823C64.5585 38.0337 72.6298 39.7754 79.4434 44.0107C86.257 48.2459 91.3914 54.7125 93.9717 62.3089C96.552 69.9052 96.4185 78.1612 93.5942 85.6702C90.7698 93.1792 85.4292 99.4766 78.4823 103.489ZM69.8759 40.5723L69.8749 40.576C62.2925 38.5633 54.2465 39.2324 47.0996 42.4714C39.9298 45.7209 34.1084 51.3558 30.6273 58.416C27.1463 65.4763 26.2209 73.5252 28.0088 81.1913C29.7968 88.8573 34.1875 95.6663 40.4328 100.458C46.6782 105.25 54.3917 107.728 62.2593 107.47C70.1269 107.213 77.6618 104.235 83.5801 99.0446C89.4984 93.8543 93.434 86.7726 94.7164 79.0059C95.9988 71.2393 94.5486 63.2684 90.613 56.4511C88.3889 52.5721 85.4173 49.1729 81.8702 46.4506C78.3231 43.7282 74.2711 41.7368 69.9488 40.5916L69.8759 40.5723Z" fill="#153D5E" stroke="#ff4040" stroke-width="0.151203"/>
<path d="M54.219 99.2973C39.9732 95.4802 31.489 80.7852 35.3062 66.5393C39.1233 52.2935 53.8183 43.8093 68.0642 47.6265C82.31 51.4437 90.7971 66.1381 86.9796 80.3852C83.1621 94.6323 68.4648 103.115 54.219 99.2973ZM67.8952 48.2571C53.9972 44.5331 39.6607 52.8103 35.9368 66.7083C32.2128 80.6063 40.4899 94.9428 54.388 98.6668C68.286 102.391 82.6251 94.1143 86.349 80.2162C90.073 66.3182 81.7932 51.981 67.8952 48.2571Z" fill="#153D5E" stroke="#ff4040" stroke-width="0.151203"/>
<path d="M62.9343 66.7721L62.9343 66.7721C61.6111 66.4176 60.2126 66.4634 58.9154 66.9037C57.6183 67.344 56.4809 68.1591 55.647 69.2458C54.8131 70.3326 54.3202 71.6422 54.2306 73.0091C54.141 74.3759 54.4588 75.7387 55.1437 76.925C55.8286 78.1113 56.8499 79.0679 58.0784 79.6737C59.307 80.2796 60.6876 80.5075 62.0457 80.3287C63.4038 80.1499 64.6784 79.5724 65.7083 78.6692C66.7382 77.766 67.4771 76.5777 67.8316 75.2546L67.8316 75.2545C68.3048 73.4803 68.0549 71.5909 67.1368 70.0007C66.2188 68.4106 64.7074 67.2494 62.9343 66.7721ZM59.1801 80.7825C57.7323 80.3946 56.432 79.586 55.4437 78.4591C54.4554 77.3321 53.8234 75.9374 53.6278 74.4513C53.4321 72.9652 53.6816 71.4544 54.3445 70.11C55.0075 68.7657 56.0542 67.6481 57.3523 66.8986C58.6504 66.1492 60.1416 65.8015 61.6374 65.8995C63.1331 65.9975 64.5662 66.5369 65.7553 67.4494C66.9445 68.3619 67.8364 69.6065 68.3183 71.0259C68.8001 72.4453 68.8502 73.9756 68.4622 75.4235C67.9398 77.3637 66.6692 79.0174 64.9291 80.0221C63.189 81.0267 61.1215 81.3002 59.1801 80.7825Z" fill="#153D5E" stroke="#ff4040" stroke-width="0.151203"/>
<path d="M152.836 52.2707L131.147 48.774L117.278 65.8083L125.094 86.3382L146.78 89.8338L160.652 72.8006L152.836 52.2707Z" fill="#ff4040"/>
<path d="M141.944 77.1322C146.267 75.4862 148.438 70.6469 146.792 66.3234C145.146 61.9999 140.306 59.8294 135.983 61.4754C131.659 63.1214 129.489 67.9607 131.135 72.2842C132.781 76.6077 137.62 78.7782 141.944 77.1322Z" fill="#FCC642"/>
</svg>
