<svg width="34" height="31" viewBox="0 0 34 31" fill="none" xmlns="http://www.w3.org/2000/svg">
<path d="M33.8164 26.7656L27.1367 1.92188C26.9609 1.16016 26.1992 0.574219 25.3203 0.808594L24.3828 1.10156C24.0312 1.16016 23.7383 1.45312 23.4453 1.92188C22.625 2.33203 20.3984 2.91797 19.4609 2.97656C18.9922 2.74219 18.582 2.625 18.2305 2.74219L17.3516 2.97656C17.1758 3.03516 17.0586 3.09375 17 3.15234V2.625C17 1.62891 16.1211 0.75 15.125 0.75H11.375C10.3203 0.75 9.5 1.62891 9.5 2.625V6.375H17L22.918 29.6367C23.0938 30.3984 23.8555 30.9844 24.793 30.75L25.6719 30.457C26.0234 30.3984 26.375 30.1055 26.6094 29.6367C27.4297 29.2266 29.6562 28.6406 30.5938 28.582C31.0625 28.8164 31.4727 28.9336 31.8242 28.8164L32.7617 28.582C33.6406 28.3477 33.9922 27.4688 33.8164 26.7656ZM25.9062 26.3555L20.5156 6.19922L24.1484 5.20312L29.5391 25.3594L25.9062 26.3555ZM0.125 23.25H7.625V8.25H0.125V23.25ZM5.75 0.75H2C0.945312 0.75 0.125 1.62891 0.125 2.625V6.375H7.625V2.625C7.625 1.62891 6.74609 0.75 5.75 0.75ZM0.125 28.875C0.125 29.9297 0.945312 30.75 2 30.75H5.75C6.74609 30.75 7.625 29.9297 7.625 28.875V25.125H0.125V28.875ZM9.5 23.25H17V8.25H9.5V23.25ZM9.5 28.875C9.5 29.9297 10.3203 30.75 11.375 30.75H15.125C16.1211 30.75 17 29.9297 17 28.875V25.125H9.5V28.875Z" fill="#ff4040"/>
</svg>
