<svg width="27" height="31" viewBox="0 0 27 31" fill="none" xmlns="http://www.w3.org/2000/svg">
<path d="M25.9219 28.875H24.75V2.15625C24.75 1.39453 24.1055 0.75 23.3438 0.75H3.65625C2.83594 0.75 2.25 1.39453 2.25 2.15625V28.875H1.07812C0.667969 28.875 0.375 29.2266 0.375 29.5781V30.75H26.625V29.5781C26.625 29.2266 26.2734 28.875 25.9219 28.875ZM7.875 5.20312C7.875 4.85156 8.16797 4.5 8.57812 4.5H10.9219C11.2734 4.5 11.625 4.85156 11.625 5.20312V7.54688C11.625 7.95703 11.2734 8.25 10.9219 8.25H8.57812C8.16797 8.25 7.875 7.95703 7.875 7.54688V5.20312ZM7.875 10.8281C7.875 10.4766 8.16797 10.125 8.57812 10.125H10.9219C11.2734 10.125 11.625 10.4766 11.625 10.8281V13.1719C11.625 13.582 11.2734 13.875 10.9219 13.875H8.57812C8.16797 13.875 7.875 13.582 7.875 13.1719V10.8281ZM10.9219 19.5H8.57812C8.16797 19.5 7.875 19.207 7.875 18.7969V16.4531C7.875 16.1016 8.16797 15.75 8.57812 15.75H10.9219C11.2734 15.75 11.625 16.1016 11.625 16.4531V18.7969C11.625 19.207 11.2734 19.5 10.9219 19.5ZM15.375 28.875H11.625V23.9531C11.625 23.6016 11.918 23.25 12.3281 23.25H14.6719C15.0234 23.25 15.375 23.6016 15.375 23.9531V28.875ZM19.125 18.7969C19.125 19.207 18.7734 19.5 18.4219 19.5H16.0781C15.668 19.5 15.375 19.207 15.375 18.7969V16.4531C15.375 16.1016 15.668 15.75 16.0781 15.75H18.4219C18.7734 15.75 19.125 16.1016 19.125 16.4531V18.7969ZM19.125 13.1719C19.125 13.582 18.7734 13.875 18.4219 13.875H16.0781C15.668 13.875 15.375 13.582 15.375 13.1719V10.8281C15.375 10.4766 15.668 10.125 16.0781 10.125H18.4219C18.7734 10.125 19.125 10.4766 19.125 10.8281V13.1719ZM19.125 7.54688C19.125 7.95703 18.7734 8.25 18.4219 8.25H16.0781C15.668 8.25 15.375 7.95703 15.375 7.54688V5.20312C15.375 4.85156 15.668 4.5 16.0781 4.5H18.4219C18.7734 4.5 19.125 4.85156 19.125 5.20312V7.54688Z" fill="white"/>
</svg>
