<svg width="27" height="31" viewBox="0 0 27 31" fill="none" xmlns="http://www.w3.org/2000/svg">
<path d="M0.375 27.9375C0.375 29.5195 1.60547 30.75 3.1875 30.75H23.8125C25.3359 30.75 26.625 29.5195 26.625 27.9375V12H0.375V27.9375ZM19.125 16.4531C19.125 16.1016 19.418 15.75 19.8281 15.75H22.1719C22.5234 15.75 22.875 16.1016 22.875 16.4531V18.7969C22.875 19.207 22.5234 19.5 22.1719 19.5H19.8281C19.418 19.5 19.125 19.207 19.125 18.7969V16.4531ZM19.125 23.9531C19.125 23.6016 19.418 23.25 19.8281 23.25H22.1719C22.5234 23.25 22.875 23.6016 22.875 23.9531V26.2969C22.875 26.707 22.5234 27 22.1719 27H19.8281C19.418 27 19.125 26.707 19.125 26.2969V23.9531ZM11.625 16.4531C11.625 16.1016 11.918 15.75 12.3281 15.75H14.6719C15.0234 15.75 15.375 16.1016 15.375 16.4531V18.7969C15.375 19.207 15.0234 19.5 14.6719 19.5H12.3281C11.918 19.5 11.625 19.207 11.625 18.7969V16.4531ZM11.625 23.9531C11.625 23.6016 11.918 23.25 12.3281 23.25H14.6719C15.0234 23.25 15.375 23.6016 15.375 23.9531V26.2969C15.375 26.707 15.0234 27 14.6719 27H12.3281C11.918 27 11.625 26.707 11.625 26.2969V23.9531ZM4.125 16.4531C4.125 16.1016 4.41797 15.75 4.82812 15.75H7.17188C7.52344 15.75 7.875 16.1016 7.875 16.4531V18.7969C7.875 19.207 7.52344 19.5 7.17188 19.5H4.82812C4.41797 19.5 4.125 19.207 4.125 18.7969V16.4531ZM4.125 23.9531C4.125 23.6016 4.41797 23.25 4.82812 23.25H7.17188C7.52344 23.25 7.875 23.6016 7.875 23.9531V26.2969C7.875 26.707 7.52344 27 7.17188 27H4.82812C4.41797 27 4.125 26.707 4.125 26.2969V23.9531ZM23.8125 4.5H21V1.6875C21 1.21875 20.5312 0.75 20.0625 0.75H18.1875C17.6602 0.75 17.25 1.21875 17.25 1.6875V4.5H9.75V1.6875C9.75 1.21875 9.28125 0.75 8.8125 0.75H6.9375C6.41016 0.75 6 1.21875 6 1.6875V4.5H3.1875C1.60547 4.5 0.375 5.78906 0.375 7.3125V10.125H26.625V7.3125C26.625 5.78906 25.3359 4.5 23.8125 4.5Z" fill="white"/>
</svg>
