<svg width="23" height="31" viewBox="0 0 23 31" fill="none" xmlns="http://www.w3.org/2000/svg">
<path d="M22.75 7.3125C22.75 5.78906 21.4609 4.5 19.9375 4.5H15.25C15.25 2.44922 13.5508 0.75 11.5 0.75C9.39062 0.75 7.75 2.44922 7.75 4.5H3.0625C1.48047 4.5 0.25 5.78906 0.25 7.3125V27.9375C0.25 29.5195 1.48047 30.75 3.0625 30.75H19.9375C21.4609 30.75 22.75 29.5195 22.75 27.9375V7.3125ZM11.5 3.09375C12.2617 3.09375 12.9062 3.73828 12.9062 4.5C12.9062 5.32031 12.2617 5.90625 11.5 5.90625C10.6797 5.90625 10.0938 5.32031 10.0938 4.5C10.0938 3.73828 10.6797 3.09375 11.5 3.09375ZM17.125 9.77344C17.125 10.0078 16.9492 10.125 16.7734 10.125H6.22656C5.99219 10.125 5.875 10.0078 5.875 9.77344V8.60156C5.875 8.42578 5.99219 8.25 6.22656 8.25H16.7734C16.9492 8.25 17.125 8.42578 17.125 8.60156V9.77344Z" fill="white"/>
</svg>
