<svg width="16" height="146" viewBox="0 0 16 146" fill="none" xmlns="http://www.w3.org/2000/svg">
<path d="M7.2929 145.707C7.68343 146.098 8.31659 146.098 8.70712 145.707L15.0711 139.343C15.4616 138.953 15.4616 138.319 15.0711 137.929C14.6806 137.538 14.0474 137.538 13.6569 137.929L8.00001 143.586L2.34316 137.929C1.95263 137.538 1.31947 137.538 0.928942 137.929C0.538417 138.319 0.538417 138.953 0.928942 139.343L7.2929 145.707ZM7.00001 0V145H9.00001V0H7.00001Z" fill="#ff4040"/>
<path d="M7.2929 145.707C7.68343 146.098 8.31659 146.098 8.70712 145.707L15.0711 139.343C15.4616 138.953 15.4616 138.319 15.0711 137.929C14.6806 137.538 14.0474 137.538 13.6569 137.929L8.00001 143.586L2.34316 137.929C1.95263 137.538 1.31947 137.538 0.928942 137.929C0.538417 138.319 0.538417 138.953 0.928942 139.343L7.2929 145.707ZM7.00001 110L7.00001 145H9.00001L9.00001 110H7.00001Z" fill="white"/>
</svg>
