<svg width="10" height="21" viewBox="0 0 10 21" fill="none" xmlns="http://www.w3.org/2000/svg">
<path fill-rule="evenodd" clip-rule="evenodd" d="M2.20395 10.5834V20.7368C2.20562 20.8061 2.23458 20.8721 2.2848 20.9211C2.33503 20.9701 2.40268 20.9983 2.47369 21H6.3421C6.41311 20.9983 6.48076 20.9701 6.53098 20.9211C6.58121 20.8721 6.61016 20.8061 6.61183 20.7368V10.4165H9.41447C9.48272 10.4167 9.54851 10.3916 9.59856 10.3464C9.64862 10.3011 9.67922 10.239 9.68421 10.1726L9.95395 7.06627C9.95664 7.02982 9.95168 6.99322 9.93941 6.95869C9.92715 6.92416 9.90783 6.89243 9.8826 6.86541C9.85737 6.8384 9.82677 6.81667 9.79267 6.80155C9.75857 6.78643 9.72166 6.77824 9.68421 6.77746H6.61183V4.56963C6.61183 4.32112 6.71305 4.08277 6.89318 3.90704C7.07331 3.73131 7.31763 3.63259 7.57238 3.63259H9.73027C9.80181 3.63259 9.87042 3.60486 9.921 3.55552C9.97159 3.50617 10 3.43924 10 3.36945V0.256674C10 0.186885 9.97159 0.119952 9.921 0.070603C9.87042 0.0212544 9.80181 -0.00646973 9.73027 -0.00646973H6.07894C5.05123 -0.00646973 4.06561 0.391808 3.3389 1.10074C2.6122 1.80968 2.20395 2.7712 2.20395 3.77379V6.77104H0.269739C0.197602 6.77271 0.128988 6.80185 0.0785828 6.85222C0.0281779 6.90259 -2.04446e-05 6.97021 1.11215e-08 7.0406V10.147C1.11215e-08 10.2167 0.0284189 10.2837 0.0790044 10.333C0.12959 10.3824 0.198201 10.4101 0.269739 10.4101H2.20395V10.5834Z" fill="#153D5E"/>
</svg>
