<svg width="53" height="53" viewBox="0 0 53 53" fill="none" xmlns="http://www.w3.org/2000/svg">
<g clip-path="url(#clip0_17_282)">
<path d="M26.3024 52.9904C21.1007 52.9885 16.0164 51.4442 11.6922 48.5529C7.36811 45.6616 3.99838 41.5531 2.0091 36.7468C0.0198169 31.9405 -0.499686 26.6523 0.516282 21.5508C1.53225 16.4493 4.03805 11.7636 7.71688 8.08611C11.3957 4.40863 16.0824 1.90454 21.1842 0.890438C26.2861 -0.123662 31.5741 0.397786 36.3797 2.38883C41.1853 4.37987 45.2925 7.75111 48.1823 12.0763C51.072 16.4015 52.6143 21.4864 52.6143 26.6881C52.6067 33.6632 49.8318 40.3503 44.8987 45.2816C39.9656 50.2128 33.2775 52.9853 26.3024 52.9904Z" fill="#3C5A99"/>
<path fill-rule="evenodd" clip-rule="evenodd" d="M22.1772 26.8133V42.0608C22.1797 42.1648 22.2221 42.2639 22.2957 42.3375C22.3692 42.4111 22.4683 42.4535 22.5724 42.4559H28.2396C28.3444 42.4559 28.4449 42.4143 28.519 42.3402C28.5931 42.2661 28.6347 42.1656 28.6347 42.0608V26.5627H32.7405C32.8405 26.563 32.9369 26.5254 33.0102 26.4574C33.0836 26.3894 33.1284 26.2962 33.1357 26.1965L33.5309 21.5317C33.5348 21.4769 33.5276 21.422 33.5096 21.3701C33.4916 21.3183 33.4633 21.2706 33.4263 21.23C33.3894 21.1895 33.3446 21.1569 33.2946 21.1341C33.2446 21.1114 33.1906 21.0991 33.1357 21.098H28.6058V17.7921C28.6058 17.4189 28.7541 17.061 29.018 16.7971C29.2819 16.5332 29.6398 16.3849 30.013 16.3849H33.1743C33.2791 16.3849 33.3796 16.3433 33.4537 16.2692C33.5278 16.1951 33.5694 16.0946 33.5694 15.9898V11.3153C33.5694 11.2634 33.5592 11.212 33.5393 11.1641C33.5195 11.1161 33.4904 11.0726 33.4537 11.0359C33.417 10.9992 33.3734 10.9701 33.3255 10.9502C33.2775 10.9304 33.2262 10.9202 33.1743 10.9202H27.8348C26.3283 10.9202 24.8834 11.5179 23.8172 12.5823C22.7511 13.6466 22.1509 15.0905 22.1483 16.597V21.098H19.3533C19.2459 21.098 19.1429 21.1406 19.067 21.2165C18.9911 21.2924 18.9485 21.3954 18.9485 21.5028V26.1676C18.9484 26.2203 18.959 26.2725 18.9794 26.3211C18.9999 26.3697 19.0299 26.4136 19.0676 26.4505C19.1053 26.4873 19.15 26.5162 19.1991 26.5355C19.2481 26.5548 19.3006 26.564 19.3533 26.5627H22.1772V26.8133Z" fill="white"/>
</g>
<defs>
<clipPath id="clip0_17_282">
<rect width="52.6143" height="52.6143" fill="white" transform="translate(0 0.385742)"/>
</clipPath>
</defs>
</svg>
