<svg width="31" height="31" viewBox="0 0 31 31" fill="none" xmlns="http://www.w3.org/2000/svg">
<path d="M16 15.1641C15.1797 15.1641 14.5938 15.8086 14.5938 16.5703C14.6523 20.8477 14.0664 24.8906 12.9531 28.9922C12.7773 29.5781 13.0703 30.75 14.3008 30.75C14.9453 30.75 15.4727 30.3984 15.6484 29.7539C16.4688 26.9414 17.4648 22.4297 17.4062 16.5703C17.4062 15.8086 16.7617 15.1641 16 15.1641ZM15.9414 10.418C12.3672 10.418 9.84766 13.1719 9.90625 16.3359C9.90625 19.1484 9.67188 21.9609 9.08594 24.6562C8.96875 25.418 9.4375 26.1797 10.1992 26.3555C10.9609 26.4727 11.7227 26.0039 11.8398 25.2422C12.4844 22.3125 12.7188 19.3242 12.7188 16.2773C12.6602 14.7539 13.8906 13.2305 15.8828 13.2305C17.6992 13.2305 19.2227 14.6953 19.2812 16.4531C19.2812 19.2656 19.1055 22.1367 18.6367 24.8906C18.5195 25.6523 19.0469 26.3555 19.8086 26.4727C20.9805 26.707 21.3906 25.5938 21.3906 25.3594C21.918 22.4297 22.0938 19.3828 22.0938 16.3945C22.0352 13.1719 19.2812 10.4766 15.9414 10.418ZM9.4375 9.24609C8.85156 8.77734 7.97266 8.83594 7.44531 9.42188C5.98047 11.2969 5.16016 13.6406 5.21875 15.9844C5.21875 18.2109 5.04297 20.4375 4.63281 22.5469C4.51562 23.3672 5.04297 24.0703 5.80469 24.1875C6.97656 24.4219 7.38672 23.3672 7.44531 23.0742C7.85547 20.7305 8.03125 18.3281 8.03125 15.9844C7.97266 14.2266 8.55859 12.5859 9.67188 11.2383C10.1406 10.5938 10.0234 9.71484 9.4375 9.24609ZM15.8828 5.61328C14.9453 5.55469 14.0664 5.67188 13.1875 5.90625C12.4258 6.08203 11.957 6.84375 12.1328 7.54688C12.3086 8.30859 13.0703 8.77734 13.832 8.60156C14.4766 8.48438 15.1211 8.42578 15.8242 8.42578C20.2188 8.48438 23.9102 12 23.9688 16.2773C23.9688 18.5039 23.8516 20.7305 23.6172 22.957C23.5586 23.7188 24.0859 24.4219 24.8477 24.4805C25.8438 24.5977 26.3711 23.8359 26.4297 23.25C26.6641 21.1992 26.7812 19.1484 26.7812 17.0391C26.7812 16.7461 26.7812 16.5117 26.7812 16.2188C26.6641 10.4766 21.8008 5.67188 15.8828 5.61328ZM30.6484 12.7031C30.4727 11.9414 29.7109 11.4727 28.9492 11.6484C28.1875 11.8242 27.7188 12.5273 27.8945 13.2891C28.1289 14.5781 28.1875 15.5156 28.1289 16.9219C28.1289 17.6836 28.7734 18.3281 29.5352 18.3281C30.3555 18.3281 30.9414 17.7422 30.9414 16.9219C31 15.6328 31 14.3438 30.6484 12.7031ZM28.2461 7.37109C25.4336 3.32812 20.7461 0.867188 15.7656 0.808594C11.7227 0.75 7.91406 2.21484 5.10156 5.02734C2.40625 7.78125 0.941406 11.4141 1 15.2227V16.5117C0.941406 17.2734 1.58594 17.918 2.34766 17.918C2.34766 17.918 2.34766 17.918 2.40625 17.918C3.10938 17.918 3.75391 17.332 3.75391 16.5703L3.8125 15.1641C3.75391 12.1172 4.92578 9.24609 7.09375 7.01953C9.37891 4.79297 12.4258 3.5625 15.7656 3.62109C19.8086 3.67969 23.6172 5.67188 25.9609 9.01172C26.4297 9.65625 27.3086 9.77344 27.9531 9.36328C28.5391 8.89453 28.7148 8.01562 28.2461 7.37109Z" fill="white"/>
</svg>
