<svg xmlns="http://www.w3.org/2000/svg" viewBox="0 0 34 34"><defs><style>.a{fill:none;stroke:#ff6262;stroke-miterlimit:10;stroke-width:2px;}.b{fill:#ff4040;}</style></defs><title>gainsight</title><rect class="a" x="1.85" y="1.85" width="30.3" height="30.3" rx="4.42" ry="4.42"/><path class="b" d="M17.67,18.5h4.08v3a6.51,6.51,0,0,1-3.85,1.2c-3.26,0-5.42-2.41-5.42-5.69V17a5.39,5.39,0,0,1,5.17-5.62A6.22,6.22,0,0,1,22.11,13l1.78-2.12a8.62,8.62,0,0,0-6.13-2.17A8.13,8.13,0,0,0,9.54,17v.05a7.92,7.92,0,0,0,8.27,8.2,10.14,10.14,0,0,0,6.65-2.49V16.07H17.67Z"/></svg>