<svg width="381" height="173" viewBox="0 0 381 173" fill="none" xmlns="http://www.w3.org/2000/svg">
<g style="mix-blend-mode:multiply" opacity="0.75">
<path d="M153.151 0H223L180.849 114H111L153.151 0Z" fill="#F9F9F9"/>
</g>
<g style="mix-blend-mode:multiply" opacity="0.75">
<path d="M187.452 21H281L224.548 173H131L187.452 21Z" fill="#F9F9F9"/>
</g>
<line x1="49" y1="76.643" x2="337" y2="76.643" stroke="url(#paint0_linear_201_455)" stroke-width="4.71405"/>
<circle cx="43.783" cy="78.4998" r="43.783" fill="#E1E1E1"/>
<path d="M35.1838 90.8956C39.02 90.8956 42.2891 89.5279 44.4574 86.9927L41.6553 84.324C39.954 86.192 37.8524 87.0927 35.4173 87.0927C30.5803 87.0927 27.0776 83.6902 27.0776 78.8865C27.0776 74.0829 30.5803 70.6804 35.4173 70.6804C37.8524 70.6804 39.954 71.581 41.6553 73.4157L44.4574 70.7804C42.2891 68.2452 39.02 66.8775 35.2171 66.8775C28.045 66.8775 22.7077 71.9146 22.7077 78.8865C22.7077 85.8585 28.045 90.8956 35.1838 90.8956ZM55.7211 90.8956C62.126 90.8956 65.1616 87.6932 65.1616 83.957C65.1616 75.3839 51.3178 78.6197 51.3178 73.6493C51.3178 71.8813 52.7856 70.4802 56.3883 70.4802C58.4232 70.4802 60.7249 71.0807 62.8265 72.3149L64.1942 68.9457C62.1593 67.6114 59.2238 66.8775 56.4217 66.8775C50.0168 66.8775 47.0146 70.0799 47.0146 73.8494C47.0146 82.5226 60.8917 79.2201 60.8917 84.2573C60.8917 85.9919 59.3572 87.2929 55.7211 87.2929C52.8523 87.2929 49.8834 86.2254 48.0153 84.7243L46.5142 88.0935C48.449 89.7614 52.085 90.8956 55.7211 90.8956Z" fill="white"/>
<circle cx="181.349" cy="78.4998" r="43.783" fill="#E1E1E1"/>
<path d="M171.854 90.8956C175.69 90.8956 178.959 89.5279 181.127 86.9927L178.325 84.324C176.624 86.192 174.522 87.0927 172.087 87.0927C167.25 87.0927 163.748 83.6902 163.748 78.8865C163.748 74.0829 167.25 70.6804 172.087 70.6804C174.522 70.6804 176.624 71.581 178.325 73.4157L181.127 70.7804C178.959 68.2452 175.69 66.8775 171.887 66.8775C164.715 66.8775 159.378 71.9146 159.378 78.8865C159.378 85.8585 164.715 90.8956 171.854 90.8956ZM204.509 90.562L195.736 78.4862L203.908 67.2111H199.205L193.3 75.5173L187.329 67.2111H182.426L190.632 78.653L181.959 90.562H186.896L193.167 81.6887L199.505 90.562H204.509Z" fill="white"/>
<circle cx="327.632" cy="78.5" r="52.5" fill="#ff4040"/>
<path d="M323.847 93L317.407 83.8C321.207 82.32 323.367 79.2 323.367 74.96C323.367 68.76 318.807 65 311.447 65H299.927V93H305.127V84.84H311.447C311.807 84.84 312.167 84.84 312.527 84.8L318.247 93H323.847ZM318.127 74.96C318.127 78.48 315.767 80.56 311.207 80.56H305.127V69.4H311.207C315.767 69.4 318.127 71.44 318.127 74.96ZM342.265 93.4C350.945 93.4 357.345 87.32 357.345 79C357.345 70.68 350.945 64.6 342.265 64.6C333.585 64.6 327.185 70.72 327.185 79C327.185 87.28 333.585 93.4 342.265 93.4ZM342.265 88.84C336.625 88.84 332.425 84.72 332.425 79C332.425 73.28 336.625 69.16 342.265 69.16C347.905 69.16 352.105 73.28 352.105 79C352.105 84.72 347.905 88.84 342.265 88.84Z" fill="white"/>
<defs>
<linearGradient id="paint0_linear_201_455" x1="337" y1="78.9992" x2="49" y2="78.9998" gradientUnits="userSpaceOnUse">
<stop stop-color="#ff4040"/>
<stop offset="0.578125" stop-color="#E1E1E1"/>
<stop offset="1" stop-color="#E1E1E1"/>
</linearGradient>
</defs>
</svg>
