<svg width="381" height="173" viewBox="0 0 381 173" fill="none" xmlns="http://www.w3.org/2000/svg">
<g style="mix-blend-mode:multiply" opacity="0.75">
<path d="M187.452 21H281L224.548 173H131L187.452 21Z" fill="#F9F9F9"/>
</g>
<g style="mix-blend-mode:multiply" opacity="0.75">
<path d="M153.151 0H223L180.849 114H111L153.151 0Z" fill="#F9F9F9"/>
</g>
<line x1="49" y1="76.643" x2="337" y2="76.643" stroke="url(#paint0_linear_201_454)" stroke-width="4.71405"/>
<circle cx="43.783" cy="78.4998" r="43.783" fill="#E1E1E1"/>
<path d="M35.1838 90.8961C39.02 90.8961 42.2891 89.5284 44.4574 86.9931L41.6553 84.3245C39.954 86.1925 37.8524 87.0932 35.4173 87.0932C30.5803 87.0932 27.0776 83.6907 27.0776 78.887C27.0776 74.0834 30.5803 70.6808 35.4173 70.6808C37.8524 70.6808 39.954 71.5815 41.6553 73.4162L44.4574 70.7809C42.2891 68.2457 39.02 66.878 35.2171 66.878C28.045 66.878 22.7077 71.9151 22.7077 78.887C22.7077 85.859 28.045 90.8961 35.1838 90.8961ZM55.7211 90.8961C62.126 90.8961 65.1616 87.6937 65.1616 83.9575C65.1616 75.3844 51.3178 78.6202 51.3178 73.6497C51.3178 71.8817 52.7856 70.4807 56.3883 70.4807C58.4232 70.4807 60.7249 71.0811 62.8265 72.3154L64.1942 68.9462C62.1593 67.6119 59.2238 66.878 56.4217 66.878C50.0168 66.878 47.0146 70.0804 47.0146 73.8499C47.0146 82.5231 60.8917 79.2206 60.8917 84.2577C60.8917 85.9924 59.3572 87.2934 55.7211 87.2934C52.8523 87.2934 49.8834 86.2259 48.0153 84.7248L46.5142 88.094C48.449 89.7619 52.085 90.8961 55.7211 90.8961Z" fill="white"/>
<circle cx="190.066" cy="78.5" r="52.5" fill="#ff4040"/>
<path d="M178.68 93.4C183.28 93.4 187.2 91.76 189.8 88.72L186.44 85.52C184.4 87.76 181.88 88.84 178.96 88.84C173.16 88.84 168.96 84.76 168.96 79C168.96 73.24 173.16 69.16 178.96 69.16C181.88 69.16 184.4 70.24 186.44 72.44L189.8 69.28C187.2 66.24 183.28 64.6 178.72 64.6C170.12 64.6 163.72 70.64 163.72 79C163.72 87.36 170.12 93.4 178.68 93.4ZM217.837 93L207.317 78.52L217.117 65H211.477L204.397 74.96L197.237 65H191.357L201.197 78.72L190.797 93H196.717L204.237 82.36L211.837 93H217.837Z" fill="white"/>
<circle cx="336.349" cy="78.4998" r="43.783" fill="#E1E1E1"/>
<path d="M333.192 90.5625L327.822 82.89C330.991 81.6558 332.792 79.0538 332.792 75.5178C332.792 70.3473 328.989 67.2116 322.851 67.2116H313.244V90.5625H317.581V83.7574H322.851C323.152 83.7574 323.452 83.7574 323.752 83.724L328.522 90.5625H333.192ZM328.422 75.5178C328.422 78.4534 326.454 80.188 322.651 80.188H317.581V70.881H322.651C326.454 70.881 328.422 72.5823 328.422 75.5178ZM348.552 90.8961C355.791 90.8961 361.128 85.8256 361.128 78.887C361.128 71.9485 355.791 66.878 348.552 66.878C341.313 66.878 335.976 71.9818 335.976 78.887C335.976 85.7922 341.313 90.8961 348.552 90.8961ZM348.552 87.0932C343.849 87.0932 340.346 83.6573 340.346 78.887C340.346 74.1168 343.849 70.6808 348.552 70.6808C353.256 70.6808 356.758 74.1168 356.758 78.887C356.758 83.6573 353.256 87.0932 348.552 87.0932Z" fill="white"/>
<defs>
<linearGradient id="paint0_linear_201_454" x1="337" y1="78.9992" x2="49" y2="78.9998" gradientUnits="userSpaceOnUse">
<stop stop-color="#E1E1E1"/>
<stop offset="0.505208" stop-color="#ff4040"/>
<stop offset="0.854167" stop-color="#E1E1E1"/>
</linearGradient>
</defs>
</svg>
