<svg width="381" height="173" viewBox="0 0 381 173" fill="none" xmlns="http://www.w3.org/2000/svg">
<g style="mix-blend-mode:multiply" opacity="0.75">
<path d="M153.151 0H223L180.849 114H111L153.151 0Z" fill="#F9F9F9"/>
</g>
<g style="mix-blend-mode:multiply" opacity="0.75">
<path d="M187.452 21H281L224.548 173H131L187.452 21Z" fill="#F9F9F9"/>
</g>
<line x1="49" y1="76.643" x2="337" y2="76.643" stroke="url(#paint0_linear_201_453)" stroke-width="4.71405"/>
<circle cx="52.5" cy="78.5" r="52.5" fill="#48B2EB"/>
<path d="M42.1888 93.4C46.7888 93.4 50.7088 91.76 53.3088 88.72L49.9488 85.52C47.9088 87.76 45.3888 88.84 42.4688 88.84C36.6688 88.84 32.4688 84.76 32.4688 79C32.4688 73.24 36.6688 69.16 42.4688 69.16C45.3888 69.16 47.9088 70.24 49.9488 72.44L53.3088 69.28C50.7088 66.24 46.7888 64.6 42.2288 64.6C33.6288 64.6 27.2288 70.64 27.2288 79C27.2288 87.36 33.6288 93.4 42.1888 93.4ZM66.815 93.4C74.495 93.4 78.135 89.56 78.135 85.08C78.135 74.8 61.535 78.68 61.535 72.72C61.535 70.6 63.295 68.92 67.615 68.92C70.055 68.92 72.815 69.64 75.335 71.12L76.975 67.08C74.535 65.48 71.015 64.6 67.655 64.6C59.975 64.6 56.375 68.44 56.375 72.96C56.375 83.36 73.015 79.4 73.015 85.44C73.015 87.52 71.175 89.08 66.815 89.08C63.375 89.08 59.815 87.8 57.575 86L55.775 90.04C58.095 92.04 62.455 93.4 66.815 93.4Z" fill="white"/>
<circle cx="198.783" cy="78.5001" r="43.783" fill="#E1E1E1"/>
<path d="M189.288 90.8958C193.124 90.8958 196.393 89.5281 198.562 86.9929L195.759 84.3242C194.058 86.1923 191.957 87.093 189.521 87.093C184.684 87.093 181.182 83.6904 181.182 78.8868C181.182 74.0832 184.684 70.6806 189.521 70.6806C191.957 70.6806 194.058 71.5813 195.759 73.416L198.562 70.7807C196.393 68.2454 193.124 66.8777 189.321 66.8777C182.149 66.8777 176.812 71.9149 176.812 78.8868C176.812 85.8587 182.149 90.8958 189.288 90.8958ZM221.943 90.5623L213.17 78.4865L221.343 67.2113H216.639L210.735 75.5176L204.763 67.2113H199.86L208.066 78.6533L199.393 90.5623H204.33L210.601 81.6889L216.939 90.5623H221.943Z" fill="white"/>
<circle cx="336.349" cy="78.5001" r="43.783" fill="#E1E1E1"/>
<path d="M333.192 90.5623L327.822 82.8898C330.991 81.6555 332.792 79.0536 332.792 75.5176C332.792 70.347 328.989 67.2113 322.851 67.2113H313.244V90.5623H317.581V83.7571H322.851C323.152 83.7571 323.452 83.7571 323.752 83.7238L328.522 90.5623H333.192ZM328.422 75.5176C328.422 78.4531 326.454 80.1878 322.651 80.1878H317.581V70.8807H322.651C326.454 70.8807 328.422 72.582 328.422 75.5176ZM348.552 90.8958C355.791 90.8958 361.128 85.8254 361.128 78.8868C361.128 71.9482 355.791 66.8777 348.552 66.8777C341.313 66.8777 335.976 71.9816 335.976 78.8868C335.976 85.792 341.313 90.8958 348.552 90.8958ZM348.552 87.093C343.849 87.093 340.346 83.657 340.346 78.8868C340.346 74.1165 343.849 70.6806 348.552 70.6806C353.256 70.6806 356.758 74.1165 356.758 78.8868C356.758 83.657 353.256 87.093 348.552 87.093Z" fill="white"/>
<defs>
<linearGradient id="paint0_linear_201_453" x1="337" y1="78.9992" x2="49" y2="78.9998" gradientUnits="userSpaceOnUse">
<stop stop-color="#E1E1E1"/>
<stop offset="0.503401" stop-color="#E1E1E1"/>
<stop offset="1" stop-color="#48B2EB"/>
</linearGradient>
</defs>
</svg>
