<svg width="71" height="74" viewBox="0 0 71 74" fill="none" xmlns="http://www.w3.org/2000/svg">
<path d="M15.3285 49.9915C15.0113 49.8009 14.7607 49.5172 14.6108 49.179C14.5162 48.9667 14.4649 48.7377 14.46 48.5054C14.455 48.2731 14.4964 48.0422 14.5818 47.8262C14.6672 47.6102 14.7949 47.4135 14.9574 47.2475C15.1199 47.0816 15.3139 46.9497 15.5281 46.8597L67.6177 24.3815C68.0473 24.1959 68.5333 24.1886 68.9688 24.3611C69.4044 24.5336 69.7537 24.8718 69.9401 25.3013C70.1264 25.7309 70.1344 26.2166 69.9624 26.6515C69.7904 27.0865 69.4524 27.4351 69.0228 27.6207L16.9333 50.0989C16.6769 50.2106 16.3973 50.2592 16.1181 50.2405C15.8388 50.2218 15.568 50.1364 15.3285 49.9915Z" fill="#ff4040"/>
<path d="M20.3167 60.2989C19.9513 60.1035 19.6641 59.7891 19.5049 59.4106C19.3457 59.0321 19.3247 58.6134 19.4455 58.2273C19.5663 57.8413 19.8213 57.5123 20.1661 57.2977C20.5109 57.0831 20.9236 56.9965 21.3325 57.0529L47.471 59.5056C47.9411 59.5497 48.3784 59.7762 48.6867 60.1352C48.995 60.4942 49.149 60.9564 49.1148 61.4199C49.0806 61.8835 48.8611 62.3106 48.5045 62.6072C48.1479 62.9037 47.6834 63.0455 47.2133 63.0014L21.0748 60.5487C20.8077 60.5218 20.5487 60.4365 20.3167 60.2989Z" fill="#ff4040"/>
<path d="M7.44626 40.4095C7.33509 40.3418 7.23149 40.2622 7.13718 40.172C6.97882 40.0179 6.85339 39.8318 6.76822 39.6247C6.68305 39.4176 6.63991 39.1935 6.64121 38.9657C6.64251 38.7378 6.68827 38.5106 6.77583 38.2976C6.8634 38.0845 6.99099 37.8897 7.15117 37.7246L26.215 17.6285C26.534 17.2926 26.9657 17.0948 27.415 17.0785C27.8642 17.0623 28.2943 17.2289 28.6107 17.5419C28.927 17.8548 29.1037 18.2884 29.1018 18.7471C29.0999 19.2059 28.9196 19.6523 28.6005 19.9882L9.53676 40.0844C9.2673 40.3726 8.91315 40.5619 8.53297 40.621C8.1528 40.6801 7.76942 40.6055 7.44626 40.4095Z" fill="#ff4040"/>
</svg>
