<svg width="42" height="42" viewBox="0 0 42 42" fill="none" xmlns="http://www.w3.org/2000/svg">
<path d="M18.2636 0L0 41.1149H22.8576L41.0233 0H18.2636Z" fill="#F3F2F0"/>
<path d="M17.3438 19.2812L15.375 21.25C14.6719 21.9531 15.1875 23.125 16.1719 23.125H22.5C23.1094 23.125 23.625 22.6562 23.625 22V15.7188C23.625 14.7344 22.4062 14.2188 21.7031 14.9219L20.0156 16.6094C17.9062 14.6406 15.0938 13.375 12 13.375C6.28125 13.375 1.54688 17.4531 0.5625 22.8438C0.46875 23.2188 0.75 23.5 1.125 23.5H3.79688C4.03125 23.5 4.26562 23.3594 4.35938 23.0781C5.20312 19.6562 8.34375 17.1719 11.9531 17.125C13.9688 17.125 15.8906 17.9219 17.3438 19.2812ZM1.5 26.875C0.84375 26.875 0.375 27.3906 0.375 28V34.3281C0.375 35.3125 1.54688 35.8281 2.25 35.125L3.9375 33.4375C6.04688 35.4062 8.85938 36.625 12 36.625C17.6719 36.625 22.4062 32.5938 23.3906 27.2031C23.4844 26.8281 23.2031 26.5469 22.8281 26.5469H20.1562C19.9219 26.5469 19.6875 26.6875 19.5938 26.9688C18.75 30.3906 15.6094 32.875 12 32.9219C9.98438 32.9219 8.0625 32.125 6.60938 30.7656L8.57812 28.7969C9.28125 28.0938 8.76562 26.875 7.78125 26.875H1.5Z" fill="#48B2EB"/>
</svg>
