<svg width="46" height="42" viewBox="0 0 46 42" fill="none" xmlns="http://www.w3.org/2000/svg">
<path d="M22.2636 0L4 41.1147H26.8576L45.0233 0H22.2636Z" fill="#F3F2F0"/>
<path d="M23.9062 22.3594C24.1875 22.4531 24.4219 22.5 24.75 22.5C25.9688 22.5 27 21.5156 27 20.25C27 19.0312 25.9688 18 24.75 18C23.4844 18 22.5 19.0312 22.5 20.25C22.5 20.3906 22.5 20.4844 22.5 20.625L18.0469 24.1875C17.7656 24.0938 17.5312 24 17.2031 24C16.9219 24 16.6875 24.0938 16.4062 24.1875L11.9531 20.625C11.9531 20.4844 12 20.3906 12 20.25C12 19.0312 10.9688 18 9.75 18C8.48438 18 7.5 19.0312 7.5 20.25C7.5 20.4844 7.5 20.6719 7.54688 20.8594L2.8125 25.5938C2.625 25.5469 2.4375 25.5 2.25 25.5C0.984375 25.5 0 26.5312 0 27.75C0 29.0156 0.984375 30 2.25 30C3.46875 30 4.5 29.0156 4.5 27.75C4.5 27.5625 4.45312 27.375 4.40625 27.1875L9.14062 22.4531C9.32812 22.5 9.51562 22.5 9.75 22.5C10.0312 22.5 10.2656 22.4531 10.5469 22.3594L15 25.9219C15 26.0625 15 26.1562 15 26.25C15 27.5156 15.9844 28.5 17.25 28.5C18.4688 28.5 19.5 27.5156 19.5 26.25C19.5 26.1562 19.4531 26.0625 19.4531 25.9219L23.9062 22.3594ZM18.75 33H15.75C15.3281 33 15 33.375 15 33.75V41.25C15 41.6719 15.3281 42 15.75 42H18.75C19.125 42 19.5 41.6719 19.5 41.25V33.75C19.5 33.375 19.125 33 18.75 33ZM26.25 27H23.25C22.8281 27 22.5 27.375 22.5 27.75V41.25C22.5 41.6719 22.8281 42 23.25 42H26.25C26.625 42 27 41.6719 27 41.25V27.75C27 27.375 26.625 27 26.25 27ZM11.25 27H8.25C7.82812 27 7.5 27.375 7.5 27.75V41.25C7.5 41.6719 7.82812 42 8.25 42H11.25C11.625 42 12 41.6719 12 41.25V27.75C12 27.375 11.625 27 11.25 27ZM3.75 34.5H0.75C0.328125 34.5 0 34.875 0 35.25V41.25C0 41.6719 0.328125 42 0.75 42H3.75C4.125 42 4.5 41.6719 4.5 41.25V35.25C4.5 34.875 4.125 34.5 3.75 34.5Z" fill="#EC246D"/>
</svg>
