<svg width="484" height="431" viewBox="0 0 484 431" fill="none" xmlns="http://www.w3.org/2000/svg">
<path d="M128 21.9999C154 12.25 198 9.99998 250 40C334.5 95 448 238 446 330C444 422 264 454 166 414C67.9999 374 154 286 166 216C178 146 128 146 73.9999 112C19.9999 78 79.9999 39.9999 128 21.9999Z" fill="#1A4569"/>
<g clip-path="url(#clip0_505_2004)">
<path d="M182.448 96.25H178.634L174.821 98.9844L173.731 102.266L172.642 101.719L169.918 101.172L167.194 102.266L165.015 105L164.47 108.281L163.925 107.734H160.112L156.843 109.375L155.209 112.656V115.938L135.052 183.75H171.552L175.366 164.063L178.634 161.875L180.269 159.688V140L185.172 141.641L188.985 141.094L190.075 137.813L188.985 134.531L194.433 136.719L198.247 135.625L199.336 132.344V129.063L197.157 125.781H199.336H203.15L204.784 124.141L205.329 121.953L204.784 119.219L185.172 97.8906L182.448 96.25Z" fill="white"/>
<path d="M162.836 222.578H123.611L112.716 259.766L111.081 269.062V277.266L113.805 284.375L118.708 290.937L124.701 294.766L138.32 298.594L149.216 299.141H202.06L204.784 254.297L156.843 252.109L162.836 222.578Z" fill="white"/>
<path d="M244.553 220.938L248.911 200.703L253.27 193.594L279.964 188.672L284.322 209.453H289.77L293.584 212.734L294.129 217.109L292.494 220.938L288.136 224.219L284.322 224.766V246.641L285.957 248.828L288.136 249.922C289.044 251.563 290.86 255.063 290.86 255.938C290.86 256.813 288.317 262.135 287.046 264.688L274.516 267.969L259.807 266.875L252.18 252.109H256.538L258.173 248.828V234.063H253.27L249.456 232.422L245.643 228.594L244.553 224.766V220.938Z" fill="white"/>
<path d="M350.786 116.484L368.219 97.8906L369.854 96.7969L373.122 95.7031L376.391 96.25L379.115 98.4375L379.66 102.266L381.294 101.172L384.018 100.625L387.287 102.266L388.921 104.453L389.466 107.734L391.645 106.641L395.458 107.734L398.727 111.563V115.391L418.339 181.563L437.407 247.188L442.855 265.234V274.531L441.22 281.641L437.951 287.656L433.048 292.031L425.966 295.313L417.25 298.047H413.436L351.876 298.594L349.152 253.203L397.093 251.563L378.57 163.516L376.391 162.422L375.301 161.328L374.212 158.594L373.667 138.906L369.854 141.641H367.13L364.406 139.453V135.625L365.495 132.344L361.682 135.625L357.324 136.172L355.144 133.984L354.055 130.703L354.6 128.516L356.779 124.688L353.51 126.328L350.786 125.781L349.152 124.141L347.517 121.406L348.607 118.672L350.786 116.484Z" fill="white"/>
<path d="M463.571 269.239L462.805 270.353L464.111 270.006L478.149 266.279L470.034 276.516L469.518 277.167L470.335 277.318L482.601 279.594L467.802 288.375L467.263 288.694L467.694 289.149C470.465 292.072 473.187 294.943 475.985 297.898L460.457 300.724L459.918 300.823L460.065 301.351L464.058 315.674L450.402 311.838L449.817 311.673L449.768 312.279C449.539 315.156 449.312 318.013 449.083 320.881C448.867 323.597 448.65 326.324 448.43 329.086L440.99 320.563L440.539 320.046L440.185 320.634C439.136 322.378 438.094 324.114 437.055 325.842C435.493 328.442 433.94 331.027 432.388 333.604C432.202 329.8 432.015 325.979 431.819 321.983L431.759 320.748L430.944 321.678L414.581 340.35C415.416 337.498 416.251 334.644 417.09 331.777C418.308 327.615 419.534 323.425 420.777 319.173L421.153 317.886L420.026 318.613L404.226 328.799L412.893 313.507L413.337 312.723L412.437 312.761L398.267 313.355L412.244 299.161L412.693 298.705L412.143 298.38L401.514 292.082L416.93 285.216L417.414 285L417.171 284.529L410.612 271.853L428.416 274.277L428.945 274.349L428.983 273.817C429.361 268.421 429.736 263.077 430.121 257.57L440.248 268.83L440.832 269.479L441.097 268.647C442.317 264.8 443.517 261.001 444.724 257.18C445.336 255.244 445.949 253.302 446.568 251.346L451.118 261.673L451.457 262.443L451.971 261.777L461.939 248.86C460.792 253.74 459.641 258.639 458.443 263.719L458.108 265.14L459.244 264.223L476.747 250.096L463.571 269.239Z" stroke="#48B2EB"/>
<path d="M113.349 137.796L112.1 137.273L112.709 138.482C113.722 140.493 114.719 142.471 115.711 144.44C116.894 146.786 118.07 149.122 119.263 151.489L107.61 145.657L106.864 145.284L106.886 146.118C106.999 150.311 107.109 154.387 107.223 158.639L95.5832 145.942L95.1568 145.477L94.8015 145.999C92.5328 149.327 90.3019 152.596 88.0086 155.957C86.5971 152.502 85.2031 149.091 83.8049 145.67C83.2113 144.218 82.617 142.764 82.0203 141.304L81.812 140.795L81.3248 141.051L68.2099 147.947C68.5102 143.176 68.8036 138.503 69.1028 133.735L69.1409 133.129L68.5387 133.208L51.8848 135.397L58.6416 126.311L59.0484 125.764L58.4046 125.541L44.1382 120.582L55.3382 117.604L56.5247 117.289L55.4553 116.686L33.8561 104.503L55.7831 106.174L57.1163 106.275L56.1769 105.324L42.9534 91.9304L59.651 97.2553L60.5103 97.5293L60.2874 96.6554C59.1051 92.019 57.9579 87.5219 56.7658 82.8651L73.503 93.6291L74.0439 93.977L74.2477 93.367C74.8995 91.4163 75.5459 89.4795 76.1952 87.5341C76.8472 85.5805 77.5021 83.6182 78.1682 81.6246L88.064 95.3272L88.3765 95.7599L88.7879 95.4198L99.7673 86.3451C100.086 90.588 100.399 94.7751 100.713 98.9872C100.846 100.761 100.979 102.54 101.113 104.329L101.153 104.861L101.681 104.787L117.752 102.53L108.885 114.825L108.376 115.53L109.241 115.615L127.242 117.382L118.124 124.005L117.448 124.495L118.2 124.859L132.866 131.956L117.657 131.624L116.207 131.593L117.33 132.511L134.744 146.756L113.349 137.796Z" stroke="#48B2EB"/>
<path d="M247.919 196.134C247.919 196.134 241.192 203.127 246.804 209.689L249.392 196.591L247.919 196.134Z" fill="#5B6D86"/>
<path d="M246.804 210.355C246.708 210.356 246.613 210.335 246.526 210.295C246.439 210.254 246.362 210.196 246.3 210.122C240.363 203.179 247.369 195.744 247.442 195.669C247.526 195.58 247.634 195.516 247.753 195.486C247.872 195.455 247.997 195.458 248.114 195.495L249.591 195.953C249.749 196 249.884 196.105 249.968 196.247C250.053 196.39 250.081 196.559 250.047 196.721L247.455 209.819C247.431 209.941 247.373 210.055 247.288 210.146C247.203 210.237 247.093 210.302 246.973 210.333C246.918 210.348 246.861 210.355 246.804 210.355ZM248.132 196.888C247.174 198.032 246.408 199.326 245.864 200.718C244.856 203.386 245.051 205.854 246.442 208.076L248.634 197.042L248.132 196.888Z" fill="#5B6D86"/>
<path d="M357.65 124.264C349.949 132.843 357.358 139.883 363.606 133.93C364.601 132.98 366.253 131.081 368.026 128.943V128.998C367.605 129.514 367.199 130.009 366.808 130.483C361.2 136.735 363.911 141.786 368.026 141.83V161.774H185.697V142.287C189.901 142.369 192.749 137.274 187.071 130.94C186.633 130.417 186.173 129.856 185.697 129.271V129.218C187.529 131.429 189.245 133.413 190.273 134.392C196.519 140.332 203.928 133.307 196.23 124.713C201.627 129.389 210.739 123.786 201.627 115.383L186.475 99.2491C186.223 98.9587 185.963 98.6882 185.7 98.4374V49.2264H368.028V98.1316C367.809 98.3362 367.61 98.5562 367.408 98.7915L352.254 114.934C343.149 123.338 352.261 128.941 357.65 124.264Z" fill="#EC246D"/>
<path d="M282.47 226.278C282.295 226.286 282.125 226.223 281.997 226.105C281.868 225.987 281.791 225.822 281.784 225.647C281.776 225.472 281.838 225.301 281.956 225.172C282.074 225.043 282.239 224.966 282.413 224.958C289.369 224.36 292.586 220.484 293.278 217.054C293.819 214.375 292.888 211.887 290.96 210.864C289.824 210.261 288.634 210.204 287.315 210.69C287.148 210.75 286.965 210.741 286.805 210.664C286.645 210.588 286.521 210.451 286.462 210.284C286.402 210.117 286.411 209.932 286.487 209.772C286.563 209.611 286.699 209.487 286.866 209.427C288.534 208.813 290.122 208.895 291.586 209.671C294.041 210.974 295.248 214.042 294.586 217.309C293.8 221.212 290.219 225.616 282.533 226.276L282.47 226.278Z" fill="#153D5E"/>
<path d="M255.866 234.91C252.44 234.91 250.001 233.839 248.312 232.572C244.165 229.459 243.111 224.047 243.887 220.336L247.922 201.131C247.939 201.046 247.974 200.964 248.023 200.892C248.073 200.819 248.136 200.758 248.209 200.71C248.282 200.662 248.364 200.629 248.45 200.613C248.536 200.596 248.624 200.597 248.709 200.616C248.795 200.634 248.876 200.668 248.948 200.718C249.02 200.767 249.082 200.831 249.129 200.904C249.177 200.978 249.21 201.06 249.226 201.146C249.242 201.232 249.241 201.321 249.223 201.406L245.189 220.611C244.496 223.911 245.428 228.751 249.107 231.503C252.188 233.817 258.11 235.361 268.81 229.58C268.887 229.538 268.972 229.512 269.058 229.503C269.145 229.495 269.233 229.503 269.317 229.528C269.4 229.553 269.478 229.595 269.546 229.65C269.614 229.705 269.67 229.773 269.711 229.851C269.753 229.928 269.779 230.012 269.787 230.099C269.796 230.187 269.788 230.275 269.763 230.359C269.738 230.443 269.697 230.521 269.641 230.589C269.586 230.657 269.518 230.713 269.442 230.755C263.761 233.821 259.315 234.91 255.866 234.91Z" fill="#153D5E"/>
<path d="M287.495 250.151C286.703 250.137 285.945 249.828 285.367 249.284C284.293 248.305 283.75 246.644 283.75 244.319V225.345C283.75 225.168 283.82 224.999 283.944 224.874C284.069 224.749 284.238 224.679 284.414 224.679C284.59 224.679 284.759 224.749 284.883 224.874C285.008 224.999 285.078 225.168 285.078 225.345V244.319C285.078 246.215 285.487 247.592 286.261 248.299C286.603 248.624 287.054 248.808 287.525 248.816C287.7 248.799 287.874 248.852 288.009 248.964C288.144 249.076 288.23 249.237 288.246 249.412C288.263 249.587 288.21 249.761 288.099 249.897C287.987 250.033 287.827 250.119 287.653 250.136C287.628 250.147 287.574 250.151 287.495 250.151Z" fill="#153D5E"/>
<path d="M253.604 252.912C253.385 252.912 253.142 252.898 252.901 252.876C252.814 252.868 252.73 252.843 252.654 252.802C252.577 252.761 252.509 252.705 252.454 252.638C252.399 252.571 252.358 252.493 252.332 252.41C252.307 252.327 252.298 252.239 252.307 252.153C252.315 252.066 252.34 251.982 252.381 251.905C252.422 251.828 252.477 251.76 252.544 251.705C252.611 251.649 252.688 251.608 252.771 251.582C252.854 251.557 252.941 251.548 253.028 251.557C253.626 251.628 254.233 251.582 254.814 251.422C257.005 250.762 257.134 248.206 257.139 248.098V237.862C257.139 237.686 257.209 237.516 257.333 237.391C257.458 237.266 257.627 237.196 257.803 237.196C257.979 237.196 258.148 237.266 258.272 237.391C258.397 237.516 258.467 237.686 258.467 237.862V248.123C258.467 248.292 258.311 251.755 255.197 252.698C254.679 252.848 254.143 252.92 253.604 252.912Z" fill="#153D5E"/>
<path d="M288.588 205.833C287.438 207.291 287.133 208.679 287.256 209.891C285.005 210.234 282.856 211.726 281.67 212.685L281.376 212.626C282.529 210.866 284.26 207.069 278.512 206.057C270.967 204.737 273.601 193.478 273.601 193.478C269.571 194.235 267.487 195.436 266.065 202.641C258.333 204.312 240.245 199.308 240.245 199.308L245.667 189.886C245.667 189.886 255.375 172.091 277.405 185.486C294.098 186.854 292.244 201.206 288.588 205.833Z" fill="#5B6D86"/>
<path d="M281.67 213.354C281.625 213.354 281.58 213.349 281.536 213.34L281.245 213.279C281.138 213.258 281.038 213.211 280.954 213.142C280.87 213.073 280.804 212.984 280.763 212.883C280.721 212.782 280.704 212.672 280.714 212.563C280.724 212.455 280.76 212.35 280.82 212.258C281.383 211.402 282.248 209.781 281.722 208.558C281.335 207.654 280.217 207.033 278.398 206.714C276.491 206.378 275.014 205.434 274.015 203.903C272.017 200.863 272.444 196.338 272.766 194.334C269.584 195.079 267.962 196.49 266.72 202.77C266.695 202.898 266.634 203.016 266.543 203.108C266.452 203.201 266.336 203.265 266.209 203.291C258.408 204.979 240.817 200.154 240.072 199.948C239.973 199.922 239.882 199.873 239.805 199.806C239.728 199.739 239.668 199.654 239.629 199.559C239.591 199.465 239.574 199.362 239.582 199.26C239.589 199.158 239.621 199.059 239.673 198.971L245.106 189.551C245.25 189.285 248.947 182.652 256.968 180.49C263.141 178.825 270.09 180.29 277.629 184.843C285.956 185.567 289.336 189.463 290.699 192.613C292.941 197.796 291.122 203.705 289.114 206.253C288.198 207.412 287.799 208.615 287.92 209.829C287.939 210 287.891 210.17 287.787 210.306C287.682 210.441 287.53 210.531 287.361 210.555C285.227 210.883 283.143 212.359 282.102 213.211C281.979 213.308 281.826 213.359 281.67 213.354ZM273.601 192.811C273.702 192.808 273.803 192.829 273.895 192.872C273.987 192.914 274.068 192.977 274.132 193.057C274.196 193.136 274.24 193.229 274.262 193.328C274.284 193.428 274.283 193.531 274.258 193.63C274.245 193.691 272.871 199.734 275.135 203.17C275.941 204.398 277.088 205.126 278.641 205.401C280.927 205.802 282.38 206.686 282.956 208.028C283.364 208.978 283.274 210.008 282.956 210.94C284.064 210.21 285.285 209.671 286.57 209.346C286.57 207.988 287.083 206.67 288.073 205.417C289.826 203.201 291.481 197.77 289.48 193.146C287.727 189.078 283.53 186.663 277.364 186.161C277.261 186.152 277.163 186.12 277.074 186.067C269.808 181.645 263.159 180.202 257.312 181.779C249.835 183.794 246.298 190.139 246.263 190.207L241.26 198.883C244.81 199.809 258.774 203.256 265.506 202.071C266.943 195.183 269.157 193.634 273.483 192.831C273.521 192.82 273.561 192.814 273.601 192.811Z" fill="white"/>
<path d="M352.261 298.603L304.308 299.063L326.829 370.598H229.347C229.347 370.598 238.65 340.715 239.712 326.574C225.626 317.775 232.119 301.54 232.119 301.54H201.629L204.419 254.023C204.419 254.023 212.747 254.243 227.129 254.054L252.964 252.201C252.964 252.201 255.48 265.24 272.014 263.282C288.244 261.359 287.589 249.469 287.589 249.469C287.589 249.469 330.791 253.561 349.469 253.561L352.261 298.603Z" fill="#FCC642"/>
<path d="M302.425 313.307C298.606 313.307 294.873 312.171 291.698 310.041C288.523 307.912 286.048 304.885 284.586 301.343C283.125 297.802 282.742 293.905 283.487 290.145C284.232 286.386 286.071 282.932 288.771 280.221C291.471 277.511 294.912 275.665 298.657 274.917C302.402 274.169 306.284 274.553 309.812 276.021C313.34 277.488 316.356 279.972 318.477 283.16C320.598 286.347 321.73 290.095 321.73 293.928C321.723 299.066 319.687 303.991 316.068 307.624C312.45 311.256 307.543 313.3 302.425 313.307ZM302.425 275.614C298.817 275.614 295.289 276.687 292.289 278.699C289.288 280.712 286.95 283.572 285.568 286.918C284.187 290.264 283.826 293.947 284.529 297.499C285.233 301.052 286.97 304.316 289.522 306.877C292.073 309.439 295.324 311.183 298.863 311.89C302.402 312.597 306.07 312.234 309.404 310.848C312.738 309.462 315.587 307.115 317.592 304.103C319.597 301.091 320.667 297.55 320.667 293.928C320.661 289.073 318.737 284.418 315.318 280.985C311.898 277.552 307.262 275.62 302.425 275.614Z" fill="white"/>
<path d="M316.913 390.63C288.067 390.63 264.601 367.074 264.601 338.117C264.601 309.16 288.067 285.602 316.913 285.602C345.759 285.602 369.227 309.16 369.227 338.117C369.227 367.074 345.759 390.63 316.913 390.63ZM316.913 286.671C288.654 286.671 265.663 309.75 265.663 338.117C265.663 366.484 288.654 389.563 316.913 389.563C345.172 389.563 368.169 366.484 368.169 338.119C368.169 309.754 345.172 286.671 316.913 286.671Z" fill="white"/>
<path d="M268.896 264.122C263.417 264.122 259.153 262.765 256.21 260.075C252.484 256.672 252.311 252.413 252.307 252.232C252.303 252.145 252.317 252.057 252.348 251.975C252.378 251.893 252.425 251.818 252.484 251.754C252.544 251.69 252.616 251.639 252.696 251.603C252.775 251.567 252.861 251.548 252.949 251.546H252.971C253.142 251.546 253.307 251.613 253.429 251.733C253.552 251.853 253.624 252.016 253.628 252.188C253.898 254.849 255.142 257.314 257.119 259.107C260.187 261.89 264.866 263.104 271.059 262.719C277.12 262.343 281.552 260.55 284.229 257.391C286.072 255.205 287.034 252.407 286.927 249.546C286.919 249.459 286.927 249.372 286.952 249.289C286.977 249.205 287.018 249.128 287.073 249.06C287.128 248.993 287.196 248.937 287.272 248.896C287.349 248.855 287.433 248.829 287.519 248.82C287.605 248.812 287.692 248.82 287.775 248.845C287.859 248.87 287.936 248.912 288.003 248.967C288.07 249.022 288.126 249.09 288.167 249.167C288.208 249.243 288.233 249.327 288.242 249.414C288.393 252.638 287.317 255.798 285.233 258.255C282.312 261.7 277.563 263.65 271.131 264.05C270.372 264.098 269.626 264.122 268.896 264.122Z" fill="#153D5E"/>
<path d="M272.462 227.246C272.462 227.246 267.48 238.151 257.803 237.847V234.053C257.803 234.053 266.253 233.342 272.462 227.246Z" fill="#FCC642"/>
<path d="M258.188 238.521H257.781C257.609 238.516 257.446 238.445 257.326 238.322C257.206 238.199 257.139 238.033 257.139 237.861V234.066C257.138 233.899 257.2 233.739 257.313 233.616C257.426 233.494 257.58 233.419 257.746 233.406C257.829 233.406 266.04 232.634 271.99 226.786C272.098 226.665 272.246 226.588 272.406 226.569C272.567 226.551 272.729 226.592 272.861 226.686C272.993 226.78 273.086 226.919 273.122 227.077C273.158 227.235 273.135 227.401 273.057 227.543C272.056 229.577 270.772 231.457 269.244 233.129C266.012 236.657 262.197 238.521 258.188 238.521ZM258.467 234.647V237.183C263.882 237.058 267.719 233.181 269.862 230.242C265.146 233.483 260.178 234.411 258.467 234.647Z" fill="#153D5E"/>
<path d="M283.34 219.375C283.214 219.378 283.089 219.344 282.982 219.278C282.874 219.212 282.788 219.116 282.733 219.002C282.678 218.888 282.657 218.76 282.673 218.634C282.688 218.509 282.74 218.39 282.82 218.293C283.993 216.81 287.072 214.423 290.313 215.992C290.392 216.03 290.462 216.083 290.52 216.149C290.578 216.214 290.623 216.29 290.651 216.373C290.68 216.456 290.692 216.543 290.687 216.631C290.682 216.718 290.66 216.804 290.622 216.883C290.584 216.962 290.531 217.032 290.466 217.09C290.401 217.149 290.325 217.193 290.242 217.222C290.16 217.251 290.073 217.263 289.985 217.258C289.898 217.253 289.813 217.231 289.734 217.193C288.459 216.577 287.105 216.696 285.702 217.545C285.009 217.971 284.387 218.504 283.859 219.124C283.797 219.203 283.718 219.266 283.628 219.31C283.538 219.353 283.44 219.376 283.34 219.375Z" fill="#153D5E"/>
<path d="M259.35 222.47C259.35 222.47 258.3 225.9 254.178 225.583C254.178 225.583 260.969 233.892 259.35 222.47Z" fill="#153D5E"/>
<path d="M254.498 223.326C253.926 223.338 253.361 223.195 252.863 222.91C252.131 222.47 251.671 221.729 251.494 220.711C251.077 218.291 252.999 216.751 254.325 216.135L255.055 212.516C255.09 212.343 255.192 212.19 255.338 212.093C255.485 211.995 255.665 211.96 255.837 211.995C256.01 212.03 256.161 212.132 256.259 212.279C256.356 212.427 256.391 212.607 256.357 212.78L255.557 216.74C255.535 216.852 255.484 216.956 255.41 217.042C255.336 217.128 255.241 217.194 255.134 217.233C255.026 217.274 252.425 218.271 252.804 220.475C252.914 221.111 253.155 221.533 253.545 221.766C254.283 222.206 255.348 221.874 255.359 221.872C255.442 221.844 255.53 221.834 255.616 221.84C255.703 221.846 255.788 221.87 255.866 221.909C255.944 221.948 256.014 222.002 256.071 222.068C256.128 222.135 256.171 222.211 256.199 222.294C256.226 222.377 256.237 222.465 256.231 222.552C256.225 222.64 256.201 222.725 256.162 222.803C256.123 222.881 256.069 222.951 256.003 223.008C255.937 223.066 255.861 223.109 255.778 223.137C255.363 223.263 254.932 223.326 254.498 223.326Z" fill="#153D5E"/>
<path d="M263.386 213.223C263.671 211.813 263.356 210.559 262.683 210.423C262.01 210.286 261.235 211.318 260.951 212.728C260.666 214.138 260.981 215.392 261.654 215.528C262.326 215.665 263.102 214.633 263.386 213.223Z" fill="#153D5E"/>
<path d="M251.857 211.065C252.141 209.655 251.826 208.401 251.154 208.264C250.481 208.128 249.705 209.16 249.421 210.57C249.137 211.98 249.452 213.234 250.124 213.37C250.797 213.507 251.573 212.475 251.857 211.065Z" fill="#153D5E"/>
<path d="M266.062 209.77C265.922 209.771 265.785 209.727 265.671 209.644C265.557 209.561 265.473 209.443 265.431 209.309C264.892 207.645 263.038 207.868 262.959 207.879C262.785 207.901 262.609 207.854 262.469 207.746C262.33 207.638 262.239 207.479 262.216 207.304C262.194 207.129 262.241 206.952 262.348 206.813C262.456 206.673 262.614 206.581 262.788 206.559C263.831 206.422 265.994 206.737 266.696 208.902C266.731 209.002 266.742 209.11 266.727 209.216C266.712 209.321 266.671 209.422 266.609 209.508C266.547 209.595 266.464 209.665 266.369 209.712C266.274 209.76 266.169 209.784 266.062 209.781V209.77Z" fill="#153D5E"/>
<path d="M249.392 207.601C249.237 207.609 249.084 207.562 248.96 207.468C248.837 207.374 248.75 207.239 248.716 207.087C248.682 206.935 248.702 206.776 248.774 206.638C248.846 206.499 248.964 206.391 249.107 206.332C250.264 205.764 251.546 205.496 252.833 205.555C252.919 205.564 253.003 205.589 253.079 205.63C253.156 205.671 253.224 205.726 253.279 205.794C253.334 205.861 253.375 205.938 253.401 206.022C253.426 206.105 253.435 206.192 253.426 206.279C253.418 206.366 253.393 206.45 253.352 206.527C253.311 206.604 253.256 206.672 253.189 206.727C253.122 206.782 253.045 206.824 252.962 206.849C252.879 206.875 252.792 206.884 252.705 206.875C251.658 206.846 250.618 207.073 249.677 207.535C249.588 207.578 249.491 207.601 249.392 207.601Z" fill="#153D5E"/>
<path d="M204.421 254.7H204.395L156.589 252.912C156.492 252.907 156.397 252.882 156.31 252.837C156.224 252.792 156.149 252.729 156.089 252.652C156.029 252.575 155.987 252.486 155.965 252.391C155.943 252.296 155.943 252.197 155.964 252.102L175.102 163.67C175.129 163.544 175.192 163.428 175.283 163.337C175.375 163.247 175.491 163.185 175.617 163.16C175.768 163.127 179.373 162.269 179.373 156.875C179.373 156.698 179.443 156.528 179.568 156.403C179.692 156.278 179.861 156.208 180.037 156.208C180.213 156.208 180.382 156.278 180.507 156.403C180.631 156.528 180.701 156.698 180.701 156.875C180.701 162.211 177.504 163.892 176.318 164.33L157.421 251.601L204.435 253.361C204.611 253.364 204.778 253.437 204.901 253.564C205.023 253.692 205.09 253.862 205.086 254.039C205.083 254.216 205.01 254.384 204.883 254.507C204.757 254.63 204.587 254.697 204.41 254.694L204.421 254.7Z" fill="#153D5E"/>
<path d="M373.941 166.668H180.03C179.856 166.668 179.689 166.599 179.565 166.475C179.442 166.351 179.373 166.183 179.373 166.008V140.096C179.373 139.919 179.443 139.749 179.568 139.624C179.692 139.499 179.862 139.429 180.038 139.429C180.214 139.429 180.384 139.499 180.508 139.624C180.633 139.749 180.703 139.919 180.703 140.096V165.333H373.286V139.005C373.286 138.828 373.356 138.658 373.48 138.533C373.605 138.408 373.774 138.337 373.951 138.337C374.127 138.337 374.296 138.408 374.421 138.533C374.546 138.658 374.616 138.828 374.616 139.005V166C374.617 166.088 374.6 166.177 374.567 166.259C374.533 166.341 374.483 166.416 374.42 166.478C374.357 166.541 374.282 166.59 374.2 166.622C374.118 166.655 374.029 166.671 373.941 166.668Z" fill="#153D5E"/>
<path d="M180.296 96.7412C180.121 96.7412 179.954 96.6716 179.831 96.5479C179.707 96.4241 179.638 96.2562 179.638 96.0812V43.8916C179.638 43.7166 179.707 43.5488 179.831 43.425C179.954 43.3012 180.121 43.2317 180.296 43.2317H374.208C374.383 43.2317 374.55 43.3012 374.673 43.425C374.797 43.5488 374.866 43.7166 374.866 43.8916V95.342C374.866 95.5191 374.796 95.6889 374.671 95.8142C374.546 95.9394 374.377 96.0097 374.201 96.0097C374.024 96.0097 373.855 95.9394 373.73 95.8142C373.606 95.6889 373.536 95.5191 373.536 95.342V44.5582H180.96V96.0746C180.961 96.1624 180.944 96.2495 180.911 96.3307C180.878 96.412 180.829 96.4858 180.767 96.5479C180.705 96.61 180.632 96.659 180.551 96.6922C180.47 96.7254 180.383 96.7421 180.296 96.7412Z" fill="#153D5E"/>
<path d="M201.629 299.729L145.018 299.58C130.468 299.177 120.294 295.07 114.756 287.368C107.246 276.917 111.061 263.814 111.228 263.262L145.384 146.687C148.828 135.701 150.404 130.245 152.225 123.927C152.957 121.395 153.711 118.78 154.636 115.643C154 112.899 155.197 109.685 157.529 107.93C159.404 106.52 161.71 106.3 163.996 107.27C163.893 104.071 165.736 102.021 167.657 101.126C170.127 99.9774 172.934 100.492 174.486 102.38C174.598 102.516 174.651 102.692 174.634 102.868C174.617 103.044 174.531 103.206 174.395 103.318C174.259 103.43 174.084 103.484 173.909 103.467C173.734 103.449 173.572 103.363 173.46 103.227C172.295 101.81 170.138 101.443 168.216 102.336C167.384 102.723 164.71 104.3 165.44 108.308C165.466 108.435 165.454 108.567 165.406 108.688C165.358 108.808 165.276 108.912 165.169 108.986C165.063 109.059 164.937 109.1 164.808 109.102C164.679 109.105 164.552 109.069 164.443 108.999C162.251 107.679 160.084 107.679 158.326 108.999C156.389 110.455 155.374 113.245 155.966 115.489C155.999 115.606 155.999 115.73 155.966 115.847C155.022 119.057 154.252 121.723 153.509 124.299C151.684 130.624 150.108 136.086 146.661 147.076L112.499 263.643C112.459 263.777 108.71 276.69 115.838 286.596C121.122 293.937 130.944 297.857 145.035 298.255L201.629 298.405C201.805 298.405 201.974 298.475 202.099 298.6C202.223 298.725 202.293 298.895 202.293 299.072C202.293 299.248 202.223 299.418 202.099 299.543C201.974 299.668 201.805 299.738 201.629 299.738V299.729Z" fill="#153D5E"/>
<path d="M173.973 103.475C173.799 103.475 173.632 103.406 173.508 103.282C173.385 103.158 173.316 102.99 173.316 102.815C173.316 100.681 174.067 98.7544 175.433 97.3904C176.069 96.7567 176.823 96.2555 177.653 95.9157C178.483 95.5759 179.371 95.4042 180.267 95.4106H180.307C182.384 95.4216 184.407 96.3015 186.162 97.9536C186.291 98.0747 186.366 98.2421 186.372 98.4191C186.378 98.5961 186.313 98.7681 186.193 98.8973C186.072 99.0266 185.905 99.1024 185.729 99.1082C185.553 99.114 185.381 99.0492 185.253 98.9281C183.747 97.5092 182.033 96.7547 180.3 96.7437C179.571 96.7307 178.847 96.8648 178.171 97.138C177.495 97.4112 176.881 97.818 176.364 98.3342C175.251 99.4341 174.637 101.036 174.637 102.813C174.638 102.9 174.621 102.987 174.587 103.068C174.554 103.149 174.505 103.222 174.443 103.284C174.381 103.345 174.308 103.394 174.227 103.427C174.147 103.46 174.06 103.476 173.973 103.475Z" fill="#153D5E"/>
<path d="M185.735 142.954H185.684C183.903 142.921 182.077 142.059 180.552 140.534C177.556 137.529 168.512 126.044 168.129 125.555C168.019 125.416 167.97 125.24 167.99 125.064C168.011 124.888 168.1 124.728 168.238 124.618C168.377 124.508 168.553 124.458 168.728 124.479C168.903 124.5 169.063 124.589 169.172 124.728C169.264 124.847 178.551 136.64 181.492 139.59C182.774 140.879 184.273 141.603 185.713 141.627C185.735 141.627 187.845 141.652 188.915 140.224C189.706 139.168 189.778 137.549 189.134 135.406L185.169 129.687C181.663 125.39 170.16 111.843 170.048 111.707C169.934 111.572 169.878 111.398 169.892 111.221C169.906 111.045 169.99 110.881 170.124 110.767C170.258 110.652 170.432 110.596 170.608 110.61C170.784 110.624 170.947 110.708 171.061 110.843C171.177 110.979 182.73 124.579 186.219 128.862L186.25 128.903L190.289 134.733C190.328 134.79 190.358 134.852 190.379 134.918C191.189 137.558 191.053 139.608 189.975 141.04C188.575 142.877 186.127 142.954 185.735 142.954Z" fill="#153D5E"/>
<path d="M146.508 264.186C146.375 264.19 146.244 264.153 146.132 264.08C146.02 264.007 145.933 263.902 145.883 263.778C145.832 263.655 145.819 263.519 145.847 263.388C145.875 263.257 145.942 263.138 146.039 263.047C146.464 262.62 153.459 254.784 156.119 251.799C156.178 251.733 156.248 251.681 156.327 251.643C156.406 251.605 156.491 251.583 156.578 251.578C156.665 251.574 156.752 251.586 156.835 251.615C156.917 251.644 156.993 251.69 157.057 251.748C157.122 251.807 157.175 251.877 157.213 251.956C157.25 252.035 157.272 252.121 157.277 252.208C157.282 252.296 157.269 252.383 157.24 252.466C157.211 252.548 157.166 252.624 157.108 252.69C156.718 253.13 147.516 263.449 146.977 263.99C146.915 264.053 146.842 264.102 146.762 264.136C146.681 264.169 146.595 264.186 146.508 264.186Z" fill="#153D5E"/>
<path d="M174.622 152.301C174.455 152.302 174.293 152.238 174.171 152.123C174.049 152.008 173.975 151.851 173.965 151.683C173.364 143.284 165.043 142.199 164.688 142.158C164.594 142.148 164.504 142.118 164.423 142.07C164.342 142.022 164.272 141.957 164.218 141.88C164.164 141.803 164.127 141.715 164.11 141.622C164.093 141.529 164.096 141.433 164.118 141.342L168.01 124.977C168.031 124.892 168.067 124.811 168.119 124.74C168.17 124.669 168.235 124.609 168.309 124.563C168.383 124.517 168.466 124.487 168.552 124.473C168.638 124.459 168.726 124.463 168.811 124.483C168.896 124.503 168.976 124.54 169.047 124.592C169.118 124.643 169.178 124.708 169.223 124.783C169.269 124.857 169.299 124.94 169.313 125.027C169.327 125.113 169.324 125.202 169.303 125.287L165.578 140.968C167.861 141.467 174.727 143.627 175.295 151.586C175.302 151.674 175.292 151.762 175.265 151.845C175.237 151.928 175.194 152.006 175.137 152.072C175.08 152.138 175.01 152.193 174.932 152.232C174.854 152.271 174.768 152.294 174.681 152.299L174.622 152.301Z" fill="#153D5E"/>
<path d="M167.594 166.669C167.508 166.68 167.42 166.674 167.336 166.651C167.252 166.628 167.173 166.589 167.104 166.536C166.965 166.428 166.874 166.269 166.851 166.094C166.828 165.919 166.876 165.742 166.983 165.603C167.091 165.463 167.249 165.371 167.423 165.349L175.591 163.169C175.675 163.146 175.763 163.14 175.849 163.152C175.936 163.164 176.019 163.192 176.095 163.236C176.17 163.28 176.236 163.338 176.289 163.408C176.342 163.478 176.381 163.557 176.404 163.642C176.426 163.726 176.432 163.814 176.42 163.901C176.409 163.988 176.38 164.072 176.336 164.148C176.293 164.223 176.235 164.29 176.165 164.343C176.096 164.396 176.017 164.435 175.932 164.458L167.765 166.638C167.71 166.656 167.652 166.666 167.594 166.669Z" fill="#153D5E"/>
<path d="M349.469 254.241C349.382 254.242 349.295 254.227 349.214 254.194C349.132 254.162 349.058 254.115 348.995 254.054C348.932 253.993 348.882 253.92 348.847 253.84C348.812 253.759 348.793 253.673 348.792 253.585C348.79 253.497 348.806 253.41 348.838 253.329C348.87 253.247 348.918 253.173 348.978 253.109C349.039 253.046 349.111 252.996 349.191 252.961C349.271 252.926 349.358 252.907 349.445 252.905L396.458 251.145L377.561 163.875C376.378 163.435 373.178 161.756 373.178 156.419C373.178 156.243 373.248 156.073 373.373 155.948C373.497 155.823 373.666 155.753 373.842 155.753C374.018 155.753 374.187 155.823 374.312 155.948C374.436 156.073 374.506 156.243 374.506 156.419C374.506 161.813 378.111 162.669 378.265 162.704C378.39 162.73 378.505 162.792 378.596 162.883C378.687 162.974 378.749 163.089 378.775 163.215L397.922 251.649C397.943 251.744 397.943 251.843 397.922 251.938C397.901 252.033 397.859 252.122 397.799 252.199C397.74 252.277 397.664 252.34 397.577 252.385C397.491 252.429 397.395 252.454 397.298 252.457L349.491 254.245L349.469 254.241Z" fill="#153D5E"/>
<path d="M352.261 299.27C352.085 299.27 351.916 299.199 351.791 299.074C351.667 298.949 351.597 298.78 351.597 298.603C351.597 298.426 351.667 298.257 351.791 298.132C351.916 298.007 352.085 297.936 352.261 297.936L408.873 297.785C422.946 297.395 432.76 293.477 438.052 286.125C445.183 276.226 441.433 263.306 441.394 263.176L407.234 146.584C403.789 135.604 402.213 130.14 400.387 123.815C399.645 121.239 398.875 118.575 397.931 115.368C397.898 115.25 397.898 115.126 397.931 115.009C398.522 112.765 397.508 109.976 395.571 108.517C393.817 107.197 391.639 107.197 389.452 108.517C389.343 108.587 389.216 108.623 389.087 108.62C388.958 108.618 388.833 108.578 388.727 108.504C388.62 108.431 388.538 108.328 388.49 108.207C388.441 108.087 388.429 107.956 388.455 107.829C389.174 103.818 386.513 102.243 385.681 101.856C383.759 100.963 381.602 101.328 380.436 102.747C380.381 102.815 380.313 102.871 380.236 102.912C380.158 102.953 380.074 102.978 379.987 102.987C379.812 103.004 379.637 102.95 379.501 102.837C379.365 102.725 379.279 102.562 379.262 102.386C379.245 102.21 379.299 102.034 379.411 101.898C380.96 100.013 383.77 99.4978 386.239 100.646C388.161 101.539 390.002 103.592 389.899 106.79C392.187 105.814 394.49 106.034 396.366 107.45C398.698 109.21 399.894 112.42 399.261 115.163C400.184 118.298 400.937 120.913 401.672 123.443C403.493 129.761 405.068 135.219 408.511 146.196L442.674 262.789C442.838 263.337 446.656 276.428 439.143 286.889C433.608 294.588 423.433 298.7 408.901 299.1L352.274 299.252L352.261 299.27Z" fill="#153D5E"/>
<path d="M368.096 142.499H368.026C367.958 142.499 367.89 142.487 367.825 142.466C365.388 141.656 363.917 140.308 363.442 138.457C362.374 134.221 367.147 128.969 367.524 128.558C371.057 124.216 375.414 118.659 375.455 118.593C375.509 118.524 375.576 118.466 375.652 118.423C375.728 118.38 375.812 118.353 375.899 118.342C375.986 118.332 376.073 118.339 376.157 118.363C376.242 118.386 376.32 118.426 376.389 118.481C376.457 118.535 376.515 118.602 376.557 118.678C376.6 118.755 376.628 118.839 376.638 118.926C376.648 119.013 376.642 119.101 376.618 119.185C376.594 119.27 376.554 119.349 376.501 119.418C376.457 119.473 372.083 125.065 368.539 129.418C368.53 129.431 368.52 129.443 368.508 129.453C368.462 129.504 363.819 134.513 364.73 138.127C365.072 139.483 366.218 140.503 368.134 141.161C369.584 141.146 371.092 140.424 372.389 139.12C375.328 136.167 384.615 124.381 384.707 124.255C384.762 124.186 384.829 124.129 384.905 124.086C384.981 124.044 385.065 124.016 385.152 124.006C385.238 123.996 385.326 124.003 385.41 124.027C385.494 124.051 385.573 124.091 385.641 124.145C385.71 124.199 385.767 124.267 385.809 124.343C385.852 124.42 385.879 124.504 385.889 124.591C385.899 124.678 385.892 124.766 385.869 124.85C385.845 124.935 385.805 125.014 385.751 125.082C385.367 125.571 376.327 137.056 373.33 140.063C371.774 141.636 369.922 142.499 368.096 142.499Z" fill="#153D5E"/>
<path d="M379.915 103.013C379.74 103.013 379.573 102.944 379.45 102.82C379.327 102.696 379.257 102.528 379.257 102.353C379.257 99.7377 377.971 97.6325 375.819 96.7239C373.457 95.7274 370.724 96.4357 368.506 98.6158C368.38 98.7398 368.21 98.8084 368.033 98.8065C367.857 98.8047 367.688 98.7325 367.565 98.6059C367.441 98.4793 367.373 98.3086 367.375 98.1314C367.377 97.9542 367.449 97.785 367.575 97.6611C370.15 95.1312 373.505 94.3019 376.34 95.4942C378.97 96.5941 380.592 99.234 380.592 102.353C380.592 102.442 380.574 102.529 380.54 102.611C380.506 102.692 380.456 102.766 380.392 102.827C380.329 102.889 380.254 102.937 380.172 102.969C380.09 103.001 380.003 103.016 379.915 103.013Z" fill="#153D5E"/>
<path d="M358.951 136.629C357.608 136.641 356.302 136.193 355.246 135.36C355.212 135.331 355.182 135.299 355.156 135.263C350.573 129.196 357.176 123.795 357.242 123.743C359.471 121.811 364.66 116.384 367.542 113.322C368.723 112.072 369.499 111.241 369.499 111.241C369.619 111.112 369.786 111.036 369.962 111.03C370.138 111.024 370.309 111.088 370.438 111.209C370.566 111.33 370.642 111.497 370.648 111.674C370.654 111.85 370.59 112.022 370.47 112.152C370.47 112.152 369.692 112.985 368.497 114.239C365.589 117.319 360.365 122.784 358.075 124.768C357.823 124.97 352.445 129.388 356.151 134.394C357.084 135.079 358.237 135.392 359.387 135.274C361.34 135.094 363.31 133.787 365.241 131.387C365.296 131.319 365.363 131.263 365.44 131.221C365.516 131.179 365.6 131.153 365.687 131.144C365.774 131.134 365.861 131.142 365.945 131.167C366.029 131.192 366.107 131.233 366.174 131.288C366.242 131.343 366.298 131.411 366.34 131.488C366.382 131.565 366.408 131.649 366.417 131.736C366.426 131.823 366.418 131.911 366.393 131.995C366.369 132.079 366.328 132.157 366.273 132.225C364.097 134.931 361.809 136.405 359.479 136.605C359.306 136.623 359.127 136.629 358.951 136.629Z" fill="#153D5E"/>
<path d="M379.268 151.842H379.22C379.133 151.836 379.047 151.814 378.969 151.775C378.89 151.736 378.82 151.682 378.763 151.615C378.706 151.549 378.662 151.472 378.635 151.388C378.608 151.305 378.597 151.216 378.604 151.129C379.174 143.17 386.038 141.009 388.321 140.508L384.596 124.829C384.576 124.744 384.572 124.656 384.586 124.569C384.6 124.483 384.63 124.4 384.676 124.325C384.722 124.25 384.782 124.186 384.852 124.134C384.923 124.083 385.003 124.046 385.088 124.025C385.173 124.005 385.261 124.002 385.347 124.015C385.433 124.029 385.516 124.06 385.59 124.106C385.665 124.152 385.729 124.212 385.78 124.283C385.832 124.354 385.869 124.434 385.889 124.519L389.779 140.882C389.802 140.974 389.805 141.069 389.788 141.163C389.771 141.256 389.734 141.344 389.68 141.422C389.626 141.499 389.556 141.564 389.475 141.612C389.393 141.661 389.303 141.69 389.209 141.7C388.856 141.742 380.533 142.826 379.932 151.223C379.922 151.392 379.847 151.55 379.723 151.666C379.6 151.781 379.437 151.844 379.268 151.842Z" fill="#153D5E"/>
<path d="M386.296 166.206C386.239 166.207 386.181 166.199 386.125 166.184L377.958 164.002C377.874 163.98 377.794 163.941 377.725 163.887C377.656 163.834 377.598 163.768 377.554 163.692C377.51 163.616 377.482 163.533 377.47 163.446C377.459 163.359 377.464 163.271 377.487 163.186C377.509 163.101 377.548 163.022 377.601 162.952C377.654 162.883 377.72 162.824 377.796 162.78C377.871 162.737 377.955 162.708 378.041 162.696C378.127 162.685 378.215 162.69 378.3 162.713L386.465 164.895C386.64 164.918 386.798 165.009 386.905 165.148C387.013 165.288 387.061 165.465 387.038 165.64C387.016 165.815 386.925 165.974 386.786 166.082C386.647 166.19 386.471 166.238 386.296 166.215V166.206Z" fill="#153D5E"/>
<path d="M237.12 196.8C237.045 196.801 236.971 196.788 236.901 196.763C236.818 196.735 236.741 196.691 236.675 196.633C236.61 196.575 236.556 196.505 236.518 196.426C236.479 196.347 236.457 196.261 236.452 196.174C236.447 196.086 236.46 195.998 236.489 195.916C239.338 187.635 244.974 183.979 249.199 182.369C253.933 180.565 258.364 180.721 259.039 181.104C259.117 181.143 259.186 181.198 259.243 181.264C259.3 181.33 259.343 181.407 259.371 181.49C259.398 181.573 259.409 181.66 259.403 181.748C259.396 181.835 259.373 181.92 259.334 181.998C259.295 182.076 259.24 182.146 259.174 182.203C259.109 182.26 259.032 182.304 258.949 182.331C258.867 182.359 258.779 182.37 258.692 182.363C258.605 182.357 258.521 182.333 258.443 182.294C258.005 182.182 254.183 181.885 249.624 183.634C245.68 185.147 240.42 188.581 237.744 196.351C237.7 196.482 237.616 196.596 237.504 196.677C237.392 196.757 237.258 196.8 237.12 196.8Z" fill="white"/>
<path d="M280.837 186.179C288.158 186.179 294.093 180.221 294.093 172.872C294.093 165.523 288.158 159.565 280.837 159.565C273.516 159.565 267.581 165.523 267.581 172.872C267.581 180.221 273.516 186.179 280.837 186.179Z" fill="#5B6D86"/>
<path d="M280.809 186.85C277.678 186.845 274.64 185.78 272.186 183.828C269.731 181.877 268.004 179.152 267.283 176.093C266.561 173.035 266.887 169.821 268.209 166.972C269.53 164.123 271.77 161.804 274.566 160.389C277.362 158.975 280.552 158.548 283.619 159.177C286.687 159.806 289.454 161.455 291.473 163.857C293.493 166.258 294.647 169.274 294.749 172.415C294.852 175.556 293.896 178.641 292.038 181.17C290.957 182.649 289.595 183.898 288.03 184.846C286.465 185.793 284.729 186.42 282.921 186.689C282.222 186.795 281.516 186.849 280.809 186.85ZM280.853 160.232C278.702 160.229 276.586 160.779 274.707 161.83C272.828 162.882 271.249 164.399 270.12 166.236C268.991 168.074 268.35 170.172 268.258 172.329C268.166 174.487 268.626 176.632 269.594 178.56C270.563 180.488 272.007 182.135 273.79 183.343C275.572 184.552 277.633 185.282 279.777 185.463C281.92 185.645 284.074 185.272 286.033 184.381C287.993 183.489 289.692 182.109 290.968 180.371C292.353 178.491 293.19 176.262 293.387 173.932C293.584 171.603 293.134 169.264 292.085 167.176C291.036 165.089 289.431 163.334 287.448 162.108C285.465 160.882 283.182 160.232 280.853 160.232Z" fill="#5B6D86"/>
<path d="M283.34 187.429C283.177 187.442 283.015 187.394 282.885 187.294C282.755 187.194 282.668 187.049 282.639 186.887C282.61 186.725 282.642 186.559 282.729 186.42C282.816 186.281 282.952 186.179 283.11 186.135C288.959 183.973 292.936 180.622 294.943 176.179C298.027 169.319 295.301 162.099 295.272 162.022C295.241 161.941 295.225 161.854 295.227 161.766C295.229 161.679 295.248 161.592 295.283 161.512C295.318 161.432 295.369 161.359 295.432 161.299C295.495 161.238 295.569 161.191 295.65 161.159C295.731 161.127 295.818 161.112 295.905 161.114C295.993 161.116 296.079 161.135 296.159 161.17C296.238 161.205 296.311 161.256 296.371 161.319C296.431 161.382 296.479 161.457 296.51 161.538C296.633 161.853 299.469 169.335 296.16 176.717C294.012 181.507 289.78 185.099 283.579 187.391C283.502 187.418 283.421 187.431 283.34 187.429Z" fill="white"/>
<path d="M294.098 193.969C293.975 193.97 293.855 193.937 293.751 193.873C293.646 193.809 293.561 193.717 293.506 193.608C293.473 193.544 290.122 187.217 282.367 185.955C282.192 185.925 282.037 185.828 281.934 185.684C281.831 185.539 281.79 185.36 281.819 185.185C281.848 185.01 281.945 184.853 282.089 184.75C282.233 184.647 282.412 184.606 282.586 184.635C291.025 186.007 294.551 192.708 294.696 192.994C294.737 193.072 294.762 193.157 294.769 193.244C294.777 193.332 294.767 193.42 294.74 193.503C294.713 193.587 294.67 193.664 294.613 193.731C294.557 193.798 294.487 193.852 294.409 193.892C294.313 193.943 294.206 193.969 294.098 193.969Z" fill="white"/>
<path d="M232.119 302.208C232.023 302.209 231.927 302.187 231.841 302.145C231.761 302.108 231.69 302.057 231.631 301.993C231.572 301.929 231.526 301.854 231.496 301.772C231.465 301.691 231.452 301.604 231.455 301.516C231.459 301.429 231.48 301.344 231.516 301.265L236.717 290.012C236.753 289.933 236.805 289.861 236.87 289.802C236.934 289.742 237.009 289.696 237.091 289.666C237.173 289.636 237.26 289.622 237.347 289.626C237.435 289.629 237.521 289.65 237.6 289.687C237.679 289.724 237.75 289.776 237.81 289.84C237.869 289.905 237.915 289.98 237.945 290.063C237.975 290.145 237.989 290.232 237.985 290.32C237.982 290.408 237.961 290.494 237.924 290.573L232.722 301.821C232.669 301.937 232.584 302.036 232.477 302.104C232.37 302.173 232.246 302.209 232.119 302.208Z" fill="#153D5E"/>
<path d="M214.303 302.209H214.274C214.187 302.206 214.101 302.186 214.021 302.149C213.942 302.113 213.871 302.061 213.811 301.996C213.752 301.932 213.707 301.856 213.677 301.774C213.647 301.691 213.634 301.604 213.639 301.516L215.633 254.111C215.642 253.935 215.72 253.77 215.85 253.651C215.979 253.531 216.15 253.468 216.325 253.473C216.413 253.476 216.498 253.496 216.578 253.533C216.657 253.569 216.729 253.621 216.788 253.686C216.847 253.75 216.893 253.826 216.922 253.909C216.952 253.991 216.965 254.079 216.961 254.166L214.967 301.571C214.961 301.743 214.888 301.907 214.764 302.026C214.64 302.145 214.474 302.211 214.303 302.209Z" fill="#153D5E"/>
<path d="M341.56 299.373C341.395 299.374 341.236 299.312 341.114 299.2C340.993 299.089 340.917 298.935 340.903 298.77L336.52 253.638C336.511 253.551 336.52 253.464 336.545 253.38C336.57 253.297 336.612 253.219 336.667 253.152C336.722 253.085 336.789 253.029 336.866 252.988C336.942 252.947 337.026 252.921 337.113 252.913C337.199 252.904 337.286 252.913 337.369 252.938C337.452 252.964 337.529 253.005 337.596 253.06C337.663 253.116 337.719 253.184 337.76 253.26C337.801 253.337 337.826 253.421 337.835 253.508L342.218 298.64C342.227 298.728 342.219 298.816 342.194 298.9C342.169 298.984 342.127 299.062 342.072 299.13C342.016 299.198 341.948 299.254 341.871 299.295C341.793 299.336 341.709 299.361 341.622 299.369L341.56 299.373Z" fill="#153D5E"/>
<path d="M405.349 259.309C405.189 259.312 405.033 259.257 404.911 259.153L396.837 252.294C396.703 252.179 396.619 252.016 396.604 251.84C396.59 251.663 396.645 251.488 396.759 251.353C396.873 251.218 397.036 251.134 397.212 251.119C397.387 251.105 397.562 251.161 397.696 251.275L405.77 258.134C405.878 258.221 405.956 258.34 405.993 258.474C406.029 258.609 406.023 258.751 405.975 258.881C405.926 259.011 405.838 259.123 405.722 259.2C405.607 259.277 405.47 259.315 405.331 259.309H405.349Z" fill="#153D5E"/>
<path d="M195.359 137.355C191.724 137.355 187.731 133.286 187.56 133.11C187.437 132.983 187.37 132.812 187.372 132.635C187.374 132.458 187.447 132.289 187.573 132.166C187.7 132.042 187.87 131.974 188.046 131.977C188.222 131.979 188.39 132.052 188.513 132.179C188.551 132.219 192.394 136.121 195.48 136.018C195.898 136.009 196.309 135.907 196.683 135.721C197.058 135.535 197.387 135.268 197.647 134.94C198.743 133.646 199.227 132.254 199.092 130.802C198.802 127.7 195.844 125.265 195.804 125.241C193.464 123.212 181.45 109.622 180.942 109.036C180.826 108.904 180.767 108.731 180.778 108.554C180.789 108.378 180.869 108.214 181.001 108.097C181.133 107.98 181.306 107.921 181.481 107.932C181.657 107.943 181.821 108.024 181.937 108.156C182.06 108.297 194.397 122.266 196.657 124.215C196.78 124.314 200.065 127.02 200.404 130.674C200.575 132.498 199.986 134.223 198.651 135.8C198.271 136.269 197.793 136.65 197.252 136.916C196.71 137.182 196.118 137.326 195.515 137.34L195.359 137.355Z" fill="#153D5E"/>
<path d="M200.878 127.153C198.325 127.153 195.875 125.443 194.604 124.126C194.481 123.999 194.414 123.828 194.416 123.651C194.419 123.474 194.491 123.306 194.618 123.183C194.744 123.06 194.914 122.992 195.09 122.995C195.266 122.997 195.434 123.07 195.557 123.197C195.695 123.34 198.149 125.837 200.84 125.837C201.927 125.837 202.97 125.408 203.744 124.642C204.094 124.339 204.374 123.961 204.563 123.537C204.753 123.113 204.847 122.652 204.84 122.187C204.82 119.2 201.222 115.933 201.18 115.889L201.141 115.85L187.056 100.844C186.935 100.716 186.87 100.544 186.875 100.367C186.878 100.28 186.898 100.194 186.933 100.114C186.969 100.034 187.02 99.9618 187.084 99.9017C187.147 99.8416 187.222 99.7947 187.303 99.7635C187.385 99.7324 187.472 99.7177 187.559 99.7203C187.735 99.7254 187.902 99.8006 188.023 99.9292L202.09 114.915C202.445 115.238 206.139 118.694 206.172 122.174C206.18 122.826 206.047 123.472 205.782 124.068C205.517 124.663 205.127 125.194 204.638 125.624C203.63 126.604 202.281 127.153 200.878 127.153Z" fill="#153D5E"/>
<path d="M353.284 126.754C351.862 126.754 350.514 126.226 349.265 125.183C347.891 124.033 347.214 122.698 347.258 121.224C347.348 118.144 350.582 115.55 351.042 115.196L365.101 100.272C365.222 100.143 365.389 100.068 365.565 100.063C365.742 100.059 365.913 100.124 366.041 100.246C366.169 100.367 366.244 100.535 366.249 100.712C366.254 100.889 366.188 101.061 366.067 101.189L351.961 116.149C351.935 116.178 351.905 116.204 351.873 116.226C351.842 116.25 348.649 118.656 348.586 121.259C348.555 122.326 349.057 123.276 350.12 124.163C351.257 125.113 352.476 125.529 353.749 125.401C356.519 125.122 358.724 122.396 358.745 122.368C358.855 122.229 359.015 122.141 359.19 122.121C359.366 122.101 359.541 122.152 359.679 122.262C359.817 122.372 359.905 122.533 359.925 122.709C359.945 122.884 359.894 123.061 359.784 123.199C359.681 123.329 357.22 126.387 353.889 126.719C353.683 126.743 353.486 126.754 353.284 126.754Z" fill="#153D5E"/>
<path d="M304.31 299.729H304.246L300.459 299.371C300.285 299.354 300.124 299.269 300.013 299.133C299.901 298.998 299.848 298.823 299.864 298.648C299.881 298.473 299.966 298.312 300.101 298.2C300.236 298.088 300.41 298.034 300.584 298.051L304.371 298.41C304.546 298.418 304.71 298.495 304.827 298.625C304.945 298.754 305.006 298.925 304.998 299.1C304.99 299.275 304.913 299.44 304.784 299.558C304.655 299.676 304.484 299.738 304.31 299.729Z" fill="#153D5E"/>
<path d="M239.712 326.575C241.783 328.046 246.392 330.715 255.383 332.582C255.383 332.582 242.493 330.845 238.948 332.582L239.712 326.575Z" fill="#153D5E"/>
<path d="M255.383 333.251C255.354 333.253 255.325 333.253 255.296 333.251C251.765 332.774 242 331.834 239.246 333.189C239.138 333.246 239.017 333.271 238.896 333.262C238.775 333.254 238.659 333.211 238.56 333.141C238.461 333.07 238.384 332.973 238.337 332.861C238.29 332.749 238.274 332.626 238.292 332.505L239.053 326.497C239.065 326.382 239.108 326.272 239.176 326.179C239.245 326.085 239.336 326.011 239.442 325.965C239.548 325.918 239.664 325.9 239.779 325.913C239.893 325.926 240.003 325.969 240.096 326.038C242.539 327.773 247.198 330.217 255.517 331.935C255.691 331.953 255.852 332.04 255.962 332.176C256.073 332.313 256.125 332.487 256.108 332.662C256.09 332.838 256.004 332.998 255.868 333.11C255.732 333.221 255.558 333.273 255.383 333.255V333.251ZM240.236 327.729L239.747 331.601C241.439 331.161 244.13 331.042 247.77 331.223C244.352 330.052 241.924 328.807 240.236 327.729Z" fill="#153D5E"/>
<path d="M258.717 354.594C258.588 354.597 258.462 354.563 258.352 354.495C258.243 354.427 258.156 354.329 258.102 354.212C258.048 354.095 258.029 353.964 258.048 353.837C258.067 353.709 258.123 353.59 258.208 353.494L290.55 315.071C290.606 315.004 290.675 314.949 290.753 314.909C290.83 314.869 290.915 314.845 291.002 314.837C291.089 314.83 291.177 314.84 291.26 314.867C291.343 314.893 291.42 314.936 291.487 314.993C291.553 315.05 291.608 315.119 291.648 315.197C291.688 315.275 291.712 315.36 291.719 315.447C291.727 315.534 291.717 315.622 291.69 315.706C291.663 315.789 291.621 315.867 291.564 315.933L259.225 354.354C259.163 354.429 259.086 354.49 258.998 354.531C258.91 354.573 258.814 354.594 258.717 354.594Z" fill="#153D5E"/>
<path d="M274.887 350.326C274.763 350.329 274.64 350.296 274.533 350.231C274.426 350.167 274.34 350.073 274.284 349.961C274.229 349.849 274.206 349.723 274.219 349.598C274.232 349.474 274.28 349.355 274.357 349.257L291.753 326.172C291.805 326.102 291.871 326.043 291.947 325.999C292.022 325.954 292.105 325.925 292.192 325.913C292.278 325.901 292.366 325.906 292.451 325.929C292.535 325.951 292.615 325.989 292.684 326.042C292.754 326.095 292.812 326.161 292.857 326.237C292.901 326.312 292.93 326.396 292.942 326.483C292.954 326.569 292.949 326.658 292.927 326.743C292.905 326.827 292.866 326.907 292.813 326.977L275.418 350.06C275.356 350.143 275.276 350.21 275.184 350.257C275.092 350.303 274.99 350.327 274.887 350.326Z" fill="#153D5E"/>
<path d="M190.223 96.1496C190.082 96.1496 189.946 96.0932 189.846 95.993C189.746 95.8927 189.69 95.7568 189.69 95.615V56.5476C189.69 56.4775 189.704 56.4081 189.731 56.3434C189.758 56.2787 189.797 56.2199 189.846 56.1704C189.896 56.1209 189.955 56.0818 190.019 56.0552C190.084 56.0285 190.153 56.015 190.223 56.0153H362.098C362.239 56.0153 362.374 56.0714 362.473 56.1712C362.573 56.271 362.629 56.4064 362.629 56.5476V93.7671C362.62 93.9027 362.56 94.0298 362.462 94.1228C362.363 94.2157 362.233 94.2674 362.097 94.2674C361.962 94.2674 361.832 94.2157 361.733 94.1228C361.634 94.0298 361.575 93.9027 361.566 93.7671V57.0822H190.762V95.615C190.762 95.6858 190.748 95.7558 190.721 95.8211C190.694 95.8864 190.654 95.9456 190.604 95.9953C190.553 96.0451 190.494 96.0843 190.429 96.1108C190.363 96.1372 190.293 96.1504 190.223 96.1496Z" fill="white"/>
<path d="M362.098 156.954H190.223C190.153 156.954 190.084 156.941 190.019 156.914C189.955 156.887 189.896 156.848 189.846 156.799C189.797 156.749 189.758 156.691 189.731 156.626C189.704 156.561 189.69 156.492 189.69 156.422V146.192C189.699 146.057 189.759 145.929 189.857 145.837C189.956 145.744 190.086 145.692 190.222 145.692C190.357 145.692 190.487 145.744 190.586 145.837C190.685 145.929 190.744 146.057 190.753 146.192V155.887H361.557V146.192C361.566 146.057 361.626 145.929 361.724 145.837C361.823 145.744 361.953 145.692 362.088 145.692C362.224 145.692 362.354 145.744 362.453 145.837C362.551 145.929 362.611 146.057 362.62 146.192V156.422C362.62 156.561 362.565 156.695 362.468 156.795C362.37 156.895 362.237 156.952 362.098 156.954Z" fill="white"/>
<path d="M259.6 252.912H254.998C254.821 252.912 254.652 252.842 254.527 252.716C254.403 252.591 254.333 252.421 254.333 252.244C254.333 252.067 254.403 251.897 254.527 251.772C254.652 251.647 254.821 251.577 254.998 251.577H259.6C259.776 251.577 259.945 251.647 260.07 251.772C260.195 251.897 260.265 252.067 260.265 252.244C260.265 252.421 260.195 252.591 260.07 252.716C259.945 252.842 259.776 252.912 259.6 252.912Z" fill="#153D5E"/>
<path d="M238.945 221.177C238.809 221.178 238.675 221.136 238.564 221.056L230.438 215.336C230.366 215.286 230.305 215.222 230.258 215.147C230.21 215.073 230.178 214.99 230.163 214.904C230.147 214.817 230.149 214.728 230.168 214.642C230.187 214.556 230.223 214.475 230.273 214.402C230.323 214.33 230.387 214.268 230.461 214.221C230.535 214.174 230.617 214.141 230.704 214.126C230.79 214.11 230.879 214.112 230.964 214.131C231.05 214.15 231.131 214.186 231.203 214.236L239.327 219.956C239.447 220.035 239.538 220.151 239.586 220.286C239.635 220.422 239.637 220.57 239.594 220.707C239.551 220.845 239.464 220.964 239.347 221.047C239.23 221.13 239.089 221.173 238.945 221.168V221.177Z" fill="white"/>
<path d="M234.882 226.012H224.144C223.968 226.012 223.799 225.942 223.675 225.817C223.55 225.692 223.48 225.522 223.48 225.345C223.48 225.168 223.55 224.999 223.675 224.874C223.799 224.749 223.968 224.679 224.144 224.679H234.882C235.058 224.679 235.227 224.749 235.352 224.874C235.476 224.999 235.546 225.168 235.546 225.345C235.546 225.522 235.476 225.692 235.352 225.817C235.227 225.942 235.058 226.012 234.882 226.012Z" fill="white"/>
<path d="M230.813 234.099C230.639 234.117 230.464 234.066 230.328 233.955C230.191 233.845 230.104 233.684 230.085 233.509C230.067 233.334 230.118 233.159 230.228 233.022C230.339 232.885 230.498 232.797 230.673 232.779L236.982 231.413C237.154 231.375 237.334 231.408 237.482 231.504C237.631 231.6 237.735 231.751 237.772 231.924C237.809 232.097 237.776 232.278 237.681 232.427C237.585 232.575 237.435 232.68 237.262 232.717L230.953 234.083C230.907 234.093 230.86 234.098 230.813 234.099Z" fill="white"/>
<path d="M401.303 76.7491C401.142 76.7487 400.986 76.6884 400.865 76.5797C400.799 76.522 400.745 76.4517 400.707 76.3728C400.668 76.294 400.646 76.2082 400.641 76.1205C400.636 76.0328 400.648 75.945 400.677 75.8621C400.706 75.7793 400.752 75.7032 400.81 75.6381C405.645 70.1869 413.804 66.2161 425.057 63.8337C427.016 63.4179 428.903 63.0901 430.645 62.8327C418.881 62.219 399.991 60.7033 393.171 57.1395C391.856 56.4465 391.569 55.4588 391.573 54.7527C391.591 51.1867 399.011 45.0249 414.259 35.9174C415.469 35.1937 416.67 34.4831 417.88 33.7858C407.799 37.8643 395.485 41.8153 385.26 42.0067C381.587 42.0748 379.183 40.9639 378.087 38.7069C375.677 33.7154 380.55 23.8468 385.93 15.3531C379.041 22.3927 373.152 26.183 368.399 26.6142C365.769 26.854 363.483 26.0444 361.634 24.2098C361.509 24.0852 361.438 23.9158 361.437 23.7388C361.436 23.5618 361.505 23.3918 361.629 23.266C361.754 23.1403 361.922 23.0692 362.099 23.0684C362.275 23.0675 362.444 23.1371 362.57 23.2616C364.147 24.8279 366.015 25.4901 368.267 25.2855C376.06 24.5771 386.097 13.7252 391.935 6.55366C394.521 3.01409 396.491 0.581037 396.756 0.248858C396.863 0.107957 397.02 0.0152411 397.195 -0.00889329C397.369 -0.0330277 397.546 0.0133962 397.686 0.120166C397.827 0.226935 397.919 0.385304 397.943 0.560434C397.967 0.735563 397.921 0.913107 397.815 1.05401C397.788 1.0936 395.939 3.73564 393.061 7.28622C391.175 9.87106 388.95 13.0521 386.833 16.409C378.383 29.8128 378.068 35.6139 379.271 38.1239C380.119 39.8838 382.119 40.7351 385.223 40.6779C401.639 40.37 423.65 30.1538 432.582 25.6485C435.048 24.3418 436.577 23.563 436.619 23.541C436.775 23.4582 436.957 23.4408 437.125 23.4928C437.294 23.5448 437.435 23.6618 437.517 23.8182C437.6 23.9745 437.617 24.1574 437.565 24.3266C437.514 24.4957 437.397 24.6373 437.241 24.7201C437.175 24.7575 435.707 25.5671 433.224 26.8166C428.977 29.0649 421.921 32.8904 414.921 37.0702C406.701 41.9803 392.908 50.8083 392.888 54.7637C392.888 55.0782 392.978 55.5468 393.765 55.9604C403.482 61.0333 440.145 61.8802 440.515 61.889C440.691 61.889 440.86 61.9592 440.985 62.0842C441.109 62.2092 441.179 62.3788 441.179 62.5556C441.179 62.7323 441.109 62.9019 440.985 63.0269C440.86 63.1519 440.691 63.2221 440.515 63.2221C440.241 63.2221 412.89 64.0141 401.79 76.5291C401.729 76.5979 401.654 76.653 401.57 76.6909C401.486 76.7288 401.395 76.7486 401.303 76.7491Z" fill="white"/>
<path d="M356.872 22.3838C359.224 22.3838 361.132 20.4691 361.132 18.1072C361.132 15.7454 359.224 13.8307 356.872 13.8307C354.519 13.8307 352.611 15.7454 352.611 18.1072C352.611 20.4691 354.519 22.3838 356.872 22.3838Z" fill="white"/>
<path d="M98.1578 120.249C100.511 120.249 102.418 118.334 102.418 115.972C102.418 113.61 100.511 111.696 98.1578 111.696C95.8049 111.696 93.8976 113.61 93.8976 115.972C93.8976 118.334 95.8049 120.249 98.1578 120.249Z" fill="white"/>
<path d="M113.923 54.1718C112.949 54.1722 111.996 53.8826 111.186 53.3394C110.375 52.7963 109.743 52.0241 109.37 51.1205C108.997 50.2169 108.899 49.2225 109.089 48.2631C109.279 47.3037 109.748 46.4223 110.437 45.7305C111.126 45.0386 112.003 44.5674 112.959 44.3764C113.915 44.1854 114.905 44.2832 115.806 44.6575C116.706 45.0317 117.475 45.6656 118.017 46.4789C118.558 47.2921 118.847 48.2484 118.847 49.2265C118.846 50.5374 118.327 51.7942 117.404 52.7213C116.481 53.6484 115.229 54.1701 113.923 54.1718ZM113.923 45.6188C113.212 45.6188 112.516 45.8305 111.925 46.2273C111.333 46.6241 110.873 47.188 110.6 47.8478C110.328 48.5075 110.257 49.2335 110.396 49.9338C110.535 50.6341 110.878 51.2774 111.381 51.7821C111.884 52.2869 112.525 52.6306 113.223 52.7696C113.921 52.9086 114.644 52.8368 115.301 52.5633C115.958 52.2897 116.519 51.8267 116.914 51.2327C117.309 50.6388 117.52 49.9406 117.519 49.2265C117.518 48.2697 117.139 47.3524 116.465 46.676C115.79 45.9996 114.876 45.6193 113.923 45.6188Z" fill="white"/>
<path d="M144.812 111.533C144.764 111.532 144.716 111.527 144.669 111.518C144.583 111.5 144.502 111.465 144.43 111.415C144.358 111.365 144.296 111.301 144.249 111.227C144.202 111.152 144.17 111.069 144.155 110.983C144.14 110.896 144.143 110.807 144.163 110.721C144.214 110.55 144.216 110.368 144.171 110.195C144.125 110.023 144.033 109.866 143.904 109.742C141.318 107.129 125.934 109.203 115.661 111.331C115.17 111.438 114.857 111.5 114.756 111.52C114.583 111.555 114.404 111.52 114.257 111.423C114.11 111.325 114.008 111.173 113.972 111C113.937 110.826 113.972 110.646 114.069 110.499C114.167 110.351 114.318 110.248 114.491 110.213L115.05 110.094C119.577 109.087 124.023 107.739 128.349 106.062C134.968 103.471 143.543 99.0224 146.819 92.6076C147.338 91.5913 147.332 90.641 146.799 89.706C145.25 86.976 138.605 83.014 115.757 79.635C101.951 77.5936 88.6754 76.762 88.5439 76.7532C88.3681 76.7445 88.203 76.666 88.0848 76.535C87.9667 76.404 87.9052 76.2313 87.9139 76.0548C87.9226 75.8783 88.0008 75.7125 88.1313 75.5939C88.2618 75.4753 88.4339 75.4136 88.6097 75.4223C89.1422 75.4421 142.121 77.3604 156.288 69.4079C157.64 68.6489 158.261 67.868 158.155 67.0782C157.954 65.6747 155.436 62.6147 140.828 57.8982C132.369 55.1594 123.905 53.2147 123.822 53.1971C123.737 53.1776 123.656 53.1414 123.585 53.0907C123.514 53.04 123.453 52.9756 123.407 52.9014C123.36 52.8271 123.329 52.7444 123.314 52.6579C123.299 52.5715 123.302 52.4829 123.321 52.3974C123.341 52.3119 123.377 52.2311 123.427 52.1596C123.478 52.088 123.542 52.0272 123.616 51.9805C123.69 51.9338 123.772 51.9022 123.858 51.8875C123.944 51.8728 124.033 51.8753 124.118 51.8948C124.203 51.9146 132.717 53.8746 141.237 56.6223C153.071 60.4412 159.03 63.796 159.472 66.8824C159.672 68.2706 158.815 69.5091 156.939 70.565C150.836 73.9924 137.459 76.0647 117.186 76.751C113.147 76.8852 109.22 76.9468 105.637 76.971C108.898 77.3428 112.404 77.7872 115.937 78.3107C134.711 81.087 145.482 84.6903 147.95 89.0417C148.71 90.3814 148.728 91.7849 147.998 93.2214C144.336 100.404 134.834 105.186 126.918 108.057C134.31 107.059 142.607 106.548 144.842 108.807C145.127 109.088 145.334 109.439 145.442 109.825C145.55 110.211 145.554 110.619 145.456 111.007C145.425 111.156 145.344 111.289 145.227 111.385C145.11 111.481 144.963 111.533 144.812 111.533Z" fill="white"/>
<path d="M380.39 371.267H173.349C173.172 371.267 173.003 371.197 172.878 371.071C172.754 370.946 172.683 370.776 172.683 370.599C172.683 370.422 172.754 370.252 172.878 370.127C173.003 370.002 173.172 369.932 173.349 369.932H380.395C380.571 369.932 380.74 370.002 380.865 370.127C380.99 370.252 381.06 370.422 381.06 370.599C381.06 370.776 380.99 370.946 380.865 371.071C380.74 371.197 380.571 371.267 380.395 371.267H380.39Z" fill="white"/>
<path d="M117.916 186.751V219.969C117.916 220.658 118.189 221.319 118.674 221.806C119.159 222.293 119.818 222.567 120.504 222.567H163.075C163.762 222.567 164.42 222.841 164.905 223.328L175.998 234.466C176.361 234.829 176.822 235.076 177.324 235.176C177.826 235.276 178.347 235.224 178.82 235.028C179.293 234.831 179.697 234.498 179.982 234.07C180.266 233.643 180.418 233.141 180.418 232.627V225.167C180.418 224.826 180.485 224.487 180.616 224.172C180.746 223.856 180.937 223.57 181.177 223.328C181.418 223.087 181.703 222.895 182.017 222.765C182.332 222.634 182.669 222.567 183.009 222.567H186.923C187.609 222.567 188.268 222.293 188.753 221.806C189.239 221.319 189.512 220.658 189.513 219.969V186.751C189.513 186.409 189.446 186.071 189.316 185.756C189.186 185.44 188.995 185.154 188.754 184.912C188.514 184.671 188.228 184.479 187.914 184.349C187.6 184.218 187.263 184.151 186.923 184.151H120.504C119.818 184.151 119.159 184.425 118.674 184.913C118.189 185.401 117.916 186.062 117.916 186.751Z" fill="white"/>
<path d="M177.808 235.898C177.384 235.897 176.963 235.811 176.572 235.645C176.181 235.479 175.826 235.237 175.529 234.932L164.436 223.797C164.258 223.617 164.045 223.474 163.812 223.377C163.578 223.28 163.328 223.231 163.075 223.231H120.504C119.641 223.231 118.813 222.887 118.203 222.274C117.592 221.662 117.249 220.831 117.247 219.965V186.747C117.248 185.88 117.591 185.05 118.201 184.437C118.811 183.825 119.639 183.48 120.502 183.48H186.922C187.785 183.48 188.613 183.825 189.223 184.437C189.833 185.05 190.176 185.88 190.177 186.747V219.965C190.176 220.831 189.832 221.661 189.222 222.273C188.612 222.886 187.785 223.23 186.922 223.231H183.009C182.498 223.232 182.009 223.436 181.649 223.798C181.288 224.16 181.085 224.651 181.084 225.163V232.623C181.091 233.27 180.903 233.905 180.544 234.443C180.186 234.982 179.673 235.399 179.075 235.641C178.674 235.809 178.243 235.897 177.808 235.898ZM120.504 184.817C119.993 184.818 119.504 185.022 119.143 185.385C118.782 185.747 118.58 186.239 118.58 186.751V219.969C118.58 220.481 118.783 220.972 119.144 221.334C119.505 221.696 119.994 221.9 120.504 221.9H163.075C163.503 221.9 163.926 221.984 164.321 222.148C164.716 222.312 165.074 222.553 165.376 222.857L176.469 233.993C176.738 234.264 177.081 234.449 177.455 234.524C177.829 234.599 178.216 234.561 178.568 234.415C178.92 234.268 179.221 234.02 179.433 233.702C179.644 233.384 179.757 233.01 179.756 232.627V225.167C179.757 224.301 180.1 223.47 180.71 222.858C181.32 222.245 182.148 221.901 183.011 221.9H186.925C187.435 221.9 187.924 221.696 188.285 221.334C188.645 220.972 188.848 220.481 188.849 219.969V186.751C188.849 186.239 188.646 185.747 188.285 185.385C187.925 185.022 187.435 184.818 186.925 184.817H120.504Z" fill="#153D5E"/>
<path d="M137.238 207.982C139.782 207.982 141.844 205.912 141.844 203.358C141.844 200.804 139.782 198.734 137.238 198.734C134.694 198.734 132.632 200.804 132.632 203.358C132.632 205.912 134.694 207.982 137.238 207.982Z" fill="#48B2EB"/>
<path d="M153.713 207.982C156.257 207.982 158.32 205.912 158.32 203.358C158.32 200.804 156.257 198.734 153.713 198.734C151.169 198.734 149.107 200.804 149.107 203.358C149.107 205.912 151.169 207.982 153.713 207.982Z" fill="#48B2EB"/>
<path d="M170.191 207.982C172.735 207.982 174.797 205.912 174.797 203.358C174.797 200.804 172.735 198.734 170.191 198.734C167.647 198.734 165.584 200.804 165.584 203.358C165.584 205.912 167.647 207.982 170.191 207.982Z" fill="#48B2EB"/>
<path d="M215.718 46.4876L207.974 30.5364L219.696 41.3575L219.038 28.5169C219.038 28.5169 224.298 42.0548 224.497 41.6699C224.697 41.2849 240.335 27.45 240.335 27.45L230.063 42.0438L241.124 39.3908L227.962 46.6064L253.679 49.5124L228.091 50.5309L229.917 69.0758L223.491 53.3577L207.082 69.0538L219.393 50.3549L196.837 61.6974L215.718 46.4876Z" fill="white"/>
<path d="M229.917 69.7515C229.785 69.7522 229.656 69.7132 229.546 69.6395C229.437 69.5657 229.352 69.4607 229.303 69.3379L223.246 54.5218L207.535 69.5447C207.423 69.6795 207.262 69.764 207.088 69.7797C206.914 69.7954 206.74 69.7409 206.606 69.6283C206.472 69.5157 206.388 69.3542 206.372 69.1792C206.356 69.0043 206.411 68.8303 206.523 68.6956L217.463 52.069L197.126 62.294C197.053 62.3409 196.971 62.3729 196.886 62.3882C196.8 62.4035 196.713 62.4018 196.628 62.3831C196.543 62.3644 196.463 62.3291 196.392 62.2793C196.321 62.2295 196.26 62.166 196.213 62.0927C196.166 62.0193 196.135 61.9374 196.119 61.8516C196.104 61.7659 196.106 61.6779 196.124 61.5929C196.143 61.5078 196.178 61.4272 196.228 61.3558C196.277 61.2843 196.341 61.2234 196.414 61.1764L214.883 46.3032L207.369 30.8293C207.29 30.6895 207.265 30.5257 207.298 30.3685C207.331 30.2114 207.42 30.0717 207.548 29.9756C207.676 29.8795 207.835 29.8337 207.994 29.8467C208.154 29.8597 208.303 29.9306 208.414 30.0462L218.933 39.7696L218.355 28.5613C218.331 28.3961 218.371 28.2284 218.467 28.0917C218.562 27.955 218.705 27.8595 218.867 27.8244C219.03 27.7893 219.199 27.8171 219.342 27.9024C219.485 27.9877 219.59 28.1241 219.637 28.2841C221.203 32.3098 223.686 38.5486 224.629 40.6033C225.928 39.3736 229.557 36.0782 239.875 26.9642C239.991 26.8335 240.154 26.7545 240.328 26.7446C240.503 26.7347 240.674 26.7947 240.804 26.9114C240.934 27.0281 241.013 27.1919 241.022 27.3668C241.032 27.5417 240.973 27.7134 240.856 27.8441L231.619 40.9927L240.966 38.751C241.129 38.6883 241.31 38.6932 241.47 38.7645C241.629 38.8359 241.754 38.9679 241.816 39.1316C241.879 39.2953 241.874 39.4771 241.803 39.6372C241.732 39.7973 241.6 39.9224 241.437 39.9851L230.12 46.1976L253.749 48.8682C253.923 48.8746 254.088 48.9503 254.206 49.0786C254.325 49.2069 254.388 49.3773 254.382 49.5524C254.376 49.7274 254.3 49.8927 254.172 50.0119C254.045 50.1312 253.875 50.1945 253.7 50.1881L228.823 51.1715L230.576 69.0189C230.586 69.1115 230.577 69.2052 230.549 69.2938C230.52 69.3825 230.473 69.4641 230.411 69.5333C230.349 69.6025 230.273 69.6577 230.188 69.6953C230.103 69.7329 230.012 69.7521 229.919 69.7515H229.917ZM223.491 52.6982C223.538 52.6989 223.584 52.7041 223.629 52.7136C223.735 52.7362 223.834 52.7842 223.917 52.8536C224 52.9229 224.065 53.0115 224.107 53.1117L228.81 64.6192L227.432 50.5973C227.422 50.5068 227.432 50.4153 227.459 50.3286C227.487 50.2419 227.532 50.1619 227.591 50.0935C227.651 50.0264 227.724 49.9722 227.806 49.9344C227.887 49.8966 227.975 49.8758 228.065 49.8735L244.895 49.2136L227.883 47.2931C227.739 47.2828 227.602 47.2253 227.494 47.1294C227.386 47.0335 227.313 46.9046 227.285 46.7625C227.257 46.6204 227.276 46.473 227.34 46.3431C227.404 46.2132 227.508 46.1079 227.638 46.0436L236.43 41.2237L230.212 42.7152C230.08 42.7511 229.94 42.7446 229.812 42.6967C229.683 42.6488 229.573 42.5618 229.496 42.4479C229.42 42.334 229.38 42.1989 229.384 42.0615C229.387 41.924 229.433 41.7911 229.516 41.6812L236.504 31.7511C231.179 36.4808 225.507 41.5515 225.032 42.0904C224.966 42.1814 224.878 42.2547 224.778 42.3042C224.677 42.3536 224.565 42.3777 224.453 42.3742C223.903 42.35 223.818 42.3456 221.017 35.372C220.634 34.4195 220.255 33.4648 219.906 32.5892L220.36 41.3535C220.37 41.4872 220.34 41.621 220.273 41.737C220.206 41.853 220.105 41.9457 219.984 42.0028C219.863 42.0599 219.728 42.0787 219.596 42.0566C219.464 42.0345 219.342 41.9727 219.246 41.8792L210.11 33.4406L216.316 46.1976C216.384 46.3335 216.403 46.4887 216.37 46.637C216.337 46.7853 216.254 46.9176 216.135 47.0115L202.127 58.2968L219.095 49.7657C219.226 49.6926 219.378 49.6665 219.525 49.6916C219.673 49.7168 219.807 49.7917 219.907 49.904C220.006 50.0164 220.064 50.1594 220.072 50.3094C220.079 50.4595 220.035 50.6076 219.948 50.7293L210.869 64.5268L223.033 52.8895C223.155 52.7682 223.32 52.6995 223.491 52.6982Z" fill="white"/>
<path d="M381.618 237.533H381.539C375.641 236.833 369.359 230.293 366.924 222.323C363.812 212.133 367.161 201.838 376.108 194.077C379.24 191.36 383.585 190.533 387.421 189.805C394.566 188.457 401.91 188.576 409.009 190.157C411.857 190.795 414.669 191.675 417.395 192.528C421.34 193.756 425.398 195.027 429.52 195.553C435.77 196.351 443.916 195.097 448.021 189.189C448.283 188.809 448.526 188.416 448.748 188.012C446.23 187.674 443.766 187.013 441.416 186.045C438.604 184.881 436.044 183.146 434.21 181.159C432.052 178.821 430.886 176.141 430.835 173.409C430.799 171.474 431.319 169.569 432.331 167.922C433.344 166.275 434.808 164.956 436.547 164.121C438.286 163.286 440.228 162.971 442.141 163.214C444.054 163.456 445.857 164.246 447.335 165.49C450.068 167.788 451.645 171.555 452.022 176.685C452.312 180.609 451.882 184.023 450.747 186.883C458.417 187.46 466.361 185.11 472.273 180.185C472.409 180.072 472.584 180.018 472.76 180.034C472.935 180.051 473.097 180.136 473.209 180.273C473.322 180.409 473.376 180.584 473.359 180.761C473.343 180.937 473.257 181.099 473.122 181.212C466.826 186.456 458.327 188.911 450.168 188.17C449.857 188.786 449.503 189.38 449.11 189.948C444.666 196.345 435.99 197.72 429.354 196.875C425.116 196.334 420.989 195.045 417.001 193.795C414.299 192.95 411.505 192.077 408.719 191.452C401.797 189.912 394.636 189.794 387.668 191.107C383.997 191.806 379.838 192.596 376.978 195.08C372.354 199.088 369.308 203.673 367.941 208.699C366.771 213.042 366.86 217.63 368.195 221.925C370.483 229.422 376.288 235.564 381.696 236.202C381.871 236.212 382.034 236.292 382.15 236.423C382.266 236.554 382.325 236.726 382.314 236.901C382.304 237.077 382.225 237.24 382.094 237.357C381.963 237.473 381.792 237.532 381.618 237.522V237.533ZM440.809 164.497C439.534 164.49 438.274 164.768 437.12 165.311C434.142 166.741 432.102 170.054 432.163 173.369C432.229 176.968 434.828 181.859 441.922 184.809C444.307 185.788 446.814 186.439 449.373 186.745C450.543 184.006 450.992 180.666 450.707 176.779C450.357 172.023 448.939 168.569 446.491 166.51C444.887 165.2 442.877 164.491 440.809 164.506V164.497Z" fill="white"/>
<g opacity="0.4">
<path d="M274.809 222.612C276.602 219.256 275.341 215.072 271.993 213.267C268.644 211.462 264.476 212.72 262.683 216.076C260.89 219.432 262.151 223.616 265.5 225.421C268.848 227.226 273.016 225.968 274.809 222.612Z" fill="#EC246D"/>
<path d="M251.4 221.296C253.193 217.94 251.932 213.757 248.583 211.952C245.235 210.147 241.067 211.404 239.274 214.76C237.481 218.116 238.742 222.3 242.09 224.105C245.439 225.91 249.607 224.653 251.4 221.296Z" fill="#EC246D"/>
</g>
<path d="M245.538 90.544V88.8H237.362V100H239.442V95.712H244.85V93.952H239.442V90.544H245.538ZM250.643 100.112C253.299 100.112 255.203 98.288 255.203 95.728C255.203 93.168 253.299 91.36 250.643 91.36C248.019 91.36 246.099 93.168 246.099 95.728C246.099 98.288 248.019 100.112 250.643 100.112ZM250.643 98.4C249.203 98.4 248.115 97.36 248.115 95.728C248.115 94.096 249.203 93.056 250.643 93.056C252.099 93.056 253.187 94.096 253.187 95.728C253.187 97.36 252.099 98.4 250.643 98.4ZM256.795 100H258.795V88.128H256.795V100ZM261.1 100H263.1V88.128H261.1V100ZM269.245 100.112C271.901 100.112 273.805 98.288 273.805 95.728C273.805 93.168 271.901 91.36 269.245 91.36C266.621 91.36 264.701 93.168 264.701 95.728C264.701 98.288 266.621 100.112 269.245 100.112ZM269.245 98.4C267.805 98.4 266.717 97.36 266.717 95.728C266.717 94.096 267.805 93.056 269.245 93.056C270.701 93.056 271.789 94.096 271.789 95.728C271.789 97.36 270.701 98.4 269.245 98.4ZM286.716 91.456L284.396 97.792L282.092 91.456H280.412L278.06 97.76L275.804 91.456H273.916L277.052 100H278.972L281.212 94.112L283.42 100H285.34L288.492 91.456H286.716ZM298.225 98.112C297.921 98.352 297.521 98.464 297.105 98.464C296.337 98.464 295.921 98.016 295.921 97.184V93.12H298.209V91.52H295.921V89.568H293.921V91.52H292.513V93.12H293.921V97.232C293.921 99.12 294.993 100.112 296.865 100.112C297.585 100.112 298.305 99.92 298.785 99.536L298.225 98.112ZM304.958 91.36C303.774 91.36 302.766 91.744 302.11 92.448V88.128H300.11V100H302.11V95.68C302.11 93.968 303.07 93.104 304.494 93.104C305.774 93.104 306.526 93.84 306.526 95.36V100H308.526V95.104C308.526 92.528 307.006 91.36 304.958 91.36ZM318.853 95.776C318.853 93.104 317.029 91.36 314.533 91.36C311.989 91.36 310.117 93.184 310.117 95.728C310.117 98.272 311.973 100.112 314.837 100.112C316.309 100.112 317.509 99.632 318.277 98.72L317.205 97.488C316.597 98.112 315.845 98.416 314.885 98.416C313.397 98.416 312.357 97.616 312.117 96.368H318.821C318.837 96.176 318.853 95.936 318.853 95.776ZM314.533 92.96C315.845 92.96 316.789 93.808 316.949 95.04H312.101C312.293 93.792 313.237 92.96 314.533 92.96ZM249.401 122H257.337V120.24H251.481V110.8H249.401V122ZM266.422 117.776C266.422 115.104 264.597 113.36 262.101 113.36C259.557 113.36 257.685 115.184 257.685 117.728C257.685 120.272 259.541 122.112 262.405 122.112C263.877 122.112 265.077 121.632 265.845 120.72L264.773 119.488C264.165 120.112 263.413 120.416 262.453 120.416C260.965 120.416 259.925 119.616 259.685 118.368H266.389C266.405 118.176 266.422 117.936 266.422 117.776ZM262.101 114.96C263.413 114.96 264.357 115.808 264.517 117.04H259.669C259.861 115.792 260.805 114.96 262.101 114.96ZM271.052 113.36C269.676 113.36 268.348 113.712 267.436 114.416L268.22 115.872C268.86 115.344 269.852 115.024 270.812 115.024C272.236 115.024 272.94 115.712 272.94 116.88V117.008H270.732C268.14 117.008 267.18 118.128 267.18 119.552C267.18 121.04 268.412 122.112 270.364 122.112C271.644 122.112 272.572 121.696 273.052 120.96V122H274.94V116.992C274.94 114.528 273.516 113.36 271.052 113.36ZM270.78 120.656C269.756 120.656 269.148 120.192 269.148 119.472C269.148 118.848 269.516 118.336 270.876 118.336H272.94V119.328C272.604 120.208 271.756 120.656 270.78 120.656ZM283.633 110.128V114.512C282.961 113.728 281.985 113.36 280.881 113.36C278.401 113.36 276.561 115.072 276.561 117.728C276.561 120.384 278.401 122.112 280.881 122.112C282.049 122.112 283.041 121.712 283.713 120.896V122H285.633V110.128H283.633ZM281.121 120.4C279.681 120.4 278.577 119.36 278.577 117.728C278.577 116.096 279.681 115.056 281.121 115.056C282.561 115.056 283.665 116.096 283.665 117.728C283.665 119.36 282.561 120.4 281.121 120.4ZM295.962 117.776C295.962 115.104 294.138 113.36 291.642 113.36C289.098 113.36 287.226 115.184 287.226 117.728C287.226 120.272 289.082 122.112 291.946 122.112C293.418 122.112 294.618 121.632 295.386 120.72L294.314 119.488C293.706 120.112 292.954 120.416 291.994 120.416C290.506 120.416 289.466 119.616 289.226 118.368H295.93C295.946 118.176 295.962 117.936 295.962 117.776ZM291.642 114.96C292.954 114.96 293.898 115.808 294.058 117.04H289.21C289.402 115.792 290.346 114.96 291.642 114.96ZM299.467 114.704V113.456H297.563V122H299.563V117.856C299.563 116.112 300.523 115.216 302.043 115.216C302.187 115.216 302.331 115.232 302.507 115.264V113.36C301.083 113.36 300.043 113.808 299.467 114.704ZM304.089 118.288H305.673L306.073 110.8H303.705L304.089 118.288ZM304.889 122.112C305.625 122.112 306.153 121.552 306.153 120.864C306.153 120.176 305.625 119.632 304.889 119.632C304.137 119.632 303.593 120.176 303.593 120.864C303.593 121.552 304.137 122.112 304.889 122.112Z" fill="white"/>
</g>
<path d="M175.053 309.531C170.283 308.485 167.263 303.774 168.307 299.007C169.352 294.24 174.066 291.224 178.836 292.27C183.605 293.315 186.625 298.027 185.581 302.794C184.536 307.56 179.823 310.577 175.053 309.531Z" fill="#48B2EB"/>
<path d="M174.886 310.253C176.738 310.661 178.669 310.51 180.435 309.82C182.201 309.131 183.722 307.933 184.806 306.379C185.89 304.825 186.489 302.984 186.525 301.09C186.562 299.195 186.036 297.332 185.013 295.736C183.99 294.14 182.517 292.884 180.779 292.125C179.042 291.366 177.118 291.139 175.252 291.473C173.386 291.807 171.661 292.686 170.295 294C168.93 295.315 167.985 297.004 167.581 298.855C167.043 301.334 167.509 303.925 168.879 306.061C170.248 308.198 172.408 309.705 174.886 310.253ZM178.669 292.994C180.234 293.336 181.663 294.134 182.775 295.287C183.887 296.44 184.632 297.896 184.915 299.472C185.199 301.048 185.009 302.673 184.368 304.14C183.728 305.607 182.667 306.852 181.318 307.716C179.97 308.581 178.396 309.026 176.794 308.996C175.192 308.966 173.635 308.461 172.32 307.547C171.004 306.632 169.99 305.349 169.404 303.858C168.819 302.368 168.689 300.737 169.03 299.173C169.49 297.077 170.763 295.25 172.57 294.091C174.377 292.933 176.571 292.538 178.669 292.994Z" fill="#153D5E"/>
<path d="M146.255 379.464L150.495 360.116L138.241 356.713L133.849 376.755C133.376 378.912 135.768 381.269 139.207 382.023C142.621 382.761 145.782 381.621 146.255 379.464Z" fill="#FCC642"/>
<path d="M149.12 307.074L161.524 309.793L149.753 363.505L137.349 360.786L149.12 307.074Z" fill="#48B2EB"/>
<path d="M137.962 360.921L149.139 363.371C149.22 363.389 149.312 363.349 149.411 363.254C149.51 363.159 149.614 363.012 149.716 362.819C149.817 362.626 149.916 362.393 150.005 362.132C150.095 361.87 150.173 361.587 150.236 361.297L161.344 310.617C161.471 310.033 161.53 309.459 161.505 309.021C161.48 308.584 161.375 308.317 161.213 308.282L150.035 305.832C149.873 305.796 149.666 305.994 149.46 306.381C149.255 306.769 149.068 307.314 148.94 307.898L137.838 358.555C137.773 358.847 137.724 359.139 137.695 359.416C137.666 359.694 137.657 359.95 137.669 360.17C137.681 360.39 137.712 360.569 137.763 360.698C137.813 360.827 137.881 360.903 137.962 360.921ZM149.492 358.828L139.541 356.646L149.684 310.367L159.635 312.548L149.492 358.828Z" fill="#153D5E"/>
<path d="M178.397 301.227C177.743 304.204 176.004 306.831 173.518 308.595C171.032 310.36 167.977 311.136 164.949 310.772C128.389 306.412 99.2422 324.383 99.2422 324.383L116.186 247.073C116.186 247.073 135.144 275.59 170.175 286.924C173.079 287.861 175.529 289.845 177.049 292.49C178.569 295.134 179.049 298.249 178.397 301.227Z" fill="white"/>
<path d="M99.0824 325.099C99.2696 325.14 99.4652 325.106 99.6283 325.006C99.7011 324.962 107.009 320.498 118.662 316.625C129.398 313.053 146.131 309.256 164.86 311.5C168.072 311.889 171.314 311.068 173.953 309.197C176.591 307.325 178.437 304.538 179.129 301.379C179.821 298.22 179.311 294.917 177.697 292.113C176.083 289.309 173.482 287.207 170.401 286.217C152.436 280.407 138.812 269.953 130.549 262.207C121.596 253.817 116.846 246.732 116.801 246.661C116.72 246.54 116.605 246.446 116.471 246.389C116.336 246.333 116.188 246.317 116.045 246.344C115.902 246.37 115.77 246.439 115.665 246.54C115.56 246.641 115.487 246.771 115.456 246.913L98.514 324.216C98.483 324.358 98.4948 324.506 98.5477 324.642C98.6007 324.778 98.6925 324.895 98.8117 324.979C98.8924 325.038 98.9847 325.079 99.0824 325.099ZM116.551 248.867C120.443 254.05 124.789 258.877 129.536 263.29C137.911 271.139 151.719 281.733 169.944 287.64C172.673 288.518 174.977 290.38 176.406 292.864C177.836 295.348 178.288 298.274 177.674 301.072C177.061 303.87 175.427 306.339 173.09 307.997C170.753 309.655 167.881 310.383 165.035 310.039C146.013 307.77 129.04 311.617 118.148 315.252C111.99 317.275 106.025 319.842 100.322 322.921L116.551 248.867Z" fill="#153D5E"/>
<path d="M86.8894 281.167C82.6682 300.427 86.8943 318.31 96.4246 325.178C106.699 323.171 116.817 311.45 121.879 295.28C122.496 293.315 123.039 291.281 123.497 289.192C123.955 287.102 124.312 285.03 124.573 282.987C126.738 266.182 122.45 251.302 113.956 245.184C102.439 247.428 91.1116 261.901 86.8894 281.167Z" fill="white"/>
<path d="M96.2722 325.898C96.3714 325.92 96.474 325.921 96.5737 325.901C107.25 323.812 117.464 311.878 122.594 295.498C123.224 293.485 123.775 291.416 124.229 289.344C124.683 287.273 125.048 285.163 125.316 283.074C127.508 266.047 123.222 250.934 114.397 244.575C114.315 244.516 114.221 244.474 114.122 244.453C114.023 244.431 113.92 244.43 113.82 244.449C101.742 246.811 90.3634 261.84 86.1642 281C81.965 300.16 86.0092 318.573 95.9945 325.774C96.0776 325.834 96.1721 325.877 96.2722 325.898ZM113.787 245.98C117.706 248.921 120.732 253.856 122.552 260.284C124.442 266.96 124.893 274.781 123.844 282.885C123.583 284.928 123.224 286.997 122.779 289.027C122.335 291.056 121.796 293.083 121.178 295.053C118.733 302.862 115.06 309.779 110.551 315.042C106.21 320.129 101.397 323.338 96.6071 324.37C87.274 317.37 83.5791 299.737 87.6179 281.308C91.6568 262.879 102.385 248.422 113.789 245.97L113.787 245.98Z" fill="#153D5E"/>
<path d="M126.712 314.181C126.855 314.212 127.005 314.201 127.141 314.148C127.278 314.094 127.395 314.002 127.479 313.882C135.365 302.611 137.656 290.851 138.194 282.974C138.77 274.436 137.496 268.643 137.449 268.391C137.406 268.199 137.289 268.032 137.123 267.927C136.956 267.821 136.755 267.786 136.563 267.829C136.371 267.872 136.204 267.989 136.099 268.155C135.994 268.321 135.959 268.522 136.001 268.714C136.015 268.772 137.284 274.588 136.715 282.928C136.191 290.606 133.953 302.062 126.275 313.035C126.205 313.135 126.161 313.251 126.147 313.372C126.132 313.493 126.148 313.616 126.192 313.729C126.237 313.843 126.309 313.944 126.402 314.023C126.495 314.103 126.606 314.158 126.725 314.184L126.712 314.181Z" fill="#153D5E"/>
<path d="M103.549 284.818C103.372 285.626 103.355 286.46 103.501 287.273C103.646 288.087 103.95 288.864 104.396 289.56C104.842 290.256 105.421 290.858 106.1 291.33C106.778 291.803 107.543 292.137 108.351 292.315L121.889 295.282C122.506 293.317 123.049 291.283 123.507 289.194C123.965 287.104 124.322 285.032 124.583 282.989L111.045 280.021C110.238 279.844 109.403 279.827 108.589 279.972C107.775 280.117 106.998 280.421 106.302 280.867C105.606 281.312 105.004 281.891 104.532 282.569C104.059 283.247 103.725 284.011 103.549 284.818Z" fill="#153D5E"/>
<path d="M108.194 293.031L121.732 295.999C121.913 296.039 122.102 296.01 122.263 295.918C122.423 295.825 122.543 295.675 122.598 295.498C123.229 293.486 123.779 291.417 124.233 289.345C124.687 287.273 125.053 285.164 125.321 283.075C125.345 282.891 125.299 282.704 125.192 282.553C125.085 282.401 124.925 282.295 124.744 282.255L111.206 279.287C109.382 278.887 107.474 279.228 105.902 280.234C104.33 281.24 103.223 282.829 102.823 284.652C102.424 286.474 102.765 288.381 103.772 289.952C104.78 291.524 106.37 292.631 108.194 293.031ZM121.377 294.404L108.511 291.583C107.099 291.242 105.877 290.361 105.106 289.13C104.335 287.898 104.078 286.414 104.389 284.996C104.699 283.578 105.554 282.338 106.769 281.542C107.984 280.746 109.462 280.457 110.888 280.738L123.754 283.558C123.502 285.383 123.175 287.22 122.779 289.026C122.383 290.833 121.911 292.641 121.377 294.404Z" fill="#153D5E"/>
<path d="M108.137 292.26C104.739 291.515 102.588 288.159 103.332 284.764C104.076 281.368 107.434 279.219 110.832 279.964C114.23 280.709 116.381 284.066 115.637 287.461C114.892 290.856 111.535 293.005 108.137 292.26Z" fill="white"/>
<path d="M107.978 292.984C109.339 293.282 110.757 293.17 112.054 292.663C113.35 292.155 114.467 291.275 115.262 290.133C116.058 288.991 116.497 287.638 116.523 286.247C116.549 284.855 116.162 283.487 115.41 282.315C114.658 281.144 113.575 280.221 112.299 279.664C111.022 279.107 109.609 278.941 108.238 279.187C106.868 279.433 105.601 280.08 104.598 281.045C103.596 282.011 102.902 283.252 102.606 284.612C102.21 286.434 102.553 288.338 103.561 289.907C104.568 291.477 106.156 292.583 107.978 292.984ZM110.672 280.69C111.746 280.925 112.726 281.473 113.488 282.264C114.25 283.055 114.761 284.055 114.955 285.135C115.149 286.216 115.019 287.33 114.579 288.337C114.14 289.343 113.412 290.197 112.487 290.79C111.562 291.382 110.482 291.688 109.383 291.667C108.285 291.646 107.217 291.3 106.315 290.673C105.412 290.046 104.716 289.166 104.315 288.144C103.913 287.121 103.823 286.003 104.057 284.93C104.373 283.492 105.246 282.237 106.487 281.442C107.727 280.647 109.232 280.377 110.672 280.69Z" fill="#153D5E"/>
<path d="M136.27 312.209C136.414 312.241 136.564 312.229 136.702 312.175C136.839 312.121 136.957 312.027 137.04 311.905C143.306 302.776 145.217 293.026 145.716 286.453C146.258 279.328 145.334 274.423 145.295 274.217C145.249 274.035 145.136 273.876 144.977 273.774C144.819 273.672 144.627 273.634 144.442 273.667C144.256 273.701 144.09 273.805 143.978 273.956C143.866 274.108 143.817 274.297 143.839 274.484C143.875 274.678 147.441 294.12 135.823 311.061C135.711 311.223 135.669 311.423 135.705 311.616C135.741 311.81 135.852 311.981 136.014 312.093C136.091 312.147 136.178 312.186 136.27 312.209Z" fill="#153D5E"/>
<path d="M57.0969 296.24C57.2511 296.272 57.4111 296.253 57.554 296.187C57.6969 296.122 57.8151 296.012 57.8918 295.875C57.9684 295.738 57.9994 295.58 57.9803 295.424C57.9612 295.268 57.893 295.122 57.7855 295.007C52.251 289.066 43.042 284.854 30.4172 282.478C28.22 282.065 26.1134 281.748 24.1549 281.504C37.2731 280.531 58.3268 278.393 65.8624 274.249C67.3308 273.449 67.6067 272.343 67.5857 271.557C67.4769 267.593 59.038 260.927 41.7846 251.18C40.4137 250.404 39.0424 249.643 37.6886 248.899C49.0423 253.184 62.8955 257.273 74.3174 257.232C78.4109 257.219 81.075 255.923 82.2422 253.381C84.8149 247.772 79.1219 236.924 72.9016 227.615C80.7706 235.273 87.4444 239.337 92.7551 239.689C95.7117 239.891 98.2319 238.935 100.247 236.85C100.32 236.781 100.377 236.698 100.417 236.606C100.456 236.515 100.476 236.416 100.477 236.316C100.477 236.216 100.457 236.117 100.418 236.025C100.379 235.933 100.322 235.85 100.25 235.781C100.178 235.711 100.093 235.657 99.9997 235.622C99.9063 235.586 99.8067 235.57 99.7069 235.573C99.607 235.577 99.509 235.601 99.4186 235.643C99.3282 235.686 99.2474 235.746 99.1809 235.821C97.4593 237.601 95.3899 238.383 92.8551 238.219C84.1403 237.626 72.6567 225.814 65.9633 217.982C62.9886 214.111 60.7261 211.443 60.422 211.092C60.2997 210.938 60.1212 210.839 59.9257 210.816C59.7302 210.794 59.5337 210.85 59.3795 210.972C59.2254 211.094 59.126 211.272 59.1035 211.468C59.0809 211.663 59.1369 211.859 59.2592 212.013C59.2924 212.057 61.4212 214.948 64.7245 218.825C66.8955 221.65 69.4588 225.13 71.906 228.813C81.6765 243.502 82.1854 249.943 80.892 252.763C79.9758 254.73 77.7751 255.737 74.3103 255.748C55.9762 255.815 31.1418 244.999 21.0558 240.212C18.2688 238.821 16.54 238.002 16.4942 237.969C16.3195 237.889 16.1206 237.88 15.9394 237.944C15.7581 238.007 15.6087 238.139 15.5225 238.31C15.4364 238.482 15.4202 238.68 15.4774 238.864C15.5347 239.047 15.6608 239.201 15.8293 239.293C15.9049 239.334 17.5672 240.197 20.3566 241.524C25.1548 243.918 33.1312 247.999 41.0528 252.472C50.3513 257.73 65.9748 267.199 66.0934 271.598C66.1046 271.948 66.0162 272.47 65.1401 272.951C54.4162 278.827 13.4997 280.68 13.081 280.693C12.8868 280.701 12.7034 280.785 12.5705 280.926C12.4375 281.068 12.3655 281.256 12.3699 281.45C12.3743 281.644 12.4549 281.829 12.5942 281.965C12.7335 282.1 12.9204 282.176 13.1148 282.175C13.4208 282.176 43.9822 282.374 56.6771 296.01C56.7875 296.131 56.9352 296.212 57.0969 296.24Z" fill="white"/>
<defs>
<clipPath id="clip0_505_2004">
<rect width="452" height="420" fill="white" transform="translate(32)"/>
</clipPath>
</defs>
</svg>
