<svg width="22" height="22" viewBox="0 0 22 22" fill="none" xmlns="http://www.w3.org/2000/svg">
<path d="M16.7852 4.04805C16.5303 4.04805 16.281 4.12365 16.069 4.26531C15.857 4.40697 15.6918 4.60832 15.5942 4.84389C15.4966 5.07946 15.4711 5.33867 15.5208 5.58875C15.5706 5.83883 15.6933 6.06854 15.8736 6.24883C16.0539 6.42913 16.2837 6.55191 16.5337 6.60165C16.7838 6.6514 17.043 6.62586 17.2786 6.52829C17.5142 6.43071 17.7155 6.26547 17.8572 6.05347C17.9988 5.84146 18.0744 5.59222 18.0744 5.33724C18.0744 4.99533 17.9386 4.66741 17.6968 4.42564C17.4551 4.18388 17.1272 4.04805 16.7852 4.04805ZM11.0355 5.71111C9.96074 5.71111 8.91013 6.02979 8.01653 6.62688C7.12292 7.22397 6.42644 8.07263 6.01516 9.06555C5.60388 10.0585 5.49627 11.1511 5.70594 12.2051C5.91561 13.2592 6.43315 14.2274 7.1931 14.9874C7.95305 15.7473 8.92128 16.2649 9.97535 16.4745C11.0294 16.6842 12.122 16.5766 13.1149 16.1653C14.1079 15.754 14.9565 15.0576 15.5536 14.164C16.1507 13.2704 16.4694 12.2198 16.4694 11.145C16.4677 9.70439 15.8946 8.32323 14.8759 7.30454C13.8573 6.28585 12.4761 5.71281 11.0355 5.71111ZM11.0355 14.6194C10.3468 14.6194 9.67351 14.4151 9.10096 14.0323C8.5284 13.6496 8.08227 13.1055 7.81901 12.4691C7.55575 11.8327 7.48719 11.1325 7.62202 10.4571C7.75685 9.78175 8.08899 9.16155 8.57644 8.675C9.06388 8.18846 9.68471 7.85746 10.3603 7.72388C11.036 7.5903 11.7361 7.66014 12.372 7.92459C13.0079 8.18903 13.5511 8.63618 13.9328 9.20945C14.3145 9.78271 14.5175 10.4563 14.5163 11.145C14.5146 12.0671 14.1471 12.9508 13.4945 13.6022C12.8419 14.2536 11.9575 14.6194 11.0355 14.6194ZM21.9936 6.62643C21.9936 4.87456 21.2999 3.19396 20.0641 1.95219C18.8284 0.710411 17.1512 0.00852076 15.3994 0H6.62645C4.86901 0 3.18354 0.698138 1.94084 1.94083C0.698148 3.18353 0 4.86899 0 6.62643V15.3736C0 17.131 0.698148 18.8165 1.94084 20.0592C3.18354 21.3019 4.86901 22 6.62645 22H15.3994C17.1568 22 18.8422 21.3019 20.0849 20.0592C21.3276 18.8165 22.0258 17.131 22.0258 15.3736L21.9936 6.62643ZM19.9115 15.3736C19.9115 16.5805 19.4321 17.738 18.5786 18.5915C17.7252 19.4449 16.5676 19.9244 15.3607 19.9244H6.62645C5.41949 19.9244 4.26196 19.4449 3.40851 18.5915C2.55506 17.738 2.07559 16.5805 2.07559 15.3736V6.62643C2.07559 5.41947 2.55506 4.26195 3.40851 3.4085C4.26196 2.55506 5.41949 2.07558 6.62645 2.07558H15.3994C16.6063 2.07558 17.7639 2.55506 18.6173 3.4085C19.4707 4.26195 19.9502 5.41947 19.9502 6.62643L19.9115 15.3736Z" fill="#153D5E"/>
</svg>
