<svg width="53" height="53" viewBox="0 0 53 53" fill="none" xmlns="http://www.w3.org/2000/svg">
<g clip-path="url(#clip0_17_285)">
<path d="M26.2829 49.5073C39.0088 49.5073 49.3253 39.1908 49.3253 26.4649C49.3253 13.7389 39.0088 3.42249 26.2829 3.42249C13.5569 3.42249 3.24049 13.7389 3.24049 26.4649C3.24049 39.1908 13.5569 49.5073 26.2829 49.5073Z" fill="white"/>
<path d="M26.3119 52.9999C21.1071 53.0019 16.0186 51.46 11.6901 48.5696C7.36163 45.6791 3.98765 41.5699 1.99495 36.7616C0.00225838 31.9533 -0.519624 26.662 0.49532 21.5571C1.51026 16.4522 4.01644 11.763 7.69682 8.08258C11.3772 4.4022 16.0664 1.89604 21.1714 0.881093C26.2763 -0.133851 31.5675 0.388031 36.3758 2.38072C41.1841 4.37342 45.2934 7.74738 48.1839 12.0759C51.0743 16.4043 52.6161 21.4928 52.6142 26.6977C52.6039 33.6703 49.8295 40.3544 44.8991 45.2848C39.9687 50.2152 33.2845 52.9897 26.3119 52.9999ZM35.1796 16.0157C34.7958 16.0157 34.4206 16.1295 34.1015 16.3427C33.7824 16.5559 33.5337 16.859 33.3869 17.2135C33.24 17.5681 33.2016 17.9583 33.2764 18.3347C33.3513 18.7111 33.5361 19.0568 33.8075 19.3282C34.0789 19.5995 34.4246 19.7844 34.801 19.8592C35.1774 19.9341 35.5676 19.8957 35.9221 19.7488C36.2767 19.6019 36.5798 19.3532 36.793 19.0341C37.0062 18.715 37.12 18.3399 37.12 17.9561C37.12 17.7013 37.0698 17.449 36.9723 17.2135C36.8748 16.9781 36.7318 16.7642 36.5517 16.584C36.3715 16.4038 36.1576 16.2609 35.9221 16.1634C35.6867 16.0659 35.4344 16.0157 35.1796 16.0157ZM26.5253 18.5188C24.9077 18.5188 23.3264 18.9985 21.9814 19.8972C20.6364 20.7959 19.5881 22.0733 18.9691 23.5678C18.35 25.0622 18.1881 26.7067 18.5037 28.2932C18.8193 29.8798 19.5982 31.3371 20.742 32.481C21.8859 33.6248 23.3432 34.4037 24.9297 34.7193C26.5163 35.0349 28.1608 34.8729 29.6552 34.2539C31.1497 33.6349 32.4271 32.5866 33.3258 31.2416C34.2245 29.8966 34.7042 28.3153 34.7042 26.6977C34.7016 24.5293 33.8391 22.4504 32.3058 20.9172C30.7725 19.3839 28.6937 18.5214 26.5253 18.5188ZM26.5253 31.927C25.4887 31.927 24.4754 31.6195 23.6136 31.0434C22.7519 30.4673 22.0804 29.6485 21.6841 28.6906C21.2879 27.7327 21.1847 26.6788 21.3876 25.6623C21.5906 24.6457 22.0905 23.7122 22.8242 22.9799C23.5578 22.2476 24.4923 21.7494 25.5092 21.5483C26.5261 21.3473 27.5798 21.4524 28.537 21.8504C29.4941 22.2484 30.3117 22.9215 30.8862 23.7843C31.4607 24.6472 31.7664 25.661 31.7645 26.6977C31.7619 28.0855 31.2088 29.4156 30.2265 30.396C29.2443 31.3764 27.9132 31.927 26.5253 31.927ZM43.0188 19.8965C43.0188 17.2513 41.968 14.7145 40.0976 12.844C38.2272 10.9736 35.6903 9.92279 33.0451 9.92279H19.8891C17.2439 9.92279 14.7071 10.9736 12.8366 12.844C10.9662 14.7145 9.91542 17.2513 9.91542 19.8965V33.0622C9.91542 35.7074 10.9662 38.2442 12.8366 40.1147C14.7071 41.9851 17.2439 43.0359 19.8891 43.0359H33.0548C35.7 43.0359 38.2369 41.9851 40.1073 40.1147C41.9777 38.2442 43.0285 35.7074 43.0285 33.0622L43.0188 19.8965ZM39.8948 33.0622C39.8948 34.8788 39.1731 36.6211 37.8886 37.9056C36.604 39.1902 34.8618 39.9118 33.0451 39.9118H19.8891C18.0725 39.9118 16.3303 39.1902 15.0457 37.9056C13.7611 36.6211 13.0395 34.8788 13.0395 33.0622V19.8965C13.0356 18.9945 13.21 18.1007 13.5525 17.2663C13.895 16.4319 14.3989 15.6734 15.0354 15.0343C15.6718 14.3951 16.4282 13.888 17.2612 13.5419C18.0941 13.1959 18.9872 13.0177 19.8891 13.0178H33.0548C34.8715 13.0178 36.6137 13.7394 37.8983 15.024C39.1828 16.3085 39.9045 18.0508 39.9045 19.8674L39.8948 33.0622Z" fill="url(#paint0_linear_17_285)"/>
</g>
<defs>
<linearGradient id="paint0_linear_17_285" x1="5.05469" y1="44.792" x2="70.3204" y2="-10.7814" gradientUnits="userSpaceOnUse">
<stop stop-color="#FBE18A"/>
<stop offset="0.21" stop-color="#FCBB45"/>
<stop offset="0.38" stop-color="#F75274"/>
<stop offset="0.52" stop-color="#D53692"/>
<stop offset="0.74" stop-color="#8F39CE"/>
<stop offset="1" stop-color="#5B4FE9"/>
</linearGradient>
<clipPath id="clip0_17_285">
<rect width="52.6143" height="52.6143" fill="white" transform="translate(0 0.385742)"/>
</clipPath>
</defs>
</svg>
