<?xml version="1.0" standalone="no"?>
<!DOCTYPE svg PUBLIC "-//W3C//DTD SVG 20010904//EN"
 "http://www.w3.org/TR/2001/REC-SVG-20010904/DTD/svg10.dtd">
<svg version="1.0" xmlns="http://www.w3.org/2000/svg"
 width="1277.000000pt" height="768.000000pt" viewBox="0 0 1277.000000 768.000000"
 preserveAspectRatio="xMidYMid meet">

<g transform="translate(0.000000,768.000000) scale(0.100000,-0.100000)"
fill="#000000" stroke="none">
<path d="M10806 5061 c-4 -6 -11 -72 -16 -148 -37 -524 -169 -1035 -381 -1470
-43 -89 -117 -257 -164 -373 -511 -1256 -1020 -2121 -1519 -2579 -280 -258
-485 -352 -832 -381 -150 -13 -316 -2 -478 31 -307 62 -618 219 -1054 533
-100 72 -269 193 -374 269 -540 389 -935 568 -1433 652 -149 25 -143 23 -155
60 -6 19 -27 48 -45 64 -64 56 -147 50 -205 -15 -16 -19 -30 -39 -30 -43 0 -5
-132 -11 -293 -14 -292 -5 -421 -16 -634 -56 -51 -10 -93 -16 -93 -14 0 2 22
92 49 201 129 514 262 1220 415 2202 31 195 58 367 61 383 2 15 0 27 -5 27 -6
0 -9 -3 -8 -7 0 -5 -2 -15 -5 -23 -4 -8 -32 -175 -62 -370 -100 -638 -211
-1265 -296 -1670 -65 -314 -169 -747 -181 -755 -2 -1 -59 -16 -128 -34 -360
-94 -656 -263 -731 -420 -34 -70 -38 -206 -9 -286 30 -79 106 -158 170 -175
81 -22 167 -10 262 37 97 49 147 95 206 193 72 121 163 356 237 612 l16 56 92
17 c219 40 385 56 653 62 l271 6 7 -41 c12 -80 96 -142 172 -127 44 8 100 56
114 99 l11 33 87 -14 c329 -52 671 -168 946 -319 213 -118 360 -216 761 -509
482 -351 723 -491 1020 -589 169 -56 296 -78 490 -83 189 -5 381 16 505 57
374 123 762 502 1167 1139 286 449 613 1111 868 1757 48 120 120 287 160 369
224 457 354 950 396 1503 11 144 10 177 -5 153z m-7751 -3553 c-4 -18 -31
-106 -61 -195 -95 -290 -199 -490 -288 -555 -23 -17 -70 -44 -106 -61 -55 -26
-77 -31 -141 -32 -67 0 -81 3 -124 30 -126 78 -172 265 -100 410 56 116 257
251 505 340 73 26 297 94 313 95 5 0 5 -15 2 -32z"/>
<path d="M3620 4455 c0 -8 4 -15 10 -15 5 0 7 7 4 15 -4 8 -8 15 -10 15 -2 0
-4 -7 -4 -15z"/>
</g>
</svg>
