<svg width="23" height="21" viewBox="0 0 23 21" fill="none" xmlns="http://www.w3.org/2000/svg">
<path d="M23 12.8796V20.6562C23 20.7474 22.9621 20.8348 22.8946 20.8993C22.8272 20.9638 22.7357 21 22.6403 21H18.4447C18.3486 21 18.2563 20.964 18.1876 20.8998C18.1188 20.8355 18.0792 20.7481 18.0771 20.6562V13.4296C18.0771 11.5274 17.3659 10.2288 15.5837 10.2288C15.0288 10.2317 14.4884 10.3984 14.0364 10.706C13.5843 11.0137 13.2428 11.4473 13.0583 11.9476C12.9345 12.3175 12.8803 12.7055 12.8985 13.0935V20.6562C12.8964 20.7481 12.8568 20.8355 12.788 20.8998C12.7193 20.964 12.627 21 12.5309 21H8.33527C8.28775 21.001 8.2405 20.9928 8.19638 20.9759C8.15225 20.959 8.11217 20.9337 8.07856 20.9016C8.04494 20.8695 8.01849 20.8312 8.00081 20.789C7.98312 20.7468 7.97457 20.7016 7.97566 20.6562C7.97566 18.7311 8.02361 9.38847 7.97566 7.19604C7.9746 7.15026 7.98311 7.10472 8.00071 7.06213C8.0183 7.01954 8.04462 6.98075 8.07812 6.94802C8.11162 6.91528 8.15163 6.88928 8.19579 6.87153C8.23995 6.85378 8.28737 6.84464 8.33527 6.84465H12.5229C12.619 6.84463 12.7114 6.88059 12.7801 6.94485C12.8488 7.0091 12.8884 7.09653 12.8905 7.18839V8.85374V8.89958V8.85374C13.3352 8.11283 13.9836 7.50251 14.7656 7.08906C15.5475 6.67561 16.433 6.47483 17.3259 6.50852C20.5705 6.50852 22.992 8.53289 22.992 12.8796H23ZM0.687247 20.9694H4.88287C4.979 20.9694 5.07133 20.9335 5.14005 20.8692C5.20876 20.805 5.24841 20.7175 5.2505 20.6256V7.21896C5.24841 7.12709 5.20876 7.03967 5.14005 6.97541C5.07133 6.91115 4.979 6.87516 4.88287 6.87519H0.687247C0.591868 6.87519 0.500414 6.91141 0.432971 6.97587C0.365528 7.04034 0.327637 7.12779 0.327637 7.21896V20.6868C0.342787 20.767 0.387268 20.8394 0.453141 20.8912C0.519014 20.943 0.601977 20.9707 0.687247 20.9694Z" fill="#153D5E"/>
<path d="M2.63725 5.04183C4.09376 5.04183 5.2745 3.91318 5.2745 2.52092C5.2745 1.12865 4.09376 0 2.63725 0C1.18074 0 0 1.12865 0 2.52092C0 3.91318 1.18074 5.04183 2.63725 5.04183Z" fill="#153D5E"/>
</svg>
