<svg width="53" height="53" viewBox="0 0 53 53" fill="none" xmlns="http://www.w3.org/2000/svg">
<g clip-path="url(#clip0_17_284)">
<path d="M26.3022 53.0096C21.0982 53.0096 16.0111 51.4665 11.6841 48.5753C7.35712 45.6841 3.98464 41.5747 1.99315 36.7668C0.00166035 31.9589 -0.519397 26.6685 0.495855 21.5645C1.51111 16.4605 4.01707 11.7721 7.69687 8.09232C11.3767 4.41252 16.065 1.90659 21.169 0.891336C26.273 -0.123916 31.5635 0.397127 36.3714 2.38862C41.1793 4.38011 45.2886 7.75258 48.1798 12.0796C51.071 16.4065 52.6142 21.4937 52.6142 26.6977C52.6065 33.6737 49.8319 40.3618 44.8991 45.2946C39.9663 50.2274 33.2782 53.002 26.3022 53.0096Z" fill="#007AB9"/>
<path d="M41.1625 28.6964V38.526C41.16 38.6421 41.1121 38.7527 41.0291 38.8339C40.946 38.9151 40.8345 38.9606 40.7183 38.9605H35.6491C35.5329 38.9606 35.4214 38.9151 35.3384 38.8339C35.2553 38.7527 35.2074 38.6421 35.2049 38.526V29.3916C35.2049 26.9874 34.3456 25.3459 32.1923 25.3459C31.5219 25.3495 30.8689 25.5602 30.3228 25.9491C29.7766 26.338 29.3639 26.8861 29.1411 27.5184C28.9914 27.9859 28.926 28.4764 28.948 28.9668V38.526C28.9455 38.6421 28.8975 38.7527 28.8145 38.8339C28.7315 38.9151 28.62 38.9606 28.5038 38.9605H23.4345C23.3193 38.9605 23.2088 38.9147 23.1273 38.8332C23.0458 38.7517 23 38.6412 23 38.526C23 36.0928 23.058 24.2838 23 21.5126C22.9987 21.4547 23.009 21.3971 23.0303 21.3433C23.0516 21.2895 23.0833 21.2404 23.1238 21.199C23.1643 21.1577 23.2126 21.1248 23.266 21.1024C23.3194 21.0799 23.3767 21.0684 23.4345 21.0684H28.4942C28.552 21.0671 28.6096 21.0774 28.6634 21.0987C28.7172 21.1199 28.7663 21.1517 28.8077 21.1922C28.849 21.2327 28.8819 21.281 28.9043 21.3343C28.9268 21.3877 28.9383 21.445 28.9383 21.5029V23.6078V23.6658V23.6078C29.4755 22.6713 30.2591 21.8999 31.2038 21.3773C32.1486 20.8547 33.2185 20.6009 34.2973 20.6435C38.2175 20.6435 41.1529 23.2023 41.1529 28.6964H41.1625ZM14.194 38.9605H19.2633C19.3794 38.9606 19.4909 38.9151 19.574 38.8339C19.657 38.7527 19.7049 38.6421 19.7074 38.526V21.5029C19.7049 21.3868 19.657 21.2762 19.574 21.195C19.4909 21.1138 19.3794 21.0683 19.2633 21.0684H14.194C14.0787 21.0684 13.9682 21.1142 13.8867 21.1957C13.8052 21.2772 13.7595 21.3877 13.7595 21.5029V38.526C13.7594 38.5847 13.7713 38.6428 13.7943 38.6969C13.8173 38.7509 13.8511 38.7997 13.8935 38.8403C13.9359 38.8809 13.9861 38.9125 14.0411 38.9331C14.096 38.9538 14.1546 38.9631 14.2133 38.9605H14.194Z" fill="white"/>
<path d="M16.5789 18.7897C18.3388 18.7897 19.7654 17.3631 19.7654 15.6033C19.7654 13.8435 18.3388 12.4169 16.5789 12.4169C14.8191 12.4169 13.3925 13.8435 13.3925 15.6033C13.3925 17.3631 14.8191 18.7897 16.5789 18.7897Z" fill="white"/>
</g>
<defs>
<clipPath id="clip0_17_284">
<rect width="52.6143" height="52.6143" fill="white" transform="translate(0 0.385742)"/>
</clipPath>
</defs>
</svg>
