<svg width="246" height="289" viewBox="0 0 246 289" fill="none" xmlns="http://www.w3.org/2000/svg">
                    <path d="M-140.808 261.3L-138.606 259.986L-141.022 259.44L-204.34 245.15C-186.347 236.051 -168.991 227.28 -151.05 218.214L-149.624 217.494L-150.814 216.51L-194.992 179.982C-169.489 177.987 -144.793 176.058 -119.615 174.095L-118.36 173.997L-118.694 172.772L-133.661 117.745L-68.0468 138.607L-66.9639 138.951L-66.7472 137.784L-53.9538 68.8942L-8.61145 114.023L-7.71208 114.918L-7.05886 113.757L31.4942 45.2306L43.7595 98.2262L44.0744 99.587L45.2432 98.7846L102.514 59.465L80.8385 112.05L79.9095 114.304L82.1001 113.336C107.986 101.902 133.439 90.6588 158.778 79.4655L184.137 68.2637L116.689 146.573L115.008 148.525L117.485 148.231C145.874 144.864 173.466 141.595 201.038 138.329L135.228 186.071L133.835 187.082L135.316 187.807L192.379 215.753C171.769 223.383 151.547 230.873 131.269 238.384C124.177 241.011 117.078 243.64 109.953 246.279L108.775 246.716L109.398 247.78L138.449 297.431L65.3067 293.842L64.2222 293.788L64.2284 294.905L64.606 362.648L0.705503 314.934L-0.186668 314.268L-0.752208 315.295L-37.4583 381.921L-54.6066 312.229L-55.0384 310.474L-56.2754 311.849C-67.9006 324.772 -79.3682 337.528 -90.8941 350.349C-97.8881 358.128 -104.904 365.932 -111.989 373.811L-109.133 318.847L-109.045 317.162L-110.534 317.94C-120.525 323.164 -130.419 328.339 -140.261 333.487C-152.731 340.01 -165.118 346.489 -177.511 352.967L-132.441 294.688L-130.72 292.462L-133.385 293.094C-139.299 294.496 -145.188 295.893 -151.055 297.284C-179.058 303.924 -206.569 310.447 -234.056 316.962C-214.95 305.56 -195.837 294.15 -176.558 282.641C-164.716 275.572 -152.812 268.465 -140.808 261.3Z" stroke="#ffffff" stroke-width="2"></path>
                </svg>