<svg width="32" height="31" viewBox="0 0 32 31" fill="none" xmlns="http://www.w3.org/2000/svg">
<path d="M21.625 25.8867C22.2109 25.3594 22.2109 24.4805 21.625 23.8945L20.9805 23.25C20.4531 22.7227 19.5156 22.7227 18.9883 23.3086L17.6406 24.832V17.3906H25.0234L23.5 18.7969C22.9141 19.3242 22.9141 20.2617 23.4414 20.7891L24.0859 21.4336C24.6719 22.0195 25.5508 22.0195 26.0781 21.4336L30.4141 17.0977C31.1758 16.3945 31.1758 15.1641 30.4141 14.4609L26.0781 10.125C25.5508 9.53906 24.6719 9.53906 24.0859 10.125L23.4414 10.7695C22.9141 11.2969 22.9141 12.2344 23.5 12.7617L25.0234 14.1094H17.6406V6.72656L18.9883 8.25C19.5156 8.83594 20.4531 8.83594 20.9805 8.30859L21.625 7.66406C22.2109 7.07812 22.2109 6.19922 21.625 5.67188L17.2891 1.33594C16.5859 0.574219 15.3555 0.574219 14.6523 1.33594L10.3164 5.67188C9.73047 6.19922 9.73047 7.07812 10.3164 7.66406L10.9609 8.30859C11.4883 8.83594 12.4258 8.83594 12.9531 8.25L14.3594 6.72656V14.1094H6.91797L8.44141 12.7617C9.02734 12.2344 9.02734 11.2969 8.5 10.7695L7.85547 10.125C7.26953 9.53906 6.39062 9.53906 5.86328 10.125L1.52734 14.4609C0.765625 15.1641 0.765625 16.3945 1.52734 17.0977L5.86328 21.4336C6.39062 22.0195 7.26953 22.0195 7.85547 21.4336L8.5 20.7891C9.02734 20.2617 9.02734 19.3242 8.44141 18.7969L6.91797 17.3906H14.3594V24.832L12.9531 23.3086C12.4258 22.7227 11.4883 22.7227 10.9609 23.25L10.3164 23.8945C9.73047 24.4805 9.73047 25.3594 10.3164 25.8867L14.6523 30.2227C15.3555 30.9844 16.5859 30.9844 17.2891 30.2227L21.625 25.8867Z" fill="white"/>
</svg>
