<svg width="34" height="27" viewBox="0 0 34 27" fill="none" xmlns="http://www.w3.org/2000/svg">
<path d="M31.0625 0.625H2.9375C1.35547 0.625 0.125 1.91406 0.125 3.4375V24.0625C0.125 25.6445 1.35547 26.875 2.9375 26.875H31.0625C32.5859 26.875 33.875 25.6445 33.875 24.0625V3.4375C33.875 1.91406 32.5859 0.625 31.0625 0.625ZM10.4375 6.25C12.4883 6.25 14.1875 7.94922 14.1875 10C14.1875 12.1094 12.4883 13.75 10.4375 13.75C8.32812 13.75 6.6875 12.1094 6.6875 10C6.6875 7.94922 8.32812 6.25 10.4375 6.25ZM17 20.1367C17 20.7812 16.4141 21.25 15.6523 21.25H5.16406C4.46094 21.25 3.875 20.7812 3.875 20.1367V19.0234C3.875 17.1484 5.63281 15.625 7.80078 15.625H8.09375C8.79688 15.9766 9.55859 16.0938 10.4375 16.0938C11.2578 16.0938 12.0195 15.9766 12.7227 15.625H13.0156C15.1836 15.625 17 17.1484 17 19.0234V20.1367ZM30.125 17.0312C30.125 17.3242 29.8906 17.5 29.6562 17.5H21.2188C20.9258 17.5 20.75 17.3242 20.75 17.0312V16.0938C20.75 15.8594 20.9258 15.625 21.2188 15.625H29.6562C29.8906 15.625 30.125 15.8594 30.125 16.0938V17.0312ZM30.125 13.2812C30.125 13.5742 29.8906 13.75 29.6562 13.75H21.2188C20.9258 13.75 20.75 13.5742 20.75 13.2812V12.3438C20.75 12.1094 20.9258 11.875 21.2188 11.875H29.6562C29.8906 11.875 30.125 12.1094 30.125 12.3438V13.2812ZM30.125 9.53125C30.125 9.82422 29.8906 10 29.6562 10H21.2188C20.9258 10 20.75 9.82422 20.75 9.53125V8.59375C20.75 8.35938 20.9258 8.125 21.2188 8.125H29.6562C29.8906 8.125 30.125 8.35938 30.125 8.59375V9.53125Z" fill="white"/>
</svg>
