<svg xmlns="http://www.w3.org/2000/svg" viewBox="0 0 34 34"><defs><style>.a{fill:#ff6262;}.b{fill:#ff4040;}.c{fill:#e31c1c;}</style></defs><title>platform</title><path class="a" d="M31.23,24.79,18.9,31.9a.73.73,0,0,1-.73,0L2.77,23a.73.73,0,0,1,0-1.27L15.1,14.62a.73.73,0,0,1,.73,0l15.4,8.89A.74.74,0,0,1,31.23,24.79Z"/><path class="b" d="M31.23,18.52,18.9,25.64a.73.73,0,0,1-.73,0L2.77,16.75a.73.73,0,0,1,0-1.27L15.1,8.36a.73.73,0,0,1,.73,0l15.4,8.89A.73.73,0,0,1,31.23,18.52Z"/><path class="c" d="M31.23,12.26,18.9,19.38a.73.73,0,0,1-.73,0L2.77,10.49a.74.74,0,0,1,0-1.28L15.1,2.1a.73.73,0,0,1,.73,0L31.23,11A.73.73,0,0,1,31.23,12.26Z"/></svg>