<svg width="42" height="42" viewBox="0 0 42 42" fill="none" xmlns="http://www.w3.org/2000/svg">
<path d="M18.2636 0L0 41.1149H22.8576L41.0233 0H18.2636Z" fill="#F3F2F0"/>
<path d="M26.8125 25.3438C24.2812 20.375 19.2188 17 13.5 17C7.73438 17 2.67188 20.375 0.140625 25.3438C0.046875 25.5312 0 25.7656 0 26C0 26.2812 0.046875 26.5156 0.140625 26.7031C2.67188 31.6719 7.73438 35 13.5 35C19.2188 35 24.2812 31.6719 26.8125 26.7031C26.9062 26.5156 26.9531 26.2812 26.9531 26.0469C26.9531 25.7656 26.9062 25.5312 26.8125 25.3438ZM13.5 32.75C9.75 32.75 6.75 29.75 6.75 26C6.75 22.2969 9.75 19.25 13.5 19.25C17.2031 19.25 20.25 22.2969 20.25 26V26.0469C20.25 29.75 17.2031 32.7969 13.5 32.7969V32.75ZM13.5 21.5C13.0781 21.5469 12.6562 21.5938 12.2812 21.6875C12.5625 22.0625 12.7031 22.5312 12.7031 23.0469C12.7031 24.2656 11.7188 25.25 10.5 25.25C9.98438 25.25 9.51562 25.1094 9.14062 24.8281C9.04688 25.2031 9 25.625 9 26C9 28.4844 11.0156 30.5 13.5 30.5C15.9844 30.5 18 28.4844 18 26C18 23.5156 15.9844 21.5469 13.5 21.5469V21.5Z" fill="#569A86"/>
</svg>
