<svg width="42" height="42" viewBox="0 0 42 42" fill="none" xmlns="http://www.w3.org/2000/svg">
<path d="M18.2636 0L0 41.1149H22.8576L41.0233 0H18.2636Z" fill="#F3F2F0"/>
<path d="M0 32.0767V34.0454C0 35.7329 4.03125 37.0454 9 37.0454C13.9688 37.0454 18 35.7329 18 34.0454V32.0767C16.0312 33.436 12.5156 34.0454 9 34.0454C5.4375 34.0454 1.92188 33.436 0 32.0767ZM15 19.0454C19.9688 19.0454 24 17.7329 24 16.0454C24 14.4048 19.9688 13.0454 15 13.0454C10.0312 13.0454 6 14.4048 6 16.0454C6 17.7329 10.0312 19.0454 15 19.0454ZM0 27.1548V29.5454C0 31.2329 4.03125 32.5454 9 32.5454C13.9688 32.5454 18 31.2329 18 29.5454V27.1548C16.0312 28.7485 12.5156 29.5454 9 29.5454C5.4375 29.5454 1.92188 28.7485 0 27.1548ZM19.5 27.6704C22.1719 27.1548 24 26.1704 24 25.0454V23.0767C22.875 23.8267 21.2812 24.3423 19.5 24.6704V27.6704ZM9 20.5454C4.03125 20.5454 0 22.2329 0 24.2954C0 26.4048 4.03125 28.0454 9 28.0454C13.9688 28.0454 18 26.4048 18 24.2954C18 22.2329 13.9688 20.5454 9 20.5454ZM19.2656 23.2173C22.0781 22.7017 24 21.7173 24 20.5454V18.5767C22.3125 19.7485 19.4531 20.3579 16.4531 20.5454C17.8125 21.2017 18.8438 22.0923 19.2656 23.2173Z" fill="#FCC642"/>
</svg>
