<svg width="42" height="42" viewBox="0 0 42 42" fill="none" xmlns="http://www.w3.org/2000/svg">
<path d="M18.2636 0L0 41.1149H22.8576L41.0233 0H18.2636Z" fill="#F3F2F0"/>
<path d="M4.5 22.5C6.14062 22.5 7.5 21.1875 7.5 19.5C7.5 17.8594 6.14062 16.5 4.5 16.5C2.8125 16.5 1.5 17.8594 1.5 19.5C1.5 21.1875 2.8125 22.5 4.5 22.5ZM25.5 22.5C27.1406 22.5 28.5 21.1875 28.5 19.5C28.5 17.8594 27.1406 16.5 25.5 16.5C23.8125 16.5 22.5 17.8594 22.5 19.5C22.5 21.1875 23.8125 22.5 25.5 22.5ZM27 24H24C23.1562 24 22.4062 24.375 21.8438 24.8906C23.7656 25.9219 25.0781 27.7969 25.4062 30H28.5C29.2969 30 30 29.3438 30 28.5V27C30 25.3594 28.6406 24 27 24ZM15 24C17.8594 24 20.25 21.6562 20.25 18.75C20.25 15.8906 17.8594 13.5 15 13.5C12.0938 13.5 9.75 15.8906 9.75 18.75C9.75 21.6562 12.0938 24 15 24ZM18.5625 25.5H18.1875C17.2031 25.9688 16.125 26.25 15 26.25C13.8281 26.25 12.75 25.9688 11.7656 25.5H11.3906C8.39062 25.5 6 27.9375 6 30.9375V32.25C6 33.5156 6.98438 34.5 8.25 34.5H21.75C22.9688 34.5 24 33.5156 24 32.25V30.9375C24 27.9375 21.5625 25.5 18.5625 25.5ZM8.10938 24.8906C7.54688 24.375 6.79688 24 6 24H3C1.3125 24 0 25.3594 0 27V28.5C0 29.3438 0.65625 30 1.5 30H4.54688C4.875 27.7969 6.1875 25.9219 8.10938 24.8906Z" fill="#8965AD"/>
</svg>
