<svg width="30" height="30" viewBox="0 0 30 30" fill="none" xmlns="http://www.w3.org/2000/svg">
<path d="M21.6797 7.60156L19.2188 10.0625C18.3398 10.9414 18.9844 12.4062 20.2148 12.4062H28.125C28.8867 12.4062 29.5312 11.8203 29.5312 11V3.14844C29.5312 1.91797 28.0078 1.27344 27.1289 2.15234L25.0195 4.26172C22.3828 1.80078 18.8672 0.21875 15 0.21875C7.85156 0.21875 1.93359 5.31641 0.703125 12.0547C0.585938 12.5234 0.9375 12.875 1.40625 12.875H4.74609C5.03906 12.875 5.33203 12.6992 5.44922 12.3477C6.50391 8.07031 10.4297 4.96484 14.9414 4.90625C17.4609 4.90625 19.8633 5.90234 21.6797 7.60156ZM1.875 17.0938C1.05469 17.0938 0.46875 17.7383 0.46875 18.5V26.4102C0.46875 27.6406 1.93359 28.2852 2.8125 27.4062L4.92188 25.2969C7.55859 27.7578 11.0742 29.2812 15 29.2812C22.0898 29.2812 28.0078 24.2422 29.2383 17.5039C29.3555 17.0352 29.0039 16.6836 28.5352 16.6836H25.1953C24.9023 16.6836 24.6094 16.8594 24.4922 17.2109C23.4375 21.4883 19.5117 24.5938 15 24.6523C12.4805 24.6523 10.0781 23.6562 8.26172 21.957L10.7227 19.4961C11.6016 18.6172 10.957 17.0938 9.72656 17.0938H1.875Z" fill="white"/>
</svg>
