<svg width="30" height="27" viewBox="0 0 30 27" fill="none" xmlns="http://www.w3.org/2000/svg">
<path d="M28.125 8.125C29.1211 8.125 30 7.30469 30 6.25V2.5C30 1.50391 29.1211 0.625 28.125 0.625H1.875C0.820312 0.625 0 1.50391 0 2.5V6.25C0 7.30469 0.820312 8.125 1.875 8.125H28.125ZM25.3125 2.96875C26.0742 2.96875 26.7188 3.61328 26.7188 4.375C26.7188 5.19531 26.0742 5.78125 25.3125 5.78125C24.4922 5.78125 23.9062 5.19531 23.9062 4.375C23.9062 3.61328 24.4922 2.96875 25.3125 2.96875ZM21.5625 2.96875C22.3242 2.96875 22.9688 3.61328 22.9688 4.375C22.9688 5.19531 22.3242 5.78125 21.5625 5.78125C20.7422 5.78125 20.1562 5.19531 20.1562 4.375C20.1562 3.61328 20.7422 2.96875 21.5625 2.96875ZM28.125 17.5C29.1211 17.5 30 16.6797 30 15.625V11.875C30 10.8789 29.1211 10 28.125 10H1.875C0.820312 10 0 10.8789 0 11.875V15.625C0 16.6797 0.820312 17.5 1.875 17.5H28.125ZM25.3125 12.3438C26.0742 12.3438 26.7188 12.9883 26.7188 13.75C26.7188 14.5703 26.0742 15.1562 25.3125 15.1562C24.4922 15.1562 23.9062 14.5703 23.9062 13.75C23.9062 12.9883 24.4922 12.3438 25.3125 12.3438ZM21.5625 12.3438C22.3242 12.3438 22.9688 12.9883 22.9688 13.75C22.9688 14.5703 22.3242 15.1562 21.5625 15.1562C20.7422 15.1562 20.1562 14.5703 20.1562 13.75C20.1562 12.9883 20.7422 12.3438 21.5625 12.3438ZM28.125 26.875C29.1211 26.875 30 26.0547 30 25V21.25C30 20.2539 29.1211 19.375 28.125 19.375H1.875C0.820312 19.375 0 20.2539 0 21.25V25C0 26.0547 0.820312 26.875 1.875 26.875H28.125ZM25.3125 21.7188C26.0742 21.7188 26.7188 22.3633 26.7188 23.125C26.7188 23.9453 26.0742 24.5312 25.3125 24.5312C24.4922 24.5312 23.9062 23.9453 23.9062 23.125C23.9062 22.3633 24.4922 21.7188 25.3125 21.7188ZM21.5625 21.7188C22.3242 21.7188 22.9688 22.3633 22.9688 23.125C22.9688 23.9453 22.3242 24.5312 21.5625 24.5312C20.7422 24.5312 20.1562 23.9453 20.1562 23.125C20.1562 22.3633 20.7422 21.7188 21.5625 21.7188Z" fill="white"/>
</svg>
