                <svg width="225" height="445" viewBox="0 0 225 445" fill="none" xmlns="http://www.w3.org/2000/svg">
                    <circle r="33.2405" transform="matrix(-1 0 0 1 12.3884 221.881)" fill="white"></circle>
                    <circle r="25.5034" transform="matrix(-1 0 0 1 12.0005 221.708)" stroke="#fcaeae" stroke-width="51" stroke-dasharray="3 3"></circle>
                    <path d="M-161.89 260.984L-159.688 259.67L-162.104 259.124L-225.422 244.834C-207.429 235.735 -190.073 226.964 -172.132 217.899L-170.706 217.178L-171.896 216.194L-216.074 179.666C-190.571 177.671 -165.875 175.742 -140.697 173.779L-139.442 173.681L-139.776 172.456L-154.743 117.43L-89.1288 138.291L-88.046 138.636L-87.8292 137.469L-75.0359 68.5783L-29.6935 113.707L-28.7941 114.602L-28.1409 113.441L10.4121 44.9147L22.6775 97.9103L22.9924 99.2711L24.1611 98.4687L81.4324 59.1491L59.7564 111.734L58.8275 113.988L61.0181 113.02C86.9036 101.587 112.357 90.3429 137.696 79.1496L163.055 67.9477L95.6066 146.258L93.926 148.209L96.4026 147.915C124.792 144.548 152.384 141.279 179.956 138.013L114.146 185.755L112.753 186.766L114.234 187.491L171.297 215.437C150.687 223.067 130.465 230.557 110.187 238.068C103.095 240.695 95.9958 243.325 88.871 245.963L87.6934 246.4L88.3163 247.464L117.367 297.115L44.2246 293.526L43.1401 293.472L43.1464 294.589L43.524 362.332L-20.3765 314.618L-21.2687 313.952L-21.8342 314.979L-58.5403 381.605L-75.6887 311.913L-76.1204 310.158L-77.3575 311.533C-88.9826 324.456 -100.45 337.212 -111.976 350.033C-118.97 357.812 -125.986 365.616 -133.071 373.495L-130.215 318.531L-130.127 316.846L-131.616 317.624C-141.607 322.848 -151.501 328.023 -161.343 333.171C-173.813 339.694 -186.2 346.173 -198.593 352.651L-153.523 294.372L-151.802 292.146L-154.467 292.778C-160.381 294.181 -166.27 295.577 -172.137 296.968C-200.14 303.608 -227.651 310.132 -255.138 316.646C-236.032 305.244 -216.919 293.834 -197.64 282.325C-185.798 275.256 -173.894 268.149 -161.89 260.984Z" stroke="white" stroke-width="2"></path>
                </svg>
           