<svg width="27" height="31" viewBox="0 0 27 31" fill="none" xmlns="http://www.w3.org/2000/svg">
<path d="M19.125 27H9.28125C7.46484 27 6 25.5352 6 23.7188V6.375H1.78125C0.960938 6.375 0.375 7.01953 0.375 7.78125V29.3438C0.375 30.1641 0.960938 30.75 1.78125 30.75H17.7188C18.4805 30.75 19.125 30.1641 19.125 29.3438V27ZM19.125 6.84375V0.75H9.28125C8.46094 0.75 7.875 1.39453 7.875 2.15625V23.7188C7.875 24.5391 8.46094 25.125 9.28125 25.125H25.2188C25.9805 25.125 26.625 24.5391 26.625 23.7188V8.25H20.5312C19.7109 8.25 19.125 7.66406 19.125 6.84375ZM26.1562 5.02734L22.3477 1.21875C22.0547 0.925781 21.7031 0.75 21.3516 0.75H21V6.375H26.625V6.02344C26.625 5.67188 26.4492 5.32031 26.1562 5.02734Z" fill="white"/>
</svg>
