<svg width="74" height="75" viewBox="0 0 74 75" fill="none" xmlns="http://www.w3.org/2000/svg">
<path d="M14.2031 45.4472C13.9351 45.192 13.7523 44.8604 13.6798 44.4978C13.6338 44.2699 13.6337 44.0352 13.6794 43.8074C13.7252 43.5796 13.816 43.3633 13.9464 43.1711C14.0768 42.979 14.2444 42.8149 14.4391 42.6883C14.6339 42.5618 14.852 42.4754 15.0807 42.4342L70.8177 31.8523C71.2774 31.7649 71.7533 31.8636 72.1408 32.1269C72.5282 32.3902 72.7955 32.7965 72.8837 33.2563C72.9719 33.7162 72.8739 34.1919 72.6112 34.5789C72.3484 34.9659 71.9426 35.2325 71.4829 35.32L15.7459 45.9018C15.4713 45.955 15.1879 45.9414 14.9194 45.8623C14.651 45.7832 14.4053 45.6408 14.2031 45.4472Z" fill="#ff4040"/>
<path d="M16.8243 56.5942C16.5103 56.3238 16.2985 55.9543 16.2256 55.5502C16.1528 55.1461 16.2236 54.7329 16.4256 54.3824C16.6277 54.032 16.9483 53.7666 17.3315 53.6323C17.7148 53.498 18.1365 53.5035 18.5233 53.6476L43.4984 61.7396C43.9476 61.8852 44.325 62.2016 44.5476 62.6191C44.7702 63.0367 44.8198 63.5213 44.6854 63.9663C44.5509 64.4113 44.2436 64.7802 43.8309 64.9919C43.4183 65.2036 42.934 65.2407 42.4848 65.0952L17.5098 57.0032C17.2549 56.9187 17.0208 56.779 16.8243 56.5942Z" fill="#ff4040"/>
<path d="M8.59943 34.3774C8.5057 34.2871 8.42195 34.1868 8.34956 34.0782C8.22861 33.8933 8.14675 33.6844 8.10879 33.4636C8.07083 33.2429 8.07756 33.0149 8.12851 32.7928C8.17945 32.5707 8.27363 32.359 8.40554 32.1701C8.53746 31.9812 8.70444 31.8189 8.89676 31.6927L31.8831 16.2359C32.2677 15.9777 32.7321 15.8787 33.1741 15.9608C33.6161 16.0429 33.9995 16.2993 34.24 16.6737C34.4805 17.0481 34.5584 17.5097 34.4566 17.957C34.3547 18.4044 34.0814 18.8007 33.6968 19.059L10.7105 34.5158C10.3847 34.7383 9.99782 34.8459 9.6139 34.8207C9.22997 34.7956 8.87208 34.6392 8.59943 34.3774Z" fill="#ff4040"/>
</svg>
