<svg width="73" height="73" viewBox="0 0 73 73" fill="none" xmlns="http://www.w3.org/2000/svg">
<path d="M58.2756 28.6711C58.5387 28.9212 58.7301 29.2336 58.8237 29.5655C58.883 29.7741 58.901 29.9853 58.8768 30.1868C58.8527 30.3882 58.7867 30.576 58.6828 30.7389C58.579 30.9019 58.4393 31.0368 58.2719 31.1358C58.1046 31.2347 57.9129 31.2958 57.7082 31.3154L7.8598 36.5785C7.44865 36.6221 7.00855 36.4968 6.63629 36.2303C6.26403 35.9638 5.9901 35.5777 5.8748 35.1572C5.75949 34.7367 5.81223 34.3161 6.02143 33.9879C6.23062 33.6597 6.5791 33.4509 6.99026 33.4073L56.8387 28.1442C57.0842 28.1173 57.3428 28.1512 57.5928 28.2429C57.8429 28.3346 58.0771 28.4814 58.2756 28.6711Z" fill="#ff4040"/>
<path d="M55.6296 17.501C55.9435 17.7715 56.1554 18.1409 56.2282 18.545C56.3011 18.9491 56.2303 19.3624 56.0282 19.7128C55.8262 20.0632 55.5056 20.3286 55.1223 20.4629C54.739 20.5972 54.3173 20.5918 53.9305 20.4476L28.9555 12.3556C28.5063 12.21 28.1288 11.8937 27.9063 11.4761C27.6837 11.0585 27.6341 10.5739 27.7685 10.1289C27.9029 9.68395 28.2103 9.31503 28.6229 9.10332C29.0356 8.89161 29.5198 8.85447 29.969 9.00004L54.9441 17.092C55.1989 17.1765 55.4331 17.3162 55.6296 17.501Z" fill="#ff4040"/>
<path d="M63.8547 39.7178C63.948 39.8086 64.0272 39.9137 64.091 40.0313C64.1969 40.2322 64.2508 40.4709 64.2494 40.7333C64.2481 40.9957 64.1915 41.2766 64.0832 41.5596C63.9748 41.8426 63.8167 42.122 63.6183 42.3815C63.4198 42.641 63.1848 42.8754 62.9271 43.0709L32.0487 66.8976C31.5321 67.2958 30.9536 67.5158 30.4405 67.5092C29.9273 67.5025 29.5216 67.2698 29.3124 66.8621C29.1033 66.4545 29.1079 65.9054 29.3252 65.3355C29.5426 64.7657 29.9549 64.2219 30.4715 63.8237L61.3499 39.9969C61.7883 39.655 62.2756 39.4409 62.7311 39.3902C63.1866 39.3394 63.583 39.455 63.8547 39.7178Z" fill="#ff4040"/>
</svg>
