<svg width="24" height="19" viewBox="0 0 24 19" fill="none" xmlns="http://www.w3.org/2000/svg">
<path d="M23.9095 2.2771C23.1347 2.59677 22.3209 2.82095 21.4876 2.94428C21.8724 2.87901 22.4533 2.21908 22.6796 1.92176C23.0435 1.50916 23.318 1.03085 23.4869 0.514896C23.4869 0.471384 23.5247 0.420611 23.4869 0.391604C23.4674 0.380783 23.4453 0.375094 23.4228 0.375094C23.4003 0.375094 23.3782 0.380783 23.3587 0.391604C22.4478 0.858868 21.4795 1.21457 20.4766 1.45039C20.4422 1.4608 20.4055 1.46155 20.3708 1.45256C20.336 1.44356 20.3047 1.4252 20.2804 1.39963C20.2006 1.3121 20.115 1.22972 20.0239 1.15306C19.6075 0.809508 19.1362 0.532803 18.6281 0.333598C17.952 0.0678904 17.2218 -0.0462 16.4929 5.43706e-06C15.7827 0.0477166 15.0904 0.235958 14.4594 0.552928C13.8284 0.869898 13.2724 1.30876 12.8261 1.84199C12.3557 2.38873 12.0203 3.03093 11.8453 3.72024C11.6959 4.37326 11.678 5.04775 11.7925 5.70725C11.7925 5.82328 11.7925 5.83779 11.6944 5.82329C7.74095 5.25764 4.45896 3.89428 1.79565 0.979017C1.68248 0.848483 1.62211 0.848483 1.52403 0.979017C0.362127 2.66146 0.927998 5.33016 2.38414 6.67902C2.57276 6.85306 2.77646 7.03436 2.98772 7.1939C2.32249 7.14412 1.67393 6.96918 1.07889 6.67902C0.965714 6.6065 0.905363 6.67901 0.897818 6.77329C0.875638 6.95396 0.875638 7.13651 0.897818 7.31718C1.01479 8.17344 1.36537 8.98471 1.91395 9.66866C2.46254 10.3526 3.18961 10.8849 4.02138 11.2115C4.2278 11.2937 4.44278 11.3545 4.66266 11.3928C4.04395 11.5106 3.40933 11.5302 2.78402 11.4508C2.64821 11.4508 2.5954 11.4943 2.64822 11.6176C3.4706 13.7931 5.25117 14.4168 6.5866 14.7866C6.76013 14.7866 6.9412 14.7866 7.12228 14.8519V14.8882C6.67713 15.5336 5.14553 16.0122 4.42878 16.2515C3.12218 16.7016 1.72978 16.8747 0.347039 16.7592C0.12824 16.7229 0.0829769 16.7592 0.0226186 16.7592C-0.0377398 16.7592 0.0226158 16.8389 0.090519 16.897C0.369677 17.071 0.64883 17.2305 0.935533 17.3828C1.80301 17.8268 2.71902 18.1771 3.66677 18.4271C8.57089 19.7325 14.0937 18.7752 17.7755 15.258C20.6652 12.5023 21.6762 8.7313 21.6762 4.88054C21.6762 4.72825 21.8648 4.64848 21.9704 4.56871C22.7034 4.0238 23.3469 3.37596 23.8793 2.64695C23.9643 2.54432 24.0072 2.41534 24 2.28435C24 2.21908 24.0075 2.23359 23.9095 2.2771Z" fill="#153D5E"/>
</svg>
