<svg width="53" height="53" viewBox="0 0 53 53" fill="none" xmlns="http://www.w3.org/2000/svg">
<g clip-path="url(#clip0_17_283)">
<path d="M26.312 52.9904C21.1099 52.9904 16.0246 51.4478 11.6992 48.5576C7.37385 45.6675 4.00262 41.5596 2.01186 36.7535C0.0211022 31.9474 -0.499773 26.6589 0.515107 21.5567C1.52999 16.4546 4.03504 11.768 7.71348 8.08953C11.3919 4.41108 16.0785 1.90603 21.1807 0.891148C26.2828 -0.123732 31.5714 0.397131 36.3775 2.38789C41.1836 4.37865 45.2914 7.7499 48.1816 12.0753C51.0717 16.4007 52.6143 21.486 52.6143 26.6881C52.6041 33.6607 49.8297 40.3449 44.8993 45.2753C39.9689 50.2057 33.2847 52.9802 26.312 52.9904Z" fill="#33CCFF"/>
<path d="M41.4245 17.0886C40.4347 17.5134 39.3952 17.8113 38.3306 17.9752C38.8318 17.8885 39.5643 17.0115 39.8534 16.6163C40.3183 16.0679 40.6689 15.4322 40.8847 14.7465C40.8847 14.6887 40.8847 14.6212 40.8847 14.5827C40.8598 14.5683 40.8316 14.5607 40.8028 14.5607C40.774 14.5607 40.7458 14.5683 40.7209 14.5827C39.5572 15.2037 38.3203 15.6764 37.0391 15.9898C36.9953 16.0036 36.9484 16.0046 36.904 15.9927C36.8596 15.9807 36.8195 15.9563 36.7885 15.9224C36.6866 15.806 36.5772 15.6965 36.4608 15.5946C35.929 15.1553 35.3303 14.8039 34.6874 14.5537C33.8201 14.2014 32.8844 14.0499 31.9502 14.1104C31.0447 14.1729 30.1619 14.4223 29.3576 14.8429C28.5575 15.243 27.8461 15.8003 27.2661 16.4814C26.6687 17.2103 26.2407 18.063 26.0132 18.9776C25.8223 19.8455 25.7994 20.7419 25.9457 21.6184C25.9457 21.7726 25.9457 21.7919 25.8204 21.7726C20.7701 21.0209 16.5775 19.2089 13.1849 15.3344C13.0307 15.1609 12.9536 15.1609 12.8283 15.3344C11.344 17.5705 12.0669 21.1173 13.927 22.91C14.168 23.1413 14.4282 23.3822 14.6981 23.5943C13.8485 23.5269 13.0202 23.2944 12.2596 22.91C12.1151 22.8136 12.038 22.9099 12.0283 23.0352C12.0096 23.2758 12.0096 23.5175 12.0283 23.7581C12.1682 24.9154 12.6169 26.0138 13.3275 26.9381C14.038 27.8623 14.9842 28.5782 16.0667 29.0109C16.3266 29.1214 16.5982 29.2022 16.8763 29.2518C16.0859 29.4085 15.2752 29.4345 14.4764 29.3289C14.3029 29.3289 14.2354 29.3867 14.3029 29.5506C14.7138 30.6227 15.3915 31.5723 16.2719 32.3093C17.1523 33.0463 18.2063 33.5465 19.334 33.7624C19.5653 33.7624 19.787 33.7624 20.0183 33.8492C20.0183 33.8492 20.0183 33.8492 20.0183 33.8974C19.4496 34.7552 17.4931 35.3913 16.5871 35.7093C14.9179 36.3069 13.1393 36.537 11.3729 36.384C11.0934 36.3358 11.026 36.384 10.9585 36.384C10.891 36.384 10.9585 36.49 11.0356 36.5671C11.3922 36.7984 11.7488 37.0105 12.1247 37.2129C13.2288 37.8045 14.3959 38.2701 15.604 38.6007C21.8688 40.3356 28.9239 39.0634 33.6272 34.3889C37.3186 30.7264 38.6101 25.6664 38.6101 20.5968C38.6101 20.3944 38.8511 20.2884 38.986 20.1824C39.9224 19.4582 40.7444 18.5972 41.4245 17.6283C41.533 17.4919 41.5879 17.3205 41.5787 17.1464C41.5401 17.0115 41.5497 17.0307 41.4245 17.0886Z" fill="white"/>
<path fill-rule="evenodd" clip-rule="evenodd" d="M21.0206 39.2369C21.0206 39.1791 21.5604 39.2369 21.0206 39.2369C21.0206 39.208 21.0881 39.2369 21.0206 39.2369Z" fill="white"/>
<path fill-rule="evenodd" clip-rule="evenodd" d="M31.8635 14.1007C31.846 14.1156 31.8238 14.1239 31.8008 14.1239C31.7779 14.1239 31.7556 14.1156 31.7382 14.1007H31.8635Z" fill="white"/>
</g>
<defs>
<clipPath id="clip0_17_283">
<rect width="52.6143" height="52.6143" fill="white" transform="translate(0 0.385742)"/>
</clipPath>
</defs>
</svg>
