<svg width="53" height="53" viewBox="0 0 53 53" fill="none" xmlns="http://www.w3.org/2000/svg">
<g clip-path="url(#clip0_17_286)">
<path d="M26.3071 53C40.8361 53 52.6143 41.2219 52.6143 26.6929C52.6143 12.1638 40.8361 0.385742 26.3071 0.385742C11.7781 0.385742 0 12.1638 0 26.6929C0 41.2219 11.7781 53 26.3071 53Z" fill="#0CAA41"/>
<path fill-rule="evenodd" clip-rule="evenodd" d="M33.2796 10.4255C34.5123 10.4255 35.6945 10.9152 36.5662 11.7869C37.4378 12.6586 37.9275 13.8408 37.9275 15.0735H19.3315V34.164C19.3313 34.2088 19.3133 34.2516 19.2815 34.2832C19.2498 34.3147 19.2069 34.3324 19.1621 34.3324H14.8477C14.803 34.3324 14.7601 34.3147 14.7283 34.2832C14.6966 34.2516 14.6786 34.2088 14.6783 34.164V15.0735C14.6782 14.4626 14.7985 13.8577 15.0323 13.2934C15.2662 12.7291 15.609 12.2164 16.0412 11.7847C16.4734 11.353 16.9865 11.0108 17.5511 10.7776C18.1156 10.5443 18.7207 10.4247 19.3315 10.4255H33.2796ZM33.2796 38.3111H14.6878C14.6872 39.5433 15.1761 40.7254 16.047 41.5972C16.9178 42.469 18.0993 42.9593 19.3315 42.9601H33.2796C34.5123 42.9601 35.6945 42.4704 36.5662 41.5987C37.4378 40.7271 37.9275 39.5449 37.9275 38.3122V19.2216C37.9272 19.1768 37.9093 19.134 37.8775 19.1025C37.8458 19.0709 37.8028 19.0532 37.7581 19.0532H33.449C33.4042 19.0532 33.3613 19.0709 33.3296 19.1025C33.2978 19.134 33.2798 19.1768 33.2796 19.2216V38.3111Z" fill="white"/>
</g>
<defs>
<clipPath id="clip0_17_286">
<rect width="52.6143" height="52.6143" fill="white" transform="translate(0 0.385742)"/>
</clipPath>
</defs>
</svg>
