<svg width="38" height="27" viewBox="0 0 38 27" fill="none" xmlns="http://www.w3.org/2000/svg">
<path d="M5.875 11.875C7.92578 11.875 9.625 10.2344 9.625 8.125C9.625 6.07422 7.92578 4.375 5.875 4.375C3.76562 4.375 2.125 6.07422 2.125 8.125C2.125 10.2344 3.76562 11.875 5.875 11.875ZM32.125 11.875C34.1758 11.875 35.875 10.2344 35.875 8.125C35.875 6.07422 34.1758 4.375 32.125 4.375C30.0156 4.375 28.375 6.07422 28.375 8.125C28.375 10.2344 30.0156 11.875 32.125 11.875ZM34 13.75H30.25C29.1953 13.75 28.2578 14.2188 27.5547 14.8633C29.957 16.1523 31.5977 18.4961 32.0078 21.25H35.875C36.8711 21.25 37.75 20.4297 37.75 19.375V17.5C37.75 15.4492 36.0508 13.75 34 13.75ZM19 13.75C22.5742 13.75 25.5625 10.8203 25.5625 7.1875C25.5625 3.61328 22.5742 0.625 19 0.625C15.3672 0.625 12.4375 3.61328 12.4375 7.1875C12.4375 10.8203 15.3672 13.75 19 13.75ZM23.4531 15.625H22.9844C21.7539 16.2109 20.4062 16.5625 19 16.5625C17.5352 16.5625 16.1875 16.2109 14.957 15.625H14.4883C10.7383 15.625 7.75 18.6719 7.75 22.4219V24.0625C7.75 25.6445 8.98047 26.875 10.5625 26.875H27.4375C28.9609 26.875 30.25 25.6445 30.25 24.0625V22.4219C30.25 18.6719 27.2031 15.625 23.4531 15.625ZM10.3867 14.8633C9.68359 14.2188 8.74609 13.75 7.75 13.75H4C1.89062 13.75 0.25 15.4492 0.25 17.5V19.375C0.25 20.4297 1.07031 21.25 2.125 21.25H5.93359C6.34375 18.4961 7.98438 16.1523 10.3867 14.8633Z" fill="white"/>
</svg>
