<svg width="20" height="20" viewBox="0 0 20 20" fill="none" xmlns="http://www.w3.org/2000/svg">
<path d="M15.125 8.32034V16.0236H2.875V5.28395H10.9994C10.9794 5.12218 10.9691 4.95909 10.9688 4.79578C10.9692 4.63225 10.9792 4.4692 10.9994 4.30762H2.875C2.64294 4.30762 2.42038 4.41048 2.25628 4.59358C2.09219 4.77668 2 5.02501 2 5.28395V16.0236C2 16.2825 2.09219 16.5309 2.25628 16.714C2.42038 16.8971 2.64294 16.9999 2.875 16.9999H15.125C15.3571 16.9999 15.5796 16.8971 15.7437 16.714C15.9078 16.5309 16 16.2825 16 16.0236V7.89075C15.7287 8.08114 15.4339 8.22564 15.125 8.32034Z" fill="#003049"/>
<path d="M8.05003 9.05399L5.62967 13.0068L4 11.387L4.42632 10.8456L5.51142 11.9239L8.05566 7.76953L10.7704 12.2959L13.4868 8.26216L14 8.69875L10.7399 13.5388L8.05003 9.05399Z" fill="#FF4040"/>
<path d="M15 6.61538C16.1046 6.61538 17 5.5822 17 4.30769C17 3.03319 16.1046 2 15 2C13.8954 2 13 3.03319 13 4.30769C13 5.5822 13.8954 6.61538 15 6.61538Z" fill="#00CEEA"/>
</svg>
