<svg width="15" height="16" viewBox="0 0 15 16" fill="none" xmlns="http://www.w3.org/2000/svg">
<path d="M0 2.28619C0 1.31157 0.790086 0.521484 1.76471 0.521484H4.41176C5.38638 0.521484 6.17647 1.31157 6.17647 2.28619V4.93325C6.17647 5.90787 5.38638 6.69796 4.41176 6.69796H1.76471C0.790086 6.69796 0 5.90787 0 4.93325V2.28619Z" fill="#FFC728"/>
<path d="M0 10.2274C0 9.25275 0.790086 8.46266 1.76471 8.46266H4.41176C5.38638 8.46266 6.17647 9.25275 6.17647 10.2274V12.8744C6.17647 13.849 5.38638 14.6391 4.41176 14.6391H1.76471C0.790086 14.6391 0 13.849 0 12.8744V10.2274Z" fill="#FF4F50"/>
<path d="M7.94118 2.28619C7.94118 1.31157 8.73126 0.521484 9.70588 0.521484H12.3529C13.3276 0.521484 14.1176 1.31157 14.1176 2.28619V4.93325C14.1176 5.90787 13.3276 6.69796 12.3529 6.69796H9.70588C8.73126 6.69796 7.94118 5.90787 7.94118 4.93325V2.28619Z" fill="#00B2EA"/>
<path d="M7.94118 10.2274C7.94118 9.25275 8.73126 8.46266 9.70588 8.46266H13.2353C14.2099 8.46266 15 9.25275 15 10.2274V13.7568C15 14.7314 14.2099 15.5215 13.2353 15.5215H9.70588C8.73126 15.5215 7.94118 14.7314 7.94118 13.7568V10.2274Z" fill="#003049"/>
</svg>
