<svg width="15" height="15" viewBox="0 0 15 15" fill="none" xmlns="http://www.w3.org/2000/svg">
<path fill-rule="evenodd" clip-rule="evenodd" d="M2.2543 10.0033V15H9.38471V12.2867H11.1736C11.2852 12.2867 11.3919 12.2646 11.489 12.225L10.4973 11.4533H8.55133V14.1667H3.08726V9.6675L2.85391 9.42542C2.17054 8.715 0.833381 7.05458 0.833381 4.98958C0.833381 4.31042 1.08965 3.27 1.86094 2.41042C2.5414 1.65167 3.68313 0.966667 5.58491 0.850833V3.78833C5.25607 3.85065 4.94528 3.98553 4.67517 4.18315C4.40507 4.38077 4.18245 4.63615 4.02354 4.93069C3.86463 5.22523 3.77343 5.5515 3.75659 5.88574C3.73974 6.21999 3.79768 6.55378 3.92617 6.8628C4.05466 7.17182 4.25048 7.44829 4.49934 7.67206C4.74821 7.89583 5.04387 8.06127 5.36477 8.15632C5.68567 8.25138 6.02374 8.27365 6.35434 8.22153C6.68495 8.1694 6.99975 8.04418 7.27584 7.855L13.1387 12.4062C13.1026 12.6146 13.1379 12.829 13.239 13.0146C13.3401 13.2003 13.501 13.3464 13.6955 13.4291C13.8901 13.5119 14.1069 13.5264 14.3108 13.4704C14.5147 13.4144 14.6936 13.2911 14.8186 13.1206C14.9436 12.9501 15.0073 12.7424 14.9993 12.5311C14.9914 12.3198 14.9122 12.1174 14.7747 11.9568C14.6373 11.7962 14.4495 11.6868 14.242 11.6463C14.0345 11.6058 13.8194 11.6366 13.6316 11.7337L7.86712 7.25833C8.07572 6.94921 8.20424 6.5931 8.24113 6.22201C8.27802 5.85092 8.22213 5.47648 8.07847 5.13234C7.93482 4.7882 7.7079 4.48514 7.41812 4.2504C7.12834 4.01566 6.78477 3.8566 6.41829 3.7875V0.83625C7.47793 0.855833 8.21214 0.997917 8.76759 1.20625C9.35596 1.42708 9.79223 1.73917 10.2318 2.14667L10.291 2.20167C10.7219 2.60083 10.8502 2.72 10.9231 2.91417L12.687 7.61H11.1736V8.81333L12.0069 9.46125V8.44333H12.687C12.8217 8.44352 12.9544 8.41103 13.0737 8.34866C13.1931 8.28629 13.2955 8.19589 13.3723 8.08523C13.449 7.97456 13.4978 7.84693 13.5143 7.71329C13.5309 7.57964 13.5148 7.44397 13.4674 7.31792L11.7032 2.62083C11.5577 2.23333 11.2765 1.975 10.9223 1.65C10.881 1.61204 10.8397 1.57399 10.7985 1.53583C9.81307 0.621667 8.69175 0 6.16619 0C1.25257 0 0 3.28125 0 4.98958C0 7.3925 1.53467 9.25667 2.2543 10.0033ZM6.0016 7.41667C6.18765 7.41669 6.37188 7.38008 6.54378 7.30891C6.71568 7.23774 6.87187 7.13341 7.00345 7.00188C7.13503 6.87035 7.23941 6.71419 7.31063 6.54233C7.38185 6.37046 7.41852 6.18625 7.41855 6.00021C7.41858 5.81417 7.38196 5.62995 7.31079 5.45806C7.23962 5.28617 7.13528 5.12998 7.00374 4.99841C6.87221 4.86684 6.71604 4.76247 6.54416 4.69125C6.37229 4.62003 6.18806 4.58336 6.00201 4.58333C5.62627 4.58333 5.26591 4.73259 5.00022 4.99826C4.73453 5.26394 4.58526 5.62428 4.58526 6C4.58526 6.37572 4.73453 6.73606 5.00022 7.00173C5.26591 7.26741 5.62585 7.41667 6.0016 7.41667Z" fill="#003049"/>
</svg>

