<svg width="15" height="16" viewBox="0 0 15 16" fill="none" xmlns="http://www.w3.org/2000/svg">
<path d="M5.27273 13.8548V13.3548H4.77273H1.36364C0.978913 13.3548 0.5 12.9272 0.5 12.1882V2.18815C0.5 1.44913 0.978913 1.02148 1.36364 1.02148H13.6364C14.021 1.02148 14.4999 1.449 14.5 2.18781C14.5 2.18792 14.5 2.18804 14.5 2.18815L14.4932 12.1878V12.1882C14.4932 12.9307 14.0182 13.3548 13.6364 13.3548H10.2273H9.72727V13.8548V15.0215H5.27273V13.8548ZM13.6364 12.6882H14.1364V12.1882V2.18815V1.68815H13.6364H1.36364H0.863636V2.18815V12.1882V12.6882H1.36364H13.6364Z" stroke="#003049"/>
</svg>
