<svg width="100" height="100" viewBox="0 0 100 100" fill="none" xmlns="http://www.w3.org/2000/svg">
<path d="M76.7837 30.3564C76.7837 40.2182 68.7891 48.2128 58.9273 48.2128C49.0655 48.2128 41.0709 40.2182 41.0709 30.3564C41.0709 20.4946 49.0655 12.5 58.9273 12.5C68.7891 12.5 76.7837 20.4946 76.7837 30.3564Z" fill="#52B9F3"/>
<path d="M87.4982 67.4439C87.4982 76.601 74.7068 80.2639 58.9279 80.2639C43.149 80.2639 30.3577 76.601 30.3577 67.4439C30.3577 59.2153 43.149 54.624 58.9279 54.624C74.7068 54.624 87.4982 58.2868 87.4982 67.4439Z" fill="#52B9F3"/>
<path d="M58.9259 37.5925C58.9259 47.4543 50.9314 55.4489 41.0696 55.4489C31.2077 55.4489 23.2132 47.4543 23.2132 37.5925C23.2132 27.7307 31.2077 19.7361 41.0696 19.7361C50.9314 19.7361 58.9259 27.7307 58.9259 37.5925Z" fill="#FF3434"/>
<path d="M69.6404 74.68C69.6404 83.8372 56.8491 87.5 41.0702 87.5C25.2913 87.5 12.5 83.8372 12.5 74.68C12.5 66.4514 25.2913 61.8601 41.0702 61.8601C56.8491 61.8601 69.6404 65.5229 69.6404 74.68Z" fill="#FF3434"/>
</svg>
