<svg width="100" height="100" viewBox="0 0 100 100" fill="none" xmlns="http://www.w3.org/2000/svg">
<path d="M12.5 25C12.5 18.0964 18.0964 12.5 25 12.5H75C81.9036 12.5 87.5 18.0964 87.5 25V75C87.5 81.9036 81.9036 87.5 75 87.5H25C18.0964 87.5 12.5 81.9036 12.5 75V25Z" fill="#FC5253"/>
<path d="M26.6663 52.6367C26.6663 50.1054 28.7183 48.0534 31.2496 48.0534C33.7809 48.0534 35.8329 50.1054 35.8329 52.6367V67.7756C35.8329 70.3069 33.7809 72.3589 31.2496 72.3589C28.7183 72.3589 26.6663 70.3069 26.6663 67.7756V52.6367Z" fill="white"/>
<path d="M45.4163 59.5825C45.4163 57.0512 47.4683 54.9992 49.9996 54.9992C52.5309 54.9992 54.5829 57.0512 54.5829 59.5825V67.777C54.5829 70.3083 52.5309 72.3603 49.9996 72.3603C47.4683 72.3603 45.4163 70.3083 45.4163 67.777V59.5825Z" fill="white"/>
<path d="M64.1663 34.5825C64.1663 32.0512 66.2183 29.9992 68.7496 29.9992C71.2809 29.9992 73.3329 32.0512 73.3329 34.5825V67.777C73.3329 70.3083 71.2809 72.3603 68.7496 72.3603C66.2183 72.3603 64.1663 70.3083 64.1663 67.777V34.5825Z" fill="#2997FF"/>
</svg>
