<svg width="100" height="100" viewBox="0 0 100 100" fill="none" xmlns="http://www.w3.org/2000/svg">
<path d="M80 53.75C80 60.4251 78.0206 66.9503 74.3121 72.5005C70.6036 78.0506 65.3326 82.3765 59.1656 84.9309C52.9986 87.4854 46.2126 88.1537 39.6657 86.8515C33.1189 85.5492 27.1052 82.3349 22.3852 77.6148C17.6651 72.8948 14.4508 66.8811 13.1485 60.3343C11.8463 53.7874 12.5146 47.0014 15.0691 40.8344C17.6235 34.6674 21.9494 29.3964 27.4995 25.6879C33.0497 21.9794 39.5749 20 46.25 20V53.75H80Z" fill="#3448FF"/>
<path d="M53.75 12.5C58.1821 12.5 62.5708 13.373 66.6656 15.0691C70.7603 16.7652 74.4809 19.2512 77.6149 22.3851C80.7488 25.5191 83.2348 29.2397 84.9309 33.3344C86.627 37.4292 87.5 41.8179 87.5 46.25L53.75 46.25V12.5Z" fill="#F35252"/>
</svg>
