<svg width="100" height="100" viewBox="0 0 100 100" fill="none" xmlns="http://www.w3.org/2000/svg">
<path d="M12.5 21.3235C12.5 16.4504 16.4504 12.5 21.3235 12.5H34.5588C39.4319 12.5 43.3824 16.4504 43.3824 21.3235V34.5588C43.3824 39.4319 39.4319 43.3824 34.5588 43.3824H21.3235C16.4504 43.3824 12.5 39.4319 12.5 34.5588V21.3235Z" fill="#FF7070"/>
<path d="M12.5 61.0294C12.5 56.1563 16.4504 52.2059 21.3235 52.2059H34.5588C39.4319 52.2059 43.3824 56.1563 43.3824 61.0294V74.2647C43.3824 79.1378 39.4319 83.0882 34.5588 83.0882H21.3235C16.4504 83.0882 12.5 79.1378 12.5 74.2647V61.0294Z" fill="#FF7070"/>
<path d="M52.2059 21.3235C52.2059 16.4504 56.1563 12.5 61.0294 12.5H74.2647C79.1378 12.5 83.0882 16.4504 83.0882 21.3235V34.5588C83.0882 39.4319 79.1378 43.3824 74.2647 43.3824H61.0294C56.1563 43.3824 52.2059 39.4319 52.2059 34.5588V21.3235Z" fill="#FF7070"/>
<path d="M52.2059 61.0294C52.2059 56.1563 56.1563 52.2059 61.0294 52.2059H78.6765C83.5496 52.2059 87.5 56.1563 87.5 61.0294V78.6765C87.5 83.5496 83.5496 87.5 78.6765 87.5H61.0294C56.1563 87.5 52.2059 83.5496 52.2059 78.6765V61.0294Z" fill="#3448FF"/>
</svg>
