<svg width="142" height="106" viewBox="0 0 142 106" fill="none" xmlns="http://www.w3.org/2000/svg">
<path d="M13 0L15.9187 8.98278H25.3637L17.7225 14.5344L20.6412 23.5172L13 17.9656L5.35879 23.5172L8.27747 14.5344L0.636266 8.98278H10.0813L13 0Z" fill="#FFC728"/>
<path d="M42 0L44.9187 8.98278H54.3637L46.7225 14.5344L49.6412 23.5172L42 17.9656L34.3588 23.5172L37.2775 14.5344L29.6363 8.98278H39.0813L42 0Z" fill="#FFC728"/>
<path d="M71 0L73.9187 8.98278H83.3637L75.7225 14.5344L78.6412 23.5172L71 17.9656L63.3588 23.5172L66.2775 14.5344L58.6363 8.98278H68.0813L71 0Z" fill="#FFC728"/>
<path d="M100 0L102.919 8.98278H112.364L104.723 14.5344L107.641 23.5172L100 17.9656L92.3588 23.5172L95.2775 14.5344L87.6363 8.98278H97.0813L100 0Z" fill="#FFC728"/>
<path d="M129 0L131.919 8.98278H141.364L133.723 14.5344L136.641 23.5172L129 17.9656L121.359 23.5172L124.277 14.5344L116.636 8.98278H126.081L129 0Z" fill="#FFC728"/>
<path d="M0.862926 59.6989V57.5192L6.32812 48.9091H8.20739V51.9261H7.09517L3.64986 57.3786V57.4808H11.4162V59.6989H0.862926ZM7.14631 62V59.0341L7.19744 58.0689V48.9091H9.79261V62H7.14631ZM14.6314 62.1662C14.2095 62.1662 13.8473 62.017 13.5447 61.7188C13.2464 61.4162 13.0973 61.054 13.0973 60.6321C13.0973 60.2145 13.2464 59.8565 13.5447 59.5582C13.8473 59.2599 14.2095 59.1108 14.6314 59.1108C15.0405 59.1108 15.3984 59.2599 15.7053 59.5582C16.0121 59.8565 16.1655 60.2145 16.1655 60.6321C16.1655 60.9134 16.093 61.1712 15.9482 61.4055C15.8075 61.6357 15.6222 61.821 15.392 61.9616C15.1619 62.098 14.9084 62.1662 14.6314 62.1662ZM22.8659 48.7301C23.5392 48.7301 24.187 48.843 24.8091 49.0689C25.4355 49.2947 25.9938 49.6548 26.4838 50.1491C26.9782 50.6435 27.3681 51.2997 27.6536 52.1179C27.9434 52.9318 28.0904 53.9311 28.0946 55.1158C28.0946 56.228 27.9689 57.2209 27.7175 58.0945C27.4703 58.9638 27.1145 59.7031 26.65 60.3125C26.1855 60.9219 25.6252 61.3864 24.9689 61.706C24.3127 62.0213 23.5797 62.179 22.7701 62.179C21.8965 62.179 21.1252 62.0107 20.4561 61.674C19.7871 61.3331 19.248 60.8707 18.839 60.2869C18.4341 59.6989 18.1891 59.0384 18.1039 58.3054H20.8333C20.9398 58.7827 21.1635 59.1534 21.5044 59.4176C21.8453 59.6776 22.2672 59.8075 22.7701 59.8075C23.6223 59.8075 24.2701 59.4368 24.7132 58.6953C25.1564 57.9496 25.3801 56.929 25.3844 55.6335H25.2949C25.0989 56.017 24.8347 56.3473 24.5023 56.6243C24.1699 56.897 23.7885 57.108 23.3581 57.2571C22.932 57.4062 22.4782 57.4808 21.9966 57.4808C21.2253 57.4808 20.5371 57.2997 19.932 56.9375C19.3269 56.5753 18.8496 56.0767 18.5002 55.4418C18.1507 54.8068 17.976 54.0824 17.976 53.2685C17.9718 52.3906 18.1742 51.6087 18.5833 50.9226C18.9924 50.2365 19.5634 49.6996 20.2963 49.3118C21.0336 48.9197 21.8901 48.7259 22.8659 48.7301ZM22.8851 50.9034C22.4547 50.9034 22.0712 51.0057 21.7346 51.2102C21.4022 51.4148 21.138 51.6896 20.9419 52.0348C20.7502 52.38 20.6564 52.7656 20.6607 53.1918C20.6607 53.6222 20.7544 54.0099 20.9419 54.3551C21.1337 54.696 21.3936 54.9687 21.7218 55.1733C22.0542 55.3736 22.4334 55.4737 22.8596 55.4737C23.1792 55.4737 23.4753 55.4141 23.748 55.2947C24.0208 55.1754 24.2573 55.0114 24.4576 54.8026C24.6621 54.5895 24.8219 54.3445 24.937 54.0675C25.052 53.7905 25.1096 53.4964 25.1096 53.1854C25.1053 52.772 25.0073 52.3928 24.8155 52.0476C24.6238 51.7024 24.3596 51.4254 24.0229 51.2166C23.6863 51.0078 23.307 50.9034 22.8851 50.9034ZM40.0222 48.2955L35.8034 63.9688H34.4228L38.6415 48.2955H40.0222ZM51.0724 62.179C50.2713 62.179 49.5511 62.0256 48.9119 61.7188C48.277 61.4077 47.7699 60.9815 47.3906 60.4403C47.0114 59.8991 46.8089 59.2812 46.7834 58.5866H48.701C48.7479 59.1491 48.9972 59.6115 49.4489 59.9737C49.9006 60.3359 50.4418 60.517 51.0724 60.517C51.5753 60.517 52.0206 60.402 52.4084 60.1719C52.8004 59.9375 53.1072 59.6158 53.3288 59.2067C53.5547 58.7976 53.6676 58.331 53.6676 57.8068C53.6676 57.2741 53.5526 56.799 53.3224 56.3814C53.0923 55.9638 52.7749 55.6357 52.37 55.397C51.9695 55.1584 51.5092 55.0369 50.9893 55.0327C50.593 55.0327 50.1946 55.1009 49.794 55.2372C49.3935 55.3736 49.0696 55.5526 48.8224 55.7741L47.0135 55.5057L47.7486 48.9091H54.946V50.603H49.3913L48.9759 54.2656H49.0526C49.3082 54.0185 49.647 53.8118 50.0689 53.6456C50.495 53.4794 50.951 53.3963 51.4368 53.3963C52.2337 53.3963 52.9432 53.5859 53.5653 53.9652C54.1918 54.3445 54.6839 54.8622 55.0419 55.5185C55.4041 56.1705 55.5831 56.9205 55.5788 57.7685C55.5831 58.6165 55.3913 59.3729 55.0036 60.0376C54.62 60.7024 54.0874 61.2266 53.4055 61.6101C52.728 61.9893 51.9503 62.179 51.0724 62.179ZM62.7028 62V52.1818H64.5501V53.7415H64.6523C64.8313 53.2131 65.1467 52.7976 65.5984 52.495C66.0543 52.1882 66.57 52.0348 67.1452 52.0348C67.2646 52.0348 67.4052 52.0391 67.5671 52.0476C67.7333 52.0561 67.8633 52.0668 67.957 52.0795V53.9077C67.8803 53.8864 67.744 53.8629 67.5479 53.8374C67.3519 53.8075 67.1559 53.7926 66.9599 53.7926C66.5082 53.7926 66.1055 53.8885 65.7518 54.0803C65.4023 54.2678 65.1254 54.5298 64.9208 54.8665C64.7163 55.1989 64.614 55.5781 64.614 56.0043V62H62.7028ZM72.3803 62.2173C71.7582 62.2173 71.1957 62.1023 70.6928 61.8722C70.19 61.6378 69.7915 61.299 69.4975 60.8558C69.2077 60.4126 69.0629 59.8693 69.0629 59.2259C69.0629 58.6719 69.1694 58.2159 69.3825 57.858C69.5955 57.5 69.8832 57.2166 70.2454 57.0078C70.6076 56.799 71.0124 56.6413 71.4599 56.5348C71.9073 56.4283 72.3633 56.3473 72.8278 56.2919C73.4158 56.2237 73.8931 56.1683 74.2596 56.1257C74.6261 56.0788 74.8924 56.0043 75.0586 55.902C75.2248 55.7997 75.3079 55.6335 75.3079 55.4034V55.3587C75.3079 54.8004 75.1502 54.3679 74.8349 54.0611C74.5238 53.7543 74.0593 53.6009 73.4414 53.6009C72.7979 53.6009 72.2908 53.7436 71.9201 54.0291C71.5536 54.3104 71.3001 54.6236 71.1594 54.9688L69.3633 54.5597C69.5763 53.9631 69.8874 53.4815 70.2965 53.1151C70.7099 52.7443 71.185 52.4759 71.7219 52.3097C72.2589 52.1392 72.8235 52.054 73.4158 52.054C73.8079 52.054 74.2234 52.1009 74.6623 52.1946C75.1055 52.2841 75.5188 52.4503 75.9023 52.6932C76.2901 52.9361 76.6076 53.2834 76.8548 53.7351C77.1019 54.1825 77.2255 54.7642 77.2255 55.4801V62H75.359V60.6577H75.2823C75.1587 60.9048 74.9734 61.1477 74.7262 61.3864C74.479 61.625 74.1616 61.8232 73.7738 61.9808C73.386 62.1385 72.9215 62.2173 72.3803 62.2173ZM72.7958 60.6832C73.3242 60.6832 73.7759 60.5788 74.1509 60.37C74.5302 60.1612 74.8178 59.8885 75.0138 59.5518C75.2141 59.2109 75.3143 58.8466 75.3143 58.4588V57.1932C75.2461 57.2614 75.114 57.3253 74.918 57.3849C74.7262 57.4403 74.5067 57.4893 74.2596 57.532C74.0124 57.5703 73.7717 57.6065 73.5373 57.6406C73.3029 57.6705 73.1069 57.696 72.9492 57.7173C72.5785 57.7642 72.2397 57.843 71.9329 57.9538C71.6303 58.0646 71.3874 58.2244 71.2042 58.4332C71.0252 58.6378 70.9357 58.9105 70.9357 59.2514C70.9357 59.7244 71.1104 60.0824 71.4599 60.3253C71.8093 60.5639 72.2546 60.6832 72.7958 60.6832ZM84.3542 52.1818V53.7159H78.9913V52.1818H84.3542ZM80.4295 49.8295H82.3407V59.1172C82.3407 59.4879 82.3961 59.767 82.5069 59.9545C82.6177 60.1378 82.7605 60.2635 82.9352 60.3317C83.1142 60.3956 83.3081 60.4276 83.5169 60.4276C83.6703 60.4276 83.8045 60.4169 83.9196 60.3956C84.0346 60.3743 84.1241 60.3572 84.188 60.3445L84.5332 61.9233C84.4224 61.9659 84.2647 62.0085 84.0602 62.0511C83.8556 62.098 83.6 62.1236 83.2931 62.1278C82.7903 62.1364 82.3216 62.0469 81.8869 61.8594C81.4522 61.6719 81.1007 61.3821 80.8322 60.9901C80.5637 60.598 80.4295 60.1058 80.4295 59.5135V49.8295ZM86.4684 62V52.1818H88.3796V62H86.4684ZM87.4336 50.6669C87.1012 50.6669 86.8157 50.5561 86.5771 50.3345C86.3427 50.1087 86.2255 49.8402 86.2255 49.5291C86.2255 49.2138 86.3427 48.9453 86.5771 48.7237C86.8157 48.4979 87.1012 48.3849 87.4336 48.3849C87.766 48.3849 88.0494 48.4979 88.2837 48.7237C88.5224 48.9453 88.6417 49.2138 88.6417 49.5291C88.6417 49.8402 88.5224 50.1087 88.2837 50.3345C88.0494 50.5561 87.766 50.6669 87.4336 50.6669ZM92.862 56.1705V62H90.9508V52.1818H92.7853V53.7798H92.9068C93.1326 53.2599 93.4863 52.8423 93.9679 52.527C94.4537 52.2116 95.0652 52.054 95.8024 52.054C96.4714 52.054 97.0574 52.1946 97.5602 52.4759C98.063 52.7528 98.4529 53.1662 98.7299 53.7159C99.0069 54.2656 99.1454 54.9453 99.1454 55.755V62H97.2342V55.9851C97.2342 55.2734 97.0488 54.7173 96.6781 54.3168C96.3074 53.9119 95.7981 53.7095 95.1504 53.7095C94.7072 53.7095 94.313 53.8054 93.9679 53.9972C93.627 54.1889 93.3564 54.4702 93.1561 54.8409C92.96 55.2074 92.862 55.6506 92.862 56.1705ZM105.825 65.8864C105.045 65.8864 104.374 65.7841 103.812 65.5795C103.253 65.375 102.797 65.1044 102.444 64.7678C102.09 64.4311 101.826 64.0625 101.651 63.6619L103.294 62.9844C103.409 63.1719 103.562 63.37 103.754 63.5788C103.95 63.7919 104.214 63.973 104.547 64.1222C104.883 64.2713 105.316 64.3459 105.844 64.3459C106.569 64.3459 107.167 64.169 107.64 63.8153C108.113 63.4659 108.35 62.9077 108.35 62.1406V60.2102H108.229C108.113 60.419 107.947 60.6513 107.73 60.907C107.517 61.1626 107.223 61.3842 106.848 61.5717C106.473 61.7592 105.985 61.853 105.384 61.853C104.608 61.853 103.91 61.6719 103.287 61.3097C102.67 60.9432 102.18 60.4041 101.817 59.6925C101.459 58.9766 101.28 58.0966 101.28 57.0526C101.28 56.0085 101.457 55.1136 101.811 54.3679C102.169 53.6222 102.659 53.0511 103.281 52.6548C103.903 52.2543 104.608 52.054 105.397 52.054C106.006 52.054 106.498 52.1562 106.873 52.3608C107.248 52.5611 107.54 52.7955 107.749 53.0639C107.962 53.3324 108.126 53.5689 108.241 53.7734H108.382V52.1818H110.255V62.2173C110.255 63.0611 110.059 63.7536 109.667 64.2947C109.275 64.8359 108.744 65.2365 108.075 65.4964C107.41 65.7564 106.66 65.8864 105.825 65.8864ZM105.806 60.2678C106.356 60.2678 106.82 60.1399 107.199 59.8842C107.583 59.6243 107.873 59.2536 108.069 58.772C108.269 58.2862 108.369 57.7045 108.369 57.027C108.369 56.3665 108.271 55.7848 108.075 55.282C107.879 54.7791 107.591 54.3871 107.212 54.1058C106.833 53.8203 106.364 53.6776 105.806 53.6776C105.231 53.6776 104.751 53.8267 104.368 54.125C103.984 54.419 103.694 54.8196 103.498 55.3267C103.307 55.8338 103.211 56.4006 103.211 57.027C103.211 57.6705 103.309 58.2351 103.505 58.7209C103.701 59.2067 103.991 59.5859 104.374 59.8587C104.762 60.1314 105.239 60.2678 105.806 60.2678Z" fill="#191A15"/>
<path d="M4.70455 102.16C3.95881 102.16 3.28338 101.968 2.67827 101.585C2.07741 101.197 1.60014 100.628 1.24645 99.8778C0.897017 99.1236 0.722301 98.1989 0.722301 97.1037C0.722301 95.9787 0.903409 95.0433 1.26562 94.2976C1.62784 93.5476 2.10938 92.9872 2.71023 92.6165C3.31534 92.2415 3.97798 92.054 4.69815 92.054C5.24787 92.054 5.70597 92.1477 6.07244 92.3352C6.44318 92.5185 6.74148 92.7486 6.96733 93.0256C7.19744 93.2983 7.37216 93.5668 7.49148 93.831H7.57457V88.9091H10.2912V102H7.60653V100.428H7.49148C7.36364 100.7 7.18253 100.971 6.94815 101.239C6.71804 101.504 6.41761 101.723 6.04688 101.898C5.6804 102.072 5.23295 102.16 4.70455 102.16ZM5.56747 99.9929C6.00639 99.9929 6.37713 99.8736 6.67969 99.6349C6.98651 99.392 7.22088 99.0533 7.38281 98.6186C7.54901 98.1839 7.6321 97.6747 7.6321 97.0909C7.6321 96.5071 7.55114 96 7.3892 95.5696C7.22727 95.1392 6.9929 94.8068 6.68608 94.5724C6.37926 94.3381 6.00639 94.2209 5.56747 94.2209C5.12003 94.2209 4.7429 94.3423 4.43608 94.5852C4.12926 94.8281 3.89702 95.1648 3.73935 95.5952C3.58168 96.0256 3.50284 96.5241 3.50284 97.0909C3.50284 97.6619 3.58168 98.1669 3.73935 98.6058C3.90128 99.0405 4.13352 99.3814 4.43608 99.6286C4.7429 99.8714 5.12003 99.9929 5.56747 99.9929ZM15.3297 102.185C14.7033 102.185 14.1451 102.077 13.655 101.859C13.165 101.638 12.7772 101.312 12.4917 100.881C12.2104 100.447 12.0698 99.9055 12.0698 99.2578C12.0698 98.7124 12.1699 98.2543 12.3702 97.8835C12.5705 97.5128 12.8432 97.2145 13.1884 96.9886C13.5336 96.7628 13.9256 96.5923 14.3645 96.4773C14.8077 96.3622 15.2722 96.2812 15.758 96.2344C16.329 96.1747 16.7892 96.1193 17.1387 96.0682C17.4881 96.0128 17.7417 95.9318 17.8993 95.8253C18.057 95.7187 18.1358 95.5611 18.1358 95.3523V95.3139C18.1358 94.9091 18.008 94.5959 17.7523 94.3743C17.5009 94.1527 17.1429 94.0419 16.6784 94.0419C16.1884 94.0419 15.7985 94.1506 15.5087 94.3679C15.2189 94.581 15.0272 94.8494 14.9334 95.1733L12.415 94.9688C12.5428 94.3722 12.7942 93.8565 13.1692 93.4219C13.5442 92.983 14.0279 92.6463 14.6202 92.4119C15.2168 92.1733 15.9071 92.054 16.6912 92.054C17.2367 92.054 17.7587 92.1179 18.2573 92.2457C18.7601 92.3736 19.2054 92.5717 19.5932 92.8402C19.9853 93.1087 20.2942 93.4538 20.5201 93.8757C20.7459 94.2933 20.8588 94.794 20.8588 95.3778V102H18.2765V100.638H18.1998C18.0421 100.945 17.8311 101.216 17.5669 101.45C17.3027 101.68 16.9853 101.862 16.6145 101.994C16.2438 102.121 15.8155 102.185 15.3297 102.185ZM16.1096 100.306C16.5101 100.306 16.8638 100.227 17.1706 100.07C17.4775 99.9077 17.7182 99.6903 17.8929 99.4176C18.0676 99.1449 18.155 98.8359 18.155 98.4908V97.4489C18.0698 97.5043 17.9526 97.5554 17.8034 97.6023C17.6586 97.6449 17.4945 97.6854 17.3113 97.7237C17.128 97.7578 16.9448 97.7898 16.7615 97.8196C16.5783 97.8452 16.4121 97.8686 16.263 97.8899C15.9434 97.9368 15.6642 98.0114 15.4256 98.1136C15.187 98.2159 15.0016 98.3544 14.8695 98.5291C14.7374 98.6996 14.6713 98.9126 14.6713 99.1683C14.6713 99.5391 14.8056 99.8224 15.074 100.018C15.3468 100.21 15.6919 100.306 16.1096 100.306ZM28.1937 92.1818V94.2273H22.2811V92.1818H28.1937ZM23.6234 89.8295H26.3464V98.983C26.3464 99.2344 26.3848 99.4304 26.4615 99.571C26.5382 99.7074 26.6447 99.8033 26.7811 99.8587C26.9217 99.9141 27.0836 99.9418 27.2669 99.9418C27.3947 99.9418 27.5225 99.9311 27.6504 99.9098C27.7782 99.8842 27.8762 99.8651 27.9444 99.8523L28.3727 101.879C28.2363 101.921 28.0446 101.97 27.7974 102.026C27.5502 102.085 27.2498 102.121 26.8961 102.134C26.2399 102.16 25.6646 102.072 25.1703 101.872C24.6802 101.672 24.2988 101.361 24.0261 100.939C23.7534 100.517 23.6191 99.9844 23.6234 99.3409V89.8295ZM32.7672 102.185C32.1408 102.185 31.5826 102.077 31.0925 101.859C30.6025 101.638 30.2147 101.312 29.9292 100.881C29.6479 100.447 29.5073 99.9055 29.5073 99.2578C29.5073 98.7124 29.6074 98.2543 29.8077 97.8835C30.008 97.5128 30.2807 97.2145 30.6259 96.9886C30.9711 96.7628 31.3631 96.5923 31.802 96.4773C32.2452 96.3622 32.7097 96.2812 33.1955 96.2344C33.7665 96.1747 34.2267 96.1193 34.5762 96.0682C34.9256 96.0128 35.1792 95.9318 35.3368 95.8253C35.4945 95.7187 35.5733 95.5611 35.5733 95.3523V95.3139C35.5733 94.9091 35.4455 94.5959 35.1898 94.3743C34.9384 94.1527 34.5804 94.0419 34.1159 94.0419C33.6259 94.0419 33.236 94.1506 32.9462 94.3679C32.6564 94.581 32.4647 94.8494 32.3709 95.1733L29.8525 94.9688C29.9803 94.3722 30.2317 93.8565 30.6067 93.4219C30.9817 92.983 31.4654 92.6463 32.0577 92.4119C32.6543 92.1733 33.3446 92.054 34.1287 92.054C34.6742 92.054 35.1962 92.1179 35.6948 92.2457C36.1976 92.3736 36.6429 92.5717 37.0307 92.8402C37.4228 93.1087 37.7317 93.4538 37.9576 93.8757C38.1834 94.2933 38.2963 94.794 38.2963 95.3778V102H35.714V100.638H35.6373C35.4796 100.945 35.2686 101.216 35.0044 101.45C34.7402 101.68 34.4228 101.862 34.052 101.994C33.6813 102.121 33.253 102.185 32.7672 102.185ZM33.5471 100.306C33.9476 100.306 34.3013 100.227 34.6081 100.07C34.915 99.9077 35.1557 99.6903 35.3304 99.4176C35.5051 99.1449 35.5925 98.8359 35.5925 98.4908V97.4489C35.5073 97.5043 35.3901 97.5554 35.2409 97.6023C35.0961 97.6449 34.932 97.6854 34.7488 97.7237C34.5655 97.7578 34.3823 97.7898 34.199 97.8196C34.0158 97.8452 33.8496 97.8686 33.7005 97.8899C33.3809 97.9368 33.1017 98.0114 32.8631 98.1136C32.6245 98.2159 32.4391 98.3544 32.307 98.5291C32.1749 98.6996 32.1088 98.9126 32.1088 99.1683C32.1088 99.5391 32.2431 99.8224 32.5115 100.018C32.7843 100.21 33.1294 100.306 33.5471 100.306ZM40.46 102V88.9091H43.1831V93.831H43.2662C43.3855 93.5668 43.5581 93.2983 43.7839 93.0256C44.014 92.7486 44.3123 92.5185 44.6788 92.3352C45.0495 92.1477 45.5098 92.054 46.0595 92.054C46.7754 92.054 47.4359 92.2415 48.041 92.6165C48.6461 92.9872 49.1298 93.5476 49.492 94.2976C49.8542 95.0433 50.0353 95.9787 50.0353 97.1037C50.0353 98.1989 49.8585 99.1236 49.5048 99.8778C49.1554 100.628 48.6781 101.197 48.073 101.585C47.4721 101.968 46.7988 102.16 46.0531 102.16C45.5247 102.16 45.0751 102.072 44.7044 101.898C44.3379 101.723 44.0375 101.504 43.8031 101.239C43.5687 100.971 43.3897 100.7 43.2662 100.428H43.1447V102H40.46ZM43.1255 97.0909C43.1255 97.6747 43.2065 98.1839 43.3684 98.6186C43.5304 99.0533 43.7647 99.392 44.0716 99.6349C44.3784 99.8736 44.7512 99.9929 45.1902 99.9929C45.6333 99.9929 46.0083 99.8714 46.3152 99.6286C46.622 99.3814 46.8542 99.0405 47.0119 98.6058C47.1738 98.1669 47.2548 97.6619 47.2548 97.0909C47.2548 96.5241 47.176 96.0256 47.0183 95.5952C46.8606 95.1648 46.6284 94.8281 46.3216 94.5852C46.0147 94.3423 45.6376 94.2209 45.1902 94.2209C44.747 94.2209 44.372 94.3381 44.0652 94.5724C43.7626 94.8068 43.5304 95.1392 43.3684 95.5696C43.2065 96 43.1255 96.5071 43.1255 97.0909ZM51.8523 102V92.1818H54.4922V93.8949H54.5945C54.7734 93.2855 55.0739 92.8253 55.4957 92.5142C55.9176 92.1989 56.4034 92.0412 56.9531 92.0412C57.0895 92.0412 57.2365 92.0497 57.3942 92.0668C57.5518 92.0838 57.6903 92.1072 57.8097 92.1371V94.5533C57.6818 94.5149 57.505 94.4808 57.2791 94.451C57.0533 94.4212 56.8466 94.4062 56.6591 94.4062C56.2585 94.4062 55.9006 94.4936 55.5852 94.6683C55.2741 94.8388 55.027 95.0774 54.8438 95.3842C54.6648 95.6911 54.5753 96.0447 54.5753 96.4453V102H51.8523ZM59.2175 102V92.1818H61.9405V102H59.2175ZM60.5854 90.9162C60.1806 90.9162 59.8333 90.782 59.5435 90.5135C59.258 90.2408 59.1152 89.9148 59.1152 89.5355C59.1152 89.1605 59.258 88.8388 59.5435 88.5703C59.8333 88.2976 60.1806 88.1612 60.5854 88.1612C60.9902 88.1612 61.3354 88.2976 61.6209 88.5703C61.9107 88.8388 62.0556 89.1605 62.0556 89.5355C62.0556 89.9148 61.9107 90.2408 61.6209 90.5135C61.3354 90.782 60.9902 90.9162 60.5854 90.9162ZM68.5579 102.192C67.5522 102.192 66.6871 101.979 65.9627 101.553C65.2425 101.122 64.6886 100.526 64.3008 99.7628C63.9173 99 63.7255 98.1222 63.7255 97.1293C63.7255 96.1236 63.9194 95.2415 64.3072 94.483C64.6992 93.7202 65.2553 93.1257 65.9755 92.6996C66.6957 92.2692 67.5522 92.054 68.5451 92.054C69.4016 92.054 70.1516 92.2095 70.7951 92.5206C71.4386 92.8317 71.9478 93.2685 72.3228 93.831C72.6978 94.3935 72.9045 95.054 72.9428 95.8125H70.3732C70.3008 95.3224 70.109 94.9283 69.7979 94.63C69.4911 94.3274 69.0884 94.1761 68.5898 94.1761C68.168 94.1761 67.7994 94.2912 67.484 94.5213C67.1729 94.7472 66.93 95.0774 66.7553 95.5121C66.5806 95.9467 66.4933 96.473 66.4933 97.0909C66.4933 97.7173 66.5785 98.25 66.7489 98.6889C66.9237 99.1278 67.1687 99.4624 67.484 99.6925C67.7994 99.9226 68.168 100.038 68.5898 100.038C68.9009 100.038 69.18 99.9737 69.4272 99.8459C69.6786 99.718 69.8853 99.5327 70.0472 99.2898C70.2134 99.0426 70.3221 98.7464 70.3732 98.4013H72.9428C72.9002 99.1513 72.6957 99.8118 72.3292 100.383C71.967 100.95 71.4663 101.393 70.8271 101.712C70.1879 102.032 69.4315 102.192 68.5579 102.192ZM77.1536 99.1747L77.16 95.9084H77.5563L80.7012 92.1818H83.8269L79.6017 97.1165H78.9561L77.1536 99.1747ZM74.6863 102V88.9091H77.4093V102H74.6863ZM80.8226 102L77.9334 97.7237L79.7488 95.7997L84.0123 102H80.8226ZM93.3319 94.9815L90.839 95.1349C90.7963 94.9219 90.7047 94.7301 90.5641 94.5597C90.4235 94.3849 90.2381 94.2464 90.008 94.1442C89.7821 94.0376 89.5115 93.9844 89.1962 93.9844C88.7743 93.9844 88.4185 94.0739 88.1287 94.2528C87.839 94.4276 87.6941 94.6619 87.6941 94.956C87.6941 95.1903 87.7878 95.3885 87.9753 95.5504C88.1628 95.7124 88.4846 95.8423 88.9405 95.9403L90.7175 96.2983C91.6721 96.4943 92.3837 96.8097 92.8525 97.2443C93.3212 97.679 93.5556 98.25 93.5556 98.9574C93.5556 99.6009 93.3659 100.165 92.9867 100.651C92.6117 101.137 92.0961 101.516 91.4398 101.789C90.7878 102.058 90.0357 102.192 89.1834 102.192C87.8837 102.192 86.8482 101.921 86.0769 101.38C85.3098 100.835 84.8603 100.093 84.7282 99.1555L87.4064 99.0149C87.4874 99.4112 87.6834 99.7138 87.9945 99.9226C88.3056 100.127 88.704 100.229 89.1898 100.229C89.6671 100.229 90.0506 100.138 90.3404 99.9545C90.6344 99.767 90.7836 99.5263 90.7878 99.2322C90.7836 98.9851 90.6792 98.7827 90.4746 98.625C90.2701 98.4631 89.9547 98.3395 89.5286 98.2543L87.8283 97.9155C86.8695 97.7237 86.1557 97.3913 85.687 96.9183C85.2225 96.4453 84.9902 95.8423 84.9902 95.1094C84.9902 94.4787 85.1607 93.9354 85.5016 93.4794C85.8468 93.0234 86.3304 92.6719 86.9526 92.4247C87.579 92.1776 88.312 92.054 89.1515 92.054C90.3915 92.054 91.3674 92.3161 92.079 92.8402C92.7949 93.3643 93.2125 94.0781 93.3319 94.9815Z" fill="#A6A6A6"/>
</svg>
