<svg width="142" height="106" viewBox="0 0 142 106" fill="none" xmlns="http://www.w3.org/2000/svg">
<path d="M13 0L15.9187 8.98278H25.3637L17.7225 14.5344L20.6412 23.5172L13 17.9656L5.35879 23.5172L8.27747 14.5344L0.636266 8.98278H10.0813L13 0Z" fill="#FFC728"/>
<path d="M42 0L44.9187 8.98278H54.3637L46.7225 14.5344L49.6412 23.5172L42 17.9656L34.3588 23.5172L37.2775 14.5344L29.6363 8.98278H39.0813L42 0Z" fill="#FFC728"/>
<path d="M71 0L73.9187 8.98278H83.3637L75.7225 14.5344L78.6412 23.5172L71 17.9656L63.3588 23.5172L66.2775 14.5344L58.6363 8.98278H68.0813L71 0Z" fill="#FFC728"/>
<path d="M100 0L102.919 8.98278H112.364L104.723 14.5344L107.641 23.5172L100 17.9656L92.3588 23.5172L95.2775 14.5344L87.6363 8.98278H97.0813L100 0Z" fill="#FFC728"/>
<path d="M129 0L131.919 8.98278H141.364L133.723 14.5344L136.641 23.5172L129 17.9656L121.359 23.5172L124.277 14.5344L116.636 8.98278H126.081L129 0Z" fill="#BBBBBB"/>
<path d="M0.862926 59.6989V57.5192L6.32812 48.9091H8.20739V51.9261H7.09517L3.64986 57.3786V57.4808H11.4162V59.6989H0.862926ZM7.14631 62V59.0341L7.19744 58.0689V48.9091H9.79261V62H7.14631ZM14.6314 62.1662C14.2095 62.1662 13.8473 62.017 13.5447 61.7188C13.2464 61.4162 13.0973 61.054 13.0973 60.6321C13.0973 60.2145 13.2464 59.8565 13.5447 59.5582C13.8473 59.2599 14.2095 59.1108 14.6314 59.1108C15.0405 59.1108 15.3984 59.2599 15.7053 59.5582C16.0121 59.8565 16.1655 60.2145 16.1655 60.6321C16.1655 60.9134 16.093 61.1712 15.9482 61.4055C15.8075 61.6357 15.6222 61.821 15.392 61.9616C15.1619 62.098 14.9084 62.1662 14.6314 62.1662ZM22.7317 62.179C21.7473 62.179 20.8716 62.0192 20.1046 61.6996C19.3418 61.3757 18.7431 60.9347 18.3084 60.3764C17.8738 59.8182 17.6564 59.1854 17.6564 58.478C17.6564 57.9325 17.78 57.4318 18.0272 56.9759C18.2786 56.5156 18.6195 56.1342 19.0499 55.8317C19.4803 55.5249 19.9618 55.3288 20.4945 55.2436V55.1541C19.7956 55.0135 19.2289 54.6747 18.7942 54.1378C18.3596 53.5966 18.1422 52.968 18.1422 52.2521C18.1422 51.5746 18.3404 50.9716 18.7367 50.4432C19.133 49.9105 19.6763 49.4929 20.3667 49.1903C21.0613 48.8835 21.8496 48.7301 22.7317 48.7301C23.6138 48.7301 24.4 48.8835 25.0904 49.1903C25.785 49.4972 26.3304 49.9169 26.7267 50.4496C27.123 50.978 27.3233 51.5788 27.3276 52.2521C27.3233 52.9723 27.1017 53.6009 26.6628 54.1378C26.2239 54.6747 25.6614 55.0135 24.9753 55.1541V55.2436C25.4995 55.3288 25.9746 55.5249 26.4007 55.8317C26.8311 56.1342 27.1721 56.5156 27.4235 56.9759C27.6792 57.4318 27.8091 57.9325 27.8134 58.478C27.8091 59.1854 27.5897 59.8182 27.155 60.3764C26.7203 60.9347 26.1195 61.3757 25.3525 61.6996C24.5897 62.0192 23.7161 62.179 22.7317 62.179ZM22.7317 60.1463C23.1706 60.1463 23.5542 60.0675 23.8823 59.9098C24.2104 59.7479 24.4661 59.5263 24.6493 59.245C24.8368 58.9595 24.9306 58.6314 24.9306 58.2607C24.9306 57.8814 24.8347 57.5469 24.6429 57.2571C24.4512 56.9631 24.1912 56.733 23.8631 56.5668C23.535 56.3963 23.1578 56.3111 22.7317 56.3111C22.3098 56.3111 21.9327 56.3963 21.6003 56.5668C21.2679 56.733 21.0059 56.9631 20.8141 57.2571C20.6266 57.5469 20.5328 57.8814 20.5328 58.2607C20.5328 58.6314 20.6245 58.9595 20.8077 59.245C20.9909 59.5263 21.2488 59.7479 21.5811 59.9098C21.9135 60.0675 22.2971 60.1463 22.7317 60.1463ZM22.7317 54.2976C23.0982 54.2976 23.4242 54.223 23.7097 54.0739C23.9952 53.9247 24.2189 53.718 24.3809 53.4538C24.5428 53.1896 24.6238 52.8849 24.6238 52.5398C24.6238 52.1989 24.5428 51.9006 24.3809 51.6449C24.2189 51.3849 23.9973 51.1825 23.7161 51.0376C23.4348 50.8885 23.1067 50.8139 22.7317 50.8139C22.361 50.8139 22.0328 50.8885 21.7473 51.0376C21.4618 51.1825 21.2381 51.3849 21.0762 51.6449C20.9185 51.9006 20.8397 52.1989 20.8397 52.5398C20.8397 52.8849 20.9206 53.1896 21.0826 53.4538C21.2445 53.718 21.4682 53.9247 21.7537 54.0739C22.0392 54.223 22.3652 54.2976 22.7317 54.2976ZM39.7585 48.2955L35.5398 63.9688H34.1591L38.3778 48.2955H39.7585ZM50.8088 62.179C50.0076 62.179 49.2875 62.0256 48.6483 61.7188C48.0133 61.4077 47.5062 60.9815 47.127 60.4403C46.7477 59.8991 46.5453 59.2812 46.5197 58.5866H48.4373C48.4842 59.1491 48.7335 59.6115 49.1852 59.9737C49.6369 60.3359 50.1781 60.517 50.8088 60.517C51.3116 60.517 51.7569 60.402 52.1447 60.1719C52.5368 59.9375 52.8436 59.6158 53.0652 59.2067C53.291 58.7976 53.4039 58.331 53.4039 57.8068C53.4039 57.2741 53.2889 56.799 53.0588 56.3814C52.8287 55.9638 52.5112 55.6357 52.1064 55.397C51.7058 55.1584 51.2456 55.0369 50.7257 55.0327C50.3294 55.0327 49.9309 55.1009 49.5304 55.2372C49.1298 55.3736 48.8059 55.5526 48.5588 55.7741L46.7498 55.5057L47.4849 48.9091H54.6824V50.603H49.1277L48.7122 54.2656H48.7889C49.0446 54.0185 49.3833 53.8118 49.8052 53.6456C50.2314 53.4794 50.6873 53.3963 51.1731 53.3963C51.97 53.3963 52.6795 53.5859 53.3017 53.9652C53.9281 54.3445 54.4203 54.8622 54.7782 55.5185C55.1404 56.1705 55.3194 56.9205 55.3152 57.7685C55.3194 58.6165 55.1277 59.3729 54.7399 60.0376C54.3564 60.7024 53.8237 61.2266 53.1419 61.6101C52.4643 61.9893 51.6866 62.179 50.8088 62.179ZM62.4391 62V52.1818H64.2864V53.7415H64.3887C64.5676 53.2131 64.883 52.7976 65.3347 52.495C65.7907 52.1882 66.3063 52.0348 66.8816 52.0348C67.0009 52.0348 67.1415 52.0391 67.3034 52.0476C67.4696 52.0561 67.5996 52.0668 67.6934 52.0795V53.9077C67.6167 53.8864 67.4803 53.8629 67.2843 53.8374C67.0882 53.8075 66.8922 53.7926 66.6962 53.7926C66.2445 53.7926 65.8418 53.8885 65.4881 54.0803C65.1387 54.2678 64.8617 54.5298 64.6571 54.8665C64.4526 55.1989 64.3503 55.5781 64.3503 56.0043V62H62.4391ZM72.1167 62.2173C71.4945 62.2173 70.932 62.1023 70.4292 61.8722C69.9263 61.6378 69.5279 61.299 69.2338 60.8558C68.9441 60.4126 68.7992 59.8693 68.7992 59.2259C68.7992 58.6719 68.9057 58.2159 69.1188 57.858C69.3319 57.5 69.6195 57.2166 69.9817 57.0078C70.3439 56.799 70.7488 56.6413 71.1962 56.5348C71.6436 56.4283 72.0996 56.3473 72.5641 56.2919C73.1522 56.2237 73.6294 56.1683 73.9959 56.1257C74.3624 56.0788 74.6287 56.0043 74.7949 55.902C74.9611 55.7997 75.0442 55.6335 75.0442 55.4034V55.3587C75.0442 54.8004 74.8865 54.3679 74.5712 54.0611C74.2601 53.7543 73.7956 53.6009 73.1777 53.6009C72.5343 53.6009 72.0272 53.7436 71.6564 54.0291C71.29 54.3104 71.0364 54.6236 70.8958 54.9688L69.0996 54.5597C69.3127 53.9631 69.6238 53.4815 70.0328 53.1151C70.4462 52.7443 70.9213 52.4759 71.4583 52.3097C71.9952 52.1392 72.5598 52.054 73.1522 52.054C73.5442 52.054 73.9597 52.1009 74.3986 52.1946C74.8418 52.2841 75.2551 52.4503 75.6387 52.6932C76.0265 52.9361 76.3439 53.2834 76.5911 53.7351C76.8382 54.1825 76.9618 54.7642 76.9618 55.4801V62H75.0953V60.6577H75.0186C74.8951 60.9048 74.7097 61.1477 74.4625 61.3864C74.2154 61.625 73.8979 61.8232 73.5101 61.9808C73.1223 62.1385 72.6578 62.2173 72.1167 62.2173ZM72.5321 60.6832C73.0605 60.6832 73.5123 60.5788 73.8873 60.37C74.2665 60.1612 74.5542 59.8885 74.7502 59.5518C74.9505 59.2109 75.0506 58.8466 75.0506 58.4588V57.1932C74.9824 57.2614 74.8503 57.3253 74.6543 57.3849C74.4625 57.4403 74.2431 57.4893 73.9959 57.532C73.7488 57.5703 73.508 57.6065 73.2736 57.6406C73.0392 57.6705 72.8432 57.696 72.6855 57.7173C72.3148 57.7642 71.976 57.843 71.6692 57.9538C71.3667 58.0646 71.1238 58.2244 70.9405 58.4332C70.7615 58.6378 70.6721 58.9105 70.6721 59.2514C70.6721 59.7244 70.8468 60.0824 71.1962 60.3253C71.5456 60.5639 71.9909 60.6832 72.5321 60.6832ZM84.0906 52.1818V53.7159H78.7276V52.1818H84.0906ZM80.1658 49.8295H82.0771V59.1172C82.0771 59.4879 82.1325 59.767 82.2433 59.9545C82.354 60.1378 82.4968 60.2635 82.6715 60.3317C82.8505 60.3956 83.0444 60.4276 83.2532 60.4276C83.4066 60.4276 83.5408 60.4169 83.6559 60.3956C83.771 60.3743 83.8604 60.3572 83.9244 60.3445L84.2695 61.9233C84.1587 61.9659 84.0011 62.0085 83.7965 62.0511C83.592 62.098 83.3363 62.1236 83.0295 62.1278C82.5266 62.1364 82.0579 62.0469 81.6232 61.8594C81.1886 61.6719 80.837 61.3821 80.5685 60.9901C80.3001 60.598 80.1658 60.1058 80.1658 59.5135V49.8295ZM86.2047 62V52.1818H88.1159V62H86.2047ZM87.1699 50.6669C86.8375 50.6669 86.552 50.5561 86.3134 50.3345C86.079 50.1087 85.9618 49.8402 85.9618 49.5291C85.9618 49.2138 86.079 48.9453 86.3134 48.7237C86.552 48.4979 86.8375 48.3849 87.1699 48.3849C87.5023 48.3849 87.7857 48.4979 88.0201 48.7237C88.2587 48.9453 88.378 49.2138 88.378 49.5291C88.378 49.8402 88.2587 50.1087 88.0201 50.3345C87.7857 50.5561 87.5023 50.6669 87.1699 50.6669ZM92.5984 56.1705V62H90.6871V52.1818H92.5217V53.7798H92.6431C92.869 53.2599 93.2227 52.8423 93.7042 52.527C94.19 52.2116 94.8015 52.054 95.5387 52.054C96.2077 52.054 96.7937 52.1946 97.2965 52.4759C97.7994 52.7528 98.1893 53.1662 98.4663 53.7159C98.7433 54.2656 98.8817 54.9453 98.8817 55.755V62H96.9705V55.9851C96.9705 55.2734 96.7852 54.7173 96.4144 54.3168C96.0437 53.9119 95.5344 53.7095 94.8867 53.7095C94.4435 53.7095 94.0494 53.8054 93.7042 53.9972C93.3633 54.1889 93.0927 54.4702 92.8924 54.8409C92.6964 55.2074 92.5984 55.6506 92.5984 56.1705ZM105.561 65.8864C104.782 65.8864 104.11 65.7841 103.548 65.5795C102.99 65.375 102.534 65.1044 102.18 64.7678C101.826 64.4311 101.562 64.0625 101.387 63.6619L103.03 62.9844C103.145 63.1719 103.299 63.37 103.49 63.5788C103.686 63.7919 103.951 63.973 104.283 64.1222C104.62 64.2713 105.052 64.3459 105.581 64.3459C106.305 64.3459 106.904 64.169 107.377 63.8153C107.85 63.4659 108.086 62.9077 108.086 62.1406V60.2102H107.965C107.85 60.419 107.684 60.6513 107.466 60.907C107.253 61.1626 106.959 61.3842 106.584 61.5717C106.209 61.7592 105.721 61.853 105.12 61.853C104.345 61.853 103.646 61.6719 103.024 61.3097C102.406 60.9432 101.916 60.4041 101.554 59.6925C101.196 58.9766 101.017 58.0966 101.017 57.0526C101.017 56.0085 101.194 55.1136 101.547 54.3679C101.905 53.6222 102.395 53.0511 103.017 52.6548C103.64 52.2543 104.345 52.054 105.133 52.054C105.743 52.054 106.235 52.1562 106.61 52.3608C106.985 52.5611 107.277 52.7955 107.485 53.0639C107.699 53.3324 107.863 53.5689 107.978 53.7734H108.118V52.1818H109.991V62.2173C109.991 63.0611 109.795 63.7536 109.403 64.2947C109.011 64.8359 108.48 65.2365 107.811 65.4964C107.147 65.7564 106.397 65.8864 105.561 65.8864ZM105.542 60.2678C106.092 60.2678 106.556 60.1399 106.936 59.8842C107.319 59.6243 107.609 59.2536 107.805 58.772C108.005 58.2862 108.105 57.7045 108.105 57.027C108.105 56.3665 108.007 55.7848 107.811 55.282C107.615 54.7791 107.328 54.3871 106.949 54.1058C106.569 53.8203 106.1 53.6776 105.542 53.6776C104.967 53.6776 104.488 53.8267 104.104 54.125C103.721 54.419 103.431 54.8196 103.235 55.3267C103.043 55.8338 102.947 56.4006 102.947 57.027C102.947 57.6705 103.045 58.2351 103.241 58.7209C103.437 59.2067 103.727 59.5859 104.11 59.8587C104.498 60.1314 104.975 60.2678 105.542 60.2678Z" fill="#191A15"/>
<path d="M12.6882 93.4922H9.88849C9.83736 93.13 9.73295 92.8082 9.57528 92.527C9.41761 92.2415 9.2152 91.9986 8.96804 91.7983C8.72088 91.598 8.43537 91.4446 8.11151 91.3381C7.7919 91.2315 7.4446 91.1783 7.0696 91.1783C6.39205 91.1783 5.80185 91.3466 5.29901 91.6832C4.79617 92.0156 4.40625 92.5014 4.12926 93.1406C3.85227 93.7756 3.71378 94.5469 3.71378 95.4545C3.71378 96.3878 3.85227 97.1719 4.12926 97.8068C4.41051 98.4418 4.80256 98.9212 5.3054 99.245C5.80824 99.5689 6.38992 99.7308 7.05043 99.7308C7.42117 99.7308 7.7642 99.6818 8.07955 99.5838C8.39915 99.4858 8.68253 99.343 8.92969 99.1555C9.17685 98.9638 9.38139 98.7315 9.54332 98.4588C9.70952 98.1861 9.82457 97.875 9.88849 97.5256L12.6882 97.5384C12.6158 98.1392 12.4347 98.7188 12.1449 99.277C11.8594 99.831 11.4737 100.327 10.9879 100.766C10.5064 101.201 9.93111 101.546 9.26207 101.802C8.5973 102.053 7.84517 102.179 7.00568 102.179C5.83807 102.179 4.79403 101.915 3.87358 101.386C2.95739 100.858 2.23295 100.093 1.70028 99.0916C1.17188 98.0902 0.90767 96.8778 0.90767 95.4545C0.90767 94.027 1.17614 92.8125 1.71307 91.8111C2.25 90.8097 2.97869 90.0469 3.89915 89.5227C4.8196 88.9943 5.85511 88.7301 7.00568 88.7301C7.7642 88.7301 8.46733 88.8366 9.11506 89.0497C9.76705 89.2628 10.3445 89.5739 10.8473 89.983C11.3501 90.3878 11.7592 90.8842 12.0746 91.4723C12.3942 92.0604 12.5987 92.7337 12.6882 93.4922ZM17.3448 96.3239V102H14.6218V88.9091H17.2681V93.9141H17.3832C17.6048 93.3345 17.9627 92.8807 18.457 92.5526C18.9513 92.2202 19.5714 92.054 20.3171 92.054C20.9989 92.054 21.5934 92.2031 22.1005 92.5014C22.6119 92.7955 23.0082 93.2195 23.2894 93.7734C23.5749 94.3232 23.7156 94.9815 23.7113 95.7486V102H20.9883V96.2344C20.9925 95.6293 20.8391 95.1584 20.5281 94.8217C20.2212 94.4851 19.7908 94.3168 19.2369 94.3168C18.8661 94.3168 18.538 94.3956 18.2525 94.5533C17.9712 94.7109 17.7496 94.9411 17.5877 95.2436C17.43 95.5419 17.3491 95.902 17.3448 96.3239ZM28.6539 102.185C28.0275 102.185 27.4693 102.077 26.9792 101.859C26.4892 101.638 26.1014 101.312 25.8159 100.881C25.5346 100.447 25.394 99.9055 25.394 99.2578C25.394 98.7124 25.4941 98.2543 25.6944 97.8835C25.8947 97.5128 26.1674 97.2145 26.5126 96.9886C26.8578 96.7628 27.2498 96.5923 27.6887 96.4773C28.1319 96.3622 28.5964 96.2812 29.0822 96.2344C29.6532 96.1747 30.1135 96.1193 30.4629 96.0682C30.8123 96.0128 31.0659 95.9318 31.2235 95.8253C31.3812 95.7187 31.4601 95.5611 31.4601 95.3523V95.3139C31.4601 94.9091 31.3322 94.5959 31.0765 94.3743C30.8251 94.1527 30.4672 94.0419 30.0027 94.0419C29.5126 94.0419 29.1227 94.1506 28.8329 94.3679C28.5431 94.581 28.3514 94.8494 28.2576 95.1733L25.7392 94.9688C25.867 94.3722 26.1184 93.8565 26.4934 93.4219C26.8684 92.983 27.3521 92.6463 27.9444 92.4119C28.541 92.1733 29.2314 92.054 30.0154 92.054C30.5609 92.054 31.0829 92.1179 31.5815 92.2457C32.0843 92.3736 32.5297 92.5717 32.9174 92.8402C33.3095 93.1087 33.6184 93.4538 33.8443 93.8757C34.0701 94.2933 34.1831 94.794 34.1831 95.3778V102H31.6007V100.638H31.524C31.3663 100.945 31.1554 101.216 30.8912 101.45C30.627 101.68 30.3095 101.862 29.9387 101.994C29.568 102.121 29.1397 102.185 28.6539 102.185ZM29.4338 100.306C29.8343 100.306 30.188 100.227 30.4949 100.07C30.8017 99.9077 31.0424 99.6903 31.2172 99.4176C31.3919 99.1449 31.4792 98.8359 31.4792 98.4908V97.4489C31.394 97.5043 31.2768 97.5554 31.1277 97.6023C30.9828 97.6449 30.8187 97.6854 30.6355 97.7237C30.4522 97.7578 30.269 97.7898 30.0858 97.8196C29.9025 97.8452 29.7363 97.8686 29.5872 97.8899C29.2676 97.9368 28.9885 98.0114 28.7498 98.1136C28.5112 98.2159 28.3258 98.3544 28.1937 98.5291C28.0616 98.6996 27.9956 98.9126 27.9956 99.1683C27.9956 99.5391 28.1298 99.8224 28.3983 100.018C28.671 100.21 29.0162 100.306 29.4338 100.306ZM36.2956 102V92.1818H39.0186V102H36.2956ZM37.6635 90.9162C37.2587 90.9162 36.9114 90.782 36.6216 90.5135C36.3361 90.2408 36.1934 89.9148 36.1934 89.5355C36.1934 89.1605 36.3361 88.8388 36.6216 88.5703C36.9114 88.2976 37.2587 88.1612 37.6635 88.1612C38.0684 88.1612 38.4135 88.2976 38.699 88.5703C38.9888 88.8388 39.1337 89.1605 39.1337 89.5355C39.1337 89.9148 38.9888 90.2408 38.699 90.5135C38.4135 90.782 38.0684 90.9162 37.6635 90.9162ZM43.9229 96.3239V102H41.1999V92.1818H43.7951V93.9141H43.9102C44.1275 93.343 44.4918 92.8913 45.0032 92.5589C45.5146 92.2223 46.1346 92.054 46.8633 92.054C47.5451 92.054 48.1396 92.2031 48.6467 92.5014C49.1538 92.7997 49.5479 93.2259 49.8292 93.7798C50.1104 94.3295 50.2511 94.9858 50.2511 95.7486V102H47.5281V96.2344C47.5323 95.6335 47.3789 95.1648 47.0678 94.8281C46.7567 94.4872 46.3285 94.3168 45.783 94.3168C45.4165 94.3168 45.0927 94.3956 44.8114 94.5533C44.5344 94.7109 44.3171 94.9411 44.1594 95.2436C44.006 95.5419 43.9272 95.902 43.9229 96.3239ZM55.1969 102.185C54.5705 102.185 54.0123 102.077 53.5222 101.859C53.0321 101.638 52.6444 101.312 52.3588 100.881C52.0776 100.447 51.937 99.9055 51.937 99.2578C51.937 98.7124 52.0371 98.2543 52.2374 97.8835C52.4377 97.5128 52.7104 97.2145 53.0556 96.9886C53.4007 96.7628 53.7928 96.5923 54.2317 96.4773C54.6749 96.3622 55.1394 96.2812 55.6252 96.2344C56.1962 96.1747 56.6564 96.1193 57.0059 96.0682C57.3553 96.0128 57.6088 95.9318 57.7665 95.8253C57.9242 95.7187 58.003 95.5611 58.003 95.3523V95.3139C58.003 94.9091 57.8752 94.5959 57.6195 94.3743C57.3681 94.1527 57.0101 94.0419 56.5456 94.0419C56.0556 94.0419 55.6657 94.1506 55.3759 94.3679C55.0861 94.581 54.8944 94.8494 54.8006 95.1733L52.2821 94.9688C52.41 94.3722 52.6614 93.8565 53.0364 93.4219C53.4114 92.983 53.8951 92.6463 54.4874 92.4119C55.084 92.1733 55.7743 92.054 56.5584 92.054C57.1039 92.054 57.6259 92.1179 58.1245 92.2457C58.6273 92.3736 59.0726 92.5717 59.4604 92.8402C59.8525 93.1087 60.1614 93.4538 60.3873 93.8757C60.6131 94.2933 60.726 94.794 60.726 95.3778V102H58.1436V100.638H58.0669C57.9093 100.945 57.6983 101.216 57.4341 101.45C57.1699 101.68 56.8525 101.862 56.4817 101.994C56.111 102.121 55.6827 102.185 55.1969 102.185ZM55.9767 100.306C56.3773 100.306 56.731 100.227 57.0378 100.07C57.3446 99.9077 57.5854 99.6903 57.7601 99.4176C57.9348 99.1449 58.0222 98.8359 58.0222 98.4908V97.4489C57.937 97.5043 57.8198 97.5554 57.6706 97.6023C57.5257 97.6449 57.3617 97.6854 57.1784 97.7237C56.9952 97.7578 56.812 97.7898 56.6287 97.8196C56.4455 97.8452 56.2793 97.8686 56.1301 97.8899C55.8105 97.9368 55.5314 98.0114 55.2928 98.1136C55.0542 98.2159 54.8688 98.3544 54.7367 98.5291C54.6046 98.6996 54.5385 98.9126 54.5385 99.1683C54.5385 99.5391 54.6728 99.8224 54.9412 100.018C55.214 100.21 55.5591 100.306 55.9767 100.306ZM65.5616 88.9091V102H62.8386V88.9091H65.5616ZM69.424 105.682C69.0788 105.682 68.755 105.654 68.4524 105.599C68.1541 105.548 67.907 105.482 67.7109 105.401L68.3246 103.368C68.6442 103.466 68.9318 103.519 69.1875 103.528C69.4474 103.536 69.6712 103.477 69.8587 103.349C70.0504 103.221 70.206 103.004 70.3253 102.697L70.4851 102.281L66.9631 92.1818H69.8267L71.8594 99.392H71.9616L74.0135 92.1818H76.8963L73.0803 103.061C72.897 103.589 72.6477 104.05 72.3324 104.442C72.0213 104.838 71.6271 105.143 71.1499 105.356C70.6726 105.573 70.0973 105.682 69.424 105.682ZM86.4588 94.9815L83.9659 95.1349C83.9233 94.9219 83.8317 94.7301 83.6911 94.5597C83.5504 94.3849 83.3651 94.2464 83.1349 94.1442C82.9091 94.0376 82.6385 93.9844 82.3232 93.9844C81.9013 93.9844 81.5455 94.0739 81.2557 94.2528C80.9659 94.4276 80.821 94.6619 80.821 94.956C80.821 95.1903 80.9148 95.3885 81.1023 95.5504C81.2898 95.7124 81.6115 95.8423 82.0675 95.9403L83.8445 96.2983C84.799 96.4943 85.5107 96.8097 85.9794 97.2443C86.4482 97.679 86.6825 98.25 86.6825 98.9574C86.6825 99.6009 86.4929 100.165 86.1136 100.651C85.7386 101.137 85.223 101.516 84.5668 101.789C83.9148 102.058 83.1626 102.192 82.3104 102.192C81.0107 102.192 79.9751 101.921 79.2038 101.38C78.4368 100.835 77.9872 100.093 77.8551 99.1555L80.5334 99.0149C80.6143 99.4112 80.8104 99.7138 81.1214 99.9226C81.4325 100.127 81.831 100.229 82.3168 100.229C82.794 100.229 83.1776 100.138 83.4673 99.9545C83.7614 99.767 83.9105 99.5263 83.9148 99.2322C83.9105 98.9851 83.8061 98.7827 83.6016 98.625C83.397 98.4631 83.0817 98.3395 82.6555 98.2543L80.9553 97.9155C79.9964 97.7237 79.2827 97.3913 78.8139 96.9183C78.3494 96.4453 78.1172 95.8423 78.1172 95.1094C78.1172 94.4787 78.2876 93.9354 78.6286 93.4794C78.9737 93.0234 79.4574 92.6719 80.0795 92.4247C80.706 92.1776 81.4389 92.054 82.2784 92.054C83.5185 92.054 84.4943 92.3161 85.206 92.8402C85.9219 93.3643 86.3395 94.0781 86.4588 94.9815ZM88.3972 102V92.1818H91.1202V102H88.3972ZM89.7651 90.9162C89.3603 90.9162 89.013 90.782 88.7232 90.5135C88.4377 90.2408 88.2949 89.9148 88.2949 89.5355C88.2949 89.1605 88.4377 88.8388 88.7232 88.5703C89.013 88.2976 89.3603 88.1612 89.7651 88.1612C90.1699 88.1612 90.5151 88.2976 90.8006 88.5703C91.0904 88.8388 91.2353 89.1605 91.2353 89.5355C91.2353 89.9148 91.0904 90.2408 90.8006 90.5135C90.5151 90.782 90.1699 90.9162 89.7651 90.9162ZM101.471 94.9815L98.9776 95.1349C98.935 94.9219 98.8434 94.7301 98.7028 94.5597C98.5621 94.3849 98.3768 94.2464 98.1467 94.1442C97.9208 94.0376 97.6502 93.9844 97.3349 93.9844C96.913 93.9844 96.5572 94.0739 96.2674 94.2528C95.9776 94.4276 95.8327 94.6619 95.8327 94.956C95.8327 95.1903 95.9265 95.3885 96.114 95.5504C96.3015 95.7124 96.6232 95.8423 97.0792 95.9403L98.8562 96.2983C99.8107 96.4943 100.522 96.8097 100.991 97.2443C101.46 97.679 101.694 98.25 101.694 98.9574C101.694 99.6009 101.505 100.165 101.125 100.651C100.75 101.137 100.235 101.516 99.5785 101.789C98.9265 102.058 98.1744 102.192 97.3221 102.192C96.0224 102.192 94.9869 101.921 94.2156 101.38C93.4485 100.835 92.9989 100.093 92.8668 99.1555L95.5451 99.0149C95.6261 99.4112 95.8221 99.7138 96.1332 99.9226C96.4442 100.127 96.8427 100.229 97.3285 100.229C97.8058 100.229 98.1893 100.138 98.479 99.9545C98.7731 99.767 98.9222 99.5263 98.9265 99.2322C98.9222 98.9851 98.8178 98.7827 98.6133 98.625C98.4087 98.4631 98.0934 98.3395 97.6673 98.2543L95.967 97.9155C95.0082 97.7237 94.2944 97.3913 93.8256 96.9183C93.3612 96.4453 93.1289 95.8423 93.1289 95.1094C93.1289 94.4787 93.2994 93.9354 93.6403 93.4794C93.9854 93.0234 94.4691 92.6719 95.0913 92.4247C95.7177 92.1776 96.4506 92.054 97.2901 92.054C98.5302 92.054 99.506 92.3161 100.218 92.8402C100.934 93.3643 101.351 94.0781 101.471 94.9815Z" fill="#A6A6A6"/>
</svg>
