<svg width="20" height="20" viewBox="0 0 20 20" fill="none" xmlns="http://www.w3.org/2000/svg">
<path opacity="0.3" d="M10 7.39453L19.0234 4.15234V5.37109L10 8.71484V7.39453Z" fill="#9FAFFF"/>
<path d="M18.5938 15.0547C18.5938 15.6758 18.3203 16.207 17.9258 16.4531C17.7773 16.5469 17.6133 16.5977 17.4375 16.5977C17.2617 16.5977 17.0977 16.5469 16.9492 16.4531C16.5547 16.207 16.2812 15.6758 16.2812 15.0547C16.2812 14.2031 16.7969 13.5117 17.4375 13.5117C18.0781 13.5117 18.5938 14.2031 18.5938 15.0547Z" fill="#5C77FF"/>
<path d="M19.4062 3.66406L10.1172 0.636719C10.043 0.605469 9.95703 0.605469 9.88281 0.636719L0.59375 3.66406C0.472656 3.70313 0.390625 3.81641 0.390625 3.94141V5.57422C0.390625 5.69531 0.46875 5.80469 0.582031 5.84766L4.46094 7.28516V11.2578C4.46094 11.3281 4.48438 11.3945 4.53125 11.4492C4.55078 11.4727 5.04688 12.0508 5.96875 12.6328C6.81641 13.168 8.20312 13.8008 9.99609 13.8047H10.0078C11.7969 13.8008 13.1836 13.168 14.0312 12.6328C14.9531 12.0547 15.4492 11.4766 15.4688 11.4492C15.5156 11.3945 15.5391 11.3281 15.5391 11.2578V7.28516L17.1445 6.69141V13.5078C17.1445 13.668 17.2773 13.8008 17.4375 13.8008C17.5977 13.8008 17.7305 13.668 17.7305 13.5078V6.47266L19.418 5.84766C19.5312 5.80469 19.6094 5.69531 19.6094 5.57422V3.94141C19.6094 3.81641 19.5273 3.70313 19.4062 3.66406ZM14.9531 11.1445C14.793 11.3125 14.3633 11.7305 13.7031 12.1445C12.9258 12.6328 11.6523 13.2109 10.0078 13.2148H9.99609C8.35156 13.2148 7.07812 12.6328 6.29688 12.1445C5.63281 11.7305 5.20312 11.3125 5.04688 11.1445V7.50391L5.65625 7.73047L9.85156 9.28516C9.89453 9.30859 9.94531 9.32422 9.99609 9.32422C10 9.32422 10 9.32422 10.0039 9.32422C10.0078 9.32422 10.0117 9.32422 10.0117 9.32422C10.0586 9.32422 10.1094 9.3125 10.1562 9.28516L14.957 7.50391V11.1445H14.9531ZM19.0234 5.37109L17.4336 5.96094L10.043 3.38281C9.89062 3.32812 9.72266 3.41016 9.66797 3.5625C9.61328 3.71484 9.69531 3.88281 9.84766 3.9375L16.5664 6.28125L15.1367 6.80859L10 8.71484L4.85547 6.80859L0.976562 5.37109V4.15625L10 1.21875L19.0234 4.15625V5.37109Z" fill="#284172"/>
<path d="M18.5938 19.3867H16.2852L16.9531 16.4531C17.1016 16.5469 17.2656 16.5977 17.4414 16.5977C17.6172 16.5977 17.7813 16.5469 17.9297 16.4531L18.5938 19.3867Z" fill="#A4B8FF"/>
<path opacity="0.3" d="M0.976562 4.15234L10 7.39453V8.71484L0.976562 5.37109V4.15234Z" fill="#485EFF"/>
<path opacity="0.3" d="M14.9531 9.80078L11.0508 11.6094C10.3828 11.918 9.60937 11.9297 8.93359 11.6328L5.04297 9.93359V7.50781L9.98828 9.32422L14.9492 7.50781V9.80078H14.9531Z" fill="#485EFF"/>
</svg>
