<svg width="18" height="20" viewBox="0 0 18 20" fill="none" xmlns="http://www.w3.org/2000/svg">
<path d="M1.09659 7.04375C0.854232 7.1047 0.644533 7.25638 0.510782 7.46747C0.377031 7.67856 0.329441 7.93296 0.377836 8.17812L1.49971 13.8125C1.51594 13.8911 1.56182 13.9605 1.62784 14.0063L4.62471 16.1V18.75C4.62471 18.8329 4.65763 18.9124 4.71624 18.971C4.77484 19.0296 4.85433 19.0625 4.93721 19.0625H8.06221C8.14509 19.0625 8.22458 19.0296 8.28318 18.971C8.34179 18.9124 8.37471 18.8329 8.37471 18.75V14.5594C8.37434 14.0679 8.24517 13.5851 8.00008 13.159C7.75499 12.733 7.40254 12.3786 6.97784 12.1313L5.32471 11.1656C5.17994 11.0814 5.01871 11.0293 4.85201 11.013C4.6853 10.9967 4.51704 11.0165 4.35868 11.071C4.20031 11.1256 4.05557 11.2136 3.9343 11.3292C3.81304 11.4447 3.7181 11.5851 3.65596 11.7406C3.60354 11.8666 3.57493 12.0011 3.57159 12.1375L3.33409 11.9906L2.27471 7.75C2.24403 7.6261 2.18916 7.50948 2.11327 7.40685C2.03737 7.30422 1.94194 7.2176 1.83246 7.15197C1.72298 7.08634 1.60161 7.043 1.47532 7.02443C1.34904 7.00585 1.22033 7.01242 1.09659 7.04375ZM2.89659 12.4531L5.39659 14.0156C5.46636 14.059 5.5504 14.0731 5.63052 14.055C5.71064 14.0369 5.78041 13.9879 5.82471 13.9188C5.86866 13.8497 5.88379 13.7662 5.86685 13.6862C5.8499 13.6061 5.80223 13.5359 5.73409 13.4906L4.43721 12.625C4.31538 12.5492 4.22866 12.428 4.19613 12.2883C4.16361 12.1485 4.18794 12.0015 4.26377 11.8797C4.33961 11.7579 4.46074 11.6711 4.60051 11.6386C4.74028 11.6061 4.88725 11.6304 5.00909 11.7062L6.66534 12.6719C6.9933 12.8634 7.26575 13.137 7.45588 13.4657C7.64601 13.7945 7.74728 14.1671 7.74971 14.5469V18.4375H5.24971V15.9375C5.24963 15.8871 5.23737 15.8375 5.21397 15.7929C5.19057 15.7483 5.15673 15.71 5.11534 15.6812L2.09346 13.5656L0.993461 8.05625C0.979874 7.96938 0.99978 7.8806 1.04915 7.80785C1.09853 7.7351 1.17369 7.68382 1.25943 7.66437C1.34517 7.64491 1.4351 7.65875 1.51104 7.70307C1.58697 7.7474 1.64324 7.8189 1.66846 7.90313L2.75909 12.2781C2.78189 12.3514 2.83083 12.4136 2.89659 12.4531ZM14.4278 12.1375C14.4245 12.0011 14.3959 11.8666 14.3435 11.7406C14.2813 11.5851 14.1864 11.4447 14.0651 11.3292C13.9439 11.2136 13.7991 11.1256 13.6407 11.071C13.4824 11.0165 13.3141 10.9967 13.1474 11.013C12.9807 11.0293 12.8195 11.0814 12.6747 11.1656L11.0216 12.1313C10.5969 12.3786 10.2444 12.733 9.99934 13.159C9.75425 13.5851 9.62508 14.0679 9.62471 14.5594V18.75C9.62471 18.8329 9.65763 18.9124 9.71624 18.971C9.77485 19.0296 9.85433 19.0625 9.93721 19.0625H13.0622C13.1451 19.0625 13.2246 19.0296 13.2832 18.971C13.3418 18.9124 13.3747 18.8329 13.3747 18.75V16.1L16.3653 14.0063C16.4337 13.9617 16.4819 13.8922 16.4997 13.8125L17.6278 8.1875C17.6846 7.93596 17.6391 7.67217 17.5014 7.45416C17.3637 7.23614 17.145 7.08177 16.8935 7.025C16.6419 6.96823 16.3781 7.0137 16.1601 7.15143C15.9421 7.28915 15.7877 7.50783 15.731 7.75938L14.6653 11.9906L14.4278 12.1375ZM15.2403 12.2625L16.331 7.8875C16.3531 7.79853 16.4096 7.72196 16.4881 7.67452C16.5666 7.62709 16.6606 7.61265 16.7497 7.63438C16.8364 7.65664 16.9113 7.71096 16.9595 7.78637C17.0076 7.86178 17.0254 7.95265 17.0091 8.04062L15.906 13.5656L12.8841 15.6812C12.8427 15.71 12.8089 15.7483 12.7855 15.7929C12.7621 15.8375 12.7498 15.8871 12.7497 15.9375V18.4375H10.2497V14.5594C10.2521 14.1796 10.3534 13.807 10.5435 13.4782C10.7337 13.1495 11.0061 12.8759 11.3341 12.6844L12.9903 11.7188C13.1094 11.6643 13.2441 11.6548 13.3696 11.6922C13.495 11.7295 13.6027 11.8111 13.6725 11.9218C13.7424 12.0325 13.7697 12.1648 13.7494 12.2941C13.7291 12.4234 13.6626 12.541 13.5622 12.625L12.2653 13.4906C12.1972 13.5359 12.1495 13.6061 12.1326 13.6862C12.1156 13.7662 12.1308 13.8497 12.1747 13.9188C12.219 13.9879 12.2888 14.0369 12.3689 14.055C12.449 14.0731 12.5331 14.059 12.6028 14.0156L15.1028 12.4531C15.1387 12.4326 15.1701 12.4052 15.1954 12.3725C15.2206 12.3398 15.239 12.3024 15.2497 12.2625H15.2403ZM4.31221 6.875V7.5H3.53096C3.46889 7.49964 3.40812 7.51777 3.35639 7.55208C3.30467 7.5864 3.26433 7.63534 3.24053 7.69266C3.21673 7.74999 3.21054 7.8131 3.22275 7.87396C3.23496 7.93482 3.26501 7.99066 3.30909 8.03437L4.24659 8.97187C4.27579 9.00084 4.31042 9.02375 4.34849 9.0393C4.38656 9.05486 4.42733 9.06274 4.46846 9.0625H13.531C13.5721 9.06274 13.6129 9.05486 13.6509 9.0393C13.689 9.02375 13.7236 9.00084 13.7528 8.97187L14.6903 8.03437C14.7344 7.99066 14.7645 7.93482 14.7767 7.87396C14.7889 7.8131 14.7827 7.74999 14.7589 7.69266C14.7351 7.63534 14.6948 7.5864 14.643 7.55208C14.5913 7.51777 14.5305 7.49964 14.4685 7.5H13.6872V6.875C13.6863 5.77663 13.2997 4.71345 12.5949 3.87102C11.8902 3.02859 10.9119 2.4604 9.83096 2.26562L9.89034 1.7625C9.90269 1.65909 9.89301 1.55423 9.86191 1.45483C9.83082 1.35543 9.77903 1.26375 9.70995 1.18581C9.64087 1.10787 9.55606 1.04545 9.46112 1.00265C9.36617 0.959851 9.26323 0.937647 9.15909 0.9375H8.84659C8.74244 0.937647 8.6395 0.959851 8.54456 1.00265C8.44961 1.04545 8.3648 1.10787 8.29572 1.18581C8.22664 1.26375 8.17485 1.35543 8.14376 1.45483C8.11267 1.55423 8.10298 1.65909 8.11534 1.7625L8.17471 2.26562C7.0926 2.4591 6.11291 3.02672 5.40687 3.86928C4.70083 4.71184 4.31337 5.77573 4.31221 6.875ZM13.4028 8.4375H4.59659L4.28409 8.125H13.7153L13.4028 8.4375ZM8.71534 1.6875C8.71406 1.67181 8.71599 1.65602 8.72103 1.6411C8.72607 1.62618 8.7341 1.61245 8.74463 1.60074C8.75517 1.58904 8.76798 1.57961 8.78229 1.57303C8.79659 1.56646 8.81209 1.56287 8.82784 1.5625H9.14034C9.15608 1.56287 9.17158 1.56646 9.18588 1.57303C9.20019 1.57961 9.213 1.58904 9.22354 1.60074C9.23407 1.61245 9.2421 1.62618 9.24714 1.6411C9.25218 1.65602 9.25412 1.67181 9.25284 1.6875L9.20909 2.1875C9.14034 2.1875 9.07159 2.1875 8.99971 2.1875C8.92784 2.1875 8.85909 2.1875 8.79034 2.1875L8.71534 1.6875ZM8.99971 2.8125C10.0772 2.8125 11.1105 3.24051 11.8723 4.00238C12.6342 4.76425 13.0622 5.79756 13.0622 6.875V7.5H4.93721V6.875C4.93721 5.79756 5.36522 4.76425 6.12709 4.00238C6.88896 3.24051 7.92227 2.8125 8.99971 2.8125Z" fill="#0A0A0A"/>
</svg>
