<svg width="16" height="20" viewBox="0 0 16 20" fill="none" xmlns="http://www.w3.org/2000/svg">
<path d="M6.80519 16.9963L6.6755 16.9808L6.79356 15.9815C6.82874 15.6849 6.79859 15.3842 6.70522 15.1005C6.61186 14.8168 6.45754 14.5569 6.25309 14.3392L2.76499 10.6166L3.23689 8.24129C3.26285 8.11053 3.26223 7.97588 3.23508 7.84536C3.20792 7.71484 3.15478 7.59112 3.07882 7.48156C3.00287 7.37201 2.90564 7.27885 2.79294 7.20765C2.68023 7.13644 2.55435 7.08864 2.42279 7.06709C2.36937 7.05839 2.31533 7.05399 2.2612 7.05393C2.0495 7.05334 1.84319 7.12066 1.67257 7.24599C1.50196 7.37133 1.37603 7.54807 1.31329 7.75026L0.36259 10.7817C0.190408 11.3328 0.203201 11.9252 0.399021 12.4685L1.09509 14.3916C1.26212 14.8529 1.55448 15.2584 1.93932 15.5626L2.37324 15.9056C2.46506 15.9786 2.54141 16.0692 2.59785 16.172C2.65429 16.2749 2.68968 16.3879 2.70195 16.5046C2.481 16.4843 2.26083 16.5508 2.08816 16.6902C1.91549 16.8295 1.80392 17.0307 1.77712 17.2509L1.71578 17.7622L1.71574 17.7624L1.71572 17.7627L1.56136 19.0492C1.5521 19.1264 1.57387 19.2041 1.62187 19.2651C1.66987 19.3262 1.74018 19.3658 1.81732 19.375C1.89447 19.3843 1.97213 19.3625 2.03322 19.3145C2.09432 19.2665 2.13384 19.1962 2.1431 19.1191L2.2621 18.1272L6.86817 18.713L6.75309 19.6721C6.7485 19.7103 6.75149 19.7491 6.76187 19.7861C6.77225 19.8232 6.78983 19.8578 6.8136 19.888C6.83737 19.9183 6.86686 19.9436 6.9004 19.9624C6.93393 19.9813 6.97085 19.9933 7.00905 19.9979C7.04725 20.0025 7.08598 19.9995 7.12302 19.9891C7.16006 19.9788 7.1947 19.9612 7.22495 19.9374C7.2552 19.9136 7.28048 19.8841 7.29933 19.8506C7.31818 19.8171 7.33024 19.7802 7.33483 19.742L7.4842 18.497L7.48436 18.496L7.48445 18.4949L7.55059 17.9437C7.56385 17.8325 7.55509 17.7199 7.5248 17.6121C7.49452 17.5043 7.44331 17.4036 7.37409 17.3156C7.30488 17.2277 7.21901 17.1542 7.1214 17.0994C7.02379 17.0446 6.91634 17.0096 6.8052 16.9963L6.80519 16.9963ZM2.30275 15.1031C2.00339 14.8664 1.77596 14.5509 1.64601 14.1921L0.949902 12.2689C0.79763 11.8465 0.78769 11.3858 0.921597 10.9572L1.87233 7.9257C1.89806 7.84273 1.94971 7.77019 2.0197 7.71875C2.08969 7.6673 2.17434 7.63965 2.2612 7.63987C2.28371 7.63992 2.30617 7.64175 2.32838 7.64536C2.38234 7.65424 2.43397 7.67389 2.48019 7.70313C2.5264 7.73237 2.56626 7.77061 2.5974 7.81557C2.62854 7.86053 2.65031 7.9113 2.66143 7.96484C2.67255 8.01839 2.67279 8.07363 2.66213 8.12727L2.18572 10.5253C1.92499 10.7049 1.7396 10.9743 1.665 11.282C1.59041 11.5897 1.63183 11.9142 1.78135 12.1932L2.61143 13.746C2.64809 13.8145 2.71044 13.8656 2.78478 13.8881C2.85912 13.9106 2.93936 13.9027 3.00786 13.8661C3.07637 13.8295 3.12752 13.7671 3.15008 13.6928C3.17264 13.6185 3.16476 13.5382 3.12817 13.4697L2.29802 11.9168C2.24317 11.8153 2.21453 11.7017 2.2147 11.5864C2.21446 11.4038 2.28526 11.2282 2.41211 11.0969L5.82554 14.7398C5.97157 14.8953 6.08181 15.0809 6.14851 15.2836C6.21521 15.4862 6.23677 15.701 6.21167 15.9129L6.09374 16.911L3.29232 16.5748C3.28892 16.3573 3.23731 16.1432 3.14122 15.948C3.04512 15.7528 2.90693 15.5813 2.73659 15.446L2.30275 15.1031ZM6.96884 17.8739L6.93796 18.1312L2.3319 17.5454L2.35886 17.3207C2.36755 17.2506 2.40368 17.1868 2.45931 17.1433C2.51495 17.0998 2.58556 17.0801 2.65568 17.0886L2.95419 17.1244L2.95441 17.1244L6.73539 17.5781C6.80557 17.5863 6.86959 17.6222 6.91337 17.6776C6.95715 17.7331 6.9771 17.8037 6.96885 17.8739L6.96884 17.8739ZM10.9979 8.71618C11.8098 7.5651 12.2389 6.25044 12.2389 4.91426V1.83359C12.2389 1.76361 12.2139 1.69594 12.1683 1.64283C12.1227 1.58972 12.0597 1.55467 11.9905 1.54402C11.244 1.42987 10.514 1.22597 9.81644 0.936756C9.24684 0.700865 8.70422 0.404494 8.1979 0.052738C8.14727 0.0173862 8.08676 -0.00105612 8.02501 4.67313e-05C7.96327 0.00114958 7.90346 0.0217411 7.85412 0.0588787C7.48285 0.337384 7.08652 0.580802 6.67023 0.785998C5.83595 1.19367 4.93966 1.4597 4.01806 1.5732C3.9474 1.58227 3.88246 1.61678 3.83539 1.67027C3.78833 1.72376 3.76237 1.79256 3.76236 1.8638V4.91426C3.76236 6.25044 4.19148 7.5651 5.00336 8.71618C5.70683 9.71346 6.69419 10.5814 7.85874 11.2263C7.90217 11.2503 7.951 11.2629 8.00064 11.2629C8.05029 11.2629 8.09912 11.2503 8.14255 11.2263C9.3071 10.5814 10.2945 9.71346 10.9979 8.71618ZM8.00064 10.6333C6.9748 10.0404 6.10638 9.2634 5.48218 8.37843C4.74037 7.32676 4.3483 6.12883 4.3483 4.91426V2.11817C5.24489 1.98239 6.11545 1.71029 6.92978 1.31132C7.31553 1.12098 7.68556 0.900316 8.03639 0.651418C8.52726 0.975676 9.04795 1.25238 9.59137 1.47776C10.2547 1.75299 10.946 1.9555 11.653 2.08174V4.91426C11.653 6.12883 11.2609 7.32676 10.5191 8.37843C9.89491 9.2634 9.02649 10.0404 8.00064 10.6333ZM11.067 2.79165C11.067 2.72631 11.0452 2.66285 11.005 2.61135C10.9648 2.55985 10.9085 2.52327 10.8451 2.50742C10.3407 2.38146 9.84639 2.2181 9.36627 2.01868C8.96483 1.85179 8.57472 1.65885 8.19844 1.4411C8.15269 1.41459 8.10061 1.40095 8.04774 1.40162C7.99487 1.4023 7.94316 1.41727 7.89811 1.44495C7.66972 1.58529 7.43126 1.71705 7.18937 1.8366C6.54332 2.15429 5.86271 2.39623 5.1611 2.55762C5.0966 2.57256 5.03906 2.60891 4.99786 2.66074C4.95667 2.71257 4.93424 2.77683 4.93424 2.84304V4.91426C4.93424 6.00725 5.28927 7.08834 5.961 8.04068C6.44448 8.72614 7.07588 9.33222 7.83768 9.84205C7.8859 9.87433 7.94262 9.89157 8.00065 9.89157C8.05867 9.89157 8.11539 9.87433 8.16361 9.84205C8.92541 9.33222 9.55681 8.72614 10.0403 8.04068C10.712 7.08834 11.067 6.00725 11.067 4.91426V2.79165ZM10.4811 4.91426C10.4811 5.88568 10.1631 6.84996 9.56146 7.70292C9.13128 8.30017 8.60364 8.82075 8.00064 9.24284C7.39765 8.82075 6.87001 8.30017 6.43982 7.70292C5.83817 6.84996 5.52017 5.88568 5.52017 4.91426V3.07318C6.18606 2.90374 6.83247 2.66535 7.44893 2.36189C7.65469 2.26022 7.85813 2.15025 8.05569 2.0339C8.40725 2.22961 8.76966 2.40515 9.14116 2.55968C9.57755 2.74095 10.0251 2.89402 10.4811 3.01794V4.91426ZM15.6388 10.7819L14.688 7.75015C14.6118 7.50747 14.4455 7.30322 14.2233 7.17943C14.0011 7.05564 13.7399 7.02174 13.4935 7.08468C13.247 7.14763 13.0341 7.30265 12.8985 7.51784C12.7629 7.73302 12.7149 7.992 12.7644 8.24148L13.2363 10.6166L9.74819 14.3392C9.54374 14.5569 9.38942 14.8168 9.29605 15.1005C9.20269 15.3843 9.17254 15.685 9.20773 15.9817L9.32578 16.9808L9.19609 16.9963C9.08495 17.0096 8.9775 17.0446 8.87989 17.0994C8.78228 17.1542 8.69641 17.2277 8.6272 17.3156C8.55798 17.4036 8.50677 17.5043 8.47649 17.6121C8.4462 17.7199 8.43744 17.8325 8.4507 17.9437L8.51684 18.4949L8.51693 18.496L8.51709 18.497L8.66646 19.742C8.67572 19.8191 8.71524 19.8894 8.77634 19.9374C8.83743 19.9854 8.9151 20.0072 8.99224 19.9979C9.06938 19.9887 9.13969 19.9491 9.18769 19.888C9.23569 19.827 9.25746 19.7493 9.24821 19.6721L9.13313 18.713L13.7392 18.1272L13.8582 19.1191C13.8675 19.1961 13.9071 19.2664 13.9681 19.3143C14.0292 19.3623 14.1068 19.384 14.1839 19.3748C14.261 19.3655 14.3313 19.326 14.3793 19.265C14.4273 19.2039 14.4491 19.1264 14.4399 19.0492L14.2856 17.7627L14.2855 17.7624L14.2855 17.7622L14.2242 17.2509C14.1972 17.0307 14.0856 16.8297 13.913 16.6903C13.7404 16.551 13.5203 16.4844 13.2993 16.5046C13.3116 16.3879 13.347 16.2749 13.4034 16.1721C13.4598 16.0692 13.5362 15.9786 13.628 15.9056L14.0621 15.5626C14.4469 15.2583 14.7392 14.8528 14.9062 14.3915L15.6022 12.4686C15.7981 11.9254 15.8109 11.333 15.6388 10.7819ZM13.3456 17.0886C13.4157 17.0802 13.4863 17.0999 13.5419 17.1434C13.5976 17.1869 13.6337 17.2507 13.6424 17.3207L13.6694 17.5454L9.06332 18.1312L9.03244 17.8739C9.02419 17.8037 9.04415 17.7331 9.08793 17.6776C9.13171 17.6222 9.19572 17.5863 9.2659 17.5781L13.0469 17.1244L13.0471 17.1244L13.3456 17.0886ZM15.0513 12.269L14.3553 14.192C14.2254 14.5508 13.998 14.8663 13.6987 15.103L13.2647 15.446C13.0943 15.5814 12.9562 15.7528 12.8601 15.948C12.764 16.1432 12.7124 16.3573 12.709 16.5748L9.90755 16.911L9.78962 15.913C9.76451 15.7011 9.78606 15.4863 9.85277 15.2836C9.91947 15.081 10.0297 14.8953 10.1757 14.7398L13.5892 11.0969C13.716 11.2282 13.7868 11.4038 13.7866 11.5864C13.7867 11.7018 13.7581 11.8154 13.7032 11.917L12.8731 13.4697C12.8365 13.5382 12.8287 13.6185 12.8512 13.6928C12.8738 13.7671 12.9249 13.8295 12.9934 13.8661C13.0619 13.9027 13.1422 13.9106 13.2165 13.8881C13.2908 13.8656 13.3532 13.8145 13.3899 13.746L14.2199 12.1934C14.3694 11.9143 14.4109 11.5899 14.3363 11.2821C14.2617 10.9744 14.0763 10.7049 13.8156 10.5253L13.3392 8.12746C13.3285 8.07388 13.3287 8.01871 13.3398 7.96521C13.3508 7.91171 13.3725 7.86097 13.4036 7.81602C13.4346 7.77107 13.4744 7.73281 13.5205 7.70352C13.5666 7.67423 13.6181 7.6545 13.672 7.64551C13.6945 7.64182 13.7173 7.63993 13.7401 7.63987C13.8269 7.63965 13.9116 7.66728 13.9815 7.7187C14.0515 7.77013 14.1032 7.84264 14.1289 7.92559L15.0798 10.9574C15.2136 11.386 15.2036 11.8466 15.0513 12.269Z" fill="#3C3B41"/>
</svg>
