<svg width="20" height="20" viewBox="0 0 20 20" fill="none" xmlns="http://www.w3.org/2000/svg">
<path d="M17.8757 3.3125H16.6945C15.807 3.3125 15.1695 4.19375 14.8445 5.29375L4.71947 6.45625C4.14447 6.525 3.63197 6.98125 3.51322 7.55L2.63197 11.6312C2.55697 11.9625 2.63197 12.3062 2.83816 12.5625C3.04441 12.8187 3.36316 12.9625 3.70691 12.9625H14.0008C13.707 13.6063 13.232 13.7 12.8507 13.7H2.77578C2.39453 13.7 2.08203 14.0125 2.08203 14.3937C2.08203 14.775 2.39453 15.0813 2.77578 15.0813H12.8508C14.2696 15.0813 15.2508 14.1438 15.5508 12.5438C15.5508 12.5375 15.5508 12.5375 15.5508 12.5375C15.5695 12.4313 15.5883 12.325 15.6008 12.2125C15.6133 12.1187 15.6258 12.0188 15.632 11.9188L16.0195 6.58125C16.1071 5.41875 16.5633 4.75 16.6946 4.69375H17.8758C18.2571 4.69375 18.5696 4.3875 18.5696 4.00625C18.5696 3.625 18.257 3.3125 17.8757 3.3125ZM14.2695 11.5812H4.05703L4.87578 7.83125L14.6195 6.7125L14.2695 11.5812Z" fill="#001C35"/>
<path d="M14.6172 6.71094L14.2672 11.5797H4.05469L4.87344 7.82969L14.6172 6.71094Z" fill="#B0D7FF"/>
<path d="M7.70781 8.70625V10.5188C7.70781 10.8438 7.40156 11.1 7.014 11.1C6.6265 11.1 6.32025 10.8438 6.32025 10.5188V8.70625C6.32025 8.38125 6.6265 8.125 7.014 8.125C7.40156 8.125 7.70781 8.38125 7.70781 8.70625ZM10.4265 8.70625V10.5188C10.4265 10.8438 10.1265 11.1 9.73906 11.1C9.35156 11.1 9.04525 10.8438 9.04525 10.5188V8.70625C9.04525 8.38125 9.35156 8.125 9.73906 8.125C10.1265 8.125 10.4265 8.38125 10.4265 8.70625ZM13.1515 8.70625V10.5188C13.1515 10.8438 12.8515 11.1 12.464 11.1C12.0765 11.1 11.7703 10.8438 11.7703 10.5188V8.70625C11.7703 8.38125 12.0765 8.125 12.464 8.125C12.8515 8.125 13.1515 8.38125 13.1515 8.70625ZM5.32031 16.8625C5.32031 17.625 4.69531 18.25 3.92656 18.25C3.16406 18.25 2.53906 17.625 2.53906 16.8625C2.53906 16.0938 3.16406 15.475 3.92656 15.475C4.69531 15.475 5.32031 16.0938 5.32031 16.8625ZM14.0328 16.8625C14.0328 17.625 13.4078 18.25 12.6453 18.25C11.8765 18.25 11.2515 17.625 11.2515 16.8625C11.2515 16.0938 11.8765 15.475 12.6453 15.475C13.4078 15.475 14.0328 16.0938 14.0328 16.8625Z" fill="#001C35"/>
</svg>
