<svg width="20" height="20" viewBox="0 0 20 20" fill="none" xmlns="http://www.w3.org/2000/svg">
<path d="M2.22266 14.4449C2.22266 14.5923 2.28119 14.7336 2.38537 14.8378C2.48956 14.9419 2.63087 15.0005 2.77821 15.0005H17.2227C17.37 15.0005 17.5113 14.9419 17.6155 14.8378C17.7197 14.7336 17.7782 14.5923 17.7782 14.4449C17.7782 14.2976 17.7197 14.1563 17.6155 14.0521C17.5113 13.9479 17.37 13.8894 17.2227 13.8894H15.556V9.79492H14.4449V13.8894H10.556V9.79492H9.44488V13.8894H5.55599V9.79492H4.44488V13.8894H2.77821C2.63087 13.8894 2.48956 13.9479 2.38537 14.0521C2.28119 14.1563 2.22266 14.2976 2.22266 14.4449Z" fill="#FF4040"/>
<path d="M2.78906 7.77734H17.2335V8.88845H2.78906V7.77734Z" fill="#003049"/>
<path d="M18.3316 16.1113H1.66493C1.51759 16.1113 1.37628 16.1698 1.27209 16.274C1.16791 16.3782 1.10938 16.5195 1.10938 16.6668C1.10938 16.8142 1.16791 16.9555 1.27209 17.0597C1.37628 17.1638 1.51759 17.2224 1.66493 17.2224H18.3316C18.4789 17.2224 18.6202 17.1638 18.7244 17.0597C18.8286 16.9555 18.8872 16.8142 18.8872 16.6668C18.8872 16.5195 18.8286 16.3782 18.7244 16.274C18.6202 16.1698 18.4789 16.1113 18.3316 16.1113ZM12.3038 6.43348H14.0872L10.3594 4.28904C10.2918 4.25003 10.2152 4.22949 10.1372 4.22949C10.0591 4.22949 9.9825 4.25003 9.91493 4.28904L6.1816 6.43348H7.96493L10.1316 5.18904L12.3038 6.43348Z" fill="#003049"/>
<path d="M12.499 3.33318V3.06651L9.999 1.62207L1.38789 6.57207C1.32149 6.6068 1.26281 6.6546 1.21537 6.7126C1.16794 6.7706 1.13272 6.83759 1.11184 6.90955C1.09097 6.98151 1.08486 7.05695 1.0939 7.13133C1.10293 7.20571 1.12692 7.27749 1.16442 7.34236C1.20191 7.40723 1.25214 7.46385 1.31209 7.5088C1.37203 7.55375 1.44045 7.58612 1.51323 7.60394C1.586 7.62177 1.66163 7.62469 1.73557 7.61253C1.8095 7.60037 1.88021 7.57338 1.94344 7.53318L9.999 2.9054L12.649 4.44429C12.5491 4.08239 12.4986 3.70862 12.499 3.33318Z" fill="black"/>
<path d="M17.7461 7.3554L18.0572 7.53318C18.1551 7.58857 18.2675 7.61295 18.3795 7.60308C18.4916 7.59321 18.598 7.54956 18.6847 7.47791C18.7714 7.40626 18.8343 7.30998 18.8651 7.2018C18.8959 7.09363 18.8932 6.97865 18.8572 6.87207C18.5125 7.08682 18.1382 7.24967 17.7461 7.3554Z" fill="black"/>
<path d="M16.6684 6.11122C18.2025 6.11122 19.4462 4.86757 19.4462 3.33344C19.4462 1.79932 18.2025 0.555664 16.6684 0.555664C15.1343 0.555664 13.8906 1.79932 13.8906 3.33344C13.8906 4.86757 15.1343 6.11122 16.6684 6.11122Z" fill="#5CE2FF"/>
</svg>
