<svg width="20" height="20" viewBox="0 0 20 20" fill="none" xmlns="http://www.w3.org/2000/svg">
<path d="M10 19.9996C15.5228 19.9996 20 15.5225 20 9.99979C20 4.47706 15.5228 0 10 0C4.47715 0 0 4.47706 0 9.99979C0 15.5225 4.47715 19.9996 10 19.9996Z" fill="#13E4EA"/>
<path d="M14.1875 7.44129H12.5596V5.81342C12.5591 5.38183 12.3874 4.96806 12.0822 4.66288C11.7771 4.35771 11.3633 4.18604 10.9317 4.18555H9.07122C8.63962 4.18604 8.22585 4.35771 7.92066 4.66288C7.61548 4.96806 7.44381 5.38183 7.44331 5.81342V7.44129H5.81541C5.38381 7.44179 4.97003 7.61345 4.66485 7.91863C4.35966 8.22381 4.18799 8.63758 4.1875 9.06917V10.9296C4.18799 11.3612 4.35966 11.775 4.66485 12.0801C4.97003 12.3853 5.38381 12.557 5.81541 12.5575H7.44331V14.1853C7.44381 14.6169 7.61548 15.0307 7.92066 15.3359C8.22585 15.6411 8.63962 15.8127 9.07122 15.8132H10.9317C11.3633 15.8127 11.7771 15.6411 12.0822 15.3359C12.3874 15.0307 12.5591 14.6169 12.5596 14.1853V12.5575H14.1875C14.6191 12.557 15.0329 12.3853 15.3381 12.0801C15.6432 11.775 15.8149 11.3612 15.8154 10.9296V9.06917C15.8149 8.63758 15.6432 8.22381 15.3381 7.91863C15.0329 7.61345 14.6191 7.44179 14.1875 7.44129Z" fill="#E4EDFB"/>
<path d="M10.0013 19.9998C7.48377 19.997 5.06017 19.0437 3.21537 17.3307C1.37057 15.6177 0.240637 13.2713 0.0516427 10.761C-0.137351 8.25066 0.628535 5.76154 2.19606 3.79165C3.76359 1.82177 6.01715 0.516403 8.50584 0.13674C10.9945 -0.242923 13.5348 0.331116 15.6184 1.744C17.702 3.15689 19.1753 5.30442 19.7434 7.75691C20.3116 10.2094 19.9327 12.786 18.6826 14.9711C17.4325 17.1563 15.4034 18.7888 13.0013 19.5421C12.8268 19.5901 12.6405 19.5686 12.4816 19.482C12.3227 19.3955 12.2035 19.2506 12.1493 19.078C12.095 18.9054 12.1099 18.7184 12.1907 18.5565C12.2716 18.3946 12.4121 18.2704 12.5827 18.21C14.6535 17.5607 16.4027 16.1534 17.4803 14.2696C18.5579 12.3858 18.8844 10.1646 18.3944 8.05047C17.9044 5.93631 16.6342 4.08516 14.8378 2.86745C13.0414 1.64974 10.8514 1.15531 8.70602 1.4831C6.56068 1.81088 4.61825 2.93671 3.26745 4.63527C1.91664 6.33384 1.2571 8.47985 1.42081 10.6439C1.58452 12.8079 2.5594 14.8302 4.15036 16.3063C5.74133 17.7823 7.83102 18.6031 10.0013 18.6044C10.1863 18.6044 10.3637 18.6779 10.4946 18.8088C10.6254 18.9396 10.6989 19.1171 10.6989 19.3021C10.6989 19.4871 10.6254 19.6646 10.4946 19.7954C10.3637 19.9262 10.1863 19.9998 10.0013 19.9998Z" fill="#007DA1"/>
<path d="M10.9317 15.8132H9.07122C8.63962 15.8127 8.22585 15.6411 7.92066 15.3359C7.61548 15.0307 7.44381 14.6169 7.44331 14.1853V12.5575H5.81541C5.38381 12.557 4.97003 12.3853 4.66485 12.0801C4.35966 11.775 4.18799 11.3612 4.1875 10.9296V9.06917C4.18799 8.63758 4.35966 8.22381 4.66485 7.91863C4.97003 7.61345 5.38381 7.44179 5.81541 7.44129H7.44331V5.81342C7.44381 5.38183 7.61548 4.96806 7.92066 4.66288C8.22585 4.35771 8.63962 4.18604 9.07122 4.18555H10.9317C11.3633 4.18604 11.7771 4.35771 12.0822 4.66288C12.3874 4.96806 12.5591 5.38183 12.5596 5.81342V7.44129H14.1875C14.6191 7.44179 15.0329 7.61345 15.3381 7.91863C15.6432 8.22381 15.8149 8.63758 15.8154 9.06917V10.9296C15.8149 11.3612 15.6432 11.775 15.3381 12.0801C15.0329 12.3853 14.6191 12.557 14.1875 12.5575H12.5596V14.1853C12.5591 14.6169 12.3874 15.0307 12.0822 15.3359C11.7771 15.6411 11.3633 15.8127 10.9317 15.8132ZM5.81541 8.83661C5.75373 8.83661 5.69458 8.86111 5.65096 8.90473C5.60735 8.94834 5.58285 9.00749 5.58285 9.06917V10.9296C5.58285 10.9913 5.60735 11.0504 5.65096 11.094C5.69458 11.1376 5.75373 11.1621 5.81541 11.1621H8.14099C8.32602 11.1621 8.50348 11.2357 8.63432 11.3665C8.76516 11.4973 8.83866 11.6748 8.83866 11.8598V14.1853C8.83866 14.247 8.86316 14.3062 8.90678 14.3498C8.95039 14.3934 9.00954 14.4179 9.07122 14.4179H10.9317C10.9934 14.4179 11.0525 14.3934 11.0961 14.3498C11.1397 14.3062 11.1642 14.247 11.1642 14.1853V11.8598C11.1642 11.6748 11.2377 11.4973 11.3686 11.3665C11.4994 11.2357 11.6769 11.1621 11.8619 11.1621H14.1875C14.2492 11.1621 14.3083 11.1376 14.3519 11.094C14.3956 11.0504 14.4201 10.9913 14.4201 10.9296V9.06917C14.4201 9.00749 14.3956 8.94834 14.3519 8.90473C14.3083 8.86111 14.2492 8.83661 14.1875 8.83661H11.8619C11.6769 8.83661 11.4994 8.76311 11.3686 8.63227C11.2377 8.50144 11.1642 8.32399 11.1642 8.13895V5.81342C11.1642 5.75174 11.1397 5.69259 11.0961 5.64898C11.0525 5.60537 10.9934 5.58087 10.9317 5.58087H9.07122C9.00954 5.58087 8.95039 5.60537 8.90678 5.64898C8.86316 5.69259 8.83866 5.75174 8.83866 5.81342V8.13895C8.83866 8.32399 8.76516 8.50144 8.63432 8.63227C8.50348 8.76311 8.32602 8.83661 8.14099 8.83661H5.81541Z" fill="#007DA1"/>
</svg>
