<svg width="20" height="20" viewBox="0 0 20 20" fill="none" xmlns="http://www.w3.org/2000/svg">
<path d="M13.4383 13.7503L14.7383 12.8847C14.8999 12.7747 15.019 12.6128 15.0759 12.4257C15.1327 12.2387 15.1239 12.0378 15.0508 11.8565C15.0047 11.7427 14.9348 11.6401 14.8456 11.5557C14.7564 11.4713 14.6501 11.407 14.5339 11.3673C14.4177 11.3276 14.2944 11.3133 14.1722 11.3255C14.05 11.3377 13.9319 11.376 13.8258 11.4378L12.1883 12.4003C11.8091 12.6192 11.494 12.9339 11.2746 13.3129C11.0553 13.6918 10.9393 14.1218 10.9383 14.5597V18.9065C10.9383 18.948 10.9547 18.9877 10.984 19.017C11.0133 19.0463 11.0531 19.0628 11.0945 19.0628H13.907C13.9485 19.0628 13.9882 19.0463 14.0175 19.017C14.0468 18.9877 14.0633 18.948 14.0633 18.9065V15.9378L17.1883 13.7503L18.3164 8.12529C18.3487 7.95912 18.3162 7.78689 18.2256 7.64393C18.1349 7.50097 17.993 7.39813 17.8289 7.35654C17.659 7.31491 17.4796 7.34215 17.3297 7.4323C17.1799 7.52246 17.0717 7.66822 17.0289 7.83779L15.9383 12.1878L13.4383 13.7503ZM6.56327 13.7503L5.26327 12.8847C5.10165 12.7747 4.98251 12.6128 4.92567 12.4257C4.86882 12.2387 4.87768 12.0378 4.95077 11.8565C4.99681 11.7427 5.06678 11.6401 5.15596 11.5557C5.24514 11.4713 5.35142 11.407 5.46761 11.3673C5.5838 11.3276 5.70717 11.3133 5.82936 11.3255C5.95155 11.3377 6.06969 11.376 6.17577 11.4378L7.81327 12.4003C8.19249 12.6192 8.50755 12.9339 8.72692 13.3129C8.94629 13.6918 9.06228 14.1218 9.06327 14.5597V18.9065C9.06327 18.948 9.04681 18.9877 9.01751 19.017C8.98821 19.0463 8.94846 19.0628 8.90702 19.0628H6.09452C6.05308 19.0628 6.01334 19.0463 5.98404 19.017C5.95473 18.9877 5.93827 18.948 5.93827 18.9065V15.9378L2.81327 13.7503L1.68515 8.12529C1.65066 7.95556 1.684 7.77907 1.77804 7.63363C1.87208 7.48819 2.01934 7.38536 2.18827 7.34716C2.35814 7.30554 2.53758 7.33278 2.68744 7.42293C2.83731 7.51308 2.94545 7.65884 2.98827 7.82841L4.06327 12.1878L6.56327 13.7503Z" fill="#EDB79F"/>
<path d="M10.1583 0.937518H9.84583C9.74169 0.937665 9.63875 0.959869 9.5438 1.00267C9.44886 1.04547 9.36405 1.10789 9.29497 1.18583C9.22589 1.26377 9.1741 1.35545 9.143 1.45485C9.11191 1.55425 9.10223 1.65911 9.11458 1.76252L9.21146 2.59064C9.22067 2.66687 9.25762 2.73703 9.31526 2.78775C9.37289 2.83847 9.44718 2.8662 9.52396 2.86564H10.4865C10.5632 2.8662 10.6375 2.83847 10.6952 2.78775C10.7528 2.73703 10.7897 2.66687 10.799 2.59064L10.8958 1.76252C10.9083 1.65858 10.8984 1.55319 10.867 1.45336C10.8355 1.35352 10.7831 1.26152 10.7134 1.18348C10.6436 1.10544 10.558 1.04315 10.4623 1.00074C10.3666 0.95833 10.263 0.936779 10.1583 0.937518Z" fill="#8A8A8A"/>
<path d="M10 2.1875C8.7568 2.1875 7.56451 2.68136 6.68544 3.56044C5.80636 4.43951 5.3125 5.6318 5.3125 6.875V7.8125C5.3125 7.89538 5.34542 7.97487 5.40403 8.03347C5.46263 8.09208 5.54212 8.125 5.625 8.125H14.375C14.4579 8.125 14.5374 8.09208 14.596 8.03347C14.6546 7.97487 14.6875 7.89538 14.6875 7.8125V6.875C14.6875 5.6318 14.1936 4.43951 13.3146 3.56044C12.4355 2.68136 11.2432 2.1875 10 2.1875Z" fill="#BCBCBC"/>
<path d="M10.4336 2.20898C11.3262 2.59711 12.0862 3.23734 12.6202 4.05113C13.1542 4.86491 13.4391 5.81688 13.4398 6.79023V7.79023C13.4398 7.87892 13.4046 7.96397 13.3419 8.02667C13.2792 8.08938 13.1941 8.12461 13.1055 8.12461H14.3773C14.4602 8.12461 14.5397 8.09169 14.5983 8.03308C14.6569 7.97448 14.6898 7.89499 14.6898 7.81211V6.87461C14.6893 5.70641 14.2527 4.58049 13.4654 3.71745C12.678 2.85441 11.5968 2.31646 10.4336 2.20898Z" fill="#AAAAAA"/>
<path d="M15.4706 7.50001H4.53307C4.471 7.49964 4.41023 7.51778 4.3585 7.55209C4.30678 7.5864 4.26644 7.63534 4.24264 7.69267C4.21884 7.74999 4.21265 7.81311 4.22486 7.87397C4.23706 7.93483 4.26712 7.99067 4.31119 8.03438L5.24869 8.97188C5.27789 9.00084 5.31252 9.02376 5.3506 9.03931C5.38867 9.05486 5.42944 9.06274 5.47057 9.06251H14.5331C14.5742 9.06274 14.615 9.05486 14.653 9.03931C14.6911 9.02376 14.7257 9.00084 14.7549 8.97188L15.6924 8.03438C15.7365 7.99067 15.7666 7.93483 15.7788 7.87397C15.791 7.81311 15.7848 7.74999 15.761 7.69267C15.7372 7.63534 15.6969 7.5864 15.6451 7.55209C15.5934 7.51778 15.5326 7.49964 15.4706 7.50001Z" fill="#8A8A8A"/>
<path d="M2.09659 7.04375C1.85423 7.1047 1.64453 7.25638 1.51078 7.46747C1.37703 7.67856 1.32944 7.93296 1.37784 8.17812L2.49971 13.8125C2.51594 13.8911 2.56182 13.9605 2.62784 14.0063L5.62471 16.1V18.75C5.62471 18.8329 5.65763 18.9124 5.71624 18.971C5.77484 19.0296 5.85433 19.0625 5.93721 19.0625H9.06221C9.14509 19.0625 9.22458 19.0296 9.28318 18.971C9.34179 18.9124 9.37471 18.8329 9.37471 18.75V14.5594C9.37434 14.0679 9.24517 13.5851 9.00008 13.159C8.75499 12.733 8.40254 12.3786 7.97784 12.1313L6.32471 11.1656C6.17994 11.0814 6.01871 11.0293 5.85201 11.013C5.6853 10.9967 5.51704 11.0165 5.35868 11.071C5.20031 11.1256 5.05557 11.2136 4.9343 11.3292C4.81304 11.4447 4.7181 11.5851 4.65596 11.7406C4.60354 11.8666 4.57493 12.0011 4.57159 12.1375L4.33409 11.9906L3.27471 7.75C3.24403 7.6261 3.18916 7.50948 3.11327 7.40685C3.03737 7.30422 2.94194 7.2176 2.83246 7.15197C2.72298 7.08634 2.60161 7.043 2.47532 7.02443C2.34904 7.00585 2.22033 7.01242 2.09659 7.04375ZM3.89659 12.4531L6.39659 14.0156C6.46636 14.059 6.5504 14.0731 6.63052 14.055C6.71064 14.0369 6.78041 13.9879 6.82471 13.9188C6.86866 13.8497 6.88379 13.7662 6.86685 13.6862C6.8499 13.6061 6.80223 13.5359 6.73409 13.4906L5.43721 12.625C5.31538 12.5492 5.22866 12.428 5.19613 12.2883C5.16361 12.1485 5.18794 12.0015 5.26377 11.8797C5.33961 11.7579 5.46074 11.6711 5.60051 11.6386C5.74028 11.6061 5.88725 11.6304 6.00909 11.7062L7.66534 12.6719C7.9933 12.8634 8.26575 13.137 8.45588 13.4657C8.64601 13.7945 8.74728 14.1671 8.74971 14.5469V18.4375H6.24971V15.9375C6.24963 15.8871 6.23737 15.8375 6.21397 15.7929C6.19057 15.7483 6.15673 15.71 6.11534 15.6812L3.09346 13.5656L1.99346 8.05625C1.97987 7.96938 1.99978 7.8806 2.04915 7.80785C2.09853 7.7351 2.17369 7.68382 2.25943 7.66437C2.34517 7.64491 2.4351 7.65875 2.51104 7.70307C2.58697 7.7474 2.64324 7.8189 2.66846 7.90313L3.75909 12.2781C3.78189 12.3514 3.83083 12.4136 3.89659 12.4531ZM15.4278 12.1375C15.4245 12.0011 15.3959 11.8666 15.3435 11.7406C15.2813 11.5851 15.1864 11.4447 15.0651 11.3292C14.9439 11.2136 14.7991 11.1256 14.6407 11.071C14.4824 11.0165 14.3141 10.9967 14.1474 11.013C13.9807 11.0293 13.8195 11.0814 13.6747 11.1656L12.0216 12.1313C11.5969 12.3786 11.2444 12.733 10.9993 13.159C10.7543 13.5851 10.6251 14.0679 10.6247 14.5594V18.75C10.6247 18.8329 10.6576 18.9124 10.7162 18.971C10.7748 19.0296 10.8543 19.0625 10.9372 19.0625H14.0622C14.1451 19.0625 14.2246 19.0296 14.2832 18.971C14.3418 18.9124 14.3747 18.8329 14.3747 18.75V16.1L17.3653 14.0063C17.4337 13.9617 17.4819 13.8922 17.4997 13.8125L18.6278 8.1875C18.6846 7.93596 18.6391 7.67217 18.5014 7.45416C18.3637 7.23614 18.145 7.08177 17.8935 7.025C17.6419 6.96823 17.3781 7.0137 17.1601 7.15143C16.9421 7.28915 16.7877 7.50783 16.731 7.75938L15.6653 11.9906L15.4278 12.1375ZM16.2403 12.2625L17.331 7.8875C17.3531 7.79853 17.4096 7.72196 17.4881 7.67452C17.5666 7.62709 17.6606 7.61265 17.7497 7.63438C17.8364 7.65664 17.9113 7.71096 17.9595 7.78637C18.0076 7.86178 18.0254 7.95265 18.0091 8.04062L16.906 13.5656L13.8841 15.6812C13.8427 15.71 13.8089 15.7483 13.7855 15.7929C13.7621 15.8375 13.7498 15.8871 13.7497 15.9375V18.4375H11.2497V14.5594C11.2521 14.1796 11.3534 13.807 11.5435 13.4782C11.7337 13.1495 12.0061 12.8759 12.3341 12.6844L13.9903 11.7188C14.1094 11.6643 14.2441 11.6548 14.3696 11.6922C14.495 11.7295 14.6027 11.8111 14.6725 11.9218C14.7424 12.0325 14.7697 12.1648 14.7494 12.2941C14.7291 12.4234 14.6626 12.541 14.5622 12.625L13.2653 13.4906C13.1972 13.5359 13.1495 13.6061 13.1326 13.6862C13.1156 13.7662 13.1308 13.8497 13.1747 13.9188C13.219 13.9879 13.2888 14.0369 13.3689 14.055C13.449 14.0731 13.5331 14.059 13.6028 14.0156L16.1028 12.4531C16.1387 12.4326 16.1701 12.4052 16.1954 12.3725C16.2206 12.3398 16.239 12.3024 16.2497 12.2625H16.2403ZM5.31221 6.875V7.5H4.53096C4.46889 7.49964 4.40812 7.51777 4.35639 7.55208C4.30467 7.5864 4.26433 7.63534 4.24053 7.69266C4.21673 7.74999 4.21054 7.8131 4.22275 7.87396C4.23496 7.93482 4.26501 7.99066 4.30909 8.03437L5.24659 8.97187C5.27579 9.00084 5.31042 9.02375 5.34849 9.0393C5.38656 9.05486 5.42733 9.06274 5.46846 9.0625H14.531C14.5721 9.06274 14.6129 9.05486 14.6509 9.0393C14.689 9.02375 14.7236 9.00084 14.7528 8.97187L15.6903 8.03437C15.7344 7.99066 15.7645 7.93482 15.7767 7.87396C15.7889 7.8131 15.7827 7.74999 15.7589 7.69266C15.7351 7.63534 15.6948 7.5864 15.643 7.55208C15.5913 7.51777 15.5305 7.49964 15.4685 7.5H14.6872V6.875C14.6863 5.77663 14.2997 4.71345 13.5949 3.87102C12.8902 3.02859 11.9119 2.4604 10.831 2.26562L10.8903 1.7625C10.9027 1.65909 10.893 1.55423 10.8619 1.45483C10.8308 1.35543 10.779 1.26375 10.71 1.18581C10.6409 1.10787 10.5561 1.04545 10.4611 1.00265C10.3662 0.959851 10.2632 0.937647 10.1591 0.9375H9.84659C9.74244 0.937647 9.6395 0.959851 9.54456 1.00265C9.44961 1.04545 9.3648 1.10787 9.29572 1.18581C9.22664 1.26375 9.17485 1.35543 9.14376 1.45483C9.11267 1.55423 9.10298 1.65909 9.11534 1.7625L9.17471 2.26562C8.0926 2.4591 7.11291 3.02672 6.40687 3.86928C5.70083 4.71184 5.31337 5.77573 5.31221 6.875ZM14.4028 8.4375H5.59659L5.28409 8.125H14.7153L14.4028 8.4375ZM9.71534 1.6875C9.71406 1.67181 9.71599 1.65602 9.72103 1.6411C9.72607 1.62618 9.7341 1.61245 9.74463 1.60074C9.75517 1.58904 9.76798 1.57961 9.78229 1.57303C9.79659 1.56646 9.81209 1.56287 9.82784 1.5625H10.1403C10.1561 1.56287 10.1716 1.56646 10.1859 1.57303C10.2002 1.57961 10.213 1.58904 10.2235 1.60074C10.2341 1.61245 10.2421 1.62618 10.2471 1.6411C10.2522 1.65602 10.2541 1.67181 10.2528 1.6875L10.2091 2.1875C10.1403 2.1875 10.0716 2.1875 9.99971 2.1875C9.92784 2.1875 9.85909 2.1875 9.79034 2.1875L9.71534 1.6875ZM9.99971 2.8125C11.0772 2.8125 12.1105 3.24051 12.8723 4.00238C13.6342 4.76425 14.0622 5.79756 14.0622 6.875V7.5H5.93721V6.875C5.93721 5.79756 6.36522 4.76425 7.12709 4.00238C7.88896 3.24051 8.92227 2.8125 9.99971 2.8125Z" fill="#0A0A0A"/>
</svg>
