<svg width="20" height="20" viewBox="0 0 20 20" fill="none" xmlns="http://www.w3.org/2000/svg">
<g clip-path="url(#clip0_763_3102)">
<path d="M10 10.9699C8.87133 10.345 7.92447 9.51463 7.24214 8.54727C6.4653 7.44592 6.05469 6.18966 6.05469 4.91426V1.86379C7.00827 1.7453 7.93569 1.46986 8.79937 1.04864C9.23202 0.835488 9.64388 0.582506 10.0296 0.292969C10.5531 0.656893 11.1142 0.963409 11.7033 1.20722C12.4226 1.50573 13.1754 1.71604 13.9453 1.83355V4.91426C13.9453 6.18966 13.5347 7.44592 12.7579 8.54728C12.0755 9.51463 11.1287 10.345 10 10.9699Z" fill="#F8BE32"/>
<path d="M10 9.59841C9.27555 9.11356 8.66047 8.5248 8.19977 7.87161C7.5631 6.96897 7.22656 5.94629 7.22656 4.91407V2.84285C7.95026 2.67654 8.65226 2.42695 9.3185 2.09906C9.56951 1.97504 9.81363 1.84013 10.0508 1.69434C10.4382 1.9186 10.8398 2.11724 11.2531 2.28899C11.7467 2.49409 12.2549 2.66205 12.7734 2.79146V4.91407C12.7734 5.94629 12.4369 6.96897 11.8002 7.87161C11.3395 8.5248 10.7244 9.11356 10 9.59841Z" fill="#FDDD5A"/>
<path d="M11.2531 2.28899C10.8398 2.11724 10.4382 1.9186 10.0508 1.69434C9.86557 1.80822 9.6756 1.9156 9.48095 2.01646C9.67731 2.11325 9.8774 2.20409 10.0812 2.28899C10.5748 2.49409 11.083 2.66205 11.6016 2.79146V4.91408C11.6016 5.94629 11.265 6.96898 10.6284 7.87161C10.2835 8.35487 9.87502 8.78945 9.41406 9.16363C9.6001 9.31615 9.79542 9.46108 10 9.59841C10.7244 9.11356 11.3395 8.5248 11.8002 7.87161C12.4369 6.96898 12.7734 5.9463 12.7734 4.91408V2.79146C12.2549 2.66205 11.7467 2.49409 11.2531 2.28899Z" fill="#FED030"/>
<path d="M15.5529 10.707L15.0519 8.18434C15.0336 8.09217 15.034 7.99725 15.0531 7.90524C15.0722 7.81323 15.1096 7.726 15.1631 7.64873C15.2166 7.57147 15.2851 7.50574 15.3644 7.45546C15.4438 7.40518 15.5325 7.37138 15.6252 7.35606C15.792 7.32852 15.963 7.3621 16.1069 7.45063C16.2508 7.53917 16.3579 7.6767 16.4085 7.83792L17.3595 10.8693C17.5131 11.3592 17.5017 11.8859 17.327 12.3686L16.6309 14.2917C16.4825 14.7017 16.2226 15.0623 15.8805 15.3327L15.4466 15.6757C15.303 15.7892 15.1879 15.9347 15.1107 16.1007C15.0335 16.2666 14.9963 16.4483 15.0019 16.6313L15.0378 17.7892L11.8594 17.8401L15.5529 10.707Z" fill="#FDD8AE"/>
<path d="M17.3595 10.8693L16.4085 7.83792C16.3579 7.6767 16.2508 7.53918 16.1069 7.45064C15.963 7.3621 15.792 7.32852 15.6253 7.35606C15.5635 7.36648 15.5034 7.38514 15.4467 7.41153C15.5357 7.45235 15.6151 7.51139 15.6799 7.58483C15.7446 7.65828 15.7932 7.7445 15.8226 7.83792L16.7735 10.8693C16.9272 11.3592 16.9158 11.8859 16.7411 12.3686L16.045 14.2917C15.8966 14.7017 15.6367 15.0623 15.2945 15.3327L14.8606 15.6757C14.717 15.7892 14.602 15.9347 14.5248 16.1007C14.4476 16.2666 14.4103 16.4483 14.416 16.6313L14.4518 17.7892L11.8643 17.8306L11.8594 17.8401L15.0378 17.7892L15.0019 16.6313C14.9963 16.4483 15.0335 16.2666 15.1107 16.1007C15.1879 15.9347 15.303 15.7892 15.4466 15.6757L15.8805 15.3327C16.2226 15.0623 16.4825 14.7017 16.6309 14.2917L17.327 12.3686C17.5017 11.8859 17.5131 11.3592 17.3595 10.8693Z" fill="#FBBF7D"/>
<path d="M11.7151 17.7994L11.4965 15.9473C11.4665 15.6931 11.4924 15.4354 11.5723 15.1922C11.6523 14.949 11.7844 14.7262 11.9595 14.5394L15.5505 10.707C15.7834 10.8316 15.9574 11.0436 16.034 11.2964C16.1107 11.5492 16.0838 11.8221 15.9593 12.055L15.1293 13.6078" fill="#FDD8AE"/>
<path d="M14.7148 13.6078C14.8408 13.6078 14.9644 13.5736 15.0724 13.5089C15.1804 13.4441 15.2688 13.3512 15.3282 13.2402L15.9617 12.055C16.0862 11.8221 16.1131 11.5492 16.0364 11.2964C15.9598 11.0436 15.7858 10.8316 15.5529 10.707L15.3806 10.8909C15.5278 11.0425 15.6231 11.2369 15.6527 11.4462C15.6822 11.6554 15.6444 11.8686 15.5448 12.055L14.7148 13.6078L14.7148 13.6078Z" fill="#FBBF7D"/>
<path d="M16.1832 19.3645L10.9578 20.0003L10.8082 18.4593L10.7422 17.9089C10.7247 17.7616 10.7664 17.6134 10.8582 17.4968C10.95 17.3803 11.0843 17.305 11.2316 17.2874L15.3113 16.798C15.4586 16.7802 15.607 16.8217 15.7237 16.9132C15.8405 17.0048 15.9161 17.139 15.934 17.2863L15.9953 17.7991L16.1832 19.3645Z" fill="#2370B5"/>
<path d="M14.1394 16.9392C14.2867 16.9215 14.435 16.9629 14.5518 17.0545C14.6685 17.146 14.7441 17.2802 14.762 17.4275L14.8234 17.9404L15.0114 19.5071L16.1832 19.3645L15.9952 17.7991L15.9339 17.2863C15.916 17.139 15.8404 17.0048 15.7236 16.9132C15.6069 16.8217 15.4586 16.7802 15.3112 16.798L11.2316 17.2874C11.2272 17.288 11.2231 17.289 11.2188 17.2896L14.1394 16.9392Z" fill="#1067AE"/>
<path d="M15.9953 17.7991V17.7995L10.8082 18.4593L10.7422 17.9089C10.7247 17.7616 10.7664 17.6134 10.8582 17.4968C10.95 17.3803 11.0843 17.305 11.2316 17.2874L15.3113 16.798C15.4586 16.7802 15.607 16.8217 15.7237 16.9132C15.8405 17.0048 15.9161 17.139 15.934 17.2863L15.9953 17.7991Z" fill="#1067AE"/>
<path d="M15.9326 17.2863C15.9147 17.139 15.8391 17.0048 15.7223 16.9132C15.6056 16.8217 15.4572 16.7802 15.3099 16.798L11.2302 17.2874C11.2093 17.29 11.1885 17.2938 11.168 17.2987L14.138 16.9424C14.2854 16.9246 14.4337 16.9661 14.5504 17.0576C14.6672 17.1492 14.7428 17.2833 14.7607 17.4306L14.822 17.9435V17.9439L15.9939 17.7995V17.7991L15.9326 17.2863Z" fill="#0A56A4"/>
<path d="M4.45312 10.707L4.95411 8.18434C4.97242 8.09217 4.97201 7.99725 4.9529 7.90524C4.9338 7.81323 4.89639 7.726 4.8429 7.64873C4.78942 7.57147 4.72094 7.50574 4.64155 7.45546C4.56216 7.40518 4.47347 7.37138 4.38075 7.35606C4.21405 7.32852 4.043 7.3621 3.89909 7.45063C3.75518 7.53917 3.64808 7.6767 3.59751 7.83792L2.64652 10.8693C2.49286 11.3592 2.50427 11.8859 2.67899 12.3686L3.37508 14.2917C3.52351 14.7017 3.78341 15.0623 4.12554 15.3327L4.55945 15.6756C4.70304 15.7891 4.81805 15.9347 4.89527 16.1007C4.97248 16.2666 5.00975 16.4483 5.00408 16.6313L4.96823 17.7892L8.14662 17.8401L4.45312 10.707Z" fill="#FDD8AE"/>
<path d="M4.55945 15.6757L4.12554 15.3327C3.78341 15.0623 3.52351 14.7017 3.37508 14.2917L2.67899 12.3686C2.50427 11.8859 2.49286 11.3592 2.64652 10.8693L3.5975 7.83792C3.64808 7.6767 3.75518 7.53918 3.89909 7.45064C4.043 7.3621 4.21404 7.32852 4.38074 7.35606C4.44249 7.36648 4.50256 7.38514 4.55934 7.41153C4.47034 7.45235 4.39089 7.51139 4.32614 7.58484C4.26139 7.65828 4.21277 7.7445 4.18344 7.83792L3.23246 10.8693C3.0788 11.3592 3.09021 11.8859 3.26493 12.3686L3.96101 14.2917C4.10945 14.7017 4.36935 15.0623 4.71148 15.3327L5.14538 15.6757C5.28898 15.7892 5.40399 15.9347 5.4812 16.1007C5.55841 16.2666 5.59568 16.4483 5.59001 16.6313L5.55417 17.7892L8.14172 17.8306L8.14663 17.8401L4.96823 17.7892L5.00408 16.6313" fill="#FBBF7D"/>
<path d="M8.29153 17.7994L8.51011 15.9473C8.54012 15.6931 8.51423 15.4354 8.43426 15.1922C8.35428 14.949 8.22216 14.7262 8.04711 14.5394L4.45611 10.707C4.22316 10.8316 4.04922 11.0436 3.97256 11.2964C3.8959 11.5492 3.92278 11.8221 4.04731 12.055L4.8773 13.6078" fill="#FDD8AE"/>
<path d="M5.29415 13.6078C5.16821 13.6078 5.04463 13.5736 4.9366 13.5089C4.82857 13.4441 4.74016 13.3512 4.68079 13.2402L4.04731 12.055C3.92278 11.8221 3.8959 11.5492 3.97256 11.2964C4.04922 11.0436 4.22316 10.8316 4.45611 10.707L4.62843 10.8909C4.48115 11.0425 4.38586 11.2369 4.35633 11.4462C4.32681 11.6554 4.36457 11.8686 4.46416 12.055L5.29415 13.6078L5.29415 13.6078Z" fill="#FBBF7D"/>
<path d="M3.82422 19.366L9.04984 20.0003L9.19945 18.4593L9.26546 17.9089C9.28295 17.7616 9.24121 17.6134 9.14942 17.4968C9.05764 17.3803 8.92332 17.305 8.77601 17.2874L4.69632 16.798C4.54901 16.7802 4.40068 16.8217 4.28393 16.9132C4.16717 17.0048 4.09155 17.139 4.07367 17.2863L4.01234 17.7991L3.82422 19.366Z" fill="#2370B5"/>
<path d="M8.77548 17.2874L4.69579 16.7979C4.56077 16.7817 4.42447 16.8154 4.3125 16.8925L7.6036 17.2874C7.75091 17.3049 7.88523 17.3802 7.97701 17.4968C8.0688 17.6133 8.11054 17.7616 8.09306 17.9089L8.02704 18.4593L7.90603 19.8615L9.04931 20.0003L9.19892 18.4593L9.26493 17.9089C9.28242 17.7616 9.24068 17.6133 9.14889 17.4968C9.05711 17.3802 8.92279 17.3049 8.77548 17.2874Z" fill="#1067AE"/>
<path d="M4.01172 17.7991V17.7995L9.19883 18.4593L9.26484 17.9089C9.28233 17.7616 9.24059 17.6134 9.1488 17.4968C9.05702 17.3803 8.9227 17.305 8.77539 17.2874L4.6957 16.798C4.5484 16.7802 4.40006 16.8217 4.28331 16.9132C4.16655 17.0048 4.09093 17.139 4.07305 17.2863L4.01172 17.7991Z" fill="#1067AE"/>
<path d="M8.77479 17.2867L7.67969 17.1553C7.81477 17.1856 7.93381 17.2649 8.01379 17.378C8.09377 17.491 8.129 17.6296 8.11267 17.7671L8.04731 18.3121L9.19823 18.4585L9.26425 17.9081C9.28173 17.7608 9.23999 17.6126 9.14821 17.4961C9.05642 17.3795 8.9221 17.3042 8.77479 17.2867Z" fill="#0A56A4"/>
<path d="M8.80519 16.9963L8.6755 16.9808L8.79356 15.9815C8.82874 15.6849 8.79859 15.3842 8.70522 15.1005C8.61186 14.8168 8.45754 14.5569 8.25309 14.3392L4.76499 10.6166L5.23689 8.24129C5.26285 8.11053 5.26223 7.97588 5.23508 7.84536C5.20792 7.71484 5.15478 7.59112 5.07882 7.48156C5.00287 7.37201 4.90564 7.27885 4.79294 7.20765C4.68023 7.13644 4.55435 7.08864 4.42279 7.06709C4.36937 7.05839 4.31533 7.05399 4.2612 7.05393C4.0495 7.05334 3.84319 7.12066 3.67257 7.24599C3.50196 7.37133 3.37603 7.54807 3.31329 7.75026L2.36259 10.7817C2.19041 11.3328 2.2032 11.9252 2.39902 12.4685L3.09509 14.3916C3.26212 14.8529 3.55448 15.2584 3.93932 15.5626L4.37324 15.9056C4.46506 15.9786 4.54141 16.0692 4.59785 16.172C4.65429 16.2749 4.68968 16.3879 4.70195 16.5046C4.481 16.4843 4.26083 16.5508 4.08816 16.6902C3.91549 16.8295 3.80392 17.0307 3.77712 17.2509L3.71578 17.7622L3.71574 17.7624L3.71572 17.7627L3.56136 19.0492C3.5521 19.1264 3.57387 19.2041 3.62187 19.2651C3.66987 19.3262 3.74018 19.3658 3.81732 19.375C3.89447 19.3843 3.97213 19.3625 4.03322 19.3145C4.09432 19.2665 4.13384 19.1962 4.1431 19.1191L4.2621 18.1272L8.86817 18.713L8.75309 19.6721C8.7485 19.7103 8.75149 19.7491 8.76187 19.7861C8.77225 19.8232 8.78983 19.8578 8.8136 19.888C8.83737 19.9183 8.86686 19.9436 8.9004 19.9624C8.93393 19.9813 8.97085 19.9933 9.00905 19.9979C9.04725 20.0025 9.08598 19.9995 9.12302 19.9891C9.16006 19.9788 9.1947 19.9612 9.22495 19.9374C9.2552 19.9136 9.28048 19.8841 9.29933 19.8506C9.31818 19.8171 9.33024 19.7802 9.33483 19.742L9.4842 18.497L9.48436 18.496L9.48445 18.4949L9.55059 17.9437C9.56385 17.8325 9.55509 17.7199 9.5248 17.6121C9.49452 17.5043 9.44331 17.4036 9.37409 17.3156C9.30488 17.2277 9.21901 17.1542 9.1214 17.0994C9.02379 17.0446 8.91634 17.0096 8.8052 16.9963L8.80519 16.9963ZM4.30275 15.1031C4.00339 14.8664 3.77596 14.5509 3.64601 14.1921L2.9499 12.2689C2.79763 11.8465 2.78769 11.3858 2.9216 10.9572L3.87233 7.9257C3.89806 7.84273 3.94971 7.77019 4.0197 7.71875C4.08969 7.6673 4.17434 7.63965 4.2612 7.63987C4.28371 7.63992 4.30617 7.64175 4.32838 7.64536C4.38234 7.65424 4.43397 7.67389 4.48019 7.70313C4.5264 7.73237 4.56626 7.77061 4.5974 7.81557C4.62854 7.86053 4.65031 7.9113 4.66143 7.96484C4.67255 8.01839 4.67279 8.07363 4.66213 8.12727L4.18572 10.5253C3.92499 10.7049 3.7396 10.9743 3.665 11.282C3.59041 11.5897 3.63183 11.9142 3.78135 12.1932L4.61143 13.746C4.64809 13.8145 4.71044 13.8656 4.78478 13.8881C4.85912 13.9106 4.93936 13.9027 5.00786 13.8661C5.07637 13.8295 5.12752 13.7671 5.15008 13.6928C5.17264 13.6185 5.16476 13.5382 5.12817 13.4697L4.29802 11.9168C4.24317 11.8153 4.21453 11.7017 4.2147 11.5864C4.21446 11.4038 4.28526 11.2282 4.41211 11.0969L7.82554 14.7398C7.97157 14.8953 8.08181 15.0809 8.14851 15.2836C8.21521 15.4862 8.23677 15.701 8.21167 15.9129L8.09374 16.911L5.29232 16.5748C5.28892 16.3573 5.23731 16.1432 5.14122 15.948C5.04512 15.7528 4.90693 15.5813 4.73659 15.446L4.30275 15.1031ZM8.96884 17.8739L8.93796 18.1312L4.3319 17.5454L4.35886 17.3207C4.36755 17.2506 4.40368 17.1868 4.45931 17.1433C4.51495 17.0998 4.58556 17.0801 4.65568 17.0886L4.95419 17.1244L4.95441 17.1244L8.73539 17.5781C8.80557 17.5863 8.86959 17.6222 8.91337 17.6776C8.95715 17.7331 8.9771 17.8037 8.96885 17.8739L8.96884 17.8739ZM12.9979 8.71618C13.8098 7.5651 14.2389 6.25044 14.2389 4.91426V1.83359C14.2389 1.76361 14.2139 1.69594 14.1683 1.64283C14.1227 1.58972 14.0597 1.55467 13.9905 1.54402C13.244 1.42987 12.514 1.22597 11.8164 0.936756C11.2468 0.700865 10.7042 0.404494 10.1979 0.052738C10.1473 0.0173862 10.0868 -0.00105612 10.025 4.67313e-05C9.96327 0.00114958 9.90346 0.0217411 9.85412 0.0588787C9.48285 0.337384 9.08652 0.580802 8.67023 0.785998C7.83595 1.19367 6.93966 1.4597 6.01806 1.5732C5.9474 1.58227 5.88246 1.61678 5.83539 1.67027C5.78833 1.72376 5.76237 1.79256 5.76236 1.8638V4.91426C5.76236 6.25044 6.19148 7.5651 7.00336 8.71618C7.70683 9.71346 8.69419 10.5814 9.85874 11.2263C9.90217 11.2503 9.951 11.2629 10.0006 11.2629C10.0503 11.2629 10.0991 11.2503 10.1426 11.2263C11.3071 10.5814 12.2945 9.71346 12.9979 8.71618ZM10.0006 10.6333C8.9748 10.0404 8.10638 9.2634 7.48218 8.37843C6.74037 7.32676 6.3483 6.12883 6.3483 4.91426V2.11817C7.24489 1.98239 8.11545 1.71029 8.92978 1.31132C9.31553 1.12098 9.68556 0.900316 10.0364 0.651418C10.5273 0.975676 11.0479 1.25238 11.5914 1.47776C12.2547 1.75299 12.946 1.9555 13.653 2.08174V4.91426C13.653 6.12883 13.2609 7.32676 12.5191 8.37843C11.8949 9.2634 11.0265 10.0404 10.0006 10.6333ZM13.067 2.79165C13.067 2.72631 13.0452 2.66285 13.005 2.61135C12.9648 2.55985 12.9085 2.52327 12.8451 2.50742C12.3407 2.38146 11.8464 2.2181 11.3663 2.01868C10.9648 1.85179 10.5747 1.65885 10.1984 1.4411C10.1527 1.41459 10.1006 1.40095 10.0477 1.40162C9.99487 1.4023 9.94316 1.41727 9.89811 1.44495C9.66972 1.58529 9.43126 1.71705 9.18937 1.8366C8.54332 2.15429 7.86271 2.39623 7.1611 2.55762C7.0966 2.57256 7.03906 2.60891 6.99786 2.66074C6.95667 2.71257 6.93424 2.77683 6.93424 2.84304V4.91426C6.93424 6.00725 7.28927 7.08834 7.961 8.04068C8.44448 8.72614 9.07588 9.33222 9.83768 9.84205C9.8859 9.87433 9.94262 9.89157 10.0006 9.89157C10.0587 9.89157 10.1154 9.87433 10.1636 9.84205C10.9254 9.33222 11.5568 8.72614 12.0403 8.04068C12.712 7.08834 13.067 6.00725 13.067 4.91426V2.79165ZM12.4811 4.91426C12.4811 5.88568 12.1631 6.84996 11.5615 7.70292C11.1313 8.30017 10.6036 8.82075 10.0006 9.24284C9.39765 8.82075 8.87001 8.30017 8.43982 7.70292C7.83817 6.84996 7.52017 5.88568 7.52017 4.91426V3.07318C8.18606 2.90374 8.83247 2.66535 9.44893 2.36189C9.65469 2.26022 9.85813 2.15025 10.0557 2.0339C10.4072 2.22961 10.7697 2.40515 11.1412 2.55968C11.5775 2.74095 12.0251 2.89402 12.4811 3.01794V4.91426ZM17.6388 10.7819L16.688 7.75015C16.6118 7.50747 16.4455 7.30322 16.2233 7.17943C16.0011 7.05564 15.7399 7.02174 15.4935 7.08468C15.247 7.14763 15.0341 7.30265 14.8985 7.51784C14.7629 7.73302 14.7149 7.992 14.7644 8.24148L15.2363 10.6166L11.7482 14.3392C11.5437 14.5569 11.3894 14.8168 11.2961 15.1005C11.2027 15.3843 11.1725 15.685 11.2077 15.9817L11.3258 16.9808L11.1961 16.9963C11.0849 17.0096 10.9775 17.0446 10.8799 17.0994C10.7823 17.1542 10.6964 17.2277 10.6272 17.3156C10.558 17.4036 10.5068 17.5043 10.4765 17.6121C10.4462 17.7199 10.4374 17.8325 10.4507 17.9437L10.5168 18.4949L10.5169 18.496L10.5171 18.497L10.6665 19.742C10.6757 19.8191 10.7152 19.8894 10.7763 19.9374C10.8374 19.9854 10.9151 20.0072 10.9922 19.9979C11.0694 19.9887 11.1397 19.9491 11.1877 19.888C11.2357 19.827 11.2575 19.7493 11.2482 19.6721L11.1331 18.713L15.7392 18.1272L15.8582 19.1191C15.8675 19.1961 15.9071 19.2664 15.9681 19.3143C16.0292 19.3623 16.1068 19.384 16.1839 19.3748C16.261 19.3655 16.3313 19.326 16.3793 19.265C16.4273 19.2039 16.4491 19.1264 16.4399 19.0492L16.2856 17.7627L16.2855 17.7624L16.2855 17.7622L16.2242 17.2509C16.1972 17.0307 16.0856 16.8297 15.913 16.6903C15.7404 16.551 15.5203 16.4844 15.2993 16.5046C15.3116 16.3879 15.347 16.2749 15.4034 16.1721C15.4598 16.0692 15.5362 15.9786 15.628 15.9056L16.0621 15.5626C16.4469 15.2583 16.7392 14.8528 16.9062 14.3915L17.6022 12.4686C17.7981 11.9254 17.8109 11.333 17.6388 10.7819ZM15.3456 17.0886C15.4157 17.0802 15.4863 17.0999 15.5419 17.1434C15.5976 17.1869 15.6337 17.2507 15.6424 17.3207L15.6694 17.5454L11.0633 18.1312L11.0324 17.8739C11.0242 17.8037 11.0441 17.7331 11.0879 17.6776C11.1317 17.6222 11.1957 17.5863 11.2659 17.5781L15.0469 17.1244L15.0471 17.1244L15.3456 17.0886ZM17.0513 12.269L16.3553 14.192C16.2254 14.5508 15.998 14.8663 15.6987 15.103L15.2647 15.446C15.0943 15.5814 14.9562 15.7528 14.8601 15.948C14.764 16.1432 14.7124 16.3573 14.709 16.5748L11.9075 16.911L11.7896 15.913C11.7645 15.7011 11.7861 15.4863 11.8528 15.2836C11.9195 15.081 12.0297 14.8953 12.1757 14.7398L15.5892 11.0969C15.716 11.2282 15.7868 11.4038 15.7866 11.5864C15.7867 11.7018 15.7581 11.8154 15.7032 11.917L14.8731 13.4697C14.8365 13.5382 14.8287 13.6185 14.8512 13.6928C14.8738 13.7671 14.9249 13.8295 14.9934 13.8661C15.0619 13.9027 15.1422 13.9106 15.2165 13.8881C15.2908 13.8656 15.3532 13.8145 15.3899 13.746L16.2199 12.1934C16.3694 11.9143 16.4109 11.5899 16.3363 11.2821C16.2617 10.9744 16.0763 10.7049 15.8156 10.5253L15.3392 8.12746C15.3285 8.07388 15.3287 8.01871 15.3398 7.96521C15.3508 7.91171 15.3725 7.86097 15.4036 7.81602C15.4346 7.77107 15.4744 7.73281 15.5205 7.70352C15.5666 7.67423 15.6181 7.6545 15.672 7.64551C15.6945 7.64182 15.7173 7.63993 15.7401 7.63987C15.8269 7.63965 15.9116 7.66728 15.9815 7.7187C16.0515 7.77013 16.1032 7.84264 16.1289 7.92559L17.0798 10.9574C17.2136 11.386 17.2036 11.8466 17.0513 12.269Z" fill="#3C3B41"/>
</g>
<defs>
<clipPath id="clip0_763_3102">
<rect width="20" height="20" fill="white"/>
</clipPath>
</defs>
</svg>
