<svg width="20" height="20" viewBox="0 0 20 20" fill="none" xmlns="http://www.w3.org/2000/svg">
<path d="M19.4134 3.74967C19.4134 19.108 19.5487 18.1913 19.0957 18.7497C18.8894 19.0028 18.5928 19.213 18.2355 19.3593C17.8783 19.5056 17.4731 19.5827 17.0604 19.583H2.94279C2.31875 19.583 1.72027 19.4074 1.279 19.0949C0.837742 18.7823 0.589844 18.3584 0.589844 17.9163V3.74967C0.589844 3.30765 0.837742 2.88372 1.279 2.57116C1.72027 2.2586 2.31875 2.08301 2.94279 2.08301H5.88396V4.16634C5.88396 4.27685 5.94594 4.38283 6.05625 4.46097C6.16657 4.53911 6.31619 4.58301 6.4722 4.58301H13.531C13.687 4.58301 13.8367 4.53911 13.947 4.46097C14.0573 4.38283 14.1193 4.27685 14.1193 4.16634V2.08301H17.0604C17.6845 2.08301 18.283 2.2586 18.7242 2.57116C19.1655 2.88372 19.4134 3.30765 19.4134 3.74967Z" fill="#374F68"/>
<path d="M19.4104 3.74974C19.4104 19.1081 19.5457 18.1914 19.0927 18.7497C14.6527 18.7497 10.3945 17.5004 7.25494 15.2765C4.11536 13.0526 2.35156 10.0364 2.35156 6.8914V2.13724C2.75744 2.0539 2.9398 2.08307 5.88097 2.08307V4.1664C5.88097 4.27691 5.94295 4.38289 6.05326 4.46103C6.16358 4.53917 6.3132 4.58307 6.46921 4.58307H13.528C13.684 4.58307 13.8337 4.53917 13.944 4.46103C14.0543 4.38289 14.1163 4.27691 14.1163 4.1664V2.08307H17.0574C17.6815 2.08307 18.28 2.25866 18.7212 2.57123C19.1625 2.88379 19.4104 3.30771 19.4104 3.74974Z" fill="#425B72"/>
<path d="M17.0591 3.75V17.9167H2.94141V3.75H5.88258V4.16667C5.88258 4.27717 5.94456 4.38315 6.05487 4.46129C6.16519 4.53943 6.31481 4.58333 6.47082 4.58333H13.5296C13.6857 4.58333 13.8353 4.53943 13.9456 4.46129C14.0559 4.38315 14.1179 4.27717 14.1179 4.16667V3.75H17.0591Z" fill="#DAD7E5"/>
<path d="M17.06 3.75C17.06 17.575 17.0011 17.0833 17.06 17.0833C13.7838 17.0833 10.6417 16.1615 8.32512 14.5205C6.0085 12.8796 4.70703 10.654 4.70703 8.33333V3.75H5.8835V4.16667C5.8835 4.27717 5.94548 4.38315 6.05579 4.46129C6.16611 4.53943 6.31573 4.58333 6.47174 4.58333H13.5306C13.6866 4.58333 13.8362 4.53943 13.9465 4.46129C14.0568 4.38315 14.1188 4.27717 14.1188 4.16667V3.75H17.06Z" fill="#EDEBF2"/>
<path d="M14.1181 2.08366V4.16699C14.1181 4.2775 14.0561 4.38348 13.9458 4.46162C13.8355 4.53976 13.6859 4.58366 13.5299 4.58366H6.47105C6.31504 4.58366 6.16542 4.53976 6.0551 4.46162C5.94479 4.38348 5.88281 4.2775 5.88281 4.16699V2.08366H8.23575V1.66699C8.23575 1.33547 8.42168 1.01753 8.75262 0.783109C9.08357 0.548688 9.53243 0.416992 10.0005 0.416992C10.4685 0.416992 10.9173 0.548688 11.2483 0.783109C11.5792 1.01753 11.7652 1.33547 11.7652 1.66699V2.08366H14.1181Z" fill="#FFCC66"/>
<path d="M14.1174 2.08365V3.75032H9.41154C8.7875 3.75032 8.18902 3.57472 7.74775 3.26216C7.30649 2.9496 7.05859 2.52568 7.05859 2.08365H8.23506V1.73782C8.21451 1.4847 8.30309 1.23315 8.48907 1.01653C8.67504 0.799906 8.94962 0.628464 9.27635 0.52495C9.60308 0.421436 9.96653 0.390745 10.3185 0.43695C10.6704 0.483154 10.9942 0.604069 11.2468 0.783649C11.4645 0.959267 11.624 1.16716 11.7136 1.3921C11.8032 1.61705 11.8206 1.85333 11.7645 2.08365H14.1174Z" fill="#FFDE76"/>
<path d="M11.1785 10.2459V15.4167C11.1775 15.581 11.108 15.7415 10.9786 15.8779C10.8493 16.0143 10.6659 16.1205 10.4516 16.1833C10.2372 16.2461 10.0014 16.2626 9.77386 16.2307C9.5463 16.1989 9.33711 16.1201 9.1726 16.0042C8.69613 15.6751 8.82554 15.7751 8.82554 10.2459C8.29847 10.0846 7.84957 9.81758 7.5342 9.47773C7.21883 9.13789 7.05078 8.74009 7.05078 8.3334C7.05078 7.92671 7.21883 7.52891 7.5342 7.18906C7.84957 6.84922 8.29847 6.58218 8.82554 6.4209V7.91673L10.002 8.3334L11.1785 7.91673V6.4209C11.7056 6.58218 12.1545 6.84922 12.4698 7.18906C12.7852 7.52891 12.9532 7.92671 12.9532 8.3334C12.9532 8.74009 12.7852 9.13789 12.4698 9.47773C12.1545 9.81758 11.7056 10.0846 11.1785 10.2459Z" fill="#919191"/>
<path d="M10.0004 14.5833V10.2916C9.99206 10.0499 9.91362 9.81191 9.76992 9.59257C9.62622 9.37322 9.42034 9.17717 9.16507 9.0166C8.69257 8.7037 8.37886 8.28919 8.27252 7.83725C8.16618 7.38531 8.27314 6.92114 8.57684 6.5166C8.08888 6.70157 7.6845 6.98031 7.41017 7.32079C7.13585 7.66126 7.00271 8.04965 7.02606 8.44132C7.0494 8.833 7.22829 9.21205 7.54216 9.53494C7.85602 9.85782 8.29213 10.1114 8.80037 10.2666C8.80037 15.9166 8.67684 15.6833 9.14743 16.0249C9.31224 16.1481 9.52623 16.2328 9.76078 16.2675C9.99533 16.3022 10.2392 16.2853 10.4599 16.2192C10.6806 16.1531 10.8675 16.0408 10.9956 15.8973C11.1237 15.7539 11.1869 15.5862 11.1768 15.4166C10.8648 15.4166 10.5656 15.3288 10.3449 15.1725C10.1243 15.0162 10.0004 14.8043 10.0004 14.5833Z" fill="#7C7D7D"/>
<path d="M17.0588 1.66667H12.3529C12.3529 1.22464 12.105 0.800716 11.6638 0.488155C11.2225 0.175595 10.624 0 10 0C9.37596 0 8.77748 0.175595 8.33622 0.488155C7.89496 0.800716 7.64706 1.22464 7.64706 1.66667H2.94118C2.16113 1.66667 1.41303 1.88616 0.861451 2.27686C0.309873 2.66756 0 3.19747 0 3.75V17.9167C0 18.1903 0.0760758 18.4612 0.223884 18.7139C0.371692 18.9667 0.588337 19.1964 0.861451 19.3898C1.13456 19.5833 1.4588 19.7367 1.81564 19.8414C2.17248 19.9461 2.55494 20 2.94118 20H17.0588C17.4451 20 17.8275 19.9461 18.1844 19.8414C18.5412 19.7367 18.8654 19.5833 19.1385 19.3898C19.4117 19.1964 19.6283 18.9667 19.7761 18.7139C19.9239 18.4612 20 18.1903 20 17.9167V3.75C20 3.47641 19.9239 3.2055 19.7761 2.95274C19.6283 2.69998 19.4117 2.47032 19.1385 2.27686C18.8654 2.08341 18.5412 1.92995 18.1844 1.82525C17.8275 1.72055 17.4451 1.66667 17.0588 1.66667ZM6.47059 5H13.5294C13.8414 5 14.1407 4.9122 14.3613 4.75592C14.5819 4.59964 14.7059 4.38768 14.7059 4.16667H16.4706V17.5H3.52941V4.16667H5.29412C5.29412 4.38768 5.41807 4.59964 5.6387 4.75592C5.85933 4.9122 6.15857 5 6.47059 5ZM8.23529 2.5C8.3913 2.5 8.54093 2.4561 8.65124 2.37796C8.76156 2.29982 8.82353 2.19384 8.82353 2.08333V1.66667C8.82353 1.44565 8.94748 1.23369 9.16811 1.07741C9.38874 0.921131 9.68798 0.833333 10 0.833333C10.312 0.833333 10.6113 0.921131 10.8319 1.07741C11.0525 1.23369 11.1765 1.44565 11.1765 1.66667V2.08333C11.1765 2.19384 11.2384 2.29982 11.3488 2.37796C11.4591 2.4561 11.6087 2.5 11.7647 2.5H13.5294V4.16667H6.47059V2.5H8.23529ZM18.8235 17.9167C18.8235 18.2482 18.6376 18.5661 18.3067 18.8005C17.9757 19.035 17.5269 19.1667 17.0588 19.1667H2.94118C2.47315 19.1667 2.02429 19.035 1.69334 18.8005C1.36239 18.5661 1.17647 18.2482 1.17647 17.9167V3.75C1.17647 3.41848 1.36239 3.10054 1.69334 2.86612C2.02429 2.6317 2.47315 2.5 2.94118 2.5H5.29412V3.33333H2.94118C2.78517 3.33333 2.63555 3.37723 2.52523 3.45537C2.41492 3.53351 2.35294 3.63949 2.35294 3.75V17.9167C2.35294 18.0272 2.41492 18.1332 2.52523 18.2113C2.63555 18.2894 2.78517 18.3333 2.94118 18.3333H17.0588C17.2148 18.3333 17.3645 18.2894 17.4748 18.2113C17.5851 18.1332 17.6471 18.0272 17.6471 17.9167V3.75C17.6471 3.63949 17.5851 3.53351 17.4748 3.45537C17.3645 3.37723 17.2148 3.33333 17.0588 3.33333H14.7059V2.5H17.0588C17.5269 2.5 17.9757 2.6317 18.3067 2.86612C18.6376 3.10054 18.8235 3.41848 18.8235 3.75V17.9167Z" fill="black"/>
<path d="M8.23424 10.5003V15.4169C8.23424 15.7485 8.42016 16.0664 8.75111 16.3008C9.08205 16.5353 9.53091 16.6669 9.99894 16.6669C10.467 16.6669 10.9158 16.5353 11.2468 16.3008C11.5777 16.0664 11.7636 15.7485 11.7636 15.4169V10.5003C12.3302 10.2695 12.7952 9.93182 13.1068 9.52486C13.4184 9.11791 13.5643 8.65766 13.5283 8.19541C13.4923 7.73317 13.2758 7.28708 12.903 6.90685C12.5301 6.52663 12.0156 6.2272 11.4166 6.04195C11.306 6.00685 11.1827 5.99682 11.0637 6.01323C10.9448 6.02964 10.8358 6.07169 10.7519 6.13361C10.5048 6.31695 10.5872 6.55028 10.5872 7.65861L9.99894 7.86695L9.41071 7.65861C9.41071 6.49611 9.48129 6.30445 9.246 6.13361C9.16318 6.07186 9.05563 6.02956 8.93783 6.01242C8.82004 5.99529 8.69766 6.00414 8.58718 6.03778C7.9864 6.22216 7.46987 6.52129 7.09535 6.9017C6.72083 7.28212 6.50309 7.72883 6.46646 8.19188C6.42984 8.65493 6.57578 9.11607 6.88797 9.52374C7.20016 9.9314 7.66629 10.2695 8.23424 10.5003ZM8.23424 7.23361C8.23424 7.93361 8.15777 8.14611 8.55777 8.28778C10.2754 8.89611 9.68718 8.90861 11.4401 8.28778C11.8401 8.14611 11.7636 7.92528 11.7636 7.23361C12.0097 7.43086 12.1863 7.66658 12.279 7.92148C12.3716 8.17637 12.3778 8.44319 12.2969 8.70008C12.216 8.95698 12.0503 9.19665 11.8134 9.39946C11.5766 9.60228 11.2753 9.76248 10.9342 9.86695C10.4519 10.0003 10.5872 9.92945 10.5872 15.4169C10.5872 15.5275 10.5252 15.6334 10.4149 15.7116C10.3046 15.7897 10.155 15.8336 9.99894 15.8336C9.84293 15.8336 9.69331 15.7897 9.583 15.7116C9.47268 15.6334 9.41071 15.5275 9.41071 15.4169C9.41071 9.91695 9.55188 10.0003 9.06365 9.86695C8.72258 9.76248 8.42128 9.60228 8.18444 9.39946C7.94759 9.19665 7.78193 8.95698 7.70102 8.70008C7.6201 8.44319 7.62624 8.17637 7.71892 7.92148C7.8116 7.66658 7.98819 7.43086 8.23424 7.23361Z" fill="black"/>
</svg>
