<svg width="20" height="20" viewBox="0 0 20 20" fill="none" xmlns="http://www.w3.org/2000/svg">
<path d="M12.7415 6.35182C12.2781 6.51604 11.8715 6.82041 11.573 7.22655C11.573 7.17917 11.5486 7.12814 11.5347 7.08076C11.2684 6.30676 10.7235 5.67275 10.0168 5.31438C9.31002 4.95602 8.4975 4.90177 7.75306 5.16324C7.00863 5.42472 6.39142 5.98115 6.03349 6.71347C5.67557 7.44579 5.60537 8.29583 5.83792 9.0817C5.8811 9.20608 5.93103 9.32776 5.98747 9.44617C5.79569 9.45728 5.60619 9.49528 5.42405 9.55915C4.89198 9.76683 4.45781 10.1832 4.21328 10.7201C3.96875 11.2571 3.93303 11.8727 4.11366 12.4368C4.29429 13.0009 4.67712 13.4693 5.18124 13.743C5.68537 14.0167 6.2713 14.0743 6.8152 13.9036L14.324 11.2539C14.6302 11.146 14.9132 10.9759 15.1567 10.7534C15.4002 10.5309 15.5995 10.2603 15.7432 9.95702C15.8869 9.65377 15.9722 9.32384 15.9943 8.98604C16.0163 8.64825 15.9746 8.30921 15.8717 7.98829C15.7687 7.66737 15.6064 7.37085 15.394 7.11566C15.1817 6.86048 14.9235 6.65162 14.6341 6.50101C14.3447 6.3504 14.0299 6.261 13.7075 6.23791C13.3852 6.21481 13.0617 6.25847 12.7555 6.3664L12.7415 6.35182Z" fill="#A2E6F2"/>
<path d="M15.4583 14H5.1875C4.34212 14 3.53137 13.659 2.9336 13.0519C2.33582 12.4448 2 11.6215 2 10.763C2 9.90445 2.33582 9.0811 2.9336 8.47404C3.53137 7.86697 4.34212 7.52593 5.1875 7.52593C5.30587 7.52595 5.42414 7.53316 5.54167 7.54751V7.52593C5.48813 6.38124 5.88454 5.26184 6.64372 4.41398C7.40289 3.56611 8.46262 3.05924 9.58979 3.00487C10.717 2.9505 11.8192 3.35308 12.6541 4.12405C13.489 4.89501 13.9881 5.97122 14.0417 7.11591C14.4873 6.91293 14.97 6.80754 15.4583 6.80659C16.3976 6.80659 17.2985 7.18553 17.9627 7.86004C18.6269 8.53455 19 9.44939 19 10.4033C19 11.3572 18.6269 12.272 17.9627 12.9465C17.2985 13.6211 16.3976 14 15.4583 14ZM5.1875 8.24527C4.52998 8.24527 3.8994 8.51053 3.43446 8.98269C2.96953 9.45485 2.70833 10.0952 2.70833 10.763C2.70833 11.4307 2.96953 12.0711 3.43446 12.5432C3.8994 13.0154 4.52998 13.2807 5.1875 13.2807H15.4583C15.901 13.2802 16.3373 13.1745 16.7325 12.9719C17.1276 12.7693 17.4705 12.4755 17.7337 12.1141C17.9968 11.7527 18.173 11.3337 18.2479 10.8907C18.3229 10.4476 18.2946 9.99296 18.1654 9.56305C18.0361 9.13314 17.8095 8.73996 17.5036 8.41503C17.1978 8.09011 16.8212 7.84247 16.4041 7.69198C15.987 7.54149 15.541 7.49233 15.1019 7.54844C14.6627 7.60454 14.2426 7.76436 13.8752 8.01508L13.2908 8.41791L13.3298 7.62664C13.3298 7.59427 13.3298 7.5583 13.3298 7.52593C13.3303 7.03552 13.2321 6.55017 13.0411 6.09973C12.8502 5.64928 12.5705 5.24325 12.2194 4.90659C11.8683 4.56993 11.453 4.30976 10.9992 4.14206C10.5454 3.97436 10.0626 3.90268 9.58057 3.93142C9.09849 3.96016 8.62729 4.08871 8.19593 4.30918C7.76457 4.52966 7.38217 4.83738 7.07222 5.21346C6.76227 5.58953 6.53133 6.026 6.39359 6.49604C6.25585 6.96608 6.21421 7.45976 6.27125 7.94674L6.335 8.47186L5.82854 8.33519C5.61985 8.27589 5.4042 8.24564 5.1875 8.24527Z" fill="#002244"/>
<path d="M10.75 16.5C12.8211 16.5 14.5 14.8211 14.5 12.75C14.5 10.6789 12.8211 9 10.75 9C8.67893 9 7 10.6789 7 12.75C7 14.8211 8.67893 16.5 10.75 16.5Z" fill="#FFC500"/>
<path d="M10.5 17C9.60998 17 8.73996 16.7361 7.99994 16.2416C7.25991 15.7471 6.68314 15.0443 6.34254 14.2221C6.00195 13.3998 5.91283 12.495 6.08647 11.6221C6.2601 10.7492 6.68868 9.94736 7.31802 9.31802C7.94736 8.68868 8.74918 8.2601 9.62209 8.08647C10.495 7.91283 11.3998 8.00195 12.2221 8.34254C13.0443 8.68314 13.7471 9.25991 14.2416 9.99994C14.7361 10.74 15 11.61 15 12.5C15 13.0909 14.8836 13.6761 14.6575 14.2221C14.4313 14.768 14.0998 15.2641 13.682 15.682C13.2641 16.0998 12.768 16.4313 12.2221 16.6575C11.6761 16.8836 11.0909 17 10.5 17ZM10.5 8.69231C9.74691 8.69231 9.01073 8.91563 8.38456 9.33402C7.75839 9.75242 7.27035 10.3471 6.98215 11.0429C6.69396 11.7386 6.61855 12.5042 6.76547 13.2428C6.91239 13.9815 7.27504 14.6599 7.80756 15.1924C8.34007 15.725 9.01854 16.0876 9.75716 16.2345C10.4958 16.3814 11.2614 16.306 11.9571 16.0178C12.6529 15.7297 13.2476 15.2416 13.666 14.6154C14.0844 13.9893 14.3077 13.2531 14.3077 12.5C14.3077 11.4901 13.9065 10.5216 13.1924 9.80756C12.4784 9.09348 11.5099 8.69231 10.5 8.69231Z" fill="#002244"/>
<path d="M11 8H10V17H11V8Z" fill="#002244"/>
<path d="M15 12H6V13H15V12Z" fill="#002244"/>
<path d="M10.5 17C9.09643 17 8 15.0235 8 12.5C8 9.97654 9.09643 8 10.5 8C11.9036 8 13 9.97654 13 12.5C13 15.0235 11.9036 17 10.5 17ZM10.5 8.69231C9.65714 8.69231 8.71429 10.2569 8.71429 12.5C8.71429 14.7431 9.65714 16.3077 10.5 16.3077C11.3429 16.3077 12.2857 14.7431 12.2857 12.5C12.2857 10.2569 11.3429 8.69231 10.5 8.69231Z" fill="#002244"/>
<path d="M9.99837 10.9276C8.87447 10.9281 7.79624 10.4239 7 9.52537L7.4638 9C8.13736 9.76138 9.05007 10.189 10.0016 10.189C10.9532 10.189 11.8659 9.76138 12.5395 9L13 9.52167C12.6068 9.96949 12.139 10.3244 11.6237 10.5657C11.1084 10.8071 10.556 10.9301 9.99837 10.9276ZM12.5395 16C11.8659 15.2386 10.9532 14.811 10.0016 14.811C9.05007 14.811 8.13736 15.2386 7.4638 16L7 15.4783C7.79609 14.578 8.87506 14.0723 10 14.0723C11.1249 14.0723 12.2039 14.578 13 15.4783L12.5395 16Z" fill="#002244"/>
</svg>
