<svg width="20" height="20" viewBox="0 0 20 20" fill="none" xmlns="http://www.w3.org/2000/svg">
<path d="M10 11C8.9122 11 7.84883 10.6774 6.94436 10.0731C6.03989 9.46874 5.33494 8.60976 4.91866 7.60476C4.50238 6.59977 4.39346 5.4939 4.60568 4.42701C4.8179 3.36011 5.34172 2.3801 6.11091 1.61092C6.8801 0.841726 7.86011 0.317902 8.927 0.105683C9.9939 -0.106535 11.0998 0.00238308 12.1048 0.418665C13.1098 0.834947 13.9687 1.5399 14.5731 2.44437C15.1774 3.34884 15.5 4.41221 15.5 5.5C15.4974 6.95788 14.917 8.35529 13.8862 9.38617C12.8553 10.417 11.4579 10.9974 10 11ZM10 2C9.30777 2 8.63108 2.20527 8.0555 2.58986C7.47993 2.97444 7.03133 3.52107 6.76642 4.16061C6.50151 4.80015 6.4322 5.50389 6.56725 6.18282C6.7023 6.86175 7.03564 7.48539 7.52513 7.97488C8.01461 8.46436 8.63825 8.7977 9.31718 8.93275C9.99612 9.0678 10.6999 8.99849 11.3394 8.73358C11.9789 8.46867 12.5256 8.02007 12.9101 7.4445C13.2947 6.86893 13.5 6.19224 13.5 5.5C13.5 4.57174 13.1313 3.68151 12.4749 3.02513C11.8185 2.36875 10.9283 2 10 2ZM19 20H1C0.734784 20 0.48043 19.8946 0.292893 19.7071C0.105357 19.5196 0 19.2652 0 19C0 17.1435 0.737498 15.363 2.05025 14.0503C3.36301 12.7375 5.14348 12 7 12H13C14.8565 12 16.637 12.7375 17.9497 14.0503C19.2625 15.363 20 17.1435 20 19C20 19.2652 19.8946 19.5196 19.7071 19.7071C19.5196 19.8946 19.2652 20 19 20ZM2.1 18H17.9C17.6695 16.8706 17.0558 15.8556 16.1629 15.1267C15.27 14.3978 14.1527 13.9998 13 14H7C5.84735 13.9998 4.73001 14.3978 3.8371 15.1267C2.94418 15.8556 2.33053 16.8706 2.1 18Z" fill="#073387"/>
</svg>
