<svg width="16" height="20" viewBox="0 0 16 20" fill="none" xmlns="http://www.w3.org/2000/svg">
<path d="M1.44521 11.292C0.871822 11.292 0.339386 11.6807 0.413107 12.1546L1.44521 18.8892C1.46647 19.0905 1.56948 19.2776 1.73436 19.4144C1.89924 19.5511 2.11432 19.6278 2.33807 19.6296H13.6667C13.889 19.626 14.1021 19.5485 14.2652 19.4119C14.4284 19.2754 14.5302 19.0893 14.5513 18.8892L15.5711 12.162C15.6449 11.6881 15.1124 11.2994 14.539 11.2994L1.44521 11.292ZM7.99827 14.0539C9.08362 14.0539 9.96828 14.4982 9.96828 15.4053C9.96828 16.3124 8.9116 17.5045 7.99827 17.5045C7.08494 17.5045 6.02826 16.2975 6.02826 15.4053C6.02826 14.513 6.91292 14.0539 7.99827 14.0539Z" fill="#E0E9EE"/>
<path d="M9.97128 15.4051C9.97128 16.3121 8.91459 17.5043 8.00126 17.5043C7.08793 17.5043 6.03125 16.2973 6.03125 15.4051C6.03125 14.5128 6.91591 14.0537 8.00126 14.0537C9.08661 14.0537 9.97128 14.498 9.97128 15.4051Z" fill="#DD5891"/>
<path d="M3.61753 9.21876C3.44976 9.21826 3.28354 9.24783 3.12849 9.30576C2.97344 9.36368 2.83262 9.4488 2.71418 9.55621C2.59574 9.66362 2.50203 9.79119 2.43845 9.93154C2.37487 10.0719 2.34269 10.2222 2.34378 10.3739V11.2958H6.02987L5.35409 9.22246L3.61753 9.21876ZM10.6662 9.21876L9.99037 11.2921H13.656V10.3739C13.656 10.0685 13.5218 9.77564 13.2829 9.5597C13.044 9.34377 12.7201 9.22246 12.3822 9.22246L10.6662 9.21876Z" fill="#748A95"/>
<path d="M8.54688 9.21875L9.03426 11.2921H9.98036L10.6561 9.21875H8.54688Z" fill="#F0F4F7"/>
<path d="M6.96875 11.2921L7.46433 9.21875H8.54558L9.04115 11.2958L6.96875 11.2921Z" fill="#DD5891"/>
<path d="M5.34375 9.21875L6.01953 11.2921H6.96563L7.44892 9.21875H5.34375Z" fill="#F0F4F7"/>
<path d="M11.0294 9.21875L10.9844 9.40387C11.1637 9.50837 11.3109 9.65202 11.4126 9.82156C11.5142 9.99109 11.567 10.181 11.566 10.3739V11.2958H13.6507V10.3739C13.6517 10.2224 13.6195 10.0722 13.5559 9.93209C13.4923 9.79194 13.3985 9.66462 13.28 9.5575C13.1615 9.45039 13.0207 9.36561 12.8656 9.3081C12.7106 9.25058 12.5445 9.22147 12.3769 9.22245L11.0294 9.21875Z" fill="#617880"/>
<path d="M8.00868 3.70996C7.55272 3.95505 7.04661 4.1142 6.52082 4.17783C5.99503 4.24145 5.46044 4.20824 4.94922 4.08019V5.00578C4.97821 5.72224 5.31346 6.40063 5.88443 6.89823C6.45541 7.39584 7.21761 7.67388 8.01072 7.67388C8.80384 7.67388 9.56604 7.39584 10.137 6.89823C10.708 6.40063 11.0432 5.72224 11.0722 5.00578V4.08019C10.5603 4.20833 10.0251 4.24159 9.49862 4.17797C8.97215 4.11434 8.46535 3.95515 8.00868 3.70996Z" fill="#EFC89D"/>
<path d="M10.1789 1.19922C9.76264 2.22224 9.00021 3.10059 8 3.7094C8.45667 3.95459 8.96347 4.11378 9.48994 4.17741C10.0164 4.24103 10.5517 4.20777 11.0636 4.07963V3.15405C11.0638 2.42495 10.7459 1.72518 10.1789 1.20662V1.19922Z" fill="#617880"/>
<path d="M8.00869 0.37794C7.60661 0.376963 7.20828 0.447831 6.83661 0.586472C6.46493 0.725112 6.12723 0.928791 5.84291 1.1858C5.5586 1.44281 5.33328 1.74808 5.17992 2.08406C5.02655 2.42005 4.94815 2.78012 4.94923 3.14358V4.08027C8.79505 4.9133 10.1876 1.21096 10.1876 1.20726C9.90396 0.944618 9.56507 0.735936 9.19087 0.593507C8.81666 0.451079 8.41471 0.377784 8.00869 0.37794Z" fill="#748A95"/>
<path d="M11.0682 4.0791C10.6149 4.18247 10.1462 4.21996 9.67979 4.19017V5.00468C9.68087 5.62982 9.44732 6.23679 9.01731 6.72638C8.5873 7.21596 7.98628 7.5592 7.3125 7.69998C7.53924 7.74988 7.77135 7.77719 8.00467 7.78143C8.40694 7.78241 8.80546 7.71157 9.17737 7.57297C9.54927 7.43438 9.88724 7.23076 10.1719 6.9738C10.4565 6.71684 10.6822 6.4116 10.836 6.07559C10.9899 5.73959 11.0688 5.37943 11.0682 5.01579V4.0791Z" fill="#EBB87F"/>
<path d="M12.9163 11.292C13.4897 11.292 14.0221 11.6807 13.9484 12.1546L12.9163 18.8892C12.895 19.0905 12.792 19.2776 12.6271 19.4144C12.4623 19.5511 12.2472 19.6278 12.0234 19.6296H13.6617C13.8855 19.6278 14.1005 19.5511 14.2654 19.4144C14.4303 19.2776 14.5333 19.0905 14.5546 18.8892L15.5744 12.162C15.6481 11.6881 15.1157 11.2994 14.5423 11.2994L12.9163 11.292Z" fill="#D0E1E8"/>
<path d="M1.92956 10.3739V10.9256H1.45037C1.23264 10.9248 1.01718 10.9656 0.818125 11.0453C0.619072 11.1251 0.44093 11.242 0.295393 11.3884C0.18519 11.4988 0.10255 11.6293 0.0530822 11.7711C0.00361451 11.9129 -0.0115234 12.0627 0.00869643 12.2103L1.0408 18.9337C1.07399 19.2241 1.22426 19.4933 1.46296 19.69C1.70166 19.8866 2.01209 19.997 2.33503 20H13.6718C13.9948 19.997 14.3052 19.8866 14.5439 19.69C14.7826 19.4933 14.9329 19.2241 14.966 18.9337L15.99 12.2251C16.0118 12.0778 15.9979 11.9279 15.9491 11.7859C15.9003 11.644 15.8178 11.5134 15.7074 11.4032C15.5642 11.2539 15.3875 11.1338 15.1891 11.0508C14.9907 10.9678 14.7751 10.9239 14.5565 10.9219H14.0773V10.3739C14.0762 9.97067 13.8985 9.5842 13.5831 9.29904C13.2676 9.01389 12.8401 8.85325 12.394 8.85228H3.61288C3.16677 8.85325 2.73924 9.01389 2.42379 9.29904C2.10834 9.5842 1.93064 9.97067 1.92956 10.3739ZM2.74869 10.3739C2.74977 10.1671 2.84116 9.96892 3.003 9.82263C3.16483 9.67633 3.38401 9.59372 3.61288 9.59274H5.02998L5.47231 10.9256H2.74869V10.3739ZM8.2123 9.59274L8.53177 10.9256H7.47508L7.79045 9.59274H8.2123ZM9.37138 10.9256L9.05191 9.59274H10.1209L9.68264 10.9256H9.37138ZM6.63547 10.9256H6.3242L5.88597 9.59274H6.95494L6.63547 10.9256ZM15.0889 11.8549C15.1227 11.8857 15.1483 11.923 15.1639 11.9641C15.1795 12.0051 15.1847 12.0487 15.179 12.0918L14.1469 18.8338C14.14 18.9453 14.0876 19.0505 13.9998 19.1291C13.9121 19.2078 13.7952 19.2542 13.6718 19.2595H2.33503C2.21162 19.2542 2.09477 19.2078 2.00703 19.1291C1.91929 19.0505 1.86688 18.9453 1.85993 18.8338L0.827828 12.1066C0.819565 12.0612 0.823432 12.0147 0.839106 11.9709C0.854779 11.9271 0.881806 11.8873 0.917933 11.8549C0.987675 11.7919 1.07082 11.7424 1.16233 11.7093C1.25385 11.6762 1.35183 11.6602 1.45037 11.6623H14.5565C14.655 11.6602 14.753 11.6762 14.8445 11.7093C14.936 11.7424 15.0192 11.7919 15.0889 11.8549ZM13.2582 10.3739V10.9256H10.5345L10.9769 9.59274H12.394C12.6228 9.59372 12.842 9.67633 13.0039 9.82263C13.1657 9.96892 13.2571 10.1671 13.2582 10.3739ZM4.53031 3.14698V4.99815C4.53031 5.83278 4.89709 6.63323 5.54996 7.2234C6.20283 7.81358 7.08832 8.14513 8.01162 8.14513C8.93492 8.14513 9.8204 7.81358 10.4733 7.2234C11.1261 6.63323 11.4929 5.83278 11.4929 4.99815V3.14698C11.4929 2.31235 11.1261 1.5119 10.4733 0.92173C9.8204 0.331556 8.93492 0 8.01162 0C7.08832 0 6.20283 0.331556 5.54996 0.92173C4.89709 1.5119 4.53031 2.31235 4.53031 3.14698ZM8.00342 0.747871C8.62338 0.746504 9.22392 0.943198 9.69903 1.30322C8.90447 2.96927 7.36041 4.07997 5.34944 3.76897V3.14698C5.35052 2.511 5.63048 1.90134 6.12797 1.45164C6.62545 1.00193 7.29988 0.74885 8.00342 0.747871ZM8.00342 7.41207C7.30025 7.41207 6.62582 7.15982 6.12822 6.7107C5.63062 6.26158 5.35052 5.6523 5.34944 5.01666V4.51314C5.57725 4.54435 5.80713 4.56167 6.03751 4.56498C6.72399 4.56694 7.40001 4.4129 8.00342 4.11699C8.6076 4.41113 9.28312 4.56506 9.96934 4.56498C10.1997 4.56212 10.4297 4.5448 10.6574 4.51314V4.99815C10.6596 5.31445 10.5925 5.62801 10.4601 5.9208C10.3277 6.21358 10.1326 6.47981 9.88589 6.70416C9.63923 6.92851 9.34593 7.10655 9.02286 7.22804C8.69979 7.34953 8.35333 7.41208 8.00342 7.41207ZM10.6574 3.78378C10.0329 3.89092 9.38799 3.8449 8.78979 3.6505C9.40097 3.16884 9.90428 2.58568 10.2724 1.93262C10.5237 2.30375 10.657 2.73035 10.6574 3.16549V3.78378Z" fill="#32345D"/>
<path d="M8.00067 13.6836C6.5549 13.6836 5.62109 14.3574 5.62109 15.4052C5.62109 16.4529 6.79655 17.8746 8.00067 17.8746C9.2048 17.8746 10.3803 16.4603 10.3803 15.4052C10.3803 14.35 9.44644 13.6836 8.00067 13.6836ZM8.00067 17.1342C7.34537 17.1342 6.44023 16.1308 6.44023 15.4052C6.44023 14.4944 7.63616 14.4241 8.00067 14.4241C8.36519 14.4241 9.56112 14.4944 9.56112 15.4052C9.56112 16.1308 8.65598 17.1342 8.00067 17.1342Z" fill="#32345D"/>
</svg>
