<svg width="5" height="4" viewBox="0 0 5 4" fill="none" xmlns="http://www.w3.org/2000/svg">
<path d="M4.52109 3.23069H0.419171C0.373268 3.23069 0.329245 3.21246 0.296787 3.18C0.264328 3.14754 0.246094 3.10352 0.246094 3.05762V0.980694C0.246094 0.934791 0.264328 0.890768 0.296787 0.85831C0.329245 0.825852 0.373268 0.807617 0.419171 0.807617H4.52109C4.567 0.807617 4.61102 0.825852 4.64348 0.85831C4.67594 0.890768 4.69417 0.934791 4.69417 0.980694V3.05762C4.69417 3.10352 4.67594 3.14754 4.64348 3.18C4.61102 3.21246 4.567 3.23069 4.52109 3.23069V3.23069ZM0.598016 2.88454H4.35379V1.15377H0.592248L0.598016 2.88454Z" fill="#2481D7"/>
</svg>
